<?xml version="1.0" encoding="UTF-8"?>

<svg viewBox="0 0 108 117" version="1.1" xmlns="http://www.w3.org/2000/svg" xmlns:xlink="http://www.w3.org/1999/xlink">
    <!-- Generator: Sketch 51 (57462) - http://www.bohemiancoding.com/sketch -->
    <g id="Page-1" stroke="none" stroke-width="1" fill="none" fill-rule="evenodd">
        <g id="sansévéria_feelgood" transform="translate(0.000000, -6.000000)" fill-rule="nonzero">
            <g id="Group-2" transform="translate(36.222313, 21.197632) rotate(-46.000000) translate(-36.222313, -21.197632) translate(21.722313, 5.697632)">
                <path d="M10.2697536,26.436 C10.2697536,26.436 10.1417536,23.6 13.6487536,16.955 C18.1827536,8.368 15.4097536,1 15.4097536,1 C15.4097536,1 5.12075364,4.01 2.51275364,11.569 C-0.43224636,20.101 10.2697536,26.436 10.2697536,26.436 Z" id="Fill-183" fill="#BB494A"></path>
                <path d="M2.014,12.0693494 L0.596,11.5793494 C0.186,12.7653494 0,13.9373494 0,15.0613494 C0,17.1063494 0.607,18.9673494 1.472,20.5723494 C2.773,22.9813494 4.644,24.8573494 6.186,26.1643494 C7.729,27.4683494 8.956,28.1963494 9.007,28.2263494 C9.488,28.5123494 10.085,28.5053494 10.562,28.2103494 C11.037,27.9153494 11.308,27.3833494 11.267,26.8253494 L10.309,26.8963494 L11.27,26.8963494 L10.309,26.8963494 L11.27,26.8963494 C11.269,26.8423494 11.289,24.1933494 14.476,18.1553494 C16.645,14.0503494 17.25,10.1743494 17.25,7.16834938 C17.248,3.48534938 16.357,1.09034938 16.314,0.972349383 C16.039,0.239349383 15.241,-0.159650617 14.489,0.0603493827 C14.416,0.0843493827 11.747,0.863349383 8.682,2.65534938 C7.15,3.55434938 5.516,4.70734938 4.063,6.17334938 C2.613,7.63834938 1.338,9.42934938 0.596,11.5793494 L2.014,12.0693494 L3.432,12.5583494 C3.993,10.9293494 4.983,9.50834938 6.195,8.28334938 C8.009,6.44734938 10.316,5.08334938 12.163,4.20534938 C13.085,3.76534938 13.892,3.44434938 14.46,3.23634938 C14.744,3.13234938 13.5278576,3.58704321 13.6778576,3.53804321 L13.8458576,3.48404321 C13.8901505,3.46865678 14.251,4.07534938 14.249,7.16834938 C14.248,9.78034938 13.732,13.1363494 11.823,16.7553494 C8.473,23.1023494 8.271,26.2233494 8.27,26.8963494 L8.275,27.0463494 L9.771,26.9363494 L10.535,25.6453494 L10.465,25.7623494 L10.535,25.6453494 L10.465,25.7623494 L10.535,25.6453494 C10.478,25.6133494 8.502,24.4153494 6.613,22.4703494 C5.668,21.5003494 4.748,20.3473494 4.082,19.0903494 C3.414,17.8303494 3,16.4833494 3,15.0613494 C3,14.2643494 3.129,13.4363494 3.432,12.5583494 L2.014,12.0693494 L14.8256429,4.03146997" id="Fill-184" fill="#2D2118"></path>
                <path d="M23.322,25.339 C17.039,31.819 10,26.369 10,26.369 C10,26.369 12.587,25.202 16.93,19.071 C22.545,11.148 26.186,9 26.186,9 C26.186,9 28.887,19.599 23.322,25.339" id="Fill-185" fill="#BB494A"></path>
                <path d="M22.7454458,24.7944611 C21.7004458,25.8704611 20.6774458,26.5374611 19.7004458,26.9474611 C18.7224458,27.3554611 17.7824458,27.5104611 16.8834458,27.5114611 C15.3744458,27.5144611 13.9804458,27.0554611 12.9724458,26.5814611 C12.4694458,26.3454611 12.0644458,26.1094611 11.7944458,25.9374611 C11.6594458,25.8514611 11.5564458,25.7814611 11.4934458,25.7364611 L11.4264458,25.6874611 L11.1384458,26.0424611 L11.4184458,25.6824611 L11.1384458,26.0424611 L11.4184458,25.6824611 L10.5004458,26.8684611 L11.1174458,28.2354611 C11.4274458,28.0944611 14.2034458,26.7204611 18.6544458,20.4374611 C21.4104458,16.5484611 23.6604458,14.1064611 25.1954458,12.6524611 C25.9634458,11.9254611 25.2632474,12.5071614 25.6472474,12.2161614 C25.7148414,12.4492029 25.8434458,12.4614611 25.8414458,15.3654611 C25.8424458,16.9614611 25.6754458,18.7184611 25.1994458,20.3674611 C24.7224458,22.0204611 23.9484458,23.5534611 22.7444458,24.7944611 L23.8224458,25.8384611 L24.8994458,26.8824611 C26.5194458,25.2104611 27.5044458,23.2044611 28.0814458,21.1984611 C28.6594458,19.1884611 28.8404458,17.1654611 28.8414458,15.3654611 C28.8394458,11.8744611 28.1574458,9.20546111 28.1394458,9.12946111 C28.0234458,8.67346111 27.6984458,8.29546111 27.2634458,8.11546111 C26.8274458,7.93346111 26.3304458,7.96846111 25.9244458,8.20746111 C25.7204458,8.32746111 21.9224458,10.6354611 16.2064458,18.7024611 C14.0904458,21.6904611 12.4304458,23.4274611 11.3394458,24.3974611 C10.7944458,24.8824611 10.3914458,25.1754611 10.1444458,25.3384611 C10.0214458,25.4204611 9.93644578,25.4694611 9.89244578,25.4934611 L10.1684458,26.1334611 L9.88344578,25.5004611 L10.1684458,26.1334611 L9.88344578,25.5004611 C9.40344578,25.7174611 9.07244578,26.1694611 9.01044578,26.6924611 C8.94844578,27.2144611 9.16544578,27.7314611 9.58144578,28.0534611 C9.64444578,28.1014611 10.4184458,28.6974611 11.6994458,29.2984611 C12.9794458,29.8964611 14.7764458,30.5094611 16.8834458,30.5114611 C18.1324458,30.5124611 19.4904458,30.2884611 20.8594458,29.7144611 C22.2284458,29.1424611 23.6014458,28.2224611 24.8994458,26.8824611 L23.8224458,25.8384611 L22.7454458,24.7944611 Z" id="Fill-186" fill="#2D2118"></path>
                <path d="M7.86302231,14.046 C4.92002231,22.577 10.4480223,26.124 10.4480223,26.124 C10.4480223,26.124 17.1500223,27.038 20.6580223,20.393 C25.1910223,11.805 22.2320223,3 22.2320223,3 C22.2320223,3 10.4700223,6.486 7.86302231,14.046" id="Fill-187" fill="#CF6153"></path>
                <path d="M5.94601867,14.0567759 C5.27801867,15.9907759 5.00001867,17.7337759 5.00001867,19.2797759 C4.99501867,22.1877759 5.99501867,24.3597759 7.00801867,25.7547759 C8.02201867,27.1557759 9.03001867,27.8157759 9.13901867,27.8867759 C9.32301867,28.0047759 9.53001867,28.0807759 9.74701867,28.1107759 C9.80301867,28.1177759 10.1800187,28.1667759 10.7850187,28.1667759 C11.8840187,28.1647759 13.7460187,28.0097759 15.7700187,27.1027759 C17.7920187,26.2017759 19.9590187,24.4997759 21.4850187,21.5947759 C23.5930187,17.5987759 24.1810187,13.5807759 24.1810187,10.3327759 C24.1780187,6.08777594 23.1870187,3.12477594 23.1550187,3.02277594 C22.8980187,2.25977594 22.0780187,1.83277594 21.3060187,2.06177594 C21.2420187,2.08277594 18.2190187,2.97677594 14.7970187,4.87777594 C13.0860187,5.82977594 11.2730187,7.03477594 9.67801867,8.54177594 C8.08701867,10.0477759 6.70201867,11.8687759 5.94601867,14.0567759 L7.36401867,14.5467759 L8.78201867,15.0357759 C9.32901867,13.4437759 10.3920187,11.9947759 11.7400187,10.7207759 C13.7550187,8.80877594 16.3850187,7.33177594 18.4990187,6.36577594 C19.5560187,5.88077594 20.03372,5.63952147 20.69072,5.40252147 C21.01972,5.28352147 20.31772,5.52252147 20.49372,5.46552147 L20.69072,5.40252147 L20.74772,5.38552147 L20.69072,5.40252147 C20.71572,5.47052147 21.1830187,6.67777594 21.1800187,10.3327759 C21.1800187,13.2247759 20.6570187,16.7387759 18.8320187,20.1937759 C17.6070187,22.4987759 16.0400187,23.6837759 14.5400187,24.3657759 C13.0420187,25.0417759 11.5930187,25.1687759 10.7850187,25.1667759 C10.5630187,25.1667759 10.3910187,25.1577759 10.2810187,25.1497759 L10.1640187,25.1397759 L10.0870187,25.6027759 L10.1510187,25.1377759 L10.0870187,25.6027759 L10.1510187,25.1377759 L9.94901867,26.6247759 L10.7590187,25.3617759 L10.3230187,26.0417759 L10.7700187,25.3687759 L10.3230187,26.0417759 L10.7700187,25.3687759 L10.6520187,25.2827759 C10.3820187,25.0737759 9.70701867,24.4877759 9.11701867,23.5087759 C8.52601867,22.5267759 8.00301867,21.1667759 8.00001867,19.2797759 C8.00001867,18.0927759 8.21101867,16.6897759 8.78201867,15.0357759 L7.36401867,14.5467759 L5.94601867,14.0567759 Z" id="Fill-188" fill="#2D2118"></path>
                <polyline id="Fill-189" fill="#7DA334" points="5 22 5.432 28.687 13.136 28.191 5 22"></polyline>
                <path d="M3.00316188,21.5964276 L3.43516188,28.2844276 C3.48916188,29.1114276 4.20116188,29.7374276 5.02916188,29.6844276 L12.7321619,29.1884276 C13.3551619,29.1484276 13.8911619,28.7234276 14.0711619,28.1244276 C14.2521619,27.5264276 14.0411619,26.8764276 13.5441619,26.4974276 L5.40816188,20.3064276 C4.94016188,19.9504276 4.30816188,19.9004276 3.79016188,20.1784276 C3.27216188,20.4564276 2.96516188,21.0094276 3.00316188,21.5964276 L4.50016188,21.5004276 L6.21772408,24.724082 L4.50016188,21.5004276 L3.59116188,22.6934276 L4.50016188,21.5004276 L3.00316188,21.5964276 Z" id="Fill-190" fill="#2D2118"></path>
            </g>
            <path d="M58.1448961,42.21 C52.3058961,49.657 60.2388961,63.639 60.2388961,63.639 C60.2388961,63.639 70.8558961,62.367 73.7248961,53.35 C78.7798961,37.464 66.7918961,24 66.7918961,24 C66.7918961,24 67.2778961,30.558 58.1448961,42.21" id="Fill-96" fill="#859D49"></path>
            <path d="M57.4020048,41.875 C55.6160048,44.154 54.9980048,46.924 55.0000048,49.646 C55.0050048,53.354 56.1130048,57.063 57.2010048,59.879 C58.2920048,62.692 59.3770048,64.604 59.3960048,64.639 L59.7900048,65.334 L60.5850048,65.24 C60.6650048,65.228 63.4290048,64.898 66.6290048,63.367 C68.2280048,62.599 69.9390048,61.527 71.4570048,60.022 C72.9740048,58.519 74.2940048,56.574 75.0730048,54.121 C75.9930048,51.231 76.3730048,48.411 76.3730048,45.736 C76.3700048,39.389 74.2460048,33.878 72.1420048,29.949 C70.0350048,26.018 67.9360048,23.657 67.8930048,23.607 L65.5710048,21 L65.7950048,24.484 C65.7910048,25.429 65.5190048,31.508 57.4020048,41.875 L58.3480048,42.617 L59.2950048,43.358 C67.6820048,32.664 67.8560375,27.1123604 67.8473599,27.1123604 C68.0433599,27.3363604 68.2920048,27.765 70.2080048,31.435 C72.1280048,35.106 73.9700048,40.117 73.9680048,45.736 C73.9680048,48.184 73.6220048,50.75 72.7810048,53.392 C72.1260048,55.448 71.0430048,57.043 69.7630048,58.315 C67.8470048,60.219 65.4660048,61.373 63.5590048,62.032 C62.6070048,62.362 61.7770048,62.569 61.1920048,62.693 C60.9000048,62.755 60.6690048,62.795 60.5150048,62.82 L60.3440048,62.846 L60.4420048,64.046 L61.4880048,63.453 C61.3740048,63.251 60.3420048,61.379 59.3460048,58.759 C58.3480048,56.14 57.4000048,52.766 57.4050048,49.646 C57.4060048,47.268 57.9380048,45.086 59.2940048,43.359 L58.3480048,42.617 L57.4020048,41.875 Z" id="Fill-97" fill="#1D1209"></path>
            <path d="M67.411,53.799 C67.253,53.139 67.117,52.508 67,51.905 C67.064,51.656 67.127,51.407 67.193,51.16 C67.42,50.296 67.559,49.412 67.742,48.556 C67.896,47.693 67.994,46.835 68.118,46.013 C68.223,45.187 68.26,44.381 68.329,43.623 C68.411,42.867 68.385,42.143 68.407,41.481 C68.407,40.818 68.456,40.212 68.412,39.673 C68.387,39.136 68.363,38.668 68.346,38.282 C68.336,38.074 68.327,37.891 68.319,37.733 C68.354,33.723 68.018,30.204 67.683,27.724 C67.75,27.471 67.81,27.229 67.863,27 C68.571,28.025 69.42,29.369 70.256,30.97 C71.278,32.924 72.278,35.258 72.99,37.861 L72.454,37.26 L72.678,40.736 L72.68,40.847 C72.676,41.563 72.478,46.076 67.411,53.799" id="Fill-98" fill="#4E6F36"></path>
            <path d="M74.626,39.804 L72.947,37.919 C72.235,35.316 71.235,32.982 70.213,31.028 C69.377,29.427 68.528,28.083 67.82,27.058 C67.767,27.287 67.707,27.529 67.64,27.782 C67.32,25.419 67,24 67,24 C67,24 72.791,30.503 74.626,39.804" id="Fill-99" fill="#130C03"></path>
            <path d="M60,62.747 C60.017,62.726 60.261,62.463 60.717,61.877 C61.16,61.289 61.796,60.437 62.468,59.34 C62.818,58.8 63.152,58.188 63.523,57.548 C63.858,56.889 64.249,56.211 64.578,55.471 C64.75,55.104 64.923,54.731 65.1,54.353 C65.259,53.967 65.419,53.576 65.581,53.182 C65.923,52.4 66.183,51.573 66.478,50.755 C66.771,49.936 66.977,49.092 67.228,48.271 C67.451,47.443 67.617,46.615 67.808,45.818 C67.979,45.018 68.083,44.232 68.215,43.491 C68.361,42.751 68.395,42.04 68.473,41.386 C68.529,40.731 68.629,40.132 68.63,39.596 C68.651,39.061 68.668,38.594 68.683,38.21 C68.712,37.44 68.729,37 68.729,37 C68.729,37 68.75,37.44 68.787,38.209 C68.804,38.595 68.828,39.063 68.853,39.6 C68.897,40.139 68.848,40.745 68.848,41.408 C68.826,42.07 68.852,42.794 68.77,43.55 C68.701,44.308 68.664,45.114 68.559,45.94 C68.435,46.762 68.337,47.62 68.183,48.483 C68,49.339 67.861,50.223 67.634,51.087 C67.404,51.949 67.209,52.824 66.925,53.659 C66.793,54.08 66.662,54.497 66.533,54.91 C66.382,55.316 66.236,55.717 66.09,56.113 C65.816,56.91 65.47,57.649 65.177,58.366 C64.85,59.067 64.552,59.739 64.234,60.338 C63.626,61.552 63.025,62.523 62.597,63.204 C62.164,63.875 61.845,64.29 61.862,64.269 L60,62.747" id="Fill-100" fill="#1D1209"></path>
            <path d="M45.6174658,36.946 C42.2254658,45.78 53.9144658,56.814 53.9144658,56.814 C53.9144658,56.814 63.6874658,52.48 63.7834658,43.019 C63.9494658,26.349 48.5364658,17 48.5364658,17 C48.5364658,17 50.9254658,23.127 45.6174658,36.946" id="Fill-101" fill="#859D49"></path>
            <path d="M45.821,36.809 L44.699,36.377 C44.211,37.646 44,38.953 44,40.245 C44.002,42.474 44.614,44.654 45.493,46.675 C46.818,49.706 48.758,52.398 50.369,54.356 C51.981,56.311 53.266,57.526 53.292,57.551 L53.873,58.1 L54.605,57.776 C54.678,57.741 57.223,56.614 59.832,54.211 C61.134,53.008 62.455,51.481 63.465,49.596 C64.473,47.714 65.164,45.467 65.189,42.894 C65.19,42.799 65.19,42.708 65.19,42.615 C65.189,33.978 61.199,27.267 57.27,22.761 C53.334,18.246 49.43,15.878 49.363,15.835 L46.334,14 L47.619,17.3 L48.024,17.142 L47.616,17.291 C47.628,17.325 48.072,18.558 48.073,21.154 C48.073,24.229 47.446,29.221 44.699,36.378 L45.821,36.809 L46.943,37.24 C49.781,29.85 50.478,24.2222456 50.478,21.154 C50.478,18.0857544 50.531,19.9912458 50.478,19.8582458 C50.641,19.9572458 52.002,20.31 55.63,24.54 C59.265,28.778 62.787,34.871 62.785,42.615 L62.784,42.875 C62.761,45.027 62.195,46.87 61.345,48.461 C60.072,50.845 58.134,52.647 56.505,53.836 C55.692,54.431 54.96,54.873 54.437,55.163 C54.176,55.308 53.968,55.415 53.827,55.484 L53.671,55.559 L54.118,56.677 L54.943,55.802 C54.698,55.569 52.521,53.451 50.435,50.481 C49.391,48.998 48.372,47.302 47.624,45.544 C46.875,43.785 46.404,41.969 46.405,40.245 C46.406,39.211 46.571,38.21 46.943,37.24 L45.821,36.809 L46.1783447,17.3" id="Fill-102" fill="#1D1209"></path>
            <path d="M56.482,48.078 C56.496,47.81 56.511,47.54 56.526,47.268 C56.528,46.836 56.531,46.398 56.534,45.957 C56.559,45.076 56.489,44.182 56.456,43.29 C56.419,42.398 56.292,41.512 56.215,40.64 C56.11,39.77 55.952,38.921 55.829,38.099 C55.685,37.278 55.485,36.497 55.329,35.753 C55.185,35.005 54.948,34.321 54.774,33.682 C54.579,33.048 54.448,32.455 54.248,31.953 C54.065,31.447 53.907,31.005 53.776,30.642 C53.702,30.436 53.636,30.255 53.581,30.101 C52.438,26.269 51.087,23.013 50.04,20.746 C50.031,20.484 50.017,20.235 50,20 C51.422,21.123 53.327,22.802 55.208,24.995 C58.753,29.128 62.189,35.024 62.357,42.495 C60.86,43.652 58.884,45.359 56.899,47.599 C56.76,47.756 56.621,47.915 56.482,48.078" id="Fill-103" fill="#4E6F36"></path>
            <path d="M55.89,24.677 C54.009,22.484 51.9049102,20.9797505 50.4829102,19.8567505 C49.4839102,17.6917505 49,17 49,17 C49,17 63.361,25.711 64.209,41.308 C63.867,41.551 63.473,41.841 63.039,42.177 C62.871,34.706 59.435,28.81 55.89,24.677 Z" id="Fill-104" fill="#130C03"></path>
            <path d="M53,56.174 C53.009,56.15 53.166,55.827 53.429,55.132 C53.679,54.44 54.039,53.438 54.358,52.193 C54.533,51.575 54.673,50.89 54.84,50.17 C54.966,49.443 55.142,48.679 55.238,47.875 C55.295,47.475 55.351,47.066 55.41,46.653 C55.448,46.238 55.486,45.817 55.525,45.393 C55.624,44.545 55.629,43.678 55.671,42.809 C55.71,41.941 55.659,41.073 55.658,40.215 C55.629,39.358 55.544,38.517 55.492,37.7 C55.42,36.885 55.289,36.103 55.199,35.356 C55.12,34.605 54.943,33.915 54.826,33.268 C54.687,32.626 54.607,32.023 54.451,31.511 C54.314,30.993 54.193,30.542 54.094,30.171 C53.896,29.426 53.783,29 53.783,29 C53.783,29 53.931,29.414 54.193,30.139 C54.324,30.502 54.482,30.944 54.665,31.45 C54.865,31.952 54.996,32.545 55.191,33.179 C55.365,33.818 55.602,34.502 55.746,35.25 C55.902,35.994 56.102,36.775 56.246,37.596 C56.369,38.418 56.527,39.267 56.632,40.137 C56.709,41.009 56.836,41.895 56.873,42.787 C56.906,43.679 56.976,44.573 56.951,45.454 C56.948,45.895 56.945,46.333 56.943,46.765 C56.92,47.198 56.896,47.624 56.873,48.044 C56.844,48.887 56.732,49.695 56.663,50.467 C56.554,51.233 56.468,51.963 56.34,52.629 C56.115,53.968 55.825,55.072 55.617,55.849 C55.398,56.617 55.216,57.107 55.226,57.083 L53,56.174" id="Fill-105" fill="#1D1209"></path>
            <path d="M47.782,38.948 C47.495,38.334 47.236,37.745 47,37.18 C47.843,33.366 49.436,30 49.436,30 C49.436,30 48.968,33.31 48.87,37.954 L47.782,38.948" id="Fill-106" fill="#B4BE69"></path>
            <path d="M50.196341,45.997 C55.241341,54.002 45.919341,67.1 45.919341,67.1 C45.919341,67.1 35.490341,64.749 33.557341,55.486 C30.153341,39.166 43.454341,27 43.454341,27 C43.454341,27 42.302341,33.474 50.196341,45.997" id="Fill-107" fill="#859D49"></path>
            <path d="M49.381,46.923 C50.31,48.396 50.691,50.088 50.693,51.913 C50.701,55.279 49.334,59.023 47.928,61.879 C47.229,63.309 46.525,64.521 46.001,65.37 C45.738,65.794 45.521,66.128 45.37,66.353 C45.295,66.466 45.236,66.552 45.197,66.608 L45.142,66.687 L46.122,67.385 L46.386,66.212 C46.144,66.156 43.639,65.523 41.043,63.87 C39.743,63.044 38.422,61.968 37.33,60.599 C36.236,59.228 35.365,57.572 34.937,55.526 C34.567,53.757 34.404,52.042 34.404,50.388 C34.402,43.934 36.905,38.367 39.442,34.407 C40.708,32.429 41.977,30.857 42.924,29.787 C42.922,32.284 43.17,37.076 49.382,46.923 L51.416,45.641 C45.404,36.101 44.802,30.27 44.8,28.272 C44.8,27.98 44.813,27.769 44.824,27.64 L44.839,27.507 L44.374,27.413 L44.84,27.496 L44.374,27.413 L44.84,27.496 L45.464,24 L42.845,26.398 C42.794,26.446 40.112,28.901 37.417,33.11 C34.726,37.317 32.003,43.301 32,50.388 C32,52.201 32.179,54.082 32.583,56.017 C33.108,58.536 34.222,60.606 35.577,62.256 C37.614,64.735 40.171,66.289 42.212,67.242 C44.256,68.194 45.798,68.543 45.857,68.557 L46.637,68.733 L47.101,68.082 C47.126,68.046 48.601,65.972 50.088,62.937 C51.57,59.897 53.088,55.905 53.097,51.913 C53.099,49.757 52.636,47.577 51.416,45.641 L50.399,46.282 L49.381,46.923 Z" id="Fill-108" fill="#1D1209"></path>
            <path d="M39.681,51.208 C37.741,48.076 36.633,45.526 36,43.603 C36.947,39.92 38.564,36.71 40.195,34.164 C41.292,32.45 42.391,31.042 43.28,30 C43.309,30.235 43.344,30.482 43.386,30.743 C42.801,33.167 42.111,36.617 41.734,40.592 C41.71,40.756 41.68,40.951 41.647,41.173 C41.59,41.555 41.519,42.018 41.439,42.55 C41.34,43.081 41.326,43.688 41.259,44.349 C41.213,45.01 41.113,45.726 41.117,46.488 C41.111,47.103 41.08,47.748 41.078,48.413 C40.593,49.289 40.121,50.222 39.681,51.208" id="Fill-109" fill="#4E6F36"></path>
            <path d="M35.6,43.561 C35.314,42.69 35.125,41.948 35,41.338 C37.869,32.617 44.01,27 44.01,27 C44.01,27 43.546,28.381 42.986,30.701 C42.944,30.44 42.909,30.193 42.88,29.958 C41.991,31 40.892,32.408 39.795,34.122 C38.164,36.668 36.547,39.878 35.6,43.561" id="Fill-110" fill="#130C03"></path>
            <path d="M45.7926378,67.828 C45.8066378,67.85 45.5326378,67.404 45.1696378,66.693 C44.8136378,65.971 44.3146378,64.945 43.8356378,63.675 C43.5796378,63.046 43.3516378,62.348 43.0966378,61.617 C42.8796378,60.873 42.6126378,60.103 42.4206378,59.282 C42.3156378,58.874 42.2106378,58.46 42.1026378,58.041 C42.0166378,57.617 41.9286378,57.188 41.8416378,56.755 C41.6436378,55.896 41.5386378,55.005 41.3986378,54.125 C41.2616378,53.243 41.2136378,52.348 41.1186378,51.478 C41.0526378,50.604 41.0426378,49.741 41.0046378,48.91 C40.9856378,48.078 41.0306378,47.272 41.0386378,46.512 C41.0346378,45.75 41.1346378,45.034 41.1806378,44.373 C41.2476378,43.712 41.2616378,43.105 41.3606378,42.574 C41.4406378,42.042 41.5116378,41.579 41.5686378,41.197 C41.6826378,40.435 41.7496378,40 41.7496378,40 C41.7496378,40 41.7206378,40.439 41.6716378,41.209 C41.6456378,41.592 41.6166378,42.058 41.5816378,42.592 C41.5286378,43.125 41.5666378,43.732 41.5556378,44.389 C41.5656378,45.047 41.5276378,45.758 41.5966378,46.509 C41.6516378,47.26 41.6756378,48.052 41.7636378,48.866 C41.8726378,49.678 41.9526378,50.519 42.0896378,51.365 C42.2556378,52.207 42.3746378,53.068 42.5826378,53.913 C42.7926378,54.756 42.9656378,55.606 43.2266378,56.419 C43.3476378,56.827 43.4666378,57.233 43.5856378,57.632 C43.7226378,58.026 43.8576378,58.416 43.9916378,58.798 C44.2416378,59.568 44.5616378,60.283 44.8276378,60.972 C45.1306378,61.646 45.4016378,62.29 45.6936378,62.862 C46.2496378,64.022 46.7966378,64.935 47.1756378,65.565 C47.5696378,66.195 47.7866378,66.482 47.8006378,66.503 L45.7926378,67.828" id="Fill-111" fill="#1D1209"></path>
            <path d="M45.373,41.145 C45.143,40.409 45,40 45,40 C45,40 45.238,40.321 45.613,40.879 C45.535,40.964 45.455,41.052 45.373,41.145" id="Fill-112" fill="#B4BE69"></path>
            <path d="M77.3016238,46.674 C69.8806238,52.545 74.3136238,67.997 74.3136238,67.997 C74.3136238,67.997 84.9336238,69.25 89.8356238,61.158 C98.4746238,46.899 89.9786238,31 89.9786238,31 C89.9786238,31 88.9106238,37.489 77.3016238,46.674" id="Fill-113" fill="#859D49"></path>
            <path d="M76.759,45.425 C74.838,46.944 73.643,49.012 72.941,51.209 C72.236,53.411 72.001,55.763 72,57.991 C72.005,63.312 73.348,67.961 73.362,68.022 L73.582,68.791 L74.376,68.884 C74.414,68.889 75.053,68.963 76.083,68.963 C77.744,68.961 80.425,68.775 83.244,67.753 C86.056,66.736 89.03,64.842 91.067,61.475 C94.111,56.451 95.118,51.222 95.117,46.547 C95.106,37.345 91.285,30.224 91.242,30.128 L89.569,27 L88.995,30.499 L89.385,30.563 L88.996,30.49 L89.385,30.563 L88.996,30.49 C88.973,30.58 87.822,36.662 76.759,45.425 L77.505,46.368 L78.25,47.311 C90.049,37.988 90.0084407,34.5548469 90.0514407,34.2478469 C90.2274407,34.5708469 92.721,38.286 92.712,46.547 C92.71,50.886 91.788,55.641 89.01,60.229 C87.304,63.039 84.869,64.6 82.423,65.493 C79.983,66.381 77.558,66.56 76.083,66.558 C75.626,66.558 75.26,66.542 75.014,66.526 C74.89,66.518 74.797,66.51 74.736,66.504 L74.658,66.496 L74.517,67.691 L75.673,67.359 C75.531,66.856 74.402,62.602 74.405,57.991 C74.404,55.935 74.63,53.812 75.23,51.943 C75.833,50.068 76.79,48.467 78.25,47.311 L77.505,46.368 L76.759,45.425 Z" id="Fill-114" fill="#1D1209"></path>
            <path d="M85,54.396 C85.258,53.769 85.492,53.143 85.736,52.542 C86.031,51.763 86.257,50.989 86.501,50.269 C86.759,49.552 86.903,48.843 87.079,48.205 C87.235,47.56 87.424,46.982 87.507,46.448 C87.609,45.92 87.697,45.459 87.769,45.08 C87.807,44.88 87.841,44.702 87.87,44.55 C88.846,40.656 89.346,37.151 89.601,34.66 C89.726,34.43 89.841,34.21 89.946,34 C91,36.741 92.403,41.392 92.397,46.687 C92.396,48.55 92.226,50.49 91.812,52.461 C90.261,52.734 88.639,53.122 86.993,53.665 C86.331,53.883 85.666,54.126 85,54.396" id="Fill-115" fill="#4E6F36"></path>
            <path d="M92.211,52.627 C92.625,50.656 92.795,48.716 92.796,46.853 C92.802,41.558 91.399,36.907 90.345,34.166 C90.24,34.376 90.125,34.596 90,34.826 C90.244,32.454 90.266,31 90.266,31 C90.266,31 95.665,41.104 93.479,52.426 C93.062,52.485 92.639,52.551 92.211,52.627" id="Fill-116" fill="#130C03"></path>
            <path d="M74,66.981 C74.02,66.965 74.32,66.767 74.901,66.304 C75.469,65.836 76.289,65.157 77.198,64.248 C77.664,63.806 78.133,63.289 78.643,62.754 C79.123,62.193 79.664,61.625 80.155,60.982 C80.408,60.666 80.666,60.344 80.926,60.018 C81.17,59.68 81.418,59.338 81.667,58.993 C82.183,58.313 82.631,57.57 83.108,56.844 C83.584,56.116 83.983,55.344 84.42,54.605 C84.83,53.853 85.186,53.087 85.559,52.357 C85.912,51.618 86.197,50.879 86.5,50.19 C86.814,49.505 87.016,48.821 87.244,48.204 C87.451,47.581 87.689,47.021 87.816,46.501 C87.961,45.986 88.088,45.536 88.192,45.166 C88.401,44.424 88.52,44 88.52,44 C88.52,44 88.437,44.433 88.293,45.189 C88.221,45.568 88.133,46.029 88.031,46.557 C87.948,47.091 87.759,47.669 87.603,48.314 C87.427,48.952 87.283,49.661 87.025,50.378 C86.781,51.098 86.555,51.872 86.26,52.651 C85.947,53.421 85.651,54.233 85.299,55.035 C84.92,55.824 84.577,56.651 84.154,57.437 C83.729,58.221 83.334,59.027 82.863,59.771 C82.635,60.15 82.41,60.525 82.187,60.896 C81.947,61.256 81.709,61.611 81.476,61.961 C81.021,62.671 80.514,63.309 80.06,63.938 C79.577,64.542 79.131,65.125 78.68,65.633 C77.805,66.671 76.992,67.473 76.418,68.035 C75.838,68.585 75.432,68.914 75.453,68.898 L74,66.981" id="Fill-117" fill="#1D1209"></path>
            <path d="M79.881,49.184 C79.593,48.543 79.297,47.931 79,47.35 C81.52,44.804 84.191,43 84.191,43 C84.191,43 82.231,45.446 79.881,49.184" id="Fill-118" fill="#B4BE69"></path>
            <path d="M31.4565966,43.498 C38.4635966,49.858 32.9915966,64.974 32.9915966,64.974 C32.9915966,64.974 22.3115966,65.504 17.9705966,57.098 C10.3155966,42.287 19.8725966,27 19.8725966,27 C19.8725966,27 20.4965966,33.546 31.4565966,43.498" id="Fill-119" fill="#859D49"></path>
            <path d="M30.8510009,45.031 C32.0340009,46.105 32.8210009,47.475 33.3230009,49.052 C33.8240009,50.625 34.0260009,52.395 34.0250009,54.171 C34.0270009,56.946 33.5360009,59.728 33.0420009,61.8 C32.7950009,62.837 32.5480009,63.697 32.3630009,64.293 C32.2720009,64.591 32.1950009,64.824 32.1430009,64.98 L32.0830009,65.155 L33.1950009,65.617 L33.1370009,64.416 C33.0900009,64.417 32.9840009,64.421 32.8170009,64.421 C31.9350009,64.423 29.3570009,64.319 26.6150009,63.347 C25.2430009,62.863 23.8320009,62.165 22.5520009,61.172 C21.2730009,60.176 20.1220009,58.891 19.2410009,57.189 C17.1520009,53.144 16.4060009,49.074 16.4050009,45.287 C16.4040009,40.561 17.5790009,36.284 18.7620009,33.201 C19.3520009,31.66 19.9430009,30.417 20.3820009,29.566 C20.4040009,29.876 19.7120009,34.928 30.8510009,45.03 L31.6600009,44.141 L32.4680009,43.25 C27.0760009,38.355 24.2740009,34.34 22.8200009,31.597 C22.0930009,30.225 21.7030009,29.17 21.4960009,28.477 C21.3930009,28.131 21.3350009,27.875 21.3040009,27.715 L21.2760009,27.548 L20.8730009,27.567 L21.2730009,27.529 L20.8730009,27.567 L21.2730009,27.529 L20.9350009,24 L19.0560009,27.006 C19.0060009,27.106 14.0150009,35.039 14.0000009,45.287 C13.9990009,49.388 14.8170009,53.866 17.1050009,58.293 C18.1520009,60.322 19.5530009,61.888 21.0780009,63.071 C23.3680009,64.847 25.9200009,65.774 28.0810009,66.269 C30.2440009,66.763 32.0260009,66.825 32.8170009,66.825 C33.0820009,66.825 33.2350009,66.818 33.2530009,66.817 L34.0520009,66.779 L34.3250009,66.026 C34.3440009,65.956 36.4210009,60.268 36.4300009,54.171 C36.4290009,52.216 36.2140009,50.212 35.6150009,48.323 C35.0170009,46.438 34.0200009,44.659 32.4680009,43.25 L31.6600009,44.141 L30.8510009,45.031 Z" id="Fill-120" fill="#1D1209"></path>
            <path d="M24.8570006,55.421 C23.6440006,54.841 22.4240006,54.36 21.2180006,53.963 C20.2840006,53.655 19.3580006,53.397 18.4480006,53.181 C17.4040006,50.213 17.0010006,47.276 17.0000006,44.492 C16.9990006,39.766 18.1740006,35.489 19.3570006,32.406 C19.7070006,31.493 20.0570006,30.684 20.3760006,30 C20.4660006,30.217 20.5660006,30.445 20.6760006,30.684 C20.7610006,33.182 21.0220006,36.703 21.7280006,40.644 C21.7470006,40.804 21.7700006,40.991 21.7960006,41.203 C21.8430006,41.586 21.8990006,42.052 21.9640006,42.585 C22.0110006,43.124 22.1610006,43.713 22.2720006,44.367 C22.4050006,45.016 22.5010006,45.733 22.7090006,46.465 C22.9040006,47.201 23.0770006,47.989 23.3180006,48.785 C23.5780006,49.576 23.8190006,50.405 24.1160006,51.229 C24.4400006,52.042 24.7270006,52.891 25.0950006,53.703 C25.1180006,53.755 25.1420006,53.806 25.1650006,53.858 C25.0510006,54.37 24.9480006,54.891 24.8570006,55.421" id="Fill-121" fill="#4E6F36"></path>
            <path d="M17.6496317,53.333 C17.1896317,53.224 16.7336317,53.126 16.2826317,53.037 C11.9826317,39.62 19.8726317,27 19.8726317,27 C19.8726317,27 19.7956317,28.453 19.8776317,30.836 C19.7676317,30.597 19.6676317,30.369 19.5776317,30.152 C19.2586317,30.836 18.9086317,31.645 18.5586317,32.558 C17.3756317,35.641 16.2006317,39.918 16.2016317,44.644 C16.2026317,47.428 16.6056317,50.365 17.6496317,53.333" id="Fill-122" fill="#130C03"></path>
            <path d="M32.352,65.728 C32.372,65.745 31.988,65.389 31.448,64.801 C30.912,64.201 30.155,63.346 29.352,62.251 C28.938,61.714 28.532,61.102 28.09,60.466 C27.681,59.808 27.217,59.137 26.812,58.398 C26.602,58.033 26.389,57.662 26.174,57.286 C25.977,56.902 25.778,56.512 25.577,56.119 C25.157,55.344 24.817,54.514 24.446,53.702 C24.078,52.89 23.791,52.041 23.467,51.228 C23.17,50.404 22.929,49.575 22.669,48.784 C22.428,47.988 22.255,47.2 22.06,46.464 C21.852,45.732 21.756,45.015 21.623,44.366 C21.512,43.712 21.362,43.123 21.315,42.584 C21.25,42.051 21.194,41.585 21.147,41.202 C21.053,40.437 21,40 21,40 C21,40 21.09,40.431 21.248,41.185 C21.328,41.562 21.424,42.019 21.534,42.543 C21.624,43.07 21.825,43.645 21.989,44.281 C22.176,44.912 22.329,45.607 22.596,46.313 C22.852,47.021 23.086,47.778 23.389,48.538 C23.711,49.292 24.014,50.08 24.373,50.859 C24.758,51.625 25.104,52.424 25.53,53.181 C25.957,53.938 26.352,54.71 26.823,55.423 C27.047,55.785 27.272,56.143 27.493,56.497 C27.73,56.84 27.965,57.178 28.196,57.51 C28.643,58.185 29.143,58.788 29.584,59.381 C30.057,59.95 30.491,60.497 30.925,60.97 C31.771,61.939 32.543,62.671 33.078,63.177 C33.626,63.678 33.911,63.896 33.93,63.913 L32.352,65.728" id="Fill-123" fill="#1D1209"></path>
            <path d="M28.27,44.346 C26.453,41.089 25,39 25,39 C25,39 27.027,40.579 29.128,42.847 C28.847,43.316 28.559,43.816 28.27,44.346" id="Fill-124" fill="#B4BE69"></path>
            <path d="M34.624,80.4146446 C34.624,80.4146446 38.994,70.6566446 32.737,63.5586446 C21.712,51.0526446 4,54.4096446 4,54.4096446 C4,54.4096446 9.873,57.3656446 15.169,71.1906446 C18.554,80.0276446 34.624,80.4146446 34.624,80.4146446 Z" id="Fill-125" fill="#859D49"></path>
            <path d="M13.753,71.824 C14.715,74.335 16.565,76.203 18.692,77.573 C21.892,79.631 25.765,80.659 28.857,81.213 C31.949,81.762 34.261,81.818 34.302,81.82 L35.101,81.839 L35.429,81.109 C35.463,81.021 37.011,77.587 37.017,73.134 C37.017,71.539 36.814,69.81 36.252,68.069 C35.691,66.328 34.765,64.576 33.346,62.967 C29.597,58.712 25.097,56.212 20.776,54.789 C16.452,53.364 12.3,53.001 9.15,53 C5.767,53.001 3.538,53.421 3.483,53.431 L0,54.092 L3.166,55.686 L3.347,55.328 L3.158,55.682 L3.347,55.328 L3.158,55.682 C3.237,55.731 8.697,58.647 13.753,71.824 L15.999,70.964 C10.627,56.917 5.90111719,55.6969414 5.62011719,55.5649414 C5.81611719,55.5289414 4.34998437,55.2404175 7.33398438,55.2404175 C10.2979844,55.2394175 16.022,55.752 20.023,57.072 C24.027,58.394 28.117,60.673 31.541,64.557 C32.732,65.908 33.492,67.349 33.964,68.808 C34.435,70.266 34.613,71.742 34.613,73.134 C34.614,75.076 34.264,76.847 33.914,78.121 C33.739,78.758 33.564,79.27 33.435,79.617 C33.371,79.791 33.318,79.924 33.283,80.01 L33.243,80.105 L34.331,80.618 L34.36,79.416 C33.909,79.403 29.949,79.236 25.785,78.047 C23.703,77.456 21.576,76.608 19.825,75.441 C18.068,74.271 16.707,72.811 15.999,70.964 L14.876,71.394 L13.753,71.824 Z" id="Fill-126" fill="#1D1209"></path>
            <path d="M24.656,65.62 C24.244,65.285 23.832,64.961 23.437,64.635 C22.783,64.122 22.111,63.674 21.495,63.226 C20.89,62.766 20.255,62.416 19.699,62.057 C19.13,61.716 18.636,61.363 18.151,61.123 C17.677,60.869 17.264,60.647 16.923,60.465 C16.732,60.362 16.565,60.272 16.422,60.195 C13.007,58.109 9.824,56.59 7.529,55.604 C7.346,55.416 7.17,55.24 7,55.076 C7.697,55.031 8.502,55 9.393,55 C9.395,55 9.397,55 9.399,55 C9.402,55 9.405,55 9.408,55 C12.371,55 16.275,55.348 20.272,56.667 C21.628,57.115 22.994,57.673 24.341,58.365 C24.273,59.165 24.237,59.98 24.236,60.809 C24.236,62.369 24.366,63.977 24.656,65.62" id="Fill-127" fill="#4E6F36"></path>
            <path d="M20.316,56.869 C16.319,55.55 12.415,55.202 9.452,55.202 C8.546,55.202 7.741,55.233 7.044,55.278 C4.853,54.337 4,54.41 4,54.41 C4,54.41 6.161,54 9.443,54 C13.435,54 19.085,54.606 24.522,57.29 C24.468,57.711 24.422,58.137 24.385,58.567 C23.038,57.875 21.672,57.317 20.316,56.869 Z" id="Fill-128" fill="#130C03"></path>
            <path d="M33.592,80.727 C33.583,80.703 33.482,80.358 33.215,79.665 C32.937,78.983 32.535,77.999 31.939,76.858 C31.656,76.282 31.303,75.679 30.945,75.033 C30.553,74.407 30.172,73.722 29.706,73.06 C29.48,72.724 29.25,72.382 29.016,72.037 C28.767,71.702 28.513,71.364 28.26,71.022 C27.765,70.326 27.189,69.678 26.639,69.005 C26.088,68.333 25.469,67.721 24.894,67.084 C24.3,66.467 23.675,65.898 23.09,65.325 C22.49,64.767 21.871,64.273 21.302,63.779 C20.743,63.273 20.15,62.878 19.631,62.475 C19.097,62.091 18.635,61.696 18.176,61.42 C17.728,61.127 17.337,60.872 17.014,60.662 C16.369,60.241 16,60 16,60 C16,60 16.387,60.208 17.066,60.573 C17.407,60.755 17.82,60.977 18.294,61.231 C18.779,61.471 19.273,61.824 19.842,62.165 C20.398,62.524 21.033,62.874 21.638,63.334 C22.254,63.782 22.926,64.23 23.58,64.743 C24.221,65.272 24.908,65.797 25.568,66.374 C26.207,66.971 26.894,67.545 27.517,68.184 C28.139,68.824 28.789,69.442 29.359,70.114 C29.652,70.444 29.943,70.772 30.23,71.095 C30.502,71.432 30.771,71.765 31.035,72.092 C31.577,72.738 32.033,73.414 32.498,74.034 C32.93,74.676 33.353,75.276 33.704,75.858 C34.432,77.003 34.955,78.019 35.32,78.736 C35.672,79.453 35.864,79.939 35.855,79.915 L33.592,80.727" id="Fill-129" fill="#1D1209"></path>
            <path d="M25.224,75.749 L21.76,75.749 C21.104,75.502 20.551,75.246 20.176,74.992 C15.67,71.929 13,63 13,63 C13,63 16.204,67.766 21.042,72.727 C22.187,73.902 23.744,74.93 25.224,75.749" id="Fill-130" fill="#B4BE69"></path>
            <path d="M41.823665,57.209 C47.661665,64.656 39.727665,78.637 39.727665,78.637 C39.727665,78.637 29.113665,77.366 26.243665,68.35 C21.188665,52.463 33.176665,39 33.176665,39 C33.176665,39 32.691665,45.558 41.823665,57.209" id="Fill-131" fill="#859D49"></path>
            <path d="M41.081,58.431 C42.435,60.158 42.966,62.339 42.968,64.717 C42.973,67.937 41.962,71.429 40.93,74.081 C40.415,75.408 39.9,76.528 39.514,77.311 C39.322,77.703 39.162,78.011 39.052,78.218 C38.997,78.322 38.954,78.401 38.925,78.452 L39.931,79.117 L40.074,77.924 C39.828,77.893 37.272,77.52 34.52,76.14 C33.142,75.452 31.719,74.517 30.492,73.267 C29.264,72.015 28.228,70.456 27.593,68.465 C26.752,65.822 26.405,63.257 26.405,60.809 C26.402,55.01 28.366,49.857 30.351,46.158 C31.341,44.309 32.5842285,44.6016072 32.5842285,42.7615967 C32.6892285,42.6315967 32.4702285,42.8945967 32.5242285,42.8305967 L32.5842285,42.7615967 C32.5792285,44.1745967 32.688,47.733 41.081,58.431 L42.973,56.948 C34.851,46.577 34.582,40.497 34.577,39.659 L33.945,39.526 L34.578,39.577 L33.945,39.526 L34.578,39.577 L34.866,36 L32.482,38.68 C32.438,38.73 30.339,41.091 28.231,45.022 C26.127,48.951 24.003,54.462 24,60.809 C24,63.484 24.381,66.304 25.301,69.194 C26.08,71.646 27.401,73.591 28.918,75.094 C31.197,77.351 33.9,78.636 36.028,79.376 C38.158,80.113 39.728,80.304 39.788,80.311 L40.582,80.406 L40.977,79.711 C40.996,79.676 42.081,77.763 43.172,74.95 C44.259,72.134 45.368,68.424 45.373,64.717 C45.374,61.996 44.758,59.226 42.973,56.948 L42.027,57.689 L41.081,58.431 Z" id="Fill-132" fill="#1D1209"></path>
            <path d="M37.1940034,75.353 L34.6370034,75.353 C33.4120034,74.693 32.1720034,73.834 31.0870034,72.728 C29.8590034,71.476 28.8230034,69.917 28.1880034,67.926 C27.3470034,65.283 27.0000034,62.718 27.0000034,60.27 C26.9970034,54.471 28.9610034,49.318 30.9460034,45.619 C31.7210034,44.172 32.4980034,42.949 33.1530034,42 C33.2060034,42.23 33.2660034,42.473 33.3350034,42.727 C33.0000034,45.199 32.6670034,48.704 32.6990034,52.698 C32.6910034,52.863 32.6820034,53.058 32.6710034,53.281 C32.6530034,53.666 32.6300034,54.135 32.6040034,54.672 C32.5610034,55.21 32.6090034,55.816 32.6090034,56.479 C32.6320034,57.142 32.6050034,57.865 32.6870034,58.621 C32.7570034,59.379 32.7940034,60.185 32.8980034,61.011 C33.0220034,61.833 33.1200034,62.692 33.2740034,63.554 C33.4580034,64.41 33.5970034,65.294 33.8230034,66.158 C34.0540034,67.02 34.2490034,67.895 34.5320034,68.73 C34.6650034,69.151 34.7960034,69.568 34.9250034,69.981 C35.0750034,70.387 35.2220034,70.789 35.3670034,71.184 C35.6420034,71.98 35.9870034,72.72 36.2790034,73.437 C36.5970034,74.117 36.8870034,74.768 37.1940034,75.353" id="Fill-133" fill="#4E6F36"></path>
            <path d="M33.838665,75.412 L31.010665,75.412 C29.068665,73.892 27.295665,71.653 26.243665,68.35 C21.188665,52.463 33.176665,39 33.176665,39 C33.176665,39 32.855665,40.421 32.536665,42.786 C32.467665,42.532 32.407665,42.289 32.354665,42.059 C31.699665,43.008 30.922665,44.231 30.147665,45.678 C28.162665,49.377 26.198665,54.53 26.201665,60.329 C26.201665,62.777 26.548665,65.342 27.389665,67.985 C28.024665,69.976 29.060665,71.535 30.288665,72.787 C31.373665,73.893 32.613665,74.752 33.838665,75.412" id="Fill-134" fill="#130C03"></path>
            <path d="M39.0098957,80.269 C39.0258957,80.289 38.7078957,79.874 38.2738957,79.204 C37.8468957,78.522 37.2448957,77.552 36.6378957,76.338 C36.3188957,75.739 36.0208957,75.067 35.6928957,74.366 C35.4008957,73.649 35.0558957,72.909 34.7808957,72.113 C34.6358957,71.718 34.4888957,71.316 34.3388957,70.91 C34.2098957,70.497 34.0788957,70.08 33.9458957,69.659 C33.6628957,68.824 33.4678957,67.949 33.2368957,67.087 C33.0108957,66.223 32.8718957,65.339 32.6878957,64.483 C32.5338957,63.621 32.4358957,62.762 32.3118957,61.94 C32.2078957,61.114 32.1708957,60.308 32.1008957,59.55 C32.0188957,58.794 32.0458957,58.071 32.0228957,57.408 C32.0228957,56.745 31.9748957,56.139 32.0178957,55.601 C32.0438957,55.064 32.0668957,54.595 32.0848957,54.21 C32.1218957,53.44 32.1428957,53 32.1428957,53 C32.1428957,53 32.1588957,53.44 32.1878957,54.211 C32.2028957,54.595 32.2208957,55.061 32.2408957,55.596 C32.2418957,56.132 32.3428957,56.732 32.3978957,57.387 C32.4758957,58.04 32.5108957,58.751 32.6558957,59.491 C32.7878957,60.233 32.8928957,61.018 33.0628957,61.818 C33.2548957,62.616 33.4208957,63.444 33.6428957,64.271 C33.8938957,65.092 34.1008957,65.936 34.3928957,66.755 C34.6878957,67.573 34.9478957,68.4 35.2908957,69.182 C35.4518957,69.576 35.6118957,69.967 35.7698957,70.353 C35.9478957,70.731 36.1218957,71.104 36.2938957,71.471 C36.6218957,72.211 37.0138957,72.889 37.3488957,73.548 C37.7188957,74.187 38.0538957,74.8 38.4028957,75.339 C39.0748957,76.436 39.7118957,77.288 40.1538957,77.876 C40.6098957,78.463 40.8538957,78.726 40.8708957,78.746 L39.0098957,80.269" id="Fill-135" fill="#1D1209"></path>
            <path d="M37.417,55.377 C36.598,53.276 36,52 36,52 C36,52 36.774,52.848 37.792,54.183 C37.66,54.575 37.535,54.973 37.417,55.377" id="Fill-136" fill="#B4BE69"></path>
            <path d="M92.9379646,70.1906872 C89.5549646,79.0276872 73.4829646,79.4146872 73.4829646,79.4146872 C73.4829646,79.4146872 69.1149646,69.6566872 75.3719646,62.5576872 C86.3969646,50.0526872 104.108965,53.4096872 104.108965,53.4096872 C104.108965,53.4096872 98.2349646,56.3666872 92.9379646,70.1906872" id="Fill-137" fill="#859D49"></path>
            <path d="M92.019,69.963 C91.289,71.87 89.861,73.365 88.023,74.552 C85.275,76.332 81.655,77.331 78.74,77.845 C77.282,78.104 76.001,78.247 75.09,78.325 C74.634,78.364 74.271,78.387 74.024,78.4 C73.901,78.406 73.807,78.41 73.745,78.412 L73.687,79.617 L74.784,79.126 C74.73,79.014 73.399,75.898 73.405,72.134 C73.405,70.742 73.582,69.265 74.054,67.808 C74.525,66.349 75.285,64.908 76.477,63.556 C79.902,59.672 83.992,57.393 87.995,56.072 C91.996,54.751 95.904,54.404 98.869,54.404 C99.8864709,54.404 100.766371,54.2265371 101.471222,54.2817078 C101.86784,54.3127522 102.174487,54.566712 102.503601,54.602 C102.222601,54.735 97.391,55.916 92.019,69.963 L94.265,70.823 C96.87,64.023 99.595,59.954 101.623,57.604 C102.639,56.429 103.48,55.683 104.051,55.238 C104.336,55.016 104.554,54.87 104.691,54.783 L104.837,54.695 L104.678,54.338 L104.853,54.686 L104.678,54.338 L104.853,54.686 L108.022,53.09 L104.536,52.431 C104.482,52.421 102.25,52 98.869,52 C95.719,52 91.566,52.363 87.243,53.788 C82.922,55.211 78.422,57.711 74.674,61.965 C73.252,63.575 72.326,65.328 71.765,67.069 C71.203,68.811 71,70.54 71,72.134 C71.007,76.588 72.555,80.02 72.589,80.108 L72.915,80.838 L73.716,80.819 C73.772,80.816 77.86,80.721 82.46,79.479 C84.76,78.856 87.194,77.947 89.326,76.573 C91.453,75.202 93.303,73.334 94.265,70.823 L93.142,70.393 L92.019,69.963 Z" id="Fill-138" fill="#1D1209"></path>
            <path d="M83.068,65.174 C83.204,64.044 83.267,62.932 83.267,61.845 C83.266,60.501 83.17,59.194 83,57.932 C84.681,56.97 86.405,56.232 88.113,55.668 C92.111,54.349 96.015,54 98.978,54 C98.981,54 98.984,54 98.987,54 C99.88,54 100.688,54.032 101.386,54.077 C101.216,54.24 101.04,54.416 100.857,54.605 C98.563,55.591 95.38,57.109 91.966,59.195 C91.823,59.272 91.655,59.362 91.463,59.465 C91.122,59.648 90.709,59.869 90.235,60.124 C89.75,60.363 89.256,60.716 88.688,61.058 C88.131,61.417 87.496,61.766 86.891,62.226 C86.276,62.675 85.604,63.122 84.949,63.636 C84.341,64.137 83.695,64.634 83.068,65.174" id="Fill-139" fill="#4E6F36"></path>
            <path d="M83.198,58.134 C83.14,57.707 83.074,57.285 83,56.867 C88.767,53.691 94.922,53 99.185,53 C102.468,53 104.629,53.41 104.629,53.41 C104.629,53.41 103.247,53.865 101.055,54.807 C101.238,54.618 101.414,54.442 101.584,54.279 C100.886,54.234 100.078,54.202 99.185,54.202 C99.182,54.202 99.179,54.202 99.176,54.202 C96.213,54.202 92.309,54.551 88.311,55.87 C86.603,56.434 84.879,57.172 83.198,58.134" id="Fill-140" fill="#130C03"></path>
            <path d="M73.0003701,78.915 C72.9903701,78.939 73.1833701,78.453 73.5353701,77.736 C73.8993701,77.019 74.4223701,76.004 75.1503701,74.858 C75.5013701,74.277 75.9243701,73.676 76.3563701,73.035 C76.8213701,72.414 77.2773701,71.739 77.8203701,71.093 C78.0843701,70.765 78.3523701,70.432 78.6243701,70.096 C78.9123701,69.772 79.2023701,69.445 79.4953701,69.115 C80.0653701,68.443 80.7153701,67.825 81.3373701,67.184 C81.9613701,66.546 82.6483701,65.972 83.2873701,65.375 C83.9473701,64.798 84.6333701,64.273 85.2753701,63.744 C85.9303701,63.23 86.6023701,62.783 87.2173701,62.334 C87.8223701,61.874 88.4573701,61.525 89.0143701,61.166 C89.5823701,60.824 90.0763701,60.471 90.5613701,60.232 C91.0353701,59.977 91.4483701,59.756 91.7893701,59.573 C92.4683701,59.208 92.8553701,59 92.8553701,59 C92.8553701,59 92.4863701,59.241 91.8413701,59.663 C91.5193701,59.872 91.1273701,60.127 90.6803701,60.42 C90.2213701,60.697 89.7583701,61.091 89.2253701,61.476 C88.7053701,61.878 88.1123701,62.274 87.5533701,62.779 C86.9843701,63.274 86.3643701,63.767 85.7663701,64.326 C85.1803701,64.899 84.5563701,65.467 83.9613701,66.084 C83.3863701,66.722 82.7683701,67.333 82.2163701,68.005 C81.6663701,68.679 81.0903701,69.327 80.5963701,70.023 C80.3413701,70.364 80.0883701,70.703 79.8383701,71.037 C79.6053701,71.383 79.3753701,71.724 79.1483701,72.061 C78.6833701,72.722 78.3023701,73.407 77.9103701,74.033 C77.5513701,74.68 77.1993701,75.283 76.9163701,75.859 C76.3203701,76.999 75.9173701,77.984 75.6403701,78.665 C75.3713701,79.359 75.2713701,79.704 75.2623701,79.727 L73.0003701,78.915" id="Fill-141" fill="#1D1209"></path>
            <path d="M84.791,75.349 L82,75.349 C83.774,74.459 85.875,73.21 87.32,71.728 C92.158,66.766 95.363,62 95.363,62 C95.363,62 92.694,70.93 88.185,73.993 C87.499,74.459 86.207,74.929 84.791,75.349" id="Fill-142" fill="#B4BE69"></path>
            <path d="M65.1448961,59.21 C59.3058961,66.657 67.2388961,80.64 67.2388961,80.64 C67.2388961,80.64 77.8548961,79.368 80.7228961,70.351 C85.7788961,54.464 73.7908961,41 73.7908961,41 C73.7908961,41 74.2768961,47.559 65.1448961,59.21" id="Fill-143" fill="#859D49"></path>
            <path d="M64.4020048,57.874 C62.6150048,60.154 61.9980048,62.924 62.0000048,65.646 C62.0050048,69.354 63.1130048,73.063 64.2010048,75.879 C65.2920048,78.691 66.3770048,80.604 66.3960048,80.639 L66.7900048,81.334 L67.5850048,81.239 C67.6650048,81.227 70.4290048,80.898 73.6290048,79.366 C75.2270048,78.599 76.9380048,77.527 78.4560048,76.022 C79.9730048,74.519 81.2930048,72.574 82.0720048,70.121 C82.9920048,67.231 83.3720048,64.41 83.3720048,61.736 C83.3690048,55.389 81.2450048,49.877 79.1410048,45.948 C77.0340048,42.018 74.9350048,39.657 74.8920048,39.607 L72.5690048,37 L72.7940048,40.484 L73.2780048,40.452 L72.7930048,40.476 L73.2780048,40.452 L72.7930048,40.476 C72.7900048,41.428 72.5180048,47.508 64.4020048,57.875 L65.3480048,58.616 L66.2950048,59.358 C74.6810048,48.664 75.2040048,42.004 75.2000048,40.587 C75.2000048,40.441 75.1950048,40.355 75.1940048,40.329 L73.9940048,40.406 L74.6691284,42.0601501 L74.1505127,42.2038574 C74.3465127,42.4278574 75.2910048,43.765 77.2070048,47.435 C79.1270048,51.106 80.9690048,56.117 80.9670048,61.736 C80.9670048,64.184 80.6210048,66.75 79.7810048,69.392 C79.1250048,71.448 78.0430048,73.043 76.7620048,74.315 C74.8460048,76.219 72.4650048,77.373 70.5580048,78.031 C69.6070048,78.362 68.7770048,78.569 68.1920048,78.692 C67.9000048,78.754 67.6690048,78.795 67.5150048,78.82 L67.3430048,78.846 L67.4420048,80.046 L68.4870048,79.452 C68.3740048,79.25 67.3420048,77.379 66.3460048,74.758 C65.3480048,72.14 64.4000048,68.766 64.4050048,65.646 C64.4060048,63.268 64.9380048,61.086 66.2940048,59.358 L65.3480048,58.616 L64.4020048,57.874 Z" id="Fill-144" fill="#1D1209"></path>
            <path d="M75.08,75.918 L71,75.918 C71.074,75.761 71.148,75.601 71.223,75.439 C71.516,74.722 71.86,73.982 72.135,73.185 C72.28,72.79 72.428,72.389 72.577,71.982 C72.708,71.57 72.838,71.152 72.97,70.732 C73.253,69.897 73.45,69.022 73.678,68.159 C73.905,67.296 74.044,66.411 74.228,65.556 C74.383,64.693 74.481,63.835 74.604,63.012 C74.708,62.186 74.746,61.38 74.815,60.623 C74.897,59.866 74.872,59.143 74.893,58.481 C74.893,57.817 74.942,57.211 74.897,56.673 C74.872,56.136 74.85,55.667 74.832,55.282 C74.821,55.064 74.812,54.872 74.805,54.71 C74.837,50.709 74.503,47.198 74.168,44.724 C74.235,44.47 74.295,44.229 74.348,44 C75.056,45.025 75.905,46.368 76.741,47.97 C78.661,51.641 80.503,56.652 80.501,62.271 C80.501,64.719 80.155,67.285 79.315,69.927 C78.659,71.983 77.577,73.578 76.296,74.85 C75.908,75.236 75.5,75.592 75.08,75.918" id="Fill-145" fill="#4E6F36"></path>
            <path d="M77.73,75.977 L75.552,75.977 C75.972,75.651 76.38,75.295 76.768,74.909 C78.049,73.637 79.131,72.042 79.787,69.986 C80.627,67.344 80.973,64.778 80.973,62.33 C80.975,56.711 79.133,51.7 77.213,48.029 C76.377,46.427 75.528,45.084 74.82,44.059 C74.767,44.288 74.707,44.529 74.64,44.783 C74.32,42.42 74,41 74,41 C74,41 85.988,54.464 80.932,70.351 C80.173,72.739 79.036,74.571 77.73,75.977" id="Fill-146" fill="#130C03"></path>
            <path d="M66,79.747 C66.016,79.727 66.26,79.464 66.717,78.877 C67.159,78.289 67.797,77.437 68.468,76.34 C68.817,75.801 69.153,75.188 69.522,74.548 C69.858,73.89 70.25,73.211 70.577,72.471 C70.748,72.104 70.923,71.731 71.1,71.354 C71.258,70.967 71.418,70.577 71.58,70.183 C71.924,69.401 72.183,68.574 72.478,67.756 C72.77,66.937 72.977,66.092 73.228,65.271 C73.452,64.444 73.618,63.616 73.808,62.819 C73.979,62.018 74.082,61.233 74.215,60.492 C74.361,59.751 74.395,59.04 74.473,58.386 C74.529,57.732 74.629,57.132 74.631,56.597 C74.651,56.062 74.668,55.595 74.683,55.211 C74.712,54.441 74.729,54 74.729,54 C74.729,54 74.75,54.44 74.787,55.21 C74.805,55.595 74.827,56.064 74.852,56.601 C74.897,57.139 74.848,57.745 74.848,58.409 C74.827,59.071 74.852,59.794 74.77,60.551 C74.701,61.308 74.663,62.114 74.559,62.94 C74.436,63.763 74.338,64.621 74.183,65.484 C73.999,66.339 73.86,67.224 73.633,68.087 C73.405,68.95 73.208,69.825 72.925,70.66 C72.793,71.08 72.663,71.498 72.532,71.91 C72.383,72.317 72.235,72.718 72.09,73.113 C71.815,73.91 71.471,74.65 71.178,75.367 C70.85,76.068 70.552,76.74 70.234,77.339 C69.626,78.553 69.025,79.523 68.597,80.205 C68.163,80.875 67.845,81.29 67.862,81.27 L66,79.747" id="Fill-147" fill="#1D1209"></path>
            <path d="M67.289,75.967 C67.289,75.967 67.177,75.659 67,75.15 C67.04,75.086 67.081,75.022 67.121,74.958 C67.215,75.589 67.289,75.967 67.289,75.967 M69.187,59.514 C68.964,58.86 68.758,58.225 68.57,57.61 C70.051,55.48 71.403,54 71.403,54 C71.403,54 70.384,56.17 69.187,59.514" id="Fill-148" fill="#B4BE69"></path>
            <path d="M55.1970022,59.997 C60.2420022,68.002 50.9210022,81.1 50.9210022,81.1 C50.9210022,81.1 40.4900022,78.749 38.5570022,69.486 C35.1540022,53.167 48.4560022,41 48.4560022,41 C48.4560022,41 47.3010022,47.474 55.1970022,59.997" id="Fill-149" fill="#859D49"></path>
            <path d="M53.382,59.924 C54.31,61.398 54.692,63.09 54.694,64.915 C54.702,68.281 53.335,72.025 51.93,74.881 C51.23,76.311 50.528,77.522 50.003,78.371 C49.741,78.795 49.523,79.129 49.372,79.355 C49.297,79.467 49.239,79.553 49.2,79.609 L49.144,79.689 L50.124,80.386 L50.389,79.213 C50.147,79.157 47.641,78.524 45.044,76.871 C43.744,76.045 42.423,74.969 41.33,73.6 C40.237,72.229 39.365,70.573 38.937,68.527 C38.568,66.758 38.405,65.044 38.405,63.391 C38.402,56.936 40.906,51.369 43.443,47.408 C44.709,45.43 45.978,43.858 46.925,42.788 C47.398,42.253 47.791,41.843 48.062,41.57 C48.198,41.434 48.303,41.332 48.372,41.265 L47.659,40.286 L46.475,40.073 C46.463,40.141 46.847,41.8965564 46.847,42.6265564 C46.845,45.1255564 47.173,50.081 53.383,59.924 L54.4,59.283 L55.416,58.642 C49.406,49.105 48.803,43.275 48.801,41.275 C48.801,40.982 48.814,40.771 48.826,40.642 L48.841,40.509 L48.374,40.414 L48.842,40.499 L48.374,40.414 L48.842,40.499 L49.47,37 L46.847,39.399 C46.795,39.447 44.114,41.902 41.418,46.112 C38.726,50.319 36.003,56.304 36,63.391 C36,65.203 36.18,67.084 36.583,69.018 C37.107,71.537 38.222,73.607 39.577,75.257 C41.615,77.736 44.172,79.29 46.214,80.243 C48.258,81.195 49.801,81.545 49.86,81.558 L50.64,81.734 L51.104,81.082 C51.129,81.047 52.603,78.974 54.09,75.938 C55.571,72.899 57.09,68.907 57.099,64.915 C57.1,62.758 56.637,60.578 55.417,58.642 L54.4,59.283 L53.382,59.924 Z" id="Fill-150" fill="#1D1209"></path>
            <path d="M47.2460027,76.248 L43.7680027,76.248 C43.1150027,75.692 42.4900027,75.063 41.9250027,74.355 C40.8320027,72.984 39.9600027,71.328 39.5320027,69.282 C39.1630027,67.513 39.0000027,65.799 39.0000027,64.146 C38.9970027,57.691 41.5010027,52.124 44.0380027,48.163 C45.1350027,46.45 46.2330027,45.042 47.1230027,44 C47.1520027,44.235 47.1870027,44.483 47.2290027,44.743 C46.6430027,47.171 45.9520027,50.626 45.5760027,54.606 C45.5520027,54.767 45.5230027,54.956 45.4910027,55.171 C45.4340027,55.553 45.3640027,56.017 45.2840027,56.549 C45.1840027,57.08 45.1710027,57.688 45.1020027,58.347 C45.0570027,59.008 44.9580027,59.725 44.9620027,60.486 C44.9520027,61.247 44.9080027,62.053 44.9260027,62.885 C44.9660027,63.715 44.9750027,64.579 45.0410027,65.453 C45.1350027,66.323 45.1830027,67.217 45.3210027,68.099 C45.4610027,68.98 45.5660027,69.871 45.7620027,70.731 C45.8510027,71.163 45.9390027,71.592 46.0260027,72.016 C46.1320027,72.435 46.2390027,72.849 46.3420027,73.257 C46.5340027,74.078 46.8010027,74.849 47.0200027,75.592 C47.0970027,75.814 47.1720027,76.033 47.2460027,76.248" id="Fill-151" fill="#4E6F36"></path>
            <path d="M41.8180022,76.207 C40.3710022,74.567 39.1620022,72.387 38.5570022,69.486 C35.895055,56.7207001 43.4547681,46.4959769 46.8734768,42.6481604 C47.8252026,41.5769763 48.4560022,41 48.4560022,41 C48.4560022,41 47.9910022,42.381 47.4310022,44.702 C47.3890022,44.442 47.3540022,44.194 47.3250022,43.959 C46.4350022,45.001 45.3370022,46.409 44.2400022,48.122 C41.7030022,52.083 39.1990022,57.65 39.2020022,64.105 C39.2020022,65.758 39.3650022,67.472 39.7340022,69.241 C40.1620022,71.287 41.0340022,72.943 42.1270022,74.314 C42.6920022,75.022 43.3170022,75.651 43.9700022,76.207 L41.8180022,76.207 Z" id="Fill-152" fill="#130C03"></path>
            <path d="M49.7932778,81.829 C49.8082778,81.851 49.5342778,81.405 49.1702778,80.694 C48.8152778,79.972 48.3162778,78.946 47.8352778,77.676 C47.5812778,77.047 47.3522778,76.349 47.0982778,75.618 C46.8792778,74.875 46.6122778,74.104 46.4202778,73.283 C46.3172778,72.875 46.2102778,72.461 46.1042778,72.042 C46.0172778,71.618 45.9292778,71.189 45.8402778,70.757 C45.6442778,69.897 45.5392778,69.006 45.3992778,68.125 C45.2612778,67.243 45.2132778,66.349 45.1192778,65.479 C45.0532778,64.605 45.0442778,63.741 45.0042778,62.911 C44.9862778,62.079 45.0302778,61.273 45.0402778,60.512 C45.0362778,59.751 45.1352778,59.034 45.1802778,58.373 C45.2492778,57.714 45.2622778,57.106 45.3622778,56.575 C45.4422778,56.043 45.5122778,55.579 45.5692778,55.197 C45.6842778,54.435 45.7512778,54 45.7512778,54 C45.7512778,54 45.7222778,54.439 45.6722778,55.209 C45.6472778,55.593 45.6182778,56.059 45.5832778,56.593 C45.5302778,57.126 45.5672778,57.732 45.5552778,58.39 C45.5672778,59.047 45.5282778,59.758 45.5972778,60.51 C45.6532778,61.261 45.6762778,62.053 45.7642778,62.867 C45.8722778,63.679 45.9542778,64.52 46.0902778,65.366 C46.2562778,66.208 46.3762778,67.069 46.5832778,67.914 C46.7922778,68.757 46.9652778,69.606 47.2272778,70.42 C47.3482778,70.828 47.4672778,71.233 47.5852778,71.634 C47.7222778,72.027 47.8582778,72.417 47.9912778,72.799 C48.2412778,73.569 48.5622778,74.284 48.8292778,74.973 C49.1312778,75.647 49.4022778,76.291 49.6942778,76.863 C50.2502778,78.023 50.7972778,78.936 51.1762778,79.566 C51.5712778,80.196 51.7882778,80.482 51.8012778,80.504 L49.7932778,81.829" id="Fill-153" fill="#1D1209"></path>
            <path d="M51.882,76.19 L51.867,76.19 C51.895,76.096 51.944,75.924 52.008,75.688 C52.03,75.722 52.052,75.755 52.074,75.789 C51.987,75.973 51.921,76.11 51.882,76.19 M51.251,58.195 C50.564,55.615 50,54 50,54 C50,54 50.817,55.103 51.81,56.772 C51.614,57.236 51.427,57.711 51.251,58.195" id="Fill-154" fill="#B4BE69"></path>
            <path d="M68.2290028,60.974 C71.5280028,69.842 59.7230028,80.754 59.7230028,80.754 C59.7230028,80.754 49.9940028,76.318 50.0000028,66.856 C50.0100028,50.184 65.5210028,41 65.5210028,41 C65.5210028,41 63.0670028,47.101 68.2290028,60.974" id="Fill-155" fill="#859D49"></path>
            <path d="M67.3050011,62.238 C67.6550011,63.179 67.8100011,64.149 67.8110011,65.149 C67.8130011,66.933 67.3000011,68.814 66.4940011,70.627 C65.2890011,73.349 63.4340011,75.898 61.8810011,77.743 C61.1050011,78.667 60.4050011,79.416 59.9030011,79.932 C59.6520011,80.19 59.4510011,80.389 59.3140011,80.522 L59.1580011,80.671 L59.9260011,81.599 L60.4250011,80.505 C60.3510011,80.473 58.0240011,79.375 55.7820011,77.224 C54.6590011,76.149 53.5600011,74.817 52.7480011,73.237 C51.9370011,71.655 51.4050011,69.832 51.4040011,67.71 C51.4060011,63.664 52.3320011,60.198 53.7270011,57.125 C55.8170011,52.518 58.9810011,48.935 61.6270011,46.517 C62.9490011,45.308 64.6005859,44.0566406 64.6005859,44.0566406 C64.5861708,44.0566406 64.6150011,55.012 67.3050011,62.238 L69.5590011,61.399 C66.9540011,54.402 66.3430011,49.478 66.3430011,46.386 C66.3430011,44.915 66.4820011,43.858 66.6120011,43.185 C66.6780011,42.849 66.7410011,42.609 66.7850011,42.462 L66.8340011,42.31 L66.4520011,42.138 L66.8400011,42.294 L66.4520011,42.138 L66.8400011,42.294 L68.1650011,39 L65.1120011,40.81 C65.0440011,40.852 61.0730011,43.204 57.0670011,47.724 C53.0680011,52.235 49.0060011,58.986 49.0000011,67.71 L51.4030011,67.705 L49.0000011,67.71 C48.9990011,70.281 49.6660011,72.534 50.6560011,74.426 C52.1430011,77.267 54.3270011,79.31 56.1300011,80.66 C57.9350011,82.01 59.3720011,82.667 59.4270011,82.693 L60.1550011,83.025 L60.7420011,82.482 C60.7770011,82.448 63.0950011,80.306 65.4400011,77.102 C66.6120011,75.499 67.7930011,73.629 68.6920011,71.603 C69.5900011,69.577 70.2140011,67.389 70.2160011,65.149 C70.2160011,63.898 70.0180011,62.632 69.5590011,61.4 L68.4320011,61.819 L67.3050011,62.238 Z" id="Fill-156" fill="#1D1209"></path>
            <path d="M58.143,75.737 L55.432,75.737 C54.653,74.864 53.924,73.86 53.343,72.728 C52.546,71.174 52.019,69.386 52,67.311 L52,67.193 C52.003,63.212 52.927,59.689 54.322,56.616 C56.412,52.009 59.576,48.426 62.222,46.008 C63.094,45.21 63.909,44.54 64.607,44 C64.588,44.236 64.571,44.486 64.559,44.749 C63.491,47.001 62.11,50.233 60.928,54.042 C60.87,54.199 60.8,54.386 60.721,54.601 C60.586,54.963 60.422,55.402 60.234,55.906 C60.029,56.406 59.892,56.998 59.689,57.63 C59.51,58.268 59.266,58.949 59.114,59.695 C58.95,60.438 58.741,61.217 58.59,62.035 C58.457,62.856 58.29,63.704 58.176,64.572 C58.09,65.444 57.954,66.329 57.908,67.22 C57.865,68.111 57.785,69.005 57.803,69.886 C57.801,70.327 57.799,70.765 57.797,71.197 C57.815,71.629 57.834,72.057 57.852,72.477 C57.872,73.32 57.976,74.129 58.037,74.902 C58.074,75.186 58.108,75.465 58.143,75.737" id="Fill-157" fill="#4E6F36"></path>
            <path d="M54.6340026,75.401 L52.6560026,75.401 C51.1350026,73.32 49.9980026,70.537 50.0000026,66.856 C50.0100026,50.184 65.5210026,41 65.5210026,41 C65.5210026,41 64.7850026,42.256 63.7610026,44.413 C63.7730026,44.15 63.7900026,43.9 63.8090026,43.664 C63.1110026,44.204 62.2960026,44.874 61.4240026,45.672 C58.7780026,48.09 55.6140026,51.673 53.5240026,56.28 C52.1290026,59.353 51.2050026,62.876 51.2020026,66.857 L51.2020026,66.975 C51.2210026,69.05 51.7480026,70.838 52.5450026,72.392 C53.1260026,73.524 53.8550026,74.528 54.6340026,75.401 C51.3812561,70.2960202 49.7548828,67.7435303 49.7548828,67.7435303" id="Fill-158" fill="#130C03"></path>
            <path d="M58.607,82.067 C58.616,82.091 58.439,81.599 58.229,80.829 C58.029,80.049 57.75,78.942 57.541,77.601 C57.42,76.933 57.34,76.203 57.24,75.436 C57.179,74.663 57.075,73.854 57.055,73.011 C57.037,72.591 57.018,72.163 57,71.731 C57.002,71.299 57.004,70.861 57.006,70.42 C56.988,69.539 57.068,68.645 57.111,67.754 C57.157,66.863 57.293,65.978 57.379,65.106 C57.493,64.238 57.66,63.39 57.793,62.569 C57.944,61.751 58.153,60.972 58.317,60.229 C58.469,59.483 58.713,58.802 58.892,58.164 C59.095,57.532 59.232,56.94 59.437,56.44 C59.625,55.936 59.789,55.497 59.924,55.135 C60.192,54.413 60.346,54 60.346,54 C60.346,54 60.228,54.424 60.021,55.167 C59.919,55.538 59.794,55.988 59.65,56.504 C59.49,57.014 59.402,57.616 59.258,58.257 C59.133,58.903 58.95,59.591 58.863,60.341 C58.764,61.087 58.625,61.867 58.545,62.682 C58.484,63.499 58.392,64.338 58.353,65.194 C58.344,66.053 58.283,66.92 58.312,67.789 C58.346,68.658 58.342,69.524 58.431,70.374 C58.465,70.798 58.5,71.219 58.533,71.635 C58.587,72.049 58.639,72.458 58.691,72.859 C58.779,73.663 58.946,74.429 59.066,75.158 C59.224,75.88 59.357,76.566 59.526,77.186 C59.832,78.435 60.182,79.44 60.424,80.135 C60.681,80.832 60.834,81.157 60.842,81.181 L58.607,82.067" id="Fill-159" fill="#1D1209"></path>
            <path d="M62.195,75.371 L62,75.371 C62.817,73.722 64.566,69.852 64.731,66.617 C65.083,59.696 64.338,54 64.338,54 C64.338,54 68.235,62.466 66.876,67.744 C66.396,69.61 63.483,73.647 62.195,75.371" id="Fill-160" fill="#B4BE69"></path>
            <path d="M78.524,116.517 C71.68,116.517 38.586,116.517 30.886,116.517 C23.187,116.517 21,108.427 21,105.785 C21,103.142 21,77 21,77 L88.685,77 C88.685,77 88.685,102.773 88.685,106.404 C88.685,110.034 85.367,116.517 78.524,116.517" id="Fill-161" fill="#32969B"></path>
            <path d="M77.951,115.517 C71.107,115.517 38.012,115.517 30.313,115.517 C28.638,115.514 27.347,115.09 26.272,114.426 C24.669,113.436 23.542,111.827 22.831,110.197 C22.477,109.385 22.227,108.577 22.071,107.872 C21.914,107.171 21.851,106.563 21.852,106.211 C21.852,104.89 21.852,97.693 21.852,90.828 C21.852,83.962 21.0170288,78.852 21.0170288,78.852 L20.427,78.852 L86.686,78.852 C86.686,78.852 86.686,103.199 86.686,106.83 C86.688,107.522 86.518,108.464 86.151,109.442 C85.602,110.916 84.619,112.468 83.256,113.609 C81.886,114.75 80.174,115.512 77.951,115.517 L77.951,118.369 C79.887,118.371 81.619,117.905 83.085,117.138 C85.289,115.985 86.888,114.192 87.943,112.327 C88.995,110.451 89.531,108.509 89.538,106.83 C89.538,103.199 89.538,77.426 89.538,77.426 L89.538,76 L19,76 L19,77.426 C19,77.43 19,79.06 19,81.552 C19,89.029 19,104.229 19,106.211 C19.003,107.059 19.162,108.149 19.518,109.397 C20.058,111.257 21.045,113.441 22.777,115.236 C23.643,116.131 24.701,116.921 25.962,117.482 C27.223,118.044 28.683,118.37 30.313,118.369 C38.013,118.369 71.107,118.369 77.951,118.369 L77.951,116.943 L77.951,115.517 Z" id="Fill-162" fill="#1D1209"></path>
            <path d="M78.0990117,117.091 L78.0990117,115.665 C71.2550117,115.665 38.1600117,115.665 30.4610117,115.665 C28.7860117,115.662 27.4950117,115.238 26.4200117,114.574 C24.8170117,113.584 23.6900117,111.975 22.9790117,110.345 C22.6250117,109.533 22.3750117,108.725 22.2190117,108.02 C22.0620117,107.319 21.9990117,106.711 22.0000117,106.359 C22.0000117,105.038 22.0000117,97.841 22.0000117,90.976 C22.0000117,86.05 22.0000117,81.294 22,79 L30.4280117,79 C30.2320117,80.684 30.1600117,82.42 30.2210117,84.195 C30.7130117,98.835 40.5040117,111.325 54.9320117,114.679 C57.6980117,115.321 60.5080117,115.62 63.3250117,115.62 C71.2540117,115.62 79.2250117,113.251 86.3260117,109.517 C86.3170117,109.542 86.3080117,109.566 86.2990117,109.59 C85.7500117,111.064 84.7670117,112.616 83.4040117,113.757 C82.0340117,114.898 80.3220117,115.66 78.0990117,115.665 L78.0990117,117.091" id="Fill-163" fill="#068689"></path>
            <path d="M78.524,116.517 L78.524,115.091 C80.747,115.086 82.459,114.324 83.829,113.183 C85.192,112.042 86.175,110.49 86.724,109.016 C86.733,108.992 86.742,108.968 86.751,108.943 C87.342,108.633 87.927,108.312 88.506,107.983 C87.736,111.645 84.458,116.517 78.524,116.517 L30.886,116.517 C23.187,116.517 21,108.427 21,105.785 C21,103.142 21,77 21,77 L31.051,77 C30.975,77.471 30.909,77.946 30.853,78.426 L22.425,78.426 C22.425,80.72 22.425,85.476 22.425,90.402 C22.425,97.267 22.425,104.464 22.425,105.785 C22.424,106.137 22.487,106.745 22.644,107.446 C22.8,108.151 23.05,108.959 23.404,109.771 C24.115,111.401 25.242,113.01 26.845,114 C27.92,114.664 29.211,115.088 30.886,115.091 C38.585,115.091 71.68,115.091 78.524,115.091 L78.524,116.517" id="Fill-164" fill="#130E06"></path>
            <path d="M83.385,81.042 L33.852,81.042 C32.829,81.042 32,80.586 32,80.021 C32,79.456 32.829,79 33.852,79 L83.385,79 C84.406,79 85.235,79.456 85.235,80.021 C85.235,80.586 84.406,81.042 83.385,81.042" id="Fill-165" fill="#79B6BC"></path>
            <path d="M83.221,107.809 C83.214,107.809 83.208,107.809 83.202,107.808 C81.799,107.62 78.133,90.888 78.133,90.888 L53,87 L84.946,87 C84.946,87 84.608,107.81 83.221,107.809" id="Fill-166" fill="#79B6BC"></path>
            <polygon id="Fill-167" fill="#32969B" points="29 121.549 79.398 121.549 79.398 117 29 117"></polygon>
            <polygon id="Fill-168" fill="#1D1209" points="29.852 119.549 29.852 117.852 77.397 117.852 77.397 119.549 80.25 120.975 80.25 115 27 115 27 122.401 80.25 122.401 80.25 120.975 77.397 119.549"></polygon>
            <path d="M40.116,101.384 C40.116,102.699 37.852,103.767 35.058,103.767 C32.265,103.767 30,102.699 30,101.384 C30,100.067 32.265,99 35.058,99 C37.852,99 40.116,100.067 40.116,101.384" id="Fill-177" fill="#EE9E80"></path>
            <path d="M79.116,101.384 C79.116,102.699 76.85,103.767 74.059,103.767 C71.266,103.767 69,102.699 69,101.384 C69,100.067 71.266,99 74.059,99 C76.85,99 79.116,100.067 79.116,101.384" id="Fill-178" fill="#EE9E80"></path>
            <g id="smile" transform="translate(45.000000, 102.000000)">
                <path d="M1,1 C1,4.00543699 3.65795851,9.71528755 9.9756593,9.71528755 C16.292206,9.71528755 18.9490103,4.00543699 18.9490103,1 L1,1" id="Fill-312" fill="#DF5332"></path>
                <path d="M1.23607189,1.28324724 L-1.77635684e-15,1.28324724 C0.0023082575,2.22949216 0.199664274,3.27887659 0.593222178,4.3666385 C1.18529023,5.99168524 2.22631436,7.70068273 3.8213203,9.03430042 C5.41055559,10.3679181 7.57223874,11.2877785 10.2117312,11.2829813 C11.9694693,11.2841806 13.5194642,10.881217 14.8247838,10.2108103 C16.7868027,9.20579981 18.1821444,7.62752564 19.0812106,6.0024789 C19.9814311,4.3678378 20.4142294,2.69721779 20.42,1.28324724 C20.42,0.940248444 20.2918917,0.618836986 20.0587577,0.3753798 C19.8244696,0.13312191 19.5140089,-5.95079541e-14 19.1850822,-5.95079541e-14 L1.23607189,-5.95079541e-14 C0.910607585,-5.95079541e-14 0.59206805,0.136719799 0.362396428,0.3753798 C0.131570678,0.6140398 -1.77635684e-15,0.94504563 -1.77635684e-15,1.28324724 L1.23607189,1.28324724 L1.23607189,2.56769377 L19.1850822,2.56769377 L19.1850822,1.28324724 L17.9490103,1.28324724 C17.9501645,1.8409201 17.8174397,2.63125649 17.5139038,3.45997036 C17.0626395,4.708438 16.243208,6.04085639 15.0521472,7.03267458 C13.8564698,8.02329348 12.3099373,8.70929107 10.2117312,8.71408826 C8.81061889,8.71288896 7.65879839,8.40227117 6.69048437,7.90696172 C5.23974453,7.16579649 4.18025434,5.98329016 3.48085231,4.72043096 C2.77914203,3.46836543 2.46521901,2.12395407 2.47098966,1.28324724 L1.23607189,1.28324724 L1.23607189,2.56769377 L1.23607189,1.28324724" id="Fill-313" fill="#1D1209"></path>
                <path d="M17.5490522,5.44219418 C18.5000543,3.89030453 18.9490103,2.22448171 18.9490103,1 L1,1 C1,2.22448171 1.44895608,3.89030453 2.39995818,5.44219418 L17.5490522,5.44219418 L17.7611938,2.7319762" id="Fill-314" fill="#FFFFFE"></path>
                <path d="M18.8273023,6.41623619 C19.8948714,4.65926684 20.4119211,2.82194463 20.42,1.28324724 C20.42,0.940248444 20.2918917,0.618836986 20.0587577,0.3753798 C19.8244696,0.13312191 19.5140089,-1.33226763e-15 19.1850822,-1.33226763e-15 L1.23607189,-1.33226763e-15 C0.910607585,-1.33226763e-15 0.59206805,0.136719799 0.362396428,0.3753798 C0.131570678,0.6140398 -1.77635684e-15,0.94504563 -1.77635684e-15,1.28324724 C0.00807890126,2.82194463 0.525128582,4.65926684 1.59385181,6.41623619 C1.81890691,6.78561951 2.21477307,7.00988795 2.63603007,7.00988795 L17.7851241,7.00988795 C18.2063811,7.00988795 18.599939,6.78442021 18.8273023,6.41623619 L17.1126496,4.44219418 L3.31431627,4.44219418 C2.34284474,3.08871548 2.34284474,2.56769377 2.34284474,2.56769377 L2.63603007,2.56769377 L17.7851241,2.56769377 C17.7185105,3.0657752 17.6766906,3.20279067 17.6130022,3.40588782 C17.5568469,3.58496282 17.504183,3.81111735 17.1126496,4.44219418 L17.7851241,4.44219418 L17.1126496,4.44219418 L18.8273023,6.41623619 Z" id="Fill-315" fill="#1D1209"></path>
            </g>
            <g id="heart" transform="translate(29.000000, 80.000000)">
                <path d="M41.5,3.767913 C40.6834882,2.14260202 38.9823261,1 37.0077475,1 C34.2431075,1 32,3.19656413 32,5.90579134 C32,12.626748 41.5,17 41.5,17 C41.5,17 51,12.1923928 51,5.90579134 C51,3.19656413 48.7574675,1 45.9922525,1 C44.0170989,1 42.3153618,2.14260202 41.5,3.767913 Z" id="Fill-63" fill="#DE4344"></path>
                <path d="M45.8125541,6.5858921e-07 C44.5964828,-0.000565686603 43.4521725,0.364160617 42.4966485,0.9905384 C41.5400205,1.61634984 41.5,2.06563204 41.500276,2.06563204 C41.4588755,2.06563204 41.4588755,1.61634984 40.5027995,0.9905384 C39.5467235,0.364160617 38.4029652,-0.000565686603 37.1874459,6.5858921e-07 C35.4834006,-0.000565686603 33.927845,0.713029256 32.8127911,1.85931192 C31.694977,3.00332921 30.9994483,4.59928997 31.0000003,6.34759757 C31.0000003,8.3705826 31.6850409,10.1857189 32.6427729,11.7171163 C34.085719,14.0193095 36.1375288,15.7625201 37.8266699,16.9722334 C39.5174671,18.1779823 40.858292,18.8377744 40.9041085,18.8604283 C41.2993455,19.0546847 41.7541992,19.0456231 42.141708,18.8366418 C42.1963567,18.8054928 44.5479062,17.5419766 46.9618325,15.4074216 C48.1685196,14.3370292 49.395079,13.0480275 50.351707,11.540983 C51.3044709,10.0379028 51.9983437,8.28506448 51.9999997,6.34759757 C52.0005517,4.59928997 51.305023,3.00332921 50.1872089,1.85931192 C49.0716029,0.713029256 47.5165994,-0.000565686603 45.8125541,6.5858921e-07 L45.8125541,2.83172662 C46.76311,2.83285931 47.6109926,3.22307115 48.2358645,3.86190852 C48.8585283,4.50244494 49.3924574,5.37235103 49.3924574,6.34759757 C49.3924574,7.5539785 48.7955995,8.80157129 48.037694,9.99769234 C46.9093918,11.7884758 45.0993611,13.4155856 43.573614,14.549975 C42.8112924,15.1191519 42.1218358,15.570529 41.6288936,15.8757891 C41.3821465,16.0287023 41.5835799,15.9044773 41.4505462,15.9815003 C41.3837534,16.0194454 39.823279,15.1621941 37.7278607,13.3283684 C36.6790475,12.4142873 35.6611468,11.3218074 34.9319456,10.1336152 C34.2005365,8.94145855 33.7600349,7.68247319 33.7600349,6.34759757 C33.7605869,5.37235115 34.1414717,4.50244494 34.7641355,3.86190852 C35.3884554,3.22307115 36.23689,2.83285931 37.1874459,2.83172662 C37.8669664,2.83229297 38.4879742,3.03164647 39.0184529,3.37824973 C39.5483795,3.72428664 39.982257,4.21983869 40.2615725,4.80317423 C40.4950714,5.28909841 40.9725574,5.59379212 41.500276,5.59379212 C42.0285466,5.59379212 42.5054806,5.28853206 42.7384275,4.80260789 C43.017191,4.21927234 43.4505165,3.72428664 43.9804431,3.37824973 C44.5114738,3.03164647 45.1319295,2.83229297 45.8125541,2.83172662 L45.8125541,1.41586364 L45.8125541,6.5858921e-07 Z" id="Fill-64" fill="#20160E"></path>
                <path d="M49.9026674,7.96961688 C49.7646178,8.33558625 49.7292771,5.29383124 47.2742025,4.30875394 C45.459126,3.57973827 43.8693465,4.37364627 44.0085006,4.00826151 C44.1476546,3.64229214 46.212877,2.53444556 47.7016042,3.21844583 C50.3990939,4.45958476 50.0440302,7.60364751 49.9026674,7.96961688" id="Fill-65" fill="#FFFFFE"></path>
                <path d="M10.5,3.767913 C9.68348818,2.14260202 7.98232606,1 6.00774748,1 C3.24310747,1 1,3.19656413 1,5.90579134 C1,12.626748 10.5,17 10.5,17 C10.5,17 20,12.1923928 20,5.90579134 C20,3.19656413 17.7574675,1 14.9922525,1 C13.0170989,1 11.3153618,2.14260202 10.5,3.767913 Z" id="Fill-63" fill="#DE4344"></path>
                <path d="M14.8125541,6.5858921e-07 C13.5964828,-0.000565686603 12.4521725,0.364160617 11.4966485,0.9905384 C10.5400205,1.61634984 10.5,2.06563204 10.500276,2.06563204 C10.4588755,2.06563204 10.4588755,1.61634984 9.50279949,0.9905384 C8.54672351,0.364160617 7.40296516,-0.000565686603 6.18744592,6.5858921e-07 C4.48340055,-0.000565686603 2.92784504,0.713029256 1.81279106,1.85931192 C0.694977043,3.00332921 -0.00055167859,4.59928997 3.28332042e-07,6.34759757 C3.28332042e-07,8.3705826 0.685040919,10.1857189 1.64277293,11.7171163 C3.08571902,14.0193095 5.13752875,15.7625201 6.82666994,16.9722334 C8.51746714,18.1779823 9.85829195,18.8377744 9.90410853,18.8604283 C10.2993455,19.0546847 10.7541992,19.0456231 11.141708,18.8366418 C11.1963567,18.8054928 13.5479062,17.5419766 15.9618325,15.4074216 C17.1685196,14.3370292 18.395079,13.0480275 19.351707,11.540983 C20.3044709,10.0379028 20.9983437,8.28506448 20.9999997,6.34759757 C21.0005517,4.59928997 20.305023,3.00332921 19.1872089,1.85931192 C18.0716029,0.713029256 16.5165994,-0.000565686603 14.8125541,6.5858921e-07 L14.8125541,2.83172662 C15.76311,2.83285931 16.6109926,3.22307115 17.2358645,3.86190852 C17.8585283,4.50244494 18.3924574,5.37235103 18.3924574,6.34759757 C18.3924574,7.5539785 17.7955995,8.80157129 17.037694,9.99769234 C15.9093918,11.7884758 14.0993611,13.4155856 12.573614,14.549975 C11.8112924,15.1191519 11.1218358,15.570529 10.6288936,15.8757891 C10.3821465,16.0287023 10.5835799,15.9044773 10.4505462,15.9815003 C10.3837534,16.0194454 8.82327897,15.1621941 6.7278607,13.3283684 C5.67904754,12.4142873 4.66114678,11.3218074 3.93194564,10.1336152 C3.20053646,8.94145855 2.76003494,7.68247319 2.76003494,6.34759757 C2.76058695,5.37235115 3.14147172,4.50244494 3.76413553,3.86190852 C4.38845536,3.22307115 5.23689,2.83285931 6.18744592,2.83172662 C6.86696644,2.83229297 7.48797423,3.03164647 8.01845288,3.37824973 C8.54837953,3.72428664 8.98225697,4.21983869 9.26157247,4.80317423 C9.4950714,5.28909841 9.97255739,5.59379212 10.500276,5.59379212 C11.0285466,5.59379212 11.5054806,5.28853206 11.7384275,4.80260789 C12.017191,4.21927234 12.4505165,3.72428664 12.9804431,3.37824973 C13.5114738,3.03164647 14.1319295,2.83229297 14.8125541,2.83172662 L14.8125541,1.41586364 L14.8125541,6.5858921e-07 Z" id="Fill-64" fill="#20160E"></path>
                <path d="M18.9026674,7.96961688 C18.7646178,8.33558625 18.7292771,5.29383124 16.2742025,4.30875394 C14.459126,3.57973827 12.8693465,4.37364627 13.0085006,4.00826151 C13.1476546,3.64229214 15.212877,2.53444556 16.7016042,3.21844583 C19.3990939,4.45958476 19.0440302,7.60364751 18.9026674,7.96961688" id="Fill-65" fill="#FFFFFE"></path>
            </g>
        </g>
    </g>
</svg>
