<?xml version="1.0" encoding="iso-8859-1"?>
<!-- Generator: Adobe Illustrator 19.0.0, SVG Export Plug-In . SVG Version: 6.00 Build 0)  -->
<svg version="1.1" id="Capa_1" xmlns="http://www.w3.org/2000/svg" xmlns:xlink="http://www.w3.org/1999/xlink" x="0px" y="0px"
	 viewBox="0 0 512.001 512.001" style="enable-background:new 0 0 512.001 512.001;" xml:space="preserve">
<path style="fill:#80CBDE;" d="M58.748,234.89C21.017,197.159-11.593,112.159,20.721,79.844s117.314,0.296,155.045,38.027
	c31.643,31.643,39.823,76.68,22.583,109.451l185.757,164.664c15.644,13.868,16.371,38.051,1.589,52.833
	c-14.783,14.783-38.965,14.056-52.833-1.589L168.199,257.472C135.426,274.713,90.391,266.533,58.748,234.89z"/>
<polygon style="opacity:0.1;enable-background:new    ;" points="270.875,291.612 230.324,327.557 265.221,366.924 305.093,321.945 
	"/>
<path style="opacity:0.1;enable-background:new    ;" d="M78.324,202.873c21.096,21.096,52.843,23.551,70.91,5.484
	s15.612-49.814-5.484-70.91s-68.62-39.328-86.687-21.261C38.995,134.252,57.228,181.778,78.324,202.873z"/>
<path style="fill:#FDB876;" d="M411.854,59.909L411.854,59.909c6.012,6.012,6.012,15.759,0,21.771l-68.636,68.636
	c-6.158,6.158-6.158,16.14,0,22.298l0,0c6.158,6.158,16.14,6.158,22.298,0l68.636-68.636c6.012-6.012,15.759-6.012,21.771,0l0,0
	c6.012,6.012,6.012,15.759,0,21.771l-68.636,68.636c-6.158,6.158-6.158,16.14,0,22.298l0,0c6.158,6.158,16.14,6.158,22.298,0
	l68.328-68.328c5.862-5.862,15.409-6.401,21.54-0.822c6.546,5.957,6.725,16.099,0.539,22.285l-79.784,79.784
	c-29.72,29.72-72.02,37.403-102.8,21.211l-154.223,173.98c-13.002,14.668-35.825,15.946-49.818,2.219
	c-14.131-13.862-13.524-36.76,1.253-49.859l174.47-154.658c-16.193-30.78-8.51-73.08,21.211-102.8l79.784-79.784
	C396.095,53.897,405.842,53.897,411.854,59.909z"/>
<path d="M161.848,180.924c-4.038-0.917-8.056,1.624-8.966,5.663c-1.455,6.442-4.467,11.982-8.951,16.467
	c-15.113,15.113-42.169,12.653-60.305-5.484c-9.704-9.703-18.899-25.913-23.426-41.293c-4.714-16.019-3.925-28.699,2.164-34.788
	c13.234-13.235,55.977,1.158,76.082,21.262c5.217,5.216,9.213,11.193,11.879,17.768c1.558,3.839,5.932,5.688,9.767,4.132
	c3.839-1.557,5.689-5.931,4.132-9.767c-3.425-8.444-8.529-16.094-15.173-22.738c-11.52-11.52-29.785-21.946-47.665-27.207
	c-21.765-6.405-39.388-4.292-49.628,5.946c-10.238,10.239-12.351,27.864-5.947,49.629c5.262,17.88,15.687,36.144,27.207,47.665
	c13.052,13.051,29.826,19.729,45.787,19.728c13.372,0,26.175-4.688,35.73-14.244c6.43-6.431,10.916-14.649,12.975-23.769
	C168.426,185.85,165.889,181.836,161.848,180.924z M192.025,412.256c-3.101-2.748-7.84-2.463-10.587,0.637l-23.868,26.925
	c-4.982,5.621-12.143,8.995-19.647,9.256c-7.291,0.251-14.171-2.379-19.308-7.418c-5.327-5.226-8.157-12.207-7.97-19.661
	c0.188-7.456,3.365-14.285,8.944-19.232l174.47-154.657c2.584-2.29,3.271-6.049,1.663-9.104
	c-15.046-28.6-6.873-67.257,19.877-94.006l41.048-41.048c2.929-2.93,2.929-7.678,0-10.606c-2.93-2.928-7.678-2.928-10.606,0
	l-41.048,41.048c-29.744,29.745-39.613,72.581-25.105,106.235l-27.615,24.479l-44.718-39.642
	c15.569-35.699,5.136-81.27-26.487-112.895c-19.948-19.948-51.653-38.023-82.74-47.17c-36.753-10.815-66.197-7.568-82.911,9.144
	c-16.712,16.713-19.96,46.157-9.144,82.911c9.148,31.088,27.223,62.791,47.171,82.739c31.623,31.625,77.197,42.059,112.894,26.488
	l37.032,41.776l-93.728,83.084c-8.601,7.625-13.699,18.587-13.989,30.077c-0.29,11.488,4.252,22.696,12.46,30.748
	c7.742,7.595,17.927,11.725,28.822,11.725c0.502,0,1.007-0.009,1.512-0.026c11.591-0.405,22.652-5.616,30.347-14.297l23.868-26.924
	C195.41,419.743,195.125,415.003,192.025,412.256z M173.81,252.498c-2.29-2.585-6.048-3.27-9.104-1.663
	c-30.638,16.118-72.029,7.38-100.655-21.249c-18.005-18.003-35.036-47.979-43.39-76.368c-9.061-30.791-7.108-55.602,5.362-68.07
	C38.491,72.677,63.3,70.726,94.094,79.786c28.387,8.354,58.364,25.385,76.368,43.389c28.628,28.628,37.366,70.019,21.249,100.656
	c-1.607,3.056-0.921,6.814,1.663,9.104l47.595,42.191l-26.377,23.381L173.81,252.498z M504.5,141.986
	c-9.049-8.236-23.059-7.768-31.891,1.064l-68.328,68.328c-1.561,1.561-3.637,2.422-5.846,2.422s-4.285-0.86-5.846-2.421
	c-3.224-3.225-3.224-8.47,0-11.691l68.636-68.636c8.927-8.927,8.927-23.451-0.001-32.378c-8.925-8.925-23.45-8.924-32.377,0
	l-68.636,68.637c-1.562,1.562-3.638,2.422-5.846,2.422c-2.208,0-4.284-0.86-5.846-2.423c-3.224-3.223-3.224-8.468,0-11.69
	l68.635-68.636c4.325-4.324,6.707-10.072,6.707-16.188c0-6.116-2.382-11.864-6.706-16.19c-8.927-8.925-23.45-8.925-32.377,0
	l-18.466,18.466c-2.929,2.93-2.929,7.678,0,10.606c2.93,2.928,7.678,2.928,10.607,0l18.466-18.466
	c1.49-1.491,3.473-2.313,5.581-2.313h0.001c2.108,0,4.091,0.821,5.583,2.313c1.491,1.491,2.313,3.474,2.313,5.582
	s-0.821,4.091-2.314,5.582l-68.636,68.637c-9.07,9.071-9.07,23.833,0,32.903c4.395,4.395,10.237,6.815,16.452,6.815
	c6.216,0,12.058-2.421,16.452-6.815l68.635-68.636c3.08-3.077,8.09-3.078,11.165,0c3.079,3.078,3.079,8.087,0,11.164l-68.636,68.636
	c-9.07,9.07-9.07,23.832,0,32.904c9.071,9.069,23.833,9.069,32.904,0l68.328-68.329c3.108-3.107,8.128-3.363,11.189-0.577
	c1.621,1.476,2.542,3.487,2.594,5.664c0.051,2.181-0.77,4.23-2.311,5.771l-79.782,79.784c-26.75,26.748-65.408,34.922-94.007,19.877
	c-3.055-1.605-6.814-0.921-9.103,1.663L207.172,383.862c-2.748,3.1-2.462,7.839,0.638,10.586c1.428,1.266,3.203,1.888,4.972,1.888
	c2.071,0,4.134-0.854,5.615-2.525l30.319-34.203l78.536,88.598c8.094,9.129,19.267,14.358,31.461,14.724
	c0.456,0.014,0.911,0.021,1.365,0.021c11.683,0,22.619-4.526,30.923-12.829c8.627-8.628,13.175-20.094,12.809-32.288
	c-0.367-12.194-5.597-23.367-14.727-31.46l-91.888-81.454l22.082-24.911c33.657,14.508,76.489,4.639,106.235-25.105l79.783-79.784
	c4.404-4.405,6.847-10.502,6.7-16.731C511.844,152.074,509.183,146.249,504.5,141.986z M379.133,397.598
	c6.003,5.322,9.441,12.668,9.683,20.688c0.24,8.019-2.751,15.559-8.424,21.231c-5.673,5.673-13.207,8.645-21.231,8.424
	c-8.018-0.241-15.365-3.68-20.688-9.682l-79.737-89.953l28.508-32.16L379.133,397.598z"/>
<g>
</g>
<g>
</g>
<g>
</g>
<g>
</g>
<g>
</g>
<g>
</g>
<g>
</g>
<g>
</g>
<g>
</g>
<g>
</g>
<g>
</g>
<g>
</g>
<g>
</g>
<g>
</g>
<g>
</g>
</svg>
