<?xml version="1.0" encoding="iso-8859-1"?>
<!-- Generator: Adobe Illustrator 19.0.0, SVG Export Plug-In . SVG Version: 6.00 Build 0)  -->
<svg version="1.1" id="Capa_1" xmlns="http://www.w3.org/2000/svg" xmlns:xlink="http://www.w3.org/1999/xlink" x="0px" y="0px"
	 viewBox="0 0 511.998 511.998" style="enable-background:new 0 0 511.998 511.998;" xml:space="preserve">
<path style="fill:#8090A0;" d="M361.54,485.48L361.54,485.48c30.733-43.826,38.134-99.896,19.827-150.195l-26.908-73.929
	c-8.671-23.825-35.015-36.109-58.841-27.438l-21.976,7.998c-4.648,1.692-9.787-0.705-11.478-5.352l-10.498-28.844l-32.624,11.874
	l10.498,28.844c1.692,4.648-0.705,9.787-5.352,11.478l-21.976,7.998c-23.825,8.671-36.109,35.015-27.438,58.841l26.908,73.929
	c18.308,50.3,60.018,88.493,111.731,102.312l0,0C331.541,507.842,350.766,500.845,361.54,485.48z"/>
<path style="opacity:0.1;enable-background:new    ;" d="M279.347,239.842l-5.705,2.076l8.629,23.709
	c4.581,12.587,2.905,26.604-4.516,37.755c-3.747,5.631-10.721,8.172-17.214,6.272l-0.011-0.003
	c-12.865-3.767-23.171-13.43-27.755-26.027l-8.623-23.692l-5.67,2.064c-15.525,5.65-23.53,22.817-17.879,38.341l27.557,75.713
	c11.929,32.776,39.109,57.664,72.807,66.668l0,0c11.813,3.157,24.341-1.403,31.361-11.414l0,0
	c20.026-28.558,24.849-65.094,12.919-97.87l-27.557-75.713C312.038,242.196,294.873,234.191,279.347,239.842z"/>
<path style="fill:#596675;" d="M197.645,202.124l59.179-21.54l5.204,14.299c1.609,4.422-0.67,9.31-5.092,10.92l-43.168,15.712
	c-4.421,1.609-9.31-0.671-10.92-5.092L197.645,202.124z"/>
<path style="fill:#C27C59;" d="M192.295,204.071l69.879-25.434c7.546-2.746,11.436-11.09,8.69-18.636L218.842,17.069
	c-2.746-7.546-11.09-11.436-18.636-8.69l-69.879,25.434c-7.546,2.746-11.436,11.09-8.69,18.637l52.023,142.932
	C176.405,202.927,184.749,206.818,192.295,204.071z"/>
<path style="opacity:0.1;enable-background:new    ;" d="M148.926,27.043c13.447,14.985,19.727,31.365,18.14,47.427
	c-1.423,14.396-9.283,28.103-22.837,40.053l5.303,14.57c19.033-15.176,30.076-33.482,32.024-53.191
	c1.84-18.613-4.377-37.222-18.024-54.175L148.926,27.043z M271.195,161.073c-2.965-1.463-6.344-2.845-9.998-4.333
	c-11.883-4.838-26.672-10.86-31.788-21.824c-5.417-11.611,5.41-25.91,14.963-38.525c0.771-1.018,1.519-2.01,2.254-2.989
	l-6.073-16.686c-1.978,3.209-4.826,6.972-7.788,10.884c-10.837,14.31-25.678,33.908-16.55,53.472
	c7.53,16.141,26.004,23.662,39.492,29.153c3.903,1.589,8.933,3.637,11.566,5.227C271.035,171.832,272.668,166.337,271.195,161.073z"
	/>
<path style="opacity:0.1;enable-background:new    ;" d="M150.645,26.417l-20.319,7.395c-7.546,2.746-11.436,11.09-8.69,18.637
	l52.023,142.932c2.746,7.546,11.09,11.436,18.636,8.69l32.925-11.983C194.075,176.031,148.952,52.732,150.645,26.417z"/>
<path style="opacity:0.1;enable-background:new    ;" d="M226.106,191.765l-28.461,10.359l5.204,14.299
	c1.609,4.421,6.498,6.701,10.92,5.092l24.193-8.805C233.26,209.176,227.812,199.468,226.106,191.765z"/>
<path d="M388.415,332.72l-26.908-73.929c-4.879-13.404-14.688-24.108-27.616-30.137c-12.929-6.03-27.434-6.662-40.837-1.783
	l-21.977,7.998c-0.754,0.271-1.591-0.115-1.865-0.87l-7.974-21.91c7.143-3.6,10.641-12.073,7.839-19.773l-2.666-7.325
	c10.312-4.737,15.451-16.71,11.502-27.557L241.285,56.801c-1.417-3.892-5.722-5.897-9.613-4.483
	c-3.893,1.417-5.899,5.721-4.483,9.613l36.627,100.635c1.328,3.647-0.56,7.695-4.207,9.022l-5.348,1.947l-0.002,0.001
	c0,0-0.001,0.001-0.002,0.001l-59.176,21.538h-0.001h-0.001l-5.35,1.947c-3.647,1.326-7.696-0.561-9.022-4.207L128.684,49.884
	c-1.328-3.647,0.56-7.695,4.207-9.022l69.879-25.435c3.648-1.328,7.696,0.56,9.023,4.206l2.817,7.74
	c1.417,3.893,5.72,5.897,9.613,4.483c3.892-1.417,5.899-5.721,4.483-9.612l-2.817-7.741C221.733,3.083,209.058-2.826,197.64,1.33
	l-69.879,25.435c-11.419,4.156-17.33,16.829-13.173,28.249l52.023,142.933c3.254,8.939,11.727,14.504,20.733,14.503
	c1.921,0,3.867-0.259,5.791-0.787l2.667,7.326c2.365,6.498,8.524,10.541,15.07,10.541c1.209,0,2.43-0.152,3.644-0.438l7.975,21.913
	c0.17,0.468,0.067,0.863-0.049,1.113c-0.116,0.249-0.353,0.582-0.821,0.752l-21.977,7.998
	c-27.673,10.072-41.992,40.781-31.92,68.454l26.908,73.929c8.98,24.674,23.769,47.294,42.768,65.414
	c1.453,1.386,3.315,2.073,5.176,2.073c1.979,0,3.955-0.778,5.428-2.323c2.859-2.997,2.747-7.745-0.251-10.603
	c-17.336-16.536-30.83-37.176-39.024-59.691l-26.908-73.929c-7.243-19.9,3.054-41.983,22.955-49.228l14.903-5.424l6.06,16.651
	c5.369,14.751,17.557,26.197,32.61,30.635c0.032,0.01,0.064,0.02,0.097,0.029c2.16,0.632,4.349,0.938,6.508,0.938
	c7.532,0,14.707-3.717,19.056-10.252c8.706-13.082,10.695-29.709,5.321-44.478l-6.066-16.667l14.92-5.43
	c9.64-3.509,20.071-3.053,29.367,1.281c9.298,4.336,16.352,12.032,19.86,21.674l26.908,73.929
	c17.456,47.958,10.383,101.537-18.919,143.323c-8.93,12.733-25.026,18.592-40.051,14.576c-12.716-3.397-24.972-8.393-36.425-14.85
	c-3.608-2.035-8.183-0.758-10.216,2.851c-2.034,3.608-0.757,8.183,2.851,10.216c12.552,7.075,25.983,12.551,39.918,16.275
	c4.43,1.184,8.923,1.756,13.378,1.756c16.752,0,32.927-8.097,42.827-22.214C399.793,443.994,407.544,385.278,388.415,332.72z
	 M216.484,212.546c-0.003,0.001-0.006,0.001-0.008,0.003c-0.003,0.001-0.005,0.002-0.008,0.003l-5.263,1.915
	c-0.527,0.193-1.115-0.08-1.307-0.609l-2.639-7.251l45.084-16.409l2.639,7.25c0.192,0.528-0.081,1.114-0.609,1.307l-5.262,1.915
	c-0.003,0.001-0.006,0.002-0.009,0.003s-0.006,0.003-0.009,0.004L216.484,212.546z M271.522,299.231
	c-1.928,2.897-5.459,4.197-8.802,3.246c-0.023-0.007-0.047-0.015-0.071-0.021c-10.532-3.083-19.062-11.081-22.815-21.395
	l-6.675-18.341c1.16-1.248,2.138-2.674,2.879-4.263c1.857-3.984,2.053-8.453,0.549-12.583l-7.932-21.795l18.529-6.743l7.933,21.796
	c2.181,5.99,7.502,9.935,13.429,10.685l6.69,18.38C278.985,278.5,277.598,290.102,271.522,299.231z"/>
<g>
</g>
<g>
</g>
<g>
</g>
<g>
</g>
<g>
</g>
<g>
</g>
<g>
</g>
<g>
</g>
<g>
</g>
<g>
</g>
<g>
</g>
<g>
</g>
<g>
</g>
<g>
</g>
<g>
</g>
</svg>
