<?xml version="1.0" encoding="iso-8859-1"?>
<!-- Generator: Adobe Illustrator 19.0.0, SVG Export Plug-In . SVG Version: 6.00 Build 0)  -->
<svg version="1.1" id="Capa_1" xmlns="http://www.w3.org/2000/svg" xmlns:xlink="http://www.w3.org/1999/xlink" x="0px" y="0px"
	 viewBox="0 0 512.003 512.003" style="enable-background:new 0 0 512.003 512.003;" xml:space="preserve">
<path style="fill:#54B88B;" d="M278.629,423.887c-5.433-2.526-7.782-8.976-5.242-14.403c6.172-13.196,21.064-36.711,52.073-47.997
	c29.836-10.86,61.265-5.546,78.713-0.876c7.243,1.938,10.362,10.508,6.059,16.648c-10.364,14.793-31.025,39.066-60.861,49.924
	C318.363,438.469,291.84,430.028,278.629,423.887z"/>
<path style="opacity:0.1;enable-background:new    ;" d="M312.263,410.993c-3.064,0-5.94-1.892-7.049-4.937
	c-1.417-3.893,0.591-8.197,4.482-9.614l58.267-21.207c3.893-1.416,8.197,0.592,9.614,4.482c1.417,3.893-0.591,8.197-4.482,9.614
	l-58.267,21.207C313.981,410.847,313.115,410.993,312.263,410.993z"/>
<path style="fill:#54B88B;" d="M233.373,423.887c5.433-2.526,7.782-8.976,5.242-14.403c-6.172-13.196-21.064-36.711-52.073-47.997
	c-29.836-10.86-61.265-5.546-78.713-0.876c-7.243,1.938-10.362,10.508-6.059,16.648c10.365,14.793,31.025,39.066,60.861,49.924
	C193.639,438.469,220.162,430.028,233.373,423.887z"/>
<path style="opacity:0.1;enable-background:new    ;" d="M278.629,423.887c-5.433-2.526-7.782-8.976-5.242-14.403
	c6.172-13.196,21.064-36.711,52.073-47.997c29.836-10.86,61.265-5.546,78.713-0.876c7.243,1.938,10.362,10.508,6.059,16.648
	c-10.364,14.793-31.025,39.066-60.861,49.924C318.363,438.469,291.84,430.028,278.629,423.887z"/>
<path style="opacity:0.1;enable-background:new    ;" d="M233.373,423.887c5.433-2.526,7.782-8.976,5.242-14.403
	c-6.172-13.196-21.064-36.711-52.073-47.997c-29.836-10.86-61.265-5.546-78.713-0.876c-7.243,1.938-10.362,10.508-6.059,16.648
	c10.365,14.793,31.025,39.066,60.861,49.924C193.639,438.469,220.162,430.028,233.373,423.887z"/>
<path style="opacity:0.1;enable-background:new    ;" d="M199.74,410.993c-0.852,0-1.717-0.146-2.564-0.454l-58.267-21.207
	c-3.892-1.417-5.899-5.721-4.482-9.614c1.416-3.892,5.716-5.896,9.614-4.482l58.267,21.207c3.892,1.417,5.899,5.721,4.482,9.614
	C205.68,409.1,202.803,410.993,199.74,410.993z"/>
<path style="fill:#54B88B;" d="M282.821,230.21h-53.64v247.472c0,14.812,12.008,26.82,26.82,26.82l0,0
	c14.812,0,26.82-12.008,26.82-26.82V230.21z"/>
<path style="opacity:0.1;enable-background:new    ;" d="M229.181,230.21v124.742c15.496-7.356,26.82-23.032,26.82-42.299
	c0,19.267,11.323,34.943,26.82,42.299V230.21H229.181z"/>
<path style="fill:#FFA6BB;" d="M412.185,102.568c-12.761-30.807-52.733-38.758-76.311-15.179l-79.872,79.872l0,0h112.958
	C402.304,167.262,424.946,133.376,412.185,102.568L412.185,102.568z"/>
<path style="fill:#F985AC;" d="M256.001,54.304v112.958l79.872-79.872c23.579-23.579,15.628-63.55-15.179-76.311l0,0
	C289.888-1.683,256.001,20.959,256.001,54.304z"/>
<path style="fill:#93CFE9;" d="M256.001,167.262L256.001,167.262L256.001,167.262z"/>
<path style="fill:#FFA6BB;" d="M176.128,87.389l79.872,79.872V54.304c0-33.345-33.886-55.988-64.693-43.227l0,0
	C160.5,23.838,152.55,63.811,176.128,87.389z"/>
<path style="fill:#93CFE9;" d="M256.001,167.262L256.001,167.262L256.001,167.262z"/>
<path style="fill:#F985AC;" d="M368.958,167.262H256.001l79.872,79.872c23.579,23.579,63.55,15.628,76.311-15.179l0,0
	C424.946,201.148,402.304,167.262,368.958,167.262z"/>
<path style="fill:#FFA6BB;" d="M320.695,323.446c30.807-12.761,38.758-52.733,15.179-76.311l-79.872-79.872l0,0V280.22
	C256.001,313.564,289.888,336.206,320.695,323.446L320.695,323.446z"/>
<path style="fill:#F985AC;" d="M191.307,323.446c30.807,12.761,64.693-9.882,64.693-43.227V167.261l0,0l-79.872,79.872
	C152.55,270.713,160.5,310.686,191.307,323.446L191.307,323.446z"/>
<path style="fill:#FFA6BB;" d="M176.128,247.134l79.872-79.872H143.043c-33.345,0-55.988,33.886-43.227,64.693l0,0
	C112.578,262.762,152.55,270.713,176.128,247.134z"/>
<path style="fill:#F985AC;" d="M99.817,102.568c-12.761,30.807,9.882,64.693,43.227,64.693h112.958l0,0l-79.872-79.872
	C152.55,63.811,112.578,71.761,99.817,102.568L99.817,102.568z"/>
<circle style="fill:#FBDD56;" cx="255.999" cy="167.264" r="86.276"/>
<g>
	<ellipse style="fill:#FF6E6E;" cx="199.715" cy="181.305" rx="20.767" ry="16.538"/>
	<ellipse style="fill:#FF6E6E;" cx="312.283" cy="181.305" rx="20.767" ry="16.538"/>
</g>
<path style="opacity:0.05;enable-background:new    ;" d="M240.227,82.428c-40.116,7.413-70.502,42.573-70.502,84.833
	c0,47.649,38.628,86.277,86.277,86.277c7.909,0,15.565-1.07,22.841-3.062C151.684,222.41,201.288,107.839,240.227,82.428z"/>
<path d="M211.823,172.309c4.143,0,7.501-3.357,7.501-7.501v-7.333c0-4.143-3.357-7.501-7.501-7.501
	c-4.143,0-7.501,3.357-7.501,7.501v7.334C204.322,168.952,207.679,172.309,211.823,172.309z M300.18,172.309
	c4.143,0,7.501-3.357,7.501-7.501v-7.333c0-4.143-3.357-7.501-7.501-7.501c-4.143,0-7.5,3.357-7.5,7.501v7.334
	C292.679,168.952,296.037,172.309,300.18,172.309z M406.113,353.365c-17.274-4.623-51.055-10.631-83.219,1.073
	c-12.294,4.475-23.185,11.045-32.572,19.593v-40.97c4.082,0.965,8.259,1.46,12.45,1.46c7.026-0.001,14.092-1.369,20.793-4.146
	c16.787-6.952,28.925-21.743,32.47-39.565c1.623-8.158,1.318-16.412-0.7-24.204c4.411,1.143,8.971,1.739,13.58,1.739
	c3.532,0,7.094-0.346,10.635-1.05c17.821-3.545,32.612-15.684,39.566-32.471c6.953-16.787,5.078-35.828-5.016-50.936
	c-4.624-6.92-10.682-12.543-17.623-16.627c6.941-4.083,12.999-9.707,17.622-16.627c10.096-15.108,11.971-34.149,5.017-50.937
	c-6.952-16.787-21.743-28.925-39.566-32.47c-8.163-1.624-16.422-1.317-24.218,0.703c2.02-7.797,2.327-16.055,0.704-24.218
	c-3.545-17.821-15.683-32.612-32.47-39.566c-16.787-6.953-35.828-5.079-50.937,5.017c-6.919,4.623-12.543,10.681-16.627,17.622
	c-4.084-6.941-9.708-12.999-16.627-17.622c-15.108-10.096-34.149-11.972-50.937-5.017c-16.787,6.952-28.925,21.743-32.47,39.566
	c-1.62,8.145-1.319,16.386,0.69,24.168c-1.835-0.471-3.699-0.856-5.594-1.135c-4.09-0.598-7.909,2.231-8.511,6.332
	c-0.601,4.098,2.233,7.909,6.332,8.511c8.309,1.219,15.896,5.059,21.939,11.105l13.807,13.807
	c-12.443,14.593-20.499,33.032-22.109,53.261h-19.479c-13.346,0-25.253-6.364-32.667-17.461
	c-7.415-11.097-8.738-24.532-3.631-36.861c2.736-6.604,7.146-12.301,12.752-16.471c3.323-2.473,4.014-7.171,1.541-10.495
	c-2.474-3.323-7.172-4.013-10.495-1.541c-7.779,5.786-13.884,13.659-17.656,22.766c-6.953,16.787-5.078,35.828,5.017,50.937
	c4.623,6.919,10.681,12.543,17.622,16.627c-6.941,4.083-12.999,9.707-17.622,16.627c-10.096,15.107-11.971,34.149-5.017,50.937
	c6.952,16.787,21.743,28.925,39.566,32.47c3.541,0.704,7.1,1.05,10.635,1.05c4.608,0,9.168-0.597,13.58-1.74
	c-2.017,7.792-2.323,16.046-0.7,24.204c3.545,17.82,15.683,32.611,32.47,39.565c6.702,2.776,13.766,4.146,20.793,4.146
	c4.191,0,8.369-0.495,12.451-1.46v40.972c-9.388-8.549-20.279-15.119-32.573-19.594c-32.162-11.706-65.944-5.697-83.219-1.073
	c-5.764,1.543-10.425,5.815-12.468,11.43c-2.043,5.613-1.219,11.882,2.205,16.768c10.262,14.646,32.278,40.964,64.439,52.669
	c11.997,4.366,23.362,6.037,33.733,6.036c10.423,0,19.839-1.689,27.882-4.024v41.439c0,18.924,15.396,34.32,34.319,34.32
	c18.923,0,34.32-15.396,34.32-34.32v-41.438c8.043,2.335,17.457,4.024,27.881,4.024c10.371,0,21.738-1.671,33.733-6.036
	c11.713-4.264,23.084-10.816,33.795-19.475c3.222-2.604,3.722-7.327,1.118-10.549c-2.604-3.222-7.326-3.72-10.549-1.118
	c-9.421,7.616-19.344,13.351-29.496,17.045c-22.544,8.208-42.504,5.179-56.483,0.376V396.1c9.866-12.77,22.534-22.042,37.704-27.564
	c28.294-10.299,58.639-4.848,74.208-0.679c1.443,0.387,2.029,1.462,2.25,2.068c0.221,0.607,0.463,1.807-0.395,3.03
	c-2.54,3.626-5.267,7.189-8.104,10.592c-2.652,3.182-2.224,7.912,0.958,10.565c3.182,2.652,7.912,2.224,10.565-0.958
	c3.103-3.723,6.086-7.622,8.867-11.59c3.424-4.887,4.248-11.155,2.205-16.768C416.538,359.18,411.877,354.908,406.113,353.365z
	 M221.681,420.51c-13.979,4.803-33.94,7.831-56.484-0.375c-28.296-10.298-48.035-33.98-57.284-47.18
	c-0.857-1.224-0.615-2.424-0.395-3.03c0.221-0.606,0.807-1.682,2.25-2.068c15.567-4.167,45.912-9.62,74.208,0.679
	c15.17,5.521,27.839,14.795,37.705,27.565L221.681,420.51L221.681,420.51z M401.626,192.223c7.415,11.097,8.738,24.533,3.631,36.863
	c-5.107,12.33-15.544,20.894-28.633,23.498c-13.091,2.607-26.01-1.314-35.445-10.753l-13.808-13.808
	c12.443-14.593,20.5-33.031,22.109-53.261h19.479C382.303,174.762,394.211,181.126,401.626,192.223z M376.624,81.941
	c13.089,2.603,23.525,11.168,28.633,23.498c5.107,12.33,3.783,25.766-3.631,36.862c-7.415,11.097-19.321,17.461-32.667,17.461
	h-19.479c-1.608-20.228-9.666-38.668-22.109-53.261l13.807-13.807C350.615,83.255,363.536,79.335,376.624,81.941z M263.501,54.305
	c0-13.346,6.364-25.253,17.461-32.667c11.096-7.414,24.533-8.736,36.862-3.631c12.33,5.107,20.894,15.544,23.498,28.633
	c2.603,13.09-1.315,26.01-10.753,35.445l-13.806,13.808c-14.593-12.443-33.031-20.499-53.261-22.109V54.305H263.501z
	 M181.433,82.085c-9.438-9.436-13.356-22.356-10.753-35.445c2.604-13.089,11.168-23.525,23.498-28.633
	c12.329-5.107,25.767-3.784,36.862,3.631c11.098,7.415,17.461,19.32,17.461,32.666l0,0l0,0v19.479
	c-20.229,1.608-38.668,9.666-53.261,22.109L181.433,82.085z M256.001,88.486c43.438,0,78.776,35.339,78.776,78.776
	s-35.339,78.776-78.776,78.776s-78.776-35.338-78.776-78.776S212.564,88.486,256.001,88.486z M135.378,252.584
	c-13.089-2.604-23.525-11.169-28.633-23.499c-5.107-12.33-3.783-25.766,3.631-36.861c7.415-11.097,19.32-17.461,32.667-17.461
	h19.479c1.608,20.229,9.666,38.668,22.109,53.261l-13.808,13.808C161.387,251.268,148.468,255.183,135.378,252.584z
	 M231.039,312.885c-1.51,1.009-3.066,1.895-4.653,2.677c-0.278,0.112-0.549,0.236-0.809,0.379
	c-9.884,4.598-21.03,4.869-31.399,0.575c-12.33-5.107-20.894-15.544-23.498-28.633c-2.604-13.089,1.315-26.009,10.753-35.444
	l13.808-13.808c14.593,12.442,33.031,20.499,53.261,22.108v19.48C248.5,293.565,242.137,305.47,231.039,312.885z M275.321,425.747
	c0,0.034-0.001,0.069,0,0.103v51.833c0,10.653-8.667,19.319-19.319,19.319c-10.652,0-19.318-8.667-19.318-19.319v-51.848
	c0-0.02,0-0.04,0-0.06v-98.74c0.909-0.534,1.809-1.087,2.691-1.677c6.919-4.623,12.543-10.681,16.627-17.622
	c4.084,6.941,9.707,12.999,16.627,17.622c0.883,0.59,1.784,1.144,2.692,1.678V425.747z M286.43,315.944
	c-0.263-0.145-0.536-0.27-0.817-0.383c-1.586-0.782-3.141-1.667-4.65-2.675c-11.098-7.415-17.461-19.32-17.461-32.666v-19.48
	c20.228-1.608,38.668-9.666,53.261-22.108l13.808,13.808c9.438,9.437,13.356,22.356,10.753,35.444
	c-2.604,13.089-11.168,23.525-23.498,28.633C307.457,320.81,296.312,320.54,286.43,315.944z M256.001,177.941
	c6.631,0,12.938-2.871,17.301-7.879c2.722-3.122,2.398-7.86-0.726-10.582c-3.121-2.723-7.861-2.398-10.582,0.725
	c-1.515,1.737-3.699,2.733-5.993,2.733c-2.294,0-4.479-0.996-5.993-2.733c-2.721-3.122-7.461-3.449-10.582-0.725
	c-3.123,2.722-3.447,7.46-0.726,10.582C243.064,175.069,249.37,177.941,256.001,177.941z"/>
<g>
</g>
<g>
</g>
<g>
</g>
<g>
</g>
<g>
</g>
<g>
</g>
<g>
</g>
<g>
</g>
<g>
</g>
<g>
</g>
<g>
</g>
<g>
</g>
<g>
</g>
<g>
</g>
<g>
</g>
</svg>
