<?xml version="1.0" encoding="iso-8859-1"?>
<!-- Generator: Adobe Illustrator 19.0.0, SVG Export Plug-In . SVG Version: 6.00 Build 0)  -->
<svg version="1.1" id="Capa_1" xmlns="http://www.w3.org/2000/svg" xmlns:xlink="http://www.w3.org/1999/xlink" x="0px" y="0px"
	 viewBox="0 0 512 512" style="enable-background:new 0 0 512 512;" xml:space="preserve">
<path style="fill:#68B894;" d="M409.532,355.973c4.424,1.869,6.331,7.109,4.144,11.385c-7.453,14.567-26.415,45.528-57.553,56.861
	s-65.565-0.196-80.638-6.564c-4.424-1.869-6.331-7.109-4.144-11.385c7.453-14.567,26.415-45.528,57.553-56.862
	C360.032,338.075,394.459,349.604,409.532,355.973z"/>
<path style="opacity:0.1;enable-background:new    ;" d="M409.532,355.973c4.424,1.869,6.331,7.109,4.144,11.385
	c-7.453,14.567-26.415,45.528-57.553,56.861s-65.565-0.196-80.638-6.564c-4.424-1.869-6.331-7.109-4.144-11.385
	c7.453-14.567,26.415-45.528,57.553-56.862C360.032,338.075,394.459,349.604,409.532,355.973z"/>
<path style="opacity:0.1;enable-background:new    ;" d="M308.075,406.849c-3.063,0-5.939-1.891-7.048-4.937
	c-1.417-3.892,0.59-8.196,4.482-9.613l67.839-24.691c3.892-1.417,8.196,0.59,9.613,4.483c1.417,3.892-0.59,8.196-4.483,9.613
	l-67.838,24.691C309.793,406.703,308.926,406.849,308.075,406.849z"/>
<path style="fill:#68B894;" d="M102.47,313.783c-4.424,1.869-6.331,7.109-4.144,11.384c7.453,14.567,26.415,45.528,57.553,56.862
	c31.138,11.333,65.565-0.196,80.638-6.564c4.424-1.869,6.331-7.109,4.144-11.384c-7.453-14.568-26.415-45.528-57.553-56.862
	S117.543,307.414,102.47,313.783z"/>
<path style="opacity:0.1;enable-background:new    ;" d="M102.47,313.783c-4.424,1.869-6.331,7.109-4.144,11.384
	c7.453,14.567,26.415,45.528,57.553,56.862c31.138,11.333,65.565-0.196,80.638-6.564c4.424-1.869,6.331-7.109,4.144-11.384
	c-7.453-14.568-26.415-45.528-57.553-56.862S117.543,307.414,102.47,313.783z"/>
<path style="opacity:0.1;enable-background:new    ;" d="M203.927,364.659c-0.852,0-1.718-0.146-2.564-0.454l-67.838-24.691
	c-3.893-1.417-5.899-5.721-4.483-9.613c1.417-3.893,5.723-5.898,9.613-4.483l67.838,24.691c3.893,1.417,5.899,5.721,4.483,9.613
	C209.867,362.767,206.99,364.659,203.927,364.659z"/>
<path style="fill:#54B88B;" d="M279.696,246.372h-47.39v234.433c0,13.086,10.609,23.695,23.695,23.695l0,0
	c13.087,0,23.695-10.609,23.695-23.695V246.372z"/>
<path style="fill:#F985AC;" d="M255.749,194.034c38.408,0.148,68.494-32.531,67.364-70.923
	c-1.379-46.828-28.146-85.14-47.45-106.826c-10.505-11.803-28.931-11.669-39.426,0.142c-19.81,22.292-47.378,62.017-47.378,110.453
	C188.858,163.88,218.782,193.891,255.749,194.034z"/>
<path style="opacity:0.1;enable-background:new    ;" d="M232.306,246.372v44.059c7.711,1.286,15.625,1.966,23.696,1.966
	c8.07,0,15.984-0.68,23.695-1.966v-44.059L232.306,246.372L232.306,246.372z"/>
<path style="fill:#FFA6BB;" d="M390.792,55.659L390.792,55.659c-48.19,11.232-91.302,38.109-122.601,76.434l0,0
	c-7.884,9.653-12.19,21.734-12.19,34.197c0-12.463-4.306-24.544-12.19-34.197C212.512,93.768,169.4,66.891,121.21,55.659l0,0
	c-9.837-2.293-17.313,8.762-11.522,17.037l0,0c14.419,20.608,22.152,45.15,22.152,70.301c0,68.572,55.589,124.161,124.161,124.161
	l0,0c68.572,0,124.161-55.589,124.161-124.161c0-25.151,7.734-49.694,22.152-70.301l0,0
	C408.105,64.42,400.629,53.366,390.792,55.659z"/>
<g>
	<ellipse style="fill:#FF6E6E;" cx="200.651" cy="214.84" rx="20.423" ry="16.264"/>
	<ellipse style="fill:#FF6E6E;" cx="311.351" cy="214.84" rx="20.423" ry="16.264"/>
</g>
<path style="opacity:0.1;enable-background:new    ;" d="M150.62,64.694c-9.543-3.663-19.364-6.694-29.41-9.035l0,0
	c-9.837-2.293-17.313,8.762-11.522,17.038l0,0c14.419,20.607,22.152,45.15,22.152,70.301c0,68.572,55.589,124.161,124.161,124.161
	l0,0c24.262,0,46.894-6.966,66.018-18.996C155.79,275.72,183.609,109.068,150.62,64.694z"/>
<path d="M205.055,191.405v7.212c0,4.142,3.358,7.5,7.5,7.5s7.5-3.358,7.5-7.5v-7.212c0-4.142-3.358-7.5-7.5-7.5
	S205.055,187.263,205.055,191.405z M421.131,358.196c-1.494-4.104-4.658-7.433-8.68-9.132c-18.067-7.634-53.283-18.655-86.122-6.704
	c-16.144,5.876-29.159,16.522-39.133,27.549v-99.038c24.681-6.051,47.417-19.168,65.002-37.98c2.829-3.026,2.668-7.771-0.357-10.601
	c-3.025-2.828-7.771-2.668-10.601,0.357c-21.988,23.521-53.057,37.011-85.24,37.011c-64.327,0-116.661-52.334-116.661-116.661
	c0-26.826-8.128-52.622-23.507-74.601c-1.25-1.787-0.438-3.379-0.032-3.981c0.407-0.602,1.582-1.949,3.706-1.453
	C165.831,73.759,207.913,99.994,238,136.835c6.77,8.29,10.499,18.75,10.499,29.453c0,4.142,3.358,7.5,7.5,7.5
	c4.142,0,7.5-3.358,7.5-7.5c0-10.703,3.728-21.163,10.499-29.453c30.087-36.841,72.17-63.077,118.495-73.873
	c2.125-0.494,3.299,0.851,3.706,1.453c0.407,0.602,1.219,2.194-0.031,3.98c-15.379,21.979-23.507,47.776-23.507,74.601
	c0,18.362-4.142,35.931-12.31,52.219c-1.857,3.703-0.361,8.21,3.342,10.066c3.702,1.856,8.21,0.36,10.066-3.342
	c9.224-18.394,13.901-38.225,13.901-58.943c0-23.733,7.191-46.556,20.797-66.002c4.435-6.339,4.5-14.575,0.167-20.983
	c-4.333-6.407-11.999-9.414-19.537-7.658c-23.988,5.591-46.907,15.064-67.826,27.811c-10.291-27.862-27.09-50.368-39.998-64.869
	C274.874,4.117,265.693,0,256.073,0h-0.014c-9.7,0.004-18.969,4.176-25.429,11.445c-12.867,14.48-29.613,36.944-39.876,64.731
	c-20.924-12.752-43.848-22.228-67.842-27.82c-7.536-1.759-15.203,1.25-19.537,7.658c-4.333,6.408-4.268,14.645,0.167,20.983
	c13.605,19.445,20.797,42.269,20.797,66.002c0,61.853,42.877,113.871,100.466,127.917v56.805
	c-9.974-11.027-22.989-21.673-39.133-27.549c-32.841-11.953-68.055-0.931-86.122,6.703c-4.022,1.699-7.187,5.028-8.681,9.133
	s-1.211,8.689,0.778,12.577c8.934,17.462,28.825,48.54,61.665,60.493c10.367,3.773,21.017,5.216,31.251,5.216
	c15.085-0.001,29.251-3.138,40.241-6.57v46.367c0,4.142,3.358,7.5,7.5,7.5s7.5-3.358,7.5-7.5v-84.257c0-0.002,0-0.004,0-0.005
	v-76.165c5.309,0.654,10.713,0.997,16.195,0.997c5.437,0,10.844-0.348,16.195-1.017v118.361c0,0.009,0,0.018,0,0.028v88.774
	c0,8.93-7.265,16.195-16.195,16.195c-8.93,0-16.195-7.265-16.195-16.195v-7.704c0-4.142-3.358-7.5-7.5-7.5s-7.5,3.358-7.5,7.5v7.704
	C224.806,498.006,238.8,512,256.001,512s31.195-13.994,31.195-31.195v-50.892c10.989,3.432,25.153,6.57,40.24,6.57
	c10.233,0,20.886-1.443,31.251-5.216c32.839-11.953,52.73-43.032,61.665-60.494C422.341,366.885,422.625,362.301,421.131,358.196z
	 M241.843,21.409c3.618-4.07,8.801-6.406,14.223-6.409h0.008c5.42,0,10.388,2.227,13.988,6.271
	c12.525,14.071,28.967,36.182,38.29,63.356c-17.128,12.055-32.65,26.413-45.97,42.722c-2.429,2.975-4.562,6.161-6.381,9.507
	c-1.818-3.346-3.952-6.533-6.381-9.507c-13.315-16.304-28.833-30.659-45.955-42.712C212.963,57.535,229.356,35.462,241.843,21.409z
	 M224.806,371.933c-16.131,5.619-42.547,11.717-66.362,3.048c-29.066-10.579-47.056-40.749-53.441-53.229
	c-0.101-0.197-0.113-0.404-0.037-0.614c0.076-0.21,0.218-0.36,0.423-0.446c12.913-5.456,46.086-17.006,75.154-6.425
	c20.275,7.379,35.092,24.22,44.263,37.743V371.933z M406.999,363.941c-6.385,12.48-24.375,42.65-53.441,53.23
	c-23.816,8.668-50.23,2.57-66.361-3.048v-19.924c9.172-13.524,23.988-30.364,44.263-37.743c29.069-10.58,62.241,0.969,75.154,6.425
	c0.204,0.087,0.346,0.236,0.422,0.446C407.112,363.538,407.1,363.744,406.999,363.941z M291.947,191.405v7.212
	c0,4.142,3.358,7.5,7.5,7.5s7.5-3.358,7.5-7.5v-7.212c0-4.142-3.358-7.5-7.5-7.5S291.947,187.263,291.947,191.405z M272.383,193.283
	c-3.123-2.721-7.861-2.396-10.582,0.727c-1.465,1.682-3.58,2.646-5.8,2.646c-2.221,0-4.335-0.964-5.8-2.646
	c-2.722-3.123-7.459-3.447-10.582-0.727c-3.123,2.722-3.448,7.459-0.727,10.582c4.315,4.951,10.551,7.791,17.109,7.791
	c6.558,0,12.794-2.839,17.109-7.791C275.831,200.742,275.506,196.004,272.383,193.283z"/>
<g>
</g>
<g>
</g>
<g>
</g>
<g>
</g>
<g>
</g>
<g>
</g>
<g>
</g>
<g>
</g>
<g>
</g>
<g>
</g>
<g>
</g>
<g>
</g>
<g>
</g>
<g>
</g>
<g>
</g>
</svg>
