<?xml version="1.0" encoding="iso-8859-1"?>
<!-- Generator: Adobe Illustrator 19.0.0, SVG Export Plug-In . SVG Version: 6.00 Build 0)  -->
<svg version="1.1" id="Capa_1" xmlns="http://www.w3.org/2000/svg" xmlns:xlink="http://www.w3.org/1999/xlink" x="0px" y="0px"
	 viewBox="0 0 512.001 512.001" style="enable-background:new 0 0 512.001 512.001;" xml:space="preserve">
<path style="fill:#83CDAB;" d="M373.882,314.35c6.943-0.343,12.651,5.366,12.308,12.308c-1.003,20.314-6.506,61.054-33.312,87.86
	c-26.806,26.806-67.546,32.309-87.86,33.312c-6.943,0.343-12.651-5.366-12.308-12.308c1.003-20.314,6.506-61.054,33.312-87.86
	C312.828,320.857,353.568,315.353,373.882,314.35z"/>
<path style="opacity:0.12;enable-background:new    ;" d="M373.882,314.35c6.943-0.343,12.651,5.366,12.308,12.308
	c-1.003,20.314-6.506,61.054-33.312,87.86c-26.806,26.806-67.546,32.309-87.86,33.312c-6.943,0.343-12.651-5.366-12.308-12.308
	c1.003-20.314,6.506-61.054,33.312-87.86C312.828,320.857,353.568,315.353,373.882,314.35z"/>
<path style="opacity:0.15;enable-background:new    ;" d="M303.856,404.184c-1.92,0-3.839-0.732-5.303-2.197
	c-2.929-2.929-2.929-7.677,0-10.606l31.189-31.189c2.929-2.929,7.677-2.929,10.606,0c2.929,2.929,2.929,7.677,0,10.606
	l-31.189,31.189C307.695,403.452,305.776,404.184,303.856,404.184z"/>
<path style="opacity:0.12;enable-background:new    ;" d="M286.023,347.662c-26.806,26.806-32.309,67.545-33.312,87.859
	c-0.343,6.943,5.366,12.651,12.308,12.308c7.307-0.361,17.263-1.312,28.257-3.619V341.183
	C290.771,343.194,288.342,345.343,286.023,347.662z"/>
<path style="fill:#83CDAB;" d="M138.115,275.548c-6.943-0.343-12.651,5.366-12.308,12.308c1.003,20.314,6.506,61.054,33.312,87.86
	s67.545,32.309,87.859,33.312c6.943,0.343,12.651-5.366,12.308-12.308c-1.003-20.314-6.506-61.054-33.312-87.86
	C199.169,282.053,158.429,276.551,138.115,275.548z"/>
<path style="opacity:0.12;enable-background:new    ;" d="M138.115,275.548c-6.943-0.343-12.651,5.366-12.308,12.308
	c1.003,20.314,6.506,61.054,33.312,87.86s67.545,32.309,87.859,33.312c6.943,0.343,12.651-5.366,12.308-12.308
	c-1.003-20.314-6.506-61.054-33.312-87.86C199.169,282.053,158.429,276.551,138.115,275.548z"/>
<path style="opacity:0.15;enable-background:new    ;" d="M208.142,365.382c-1.919,0-3.839-0.732-5.303-2.197l-31.189-31.189
	c-2.929-2.929-2.929-7.677,0-10.605c2.929-2.929,7.677-2.929,10.605,0l31.189,31.189c2.929,2.929,2.929,7.677,0,10.605
	C211.98,364.649,210.061,365.382,208.142,365.382z"/>
<path style="opacity:0.12;enable-background:new    ;" d="M225.975,308.859c-2.319-2.319-4.748-4.469-7.253-6.48v103.028
	c10.994,2.308,20.951,3.259,28.257,3.619c6.943,0.343,12.651-5.366,12.308-12.308C258.284,376.405,252.781,335.666,225.975,308.859z
	"/>
<path style="fill:#ED6EA4;" d="M353.723,25.942c-0.352-6.836-4.838-12.815-11.38-14.828c-38.233-11.761-80.253,6.171-97.638,43.452
	c-19.005,40.755-1.372,89.199,39.383,108.203C284.088,162.77,359.144,131.209,353.723,25.942z"/>
<path style="opacity:0.12;enable-background:new    ;" d="M353.723,25.942c-0.352-6.836-4.838-12.815-11.38-14.828
	c-38.233-11.761-80.253,6.171-97.638,43.452c-19.005,40.755-1.372,89.199,39.383,108.203
	C284.088,162.77,359.144,131.209,353.723,25.942z"/>
<path style="opacity:0.12;enable-background:new    ;" d="M353.723,25.942c-0.352-6.836-4.838-12.815-11.38-14.828
	c-10.249-3.153-20.77-4.153-31.016-3.237c5.55,0.497,11.105,1.552,16.583,3.237c6.543,2.013,11.028,7.992,11.38,14.828
	c4.378,85.023-43.736,121.956-62.407,133.02c2.314,1.372,4.715,2.647,7.204,3.808C284.088,162.77,359.144,131.208,353.723,25.942z"
	/>
<g>
	<path style="fill:#ED6EA4;" d="M158.275,25.942c0.352-6.836,4.838-12.815,11.38-14.828c38.233-11.761,80.253,6.171,97.638,43.452
		c19.005,40.755,1.372,89.199-39.383,108.203C227.909,162.77,152.854,131.209,158.275,25.942z"/>
	<path style="fill:#ED6EA4;" d="M259.945,238.028h-24.437c-63.092,0-114.237-51.145-114.237-114.237V91.275
		c0-7.757,6.289-14.046,14.046-14.046h62.389c46.594,0,84.365,37.771,84.365,84.365v54.31
		C282.069,228.123,272.164,238.028,259.945,238.028z"/>
</g>
<path style="opacity:0.12;enable-background:new    ;" d="M259.945,238.028h-24.437c-63.092,0-114.237-51.145-114.237-114.237
	V91.275c0-7.757,6.289-14.046,14.046-14.046h62.389c46.594,0,84.365,37.771,84.365,84.365v54.31
	C282.069,228.123,272.164,238.028,259.945,238.028z"/>
<path style="fill:#ED6EA4;" d="M252.053,238.028h24.438c63.092,0,114.237-51.145,114.237-114.237V91.275
	c0-7.757-6.289-14.046-14.046-14.046h-62.389c-46.594,0-84.365,37.771-84.365,84.365v54.31
	C229.929,228.123,239.834,238.028,252.053,238.028z"/>
<path style="opacity:0.12;enable-background:new    ;" d="M376.683,77.229h-22.388c7.757,0,14.046,6.289,14.046,14.046v32.517
	c0,63.092-51.145,114.237-114.237,114.237h22.388c63.092,0,114.237-51.146,114.237-114.237V91.275
	C390.729,83.517,384.44,77.229,376.683,77.229z"/>
<path style="fill:#83CDAB;" d="M277.474,238.028h-42.95v251.103c0,8.487,6.881,15.369,15.369,15.369h12.212
	c8.487,0,15.369-6.881,15.369-15.369V238.028z"/>
<rect x="234.523" y="238.023" style="opacity:0.12;enable-background:new    ;" width="42.95" height="23.973"/>
<path d="M376.683,69.729h-18.041c2.503-13.887,3.368-28.701,2.572-44.173c-0.516-10.018-7.212-18.703-16.665-21.61
	C313-5.76,279.152,2.795,256.026,25.704c-6.094-6.019-13.072-11.16-20.82-15.268c-3.661-1.94-8.198-0.546-10.139,3.113
	c-1.94,3.66-0.546,8.198,3.113,10.139c8.44,4.475,15.784,10.425,21.802,17.568c0.195,0.263,0.403,0.518,0.636,0.757
	c3.895,4.752,7.216,10.012,9.877,15.721c3.714,7.965,5.939,16.371,6.66,25.04c-3.911,2.348-7.635,4.976-11.141,7.86
	c-16.41-13.514-36.855-20.907-58.309-20.907H168.62c-2.684-13.507-3.645-28.077-2.855-43.402c0.193-3.75,2.643-6.983,6.095-8.045
	c10.487-3.226,21.319-4.061,32.196-2.48c4.102,0.6,7.904-2.244,8.5-6.343c0.596-4.099-2.244-7.904-6.343-8.5
	c-13.092-1.904-26.134-0.899-38.762,2.987c-9.452,2.908-16.149,11.592-16.664,21.61c-0.797,15.471,0.069,30.285,2.571,44.173
	h-18.041c-11.88,0-21.545,9.665-21.545,21.545v32.518c0,64.273,50.071,117.066,113.254,121.436v54.351
	c-28.112-24.888-67.13-30.464-88.539-31.521c-5.421-0.267-10.725,1.777-14.559,5.61c-3.833,3.833-5.877,9.139-5.61,14.559
	c0.732,14.827,4.024,43.494,17.842,68.893c1.36,2.5,3.936,3.917,6.595,3.917c1.21,0,2.439-0.294,3.577-0.913
	c3.639-1.979,4.983-6.534,3.004-10.171c-12.394-22.782-15.368-48.916-16.037-62.466c-0.081-1.641,0.739-2.717,1.235-3.213
	c0.496-0.496,1.573-1.313,3.214-1.235c47.412,2.341,72.306,20.506,82.926,31.124c2.197,2.197,4.324,4.612,6.353,7.183v77.997
	c-19.495-3.247-43.585-10.724-61.324-27.682c-2.995-2.862-7.74-2.756-10.603,0.239c-2.862,2.994-2.755,7.741,0.239,10.603
	c21.197,20.264,49.569,28.642,71.688,32.03v74.599c0,12.609,10.258,22.868,22.868,22.868h12.213
	c12.609,0,22.868-10.258,22.868-22.868v-35.796c22.763-3.485,51.898-12.206,73.208-33.515
	c28.298-28.299,34.388-70.284,35.499-92.792c0.268-5.42-1.777-10.726-5.609-14.558c-3.833-3.833-9.151-5.884-14.559-5.61
	c-21.409,1.057-60.427,6.633-88.539,31.521v-93.173c50.848-3.572,94.873-38.95,108.755-88.519c1.117-3.988-1.211-8.127-5.2-9.244
	c-3.989-1.117-8.126,1.211-9.244,5.2c-12.843,45.858-55.114,77.886-102.795,77.886h-24.438c-8.064,0-14.625-6.561-14.625-14.625
	v-54.31c0-42.384,34.482-76.866,76.866-76.866h35.089c0.011,0,0.022,0.002,0.033,0.002c0.008,0,0.015-0.002,0.023-0.002h27.244
	c3.61,0,6.547,2.937,6.547,6.547v32.517c0,4.142,3.358,7.499,7.499,7.499c4.142,0,7.499-3.358,7.499-7.499V91.275
	C398.228,79.395,388.563,69.729,376.683,69.729z M284.973,360.149c2.029-2.573,4.155-4.987,6.353-7.184
	c24.739-24.74,62.575-30.12,82.926-31.124c1.641-0.079,2.718,0.739,3.214,1.235c0.496,0.496,1.316,1.573,1.235,3.213
	c-1.005,20.351-6.385,58.186-31.124,82.926c-17.818,17.817-42.552,25.595-62.602,28.933v-78H284.973z M242.023,245.528h27.951
	v243.604c0,4.339-3.53,7.869-7.869,7.869h-12.213c-4.339,0-7.869-3.53-7.869-7.869V245.528H242.023z M222.429,161.593v54.31
	c0,5.144,1.32,9.983,3.635,14.203c-54.448-4.796-97.295-50.642-97.295-106.316V91.275c0-3.61,2.937-6.547,6.547-6.547h27.244
	c0.008,0,0.015,0.002,0.023,0.002c0.011,0,0.022-0.002,0.033-0.002h35.089c17.38,0,33.98,5.782,47.48,16.413
	C231.024,117.308,222.429,138.464,222.429,161.593z M343.378,69.729h-29.085c-11.568,0-22.64,2.155-32.846,6.076
	c-1.254-8.413-3.712-16.588-7.358-24.408c-2.354-5.048-5.146-9.797-8.313-14.236c19.236-19.638,47.785-27.052,74.363-18.878
	c3.453,1.062,5.902,4.296,6.095,8.045C347.024,41.652,346.063,56.222,343.378,69.729z"/>
<g>
</g>
<g>
</g>
<g>
</g>
<g>
</g>
<g>
</g>
<g>
</g>
<g>
</g>
<g>
</g>
<g>
</g>
<g>
</g>
<g>
</g>
<g>
</g>
<g>
</g>
<g>
</g>
<g>
</g>
</svg>
