<svg height="511pt" viewBox="-70 1 511 511.999" width="511pt" xmlns="http://www.w3.org/2000/svg"><path d="m125.867188 356.226562c19.320312 19.320313 44.785156 25.179688 56.878906 13.089844 12.089844-12.089844 6.230468-37.558594-13.09375-56.878906-19.320313-19.320312-44.785156-25.183594-56.878906-13.089844-12.089844 12.089844-6.230469 37.558594 13.09375 56.878906zm0 0" fill="#9ad880"/><path d="m149.589844 298.046875c-7.226563 11.242187-17.734375 32.230469-19.988282 61.6875 18.753907 16.484375 41.8125 20.90625 53.140626 9.582031 12.089843-12.09375 6.230468-37.558594-13.089844-56.878906-6.265625-6.261719-13.171875-11.109375-20.0625-14.390625zm0 0" fill="#8dc971"/><path d="m268.914062 433.480469-29.027343-20.839844c-8.644531-6.207031-20.285157-6.207031-28.929688 0l-29.027343 20.839844-29.015626-20.835938c-8.648437-6.207031-20.289062-6.207031-28.933593 0l-29.015625 20.835938-29.015625-20.835938c-8.648438-6.207031-20.289063-6.207031-28.9375 0 0 0-29.015625 21.230469-29.015625 44.917969s9.683594 46.9375 46.941406 46.9375h213.976562zm0 0" fill="#9ad880"/><path d="m210.957031 412.640625-29.027343 20.839844-29.015626-20.835938c-8.648437-6.207031-20.289062-6.207031-28.9375 0l-6.480468 4.65625c-4.425782 18.6875-7.695313 47.472657-2.660156 87.199219h154.074218v-71.019531l-29.023437-20.839844c-8.644531-6.207031-20.285157-6.207031-28.929688 0zm0 0" fill="#8dc971"/><path d="m230.183594 504.5h-30.476563c-16.832031 0-30.480469-13.644531-30.480469-30.480469v-254.960937h60.960938v285.441406zm0 0" fill="#b2e59c"/><path d="m110.222656 65.699219c43.914063 0 79.519532 35.601562 79.519532 79.519531s-35.605469 79.519531-79.519532 79.519531c-43.917968 0-48.234375-35.601562-48.234375-79.519531s4.316407-79.519531 48.234375-79.519531zm0 0" fill="#ffc7de"/><path d="m189.742188 145.21875c0-32.355469-19.3125-60.191406-47.046876-72.609375-21.484374 16.902344-35.300781 43.152344-35.300781 72.609375s13.816407 55.707031 35.300781 72.605469c27.734376-12.417969 47.046876-40.253907 47.046876-72.605469zm0 0" fill="#ffb0d0"/><path d="m289.191406 65.699219c-43.917968 0-79.519531 35.601562-79.519531 79.519531s35.601563 79.519531 79.519531 79.519531c43.917969 0 48.230469-35.601562 48.230469-79.519531s-4.3125-79.519531-48.230469-79.519531zm0 0" fill="#ffc7de"/><path d="m209.671875 145.21875c0 32.351562 19.3125 60.1875 47.042969 72.605469 21.484375-16.898438 35.300781-43.148438 35.300781-72.605469s-13.816406-55.707031-35.300781-72.609375c-27.730469 12.417969-47.042969 40.253906-47.042969 72.609375zm0 0" fill="#ffb0d0"/><path d="m279.226562 55.734375c0 43.914063-35.601562 79.519531-79.519531 79.519531s-79.519531-35.605468-79.519531-79.519531c0-43.917969 35.601562-48.234375 79.519531-48.234375 43.914063 0 79.519531 4.316406 79.519531 48.234375zm0 0" fill="#ffd9e8"/><path d="m199.707031 135.253906c32.351563 0 60.1875-19.3125 72.605469-47.046875-16.902344-21.484375-43.148438-35.300781-72.605469-35.300781s-55.707031 13.816406-72.609375 35.300781c12.417969 27.734375 40.253906 47.046875 72.609375 47.046875zm0 0" fill="#ffc7de"/><path d="m279.226562 234.703125c0-43.917969-35.601562-79.519531-79.519531-79.519531s-79.519531 35.601562-79.519531 79.519531 35.601562 48.234375 79.519531 48.234375 79.519531-4.316406 79.519531-48.234375zm0 0" fill="#ffd9e8"/><path d="m199.707031 155.183594c-32.355469 0-60.191406 19.3125-72.609375 47.046875 16.902344 21.484375 43.152344 35.300781 72.609375 35.300781s55.703125-13.820312 72.605469-35.300781c-12.417969-27.734375-40.253906-47.046875-72.605469-47.046875zm0 0" fill="#ffc7de"/><path d="m252.363281 145.21875c0 29.082031-23.574219 52.65625-52.65625 52.65625s-52.660156-23.574219-52.660156-52.65625 23.578125-52.660156 52.660156-52.660156 52.65625 23.578125 52.65625 52.660156zm0 0" fill="#ffeb99"/><path d="m273.550781 356.222656c19.320313-19.324218 25.179688-44.789062 13.089844-56.878906-12.089844-12.09375-37.558594-6.230469-56.878906 13.089844-19.320313 19.320312-25.183594 44.785156-13.089844 56.878906 12.089844 12.089844 37.558594 6.230469 56.878906-13.089844zm0 0" fill="#c8efb9"/><path d="m334.65625 412.644531c-8.644531-6.207031-20.289062-6.207031-28.933594 0l-29.015625 20.835938-29.015625-20.835938c-8.648437-6.207031-20.289062-6.207031-28.933594 0 0 0-29.015624 21.230469-29.015624 44.917969s9.683593 46.9375 46.9375 46.9375h80.054687c37.253906 0 46.9375-23.25 46.9375-46.9375s-29.015625-44.917969-29.015625-44.917969zm0 0" fill="#c8efb9"/><path d="m339.085938 406.59375c-.019532-.015625-.035157-.027344-.054688-.039062-11.269531-8.097657-26.414062-8.097657-37.683594 0l-24.640625 17.691406-24.644531-17.691406c-4.359375-3.132813-9.304688-5.039063-14.378906-5.746094v-17.886719c13.398437-1.265625 28.40625-8.628906 41.167968-21.390625 22.59375-22.59375 28.339844-52.234375 13.089844-67.484375-12.410156-12.410156-34.34375-10.914063-54.257812 2.242187v-8.101562c7.921875-1.265625 15.035156-3.1875 21.363281-6.074219 18.363281-8.382812 29.160156-26.113281 27.636719-49.925781 23.539062 1.179688 41.53125-9.261719 49.914062-27.625 6.90625-15.136719 8.324219-34.671875 8.324219-59.34375s-1.417969-44.207031-8.324219-59.34375c-8.382812-18.363281-23.269531-30.886719-49.917968-27.632812 2.375-24.988282-9.265626-41.535157-27.632813-49.917969-15.132813-6.910157-34.667969-8.324219-59.339844-8.324219-24.675781 0-44.207031 1.414062-59.34375 8.324219-18.363281 8.382812-29.125 26.339843-27.640625 49.917969-24.0625-2.125-41.527344 9.269531-49.910156 27.632812-6.910156 15.136719-8.324219 34.671875-8.324219 59.34375s1.414063 44.207031 8.324219 59.34375c8.382812 18.363281 23.871094 30.5 49.914062 27.632812-3.460937 23.804688 9.273438 41.535157 27.636719 49.917969 6.328125 2.886719 13.441407 4.808594 21.363281 6.074219v8.101562c-19.914062-13.15625-41.851562-14.652343-54.261718-2.246093-15.25 15.253906-9.5 44.894531 13.09375 67.484375 12.425781 12.425781 27.378906 20.089844 41.167968 21.371094v26.839843s-19.675781-18.628906-42.125-3.1875l-24.640624 17.695313-24.640626-17.695313c-11.269531-8.089843-26.414062-8.09375-37.683593 0-3.363281 2.417969-4.132813 7.105469-1.71875 10.46875 2.417969 3.363281 7.105469 4.132813 10.46875 1.714844 6.035156-4.335937 14.148437-4.335937 20.183593 0l29.015626 20.839844c1.308593.9375 2.84375 1.40625 4.375 1.40625 1.535156 0 3.070312-.46875 4.375-1.40625l29.015624-20.839844c6.035157-4.332031 14.148438-4.335937 20.1875 0l13.1875 9.472656v45.8125c0 8.632813 2.898438 16.59375 7.765626 22.980469h-114.554688c-26.539062 0-39.4375-12.902344-39.4375-39.441406 0-5.011719 1.761719-10.519532 5.242188-16.367188 2.121093-3.558594.953124-8.160156-2.609376-10.28125-3.558593-2.117187-8.160156-.949218-10.28125 2.609375-4.878906 8.203125-7.351562 16.289063-7.351562 24.039063 0 35.105468 19.332031 54.441406 54.4375 54.441406h261.796875c35.105469 0 54.4375-19.335938 54.4375-54.441406 0-27.179688-30.777344-50.007813-32.085937-50.964844zm-57.75-101.941406c9.167968 8.816406 3 30.183594-13.089844 46.269531-16.089844 16.089844-37.277344 22.085937-46.273438 13.089844-5.335937-5.332031-4.3125-14.03125-3.226562-18.742188 2.160156-9.390625 7.957031-19.164062 16.320312-27.527343 11-11 35.601563-23.347657 46.269532-13.089844zm-134.742188-282.679688c13.417969-6.128906 33.457031-6.972656 53.113281-6.972656 19.652344 0 39.691407.84375 53.113281 6.972656 13.074219 5.964844 18.902344 16.378906 18.902344 33.761719 0 13.769531-3.894531 27.148437-11.265625 38.691406-2.226562 3.492188-1.203125 8.128907 2.285157 10.359375 3.492187 2.230469 8.128906 1.203125 10.359374-2.285156 5.722657-8.964844 9.703126-18.84375 11.824219-29.167969 1.417969-.085937 2.84375-.132812 4.265625-.132812 17.378906 0 27.792969 5.828125 33.761719 18.902343 6.125 13.421876 6.96875 33.460938 6.96875 53.117188 0 19.652344-.84375 39.691406-6.96875 53.113281-5.96875 13.074219-16.382813 18.902344-33.761719 18.902344-1.429687 0-2.859375-.054687-4.285156-.136719-3.976562-19.132812-14.332031-36.570312-29.488281-49.230468 2.855469-6.996094 4.445312-14.640626 4.445312-22.648438 0-33.171875-26.988281-60.160156-60.160156-60.160156-19.699219 0-37.214844 9.515625-48.195313 24.195312-15.210937-13.652344-23.824218-32.835937-23.824218-53.519531.003906-17.382813 5.832031-27.796875 18.910156-33.761719zm7.953125 123.246094c0-24.902344 20.257813-45.160156 45.160156-45.160156 24.898438 0 45.15625 20.257812 45.15625 45.160156 0 24.898438-20.257812 45.15625-45.15625 45.15625-24.902343 0-45.160156-20.257812-45.160156-45.15625zm-40.058594 71.886719c-1.421875.082031-2.847656.132812-4.269531.132812-17.378906 0-27.792969-5.832031-33.761719-18.90625-6.125-13.421875-6.96875-33.457031-6.96875-53.113281s.84375-39.691406 6.96875-53.113281c5.96875-13.074219 16.382813-18.90625 33.761719-18.90625 1.410156 0 2.820312.050781 4.230469.132812 3.902343 19.195313 14.171875 36.453125 29.539062 49.238281-2.855469 6.996094-4.441406 14.640626-4.441406 22.648438 0 8.011719 1.585937 15.652344 4.441406 22.648438-15.199219 12.671874-25.542969 30.046874-29.5 49.238281zm13.199219 17.597656c0-20.578125 8.761719-39.945313 23.828125-53.515625 10.980469 14.675781 28.496094 24.1875 48.1875 24.1875 19.695313 0 37.207031-9.511719 48.1875-24.183594 15.042969 13.582032 23.832031 33.058594 23.832031 53.511719 0 17.382813-5.828125 27.792969-18.902344 33.761719-13.421874 6.125-33.460937 6.972656-53.113281 6.972656-19.65625 0-39.695312-.847656-53.117187-6.972656-13.074219-5.96875-18.902344-16.378906-18.902344-33.761719zm72.019531 55.730469c8.222657 0 15.867188-.164063 22.976563-.628906v19.160156c-9.378906 9.9375-15.933594 21.550781-18.558594 32.941406-3.070312 13.355469.570312 33.703125 18.558594 39.578125v20.796875c-17.40625 7.488281-40.441406 28.097656-40.441406 55.28125 0 16.660156 4.359374 29.761719 12.6875 38.933594-10.382813-2.203125-18.203126-11.441406-18.203126-22.472656v-184.21875c7.109376.464843 14.753907.628906 22.980469.628906zm-68.542969 60.488281c-16.085937-16.089844-22.082031-37.277344-13.089843-46.269531 8.511719-8.515625 27.953125-3.59375 43.652343 10.605468v52.53125c-9.871093-1.402343-21.296874-7.605468-30.5625-16.867187zm185.570313 146.078125h-80.054687c-26.539063 0-39.4375-12.898438-39.4375-39.4375 0-16.226562 18.730468-33.5625 25.886718-38.828125 3.019532-2.167969 6.554688-3.25 10.09375-3.25 3.535156 0 7.074219 1.082031 10.09375 3.25l29.015625 20.839844c2.617188 1.875 6.136719 1.875 8.75 0l29.015625-20.839844c6.027344-4.324219 14.117188-4.335937 20.148438-.023437.449218.335937 7.039062 5.289062 13.46875 12.671874 5.683594 6.519532 12.457031 16.355469 12.457031 26.179688 0 26.539062-12.902344 39.4375-39.4375 39.4375zm0 0"/></svg>