<?xml version="1.0" encoding="iso-8859-1"?>
<!-- Generator: Adobe Illustrator 19.0.0, SVG Export Plug-In . SVG Version: 6.00 Build 0)  -->
<svg version="1.1" id="Capa_1" xmlns="http://www.w3.org/2000/svg" xmlns:xlink="http://www.w3.org/1999/xlink" x="0px" y="0px"
	 viewBox="0 0 512 512" style="enable-background:new 0 0 512 512;" xml:space="preserve">
<circle style="fill:#FDB876;" cx="256" cy="132.03" r="66.54"/>
<path style="fill:#7CD1A9;" d="M451.919,218.809H60.081v255.148c0,16.868,13.675,30.543,30.543,30.543h330.753
	c16.868,0,30.543-13.674,30.543-30.543L451.919,218.809L451.919,218.809z"/>
<g>
	<path style="opacity:0.3;fill:#FFFFFF;enable-background:new    ;" d="M60.081,260.331v141.601c39.102,0,70.8-31.699,70.8-70.801
		C130.881,292.03,99.183,260.331,60.081,260.331z"/>
	<path style="opacity:0.3;fill:#FFFFFF;enable-background:new    ;" d="M435.88,382.013c-39.102,0-70.801,31.698-70.801,70.801
		c0,20.397,8.637,38.767,22.439,51.686h33.858c16.868,0,30.543-13.674,30.543-30.543V383.86
		C446.763,382.666,441.399,382.013,435.88,382.013z"/>
</g>
<path style="fill:#7CD1A9;" d="M467.487,218.809H44.513c-7.933,0-14.365-6.431-14.365-14.365v-58.049
	c0-7.934,6.432-14.365,14.365-14.365h422.975c7.934,0,14.365,6.431,14.365,14.365v58.049
	C481.852,212.378,475.421,218.809,467.487,218.809z"/>
<path style="opacity:0.1;enable-background:new    ;" d="M467.487,132.03h-39.242c7.934,0,14.365,6.431,14.365,14.365v58.049
	c0,7.934-6.431,14.365-14.365,14.365h39.242c7.934,0,14.365-6.431,14.365-14.365v-58.049
	C481.852,138.462,475.421,132.03,467.487,132.03z"/>
<g>
	<rect x="216.76" y="218.81" style="fill:#FFE584;" width="78.48" height="285.69"/>
	<rect x="216.76" y="132.03" style="fill:#FFE584;" width="78.48" height="86.78"/>
</g>
<path style="opacity:0.1;enable-background:new    ;" d="M60.081,218.809v45.615H393.63v209.533
	c0,16.868-13.674,30.543-30.543,30.543h58.29c16.868,0,30.543-13.674,30.543-30.543V218.809H60.081z"/>
<path style="fill:#FFE584;" d="M234.624,132.03h-87.877c-34.388,0-62.265-27.877-62.265-62.265l0,0
	c0-34.388,27.877-62.265,62.265-62.265l0,0c48.533,0,87.877,39.344,87.877,87.877V132.03z"/>
<path style="opacity:0.1;enable-background:new    ;" d="M146.747,7.5L146.747,7.5c-1.854,0-3.685,0.097-5.498,0.255
	c45.38,3.446,81.128,41.359,81.128,87.622v36.653h12.248V95.377C234.624,46.844,195.28,7.5,146.747,7.5z"/>
<path style="opacity:0.1;enable-background:new    ;" d="M195.382,132.03h-41.941c-16.412,0-29.717-13.305-29.717-29.717l0,0
	c0-16.412,13.305-29.717,29.717-29.717l0,0c23.164,0,41.941,18.778,41.941,41.941L195.382,132.03L195.382,132.03z"/>
<path style="fill:#FFE584;" d="M277.376,132.03h87.877c34.388,0,62.265-27.877,62.265-62.265l0,0
	c0-34.388-27.877-62.265-62.265-62.265l0,0c-48.533,0-87.877,39.344-87.877,87.877L277.376,132.03L277.376,132.03z"/>
<path style="opacity:0.1;enable-background:new    ;" d="M316.618,132.03h41.941c16.413,0,29.717-13.305,29.717-29.717l0,0
	c0-16.412-13.305-29.717-29.717-29.717l0,0c-23.164,0-41.941,18.778-41.941,41.941V132.03z"/>
<path style="opacity:0.1;enable-background:new    ;" d="M365.253,7.5L365.253,7.5c-2.602,0-5.175,0.12-7.72,0.341
	c31.322,3.261,55.742,29.739,55.742,61.924l0,0c0,26.144-16.12,48.509-38.956,57.738c-4.569,2.865-9.97,4.527-15.761,4.527h6.694
	c34.388,0,62.265-27.877,62.265-62.265l0,0C427.518,35.377,399.642,7.5,365.253,7.5z"/>
<path d="M183.766,304.611v-13.235c0-4.143-3.357-7.5-7.5-7.5s-7.5,3.357-7.5,7.5v13.235c0,4.143,3.357,7.5,7.5,7.5
	C180.408,312.111,183.766,308.754,183.766,304.611z M256,322.274c10.224,0,19.946-4.428,26.676-12.148
	c2.721-3.122,2.396-7.86-0.727-10.582c-3.123-2.721-7.86-2.396-10.582,0.727c-3.879,4.451-9.48,7.004-15.367,7.004
	s-11.488-2.553-15.367-7.004c-2.723-3.123-7.46-3.447-10.582-0.727c-3.123,2.722-3.447,7.46-0.727,10.582
	C236.054,317.847,245.776,322.274,256,322.274z M328.234,291.376v13.235c0,4.143,3.357,7.5,7.5,7.5s7.5-3.357,7.5-7.5v-13.235
	c0-4.143-3.357-7.5-7.5-7.5S328.234,287.233,328.234,291.376z M467.487,124.53h-59.091c16.197-12.787,26.623-32.575,26.623-54.766
	C435.019,31.296,403.722,0,365.253,0c-40.419,0-75.043,25.275-88.906,60.849c-6.596-1.89-13.409-2.858-20.346-2.858
	c-6.935,0-13.746,0.968-20.34,2.856c-2.099-5.407-4.686-10.634-7.763-15.605c-2.181-3.523-6.803-4.607-10.324-2.43
	c-3.522,2.181-4.61,6.803-2.43,10.324c7.838,12.661,11.98,27.268,11.98,42.241v29.153h-24.242v-9.993
	c0-27.262-22.18-49.441-49.441-49.441c-20.521,0-37.217,16.695-37.217,37.217c0,5.265,1.105,10.275,3.086,14.819
	c-16.323-9.492-27.328-27.163-27.328-47.367C91.981,39.567,116.549,15,146.747,15c18.34,0,36.275,6.338,50.505,17.845
	c3.22,2.605,7.943,2.106,10.547-1.114c2.605-3.221,2.105-7.943-1.115-10.548C189.795,7.523,168.509,0,146.747,0
	c-38.469,0-69.766,31.297-69.766,69.766c0,22.19,10.426,41.978,26.623,54.765H44.513c-12.057,0-21.865,9.809-21.865,21.865v58.049
	c0,12.057,9.809,21.865,21.865,21.865h8.068v190.827c0,4.143,3.357,7.5,7.5,7.5s7.5-3.357,7.5-7.5V226.31h141.677V497H90.624
	c-12.706,0-23.043-10.337-23.043-23.043v-18.479c0-4.143-3.357-7.5-7.5-7.5s-7.5,3.357-7.5,7.5v18.479
	c0,20.977,17.066,38.043,38.043,38.043h330.752c20.977,0,38.043-17.066,38.043-38.043V301.609c0-4.143-3.357-7.5-7.5-7.5
	s-7.5,3.357-7.5,7.5v172.348c0,12.706-10.337,23.043-23.043,23.043H302.742V226.31h141.677v40.368c0,4.143,3.357,7.5,7.5,7.5
	s7.5-3.357,7.5-7.5V226.31h8.068c12.057,0,21.865-9.809,21.865-21.865v-58.049C489.353,134.339,479.544,124.53,467.487,124.53z
	 M256,72.99c5.464,0,10.829,0.756,16.027,2.226c-1.405,6.502-2.151,13.245-2.151,20.161v29.153h-27.752V95.377
	c0-6.819-0.732-13.574-2.151-20.161C245.17,73.746,250.536,72.99,256,72.99z M153.44,80.096c18.991,0,34.441,15.45,34.441,34.441
	v9.993H153.44c-12.25,0-22.217-9.967-22.217-22.218C131.224,90.063,141.19,80.096,153.44,80.096z M209.258,211.31H44.513
	c-3.785,0-6.865-3.08-6.865-6.865v-58.049c0-3.785,3.08-6.865,6.865-6.865h164.745V211.31z M287.742,497h-63.484V226.31h63.484V497z
	 M287.742,211.31h-63.484v-71.78h63.484V211.31z M284.876,124.53V95.377c0-44.32,36.058-80.377,80.378-80.377
	c30.197,0,54.765,24.567,54.765,54.766c0,20.204-11.005,37.874-27.328,47.366c1.98-4.544,3.086-9.554,3.086-14.819
	c0-20.521-16.695-37.217-37.217-37.217c-27.262,0-49.441,22.18-49.441,49.441v9.993L284.876,124.53L284.876,124.53z
	 M380.776,102.313c0,12.251-9.967,22.218-22.217,22.218h-34.441v-9.993c0-18.991,15.45-34.441,34.441-34.441
	C370.81,80.096,380.776,90.063,380.776,102.313z M474.353,204.444c0,3.785-3.08,6.865-6.865,6.865H302.742V139.53h164.745
	c3.785,0,6.865,3.08,6.865,6.865v58.049H474.353z"/>
<g>
</g>
<g>
</g>
<g>
</g>
<g>
</g>
<g>
</g>
<g>
</g>
<g>
</g>
<g>
</g>
<g>
</g>
<g>
</g>
<g>
</g>
<g>
</g>
<g>
</g>
<g>
</g>
<g>
</g>
</svg>
