<?xml version="1.0" encoding="iso-8859-1"?>
<!-- Generator: Adobe Illustrator 19.0.0, SVG Export Plug-In . SVG Version: 6.00 Build 0)  -->
<svg version="1.1" id="Capa_1" xmlns="http://www.w3.org/2000/svg" xmlns:xlink="http://www.w3.org/1999/xlink" x="0px" y="0px"
	 viewBox="0 0 512.002 512.002" style="enable-background:new 0 0 512.002 512.002;" xml:space="preserve">
<path style="fill:#E36FA5;" d="M264.564,176.81l1.729-1.199c5.715-3.964,13.571-0.182,14.034,6.759l0.14,2.1
	c0.249,3.726,2.785,6.906,6.362,7.978l2.016,0.604c6.663,1.997,8.603,10.497,3.466,15.186l-1.554,1.419
	c-2.758,2.518-3.663,6.483-2.271,9.949l0.784,1.952c2.593,6.454-2.843,13.271-9.712,12.179l-2.078-0.33
	c-3.688-0.586-7.353,1.178-9.194,4.428l-1.037,1.831c-3.429,6.052-12.148,6.052-15.577,0l-1.037-1.831
	c-1.841-3.249-5.506-5.014-9.194-4.428l-2.078,0.33c-6.869,1.092-12.305-5.725-9.712-12.179l0.785-1.952
	c1.392-3.465,0.487-7.431-2.271-9.949l-1.554-1.419c-5.137-4.69-3.197-13.19,3.466-15.186l2.016-0.604
	c3.577-1.072,6.113-4.252,6.363-7.978l0.14-2.1c0.464-6.94,8.319-10.723,14.034-6.759l1.729,1.199
	C257.428,178.939,261.495,178.939,264.564,176.81z"/>
<path style="fill:#9CDEB3;" d="M442.441,23.333l1.729-1.199c5.715-3.964,13.571-0.181,14.034,6.759l0.14,2.1
	c0.249,3.726,2.785,6.906,6.363,7.978l2.016,0.604c6.663,1.997,8.603,10.497,3.466,15.187l-1.554,1.419
	c-2.758,2.518-3.663,6.484-2.271,9.949l0.784,1.953c2.593,6.454-2.843,13.271-9.712,12.179l-2.078-0.33
	c-3.688-0.586-7.353,1.179-9.194,4.428l-1.037,1.831c-3.429,6.052-12.148,6.052-15.577,0l-1.037-1.831
	c-1.841-3.249-5.506-5.014-9.194-4.428l-2.078,0.33c-6.869,1.092-12.305-5.725-9.712-12.179l0.784-1.953
	c1.392-3.465,0.487-7.431-2.271-9.949l-1.554-1.419c-5.137-4.69-3.197-13.19,3.466-15.187l2.016-0.604
	c3.577-1.072,6.113-4.252,6.362-7.978l0.14-2.1c0.464-6.94,8.319-10.723,14.034-6.759l1.729,1.199
	C435.305,25.462,439.372,25.462,442.441,23.333z"/>
<path style="fill:#2CA7C1;" d="M106.465,68.721l1.199,1.729c3.964,5.715,0.181,13.571-6.759,14.034l-2.1,0.14
	c-3.726,0.249-6.906,2.785-7.978,6.362l-0.604,2.016c-1.997,6.663-10.497,8.603-15.186,3.466l-1.419-1.554
	c-2.518-2.758-6.484-3.663-9.949-2.271l-1.952,0.785c-6.454,2.593-13.271-2.843-12.179-9.712l0.33-2.078
	c0.586-3.688-1.178-7.353-4.428-9.194l-1.831-1.037c-6.052-3.429-6.052-12.148,0-15.577l1.831-1.037
	c3.249-1.841,5.014-5.506,4.428-9.194l-0.33-2.078c-1.092-6.869,5.725-12.305,12.179-9.712l1.952,0.785
	c3.465,1.392,7.431,0.487,9.949-2.271l1.419-1.554c4.69-5.137,13.19-3.197,15.186,3.466l0.604,2.016
	c1.072,3.577,4.252,6.113,7.978,6.362l2.1,0.14c6.94,0.464,10.723,8.319,6.759,14.034l-1.199,1.729
	C104.336,61.585,104.336,65.653,106.465,68.721z"/>
<path style="fill:#E9CA59;" d="M363.459,389.335L363.459,389.335c-3.477-5.013-0.159-11.903,5.928-12.31l0,0
	c3.268-0.218,6.058-2.443,6.998-5.581l0,0c1.751-5.844,9.207-7.546,13.32-3.04l0,0c2.209,2.419,5.687,3.213,8.726,1.992l0,0
	c5.661-2.275,11.64,2.493,10.682,8.519l0,0c-0.514,3.235,1.034,6.449,3.883,8.064l0,0c5.308,3.008,5.308,10.655,0,13.663l0,0
	c-2.85,1.615-4.398,4.829-3.883,8.064l0,0c0.958,6.025-5.021,10.793-10.682,8.519l0,0c-3.039-1.221-6.518-0.427-8.726,1.992l0,0
	c-4.114,4.506-11.569,2.804-13.32-3.04l0,0c-0.94-3.138-3.73-5.362-6.998-5.581l0,0c-6.087-0.407-9.405-7.297-5.928-12.31l0,0
	C365.326,395.594,365.326,392.026,363.459,389.335z"/>
<path style="fill:#E36FA5;" d="M89.929,347.55L89.929,347.55c-3.477-5.013-0.159-11.903,5.928-12.31l0,0
	c3.268-0.218,6.058-2.443,6.998-5.581l0,0c1.751-5.844,9.207-7.546,13.32-3.04l0,0c2.209,2.419,5.687,3.213,8.726,1.992l0,0
	c5.661-2.275,11.64,2.493,10.682,8.519l0,0c-0.514,3.235,1.034,6.449,3.883,8.064l0,0c5.308,3.008,5.308,10.655,0,13.663l0,0
	c-2.85,1.615-4.398,4.829-3.883,8.064l0,0c0.958,6.025-5.021,10.793-10.682,8.519l0,0c-3.039-1.221-6.518-0.427-8.726,1.992l0,0
	c-4.114,4.506-11.569,2.804-13.32-3.04l0,0c-0.94-3.138-3.729-5.362-6.998-5.581l0,0c-6.087-0.407-9.405-7.297-5.928-12.31l0,0
	C91.796,353.809,91.796,350.242,89.929,347.55z"/>
<path d="M67.4,99.228l6.187,6.776c2.492,2.73,6.007,4.239,9.622,4.239c0.961,0,1.929-0.107,2.887-0.326
	c4.562-1.041,8.229-4.472,9.572-8.953l2.633-8.789l9.155-0.612c4.668-0.312,8.829-3.124,10.859-7.339s1.634-9.222-1.032-13.066
	l-5.229-7.54l5.229-7.539c2.666-3.844,3.062-8.851,1.032-13.066s-6.191-7.027-10.859-7.339l-9.155-0.612l-2.634-8.789
	c-1.343-4.482-5.011-7.913-9.572-8.954c-4.561-1.043-9.354,0.458-12.509,3.914L67.4,28.01l-8.514-3.421
	c-4.341-1.743-9.31-1.016-12.968,1.902c-3.658,2.917-5.474,7.599-4.739,12.22l1.441,9.062l-7.983,4.523
	c-4.071,2.307-6.599,6.646-6.599,11.325c0,4.678,2.529,9.017,6.599,11.324l7.983,4.523l-1.441,9.062
	c-0.734,4.621,1.082,9.303,4.74,12.22c3.658,2.916,8.624,3.644,12.967,1.901L67.4,99.228z M51.213,67.095l-6.134-3.476l6.135-3.476
	c4.698-2.663,7.285-8.035,6.437-13.368l-1.107-6.963l6.543,2.629c5.011,2.013,10.824,0.686,14.465-3.302l4.753-5.207l2.024,6.754
	c1.55,5.173,6.212,8.891,11.6,9.25l7.034,0.47L98.944,56.2c-3.078,4.438-3.078,10.4,0,14.837l4.018,5.794l-7.034,0.47
	c-5.388,0.36-10.05,4.077-11.601,9.25l-2.023,6.754l-4.753-5.206c-2.508-2.748-6.046-4.233-9.644-4.233
	c-1.625,0-3.263,0.303-4.822,0.93l-6.542,2.629l1.107-6.962C58.498,75.129,55.911,69.757,51.213,67.095z M86.482,281.269
	c-1.585-3.827-5.972-5.644-9.799-4.059l-17.967,7.442c-3.827,1.585-5.644,5.972-4.059,9.799c1.196,2.888,3.989,4.632,6.932,4.632
	c0.957,0,1.929-0.184,2.867-0.573l17.967-7.442C86.249,289.483,88.067,285.095,86.482,281.269z M148.441,341.658l-5.488-3.11
	l0.991-6.23c0.672-4.23-0.99-8.517-4.339-11.187s-7.897-3.336-11.872-1.74l-5.853,2.352l-4.254-4.659
	c-2.888-3.163-7.275-4.538-11.451-3.583c-4.176,0.953-7.534,4.094-8.764,8.197l-1.811,6.043l-6.293,0.421
	c-4.274,0.285-8.083,2.86-9.942,6.718c-1.858,3.859-1.497,8.443,0.945,11.962l3.595,5.183l-3.595,5.184
	c-2.441,3.519-2.803,8.103-0.945,11.961c1.858,3.859,5.667,6.434,9.941,6.72l6.293,0.42l1.811,6.043
	c1.229,4.103,4.587,7.244,8.764,8.197c0.876,0.2,1.763,0.298,2.642,0.298c3.31-0.001,6.528-1.382,8.809-3.88l4.253-4.659
	l5.855,2.352c3.975,1.596,8.523,0.93,11.871-1.741c3.349-2.67,5.011-6.957,4.339-11.187l-0.991-6.23l5.488-3.11
	c3.727-2.111,6.041-6.083,6.042-10.367C154.482,347.743,152.167,343.77,148.441,341.658z M85.125,353.783
	c-0.001-0.002-0.002-0.003-0.004-0.005L85.125,353.783L85.125,353.783z M133.697,353.507c-4.302,2.438-6.671,7.356-5.894,12.238
	l0.472,2.968l-2.788-1.12c-4.589-1.844-9.91-0.629-13.243,3.022l-2.026,2.219l-0.862-2.878c-1.419-4.735-5.687-8.139-10.62-8.469
	l-2.997-0.2l1.712-2.468c2.819-4.063,2.819-9.522,0-13.585l-1.712-2.468l2.998-0.2c4.933-0.33,9.2-3.734,10.619-8.469l0.862-2.878
	l2.026,2.22c3.333,3.65,8.654,4.864,13.243,3.022l2.788-1.121l-0.472,2.966c-0.777,4.883,1.591,9.802,5.893,12.239l2.614,1.481
	L133.697,353.507z M142.212,250.066l-39.313,16.284c-3.827,1.585-5.644,5.973-4.059,9.799c1.196,2.888,3.989,4.632,6.932,4.632
	c0.957,0,1.929-0.184,2.867-0.573l39.313-16.284c3.827-1.585,5.644-5.973,4.059-9.799
	C150.427,250.299,146.04,248.483,142.212,250.066z M205.117,98.201c1.196,2.888,3.989,4.632,6.932,4.632
	c0.957,0,1.929-0.184,2.867-0.573c3.827-1.585,5.644-5.973,4.059-9.799l-20.318-49.053c-1.586-3.827-5.973-5.643-9.799-4.059
	c-3.827,1.585-5.644,5.973-4.059,9.799L205.117,98.201z M205.11,165.835c1.463,1.454,3.375,2.18,5.287,2.18
	c1.927,0,3.854-0.738,5.32-2.213c2.92-2.938,2.905-7.686-0.033-10.606l-20.82-20.69c-2.938-2.92-7.687-2.905-10.606,0.033
	c-2.92,2.938-2.905,7.687,0.033,10.606L205.11,165.835z M333.577,30.559c0.939,0.389,1.91,0.573,2.867,0.573
	c2.943,0,5.735-1.744,6.932-4.632l6.681-16.129c1.586-3.827-0.231-8.214-4.059-9.799c-3.825-1.583-8.214,0.232-9.799,4.059
	l-6.681,16.129C327.932,24.587,329.749,28.974,333.577,30.559z M318.023,140.412l-8.793,8.923c-2.907,2.95-2.873,7.699,0.077,10.606
	c1.462,1.44,3.363,2.158,5.265,2.158c1.938,0,3.875-0.747,5.342-2.236l8.793-8.923c2.907-2.95,2.873-7.699-0.077-10.606
	C325.678,137.428,320.93,137.462,318.023,140.412z M303.877,102.26c0.938,0.389,1.91,0.573,2.867,0.573
	c2.943,0,5.735-1.744,6.932-4.632l16.55-39.955c1.586-3.827-0.231-8.214-4.059-9.799c-3.825-1.584-8.213,0.232-9.799,4.059
	l-16.55,39.955C298.233,96.287,300.05,100.675,303.877,102.26z M194.463,209.645c0-4.142-3.358-7.5-7.5-7.5h-18.032
	c-4.142,0-7.5,3.358-7.5,7.5s3.358,7.5,7.5,7.5h18.032C191.105,217.145,194.463,213.787,194.463,209.645z M259.526,147.665h0.048
	c4.142-0.026,7.479-3.404,7.453-7.546l-0.13-20.985c-0.025-4.126-3.379-7.454-7.499-7.454h-0.048
	c-4.142,0.026-7.479,3.404-7.453,7.546l0.13,20.985C252.053,144.338,255.405,147.665,259.526,147.665z M90.879,139.842
	c-1.585,3.827,0.232,8.214,4.059,9.799l47.275,19.582c0.939,0.389,1.911,0.573,2.867,0.573c2.943,0,5.736-1.744,6.932-4.632
	c1.585-3.827-0.232-8.214-4.059-9.799l-47.274-19.582C96.849,134.199,92.464,136.016,90.879,139.842z M200.708,278.94l14.969-14.839
	c2.941-2.916,2.962-7.664,0.046-10.606c-2.915-2.941-7.665-2.962-10.606-0.046l-14.969,14.839
	c-2.941,2.916-2.962,7.665-0.046,10.607c1.466,1.479,3.396,2.22,5.326,2.22C197.337,281.113,199.246,280.389,200.708,278.94z
	 M313.982,253.495c-2.915-2.942-7.664-2.962-10.607-0.047c-2.941,2.916-2.962,7.665-0.046,10.606l14.709,14.839
	c1.466,1.479,3.396,2.22,5.326,2.22c1.908,0,3.817-0.724,5.28-2.173c2.941-2.916,2.962-7.665,0.046-10.607L313.982,253.495z
	 M421.971,383.443l-5.488-3.11l0.99-6.229c0.673-4.23-0.989-8.517-4.338-11.188c-3.35-2.67-7.898-3.336-11.872-1.741l-5.853,2.352
	l-4.254-4.659c-2.889-3.163-7.278-4.54-11.452-3.582c-4.176,0.953-7.533,4.094-8.762,8.196l-1.811,6.043l-6.293,0.421
	c-4.274,0.285-8.084,2.86-9.942,6.719c-1.858,3.859-1.496,8.443,0.944,11.961l3.596,5.184l-3.595,5.182
	c-2.441,3.52-2.804,8.103-0.945,11.962s5.668,6.434,9.941,6.719l6.294,0.421l1.811,6.042c1.229,4.103,4.586,7.244,8.762,8.197
	c0.877,0.201,1.764,0.298,2.644,0.298c3.31-0.001,6.527-1.382,8.81-3.881l4.253-4.659l5.853,2.352
	c3.977,1.598,8.524,0.931,11.873-1.74c3.349-2.67,5.011-6.957,4.338-11.186l-0.99-6.23l5.489-3.11
	c3.726-2.112,6.04-6.084,6.04-10.367C428.012,389.527,425.698,385.554,421.971,383.443z M407.226,395.292
	c-4.301,2.438-6.669,7.355-5.893,12.237l0.472,2.967l-2.788-1.12c-4.586-1.842-9.909-0.629-13.242,3.023l-2.025,2.219l-0.863-2.88
	c-1.42-4.734-5.688-8.137-10.619-8.467l-2.998-0.2l1.713-2.469c2.817-4.062,2.817-9.521,0-13.583l-1.713-2.469l2.999-0.2
	c4.931-0.33,9.198-3.733,10.619-8.469l0.862-2.878l2.026,2.219c3.332,3.65,8.654,4.864,13.241,3.022l2.788-1.121l-0.472,2.968
	c-0.775,4.882,1.593,9.799,5.895,12.237l2.614,1.481L407.226,395.292z M419.894,135.047l-49.053,20.318
	c-3.827,1.585-5.645,5.973-4.059,9.799c1.196,2.888,3.988,4.632,6.932,4.632c0.956,0,1.929-0.184,2.867-0.573l49.053-20.318
	c3.827-1.585,5.645-5.973,4.059-9.799C428.108,135.28,423.721,133.461,419.894,135.047z M483.638,43.702
	c-1.041-4.561-4.472-8.229-8.954-9.572l-8.789-2.633l-0.612-9.154c-0.311-4.669-3.123-8.83-7.339-10.86
	c-4.215-2.03-9.224-1.634-13.066,1.032l-7.539,5.23l-7.539-5.23c-3.843-2.667-8.851-3.063-13.066-1.032
	c-4.216,2.03-7.027,6.191-7.339,10.858l-0.612,9.155l-8.79,2.634c-4.482,1.343-7.912,5.011-8.953,9.573
	c-1.04,4.561,0.459,9.354,3.914,12.508l6.776,6.187l-3.421,8.514c-1.744,4.341-1.016,9.311,1.901,12.968
	c2.917,3.657,7.594,5.477,12.22,4.739l10.421-1.657c4.091-0.65,6.88-4.494,6.229-8.584c-0.65-4.09-4.49-6.882-8.585-6.229
	l-6.963,1.107l2.63-6.543c2.012-5.01,0.685-10.823-3.303-14.464l-5.207-4.753l6.755-2.024c5.173-1.55,8.89-6.212,9.25-11.6
	l0.471-7.035l5.793,4.019c4.436,3.077,10.399,3.078,14.836,0l5.793-4.019l0.471,7.034c0.36,5.388,4.077,10.05,9.251,11.601
	l6.754,2.023l-5.208,4.754c-3.986,3.641-5.314,9.453-3.301,14.465l2.629,6.541l-6.965-1.107c-5.327-0.845-10.703,1.74-13.365,6.438
	c-2.043,3.604-0.777,8.18,2.826,10.223c1.168,0.662,2.438,0.977,3.691,0.977c2.158,0,4.265-0.933,5.711-2.629l9.204,1.463
	c4.621,0.732,9.302-1.081,12.22-4.739c2.917-3.657,3.646-8.626,1.901-12.969l-3.421-8.513l6.776-6.187
	C483.179,53.056,484.679,48.263,483.638,43.702z M313.677,321.089c-1.586-3.826-5.973-5.644-9.8-4.059
	c-3.826,1.585-5.645,5.972-4.06,9.799l6.719,16.222c1.197,2.889,3.989,4.632,6.933,4.632c0.956,0,1.929-0.184,2.867-0.573
	c3.826-1.585,5.645-5.972,4.06-9.799L313.677,321.089z M425.634,270.384l-49.053-20.318c-3.824-1.583-8.214,0.232-9.799,4.059
	c-1.586,3.827,0.231,8.214,4.059,9.799l49.053,20.318c0.939,0.389,1.91,0.573,2.867,0.573c2.943,0,5.735-1.744,6.932-4.632
	C431.279,276.357,429.461,271.97,425.634,270.384z M357.362,209.645c0-4.142-3.357-7.5-7.5-7.5h-20.855c-4.143,0-7.5,3.358-7.5,7.5
	s3.357,7.5,7.5,7.5h20.855C354.004,217.145,357.362,213.787,357.362,209.645z M259.397,332.439c-4.142,0-7.5,3.358-7.5,7.5v164.563
	c0,4.142,3.358,7.5,7.5,7.5c4.143,0,7.5-3.358,7.5-7.5V339.939C266.897,335.797,263.539,332.439,259.397,332.439z M215.228,386.31
	c-4.142,0-7.5,3.358-7.5,7.5v42.038c0,4.142,3.358,7.5,7.5,7.5s7.5-3.358,7.5-7.5V393.81
	C222.728,389.668,219.371,386.31,215.228,386.31z M218.975,326.829c1.585-3.827-0.232-8.214-4.059-9.799
	c-3.829-1.585-8.214,0.232-9.799,4.059l-10.898,26.31c-1.585,3.827,0.232,8.214,4.059,9.799c0.939,0.389,1.911,0.573,2.867,0.573
	c2.943,0,5.736-1.744,6.932-4.632L218.975,326.829z M303.565,370.902c-4.143,0-7.5,3.358-7.5,7.5v56.034c0,4.142,3.357,7.5,7.5,7.5
	s7.5-3.358,7.5-7.5v-56.034C311.065,374.259,307.707,370.902,303.565,370.902z M259.573,271.625h-0.047
	c-4.121,0-7.474,3.328-7.499,7.455l-0.13,21.435c-0.025,4.142,3.313,7.52,7.454,7.545h0.047c4.12,0,7.474-3.328,7.499-7.455
	l0.13-21.435C267.052,275.028,263.714,271.65,259.573,271.625z M298.492,224.387l-3.421-8.513l6.776-6.187
	c3.455-3.154,4.955-7.947,3.914-12.508c-1.041-4.561-4.472-8.229-8.954-9.572l-8.789-2.633l-0.611-9.155
	c-0.313-4.669-3.125-8.83-7.341-10.859c-4.215-2.03-9.221-1.635-13.064,1.032l-7.54,5.229l-7.539-5.229
	c-3.844-2.667-8.851-3.062-13.065-1.032c-4.216,2.03-7.028,6.19-7.341,10.859l-0.612,9.155l-8.79,2.634
	c-4.482,1.343-7.912,5.011-8.953,9.572s0.459,9.354,3.914,12.509l6.776,6.187l-3.421,8.513c-1.745,4.341-1.016,9.311,1.901,12.968
	c2.488,3.121,6.261,4.9,10.184,4.9c0.676,0,1.357-0.053,2.036-0.161l9.705-1.542c3.323,1.78,7.523,0.813,9.71-2.363
	c2.349-3.412,1.488-8.082-1.923-10.431c-2.765-1.904-6.112-2.66-9.426-2.134l-6.962,1.107l2.629-6.542
	c2.013-5.01,0.686-10.823-3.302-14.465l-5.207-4.753l6.753-2.023c5.174-1.549,8.892-6.211,9.251-11.6l0.47-7.035l5.793,4.019
	c4.437,3.078,10.401,3.078,14.837,0l5.794-4.019l0.47,7.034c0.36,5.389,4.078,10.051,9.251,11.601l6.754,2.023l-5.208,4.754
	c-3.986,3.641-5.313,9.453-3.301,14.465l2.629,6.542l-6.963-1.107c-3.409-0.541-6.826,0.268-9.629,2.277
	c-3.366,2.414-4.138,7.1-1.724,10.465c2.243,3.128,6.447,4.015,9.733,2.188l9.685,1.539c4.62,0.738,9.302-1.08,12.22-4.739
	C299.507,233.699,300.236,228.73,298.492,224.387z"/>
<g>
</g>
<g>
</g>
<g>
</g>
<g>
</g>
<g>
</g>
<g>
</g>
<g>
</g>
<g>
</g>
<g>
</g>
<g>
</g>
<g>
</g>
<g>
</g>
<g>
</g>
<g>
</g>
<g>
</g>
</svg>
