<?xml version="1.0" encoding="iso-8859-1"?>
<!-- Generator: Adobe Illustrator 19.0.0, SVG Export Plug-In . SVG Version: 6.00 Build 0)  -->
<svg class="pot", version="1.1" id="Capa_1" xmlns="http://www.w3.org/2000/svg" xmlns:xlink="http://www.w3.org/1999/xlink" x="0px" y="0px"
	 viewBox="0 0 512 512" style="enable-background:new 0 0 512 512;" xml:space="preserve">
<g>
	<path style="fill:#994C0F;" d="M428.01,287.018H116.038c-9.301,0-16.5,8.698-14.699,17.998L140.334,500
		c1.498,6.898,7.499,12,14.699,12h233.982c7.199,0,13.201-5.101,14.699-12l38.995-194.984
		C444.51,295.716,437.311,287.018,428.01,287.018z"/>
	<path style="fill:#994C0F;" d="M413.912,86.933c-3.6-3.001-8.1-4.2-12.597-3.3L272.023,106.43L94.14,137.93
		c-9.301,1.5-14.699,11.399-11.403,20.097l26.702,68.394c2.395,5.7,7.799,9.599,14.098,9.599h277.778
		c8.1,0,14.699-6.598,14.999-14.699l2.699-122.689C419.013,94.133,417.215,89.933,413.912,86.933z"/>
</g>
<path style="fill:#BF6015;" d="M450.208,50.636l-6.598-38.096c-1.201-8.1-9-13.8-17.398-12.3L272.024,27.239L42.245,67.735
	c-8.1,1.199-13.501,8.999-12.003,17.099l6.598,38.696c4.805,26.098,27.903,44.698,53.697,44.698c2.703,0,6.002-0.3,9-0.901
	l172.486-30.599l134.388-23.697c14.398-2.401,26.698-10.2,35.098-22.198C449.608,79.134,452.911,64.736,450.208,50.636z"/>
<path style="fill:#713708;" d="M401.316,236.021H272.024v-129.59l129.292-22.796c4.497-0.901,8.997,0.298,12.597,3.3
	c3.303,2.999,5.101,7.199,5.101,11.699l-2.699,122.689C416.014,229.422,409.415,236.021,401.316,236.021z"/>
<path style="fill:#994C10;" d="M406.412,113.031l-134.388,23.698V27.239L426.212,0.24c8.396-1.5,16.197,4.2,17.398,12.3
	l6.598,38.096c2.703,14.1-0.601,28.498-8.697,40.198C433.111,102.831,420.811,110.631,406.412,113.031z"/>
<path style="fill:#BF6015;" d="M467.008,206.024H77.04c-8.4,0-14.999,6.6-14.999,14.999v41.998c0,29.698,24.3,53.996,53.997,53.996
	H428.01c29.698,0,53.997-24.298,53.997-53.996v-41.998C482.007,212.624,475.409,206.024,467.008,206.024z"/>
<path style="fill:#713708;" d="M442.708,305.016L403.714,500c-1.498,6.898-7.499,12-14.699,12H272.024V287.018h155.986
	C437.311,287.018,444.51,295.716,442.708,305.016z"/>
<path style="fill:#994C10;" d="M482.007,221.022v41.998c0,29.698-24.3,53.996-53.997,53.996H272.024V206.024h194.984
	C475.409,206.024,482.007,212.624,482.007,221.022z"/>
<g>
</g>
<g>
</g>
<g>
</g>
<g>
</g>
<g>
</g>
<g>
</g>
<g>
</g>
<g>
</g>
<g>
</g>
<g>
</g>
<g>
</g>
<g>
</g>
<g>
</g>
<g>
</g>
<g>
</g>
</svg>
