<?xml version="1.0" encoding="iso-8859-1"?>
<!-- Generator: Adobe Illustrator 19.0.0, SVG Export Plug-In . SVG Version: 6.00 Build 0)  -->
<svg version="1.1" id="Capa_1" xmlns="http://www.w3.org/2000/svg" xmlns:xlink="http://www.w3.org/1999/xlink" x="0px" y="0px"
	 viewBox="0 0 511.998 511.998" style="enable-background:new 0 0 511.998 511.998;" xml:space="preserve">
<ellipse transform="matrix(0.9268 0.3755 -0.3755 0.9268 111.629 -62.834)" style="fill:#67B758;" cx="217.023" cy="254.98" rx="38.996" ry="24.1"/>
<path style="fill:#5AAA4F;" d="M226.071,232.648c-3.032-1.228-6.067-2.193-9.056-2.898c-5.163,11.198-11.282,29.45-7.858,48.043
	c19.571,7.48,39.108,3.932,44.007-8.162C258.162,257.293,246.032,240.735,226.071,232.648z"/>
<path style="fill:#7EC66A;" d="M255.999,389.21L255.999,389.21c-10.22,0-18.583-8.362-18.583-18.583V201.876
	c0-10.22,8.362-18.583,18.583-18.583l0,0c10.22,0,18.583,8.362,18.583,18.583v168.751C274.582,380.847,266.22,389.21,255.999,389.21
	z"/>
<ellipse transform="matrix(0.9268 -0.3755 0.3755 0.9268 -74.1571 129.4297)" style="fill:#B1EF97;" cx="294.989" cy="254.974" rx="38.996" ry="24.1"/>
<path style="fill:#92DD7A;" d="M291.334,261.626c-4.315-10.65,4.145-24.443,19.374-33.219c-7.476-0.599-16.156,0.741-24.781,4.236
	c-19.962,8.087-32.092,24.645-27.093,36.983c4.999,12.338,25.233,15.784,45.195,7.697c2.732-1.107,5.323-2.376,7.737-3.767
	C301.941,272.768,294.173,268.632,291.334,261.626z"/>
<path style="fill:#FF737D;" d="M353.828,29.09c-26.119-28.611-71.087-28.521-98.312-1.297
	c-27.224-27.224-72.192-27.314-98.312,1.297c-66.408,72.743,31.466,149.781,77.06,179.784c12.906,8.493,29.597,8.493,42.503,0
	C322.362,178.87,420.235,101.833,353.828,29.09z"/>
<path style="fill:#F46262;" d="M234.265,208.878c12.032,7.918,27.356,8.449,39.833,1.604c-29.553-19.442-42.409-45.03-47.91-66.502
	c-5.374-20.979,3.453-42.945,21.695-54.616c47.291-30.255,46.618-80.798,46.613-81.135c-14.273,2.085-28.056,8.645-38.98,19.569
	c-27.224-27.224-72.192-27.314-98.311,1.297C90.797,101.837,188.671,178.875,234.265,208.878z"/>
<path style="fill:#DD9F80;" d="M303.033,504.501h-94.068c-24.224,0-43.861-19.637-43.861-43.861V322.71h181.791v137.929
	C346.894,484.863,327.257,504.501,303.033,504.501z"/>
<path style="fill:#C68D6D;" d="M165.104,322.71v137.929c0,24.224,19.637,43.861,43.861,43.861h54.859
	c-12.303-6.179-16.805-25.674-18.162-44.267c-1.625-22.267,12.804-42.557,34.302-48.584l66.931-18.766V322.71H165.104z"/>
<path style="fill:#EAB9A4;" d="M348.103,379.123H163.896c-17.817,0-32.394-14.577-32.394-32.394l0,0
	c0-17.817,14.577-32.394,32.394-32.394h184.207c17.817,0,32.394,14.577,32.394,32.394l0,0
	C380.496,364.546,365.919,379.123,348.103,379.123z"/>
<path style="fill:#DD9F80;" d="M203.219,346.729L203.219,346.729c0-17.817,14.577-32.394,32.394-32.394h-71.718
	c-17.817,0-32.394,14.577-32.394,32.394l0,0c0,17.817,14.577,32.394,32.394,32.394h71.718
	C217.797,379.123,203.219,364.546,203.219,346.729z"/>
<path d="M387.996,346.729c0-21.997-17.896-39.894-39.894-39.894h-66.021v-17.644c0.244,0.003,12.415-0.009,24.764-4.917
	c10.957-4.355,20.211-11.322,26.141-19.416c6.613-9.028,8.978-19.216,5.087-27.335c-13.042-27.212-55.648-11.54-55.991-11.395
	v-11.777c35.451-23.494,94.416-70.023,101.05-123.053c3.01-24.063-4.985-46.695-23.765-67.266
	c-13.71-15.017-32.576-23.545-53.123-24.013c-18.476-0.416-36.578,5.947-50.728,17.646c-14.15-11.697-32.27-18.051-50.728-17.646
	c-20.547,0.468-39.414,8.996-53.123,24.013c-23.356,25.586-30.003,54.048-19.754,84.598c1.317,3.927,5.568,6.041,9.496,4.725
	c3.927-1.317,6.042-5.568,4.725-9.496c-8.504-25.35-3.07-48.152,16.612-69.713c10.921-11.962,25.974-18.756,42.386-19.129
	c16.788-0.385,33.211,6.207,45.083,18.079c2.929,2.928,7.677,2.928,10.606,0c11.872-11.872,28.282-18.486,45.083-18.079
	c16.413,0.373,31.466,7.167,42.387,19.129c15.904,17.422,22.433,35.508,19.958,55.29c-2.592,20.723-15.217,42.945-37.523,66.049
	c-19.486,20.183-42.339,36.766-58.079,47.124c-10.405,6.848-23.852,6.849-34.257-0.001c-20.407-13.429-57.858-40.798-79.398-73.223
	c-2.292-3.45-6.948-4.388-10.397-2.097c-3.45,2.292-4.389,6.947-2.097,10.397c12.046,18.134,36.297,46.253,83.421,77.302v11.153
	c-0.346-0.146-43.41-17.432-55.993,11.383c-7.092,16.242,6.916,37.332,31.228,46.751c11.867,4.598,24.533,4.914,24.765,4.911v17.648
	h-66.021c-21.998,0-39.894,17.896-39.894,39.894c0,19.856,14.584,36.366,33.603,39.393v74.517c0,28.32,23.041,51.361,51.361,51.361
	h94.068c28.32,0,51.361-23.041,51.361-51.361V386.12C373.412,383.095,387.996,366.585,387.996,346.729z M288.744,239.593
	c6.642-2.69,12.995-3.857,18.464-3.857c8.695,0,15.152,2.952,16.963,7.42c1.385,3.418,0.188,8.097-3.285,12.837
	c-4.243,5.792-11.413,11.033-19.673,14.379c-17.202,6.972-32.479,3.718-35.428-3.562
	C262.837,259.531,271.54,246.563,288.744,239.593z M210.784,270.374c-17.204-6.97-25.907-19.938-22.958-27.216
	c2.949-7.278,18.225-10.53,35.427-3.563c2.329,0.943,4.55,2.041,6.664,3.25v31.336C223.916,274.283,217.191,272.969,210.784,270.374
	z M244.917,221.505c3.484,0.823,7.041,1.241,10.6,1.241c3.887,0,7.774-0.492,11.565-1.475v13.56
	c-13.727,10.674-20.187,25.297-15.199,37.61c2.653,6.547,8.096,11.296,15.199,14.037v20.357h-22.166L244.917,221.505
	L244.917,221.505z M348.103,371.623h-47.877c-4.143,0-7.5,3.357-7.5,7.5s3.357,7.5,7.5,7.5h39.169v74.017
	c0,20.05-16.312,36.361-36.361,36.361h-94.068c-20.049,0-36.361-16.312-36.361-36.361v-74.017h97.629c4.143,0,7.5-3.357,7.5-7.5
	s-3.357-7.5-7.5-7.5H163.896c-13.727,0-24.894-11.167-24.894-24.894s11.167-24.894,24.894-24.894h184.207
	c13.727,0,24.894,11.167,24.894,24.894S361.829,371.623,348.103,371.623z"/>
<g>
</g>
<g>
</g>
<g>
</g>
<g>
</g>
<g>
</g>
<g>
</g>
<g>
</g>
<g>
</g>
<g>
</g>
<g>
</g>
<g>
</g>
<g>
</g>
<g>
</g>
<g>
</g>
<g>
</g>
</svg>
