<?xml version="1.0" encoding="UTF-8"?>

<svg class="plant-index" viewBox="0 0 125 165" version="1.1" xmlns="http://www.w3.org/2000/svg" xmlns:xlink="http://www.w3.org/1999/xlink">
    <!-- Generator: Sketch 51 (57462) - http://www.bohemiancoding.com/sketch -->
    <defs></defs>
    <g id="Page-1" stroke="none" stroke-width="1" fill="none" fill-rule="evenodd">
        <g id="caoutchou_feelgood">
            <path d="M110.120295,75.6641456 C101.060295,82.4181456 95.3572953,75.9651456 95.3572953,75.9651456 C95.3572953,75.9651456 91.0912953,69.5201456 97.6852953,62.8111456 C106.208295,54.1401456 121.850295,56.2181456 121.850295,56.2181456 C121.850295,56.2181456 118.148295,69.6821456 110.120295,75.6641456" id="Fill-372" fill="#518A32"></path>
            <path d="M108.925003,74.061 C106.082003,76.171 103.827003,76.739 102.067003,76.746 C100.384003,76.745 99.073003,76.2 98.155003,75.646 C97.700003,75.369 97.351003,75.093 97.128003,74.897 C97.017003,74.799 96.937003,74.722 96.891003,74.676 L95.930003,75.46 L96.857003,74.641 L95.930003,75.46 L96.857003,74.641 L95.358003,75.965 L97.026003,74.861 L96.445003,75.245 L97.034003,74.874 L96.445003,75.245 L97.034003,74.874 C97.018003,74.85 96.750003,74.417 96.496003,73.714 C96.240003,73.009 95.999003,72.04 96.000003,70.922 C96.001003,69.999 96.158003,68.974 96.616003,67.854 C97.075003,66.734 97.838003,65.51 99.112003,64.213 C101.657003,61.619 105.007003,60.047 108.405003,59.139 C111.796003,58.231 115.201003,57.998 117.698003,58 C118.496003,58 118.976358,57.998 119.139068,57.994 C119.098068,58.326 118.866003,59.349 117.009003,63.222 C116.082003,65.157 114.931003,67.232 113.573003,69.138 C112.215003,71.046 110.648003,72.779 108.926003,74.061 L111.316003,77.268 C113.552003,75.6 115.413003,73.478 116.978003,71.251 C119.321003,67.908 120.999003,64.314 122.113003,61.537 C123.224003,58.761 123.764003,56.802 123.780003,56.748 L124.387003,54.537 L122.115003,54.235 C122.049003,54.227 120.323003,54 117.698003,54 C114.958003,54.001 111.237003,54.243 107.372003,55.275 C103.513003,56.308 99.476003,58.141 96.260003,61.409 C94.658003,63.036 93.578003,64.711 92.913003,66.339 C92.247003,67.965 91.999003,69.533 92.000003,70.922 C92.001003,72.723 92.406003,74.22 92.811003,75.281 C93.219003,76.343 93.629003,76.976 93.690003,77.069 L93.767003,77.185 L93.859003,77.289 C93.954003,77.395 94.701003,78.226 96.080003,79.065 C97.454003,79.901 99.497003,80.746 102.067003,80.746 C104.757003,80.753 107.934003,79.798 111.316003,77.268 L110.121003,75.664 L108.925003,74.061 Z" id="Fill-373" fill="#2D2118"></path>
            <path d="M87.9805219,105.870129 C89.9045219,92.1221287 94.4375219,83.3211287 99.0465219,77.1551287 C101.354522,74.0711287 103.691522,71.6511287 105.773522,69.6091287 C107.857522,67.5601287 109.685522,65.9231287 111.030522,64.2461287 C111.719522,63.3831287 111.577522,62.1251287 110.713522,61.4361287 C109.850522,60.7481287 108.592522,60.8891287 107.903522,61.7531287 C106.904522,63.0161287 105.116522,64.6581287 102.973522,66.7531287 C99.7555219,69.9061287 95.7375219,74.1491287 92.1805219,80.3081287 C88.6175219,86.4671287 85.5195219,94.5371287 84.0195219,105.318129 C83.8665219,106.412129 84.6295219,107.423129 85.7235219,107.575129 C86.8185219,107.728129 87.8285219,106.965129 87.9815219,105.871129 L87.9805219,105.870129" id="Fill-374" fill="#2D2118"></path>
            <path d="M98.6703318,72.611 C89.5453318,85.874 78.8933318,79.784 78.8933318,79.784 C78.8933318,79.784 70.1853318,73.049 76.0023318,60.975 C83.5243318,45.369 105.577332,41 105.577332,41 C105.577332,41 106.756332,60.86 98.6703318,72.611" id="Fill-375" fill="#7DA334"></path>
            <path d="M97.0230048,70.885 C94.7910048,74.126 92.5490048,76.024 90.4910048,77.135 C88.4310048,78.243 86.5280048,78.584 84.8810048,78.587 C83.3710048,78.588 82.0810048,78.288 81.1860048,77.991 C80.7390048,77.843 80.3910048,77.696 80.1670048,77.593 C80.0550048,77.541 79.9740048,77.5 79.9260048,77.476 L79.3010048,78.479 L79.8870048,77.455 L79.3010048,78.479 L79.8870048,77.455 L78.8940048,79.192 L80.1170048,77.609 L79.6740048,78.182 L80.1250048,77.616 L79.6740048,78.182 L80.1250048,77.616 C80.0980048,77.596 79.0290048,76.73 78.0070048,75.161 C76.9820048,73.584 76.0020048,71.346 76.0000048,68.426 C76.0020048,66.408 76.4650048,64.035 77.8050048,61.251 C79.5330048,57.664 82.1200048,54.68 85.0780048,52.215 C89.5090048,48.517 94.7650048,46.025 98.9010048,44.488 C100.968005,43.718 101.754893,43.464 103.014893,43.126 C103.643893,42.956 103.301005,43.0105327 103.637005,42.9335327 C103.648005,43.1205327 103.462005,50.81 102.532005,55.998 C101.609005,61.188 99.9080048,66.707 97.0230048,70.885 L98.6710048,72.019 L100.319005,73.152 C103.693005,68.234 105.475005,62.226 106.470005,56.704 C107.458005,51.18 107.636005,46.127 107.637005,43.126 C107.637005,41.375 107.576005,40.324 107.574005,40.291 L107.438005,38 L105.188005,38.446 C105.087005,38.469 99.4410048,39.586 92.7580048,42.735 C89.4160048,44.311 85.8120048,46.397 82.5170048,49.142 C79.2250048,51.885 76.2340048,55.299 74.2020048,59.515 C72.6260048,62.777 71.9980048,65.781 72.0000048,68.426 C71.9980048,72.394 73.4000048,75.487 74.7880048,77.543 C76.1790048,79.607 77.5540048,80.682 77.6700048,80.774 L77.7800048,80.858 L77.9010048,80.928 C78.0800048,81.023 80.8020048,82.577 84.8810048,82.587 C87.0950048,82.59 89.7090048,82.104 92.3890048,80.656 C95.0720048,79.212 97.7940048,76.825 100.319005,73.152 L98.6710048,72.019 L97.0230048,70.885 Z" id="Fill-376" fill="#2D2118"></path>
            <path d="M78.9812864,100.625816 C80.9222864,86.6988158 83.5802864,78.2888158 86.2602864,72.6968158 C88.9492864,67.0988158 91.6262864,64.2868158 94.0522864,61.2458158 C94.7402864,60.3828158 94.5992864,59.1238158 93.7352864,58.4358158 C92.8712864,57.7478158 91.6132864,57.8898158 90.9252864,58.7528158 C88.6642864,61.5908158 85.5572864,64.8928158 82.6532864,70.9688158 C79.7402864,77.0518158 76.9972864,85.8788158 75.0192864,100.073816 C74.8672864,101.167816 75.6302864,102.178816 76.7242864,102.330816 C77.8182864,102.483816 78.8282864,101.719816 78.9812864,100.625816" id="Fill-377" fill="#2D2118"></path>
            <path d="M87.1202953,49.6658987 C78.0602953,56.4188987 72.3572953,49.9648987 72.3572953,49.9648987 C72.3572953,49.9648987 68.0912953,43.5198987 74.6852953,36.8118987 C83.2082953,28.1408987 98.8522953,30.2178987 98.8522953,30.2178987 C98.8522953,30.2178987 95.1492953,43.6818987 87.1202953,49.6658987" id="Fill-378" fill="#518A32"></path>
            <path d="M85.926012,48.062 C83.083012,50.171 80.828012,50.74 79.067012,50.747 C77.384012,50.746 76.073012,50.201 75.155012,49.646 C74.699012,49.37 74.351012,49.093 74.128012,48.897 C74.017012,48.799 73.937012,48.722 73.891012,48.676 L72.957012,49.435 L73.856012,48.641 L72.957012,49.435 L73.856012,48.641 L72.358012,49.965 L74.025012,48.86 L73.443012,49.245 L74.033012,48.873 L73.443012,49.245 L74.033012,48.873 C74.018012,48.849 73.750012,48.417 73.495012,47.713 C73.239012,47.009 72.999012,46.04 73.000012,44.923 C73.001012,43.999 73.157012,42.974 73.615012,41.854 C74.074012,40.735 74.837012,39.511 76.111012,38.214 C78.657012,35.62 82.008012,34.047 85.407012,33.139 C88.3775542,32.3438195 95.8668072,31.9997515 96.1771851,32 C96.0861851,32.325 95.867012,33.349 94.010012,37.221 C93.083012,39.157 91.932012,41.232 90.573012,43.139 C89.215012,45.047 87.649012,46.78 85.926012,48.062 L88.316012,51.27 C90.552012,49.601 92.414012,47.478 93.979012,45.251 C96.322012,41.908 98.001012,38.314 99.114012,35.537 C100.226012,32.76 100.766012,30.801 100.781012,30.748 L101.388012,28.537 L99.116012,28.235 C99.049012,28.227 97.326012,28 94.702012,28 C91.962012,28.001 88.240012,28.243 84.374012,29.275 C80.515012,30.308 76.476012,32.141 73.259012,35.409 C71.657012,37.037 70.578012,38.712 69.913012,40.339 C69.246012,41.966 68.998012,43.534 69.000012,44.923 C69.000012,46.723 69.405012,48.22 69.811012,49.281 C70.218012,50.343 70.629012,50.976 70.690012,51.069 L70.766012,51.184 L70.858012,51.289 C70.954012,51.395 71.700012,52.226 73.080012,53.065 C74.454012,53.901 76.497012,54.747 79.067012,54.747 C81.757012,54.753 84.935012,53.799 88.316012,51.27 L87.121012,49.666 L85.926012,48.062 Z" id="Fill-379" fill="#2D2118"></path>
            <path d="M68.8160063,100.686437 C67.5660063,93.2784371 66.9990063,86.8204371 67.0000063,81.1444371 C67.0030063,71.0194371 68.7910063,63.3984371 71.7380063,57.1624371 C74.6870063,50.9284371 78.8240063,46.0334371 83.7000063,41.4584371 C84.5050063,40.7034371 84.5460063,39.4374371 83.7910063,38.6324371 C83.0350063,37.8264371 81.7700063,37.7854371 80.9650063,38.5404371 C75.8760063,43.3104371 71.3470063,48.6294371 68.1210063,55.4524371 C64.8920063,62.2734371 62.9960063,70.5534371 63.0000063,81.1444371 C63.0000063,87.0874371 63.5920063,93.7634371 64.8720063,101.351437 C65.0550063,102.440437 66.0870063,103.175437 67.1770063,102.991437 C68.2650063,102.807437 69.0000063,101.775437 68.8160063,100.686437" id="Fill-380" fill="#2D2118"></path>
            <path d="M80.671176,33.611 C71.546176,46.875 60.894176,40.784 60.894176,40.784 C60.894176,40.784 52.184176,34.049 58.003176,21.974 C65.523176,6.369 87.576176,2 87.576176,2 C87.576176,2 88.756176,21.859 80.671176,33.611" id="Fill-381" fill="#7DA334"></path>
            <path d="M79.0240048,32.886 C76.7920048,36.127 74.5500048,38.025 72.4910048,39.137 C70.4310048,40.245 68.5290048,40.586 66.8820048,40.589 C65.3720048,40.589 64.0820048,40.289 63.1870048,39.992 C62.7400048,39.844 62.3920048,39.698 62.1680048,39.594 C62.0560048,39.543 61.9750048,39.502 61.9270048,39.477 L61.2820048,40.516 L61.8880048,39.457 L61.2820048,40.516 L61.8880048,39.457 L60.8950048,41.193 L62.1180048,39.611 L61.6760048,40.184 L62.1270048,39.617 L61.6760048,40.184 L62.1270048,39.617 C62.0990048,39.597 61.0300048,38.732 60.0080048,37.162 C58.9820048,35.585 58.0020048,33.346 58.0000048,30.427 C58.0020048,28.408 58.4650048,26.035 59.8050048,23.252 C61.5330048,19.664 64.1190048,16.68 67.0770048,14.215 C71.5090048,10.518 76.7650048,8.025 80.9000048,6.488 C82.9680048,5.719 85.6360048,4.95483398 85.6360048,4.95483398 C85.6460048,5.14283398 85.6360048,4.95483398 85.6360048,5.127 C85.6360048,7.96500028 85.4620048,12.811 84.5310048,17.999 C83.6080048,23.189 81.9070048,28.708 79.0240048,32.887 L80.6720048,34.02 L82.3190048,35.153 C85.6930048,30.235 87.4740048,24.227 88.4690048,18.704 C89.4570048,13.181 89.6350048,8.128 89.6360048,5.127 C89.6360048,3.376 89.5750048,2.324 89.5730048,2.291 L89.4380048,0 L87.1880048,0.447 C87.0860048,0.469 81.4400048,1.587 74.7570048,4.735 C71.4160048,6.311 67.8120048,8.397 64.5160048,11.142 C61.2240048,13.886 58.2340048,17.299 56.2020048,21.515 C54.6260048,24.777 53.9980048,27.781 54.0000048,30.427 C53.9980048,34.395 55.4010048,37.488 56.7880048,39.544 C58.1790048,41.608 59.5550048,42.683 59.6720048,42.775 L59.7800048,42.859 L59.9020048,42.929 C60.0820048,43.024 62.8030048,44.578 66.8820048,44.589 C69.0950048,44.591 71.7100048,44.105 74.3900048,42.657 C77.0720048,41.213 79.7940048,38.827 82.3190048,35.154 L80.6720048,34.02 L79.0240048,32.886 Z" id="Fill-382" fill="#2D2118"></path>
            <path d="M61.302,95.4695022 C61.302,95.4695022 61.297,95.3965022 61.29,95.2455022 C61.232,94.1885022 61,89.4675022 61,82.8735022 C60.998,73.3305022 61.491,59.8485022 63.675,47.9375022 C64.764,41.9855022 66.28,36.4295022 68.308,32.0035022 C69.319,29.7905022 70.457,27.8615022 71.705,26.3015022 C72.954,24.7395022 74.305,23.5505022 75.757,22.7535022 C76.725,22.2215022 77.078,21.0055022 76.546,20.0375022 C76.015,19.0695022 74.799,18.7155022 73.831,19.2475022 C71.824,20.3505022 70.087,21.9195022 68.581,23.8045022 C65.945,27.1085022 63.976,31.3835022 62.428,36.2005022 C60.116,43.4275022 58.774,51.9025022 57.991,60.1785022 C57.211,68.4515022 57,76.5195022 57,82.8735022 C57,90.5165022 57.307,95.6775022 57.309,95.7075022 C57.375,96.8105022 58.322,97.6505022 59.424,97.5845022 C60.527,97.5195022 61.368,96.5725022 61.302,95.4695022" id="Fill-383" fill="#2D2118"></path>
            <path d="M14.731,80.6658648 C23.793,87.4188648 29.496,80.9648648 29.496,80.9648648 C29.496,80.9648648 33.762,74.5218648 27.167,67.8128648 C18.645,59.1408648 3,61.2178648 3,61.2178648 C3,61.2178648 6.703,74.6828648 14.731,80.6658648" id="Fill-384" fill="#518A32"></path>
            <path d="M13.073,82.27 C16.455,84.799 19.632,85.753 22.321,85.747 C24.891,85.747 26.935,84.902 28.309,84.066 C29.689,83.226 30.436,82.395 30.531,82.289 L30.622,82.186 L30.701,82.069 C30.762,81.975 31.172,81.342 31.579,80.281 C31.984,79.22 32.389,77.724 32.39,75.924 C32.391,74.535 32.142,72.967 31.475,71.34 C30.81,69.713 29.731,68.038 28.13,66.411 C24.913,63.142 20.874,61.308 17.015,60.275 C13.148,59.243 9.426,59.001 6.686,59 C4.061,59 2.339,59.227 2.273,59.235 L0,59.538 L0.608,61.748 C0.629,61.82 1.58,65.277 3.581,69.547 C4.583,71.683 5.848,74.023 7.411,76.252 C8.976,78.479 10.837,80.601 13.073,82.27 L15.463,79.062 C13.685,77.739 12.073,75.934 10.685,73.954 C8.6,70.986 7.023,67.638 5.989,65.05 C5.47,63.756 5.47055981,63.774 5.21755981,63 C5.34255981,62.984 4.442,62.999 6.686,63 C9.184,62.998 12.589,63.231 15.981,64.139 C19.381,65.047 22.732,66.62 25.277,69.214 C26.551,70.511 27.314,71.736 27.773,72.856 C28.231,73.976 28.388,75.001 28.389,75.924 C28.39,77.115 28.116,78.139 27.843,78.851 C27.707,79.207 27.573,79.483 27.479,79.658 C27.428,79.751 26.871,80.301 25.973,80.798 C25.07,81.297 23.851,81.746 22.321,81.747 C20.561,81.74 18.307,81.172 15.463,79.062 L14.268,80.666 L13.073,82.27 Z" id="Fill-385" fill="#2D2118"></path>
            <path d="M40.4686272,110.07555 C38.4906272,95.8795496 35.7486272,87.0535496 32.8356272,80.9705496 C29.9316272,74.8935496 26.8236272,71.5915496 24.5636272,68.7535496 C23.8746272,67.8895496 22.6166272,67.7475496 21.7526272,68.4365496 C20.8896272,69.1245496 20.7476272,70.3835496 21.4366272,71.2465496 C23.8626272,74.2865496 26.5386272,77.0995496 29.2276272,82.6985496 C31.9076272,88.2905496 34.5666272,96.6995496 36.5076272,110.62755 C36.6596272,111.72155 37.6696272,112.48455 38.7646272,112.33255 C39.8576272,112.18055 40.6216272,111.16955 40.4696272,110.07555 L40.4686272,110.07555" id="Fill-386" fill="#2D2118"></path>
            <path d="M17.966229,69.611 C27.091229,82.875 37.742229,76.784 37.742229,76.784 C37.742229,76.784 46.451229,70.048 40.633229,57.975 C33.113229,42.37 11.060229,38 11.060229,38 C11.060229,38 9.88022904,57.858 17.966229,69.611" id="Fill-387" fill="#7DA334"></path>
            <path d="M16.319,70.152 C18.844,73.826 21.566,76.212 24.247,77.656 C26.927,79.104 29.541,79.59 31.756,79.588 C35.833,79.577 38.556,78.023 38.736,77.928 L38.855,77.86 L38.967,77.774 C39.083,77.682 40.458,76.607 41.849,74.543 C43.236,72.487 44.638,69.394 44.637,65.426 C44.638,62.78 44.009,59.777 42.436,56.515 C40.404,52.299 37.413,48.886 34.121,46.142 C29.177,42.027 23.543,39.384 19.133,37.739 C14.722,36.097 11.525,35.461 11.45,35.446 L9.201,35 L9.064,37.288 C9.062,37.322 9,38.373 9,40.125 C9.001,43.126 9.179,48.179 10.167,53.702 C11.162,59.225 12.944,65.233 16.319,70.153 L19.615,67.885 C16.729,63.706 15.028,58.187 14.104,52.997 C13.174,47.809 12.999,42.8111445 13,39.9731445 C13.231,40.0181445 16.315,40.542 22.466,43.491 C25.542,44.964 28.801,46.889 31.698,49.331 C34.598,51.773 37.131,54.72 38.832,58.251 C40.171,61.034 40.635,63.408 40.636,65.426 C40.635,68.439 39.59,70.729 38.53,72.311 C38.001,73.097 37.471,73.695 37.086,74.085 C36.893,74.28 36.737,74.422 36.636,74.511 L36.529,74.602 L36.984,75.21 L36.519,74.61 L36.984,75.21 L36.519,74.61 L37.743,76.192 L36.751,74.455 L37.332,75.472 L36.761,74.45 L37.332,75.472 L36.761,74.45 C36.526,74.581 34.493,75.595 31.756,75.587 C30.108,75.585 28.206,75.244 26.146,74.136 C24.088,73.024 21.847,71.126 19.615,67.885 L17.967,69.019 L16.319,70.152 Z" id="Fill-388" fill="#2D2118"></path>
            <path d="M41.4685496,97.0742367 C39.4905496,82.8792367 36.7475496,74.0532367 33.8345496,67.9702367 C30.9305496,61.8942367 27.8235496,58.5922367 25.5645496,55.7532367 C24.8755496,54.8902367 23.6175496,54.7472367 22.7535496,55.4362367 C21.8895496,56.1242367 21.7475496,57.3832367 22.4365496,58.2462367 C24.8625496,61.2872367 27.5385496,64.1002367 30.2275496,69.6982367 C32.9075496,75.2902367 35.5655496,83.6992367 37.5065496,97.6262367 C37.6585496,98.7202367 38.6695496,99.4842367 39.7635496,99.3312367 C40.8575496,99.1792367 41.6205496,98.1682367 41.4685496,97.0742367" id="Fill-389" fill="#2D2118"></path>
            <path d="M27.731,51.6658987 C36.792,58.4188987 42.495,51.9648987 42.495,51.9648987 C42.495,51.9648987 46.76,45.5218987 40.166,38.8118987 C31.643,30.1408987 16,32.2178987 16,32.2178987 C16,32.2178987 19.703,45.6828987 27.731,51.6658987" id="Fill-390" fill="#518A32"></path>
            <path d="M26.072,53.269 C29.453,55.799 32.631,56.754 35.321,56.747 C37.891,56.747 39.934,55.902 41.308,55.066 C42.688,54.227 43.435,53.396 43.53,53.29 L43.621,53.187 L43.699,53.069 C43.761,52.975 44.171,52.343 44.578,51.281 C44.983,50.221 45.387,48.724 45.388,46.924 C45.389,45.535 45.141,43.967 44.474,42.34 C43.809,40.713 42.73,39.038 41.129,37.41 C37.912,34.142 33.873,32.309 30.014,31.276 C26.147,30.244 22.426,30.002 19.686,30 C17.061,30.001 15.339,30.227 15.273,30.236 L13,30.538 L13.608,32.749 C13.629,32.82 14.58,36.278 16.581,40.548 C17.583,42.683 18.848,45.023 20.411,47.252 C21.975,49.479 23.837,51.601 26.073,53.269 L28.463,50.062 C26.685,48.739 25.073,46.934 23.685,44.954 C21.6,41.986 20.023,38.638 18.988,36.05 C18.47,34.757 18.456125,34.773 18.203125,34 C18.2574645,33.9930998 19.5199445,34 19.686,34 C22.183,33.999 25.588,34.231 28.981,35.14 C32.38,36.047 35.731,37.62 38.276,40.214 C39.549,41.511 40.313,42.736 40.772,43.856 C41.229,44.976 41.387,46.001 41.388,46.924 C41.389,48.116 41.115,49.139 40.842,49.852 C40.706,50.207 40.571,50.483 40.478,50.659 L40.374,50.843 L40.944,51.246 L40.364,50.862 L40.944,51.246 L40.364,50.862 L42.032,51.965 L40.533,50.641 L41.438,51.44 L40.544,50.628 L41.438,51.44 L40.544,50.628 C40.427,50.752 39.87,51.301 38.971,51.798 C38.068,52.297 36.85,52.746 35.321,52.747 C33.56,52.74 31.306,52.172 28.463,50.062 L27.268,51.666 L26.072,53.269 Z" id="Fill-391" fill="#2D2118"></path>
            <path d="M49.5048158,102.737738 C50.5638158,96.4597383 51.0158158,90.5997383 51.0158158,85.1747383 C51.0158158,72.8317383 48.6718158,62.7497383 45.8208158,55.1277383 C42.9658158,47.4997383 39.6268158,42.3467383 37.5638158,39.7537383 C36.8758158,38.8897383 35.6168158,38.7477383 34.7528158,39.4357383 C33.8898158,40.1237383 33.7478158,41.3827383 34.4358158,42.2467383 C36.2128158,44.4727383 39.3818158,49.3187383 42.0748158,56.5287383 C44.7718158,63.7437383 47.0158158,73.3397383 47.0158158,85.1747383 C47.0158158,90.3767383 46.5828158,96.0127383 45.5608158,102.072738 C45.3768158,103.161738 46.1108158,104.193738 47.2008158,104.376738 C48.2898158,104.560738 49.3208158,103.826738 49.5048158,102.737738" id="Fill-392" fill="#2D2118"></path>
            <path d="M30.966229,40.611 C40.091229,53.875 50.742229,47.785 50.742229,47.785 C50.742229,47.785 59.451229,41.049 53.633229,28.975 C46.113229,13.37 24.060229,9 24.060229,9 C24.060229,9 22.880229,28.86 30.966229,40.611" id="Fill-393" fill="#7DA334"></path>
            <path d="M29.319,42.152 C31.844,45.825 34.566,48.212 37.248,49.656 C39.928,51.104 42.542,51.59 44.756,51.588 C48.832,51.577 51.556,50.023 51.735,49.929 L51.857,49.859 L51.967,49.774 C52.083,49.682 53.458,48.607 54.849,46.543 C56.236,44.487 57.638,41.394 57.636,37.426 C57.638,34.78 57.009,31.776 55.435,28.514 C53.403,24.298 50.413,20.884 47.121,18.141 C42.177,14.026 36.544,11.384 32.133,9.738 C27.722,8.096 24.526,7.461 24.45,7.445 L22.201,7 L22.065,9.288 C22.063,9.321 22.001,10.374 22,12.128 C22.001,15.13 22.18,20.183 23.168,25.705 C24.163,31.227 25.945,37.234 29.319,42.152 L32.614,39.885 C29.729,35.707 28.028,30.19 27.105,25 C26.175,19.813 25.987,12.3953877 26.001,11.9473877 C26.233,11.9923877 29.316,12.542 35.467,15.491 C38.542,16.963 41.801,18.889 44.698,21.33 C47.599,23.772 50.131,26.719 51.832,30.25 C53.17,33.033 53.634,35.408 53.636,37.426 C53.634,40.439 52.589,42.729 51.53,44.311 C51.001,45.097 50.471,45.696 50.085,46.085 C49.892,46.28 49.736,46.423 49.636,46.511 L49.529,46.602 L49.962,47.183 L49.519,46.61 L49.962,47.183 L49.519,46.61 L50.743,48.192 L49.75,46.456 L50.331,47.472 L49.761,46.45 L50.331,47.472 L49.761,46.45 C49.525,46.581 47.493,47.595 44.756,47.587 C43.108,47.585 41.206,47.244 39.146,46.135 C37.088,45.024 34.846,43.126 32.614,39.885 L30.967,41.018 L29.319,42.152 Z" id="Fill-394" fill="#2D2118"></path>
            <path d="M55.4387383,103.032738 C57.6227383,93.4557383 58.5287383,84.9167383 58.5287383,77.3307383 C58.5327383,61.8537383 54.7437383,50.3477383 50.4477383,42.1447383 C48.3017383,38.0427383 46.0317383,34.7637383 44.0657383,32.2167383 C43.0827383,30.9437383 42.1757383,29.8527383 41.4027383,28.9397383 C40.6307383,28.0287383 39.9907383,27.2887383 39.5637383,26.7537383 C38.8757383,25.8897383 37.6167383,25.7477383 36.7537383,26.4357383 C35.8897383,27.1247383 35.7477383,28.3827383 36.4357383,29.2467383 C36.9507383,29.8917383 37.5937383,30.6317383 38.3497383,31.5247383 C40.9847383,34.6377383 44.9977383,39.6007383 48.3877383,47.0357383 C51.7707383,54.4697383 54.5257383,64.3577383 54.5277383,77.3307383 C54.5277383,84.5977383 53.6617383,92.8347383 51.5387383,102.143738 C51.2937383,103.220738 51.9677383,104.292738 53.0447383,104.538738 C54.1217383,104.783738 55.1937383,104.109738 55.4397383,103.032738" id="Fill-395" fill="#2D2118"></path>
            <path d="M93.059,93.751 C92.372,93.751 91.721,93.878 91.121,94.107 C90.293,93.297 89.136,92.791 87.853,92.791 C87.647,92.791 87.445,92.809 87.245,92.835 C86.333,89.611 83.241,87.235 79.557,87.235 C76.876,87.235 74.511,88.495 73.067,90.419 C71.084,87.749 67.817,86 64.114,86 C59.959,86 56.344,88.195 54.489,91.429 C53.522,90.871 52.389,90.544 51.174,90.544 C49.305,90.544 47.628,91.31 46.46,92.524 C45.75,90.699 43.908,89.396 41.739,89.396 C40.495,89.396 39.36,89.825 38.481,90.534 C37.299,88.565 35.072,87.235 32.514,87.235 C29.063,87.235 26.213,89.655 25.729,92.803 L25.492,92.791 C21.906,92.791 19,95.55 19,98.952 C19,102.354 21.906,105.114 25.492,105.114 C28.615,105.114 91.221,103.628 93.059,103.628 C95.933,103.628 98.263,101.417 98.263,98.689 C98.263,95.962 95.933,93.751 93.059,93.751" id="Fill-396" fill="#50341D"></path>
            <path d="M93.059003,91.751 C92.125003,91.75 89.666003,90.791 87.853003,90.791 C87.526003,90.791 84.109003,85.237 79.557003,85.235 C76.243003,85.236 74.876003,84.971 73.056003,87.396 C70.698003,84.22 68.452003,84.001 64.114003,84 C59.247003,84.002 55.9574033,85.111 53.7384033,88.977 C52.4794033,88.249 52.749003,88.543 51.174003,88.544 C48.753003,88.544 49.437003,89.539 47.901003,91.138 L45.019003,91.138 L47.901003,91.138 C46.880003,88.522 44.718003,87.398 41.739003,87.396 C40.032003,87.396 38.450003,87.987 37.225003,88.977 L38.481003,90.534 L40.195003,89.505 C38.648003,86.929 35.773003,85.237 32.514003,85.235 C30.318003,85.235 28.289003,86.007 26.732003,87.299 C25.175003,88.588 25.714003,88.708 25.393003,90.793 C23.183003,90.791 21.066003,91.681 19.525003,93.145 C17.983003,94.603 16.998003,96.673 17.000003,98.952 C16.998003,101.231 17.982003,103.301 19.524003,104.759 C21.066003,106.223 23.182003,107.114 25.492003,107.114 C25.933003,107.114 27.234003,107.09 29.257003,107.05 C36.313003,106.907 51.870003,106.552 65.868003,106.232 C72.866003,106.072 79.474003,105.921 84.432003,105.809 C86.911003,105.754 88.978003,105.708 90.474003,105.677 C91.222003,105.661 91.827003,105.649 92.269003,105.64 C92.706003,105.632 93.001003,105.627 93.059003,105.628 C95.012003,105.628 96.807003,104.874 98.115003,103.632 C99.424003,102.395 100.264003,100.631 100.263003,98.689 C100.264003,96.748 99.424003,94.983 98.115003,93.746 C96.807003,92.504 95.012003,91.751 93.059003,91.751 L93.059003,95.751 C93.979003,95.751 94.786003,96.103 95.362003,96.648 C95.936003,97.198 96.261003,97.903 96.262003,98.689 C96.261003,99.475 95.936003,100.18 95.362003,100.731 C94.786003,101.276 93.979003,101.628 93.059003,101.628 C92.898003,101.628 92.561003,101.634 91.992003,101.645 C87.780003,101.727 71.882003,102.094 56.663003,102.441 C49.053003,102.614 41.616003,102.783 35.899003,102.908 C33.040003,102.97 30.611003,103.022 28.807003,103.058 C27.010003,103.094 25.809003,103.114 25.492003,103.114 C24.216003,103.114 23.087003,102.625 22.279003,101.858 C21.471003,101.086 21.002003,100.075 21.000003,98.952 C21.002003,97.828 21.470003,96.818 22.278003,96.046 C23.087003,95.28 24.216003,94.791 25.492003,94.791 L27.431003,94.889 L27.705003,93.107 C27.869003,92.044 28.433003,91.086 29.285003,90.378 C30.137003,89.673 31.258003,89.236 32.514003,89.235 C34.371003,89.234 35.949003,90.202 36.766003,91.563 L37.948003,93.533 L39.736003,92.091 C40.268003,91.662 40.958003,91.397 41.739003,91.396 C43.099003,91.394 44.197003,92.215 44.596003,93.249 L45.730003,96.167 L47.901003,93.911 C48.700003,93.081 49.856003,92.544 51.174003,92.544 C52.028003,92.544 52.813003,92.772 53.488003,93.161 L55.224003,94.165 L56.223003,92.425 C57.714003,89.822 60.671003,87.998 64.114003,88 C67.180003,87.999 69.854003,89.447 71.461003,91.611 L73.056003,93.761 L74.666003,91.619 C75.735003,90.196 77.509003,89.234 79.557003,89.235 C82.374003,89.233 84.669003,91.054 85.321003,93.379 L85.789003,95.036 L87.498003,94.819 C87.650003,94.799 87.767003,94.791 87.853003,94.791 C88.606003,94.791 89.260003,95.085 89.722003,95.536 L90.638003,96.433 L91.836003,95.975 C92.214003,95.831 92.619003,95.751 93.059003,95.751 L93.059003,93.751 L93.059003,91.751 Z" id="Fill-397" fill="#2D2118"></path>
            <path d="M98.071,100 C98.071,144.019 85.314,161.953 58.536,161.953 C29.882,161.953 19,133.422 19,100 L98.071,100" id="Fill-398" fill="#217695"></path>
            <path d="M93.701,127.849 C92.518,133.619 90.894,138.51 88.853,142.583 C85.782,148.695 81.816,152.96 76.847,155.775 C71.877,158.584 65.823,159.952 58.537,159.953 C51.703,159.949 46.064,158.268 41.341,155.283 C37.8,153.041 34.766,150.046 32.191,146.397 C28.328,140.927 25.515,133.978 23.685,126.062 C21.852,118.149 21,109.278 21.001,100 L19.001,100 L19.001,102 C71.1951955,102 96.8851955,102 96.071,102 C96.071,102 96.071,101.333333 96.071,100 L96.071,102 L98.072,98 L17,98 L17,100 C17.009,116.927 19.727,132.702 26.277,144.483 C29.554,150.368 33.821,155.257 39.201,158.663 C44.577,162.072 51.044,163.958 58.537,163.953 C65.45,163.954 71.58,162.795 76.873,160.268 C80.84,158.376 84.32,155.711 87.257,152.272 C91.669,147.11 94.862,140.251 96.96,131.604 C99.057,122.952 100.07,112.489 100.072,100 L100.072,98 L98.072,98 L96.071,102 C96.072,112.908 95.279,120.157 93.701,127.849 Z" id="Fill-399" fill="#2D2118"></path>
            <path d="M58.523,159.953 C51.689,159.949 46.05,158.268 41.327,155.283 C37.786,153.041 34.752,150.046 32.177,146.397 C28.314,140.927 25.501,133.978 23.671,126.062 C21.97,118.719 21.114,110.552 21,102 L42.714,102 C38.547,109.135 36.684,117.83 37.641,125.626 C38.588,133.355 43.363,140.505 48.935,145.714 C51.779,148.372 55.098,150.057 58.667,151.517 C61.049,152.49 63.346,153.448 65.367,155.074 C66.228,155.766 67.316,157.479 67.66,159.107 C64.857,159.673 61.815,159.953 58.523,159.953" id="Fill-400" fill="#05617D"></path>
            <path d="M58.536,161.953 C29.882,161.953 19,133.422 19,100 L43.984,100 C43.544,100.651 43.125,101.318 42.727,102 L21.013,102 C21.127,110.552 21.983,118.719 23.684,126.062 C25.514,133.978 28.327,140.927 32.19,146.397 C34.765,150.046 37.799,153.041 41.34,155.283 C46.063,158.268 51.702,159.949 58.536,159.953 C61.828,159.953 64.87,159.673 67.673,159.107 C67.827,159.84 67.831,160.555 67.595,161.152 C64.775,161.687 61.76,161.953 58.536,161.953" id="Fill-401" fill="#1E1811"></path>
            <path d="M79.951,151.793 C78.949,150.718 78.27,149.332 78.133,148.004 C77.673,143.574 80.731,138.847 82.756,135.111 C84.929,131.1 86.37,127.18 86.652,122.603 C86.872,119.032 87.083,114.691 85.639,111.328 C83.735,106.891 80.341,106.013 76.44,106.013 C75.074,106.013 73.645,106.121 72.197,106.221 C70.562,106.334 68.148,106.632 65.766,106.632 C62.197,106.632 58.699,105.963 58,103 L95.205,103 C95.205,128.645 90.226,144.211 79.951,151.793" id="Fill-402" fill="#619AB5"></path>
            <path d="M45.046,162.732 C51.974,162.732 69.704,162.732 73.781,162.732 C77.856,162.732 79.469,157 79.469,157 L38,157 C38,157 38.117,162.732 45.046,162.732" id="Fill-403" fill="#217695"></path>
            <path d="M45.087,164.732 C52.015,164.732 69.745,164.732 73.822,164.732 C75.319,164.738 76.637,164.182 77.621,163.443 C79.108,162.325 79.992,160.866 80.577,159.701 C81.155,158.53 81.411,157.622 81.435,157.542 L82.15,155 L36,155 L36.041,157.04 C36.044,157.141 36.059,157.624 36.215,158.329 C36.449,159.375 37.002,160.968 38.417,162.352 C39.121,163.039 40.037,163.652 41.155,164.074 C42.273,164.497 43.582,164.733 45.087,164.732 L45.087,160.732 C43.627,160.73 42.679,160.438 42.02,160.081 C41.526,159.81 41.428,159.34 41.155,159 C41.1173284,158.952957 52.8429951,158.970957 76.332,159.054 L79.51,159 L76.332,159.054 C75.974,159.572 75.552,160.022 75.133,160.305 C74.705,160.59 74.322,160.728 73.822,160.732 C69.745,160.732 52.014,160.732 45.087,160.732 L45.087,162.732 L45.087,164.732 Z" id="Fill-404" fill="#2D2118"></path>
            <path d="M46.116,135.384 C46.116,136.699 43.852,137.767 41.058,137.767 C38.265,137.767 36,136.699 36,135.384 C36,134.067 38.265,133 41.058,133 C43.852,133 46.116,134.067 46.116,135.384" id="Fill-177" fill="#EE9E80"></path>
            <path d="M85.116,135.384 C85.116,136.699 82.85,137.767 80.059,137.767 C77.266,137.767 75,136.699 75,135.384 C75,134.067 77.266,133 80.059,133 C82.85,133 85.116,134.067 85.116,135.384" id="Fill-178" fill="#EE9E80"></path>
            <path d="M51,137 C51,140.005437 53.6579585,145.715288 59.9756593,145.715288 C66.292206,145.715288 68.9490103,140.005437 68.9490103,137 L51,137" id="Fill-312" fill="#DF5332"></path>
            <path d="M51.2360719,137.283247 L50,137.283247 C50.0023083,138.229492 50.1996643,139.278877 50.5932222,140.366638 C51.1852902,141.991685 52.2263144,143.700683 53.8213203,145.0343 C55.4105556,146.367918 57.5722387,147.287779 60.2117312,147.282981 C61.9694693,147.284181 63.5194642,146.881217 64.8247838,146.21081 C66.7868027,145.2058 68.1821444,143.627526 69.0812106,142.002479 C69.9814311,140.367838 70.4142294,138.697218 70.42,137.283247 C70.42,136.940248 70.2918917,136.618837 70.0587577,136.37538 C69.8244696,136.133122 69.5140089,136 69.1850822,136 L51.2360719,136 C50.9106076,136 50.592068,136.13672 50.3623964,136.37538 C50.1315707,136.61404 50,136.945046 50,137.283247 L51.2360719,137.283247 L51.2360719,138.567694 L69.1850822,138.567694 L69.1850822,137.283247 L67.9490103,137.283247 C67.9501645,137.84092 67.8174397,138.631256 67.5139038,139.45997 C67.0626395,140.708438 66.243208,142.040856 65.0521472,143.032675 C63.8564698,144.023293 62.3099373,144.709291 60.2117312,144.714088 C58.8106189,144.712889 57.6587984,144.402271 56.6904844,143.906962 C55.2397445,143.165796 54.1802543,141.98329 53.4808523,140.720431 C52.779142,139.468365 52.465219,138.123954 52.4709897,137.283247 L51.2360719,137.283247 L51.2360719,138.567694 L51.2360719,137.283247" id="Fill-313" fill="#1D1209"></path>
            <path d="M67.5490522,141.442194 C68.5000543,139.890305 68.9490103,138.224482 68.9490103,137 L51,137 C51,138.224482 51.4489561,139.890305 52.3999582,141.442194 L67.5490522,141.442194 L67.7611938,138.731976" id="Fill-314" fill="#FFFFFE"></path>
            <path d="M68.8273023,142.416236 C69.8948714,140.659267 70.4119211,138.821945 70.42,137.283247 C70.42,136.940248 70.2918917,136.618837 70.0587577,136.37538 C69.8244696,136.133122 69.5140089,136 69.1850822,136 L51.2360719,136 C50.9106076,136 50.592068,136.13672 50.3623964,136.37538 C50.1315707,136.61404 50,136.945046 50,137.283247 C50.0080789,138.821945 50.5251286,140.659267 51.5938518,142.416236 C51.8189069,142.78562 52.2147731,143.009888 52.6360301,143.009888 L67.7851241,143.009888 C68.2063811,143.009888 68.599939,142.78442 68.8273023,142.416236 L67.1126496,140.442194 L53.3143163,140.442194 C52.3428447,139.088715 52.3428447,138.567694 52.3428447,138.567694 L52.6360301,138.567694 L67.7851241,138.567694 C67.7185105,139.065775 67.6766906,139.202791 67.6130022,139.405888 C67.5568469,139.584963 67.504183,139.811117 67.1126496,140.442194 L67.7851241,140.442194 L67.1126496,140.442194 L68.8273023,142.416236 Z" id="Fill-315" fill="#1D1209"></path>
            <g id="heart" transform="translate(26.000000, 107.000000)">
                <path d="M54.5,3.767913 C53.6834882,2.14260202 51.9823261,1 50.0077475,1 C47.2431075,1 45,3.19656413 45,5.90579134 C45,12.626748 54.5,17 54.5,17 C54.5,17 64,12.1923928 64,5.90579134 C64,3.19656413 61.7574675,1 58.9922525,1 C57.0170989,1 55.3153618,2.14260202 54.5,3.767913 Z" id="Fill-63" fill="#DE4344"></path>
                <path d="M58.8125541,6.58589211e-07 C57.5964828,-0.000565686603 56.4521725,0.364160617 55.4966485,0.9905384 C54.5400205,1.61634984 54.5,2.06563204 54.500276,2.06563204 C54.4588755,2.06563204 54.4588755,1.61634984 53.5027995,0.9905384 C52.5467235,0.364160617 51.4029652,-0.000565686603 50.1874459,6.58589211e-07 C48.4834006,-0.000565686603 46.927845,0.713029256 45.8127911,1.85931192 C44.694977,3.00332921 43.9994483,4.59928997 44.0000003,6.34759757 C44.0000003,8.3705826 44.6850409,10.1857189 45.6427729,11.7171163 C47.085719,14.0193095 49.1375288,15.7625201 50.8266699,16.9722334 C52.5174671,18.1779823 53.858292,18.8377744 53.9041085,18.8604283 C54.2993455,19.0546847 54.7541992,19.0456231 55.141708,18.8366418 C55.1963567,18.8054928 57.5479062,17.5419766 59.9618325,15.4074216 C61.1685196,14.3370292 62.395079,13.0480275 63.351707,11.540983 C64.3044709,10.0379028 64.9983437,8.28506448 64.9999997,6.34759757 C65.0005517,4.59928997 64.305023,3.00332921 63.1872089,1.85931192 C62.0716029,0.713029256 60.5165994,-0.000565686603 58.8125541,6.58589211e-07 L58.8125541,2.83172662 C59.76311,2.83285931 60.6109926,3.22307115 61.2358645,3.86190852 C61.8585283,4.50244494 62.3924574,5.37235103 62.3924574,6.34759757 C62.3924574,7.5539785 61.7955995,8.80157129 61.037694,9.99769234 C59.9093918,11.7884758 58.0993611,13.4155856 56.573614,14.549975 C55.8112924,15.1191519 55.1218358,15.570529 54.6288936,15.8757891 C54.3821465,16.0287023 54.5835799,15.9044773 54.4505462,15.9815003 C54.3837534,16.0194454 52.823279,15.1621941 50.7278607,13.3283684 C49.6790475,12.4142873 48.6611468,11.3218074 47.9319456,10.1336152 C47.2005365,8.94145855 46.7600349,7.68247319 46.7600349,6.34759757 C46.7605869,5.37235115 47.1414717,4.50244494 47.7641355,3.86190852 C48.3884554,3.22307115 49.23689,2.83285931 50.1874459,2.83172662 C50.8669664,2.83229297 51.4879742,3.03164647 52.0184529,3.37824973 C52.5483795,3.72428664 52.982257,4.21983869 53.2615725,4.80317423 C53.4950714,5.28909841 53.9725574,5.59379212 54.500276,5.59379212 C55.0285466,5.59379212 55.5054806,5.28853206 55.7384275,4.80260789 C56.017191,4.21927234 56.4505165,3.72428664 56.9804431,3.37824973 C57.5114738,3.03164647 58.1319295,2.83229297 58.8125541,2.83172662 L58.8125541,1.41586364 L58.8125541,6.58589211e-07 Z" id="Fill-64" fill="#20160E"></path>
                <path d="M62.9026674,7.96961688 C62.7646178,8.33558625 62.7292771,5.29383124 60.2742025,4.30875394 C58.459126,3.57973827 56.8693465,4.37364627 57.0085006,4.00826151 C57.1476546,3.64229214 59.212877,2.53444556 60.7016042,3.21844583 C63.3990939,4.45958476 63.0440302,7.60364751 62.9026674,7.96961688" id="Fill-65" fill="#FFFFFE"></path>
                <path d="M10.5,3.767913 C9.68348818,2.14260202 7.98232606,1 6.00774748,1 C3.24310747,1 1,3.19656413 1,5.90579134 C1,12.626748 10.5,17 10.5,17 C10.5,17 20,12.1923928 20,5.90579134 C20,3.19656413 17.7574675,1 14.9922525,1 C13.0170989,1 11.3153618,2.14260202 10.5,3.767913 Z" id="Fill-63" fill="#DE4344"></path>
                <path d="M14.8125541,6.58589211e-07 C13.5964828,-0.000565686603 12.4521725,0.364160617 11.4966485,0.9905384 C10.5400205,1.61634984 10.5,2.06563204 10.500276,2.06563204 C10.4588755,2.06563204 10.4588755,1.61634984 9.50279949,0.9905384 C8.54672351,0.364160617 7.40296516,-0.000565686603 6.18744592,6.58589211e-07 C4.48340055,-0.000565686603 2.92784504,0.713029256 1.81279106,1.85931192 C0.694977043,3.00332921 -0.00055167859,4.59928997 3.28332041e-07,6.34759757 C3.28332041e-07,8.3705826 0.685040919,10.1857189 1.64277293,11.7171163 C3.08571902,14.0193095 5.13752875,15.7625201 6.82666994,16.9722334 C8.51746714,18.1779823 9.85829195,18.8377744 9.90410853,18.8604283 C10.2993455,19.0546847 10.7541992,19.0456231 11.141708,18.8366418 C11.1963567,18.8054928 13.5479062,17.5419766 15.9618325,15.4074216 C17.1685196,14.3370292 18.395079,13.0480275 19.351707,11.540983 C20.3044709,10.0379028 20.9983437,8.28506448 20.9999997,6.34759757 C21.0005517,4.59928997 20.305023,3.00332921 19.1872089,1.85931192 C18.0716029,0.713029256 16.5165994,-0.000565686603 14.8125541,6.58589211e-07 L14.8125541,2.83172662 C15.76311,2.83285931 16.6109926,3.22307115 17.2358645,3.86190852 C17.8585283,4.50244494 18.3924574,5.37235103 18.3924574,6.34759757 C18.3924574,7.5539785 17.7955995,8.80157129 17.037694,9.99769234 C15.9093918,11.7884758 14.0993611,13.4155856 12.573614,14.549975 C11.8112924,15.1191519 11.1218358,15.570529 10.6288936,15.8757891 C10.3821465,16.0287023 10.5835799,15.9044773 10.4505462,15.9815003 C10.3837534,16.0194454 8.82327897,15.1621941 6.7278607,13.3283684 C5.67904754,12.4142873 4.66114678,11.3218074 3.93194564,10.1336152 C3.20053646,8.94145855 2.76003494,7.68247319 2.76003494,6.34759757 C2.76058695,5.37235115 3.14147172,4.50244494 3.76413553,3.86190852 C4.38845536,3.22307115 5.23689,2.83285931 6.18744592,2.83172662 C6.86696644,2.83229297 7.48797423,3.03164647 8.01845288,3.37824973 C8.54837953,3.72428664 8.98225697,4.21983869 9.26157247,4.80317423 C9.4950714,5.28909841 9.97255739,5.59379212 10.500276,5.59379212 C11.0285466,5.59379212 11.5054806,5.28853206 11.7384275,4.80260789 C12.017191,4.21927234 12.4505165,3.72428664 12.9804431,3.37824973 C13.5114738,3.03164647 14.1319295,2.83229297 14.8125541,2.83172662 L14.8125541,1.41586364 L14.8125541,6.58589211e-07 Z" id="Fill-64" fill="#20160E"></path>
                <path d="M18.9026674,7.96961688 C18.7646178,8.33558625 18.7292771,5.29383124 16.2742025,4.30875394 C14.459126,3.57973827 12.8693465,4.37364627 13.0085006,4.00826151 C13.1476546,3.64229214 15.212877,2.53444556 16.7016042,3.21844583 C19.3990939,4.45958476 19.0440302,7.60364751 18.9026674,7.96961688" id="Fill-65" fill="#FFFFFE"></path>
            </g>
        </g>
    </g>
</svg>
