<svg viewBox="0 0 93 130" version="1.1" xmlns="http://www.w3.org/2000/svg" xmlns:xlink="http://www.w3.org/1999/xlink" preserveAspectRatio="xMidYMin meet">
    <defs>
        <path d="M27.709,23.646 C22.158,10.934 7.991,3.571 1.322,0.706 C1.139,0.517 0.962,0.341 0.792,0.178 C1.489,0.133 2.295,0.101 3.186,0.101 C3.188,0.101 3.19,0.101 3.192,0.101 C3.195,0.101 3.198,0.101 3.201,0.101 C4.765,0.101 6.591,0.198 8.554,0.484 C9.586,2.227 11.076,3.598 12.734,4.666 C15.935,6.724 19.808,7.752 22.9,8.306 C23.66,8.441 24.372,8.546 25.015,8.628 C25.207,8.831 25.397,9.039 25.585,9.252 C26.774,10.604 27.534,12.045 28.006,13.504 C28.477,14.962 28.654,16.439 28.654,17.831 C28.655,19.773 28.307,21.544 27.956,22.817 C27.872,23.124 27.788,23.401 27.709,23.646 Z" id="path-1"></path>
    </defs>
    <g id="Page-1" stroke="none" stroke-width="1" fill="none" fill-rule="evenodd">
        <g id="iStock-928181060" transform="translate(-36.000000, -143.000000)">
            <path d="M74.074,232.548 C74.088,232.492 75.024,229.122 75.025,224.386 C75.024,221.052 74.56,217.036 72.953,213.033 C71.349,209.032 68.584,205.048 64.049,201.859 L62.955,203.413 C67.174,206.386 69.696,210.031 71.189,213.742 C72.68,217.45 73.125,221.228 73.124,224.386 C73.124,226.628 72.9,228.556 72.678,229.915 C72.567,230.595 72.456,231.133 72.374,231.497 C72.333,231.679 72.299,231.818 72.276,231.91 L72.249,232.011 L72.242,232.039 L74.074,232.548" id="Fill-393" fill="#1D1209"></path>
            <path d="M59.83,234.755 C59.361,233.562 60.011,231.049 62.789,230.359 C63.787,230.11 64.634,230.696 65.434,231.281 C66.211,231.848 66.944,232.416 67.731,232.223 C67.766,232.215 69.041,230.444 69.447,230.18 C70.207,229.682 71.428,229.424 72.296,229.409 C73.402,229.386 74.127,230.084 75.096,230.185 C76.615,230.342 75.918,230.33 77.294,229.693 C78.799,228.993 80.145,227.662 82.053,228.208 C82.84,228.432 83.297,229.59 84.121,229.702 C85.615,229.909 85.295,228.742 86.502,228.208 C88.377,227.38 90.116,228.153 91.552,229.401 C93.419,231.025 92.923,229.446 95.586,229.051 C97.904,228.708 99.851,227.634 101.646,229.646 C102.621,230.736 104.353,232.614 104.271,235.586 C104.188,238.559 59.83,234.755 59.83,234.755" id="Fill-394" fill="#50341D"></path>
            <path d="M59.83,234.755 L61.156,234.232 C61.144,234.204 61.114,234.092 61.116,233.94 C61.113,233.613 61.238,233.132 61.542,232.728 C61.851,232.322 62.31,231.952 63.132,231.743 L63.262,231.726 C63.363,231.725 63.511,231.756 63.745,231.876 C64.095,232.049 64.561,232.417 65.114,232.81 C65.395,233.004 65.704,233.207 66.076,233.377 C66.445,233.546 66.895,233.686 67.411,233.687 C67.626,233.687 67.85,233.661 68.065,233.609 L67.731,232.223 L68.049,233.613 C68.34,233.539 68.435,233.461 68.516,233.413 C68.659,233.316 68.691,233.276 68.729,233.242 L68.829,233.136 L68.978,232.949 C69.153,232.722 69.459,232.314 69.757,231.943 C69.905,231.759 70.05,231.586 70.16,231.464 L70.283,231.335 L70.295,231.324 L69.86,230.816 L70.223,231.376 L70.295,231.324 L69.86,230.816 L70.223,231.376 L70.229,231.373 C70.41,231.249 70.781,231.094 71.18,230.996 C71.58,230.894 72.015,230.838 72.321,230.834 L72.326,230.834 L72.348,230.833 C72.578,230.833 72.809,230.902 73.215,231.074 C73.613,231.234 74.168,231.516 74.948,231.603 C75.436,231.651 75.669,231.69 76.019,231.695 C76.199,231.697 76.448,231.672 76.673,231.598 C76.841,231.544 76.973,231.477 77.066,231.427 C77.207,231.35 77.284,231.3 77.399,231.236 C77.513,231.172 77.663,231.093 77.892,230.987 L77.895,230.986 C78.661,230.625 79.277,230.208 79.816,229.928 C80.358,229.642 80.774,229.504 81.159,229.506 C81.313,229.506 81.471,229.525 81.661,229.579 L81.729,229.346 L81.604,229.557 L81.663,229.58 L81.729,229.346 L81.604,229.557 C81.607,229.558 81.676,229.606 81.775,229.706 C81.93,229.854 82.141,230.106 82.456,230.389 C82.615,230.531 82.806,230.682 83.048,230.817 C83.29,230.952 83.59,231.07 83.928,231.115 L83.925,231.115 C84.101,231.139 84.273,231.152 84.446,231.152 C84.938,231.16 85.472,231.018 85.867,230.751 C86.164,230.556 86.365,230.331 86.504,230.158 C86.711,229.892 86.811,229.734 86.882,229.658 C86.956,229.58 86.972,229.564 87.078,229.513 C87.446,229.351 87.766,229.291 88.082,229.29 C88.472,229.29 88.871,229.388 89.302,229.589 C89.73,229.79 90.18,230.097 90.617,230.477 C90.962,230.776 91.264,231.011 91.605,231.203 C91.938,231.392 92.355,231.546 92.816,231.545 C93.292,231.547 93.687,231.378 93.929,231.247 C94.301,231.039 94.476,230.901 94.722,230.78 C94.963,230.661 95.264,230.542 95.794,230.462 C96.514,230.354 97.153,230.196 97.709,230.078 C98.264,229.957 98.732,229.881 99.094,229.882 C99.396,229.884 99.617,229.926 99.835,230.018 C100.052,230.114 100.289,230.268 100.583,230.596 C101.065,231.132 101.631,231.764 102.077,232.548 C102.521,233.334 102.844,234.237 102.846,235.383 L102.845,235.566 L104.271,235.586 L102.845,235.546 L103.955,235.577 L102.997,235.013 C102.916,235.145 102.849,235.347 102.845,235.546 L103.955,235.577 L102.997,235.013 L103.782,235.475 L103.192,234.776 C103.146,234.816 103.071,234.887 102.997,235.013 L103.782,235.475 L103.192,234.776 L103.457,235.09 L103.258,234.728 L103.192,234.776 L103.457,235.09 L103.258,234.728 C103.255,234.738 102.973,234.847 102.555,234.922 C101.92,235.044 100.96,235.143 99.788,235.205 C98.614,235.267 97.222,235.296 95.68,235.296 C89.288,235.296 80.337,234.806 73.006,234.316 C69.339,234.07 66.074,233.825 63.726,233.641 C62.553,233.549 61.608,233.472 60.958,233.418 C60.307,233.365 59.953,233.334 59.952,233.334 L59.83,234.755 L61.156,234.232 L59.83,234.755 L59.708,236.176 C59.714,236.176 65.454,236.668 72.816,237.161 C80.18,237.653 89.154,238.147 95.68,238.147 C98.235,238.147 100.408,238.074 102.027,237.883 C102.842,237.784 103.51,237.667 104.103,237.46 C104.402,237.351 104.69,237.229 105.001,236.981 C105.155,236.855 105.318,236.69 105.454,236.46 C105.591,236.232 105.689,235.93 105.696,235.626 L105.696,235.607 L105.698,235.383 C105.701,233.673 105.186,232.24 104.556,231.137 C103.926,230.033 103.18,229.224 102.709,228.695 C102.19,228.112 101.598,227.672 100.966,227.4 C100.334,227.126 99.687,227.029 99.094,227.031 C98.373,227.032 97.721,227.16 97.11,227.289 C96.5,227.421 95.926,227.56 95.377,227.64 C94.292,227.794 93.505,228.168 93.026,228.461 C92.789,228.604 92.627,228.711 92.582,228.733 L92.571,228.739 L92.634,228.868 L92.582,228.734 L92.571,228.739 L92.634,228.868 L92.582,228.734 L92.816,229.329 L92.816,228.694 C92.71,228.692 92.609,228.722 92.582,228.734 L92.816,229.329 L92.816,228.694 L92.816,229.307 L92.996,228.718 L92.816,228.694 L92.816,229.307 L92.996,228.718 L92.914,228.984 L93.02,228.727 L92.996,228.718 L92.914,228.984 L93.02,228.727 L93.017,228.725 C92.985,228.713 92.789,228.59 92.487,228.325 C91.899,227.815 91.249,227.354 90.516,227.008 C89.784,226.664 88.961,226.438 88.082,226.438 C87.373,226.437 86.636,226.588 85.925,226.904 C85.465,227.104 85.092,227.397 84.835,227.671 C84.642,227.876 84.507,228.064 84.412,228.195 C84.341,228.293 84.292,228.359 84.268,228.388 L84.252,228.406 L84.419,228.563 L84.283,228.381 L84.252,228.406 L84.419,228.563 L84.283,228.381 L84.556,228.747 L84.42,228.311 L84.283,228.381 L84.556,228.747 L84.42,228.311 L84.5,228.568 L84.463,228.3 L84.42,228.311 L84.5,228.568 L84.463,228.3 L84.464,228.309 L84.463,228.3 L84.464,228.309 L84.463,228.3 L84.446,228.301 L84.316,228.29 L84.314,228.289 L84.26,228.677 L84.425,228.32 L84.314,228.289 L84.26,228.677 L84.425,228.32 L84.375,228.428 L84.436,228.326 L84.425,228.32 L84.375,228.428 L84.436,228.326 C84.425,228.332 84.215,228.138 83.929,227.829 C83.781,227.676 83.605,227.498 83.37,227.316 C83.136,227.137 82.833,226.948 82.442,226.837 C82.008,226.712 81.573,226.653 81.159,226.654 C80.085,226.655 79.197,227.032 78.487,227.405 C77.772,227.785 77.186,228.174 76.692,228.4 L76.695,228.398 C76.179,228.635 75.849,228.838 75.732,228.906 L75.706,228.92 L75.728,228.961 L75.708,228.92 L75.706,228.92 L75.728,228.961 L75.708,228.92 L76.043,229.597 L75.875,228.862 L75.708,228.92 L76.043,229.597 L75.875,228.862 L76.019,229.491 L76.019,228.843 L75.875,228.862 L76.019,229.491 L76.019,228.843 C76.019,228.844 75.95,228.84 75.817,228.827 C75.685,228.814 75.494,228.792 75.242,228.766 C75.069,228.754 74.788,228.647 74.32,228.444 C73.86,228.253 73.194,227.982 72.348,227.982 L72.265,227.983 L72.27,227.983 C71.709,227.994 71.099,228.076 70.481,228.231 C69.863,228.39 69.244,228.612 68.666,228.987 L68.671,228.984 C68.465,229.121 68.365,229.224 68.251,229.334 C68.063,229.523 67.888,229.727 67.706,229.946 C67.437,230.272 67.166,230.624 66.959,230.895 C66.855,231.03 66.768,231.146 66.71,231.22 L66.657,231.288 L67.245,231.766 L66.682,231.259 L66.657,231.288 L67.245,231.766 L66.682,231.259 L67.655,232.135 L66.761,231.179 L66.682,231.259 L67.655,232.135 L66.761,231.179 L67.717,232.201 L66.889,231.073 L66.761,231.179 L67.717,232.201 L66.889,231.073 L67.729,232.218 L67.044,230.974 L66.889,231.073 L67.729,232.218 L67.044,230.974 L67.73,232.22 L67.414,230.833 C67.22,230.879 67.12,230.934 67.044,230.974 L67.73,232.22 L67.414,230.833 L67.397,230.837 L67.411,230.893 L67.411,230.835 L67.397,230.837 L67.411,230.893 L67.411,230.835 L67.405,230.834 C67.376,230.833 67.221,230.781 66.994,230.636 C66.649,230.425 66.182,230.038 65.597,229.657 C65.301,229.468 64.97,229.279 64.583,229.129 C64.197,228.981 63.75,228.874 63.262,228.874 C62.994,228.874 62.717,228.907 62.444,228.975 C61.024,229.322 59.934,230.103 59.253,231.028 C58.569,231.956 58.267,232.988 58.264,233.94 C58.265,234.399 58.334,234.846 58.503,235.279 L58.827,236.1 L59.708,236.176 L59.83,234.755" id="Fill-395" fill="#1D1209"></path>
            <path d="M50.919,202.089 C54.303,210.927 70.375,211.313 70.375,211.313 C70.375,211.313 74.742,201.555 68.486,194.457 C57.461,181.952 39.748,185.309 39.748,185.309 C39.748,185.309 45.623,188.265 50.919,202.089" id="Fill-396" fill="#859D49"></path>
            <path d="M50.919,202.089 L49.796,202.519 C50.758,205.031 52.607,206.899 54.734,208.269 C57.935,210.326 61.809,211.354 64.9,211.908 C67.992,212.457 70.305,212.513 70.346,212.515 L71.145,212.534 L71.472,211.804 C71.506,211.715 73.052,208.283 73.059,203.831 C73.059,202.236 72.856,200.507 72.294,198.765 C71.733,197.024 70.808,195.272 69.388,193.662 C65.639,189.408 61.139,186.908 56.818,185.485 C52.494,184.06 48.342,183.697 45.192,183.697 C41.809,183.697 39.579,184.117 39.524,184.128 L36.039,184.788 L39.208,186.383 L39.39,186.02 L39.199,186.378 L39.208,186.383 L39.39,186.02 L39.199,186.378 C39.277,186.428 44.74,189.343 49.796,202.519 L50.919,202.089 L52.042,201.659 C46.67,187.613 40.569,184.367 40.288,184.235 L39.748,185.309 L39.972,186.49 L39.986,186.487 C40.183,186.452 42.208,186.101 45.192,186.101 C48.156,186.101 52.064,186.448 56.065,187.769 C60.069,189.091 64.159,191.369 67.585,195.252 C68.774,196.604 69.534,198.045 70.006,199.504 C70.477,200.962 70.654,202.439 70.654,203.831 C70.655,205.773 70.307,207.544 69.956,208.817 C69.782,209.453 69.607,209.966 69.479,210.313 C69.415,210.487 69.362,210.619 69.326,210.706 L69.287,210.8 L69.278,210.82 L69.277,210.822 L70.375,211.313 L70.404,210.111 L70.368,210.11 C69.953,210.098 65.992,209.931 61.828,208.743 C59.746,208.151 57.619,207.303 55.867,206.137 C54.111,204.966 52.749,203.507 52.042,201.659 L50.919,202.089" id="Fill-397" fill="#1D1209"></path>
            <g id="Group-400" transform="translate(42.000000, 186.000000)">
                <mask id="mask-2" fill="white">
                    <use xlink:href="#path-1"></use>
                </mask>
                <g id="Clip-399"></g>
                <polygon id="Fill-398" fill="#4E6F36" mask="url(#mask-2)" points="0.792 23.646 28.655 23.646 28.655 0.101 0.792 0.101"></polygon>
            </g>
            <path d="M70.375,211.313 C70.17,210.747 69.947,210.192 69.709,209.646 C69.788,209.401 69.872,209.124 69.956,208.817 C70.307,207.544 70.655,205.773 70.654,203.831 C70.654,202.439 70.477,200.962 70.006,199.504 C69.534,198.045 68.774,196.604 67.585,195.252 C67.397,195.039 67.207,194.831 67.015,194.628 C67.694,194.714 68.296,194.775 68.795,194.817 C74.632,201.811 71.415,209.221 70.375,211.313 M43.322,186.706 C41.13,185.764 39.748,185.309 39.748,185.309 C39.748,185.309 41.909,184.899 45.192,184.899 C46.587,184.899 48.183,184.973 49.903,185.184 C50.092,185.639 50.31,186.072 50.554,186.484 C48.591,186.198 46.765,186.101 45.201,186.101 C45.198,186.101 45.195,186.101 45.192,186.101 C45.19,186.101 45.188,186.101 45.186,186.101 C44.295,186.101 43.489,186.133 42.792,186.178 C42.962,186.341 43.139,186.517 43.322,186.706" id="Fill-401" fill="#130C03"></path>
            <path d="M69.244,211.719 C69.234,211.696 69.135,211.351 68.866,210.657 C68.589,209.976 68.186,208.991 67.59,207.851 C67.307,207.275 66.955,206.672 66.596,206.026 C66.203,205.399 65.823,204.714 65.357,204.053 C65.131,203.717 64.9,203.375 64.668,203.03 C64.418,202.695 64.165,202.357 63.91,202.015 C63.416,201.319 62.84,200.671 62.291,199.998 C61.738,199.326 61.121,198.714 60.546,198.076 C59.951,197.46 59.326,196.891 58.74,196.318 C58.143,195.76 57.523,195.266 56.955,194.772 C56.395,194.266 55.803,193.871 55.282,193.468 C54.75,193.083 54.287,192.689 53.828,192.412 C53.38,192.119 52.988,191.865 52.667,191.655 C52.021,191.233 51.652,190.992 51.652,190.992 C51.652,190.992 52.04,191.2 52.719,191.565 C53.059,191.748 53.473,191.97 53.946,192.224 C54.431,192.463 54.926,192.817 55.494,193.157 C56.051,193.517 56.684,193.867 57.291,194.326 C57.905,194.776 58.576,195.222 59.231,195.737 C59.873,196.265 60.559,196.79 61.219,197.367 C61.858,197.964 62.546,198.538 63.17,199.177 C63.791,199.817 64.44,200.435 65.011,201.108 C65.304,201.437 65.595,201.764 65.882,202.088 C66.153,202.425 66.422,202.758 66.686,203.085 C67.229,203.731 67.685,204.407 68.149,205.027 C68.582,205.668 69.005,206.269 69.355,206.85 C70.084,207.995 70.606,209.011 70.971,209.728 C71.323,210.445 71.516,210.93 71.506,210.907 L69.244,211.719" id="Fill-402" fill="#1D1209"></path>
            <path d="M66.047,209.069 C66.047,209.069 58.557,207.633 56.5,206.235 C51.992,203.174 49.322,194.242 49.322,194.242 C49.322,194.242 52.527,199.009 57.365,203.972 C60.326,207.007 66.047,209.069 66.047,209.069" id="Fill-403" fill="#B4BE69"></path>
            <path d="M78.242,229.756 C78.243,229.739 78.339,228.309 78.339,225.938 C78.338,221.508 78.006,213.797 76.079,205.843 C74.147,197.896 70.628,189.665 64.105,184.299 L62.899,185.768 C68.935,190.714 72.359,198.555 74.231,206.291 C76.107,214.021 76.439,221.606 76.438,225.938 C76.438,227.098 76.415,228.025 76.391,228.66 C76.379,228.977 76.368,229.222 76.359,229.386 C76.351,229.55 76.345,229.629 76.345,229.629 L78.243,229.756 L78.242,229.756" id="Fill-404" fill="#1D1209"></path>
            <path d="M50.919,184.487 C54.303,193.324 70.375,193.711 70.375,193.711 C70.375,193.711 74.742,183.953 68.486,176.854 C57.461,164.35 39.748,167.706 39.748,167.706 C39.748,167.706 45.623,170.662 50.919,184.487" id="Fill-405" fill="#859D49"></path>
            <path d="M50.919,184.487 L49.796,184.916 C50.758,187.428 52.607,189.296 54.734,190.666 C57.935,192.724 61.808,193.752 64.9,194.306 C67.992,194.855 70.304,194.911 70.346,194.913 L71.145,194.932 L71.472,194.202 C71.506,194.113 73.052,190.681 73.059,186.228 C73.059,184.633 72.856,182.905 72.294,181.163 C71.733,179.422 70.808,177.669 69.388,176.059 C65.639,171.805 61.139,169.305 56.818,167.882 C52.494,166.458 48.342,166.095 45.192,166.094 C41.809,166.095 39.579,166.515 39.524,166.525 L36.038,167.186 L39.208,168.78 L39.388,168.422 L39.199,168.776 L39.208,168.78 L39.388,168.422 L39.199,168.776 C39.277,168.826 44.74,171.739 49.796,184.917 L50.919,184.487 L52.042,184.056 C46.67,170.009 40.569,166.765 40.288,166.632 L39.748,167.706 L39.972,168.887 L39.986,168.885 C40.183,168.849 42.208,168.498 45.192,168.499 C48.156,168.498 52.064,168.846 56.065,170.166 C60.069,171.488 64.159,173.766 67.585,177.649 C68.774,179.001 69.534,180.442 70.006,181.901 C70.477,183.359 70.654,184.837 70.654,186.228 C70.655,188.17 70.307,189.942 69.956,191.215 C69.782,191.851 69.607,192.363 69.479,192.711 C69.415,192.885 69.362,193.017 69.326,193.104 L69.287,193.198 L69.278,193.218 L69.277,193.22 L70.375,193.711 L70.404,192.509 L70.368,192.508 C69.953,192.496 65.992,192.329 61.828,191.14 C59.746,190.549 57.619,189.701 55.867,188.534 C54.111,187.364 52.749,185.905 52.042,184.057 L50.919,184.487" id="Fill-406" fill="#1D1209"></path>
            <path d="M69.709,192.044 C64.158,179.331 49.991,171.968 43.322,169.104 C43.139,168.914 42.963,168.739 42.793,168.575 C43.49,168.53 44.296,168.499 45.188,168.499 C45.189,168.499 45.19,168.499 45.192,168.499 C45.195,168.499 45.198,168.499 45.201,168.499 C48.165,168.499 52.068,168.847 56.065,170.166 C60.069,171.488 64.159,173.766 67.585,177.649 C68.774,179.001 69.534,180.442 70.006,181.901 C70.477,183.359 70.654,184.837 70.654,186.228 C70.655,188.17 70.307,189.942 69.956,191.215 C69.872,191.521 69.788,191.799 69.709,192.044" id="Fill-407" fill="#4E6F36"></path>
            <path d="M70.375,193.711 C70.17,193.145 69.947,192.59 69.709,192.044 C69.788,191.799 69.872,191.521 69.956,191.215 C70.307,189.942 70.655,188.17 70.654,186.228 C70.654,184.837 70.477,183.359 70.006,181.901 C69.534,180.442 68.774,179.001 67.585,177.649 C64.159,173.766 60.069,171.488 56.065,170.166 C52.068,168.847 48.165,168.499 45.201,168.499 C45.198,168.499 45.195,168.499 45.192,168.499 C45.19,168.499 45.189,168.499 45.188,168.499 C44.296,168.499 43.49,168.53 42.793,168.575 C42.963,168.739 43.139,168.914 43.322,169.104 C41.13,168.162 39.748,167.706 39.748,167.706 C39.748,167.706 41.909,167.297 45.192,167.297 C51.307,167.297 61.313,168.718 68.486,176.854 C74.742,183.953 71.433,191.582 70.375,193.711" id="Fill-408" fill="#130C03"></path>
            <path d="M69.244,194.117 C69.234,194.093 69.135,193.748 68.866,193.055 C68.589,192.374 68.186,191.389 67.59,190.249 C67.307,189.672 66.955,189.07 66.596,188.423 C66.204,187.797 65.824,187.112 65.357,186.451 C65.131,186.115 64.9,185.773 64.668,185.427 C64.418,185.093 64.166,184.754 63.91,184.413 C63.416,183.717 62.84,183.069 62.291,182.396 C61.738,181.724 61.121,181.112 60.546,180.474 C59.951,179.858 59.326,179.289 58.74,178.716 C58.143,178.157 57.523,177.664 56.955,177.17 C56.395,176.664 55.803,176.269 55.282,175.866 C54.75,175.481 54.287,175.087 53.828,174.81 C53.38,174.518 52.988,174.262 52.667,174.052 C52.021,173.631 51.652,173.39 51.652,173.39 C51.652,173.39 52.04,173.599 52.719,173.963 C53.059,174.146 53.473,174.367 53.946,174.622 C54.431,174.861 54.926,175.214 55.494,175.555 C56.051,175.915 56.685,176.265 57.291,176.724 C57.905,177.173 58.576,177.62 59.231,178.134 C59.873,178.663 60.559,179.188 61.219,179.765 C61.859,180.362 62.546,180.936 63.17,181.575 C63.791,182.215 64.441,182.833 65.011,183.505 C65.304,183.835 65.595,184.162 65.882,184.486 C66.153,184.823 66.422,185.156 66.686,185.483 C67.229,186.129 67.685,186.804 68.149,187.425 C68.582,188.067 69.005,188.667 69.355,189.248 C70.084,190.394 70.606,191.408 70.971,192.126 C71.323,192.842 71.516,193.328 71.506,193.304 L69.244,194.117" id="Fill-409" fill="#1D1209"></path>
            <path d="M66.047,191.466 C66.047,191.466 58.557,190.03 56.5,188.633 C51.992,185.571 49.322,176.64 49.322,176.64 C49.322,176.64 52.527,181.407 57.365,186.369 C60.326,189.405 66.047,191.466 66.047,191.466" id="Fill-410" fill="#B4BE69"></path>
            <path d="M92.747,232.038 L92.739,232.011 C92.652,231.686 91.862,228.589 91.863,224.384 C91.863,221.226 92.308,217.449 93.798,213.741 C95.291,210.031 97.812,206.386 102.032,203.413 L100.938,201.859 C96.403,205.048 93.638,209.031 92.034,213.032 C90.427,217.035 89.963,221.051 89.962,224.384 C89.963,229.121 90.9,232.492 90.915,232.548 L92.747,232.038" id="Fill-411" fill="#1D1209"></path>
            <path d="M114.07,202.089 C110.688,210.927 94.616,211.313 94.616,211.313 C94.616,211.313 90.248,201.555 96.505,194.457 C107.529,181.952 125.24,185.309 125.24,185.309 C125.24,185.309 119.366,188.265 114.07,202.089" id="Fill-412" fill="#859D49"></path>
            <path d="M114.07,202.089 L112.947,201.659 C112.217,203.566 110.789,205.061 108.952,206.248 C106.204,208.028 102.584,209.027 99.669,209.541 C98.211,209.8 96.93,209.943 96.019,210.021 C95.563,210.06 95.2,210.082 94.954,210.095 C94.831,210.102 94.736,210.106 94.674,210.108 L94.587,210.111 L94.616,211.313 L95.713,210.821 L95.712,210.82 C95.659,210.71 94.328,207.594 94.334,203.83 C94.334,202.439 94.512,200.962 94.983,199.504 C95.455,198.045 96.215,196.604 97.406,195.253 C100.831,191.369 104.92,189.09 108.924,187.769 C112.924,186.448 116.831,186.101 119.795,186.101 C121.386,186.101 122.706,186.201 123.62,186.299 C124.077,186.349 124.433,186.397 124.671,186.433 C124.79,186.452 124.88,186.466 124.938,186.476 L125.001,186.487 L125.016,186.49 L125.24,185.309 L124.699,184.235 C124.418,184.367 118.319,187.613 112.947,201.659 L115.193,202.519 C117.798,195.719 120.522,191.651 122.551,189.301 C123.566,188.126 124.407,187.38 124.978,186.935 C125.263,186.713 125.481,186.567 125.619,186.48 L125.764,186.392 L125.789,186.378 L125.603,186.03 L125.781,186.383 L125.789,186.378 L125.603,186.03 L125.781,186.383 L128.949,184.787 L125.464,184.128 C125.409,184.117 123.177,183.697 119.795,183.697 C116.645,183.697 112.494,184.06 108.17,185.485 C103.851,186.908 99.351,189.408 95.603,193.662 C94.182,195.272 93.256,197.024 92.694,198.765 C92.132,200.507 91.93,202.236 91.93,203.83 C91.937,208.283 93.484,211.716 93.519,211.804 L93.845,212.534 L94.645,212.515 C94.701,212.511 98.79,212.417 103.388,211.176 C105.689,210.552 108.122,209.643 110.255,208.269 C112.382,206.899 114.231,205.031 115.193,202.519 L114.07,202.089" id="Fill-413" fill="#1D1209"></path>
            <path d="M95.282,209.647 C94.875,208.388 94.33,206.242 94.334,203.83 C94.334,202.439 94.512,200.962 94.983,199.504 C95.455,198.045 96.215,196.604 97.406,195.253 C97.652,194.974 97.901,194.704 98.154,194.441 C99.395,194.244 100.8,193.966 102.256,193.573 C104.557,192.95 106.99,192.04 109.123,190.666 C110.716,189.64 112.153,188.335 113.179,186.69 C115.617,186.243 117.893,186.101 119.786,186.101 C119.789,186.101 119.792,186.101 119.795,186.101 C120.689,186.101 121.497,186.133 122.196,186.178 C122.026,186.341 121.849,186.517 121.666,186.706 C114.997,189.571 100.831,196.935 95.282,209.647" id="Fill-414" fill="#4E6F36"></path>
            <path d="M94.616,211.313 C93.569,209.209 90.322,201.724 96.3,194.694 C96.858,194.63 97.482,194.547 98.154,194.441 C97.901,194.704 97.652,194.974 97.406,195.253 C96.215,196.604 95.455,198.045 94.983,199.504 C94.512,200.962 94.334,202.439 94.334,203.83 C94.33,206.242 94.875,208.388 95.282,209.647 C95.043,210.193 94.822,210.747 94.616,211.313 M121.666,186.706 C121.849,186.517 122.026,186.341 122.196,186.178 C121.497,186.133 120.689,186.101 119.795,186.101 C119.792,186.101 119.789,186.101 119.786,186.101 C117.893,186.101 115.617,186.243 113.179,186.69 C113.442,186.267 113.679,185.821 113.884,185.351 C116.062,185.011 118.082,184.899 119.796,184.899 C123.08,184.899 125.24,185.309 125.24,185.309 C125.24,185.309 123.858,185.765 121.666,186.706" id="Fill-415" fill="#130C03"></path>
            <path d="M93.484,210.907 C93.476,210.931 93.668,210.445 94.02,209.728 C94.385,209.011 94.907,207.995 95.636,206.85 C95.986,206.269 96.409,205.668 96.842,205.027 C97.307,204.407 97.763,203.731 98.305,203.085 C98.568,202.757 98.838,202.424 99.109,202.087 C99.397,201.764 99.688,201.437 99.981,201.107 C100.55,200.435 101.2,199.817 101.821,199.177 C102.445,198.538 103.133,197.964 103.771,197.366 C104.432,196.79 105.117,196.265 105.76,195.736 C106.414,195.222 107.086,194.775 107.7,194.326 C108.307,193.866 108.94,193.517 109.497,193.157 C110.066,192.816 110.561,192.463 111.045,192.224 C111.52,191.97 111.932,191.748 112.271,191.565 C112.951,191.2 113.339,190.992 113.339,190.992 C113.339,190.992 112.97,191.233 112.324,191.655 C112.002,191.865 111.611,192.119 111.162,192.412 C110.705,192.689 110.242,193.083 109.709,193.468 C109.188,193.871 108.596,194.266 108.036,194.771 C107.469,195.266 106.849,195.759 106.25,196.318 C105.664,196.891 105.04,197.46 104.445,198.076 C103.87,198.714 103.252,199.325 102.7,199.997 C102.15,200.67 101.574,201.319 101.08,202.015 C100.825,202.356 100.572,202.695 100.323,203.029 C100.09,203.375 99.859,203.717 99.634,204.053 C99.168,204.714 98.787,205.399 98.395,206.025 C98.037,206.671 97.684,207.274 97.4,207.851 C96.805,208.991 96.402,209.976 96.125,210.657 C95.857,211.35 95.757,211.695 95.748,211.719 L93.484,210.907" id="Fill-416" fill="#1D1209"></path>
            <path d="M98.943,209.069 C98.943,209.069 104.664,207.007 107.623,203.972 C112.463,199.009 115.668,194.242 115.668,194.242 C115.668,194.242 112.999,203.174 108.49,206.235 C106.434,207.633 98.943,209.069 98.943,209.069" id="Fill-417" fill="#B4BE69"></path>
            <path d="M104.271,235.586 C104.271,246.152 100.943,269.095 81.813,269.095 C65.772,269.095 59.83,246.152 59.83,235.586 L104.271,235.586" id="Fill-418" fill="#BF6143"></path>
            <path d="M104.271,235.586 L102.844,235.586 C102.852,240.723 102.013,248.959 98.918,255.71 C97.375,259.09 95.286,262.085 92.521,264.216 C89.751,266.345 86.31,267.662 81.813,267.669 C78.148,267.662 75.128,266.385 72.517,264.244 C68.608,261.04 65.737,255.802 63.906,250.374 C62.067,244.956 61.252,239.356 61.256,235.586 L59.83,235.586 L59.83,237.012 L104.271,237.012 L104.271,235.586 L102.844,235.586 L104.271,235.586 L104.271,234.16 L58.404,234.16 L58.404,235.586 C58.405,238.358 58.789,241.856 59.617,245.588 C60.864,251.183 63.096,257.295 66.661,262.126 C68.445,264.539 70.573,266.634 73.099,268.134 C75.622,269.635 78.548,270.524 81.813,270.521 C86.88,270.528 91.029,268.977 94.263,266.474 C99.122,262.713 101.934,256.969 103.58,251.223 C105.222,245.466 105.694,239.659 105.696,235.586 L105.696,234.16 L104.271,234.16 L104.271,235.586" id="Fill-419" fill="#1D1209"></path>
            <path d="M81.813,267.669 C78.148,267.662 75.128,266.385 72.517,264.244 C68.608,261.04 65.737,255.802 63.906,250.374 C62.287,245.603 61.461,240.691 61.29,237.012 L69.186,237.012 C66.814,244.224 70.295,254.707 76.902,259.589 C80.146,261.984 87.476,263.741 92.069,264.552 C89.378,266.482 86.069,267.662 81.813,267.669" id="Fill-420" fill="#AD5239"></path>
            <path d="M81.813,269.095 C65.772,269.095 59.83,246.152 59.83,235.586 L69.753,235.586 C69.536,236.044 69.347,236.521 69.186,237.012 L61.29,237.012 C61.461,240.691 62.287,245.603 63.906,250.374 C65.737,255.802 68.608,261.04 72.517,264.244 C75.128,266.385 78.148,267.662 81.813,267.669 C86.069,267.662 89.378,266.482 92.069,264.552 C92.778,264.677 93.422,264.78 93.976,264.859 C90.885,267.452 86.915,269.095 81.813,269.095" id="Fill-421" fill="#1B0E04"></path>
            <polygon id="Fill-422" fill="#BF6143" points="73.158 271.235 92.844 271.235 92.844 266.008 73.158 266.008"></polygon>
            <polyline id="Fill-423" fill="#1D1209" points="92.844 271.235 92.844 269.809 74.584 269.809 74.584 267.434 91.417 267.434 91.418 271.235 92.844 271.235 92.844 269.809 92.844 271.235 94.27 271.235 94.27 264.582 71.732 264.582 71.732 272.66 94.27 272.66 94.27 271.235 92.844 271.235"></polyline>
            <path d="M92.362,260.675 C90.752,260.014 92.66,255.705 94.828,252.341 C96.773,249.319 97.012,242.77 97.012,242.77 L89.168,237.963 L100.339,239.152 C100.339,239.152 102.24,255.55 92.362,260.675" id="Fill-424" fill="#D68E69"></path>
            <path d="M87.512,229.628 C87.512,229.628 87.506,229.549 87.498,229.385 C87.471,228.893 87.418,227.677 87.418,225.937 C87.417,221.605 87.749,214.02 89.624,206.291 C91.496,198.554 94.92,190.714 100.957,185.768 L99.751,184.299 C93.227,189.665 89.708,197.895 87.776,205.843 C85.849,213.796 85.518,221.508 85.517,225.937 C85.517,228.309 85.614,229.739 85.615,229.757 L87.512,229.628" id="Fill-425" fill="#1D1209"></path>
            <path d="M83.929,229.484 C83.929,229.483 83.917,229.433 83.895,229.329 C83.554,227.76 80.774,214.458 80.775,199.085 C80.775,192.76 81.245,186.086 82.54,179.743 L80.677,179.364 C79.349,185.873 78.875,192.666 78.875,199.085 C78.876,215.722 82.066,229.861 82.074,229.902 L83.93,229.484 L83.929,229.484" id="Fill-426" fill="#1D1209"></path>
            <path d="M112.939,184.487 C109.555,193.324 93.484,193.711 93.484,193.711 C93.484,193.711 89.115,183.953 95.372,176.854 C106.396,164.35 124.109,167.706 124.109,167.706 C124.109,167.706 118.234,170.662 112.939,184.487" id="Fill-427" fill="#859D49"></path>
            <path d="M112.939,184.487 L111.816,184.057 C111.086,185.964 109.658,187.458 107.82,188.646 C105.072,190.425 101.452,191.425 98.537,191.939 C97.08,192.198 95.798,192.341 94.887,192.419 C94.432,192.458 94.068,192.48 93.822,192.493 C93.698,192.499 93.605,192.503 93.542,192.506 L93.455,192.509 L93.484,193.711 L94.582,193.219 L94.581,193.218 C94.527,193.108 93.196,189.991 93.203,186.227 C93.203,184.835 93.38,183.358 93.851,181.901 C94.322,180.442 95.083,179.001 96.273,177.649 C99.698,173.766 103.788,171.488 107.791,170.166 C111.792,168.846 115.7,168.498 118.664,168.499 C120.256,168.499 121.575,168.598 122.489,168.697 C122.946,168.746 123.302,168.795 123.54,168.831 C123.659,168.849 123.749,168.864 123.807,168.874 L123.871,168.885 L123.885,168.887 L124.109,167.706 L123.569,166.632 C123.288,166.765 117.187,170.009 111.816,184.057 L114.062,184.917 C116.667,178.116 119.391,174.048 121.42,171.698 C122.435,170.523 123.276,169.777 123.847,169.333 C124.132,169.111 124.35,168.964 124.488,168.877 L124.633,168.79 L124.658,168.776 L124.474,168.432 L124.649,168.78 L124.658,168.776 L124.474,168.432 L124.649,168.78 L127.82,167.185 L124.333,166.525 C124.278,166.515 122.047,166.095 118.664,166.094 C115.514,166.095 111.362,166.458 107.039,167.882 C102.718,169.305 98.218,171.805 94.47,176.059 C93.049,177.669 92.124,179.421 91.563,181.162 C91.001,182.904 90.798,184.632 90.798,186.227 C90.805,190.681 92.353,194.114 92.387,194.202 L92.713,194.932 L93.513,194.913 C93.569,194.909 97.657,194.815 102.256,193.573 C104.557,192.95 106.99,192.04 109.123,190.666 C111.25,189.296 113.1,187.428 114.062,184.917 L112.939,184.487" id="Fill-428" fill="#1D1209"></path>
            <path d="M94.15,192.045 C93.744,190.785 93.199,188.639 93.203,186.227 C93.203,184.835 93.38,183.358 93.851,181.901 C94.322,180.442 95.083,179.001 96.273,177.649 C99.698,173.766 103.788,171.488 107.791,170.166 C111.788,168.847 115.691,168.499 118.655,168.499 C118.658,168.499 118.661,168.499 118.664,168.499 C119.558,168.499 120.366,168.53 121.064,168.575 C120.894,168.739 120.718,168.915 120.535,169.104 C113.864,171.969 99.698,179.331 94.15,192.045" id="Fill-429" fill="#4E6F36"></path>
            <path d="M93.484,193.711 C92.426,191.582 89.115,183.953 95.372,176.854 C102.545,168.718 112.55,167.297 118.665,167.297 C121.949,167.297 124.109,167.706 124.109,167.706 C124.109,167.706 122.727,168.162 120.535,169.104 C120.718,168.915 120.894,168.739 121.064,168.575 C120.366,168.53 119.558,168.499 118.664,168.499 C118.661,168.499 118.658,168.499 118.655,168.499 C115.691,168.499 111.788,168.847 107.791,170.166 C103.788,171.488 99.698,173.766 96.273,177.649 C95.083,179.001 94.322,180.442 93.851,181.901 C93.38,183.358 93.203,184.835 93.203,186.227 C93.199,188.639 93.744,190.785 94.15,192.045 C93.912,192.59 93.689,193.146 93.484,193.711" id="Fill-430" fill="#130C03"></path>
            <path d="M92.354,193.304 C92.344,193.329 92.536,192.843 92.888,192.126 C93.252,191.408 93.775,190.394 94.504,189.248 C94.854,188.667 95.276,188.066 95.709,187.424 C96.174,186.804 96.631,186.129 97.172,185.483 C97.437,185.156 97.705,184.823 97.977,184.486 C98.264,184.162 98.555,183.835 98.848,183.505 C99.417,182.833 100.066,182.215 100.688,181.574 C101.313,180.936 101.999,180.362 102.639,179.764 C103.299,179.188 103.984,178.662 104.626,178.134 C105.281,177.62 105.953,177.173 106.566,176.724 C107.174,176.264 107.807,175.915 108.363,175.555 C108.932,175.214 109.427,174.861 109.911,174.622 C110.385,174.367 110.799,174.146 111.139,173.963 C111.817,173.599 112.205,173.39 112.205,173.39 C112.205,173.39 111.836,173.631 111.19,174.052 C110.869,174.262 110.478,174.517 110.029,174.81 C109.57,175.086 109.107,175.481 108.575,175.866 C108.055,176.269 107.463,176.664 106.902,177.169 C106.335,177.664 105.715,178.157 105.117,178.716 C104.531,179.289 103.906,179.858 103.312,180.474 C102.737,181.112 102.119,181.723 101.566,182.395 C101.018,183.069 100.441,183.716 99.947,184.413 C99.693,184.754 99.44,185.093 99.19,185.427 C98.957,185.773 98.728,186.115 98.501,186.45 C98.035,187.112 97.654,187.797 97.263,188.423 C96.904,189.07 96.551,189.672 96.269,190.249 C95.673,191.388 95.27,192.374 94.993,193.055 C94.725,193.748 94.625,194.093 94.615,194.117 L92.354,193.304" id="Fill-431" fill="#1D1209"></path>
            <path d="M97.813,191.466 C97.813,191.466 103.531,189.405 106.492,186.369 C111.331,181.407 114.536,176.64 114.536,176.64 C114.536,176.64 111.867,185.571 107.358,188.633 C105.302,190.03 97.813,191.466 97.813,191.466" id="Fill-432" fill="#B4BE69"></path>
            <path d="M96.311,164.986 C96.295,174.449 81.415,180.535 81.415,180.535 C81.415,180.535 73.857,172.973 77.176,164.113 C83.022,148.5 100.768,145.327 100.768,145.327 C100.768,145.327 96.332,150.183 96.311,164.986" id="Fill-433" fill="#859D49"></path>
            <path d="M96.311,164.986 L95.108,164.984 C95.105,167.026 94.302,168.932 93.007,170.696 C91.074,173.338 88.046,175.561 85.505,177.08 C84.236,177.841 83.089,178.431 82.266,178.828 C81.854,179.027 81.523,179.178 81.297,179.277 C81.184,179.327 81.097,179.365 81.04,179.389 L80.977,179.416 L80.96,179.423 L81.415,180.535 L82.265,179.685 L82.076,179.874 L82.266,179.686 L82.265,179.685 L82.076,179.874 L82.266,179.686 C82.235,179.657 81.026,178.423 79.848,176.44 C78.665,174.454 77.532,171.736 77.535,168.735 C77.536,167.393 77.755,165.99 78.301,164.535 C79.698,160.807 81.797,157.83 84.179,155.44 C87.75,151.856 91.968,149.608 95.294,148.27 C96.955,147.6 98.391,147.157 99.404,146.884 C99.911,146.747 100.312,146.652 100.583,146.593 C100.718,146.563 100.821,146.542 100.888,146.528 L100.961,146.514 L100.979,146.511 L100.768,145.327 L99.88,144.516 C99.665,144.741 95.121,149.946 95.108,164.984 L96.311,164.986 L97.513,164.988 C97.523,157.705 98.619,152.934 99.677,150.016 C100.207,148.556 100.727,147.559 101.102,146.941 C101.29,146.631 101.44,146.417 101.539,146.287 L101.643,146.153 L101.661,146.131 L101.367,145.875 L101.655,146.138 L101.661,146.131 L101.367,145.875 L101.655,146.138 L104.048,143.519 L100.556,144.144 C100.477,144.16 95.934,144.972 90.6,147.803 C87.933,149.22 85.067,151.145 82.477,153.742 C79.887,156.338 77.576,159.612 76.05,163.691 C75.398,165.425 75.13,167.128 75.13,168.735 C75.134,172.402 76.505,175.545 77.844,177.773 C79.188,180.004 80.518,181.338 80.565,181.385 L81.129,181.951 L81.87,181.648 C81.921,181.625 85.708,180.08 89.563,177.282 C91.491,175.88 93.441,174.164 94.945,172.12 C96.445,170.082 97.508,167.678 97.513,164.988 L96.311,164.986" id="Fill-434" fill="#1D1209"></path>
            <path d="M81.443,178.741 C80.996,178.184 80.418,177.4 79.848,176.44 C78.665,174.454 77.532,171.736 77.535,168.735 C77.536,167.393 77.755,165.99 78.301,164.535 C79.698,160.807 81.797,157.83 84.179,155.44 C87.75,151.856 91.968,149.608 95.294,148.27 C96.39,147.828 97.389,147.485 98.233,147.224 C98.132,147.437 98.03,147.664 97.927,147.906 C92.716,152.958 82.101,164.886 81.443,178.741" id="Fill-435" fill="#4E6F36"></path>
            <path d="M81.415,180.535 C79.668,178.924 73.857,172.973 77.176,164.113 C83.022,148.5 100.768,145.327 100.768,145.327 C100.768,145.327 99.639,146.245 97.927,147.906 C98.03,147.664 98.132,147.437 98.233,147.224 C97.389,147.485 96.39,147.828 95.294,148.27 C91.968,149.608 87.75,151.856 84.179,155.44 C81.797,157.83 79.698,160.807 78.301,164.535 C77.755,165.99 77.536,167.393 77.535,168.735 C77.532,171.736 78.665,174.454 79.848,176.44 C80.418,177.4 80.996,178.184 81.443,178.741 C81.415,179.336 81.405,179.934 81.415,180.535" id="Fill-436" fill="#130C03"></path>
            <path d="M80.213,180.559 C80.213,180.585 80.22,180.062 80.293,179.267 C80.379,178.467 80.506,177.332 80.777,176.002 C80.898,175.334 81.08,174.622 81.255,173.868 C81.469,173.124 81.654,172.329 81.932,171.533 C82.061,171.133 82.193,170.726 82.327,170.315 C82.48,169.91 82.635,169.501 82.791,169.088 C83.085,168.257 83.473,167.448 83.824,166.628 C84.18,165.81 84.617,165.029 85.002,164.242 C85.414,163.469 85.867,162.734 86.279,162.011 C86.708,161.297 87.176,160.64 87.59,160.002 C87.993,159.357 88.461,158.804 88.854,158.27 C89.264,157.749 89.6,157.242 89.967,156.846 C90.319,156.44 90.626,156.086 90.879,155.794 C91.384,155.211 91.672,154.879 91.672,154.879 C91.672,154.879 91.413,155.235 90.959,155.859 C90.733,156.17 90.459,156.547 90.145,156.981 C89.814,157.402 89.522,157.935 89.161,158.485 C88.818,159.046 88.406,159.627 88.063,160.299 C87.709,160.963 87.305,161.645 86.944,162.38 C86.602,163.124 86.221,163.878 85.885,164.666 C85.574,165.466 85.215,166.258 84.938,167.082 C84.664,167.907 84.357,168.718 84.143,169.545 C84.026,169.954 83.911,170.361 83.797,170.762 C83.702,171.168 83.609,171.57 83.518,171.964 C83.316,172.748 83.205,173.524 83.063,174.248 C82.957,174.98 82.843,175.669 82.783,176.309 C82.633,177.586 82.607,178.65 82.592,179.385 C82.588,180.129 82.617,180.487 82.617,180.512 L80.213,180.559" id="Fill-437" fill="#1D1209"></path>
            <path d="M84.661,176.897 C84.661,176.897 89.272,172.932 90.955,169.041 C93.711,162.681 95.006,157.086 95.006,157.086 C95.006,157.086 95.693,166.38 92.572,170.849 C91.149,172.887 84.661,176.897 84.661,176.897" id="Fill-438" fill="#B4BE69"></path>
            <path d="M97.093,243.361 C97.093,244.583 96.634,245.68 95.904,246.468 C95.172,247.255 94.185,247.728 93.094,247.729 C92.003,247.728 91.016,247.255 90.283,246.468 C89.553,245.68 89.094,244.583 89.094,243.361 C89.094,242.979 88.784,242.669 88.402,242.669 C88.02,242.669 87.711,242.979 87.711,243.361 C87.71,244.932 88.301,246.365 89.269,247.408 C90.235,248.452 91.593,249.112 93.094,249.112 C94.594,249.112 95.953,248.452 96.919,247.408 C97.886,246.364 98.477,244.932 98.477,243.361 C98.477,242.979 98.167,242.669 97.785,242.669 C97.403,242.669 97.094,242.979 97.094,243.361" id="Fill-439" fill="#1D1209"></path>
            <path d="M75.154,243.361 C75.154,244.583 74.694,245.68 73.964,246.468 C73.231,247.255 72.243,247.728 71.152,247.729 C70.062,247.728 69.076,247.256 68.343,246.468 C67.614,245.68 67.154,244.583 67.154,243.361 C67.154,242.979 66.845,242.669 66.463,242.669 C66.081,242.669 65.772,242.979 65.772,243.361 C65.771,244.932 66.361,246.364 67.329,247.408 C68.294,248.452 69.652,249.112 71.152,249.112 C72.653,249.112 74.012,248.452 74.978,247.408 C75.946,246.365 76.537,244.932 76.537,243.361 C76.537,242.979 76.228,242.669 75.846,242.669 C75.463,242.669 75.154,242.979 75.154,243.361" id="Fill-440" fill="#1D1209"></path>
            <path d="M74.346,251.735 C74.346,252.575 73.029,253.257 71.406,253.257 C69.781,253.257 68.466,252.575 68.466,251.735 C68.466,250.892 69.781,250.209 71.406,250.209 C73.029,250.209 74.346,250.892 74.346,251.735" id="Fill-441" fill="#EE9E80"></path>
            <path d="M96.574,251.735 C96.574,252.575 95.258,253.257 93.633,253.257 C92.008,253.257 90.691,252.575 90.691,251.735 C90.691,250.892 92.008,250.209 93.633,250.209 C95.258,250.209 96.574,250.892 96.574,251.735" id="Fill-442" fill="#EE9E80"></path>
            <path d="M79.238,250.248 C79.244,250.292 79.291,250.962 79.727,251.678 C79.946,252.035 80.27,252.403 80.733,252.677 C81.196,252.952 81.793,253.124 82.519,253.123 C83.244,253.124 83.836,252.952 84.292,252.673 C84.978,252.255 85.327,251.632 85.499,251.139 C85.672,250.642 85.684,250.257 85.685,250.223 C85.693,249.944 85.472,249.711 85.193,249.703 C84.913,249.695 84.68,249.915 84.672,250.195 L84.777,250.198 L84.672,250.193 L84.672,250.195 L84.777,250.198 L84.672,250.193 C84.673,250.218 84.635,250.746 84.354,251.208 C84.213,251.441 84.02,251.658 83.737,251.823 C83.454,251.988 83.071,252.109 82.519,252.11 C81.948,252.108 81.55,251.98 81.249,251.804 C80.803,251.54 80.552,251.139 80.409,250.783 C80.339,250.606 80.297,250.445 80.275,250.332 L80.253,250.203 L80.25,250.173 L80.25,250.171 C80.228,249.892 79.984,249.683 79.706,249.704 C79.426,249.725 79.217,249.969 79.239,250.248" id="Fill-443" fill="#1D1209"></path>
            <path d="M97.596,242.679 L100.234,242.334 L97.975,243.738 C97.704,243.906 97.35,243.823 97.182,243.553 C97.015,243.282 97.098,242.928 97.367,242.76 L97.596,242.679" id="Fill-444" fill="#1D1209"></path>
            <path d="M97.973,243.465 L100.42,244.028 L97.973,244.59 C97.662,244.661 97.353,244.467 97.281,244.157 C97.21,243.846 97.404,243.536 97.715,243.465 L97.973,243.465" id="Fill-445" fill="#1D1209"></path>
            <path d="M66.127,243.738 L63.867,242.334 L66.504,242.679 C66.819,242.72 67.041,243.009 67,243.324 C66.959,243.639 66.67,243.861 66.355,243.82 L66.127,243.738" id="Fill-446" fill="#1D1209"></path>
            <path d="M66.128,244.59 L63.68,244.028 L66.128,243.465 C66.438,243.394 66.748,243.588 66.819,243.899 C66.891,244.209 66.697,244.519 66.387,244.59 L66.128,244.59" id="Fill-447" fill="#1D1209"></path>
        </g>
    </g>
</svg>
