<?xml version="1.0" encoding="UTF-8"?>

<svg class="plant-index" viewBox="0 0 125 165" version="1.1" xmlns="http://www.w3.org/2000/svg" xmlns:xlink="http://www.w3.org/1999/xlink">
    <!-- Generator: Sketch 51 (57462) - http://www.bohemiancoding.com/sketch -->
    <desc>Created with Sketch.</desc>
    <defs></defs>
    <g id="Page-1" stroke="none" stroke-width="1" fill="none" fill-rule="evenodd">
        <g id="ficus_feed">
            <path d="M110.120295,75.6641456 C101.060295,82.4181456 95.3572953,75.9651456 95.3572953,75.9651456 C95.3572953,75.9651456 91.0912953,69.5201456 97.6852953,62.8111456 C106.208295,54.1401456 121.850295,56.2181456 121.850295,56.2181456 C121.850295,56.2181456 118.148295,69.6821456 110.120295,75.6641456" id="Fill-372" fill="#518A32"></path>
            <path d="M110.121003,75.664 L108.925003,74.061 C106.082003,76.171 103.827003,76.739 102.067003,76.746 C100.384003,76.745 99.073003,76.2 98.155003,75.646 C97.700003,75.369 97.351003,75.093 97.128003,74.897 C97.017003,74.799 96.937003,74.722 96.891003,74.676 L96.848003,74.631 L96.846003,74.629 L95.930003,75.46 L96.857003,74.641 L96.846003,74.629 L95.930003,75.46 L96.857003,74.641 L95.358003,75.965 L97.026003,74.861 L96.445003,75.245 L97.034003,74.874 L97.026003,74.861 L96.445003,75.245 L97.034003,74.874 C97.018003,74.85 96.750003,74.417 96.496003,73.714 C96.240003,73.009 95.999003,72.04 96.000003,70.922 C96.001003,69.999 96.158003,68.974 96.616003,67.854 C97.075003,66.734 97.838003,65.51 99.112003,64.213 C101.657003,61.619 105.007003,60.047 108.405003,59.139 C111.796003,58.231 115.201003,57.998 117.698003,58 C118.895003,58 119.884003,58.052 120.565003,58.103 C120.906003,58.129 121.170003,58.154 121.345003,58.173 L121.538003,58.194 L121.581003,58.2 L121.588003,58.201 L121.851003,56.218 L119.923003,55.688 L119.916003,55.713 C119.825003,56.038 118.866003,59.349 117.009003,63.222 C116.082003,65.157 114.931003,67.232 113.573003,69.138 C112.215003,71.046 110.648003,72.779 108.926003,74.061 L111.316003,77.268 C113.552003,75.6 115.413003,73.478 116.978003,71.251 C119.321003,67.908 120.999003,64.314 122.113003,61.537 C123.224003,58.761 123.764003,56.802 123.780003,56.748 L124.387003,54.537 L122.115003,54.235 C122.049003,54.227 120.323003,54 117.698003,54 C114.958003,54.001 111.237003,54.243 107.372003,55.275 C103.513003,56.308 99.476003,58.141 96.260003,61.409 C94.658003,63.036 93.578003,64.711 92.913003,66.339 C92.247003,67.965 91.999003,69.533 92.000003,70.922 C92.001003,72.723 92.406003,74.22 92.811003,75.281 C93.219003,76.343 93.629003,76.976 93.690003,77.069 L93.767003,77.185 L93.859003,77.289 C93.954003,77.395 94.701003,78.226 96.080003,79.065 C97.454003,79.901 99.497003,80.746 102.067003,80.746 C104.757003,80.753 107.934003,79.798 111.316003,77.268 L110.121003,75.664" id="Fill-373" fill="#2D2118"></path>
            <path d="M87.9805219,105.870129 C89.9045219,92.1221287 94.4375219,83.3211287 99.0465219,77.1551287 C101.354522,74.0711287 103.691522,71.6511287 105.773522,69.6091287 C107.857522,67.5601287 109.685522,65.9231287 111.030522,64.2461287 C111.719522,63.3831287 111.577522,62.1251287 110.713522,61.4361287 C109.850522,60.7481287 108.592522,60.8891287 107.903522,61.7531287 C106.904522,63.0161287 105.116522,64.6581287 102.973522,66.7531287 C99.7555219,69.9061287 95.7375219,74.1491287 92.1805219,80.3081287 C88.6175219,86.4671287 85.5195219,94.5371287 84.0195219,105.318129 C83.8665219,106.412129 84.6295219,107.423129 85.7235219,107.575129 C86.8185219,107.728129 87.8285219,106.965129 87.9815219,105.871129 L87.9805219,105.870129" id="Fill-374" fill="#2D2118"></path>
            <path d="M98.6703318,72.611 C89.5453318,85.874 78.8933318,79.784 78.8933318,79.784 C78.8933318,79.784 70.1853318,73.049 76.0023318,60.975 C83.5243318,45.369 105.577332,41 105.577332,41 C105.577332,41 106.756332,60.86 98.6703318,72.611" id="Fill-375" fill="#7DA334"></path>
            <path d="M98.6710048,72.019 L97.0230048,70.885 C94.7910048,74.126 92.5490048,76.024 90.4910048,77.135 C88.4310048,78.243 86.5280048,78.584 84.8810048,78.587 C83.3710048,78.588 82.0810048,78.288 81.1860048,77.991 C80.7390048,77.843 80.3910048,77.696 80.1670048,77.593 C80.0550048,77.541 79.9740048,77.5 79.9260048,77.476 L79.8800048,77.451 L79.8760048,77.45 L79.3010048,78.479 L79.8870048,77.455 L79.8760048,77.45 L79.3010048,78.479 L79.8870048,77.455 L78.8940048,79.192 L80.1170048,77.609 L79.6740048,78.182 L80.1250048,77.616 L80.1170048,77.609 L79.6740048,78.182 L80.1250048,77.616 C80.0980048,77.596 79.0290048,76.73 78.0070048,75.161 C76.9820048,73.584 76.0020048,71.346 76.0000048,68.426 C76.0020048,66.408 76.4650048,64.035 77.8050048,61.251 C79.5330048,57.664 82.1200048,54.68 85.0780048,52.215 C89.5090048,48.517 94.7650048,46.025 98.9010048,44.488 C100.968005,43.718 102.753005,43.184 104.013005,42.846 C104.642005,42.676 105.140005,42.555 105.476005,42.478 C105.643005,42.439 105.771005,42.411 105.854005,42.394 L105.945005,42.375 L105.966005,42.37 L105.578005,40.408 L103.581005,40.526 L103.582005,40.56 C103.593005,40.747 103.637005,41.675 103.637005,43.126 C103.638005,45.964 103.462005,50.81 102.532005,55.998 C101.609005,61.188 99.9080048,66.707 97.0230048,70.885 L98.6710048,72.019 L100.319005,73.152 C103.693005,68.234 105.475005,62.226 106.470005,56.704 C107.458005,51.18 107.636005,46.127 107.637005,43.126 C107.637005,41.375 107.576005,40.324 107.574005,40.291 L107.438005,38 L105.188005,38.446 C105.087005,38.469 99.4410048,39.586 92.7580048,42.735 C89.4160048,44.311 85.8120048,46.397 82.5170048,49.142 C79.2250048,51.885 76.2340048,55.299 74.2020048,59.515 C72.6260048,62.777 71.9980048,65.781 72.0000048,68.426 C71.9980048,72.394 73.4000048,75.487 74.7880048,77.543 C76.1790048,79.607 77.5540048,80.682 77.6700048,80.774 L77.7800048,80.858 L77.9010048,80.928 C78.0800048,81.023 80.8020048,82.577 84.8810048,82.587 C87.0950048,82.59 89.7090048,82.104 92.3890048,80.656 C95.0720048,79.212 97.7940048,76.825 100.319005,73.152 L98.6710048,72.019" id="Fill-376" fill="#2D2118"></path>
            <path d="M78.9812864,100.625816 C80.9222864,86.6988158 83.5802864,78.2888158 86.2602864,72.6968158 C88.9492864,67.0988158 91.6262864,64.2868158 94.0522864,61.2458158 C94.7402864,60.3828158 94.5992864,59.1238158 93.7352864,58.4358158 C92.8712864,57.7478158 91.6132864,57.8898158 90.9252864,58.7528158 C88.6642864,61.5908158 85.5572864,64.8928158 82.6532864,70.9688158 C79.7402864,77.0518158 76.9972864,85.8788158 75.0192864,100.073816 C74.8672864,101.167816 75.6302864,102.178816 76.7242864,102.330816 C77.8182864,102.483816 78.8282864,101.719816 78.9812864,100.625816" id="Fill-377" fill="#2D2118"></path>
            <path d="M87.1202953,49.6658987 C78.0602953,56.4188987 72.3572953,49.9648987 72.3572953,49.9648987 C72.3572953,49.9648987 68.0912953,43.5198987 74.6852953,36.8118987 C83.2082953,28.1408987 98.8522953,30.2178987 98.8522953,30.2178987 C98.8522953,30.2178987 95.1492953,43.6818987 87.1202953,49.6658987" id="Fill-378" fill="#518A32"></path>
            <path d="M87.121012,49.666 L85.926012,48.062 C83.083012,50.171 80.828012,50.74 79.067012,50.747 C77.384012,50.746 76.073012,50.201 75.155012,49.646 C74.699012,49.37 74.351012,49.093 74.128012,48.897 C74.017012,48.799 73.937012,48.722 73.891012,48.676 L73.847012,48.631 L73.845012,48.628 L72.957012,49.435 L73.856012,48.641 L73.845012,48.628 L72.957012,49.435 L73.856012,48.641 L72.358012,49.965 L74.025012,48.86 L73.443012,49.245 L74.033012,48.873 L74.025012,48.86 L73.443012,49.245 L74.033012,48.873 C74.018012,48.849 73.750012,48.417 73.495012,47.713 C73.239012,47.009 72.999012,46.04 73.000012,44.923 C73.001012,43.999 73.157012,42.974 73.615012,41.854 C74.074012,40.735 74.837012,39.511 76.111012,38.214 C78.657012,35.62 82.008012,34.047 85.407012,33.139 C88.799012,32.231 92.204012,31.998 94.702012,32 C95.898012,32 96.887012,32.052 97.567012,32.103 C97.908012,32.129 98.172012,32.154 98.346012,32.172 L98.539012,32.194 L98.583012,32.199 L98.589012,32.2 L98.853012,30.218 L96.924012,29.687 L96.917012,29.713 C96.826012,30.038 95.867012,33.349 94.010012,37.221 C93.083012,39.157 91.932012,41.232 90.573012,43.139 C89.215012,45.047 87.649012,46.78 85.926012,48.062 L88.316012,51.27 C90.552012,49.601 92.414012,47.478 93.979012,45.251 C96.322012,41.908 98.001012,38.314 99.114012,35.537 C100.226012,32.76 100.766012,30.801 100.781012,30.748 L101.388012,28.537 L99.116012,28.235 C99.049012,28.227 97.326012,28 94.702012,28 C91.962012,28.001 88.240012,28.243 84.374012,29.275 C80.515012,30.308 76.476012,32.141 73.259012,35.409 C71.657012,37.037 70.578012,38.712 69.913012,40.339 C69.246012,41.966 68.998012,43.534 69.000012,44.923 C69.000012,46.723 69.405012,48.22 69.811012,49.281 C70.218012,50.343 70.629012,50.976 70.690012,51.069 L70.766012,51.184 L70.858012,51.289 C70.954012,51.395 71.700012,52.226 73.080012,53.065 C74.454012,53.901 76.497012,54.747 79.067012,54.747 C81.757012,54.753 84.935012,53.799 88.316012,51.27 L87.121012,49.666" id="Fill-379" fill="#2D2118"></path>
            <path d="M68.8160063,100.686437 C67.5660063,93.2784371 66.9990063,86.8204371 67.0000063,81.1444371 C67.0030063,71.0194371 68.7910063,63.3984371 71.7380063,57.1624371 C74.6870063,50.9284371 78.8240063,46.0334371 83.7000063,41.4584371 C84.5050063,40.7034371 84.5460063,39.4374371 83.7910063,38.6324371 C83.0350063,37.8264371 81.7700063,37.7854371 80.9650063,38.5404371 C75.8760063,43.3104371 71.3470063,48.6294371 68.1210063,55.4524371 C64.8920063,62.2734371 62.9960063,70.5534371 63.0000063,81.1444371 C63.0000063,87.0874371 63.5920063,93.7634371 64.8720063,101.351437 C65.0550063,102.440437 66.0870063,103.175437 67.1770063,102.991437 C68.2650063,102.807437 69.0000063,101.775437 68.8160063,100.686437" id="Fill-380" fill="#2D2118"></path>
            <path d="M80.671176,33.611 C71.546176,46.875 60.894176,40.784 60.894176,40.784 C60.894176,40.784 52.184176,34.049 58.003176,21.974 C65.523176,6.369 87.576176,2 87.576176,2 C87.576176,2 88.756176,21.859 80.671176,33.611" id="Fill-381" fill="#7DA334"></path>
            <path d="M80.6720048,34.02 L79.0240048,32.886 C76.7920048,36.127 74.5500048,38.025 72.4910048,39.137 C70.4310048,40.245 68.5290048,40.586 66.8820048,40.589 C65.3720048,40.589 64.0820048,40.289 63.1870048,39.992 C62.7400048,39.844 62.3920048,39.698 62.1680048,39.594 C62.0560048,39.543 61.9750048,39.502 61.9270048,39.477 L61.8810048,39.453 L61.8780048,39.451 L61.2820048,40.516 L61.8880048,39.457 L61.8780048,39.451 L61.2820048,40.516 L61.8880048,39.457 L60.8950048,41.193 L62.1180048,39.611 L61.6760048,40.184 L62.1270048,39.617 L62.1180048,39.611 L61.6760048,40.184 L62.1270048,39.617 C62.0990048,39.597 61.0300048,38.732 60.0080048,37.162 C58.9820048,35.585 58.0020048,33.346 58.0000048,30.427 C58.0020048,28.408 58.4650048,26.035 59.8050048,23.252 C61.5330048,19.664 64.1190048,16.68 67.0770048,14.215 C71.5090048,10.518 76.7650048,8.025 80.9000048,6.488 C82.9680048,5.719 84.7530048,5.185 86.0120048,4.846 C86.6410048,4.677 87.1390048,4.556 87.4750048,4.478 C87.6430048,4.44 87.7700048,4.412 87.8530048,4.394 L87.9440048,4.375 L87.9660048,4.371 L87.5770048,2.409 L85.5800048,2.526 L85.5820048,2.56 C85.5920048,2.748 85.6360048,3.676 85.6360048,5.127 C85.6370048,7.965 85.4620048,12.811 84.5310048,17.999 C83.6080048,23.189 81.9070048,28.708 79.0240048,32.887 L80.6720048,34.02 L82.3190048,35.153 C85.6930048,30.235 87.4740048,24.227 88.4690048,18.704 C89.4570048,13.181 89.6350048,8.128 89.6360048,5.127 C89.6360048,3.376 89.5750048,2.324 89.5730048,2.291 L89.4380048,0 L87.1880048,0.447 C87.0860048,0.469 81.4400048,1.587 74.7570048,4.735 C71.4160048,6.311 67.8120048,8.397 64.5160048,11.142 C61.2240048,13.886 58.2340048,17.299 56.2020048,21.515 C54.6260048,24.777 53.9980048,27.781 54.0000048,30.427 C53.9980048,34.395 55.4010048,37.488 56.7880048,39.544 C58.1790048,41.608 59.5550048,42.683 59.6720048,42.775 L59.7800048,42.859 L59.9020048,42.929 C60.0820048,43.024 62.8030048,44.578 66.8820048,44.589 C69.0950048,44.591 71.7100048,44.105 74.3900048,42.657 C77.0720048,41.213 79.7940048,38.827 82.3190048,35.154 L80.6720048,34.02" id="Fill-382" fill="#2D2118"></path>
            <path d="M61.302,95.4695022 C61.302,95.4695022 61.297,95.3965022 61.29,95.2455022 C61.232,94.1885022 61,89.4675022 61,82.8735022 C60.998,73.3305022 61.491,59.8485022 63.675,47.9375022 C64.764,41.9855022 66.28,36.4295022 68.308,32.0035022 C69.319,29.7905022 70.457,27.8615022 71.705,26.3015022 C72.954,24.7395022 74.305,23.5505022 75.757,22.7535022 C76.725,22.2215022 77.078,21.0055022 76.546,20.0375022 C76.015,19.0695022 74.799,18.7155022 73.831,19.2475022 C71.824,20.3505022 70.087,21.9195022 68.581,23.8045022 C65.945,27.1085022 63.976,31.3835022 62.428,36.2005022 C60.116,43.4275022 58.774,51.9025022 57.991,60.1785022 C57.211,68.4515022 57,76.5195022 57,82.8735022 C57,90.5165022 57.307,95.6775022 57.309,95.7075022 C57.375,96.8105022 58.322,97.6505022 59.424,97.5845022 C60.527,97.5195022 61.368,96.5725022 61.302,95.4695022" id="Fill-383" fill="#2D2118"></path>
            <path d="M14.731,80.6658648 C23.793,87.4188648 29.496,80.9648648 29.496,80.9648648 C29.496,80.9648648 33.762,74.5218648 27.167,67.8128648 C18.645,59.1408648 3,61.2178648 3,61.2178648 C3,61.2178648 6.703,74.6828648 14.731,80.6658648" id="Fill-384" fill="#518A32"></path>
            <path d="M14.268,80.666 L13.073,82.27 C16.455,84.799 19.632,85.753 22.321,85.747 C24.891,85.747 26.935,84.902 28.309,84.066 C29.689,83.226 30.436,82.395 30.531,82.289 L30.622,82.186 L30.701,82.069 C30.762,81.975 31.172,81.342 31.579,80.281 C31.984,79.22 32.389,77.724 32.39,75.924 C32.391,74.535 32.142,72.967 31.475,71.34 C30.81,69.713 29.731,68.038 28.13,66.411 C24.913,63.142 20.874,61.308 17.015,60.275 C13.148,59.243 9.426,59.001 6.686,59 C4.061,59 2.339,59.227 2.273,59.235 L0,59.538 L0.608,61.748 C0.629,61.82 1.58,65.277 3.581,69.547 C4.583,71.683 5.848,74.023 7.411,76.252 C8.976,78.479 10.837,80.601 13.073,82.27 L15.463,79.062 C13.685,77.739 12.073,75.934 10.685,73.954 C8.6,70.986 7.023,67.638 5.989,65.05 C5.47,63.756 5.085,62.652 4.832,61.878 C4.706,61.491 4.612,61.187 4.551,60.983 C4.52,60.88 4.498,60.803 4.484,60.753 L4.469,60.699 L4.465,60.687 L2.537,61.218 L2.801,63.2 L2.807,63.199 C2.932,63.183 4.442,62.999 6.686,63 C9.184,62.998 12.589,63.231 15.981,64.139 C19.381,65.047 22.732,66.62 25.277,69.214 C26.551,70.511 27.314,71.736 27.773,72.856 C28.231,73.976 28.388,75.001 28.389,75.924 C28.39,77.115 28.116,78.139 27.843,78.851 C27.707,79.207 27.573,79.483 27.479,79.658 L27.375,79.843 L27.357,79.874 L27.943,80.244 L27.365,79.861 L27.357,79.874 L27.943,80.244 L27.365,79.861 L29.033,80.965 L27.535,79.64 L28.444,80.444 L27.545,79.628 L27.535,79.64 L28.444,80.444 L27.545,79.628 L27.529,79.645 C27.428,79.751 26.871,80.301 25.973,80.798 C25.07,81.297 23.851,81.746 22.321,81.747 C20.561,81.74 18.307,81.172 15.463,79.062 L14.268,80.666" id="Fill-385" fill="#2D2118"></path>
            <path d="M40.4686272,110.07555 C38.4906272,95.8795496 35.7486272,87.0535496 32.8356272,80.9705496 C29.9316272,74.8935496 26.8236272,71.5915496 24.5636272,68.7535496 C23.8746272,67.8895496 22.6166272,67.7475496 21.7526272,68.4365496 C20.8896272,69.1245496 20.7476272,70.3835496 21.4366272,71.2465496 C23.8626272,74.2865496 26.5386272,77.0995496 29.2276272,82.6985496 C31.9076272,88.2905496 34.5666272,96.6995496 36.5076272,110.62755 C36.6596272,111.72155 37.6696272,112.48455 38.7646272,112.33255 C39.8576272,112.18055 40.6216272,111.16955 40.4696272,110.07555 L40.4686272,110.07555" id="Fill-386" fill="#2D2118"></path>
            <path d="M17.966229,69.611 C27.091229,82.875 37.742229,76.784 37.742229,76.784 C37.742229,76.784 46.451229,70.048 40.633229,57.975 C33.113229,42.37 11.060229,38 11.060229,38 C11.060229,38 9.88022904,57.858 17.966229,69.611" id="Fill-387" fill="#7DA334"></path>
            <path d="M17.967,69.019 L16.319,70.152 C18.844,73.826 21.566,76.212 24.247,77.656 C26.927,79.104 29.541,79.59 31.756,79.588 C35.833,79.577 38.556,78.023 38.736,77.928 L38.855,77.86 L38.967,77.774 C39.083,77.682 40.458,76.607 41.849,74.543 C43.236,72.487 44.638,69.394 44.637,65.426 C44.638,62.78 44.009,59.777 42.436,56.515 C40.404,52.299 37.413,48.886 34.121,46.142 C29.177,42.027 23.543,39.384 19.133,37.739 C14.722,36.097 11.525,35.461 11.45,35.446 L9.201,35 L9.064,37.288 C9.062,37.322 9,38.373 9,40.125 C9.001,43.126 9.179,48.179 10.167,53.702 C11.162,59.225 12.944,65.233 16.319,70.153 L19.615,67.885 C16.729,63.706 15.028,58.187 14.104,52.997 C13.174,47.809 12.999,42.963 13,40.125 C13,39.296 13.015,38.639 13.029,38.192 C13.036,37.969 13.044,37.798 13.049,37.686 L13.055,37.561 L13.057,37.527 L11.061,37.408 L10.672,39.369 L10.679,39.371 C10.91,39.416 16.315,40.542 22.466,43.491 C25.542,44.964 28.801,46.889 31.698,49.331 C34.598,51.773 37.131,54.72 38.832,58.251 C40.171,61.034 40.635,63.408 40.636,65.426 C40.635,68.439 39.59,70.729 38.53,72.311 C38.001,73.097 37.471,73.695 37.086,74.085 C36.893,74.28 36.737,74.422 36.636,74.511 L36.529,74.602 L36.511,74.616 L36.984,75.21 L36.519,74.61 L36.511,74.616 L36.984,75.21 L36.519,74.61 L37.743,76.192 L36.751,74.455 L37.332,75.472 L36.761,74.45 L36.751,74.455 L37.332,75.472 L36.761,74.45 L36.743,74.46 C36.526,74.581 34.493,75.595 31.756,75.587 C30.108,75.585 28.206,75.244 26.146,74.136 C24.088,73.024 21.847,71.126 19.615,67.885 L17.967,69.019" id="Fill-388" fill="#2D2118"></path>
            <path d="M41.4685496,97.0742367 C39.4905496,82.8792367 36.7475496,74.0532367 33.8345496,67.9702367 C30.9305496,61.8942367 27.8235496,58.5922367 25.5645496,55.7532367 C24.8755496,54.8902367 23.6175496,54.7472367 22.7535496,55.4362367 C21.8895496,56.1242367 21.7475496,57.3832367 22.4365496,58.2462367 C24.8625496,61.2872367 27.5385496,64.1002367 30.2275496,69.6982367 C32.9075496,75.2902367 35.5655496,83.6992367 37.5065496,97.6262367 C37.6585496,98.7202367 38.6695496,99.4842367 39.7635496,99.3312367 C40.8575496,99.1792367 41.6205496,98.1682367 41.4685496,97.0742367" id="Fill-389" fill="#2D2118"></path>
            <path d="M27.731,51.6658987 C36.792,58.4188987 42.495,51.9648987 42.495,51.9648987 C42.495,51.9648987 46.76,45.5218987 40.166,38.8118987 C31.643,30.1408987 16,32.2178987 16,32.2178987 C16,32.2178987 19.703,45.6828987 27.731,51.6658987" id="Fill-390" fill="#518A32"></path>
            <path d="M27.268,51.666 L26.072,53.269 C29.453,55.799 32.631,56.754 35.321,56.747 C37.891,56.747 39.934,55.902 41.308,55.066 C42.688,54.227 43.435,53.396 43.53,53.29 L43.621,53.187 L43.699,53.069 C43.761,52.975 44.171,52.343 44.578,51.281 C44.983,50.221 45.387,48.724 45.388,46.924 C45.389,45.535 45.141,43.967 44.474,42.34 C43.809,40.713 42.73,39.038 41.129,37.41 C37.912,34.142 33.873,32.309 30.014,31.276 C26.147,30.244 22.426,30.002 19.686,30 C17.061,30.001 15.339,30.227 15.273,30.236 L13,30.538 L13.608,32.749 C13.629,32.82 14.58,36.278 16.581,40.548 C17.583,42.683 18.848,45.023 20.411,47.252 C21.975,49.479 23.837,51.601 26.073,53.269 L28.463,50.062 C26.685,48.739 25.073,46.934 23.685,44.954 C21.6,41.986 20.023,38.638 18.988,36.05 C18.47,34.757 18.085,33.652 17.832,32.879 C17.706,32.492 17.612,32.187 17.551,31.983 C17.52,31.881 17.498,31.804 17.483,31.754 L17.468,31.7 L17.465,31.688 L15.537,32.218 L15.8,34.201 L15.806,34.2 C15.932,34.184 17.442,34 19.686,34 C22.183,33.999 25.588,34.231 28.981,35.14 C32.38,36.047 35.731,37.62 38.276,40.214 C39.549,41.511 40.313,42.736 40.772,43.856 C41.229,44.976 41.387,46.001 41.388,46.924 C41.389,48.116 41.115,49.139 40.842,49.852 C40.706,50.207 40.571,50.483 40.478,50.659 L40.374,50.843 L40.355,50.874 L40.944,51.246 L40.364,50.862 L40.355,50.874 L40.944,51.246 L40.364,50.862 L42.032,51.965 L40.533,50.641 L41.438,51.44 L40.544,50.628 L40.533,50.641 L41.438,51.44 L40.544,50.628 L40.528,50.645 C40.427,50.752 39.87,51.301 38.971,51.798 C38.068,52.297 36.85,52.746 35.321,52.747 C33.56,52.74 31.306,52.172 28.463,50.062 L27.268,51.666" id="Fill-391" fill="#2D2118"></path>
            <path d="M49.5048158,102.737738 C50.5638158,96.4597383 51.0158158,90.5997383 51.0158158,85.1747383 C51.0158158,72.8317383 48.6718158,62.7497383 45.8208158,55.1277383 C42.9658158,47.4997383 39.6268158,42.3467383 37.5638158,39.7537383 C36.8758158,38.8897383 35.6168158,38.7477383 34.7528158,39.4357383 C33.8898158,40.1237383 33.7478158,41.3827383 34.4358158,42.2467383 C36.2128158,44.4727383 39.3818158,49.3187383 42.0748158,56.5287383 C44.7718158,63.7437383 47.0158158,73.3397383 47.0158158,85.1747383 C47.0158158,90.3767383 46.5828158,96.0127383 45.5608158,102.072738 C45.3768158,103.161738 46.1108158,104.193738 47.2008158,104.376738 C48.2898158,104.560738 49.3208158,103.826738 49.5048158,102.737738" id="Fill-392" fill="#2D2118"></path>
            <path d="M30.966229,40.611 C40.091229,53.875 50.742229,47.785 50.742229,47.785 C50.742229,47.785 59.451229,41.049 53.633229,28.975 C46.113229,13.37 24.060229,9 24.060229,9 C24.060229,9 22.880229,28.86 30.966229,40.611" id="Fill-393" fill="#7DA334"></path>
            <path d="M30.967,41.018 L29.319,42.152 C31.844,45.825 34.566,48.212 37.248,49.656 C39.928,51.104 42.542,51.59 44.756,51.588 C48.832,51.577 51.556,50.023 51.735,49.929 L51.857,49.859 L51.967,49.774 C52.083,49.682 53.458,48.607 54.849,46.543 C56.236,44.487 57.638,41.394 57.636,37.426 C57.638,34.78 57.009,31.776 55.435,28.514 C53.403,24.298 50.413,20.884 47.121,18.141 C42.177,14.026 36.544,11.384 32.133,9.738 C27.722,8.096 24.526,7.461 24.45,7.445 L22.201,7 L22.065,9.288 C22.063,9.321 22.001,10.374 22,12.128 C22.001,15.13 22.18,20.183 23.168,25.705 C24.163,31.227 25.945,37.234 29.319,42.152 L32.614,39.885 C29.729,35.707 28.028,30.19 27.105,25 C26.175,19.813 26,14.967 26.001,12.128 C26,11.298 26.016,10.64 26.03,10.192 C26.037,9.969 26.044,9.798 26.05,9.685 L26.056,9.56 L26.058,9.526 L24.061,9.407 L23.672,11.369 L23.679,11.37 C23.911,11.415 29.316,12.542 35.467,15.491 C38.542,16.963 41.801,18.889 44.698,21.33 C47.599,23.772 50.131,26.719 51.832,30.25 C53.17,33.033 53.634,35.408 53.636,37.426 C53.634,40.439 52.589,42.729 51.53,44.311 C51.001,45.097 50.471,45.696 50.085,46.085 C49.892,46.28 49.736,46.423 49.636,46.511 L49.529,46.602 L49.511,46.617 L49.962,47.183 L49.519,46.61 L49.511,46.617 L49.962,47.183 L49.519,46.61 L50.743,48.192 L49.75,46.456 L50.331,47.472 L49.761,46.45 L49.75,46.456 L50.331,47.472 L49.761,46.45 L49.743,46.46 C49.525,46.581 47.493,47.595 44.756,47.587 C43.108,47.585 41.206,47.244 39.146,46.135 C37.088,45.024 34.846,43.126 32.614,39.885 L30.967,41.018" id="Fill-394" fill="#2D2118"></path>
            <path d="M55.4387383,103.032738 C57.6227383,93.4557383 58.5287383,84.9167383 58.5287383,77.3307383 C58.5327383,61.8537383 54.7437383,50.3477383 50.4477383,42.1447383 C48.3017383,38.0427383 46.0317383,34.7637383 44.0657383,32.2167383 C43.0827383,30.9437383 42.1757383,29.8527383 41.4027383,28.9397383 C40.6307383,28.0287383 39.9907383,27.2887383 39.5637383,26.7537383 C38.8757383,25.8897383 37.6167383,25.7477383 36.7537383,26.4357383 C35.8897383,27.1247383 35.7477383,28.3827383 36.4357383,29.2467383 C36.9507383,29.8917383 37.5937383,30.6317383 38.3497383,31.5247383 C40.9847383,34.6377383 44.9977383,39.6007383 48.3877383,47.0357383 C51.7707383,54.4697383 54.5257383,64.3577383 54.5277383,77.3307383 C54.5277383,84.5977383 53.6617383,92.8347383 51.5387383,102.143738 C51.2937383,103.220738 51.9677383,104.292738 53.0447383,104.538738 C54.1217383,104.783738 55.1937383,104.109738 55.4397383,103.032738" id="Fill-395" fill="#2D2118"></path>
            <path d="M93.059,93.751 C92.372,93.751 91.721,93.878 91.121,94.107 C90.293,93.297 89.136,92.791 87.853,92.791 C87.647,92.791 87.445,92.809 87.245,92.835 C86.333,89.611 83.241,87.235 79.557,87.235 C76.876,87.235 74.511,88.495 73.067,90.419 C71.084,87.749 67.817,86 64.114,86 C59.959,86 56.344,88.195 54.489,91.429 C53.522,90.871 52.389,90.544 51.174,90.544 C49.305,90.544 47.628,91.31 46.46,92.524 C45.75,90.699 43.908,89.396 41.739,89.396 C40.495,89.396 39.36,89.825 38.481,90.534 C37.299,88.565 35.072,87.235 32.514,87.235 C29.063,87.235 26.213,89.655 25.729,92.803 L25.492,92.791 C21.906,92.791 19,95.55 19,98.952 C19,102.354 21.906,105.114 25.492,105.114 C28.615,105.114 91.221,103.628 93.059,103.628 C95.933,103.628 98.263,101.417 98.263,98.689 C98.263,95.962 95.933,93.751 93.059,93.751" id="Fill-396" fill="#50341D"></path>
            <path d="M93.059003,93.751 L93.059003,91.751 C92.125003,91.75 91.227003,91.925 90.406003,92.239 L91.121003,94.107 L92.520003,92.678 C91.326003,91.508 89.666003,90.791 87.853003,90.791 C87.526003,90.791 87.239003,90.82 86.992003,90.851 L87.245003,92.835 L89.170003,92.29 C87.997003,88.168 84.109003,85.237 79.557003,85.235 C76.243003,85.236 73.287003,86.793 71.467003,89.218 L73.067003,90.419 L74.672003,89.226 C72.314003,86.05 68.452003,84.001 64.114003,84 C59.247003,84.002 54.973003,86.568 52.754003,90.434 L54.489003,91.429 L55.489003,89.698 C54.230003,88.97 52.749003,88.543 51.174003,88.544 C48.753003,88.544 46.555003,89.539 45.019003,91.138 L46.460003,92.524 L48.324003,91.799 C47.303003,89.183 44.718003,87.398 41.739003,87.396 C40.032003,87.396 38.450003,87.987 37.225003,88.977 L38.481003,90.534 L40.195003,89.505 C38.648003,86.929 35.773003,85.237 32.514003,85.235 C30.318003,85.235 28.289003,86.007 26.732003,87.299 C25.175003,88.588 24.073003,90.413 23.752003,92.498 L25.729003,92.803 L25.827003,90.805 L25.591003,90.793 L25.541003,90.791 L25.492003,90.791 C23.183003,90.791 21.066003,91.681 19.525003,93.145 C17.983003,94.603 16.998003,96.673 17.000003,98.952 C16.998003,101.231 17.982003,103.301 19.524003,104.759 C21.066003,106.223 23.182003,107.114 25.492003,107.114 C25.933003,107.114 27.234003,107.09 29.257003,107.05 C36.313003,106.907 51.870003,106.552 65.868003,106.232 C72.866003,106.072 79.474003,105.921 84.432003,105.809 C86.911003,105.754 88.978003,105.708 90.474003,105.677 C91.222003,105.661 91.827003,105.649 92.269003,105.64 C92.706003,105.632 93.001003,105.627 93.059003,105.628 C95.012003,105.628 96.807003,104.874 98.115003,103.632 C99.424003,102.395 100.264003,100.631 100.263003,98.689 C100.264003,96.748 99.424003,94.983 98.115003,93.746 C96.807003,92.504 95.012003,91.751 93.059003,91.751 L93.059003,95.751 C93.979003,95.751 94.786003,96.103 95.362003,96.648 C95.936003,97.198 96.261003,97.903 96.262003,98.689 C96.261003,99.475 95.936003,100.18 95.362003,100.731 C94.786003,101.276 93.979003,101.628 93.059003,101.628 C92.898003,101.628 92.561003,101.634 91.992003,101.645 C87.780003,101.727 71.882003,102.094 56.663003,102.441 C49.053003,102.614 41.616003,102.783 35.899003,102.908 C33.040003,102.97 30.611003,103.022 28.807003,103.058 C27.010003,103.094 25.809003,103.114 25.492003,103.114 C24.216003,103.114 23.087003,102.625 22.279003,101.858 C21.471003,101.086 21.002003,100.075 21.000003,98.952 C21.002003,97.828 21.470003,96.818 22.278003,96.046 C23.087003,95.28 24.216003,94.791 25.492003,94.791 L25.492003,92.791 L25.393003,94.788 L25.630003,94.8 L27.431003,94.889 L27.705003,93.107 C27.869003,92.044 28.433003,91.086 29.285003,90.378 C30.137003,89.673 31.258003,89.236 32.514003,89.235 C34.371003,89.234 35.949003,90.202 36.766003,91.563 L37.948003,93.533 L39.736003,92.091 C40.268003,91.662 40.958003,91.397 41.739003,91.396 C43.099003,91.394 44.197003,92.215 44.596003,93.249 L45.730003,96.167 L47.901003,93.911 C48.700003,93.081 49.856003,92.544 51.174003,92.544 C52.028003,92.544 52.813003,92.772 53.488003,93.161 L55.224003,94.165 L56.223003,92.425 C57.714003,89.822 60.671003,87.998 64.114003,88 C67.180003,87.999 69.854003,89.447 71.461003,91.611 L73.056003,93.761 L74.666003,91.619 C75.735003,90.196 77.509003,89.234 79.557003,89.235 C82.374003,89.233 84.669003,91.054 85.321003,93.379 L85.789003,95.036 L87.498003,94.819 C87.650003,94.799 87.767003,94.791 87.853003,94.791 C88.606003,94.791 89.260003,95.085 89.722003,95.536 L90.638003,96.433 L91.836003,95.975 C92.214003,95.831 92.619003,95.751 93.059003,95.751 L93.059003,93.751" id="Fill-397" fill="#2D2118"></path>
            <path d="M98.071,100 C98.071,144.019 85.314,161.953 58.536,161.953 C29.882,161.953 19,133.422 19,100 L98.071,100" id="Fill-398" fill="#217695"></path>
            <path d="M98.072,100 L96.071,100 C96.072,110.908 95.279,120.157 93.701,127.849 C92.518,133.619 90.894,138.51 88.853,142.583 C85.782,148.695 81.816,152.96 76.847,155.775 C71.877,158.584 65.823,159.952 58.537,159.953 C51.703,159.949 46.064,158.268 41.341,155.283 C37.8,153.041 34.766,150.046 32.191,146.397 C28.328,140.927 25.515,133.978 23.685,126.062 C21.852,118.149 21,109.278 21.001,100 L19.001,100 L19.001,102 L98.072,102 L98.072,100 L96.071,100 L98.072,100 L98.072,98 L17,98 L17,100 C17.009,116.927 19.727,132.702 26.277,144.483 C29.554,150.368 33.821,155.257 39.201,158.663 C44.577,162.072 51.044,163.958 58.537,163.953 C65.45,163.954 71.58,162.795 76.873,160.268 C80.84,158.376 84.32,155.711 87.257,152.272 C91.669,147.11 94.862,140.251 96.96,131.604 C99.057,122.952 100.07,112.489 100.072,100 L100.072,98 L98.072,98 L98.072,100" id="Fill-399" fill="#2D2118"></path>
            <path d="M58.523,159.953 C51.689,159.949 46.05,158.268 41.327,155.283 C37.786,153.041 34.752,150.046 32.177,146.397 C28.314,140.927 25.501,133.978 23.671,126.062 C21.97,118.719 21.114,110.552 21,102 L42.714,102 C38.547,109.135 36.684,117.83 37.641,125.626 C38.588,133.355 43.363,140.505 48.935,145.714 C51.779,148.372 55.098,150.057 58.667,151.517 C61.049,152.49 63.346,153.448 65.367,155.074 C66.228,155.766 67.316,157.479 67.66,159.107 C64.857,159.673 61.815,159.953 58.523,159.953" id="Fill-400" fill="#05617D"></path>
            <path d="M58.536,161.953 C29.882,161.953 19,133.422 19,100 L43.984,100 C43.544,100.651 43.125,101.318 42.727,102 L21.013,102 C21.127,110.552 21.983,118.719 23.684,126.062 C25.514,133.978 28.327,140.927 32.19,146.397 C34.765,150.046 37.799,153.041 41.34,155.283 C46.063,158.268 51.702,159.949 58.536,159.953 C61.828,159.953 64.87,159.673 67.673,159.107 C67.827,159.84 67.831,160.555 67.595,161.152 C64.775,161.687 61.76,161.953 58.536,161.953" id="Fill-401" fill="#1E1811"></path>
            <path d="M79.951,151.793 C78.949,150.718 78.27,149.332 78.133,148.004 C77.673,143.574 80.731,138.847 82.756,135.111 C84.929,131.1 86.37,127.18 86.652,122.603 C86.872,119.032 87.083,114.691 85.639,111.328 C83.735,106.891 80.341,106.013 76.44,106.013 C75.074,106.013 73.645,106.121 72.197,106.221 C70.562,106.334 68.148,106.632 65.766,106.632 C62.197,106.632 58.699,105.963 58,103 L95.205,103 C95.205,128.645 90.226,144.211 79.951,151.793" id="Fill-402" fill="#619AB5"></path>
            <path d="M45.046,162.732 C51.974,162.732 69.704,162.732 73.781,162.732 C77.856,162.732 79.469,157 79.469,157 L38,157 C38,157 38.117,162.732 45.046,162.732" id="Fill-403" fill="#217695"></path>
            <path d="M45.087,162.732 L45.087,164.732 C52.015,164.732 69.745,164.732 73.822,164.732 C75.319,164.738 76.637,164.182 77.621,163.443 C79.108,162.325 79.992,160.866 80.577,159.701 C81.155,158.53 81.411,157.622 81.435,157.542 L82.15,155 L36,155 L36.041,157.04 C36.044,157.141 36.059,157.624 36.215,158.329 C36.449,159.375 37.002,160.968 38.417,162.352 C39.121,163.039 40.037,163.652 41.155,164.074 C42.273,164.497 43.582,164.733 45.087,164.732 L45.087,160.732 C43.627,160.73 42.679,160.438 42.02,160.081 C41.526,159.81 41.18,159.494 40.907,159.154 C40.501,158.647 40.271,158.063 40.155,157.608 C40.097,157.382 40.067,157.191 40.053,157.071 L40.041,156.949 L40.04,156.936 L38.982,156.981 L40.041,156.959 L40.04,156.936 L38.982,156.981 L40.041,156.959 L38.041,157 L38.041,159 L79.51,159 L79.51,157 L77.585,156.458 L78.704,156.773 L77.586,156.452 L77.585,156.458 L78.704,156.773 L77.586,156.452 L77.571,156.503 C77.494,156.766 77.057,158.023 76.332,159.054 C75.974,159.572 75.552,160.022 75.133,160.305 C74.705,160.59 74.322,160.728 73.822,160.732 C69.745,160.732 52.014,160.732 45.087,160.732 L45.087,162.732" id="Fill-404" fill="#2D2118"></path>
            <path d="M80.9466521,126.348939 C80.9466521,131.360476 76.7026121,135.422939 71.4726973,135.422939 C66.2402675,135.422939 62,131.360476 62,126.348939 C62,121.337403 66.2402675,117.274939 71.4726973,117.274939 C76.7026121,117.274939 80.9466521,121.337403 80.9466521,126.348939" id="Fill-84" fill="#1D1209"></path>
            <path d="M71.4672882,124.371469 C71.4672882,126.084135 70.0199134,127.469203 68.2330154,127.469203 C66.4486323,127.469203 65,126.084135 65,124.371469 C65,122.661211 66.4486323,121.274939 68.2330154,121.274939 C70.0199134,121.274939 71.4672882,122.661211 71.4672882,124.371469" id="Fill-85" fill="#FFFFFE"></path>
            <path d="M74.861762,128.123704 C74.861762,129.143836 73.9966066,129.971263 72.9302523,129.971263 C71.8651554,129.971263 71,129.143836 71,128.123704 C71,127.102367 71.8651554,126.274939 72.9302523,126.274939 C73.9966066,126.274939 74.861762,127.102367 74.861762,128.123704" id="Fill-86" fill="#FFFFFE"></path>
            <path d="M37,126.348939 C37,131.360476 41.2427825,135.422939 46.4726973,135.422939 C51.7051271,135.422939 55.9466521,131.360476 55.9466521,126.348939 C55.9466521,121.337403 51.7051271,117.274939 46.4726973,117.274939 C41.2427825,117.274939 37,121.337403 37,126.348939" id="Fill-90" fill="#1D1209"></path>
            <path d="M47,124.371469 C47,126.084135 48.4486323,127.469203 50.2342729,127.469203 C52.0224284,127.469203 53.4698032,126.084135 53.4698032,124.371469 C53.4698032,122.661211 52.0224284,121.274939 50.2342729,121.274939 C48.4486323,121.274939 47,122.661211 47,124.371469" id="Fill-91" fill="#FFFFFE"></path>
            <path d="M43,128.123704 C43,129.143836 43.8626404,129.971263 44.9302523,129.971263 C45.9953491,129.971263 46.8579896,129.143836 46.8579896,128.123704 C46.8579896,127.102367 45.9953491,126.274939 44.9302523,126.274939 C43.8626404,126.274939 43,127.102367 43,128.123704" id="Fill-92" fill="#FFFFFE"></path>
            <path d="M68.2112195,138.505189 C69.1642195,138.798189 69.3062195,140.840189 67.9462195,142.377189 C63.7912195,147.090189 56.1562195,147.090189 52.0012195,142.377189 C50.6392195,140.840189 50.7832195,138.798189 51.7362195,138.505189 C52.6892195,138.198189 67.2572195,138.198189 68.2112195,138.505189" id="Fill-182" fill="#DF5334"></path>
            <path d="M68.031,139.324939 L67.79,140.107939 L67.8,140.072939 L67.782,140.104939 L67.79,140.107939 L67.8,140.072939 L67.782,140.104939 L67.802,140.124939 C67.85,140.174939 67.95,140.402939 67.947,140.735939 C67.949,141.269939 67.718,142.017939 67.152,142.654939 C65.241,144.821939 62.525,145.911939 59.793,145.912939 C57.06,145.911939 54.344,144.821939 52.435,142.654939 C51.867,142.017939 51.636,141.269939 51.638,140.735939 C51.637,140.483939 51.69,140.287939 51.742,140.190939 L51.798,140.108939 L51.803,140.104939 L51.786,140.075939 L51.795,140.107939 L51.803,140.104939 L51.786,140.075939 L51.795,140.107939 L51.807,140.104939 L51.732,139.871939 L51.784,140.110939 L51.807,140.104939 L51.732,139.871939 L51.784,140.110939 C51.8,140.106939 51.916,140.088939 52.073,140.075939 C52.634,140.024939 53.76,139.981939 55.135,139.954939 C56.512,139.927939 58.153,139.913939 59.793,139.913939 C61.728,139.913939 63.663,139.932939 65.167,139.970939 C65.919,139.989939 66.564,140.013939 67.04,140.041939 C67.278,140.055939 67.474,140.070939 67.613,140.085939 L67.771,140.105939 L67.802,140.110939 L67.853,139.873939 L67.779,140.104939 L67.802,140.110939 L67.853,139.873939 L67.779,140.104939 L67.79,140.107939 L68.031,139.324939 L68.282,138.544939 C68.091,138.487939 67.971,138.478939 67.784,138.455939 C67.166,138.391939 66.043,138.349939 64.618,138.318939 C63.198,138.289939 61.495,138.274939 59.793,138.274939 C57.847,138.274939 55.902,138.293939 54.377,138.332939 C53.614,138.351939 52.957,138.375939 52.45,138.405939 C52.197,138.420939 51.981,138.436939 51.802,138.455939 C51.615,138.478939 51.494,138.487939 51.304,138.544939 L51.556,139.324939 L51.316,138.540939 C50.831,138.687939 50.48,139.052939 50.284,139.442939 C50.083,139.837939 50.001,140.275939 50,140.735939 C50.002,141.702939 50.377,142.797939 51.207,143.739939 C53.45,146.284939 56.63,147.551939 59.793,147.550939 C62.955,147.551939 66.135,146.284939 68.38,143.738939 C69.208,142.796939 69.582,141.701939 69.585,140.735939 C69.584,140.275939 69.501,139.838939 69.302,139.443939 C69.106,139.053939 68.755,138.688939 68.271,138.541939 L68.031,139.324939 L68.282,138.544939 L68.031,139.324939" id="Fill-183" fill="#1D1209"></path>
            <path d="M63.9836667,141.274939 C63.6296667,141.946939 60.5846667,141.753939 60.1786667,141.274939 C59.7766667,140.795939 60.1786667,138.274939 60.1786667,138.274939 L63.9836667,138.274939 C63.9836667,138.274939 64.3366667,140.601939 63.9836667,141.274939" id="Fill-184" fill="#FFFFFE"></path>
            <path d="M63.08,141.710939 L63.461,141.911939 L63.174,141.588939 L63.08,141.710939 L63.461,141.911939 L63.174,141.588939 L63.279,141.707939 L63.2,141.567939 L63.174,141.588939 L63.279,141.707939 L63.2,141.567939 C63.192,141.576939 63.047,141.631939 62.849,141.660939 C62.65,141.691939 62.396,141.708939 62.132,141.708939 C61.723,141.709939 61.284,141.667939 60.958,141.603939 C60.796,141.572939 60.661,141.534939 60.587,141.505939 L60.533,141.481939 L60.341,141.804939 L60.624,141.565939 L60.533,141.481939 L60.341,141.804939 L60.624,141.565939 L60.387,141.767939 L60.687,141.662939 L60.626,141.567939 L60.387,141.767939 L60.687,141.662939 C60.674,141.645939 60.634,141.389939 60.638,141.102939 C60.638,140.712939 60.68,140.230939 60.723,139.858939 C60.7336667,139.783606 60.4923333,139.801939 59.999,139.913939 L60.4288094,139.906279 L63.085,139.858939 L63.016,139.650102 L62.994,139.216939 C62.994,139.216939 63.003,139.271939 63.016,139.376939 C63.058,139.689939 63.115,140.883939 63.114,141.481939 C63.114,141.678939 63.132,141.396939 63.114,141.530939 L63.085,141.685939 L63.074,141.720939 L63.176,141.769939 L63.076,141.717939 L63.176,141.769939 L63.076,141.717939 L63.804,142.093939 L64.532,142.470939 C64.661,142.212939 64.704,141.983939 64.738,141.745939 C64.769,141.507939 64.78,141.263939 64.78,141.016939 C64.778,140.039939 64.616,138.992939 64.615,138.971939 C64.554,138.570939 64.21,138.274939 63.804,138.274939 L59.999,138.274939 C59.595,138.274939 59.253,138.566939 59.19,138.964939 C59.188,138.986939 59.002,140.114939 59,141.102939 C59,141.353939 59.012,141.596939 59.05,141.836939 C59.097,142.077939 59.135,142.320939 59.371,142.620939 C59.601,142.876939 59.8,142.951939 60.002,143.036939 C60.304,143.150939 60.634,143.218939 60.997,143.270939 C61.358,143.320939 61.747,143.347939 62.132,143.347939 C62.567,143.346939 62.992,143.315939 63.386,143.224939 C63.583,143.177939 63.775,143.117939 63.969,143.014939 C64.159,142.911939 64.375,142.760939 64.528,142.477939 L63.804,142.093939 L63.08,141.710939 Z" id="Fill-185" fill="#2D2118"></path>
            <path d="M59.9836667,141.274939 C59.6296667,141.946939 56.5846667,141.753939 56.1786667,141.274939 C55.7766667,140.795939 56.1786667,138.274939 56.1786667,138.274939 L59.9836667,138.274939 C59.9836667,138.274939 60.3366667,140.601939 59.9836667,141.274939" id="Fill-184" fill="#FFFFFE"></path>
            <path d="M59.08,141.710939 L59.461,141.911939 L59.174,141.588939 L59.08,141.710939 L59.461,141.911939 L59.174,141.588939 L59.279,141.707939 L59.2,141.567939 L59.174,141.588939 L59.279,141.707939 L59.2,141.567939 C59.192,141.576939 59.047,141.631939 58.849,141.660939 C58.65,141.691939 58.396,141.708939 58.132,141.708939 C57.723,141.709939 57.284,141.667939 56.958,141.603939 C56.796,141.572939 56.661,141.534939 56.587,141.505939 L56.533,141.481939 L56.341,141.804939 L56.624,141.565939 L56.533,141.481939 L56.341,141.804939 L56.624,141.565939 L56.387,141.767939 L56.687,141.662939 L56.626,141.567939 L56.387,141.767939 L56.687,141.662939 C56.674,141.645939 56.634,141.389939 56.638,141.102939 C56.638,140.712939 56.68,140.230939 56.723,139.858939 C56.7336667,139.783606 56.4923333,139.801939 55.999,139.913939 L56.4288094,139.906279 L59.085,139.858939 L59.016,139.650102 L58.994,139.216939 C58.994,139.216939 59.003,139.271939 59.016,139.376939 C59.058,139.689939 59.115,140.883939 59.114,141.481939 C59.114,141.678939 59.132,141.396939 59.114,141.530939 L59.085,141.685939 L59.074,141.720939 L59.176,141.769939 L59.076,141.717939 L59.176,141.769939 L59.076,141.717939 L59.804,142.093939 L60.532,142.470939 C60.661,142.212939 60.704,141.983939 60.738,141.745939 C60.769,141.507939 60.78,141.263939 60.78,141.016939 C60.778,140.039939 60.616,138.992939 60.615,138.971939 C60.554,138.570939 60.21,138.274939 59.804,138.274939 L55.999,138.274939 C55.595,138.274939 55.253,138.566939 55.19,138.964939 C55.188,138.986939 55.002,140.114939 55,141.102939 C55,141.353939 55.012,141.596939 55.05,141.836939 C55.097,142.077939 55.135,142.320939 55.371,142.620939 C55.601,142.876939 55.8,142.951939 56.002,143.036939 C56.304,143.150939 56.634,143.218939 56.997,143.270939 C57.358,143.320939 57.747,143.347939 58.132,143.347939 C58.567,143.346939 58.992,143.315939 59.386,143.224939 C59.583,143.177939 59.775,143.117939 59.969,143.014939 C60.159,142.911939 60.375,142.760939 60.528,142.477939 L59.804,142.093939 L59.08,141.710939 Z" id="Fill-185" fill="#2D2118"></path>
            <path d="M55.9836667,141.274939 C55.6296667,141.946939 52.5846667,141.753939 52.1786667,141.274939 C51.7766667,140.795939 52.1786667,138.274939 52.1786667,138.274939 L55.9836667,138.274939 C55.9836667,138.274939 56.3366667,140.601939 55.9836667,141.274939" id="Fill-184" fill="#FFFFFE"></path>
            <path d="M55.08,141.710939 L55.461,141.911939 L55.174,141.588939 L55.08,141.710939 L55.461,141.911939 L55.174,141.588939 L55.279,141.707939 L55.2,141.567939 L55.174,141.588939 L55.279,141.707939 L55.2,141.567939 C55.192,141.576939 55.047,141.631939 54.849,141.660939 C54.65,141.691939 54.396,141.708939 54.132,141.708939 C53.723,141.709939 53.284,141.667939 52.958,141.603939 C52.796,141.572939 52.661,141.534939 52.587,141.505939 L52.533,141.481939 L52.341,141.804939 L52.624,141.565939 L52.533,141.481939 L52.341,141.804939 L52.624,141.565939 L52.387,141.767939 L52.687,141.662939 L52.626,141.567939 L52.387,141.767939 L52.687,141.662939 C52.674,141.645939 52.634,141.389939 52.638,141.102939 C52.638,140.712939 52.68,140.230939 52.723,139.858939 C52.7336667,139.783606 52.4923333,139.801939 51.999,139.913939 L52.4288094,139.906279 L55.085,139.858939 L55.016,139.650102 L54.994,139.216939 C54.994,139.216939 55.003,139.271939 55.016,139.376939 C55.058,139.689939 55.115,140.883939 55.114,141.481939 C55.114,141.678939 55.132,141.396939 55.114,141.530939 L55.085,141.685939 L55.074,141.720939 L55.176,141.769939 L55.076,141.717939 L55.176,141.769939 L55.076,141.717939 L55.804,142.093939 L56.532,142.470939 C56.661,142.212939 56.704,141.983939 56.738,141.745939 C56.769,141.507939 56.78,141.263939 56.78,141.016939 C56.778,140.039939 56.616,138.992939 56.615,138.971939 C56.554,138.570939 56.21,138.274939 55.804,138.274939 L51.999,138.274939 C51.595,138.274939 51.253,138.566939 51.19,138.964939 C51.188,138.986939 51.002,140.114939 51,141.102939 C51,141.353939 51.012,141.596939 51.05,141.836939 C51.097,142.077939 51.135,142.320939 51.371,142.620939 C51.601,142.876939 51.8,142.951939 52.002,143.036939 C52.304,143.150939 52.634,143.218939 52.997,143.270939 C53.358,143.320939 53.747,143.347939 54.132,143.347939 C54.567,143.346939 54.992,143.315939 55.386,143.224939 C55.583,143.177939 55.775,143.117939 55.969,143.014939 C56.159,142.911939 56.375,142.760939 56.528,142.477939 L55.804,142.093939 L55.08,141.710939 Z" id="Fill-185" fill="#2D2118"></path>
            <path d="M67.9836667,141.274939 C67.6296667,141.946939 64.5846667,141.753939 64.1786667,141.274939 C63.7766667,140.795939 64.1786667,138.274939 64.1786667,138.274939 L67.9836667,138.274939 C67.9836667,138.274939 68.3366667,140.601939 67.9836667,141.274939" id="Fill-184" fill="#FFFFFE"></path>
            <path d="M67.08,141.710939 L67.461,141.911939 L67.174,141.588939 L67.08,141.710939 L67.461,141.911939 L67.174,141.588939 L67.279,141.707939 L67.2,141.567939 L67.174,141.588939 L67.279,141.707939 L67.2,141.567939 C67.192,141.576939 67.047,141.631939 66.849,141.660939 C66.65,141.691939 66.396,141.708939 66.132,141.708939 C65.723,141.709939 65.284,141.667939 64.958,141.603939 C64.796,141.572939 64.661,141.534939 64.587,141.505939 L64.533,141.481939 L64.341,141.804939 L64.624,141.565939 L64.533,141.481939 L64.341,141.804939 L64.624,141.565939 L64.387,141.767939 L64.687,141.662939 L64.626,141.567939 L64.387,141.767939 L64.687,141.662939 C64.674,141.645939 64.634,141.389939 64.638,141.102939 C64.638,140.712939 64.68,140.230939 64.723,139.858939 C64.7336667,139.783606 64.4923333,139.801939 63.999,139.913939 L64.4288094,139.906279 L67.085,139.858939 L67.016,139.650102 L66.994,139.216939 C66.994,139.216939 67.003,139.271939 67.016,139.376939 C67.058,139.689939 67.115,140.883939 67.114,141.481939 C67.114,141.678939 67.132,141.396939 67.114,141.530939 L67.085,141.685939 L67.074,141.720939 L67.176,141.769939 L67.076,141.717939 L67.176,141.769939 L67.076,141.717939 L67.804,142.093939 L68.532,142.470939 C68.661,142.212939 68.704,141.983939 68.738,141.745939 C68.769,141.507939 68.78,141.263939 68.78,141.016939 C68.778,140.039939 68.616,138.992939 68.615,138.971939 C68.554,138.570939 68.21,138.274939 67.804,138.274939 L63.999,138.274939 C63.595,138.274939 63.253,138.566939 63.19,138.964939 C63.188,138.986939 63.002,140.114939 63,141.102939 C63,141.353939 63.012,141.596939 63.05,141.836939 C63.097,142.077939 63.135,142.320939 63.371,142.620939 C63.601,142.876939 63.8,142.951939 64.002,143.036939 C64.304,143.150939 64.634,143.218939 64.997,143.270939 C65.358,143.320939 65.747,143.347939 66.132,143.347939 C66.567,143.346939 66.992,143.315939 67.386,143.224939 C67.583,143.177939 67.775,143.117939 67.969,143.014939 C68.159,142.911939 68.375,142.760939 68.528,142.477939 L67.804,142.093939 L67.08,141.710939 Z" id="Fill-185" fill="#2D2118"></path>
            <path d="M62.3659506,114.751301 L71.9693062,120.780807 C72.549559,121.14528 73.3003397,120.94494 73.647118,120.331852 C73.9927518,119.719971 73.8016232,118.928266 73.2213704,118.563793 L63.6180149,112.534287 C63.037762,112.168607 62.2869813,112.370154 61.9413475,112.982035 C61.5945692,113.595123 61.7856978,114.386828 62.3659506,114.751301" id="Fill-89" fill="#1D1209" transform="translate(67.793827, 116.657256) rotate(-59.000000) translate(-67.793827, -116.657256) "></path>
            <path d="M53.9696384,112.259348 L44.3662828,118.288853 C43.78603,118.653327 43.5949014,119.445032 43.9405352,120.056913 C44.2873135,120.670001 45.0380942,120.870341 45.618347,120.505867 L55.2217026,114.476362 C55.8019554,114.111888 55.993084,113.320184 55.6463057,112.707096 C55.3006719,112.095214 54.5498912,111.893668 53.9696384,112.259348" id="Fill-93" fill="#1D1209" transform="translate(49.793827, 116.382316) rotate(59.000000) translate(-49.793827, -116.382316) "></path>
        </g>
    </g>
</svg>
