<svg class="plant-index" viewBox="0 0 119 129" version="1.1" xmlns="http://www.w3.org/2000/svg" xmlns:xlink="http://www.w3.org/1999/xlink" preserveAspectRatio="xMidYMin meet">
    <defs>
        <path d="M62.876,5.117 C59.111,5.117 6.405,5.117 1.502,5.117 C1.46,5.036 1.407,4.918 1.359,4.771 C1.205,4.325 1.067,3.629 0.98,2.823 C0.904,2.125 0.861,1.341 0.851,0.532 C0.964,0.61 1.085,0.651 1.215,0.651 C3.594,0.651 59.942,0.651 62.962,0.651 C63.308,0.651 63.609,0.47 63.868,0.151 C63.848,1.605 63.682,3.014 63.401,3.981 C63.255,4.5 63.067,4.884 62.939,5.046 L62.876,5.117 Z" id="path-1"></path>
    </defs>
    <g id="Page-1" stroke="none" stroke-width="1" fill="none" fill-rule="evenodd">
        <g id="iStock-928181060" transform="translate(-153.000000, -144.000000)">
            <path d="M220.832,168.021 C221.672,173.747 217.909,177.45 217.909,177.45 C217.909,177.45 212.622,175.364 211.494,169.872 C210.706,166.043 212.47,157.845 214.158,157.366 C215.848,156.885 220.265,164.153 220.832,168.021" id="Fill-316" fill="#58812B"></path>
            <path d="M220.832,168.021 L219.882,168.159 C219.959,168.688 219.994,169.195 219.994,169.683 C219.994,171.86 219.298,173.641 218.596,174.883 C218.245,175.503 217.895,175.985 217.636,176.307 C217.507,176.467 217.401,176.588 217.331,176.666 L217.252,176.749 L217.236,176.766 L217.909,177.45 L218.261,176.558 L218.144,176.855 L218.263,176.558 L218.261,176.558 L218.144,176.855 L218.263,176.558 C218.245,176.552 217.002,176.045 215.672,174.928 C214.337,173.807 212.934,172.111 212.434,169.679 C212.318,169.121 212.258,168.405 212.259,167.612 C212.257,165.662 212.611,163.252 213.128,161.343 C213.385,160.389 213.686,159.555 213.975,158.99 C214.117,158.707 214.258,158.494 214.36,158.376 L214.464,158.273 L214.471,158.269 L214.368,158.105 L214.42,158.289 L214.471,158.269 L214.368,158.105 L214.42,158.289 L214.422,158.288 L214.326,157.951 L214.326,158.302 L214.422,158.288 L214.326,157.951 L214.326,158.302 L214.326,158.164 L214.296,158.3 L214.326,158.302 L214.326,158.164 L214.296,158.3 C214.303,158.296 214.477,158.365 214.696,158.543 C215.087,158.849 215.624,159.438 216.167,160.182 C216.989,161.298 217.851,162.763 218.537,164.218 C219.225,165.669 219.734,167.129 219.882,168.16 L220.832,168.021 L221.781,167.881 C221.623,166.818 221.235,165.627 220.72,164.4 C219.945,162.562 218.881,160.66 217.807,159.172 C217.268,158.427 216.73,157.787 216.191,157.296 C215.92,157.051 215.649,156.842 215.354,156.677 C215.058,156.516 214.729,156.386 214.326,156.383 C214.185,156.383 214.038,156.401 213.894,156.443 L213.896,156.442 C213.447,156.576 213.151,156.843 212.904,157.126 C212.478,157.629 212.161,158.268 211.858,159.035 C210.976,161.324 210.346,164.76 210.339,167.612 C210.34,168.499 210.402,169.328 210.554,170.066 C211.174,173.086 212.94,175.164 214.513,176.461 C216.091,177.762 217.496,178.318 217.557,178.343 L218.136,178.572 L218.582,178.134 C218.627,178.089 219.445,177.279 220.267,175.828 C221.086,174.379 221.913,172.275 221.913,169.683 C221.913,169.105 221.873,168.504 221.781,167.882 L220.832,168.021" id="Fill-317" fill="#1D1209"></path>
            <path d="M207.5,214.74 C207.506,214.698 208.919,206.449 208.92,196.449 C208.915,188.853 208.12,180.252 205.166,173.379 C203.685,169.945 201.646,166.927 198.841,164.756 C196.04,162.583 192.476,161.307 188.167,161.313 L187.927,161.315 L187.963,163.754 L188.167,163.753 C192.007,163.759 194.959,164.846 197.348,166.686 C200.925,169.441 203.249,174.046 204.636,179.426 C206.027,184.796 206.482,190.886 206.48,196.449 C206.481,201.335 206.133,205.817 205.786,209.07 C205.612,210.696 205.439,212.016 205.309,212.927 C205.244,213.382 205.19,213.735 205.153,213.973 C205.115,214.211 205.095,214.328 205.095,214.329 L207.5,214.74" id="Fill-318" fill="#1D1209"></path>
            <path d="M220.222,214.329 C220.222,214.328 220.202,214.211 220.164,213.973 C219.901,212.309 218.835,205.001 218.836,196.451 C218.83,189.034 219.653,180.677 222.391,174.345 C223.756,171.176 225.582,168.529 227.967,166.686 C230.356,164.846 233.308,163.759 237.148,163.753 L237.355,163.754 L237.391,161.315 L237.148,161.313 C232.839,161.307 229.275,162.583 226.475,164.756 C222.266,168.022 219.787,173.152 218.318,178.816 C216.852,184.491 216.397,190.755 216.396,196.451 C216.397,206.45 217.811,214.699 217.817,214.74 L220.222,214.329" id="Fill-319" fill="#1D1209"></path>
            <path d="M179.593,159.875 C185.238,158.597 189.219,162.065 189.219,162.065 C189.219,162.065 187.543,167.497 182.154,169.045 C178.396,170.123 170.09,168.992 169.48,167.344 C168.872,165.697 175.779,160.737 179.593,159.875" id="Fill-320" fill="#89C140"></path>
            <path d="M179.593,159.875 L179.804,160.811 C180.611,160.628 181.376,160.552 182.097,160.552 C184.051,160.551 185.688,161.118 186.837,161.688 C187.41,161.973 187.859,162.257 188.16,162.466 C188.31,162.571 188.422,162.656 188.495,162.713 L188.573,162.776 L188.588,162.789 L188.615,162.757 L188.588,162.788 L188.588,162.789 L188.615,162.757 L188.588,162.788 L189.219,162.065 L188.301,161.782 L188.613,161.878 L188.302,161.78 L188.301,161.782 L188.613,161.878 L188.302,161.78 C188.297,161.799 187.886,163.077 186.875,164.489 C185.859,165.906 184.276,167.437 181.889,168.122 C181.007,168.378 179.708,168.51 178.316,168.508 C176.455,168.509 174.407,168.282 172.824,167.92 C172.035,167.74 171.359,167.524 170.909,167.312 C170.685,167.208 170.518,167.104 170.431,167.032 L170.358,166.964 L170.357,166.963 L170.18,167.085 L170.381,167.012 L170.357,166.963 L170.18,167.085 L170.381,167.012 L170.083,167.121 L170.402,167.121 L170.38,167.011 L170.083,167.121 L170.402,167.121 L170.285,167.121 L170.401,167.133 L170.402,167.121 L170.285,167.121 L170.401,167.133 L170.437,167.028 C170.543,166.751 171.001,166.154 171.672,165.537 C172.678,164.595 174.148,163.525 175.651,162.641 C177.15,161.756 178.707,161.055 179.804,160.811 L179.593,159.875 L179.381,158.938 C178.343,159.175 177.199,159.645 176.027,160.244 C174.272,161.143 172.474,162.333 171.073,163.506 C170.373,164.094 169.772,164.675 169.316,165.244 C169.088,165.53 168.895,165.813 168.746,166.112 C168.599,166.412 168.485,166.735 168.482,167.121 C168.482,167.302 168.512,167.494 168.58,167.677 C168.725,168.059 168.969,168.317 169.225,168.526 C169.679,168.887 170.227,169.135 170.875,169.363 C172.805,170.028 175.668,170.423 178.316,170.428 C179.827,170.426 181.252,170.299 182.418,169.967 C185.383,169.116 187.319,167.195 188.492,165.527 C189.668,163.854 190.115,162.41 190.136,162.348 L190.319,161.751 L189.849,161.341 C189.804,161.302 189.033,160.636 187.69,159.969 C186.349,159.303 184.425,158.633 182.097,158.632 C181.24,158.632 180.33,158.724 179.381,158.939 L179.593,159.875" id="Fill-321" fill="#1D1209"></path>
            <path d="M200.227,155.034 C201.954,160.559 198.818,164.806 198.818,164.806 C198.818,164.806 193.268,163.574 191.293,158.326 C189.915,154.668 190.373,146.296 191.966,145.556 C193.559,144.817 199.059,151.304 200.227,155.034" id="Fill-322" fill="#89C140"></path>
            <path d="M200.227,155.034 L199.31,155.321 C199.653,156.417 199.785,157.45 199.786,158.405 C199.786,160.136 199.344,161.611 198.899,162.649 C198.678,163.168 198.456,163.576 198.294,163.848 C198.213,163.985 198.147,164.087 198.103,164.153 L198.055,164.223 L198.045,164.237 L198.121,164.291 L198.046,164.236 L198.045,164.237 L198.121,164.291 L198.046,164.236 L198.818,164.806 L199.026,163.869 L198.962,164.157 L199.028,163.869 L199.026,163.869 L198.962,164.157 L199.028,163.869 C199.009,163.866 197.702,163.559 196.213,162.665 C194.718,161.767 193.065,160.312 192.191,157.988 C191.698,156.701 191.429,154.49 191.435,152.351 C191.434,150.79 191.569,149.248 191.806,148.099 C191.923,147.526 192.068,147.05 192.208,146.745 C192.276,146.594 192.343,146.487 192.384,146.436 L192.416,146.399 L192.285,146.246 L192.369,146.427 L192.416,146.399 L192.285,146.246 L192.369,146.427 L192.25,146.168 L192.25,146.458 L192.371,146.427 L192.25,146.168 L192.25,146.458 L192.268,146.46 C192.332,146.468 192.541,146.543 192.799,146.704 C193.258,146.984 193.876,147.5 194.522,148.153 C195.494,149.134 196.544,150.425 197.423,151.726 C198.302,153.023 199.009,154.348 199.311,155.321 L200.227,155.034 L201.142,154.747 C200.826,153.745 200.274,152.657 199.594,151.55 C198.573,149.895 197.263,148.216 195.995,146.914 C195.359,146.263 194.736,145.706 194.138,145.288 C193.838,145.079 193.544,144.904 193.24,144.77 C192.936,144.639 192.619,144.541 192.25,144.538 C192.03,144.538 191.789,144.58 191.561,144.686 C191.261,144.827 191.046,145.033 190.876,145.247 C190.582,145.626 190.394,146.058 190.227,146.555 C189.745,148.033 189.52,150.153 189.515,152.351 C189.521,154.648 189.765,156.974 190.395,158.665 C191.481,161.551 193.551,163.326 195.308,164.36 C197.071,165.398 198.546,165.727 198.61,165.743 L199.219,165.878 L199.59,165.376 C199.648,165.288 201.695,162.529 201.705,158.405 C201.706,157.272 201.546,156.038 201.143,154.748 L200.227,155.034" id="Fill-323" fill="#1D1209"></path>
            <path d="M188.425,167.13 C193.64,164.615 198.299,167.1 198.299,167.1 C198.299,167.1 197.887,172.77 192.984,175.489 C189.564,177.385 181.215,178.15 180.251,176.682 C179.288,175.213 184.904,168.826 188.425,167.13" id="Fill-324" fill="#89C140"></path>
            <path d="M188.425,167.13 L188.841,167.994 C190.45,167.219 191.986,166.965 193.337,166.964 C194.669,166.964 195.816,167.216 196.622,167.468 C197.024,167.594 197.341,167.719 197.552,167.81 C197.657,167.855 197.736,167.892 197.786,167.917 L197.839,167.943 L197.849,167.948 L197.947,167.759 L197.847,167.947 L197.849,167.948 L197.947,167.759 L197.847,167.947 L198.299,167.1 L197.341,167.03 L197.341,167.034 C197.333,167.135 197.202,168.48 196.527,170.066 C195.85,171.657 194.656,173.464 192.519,174.65 C191.577,175.176 190.043,175.66 188.409,175.983 C186.772,176.31 185.021,176.491 183.601,176.49 C182.8,176.491 182.103,176.431 181.624,176.326 C181.385,176.276 181.203,176.212 181.104,176.163 L181.02,176.114 L181.019,176.113 L180.873,176.273 L181.053,176.155 L181.019,176.113 L180.873,176.273 L181.053,176.155 L181.052,176.153 L180.78,176.332 L181.097,176.251 L181.052,176.153 L180.78,176.332 L181.097,176.251 L180.97,176.283 L181.101,176.268 L181.097,176.251 L180.97,176.283 L181.101,176.268 L181.1,176.259 C181.096,176.208 181.132,175.999 181.25,175.724 C181.45,175.236 181.866,174.548 182.417,173.813 C183.244,172.705 184.372,171.468 185.538,170.402 C186.699,169.336 187.917,168.436 188.841,167.994 L188.425,167.13 L188.008,166.265 C186.177,167.157 184.085,168.985 182.353,170.885 C181.491,171.837 180.731,172.802 180.166,173.695 C179.884,174.142 179.65,174.571 179.477,174.987 C179.306,175.406 179.185,175.808 179.181,176.259 C179.18,176.558 179.246,176.901 179.45,177.21 L179.448,177.208 C179.674,177.546 179.967,177.742 180.261,177.887 C180.706,178.102 181.196,178.216 181.754,178.297 C182.311,178.375 182.931,178.41 183.601,178.41 C185.178,178.409 187.025,178.216 188.785,177.865 C190.546,177.511 192.205,177.014 193.449,176.328 C196.146,174.833 197.601,172.526 198.369,170.637 C199.139,168.742 199.25,167.235 199.256,167.169 L199.301,166.546 L198.75,166.253 C198.667,166.212 196.487,165.049 193.337,165.044 C191.745,165.044 189.903,165.35 188.008,166.265 L188.425,167.13" id="Fill-325" fill="#1D1209"></path>
            <path d="M195.994,172.717 C201.756,172.158 205.27,176.098 205.27,176.098 C205.27,176.098 202.924,181.278 197.385,182.136 C193.523,182.735 185.421,180.57 185.024,178.859 C184.627,177.148 192.103,173.094 195.994,172.717" id="Fill-326" fill="#89C140"></path>
            <path d="M195.994,172.717 L196.086,173.672 C196.437,173.638 196.777,173.622 197.108,173.622 C199.437,173.622 201.303,174.406 202.599,175.199 C203.245,175.595 203.745,175.991 204.078,176.283 C204.244,176.429 204.368,176.548 204.448,176.629 L204.535,176.718 L204.553,176.737 L205.27,176.098 L204.395,175.702 L204.698,175.84 L204.396,175.7 L204.395,175.702 L204.698,175.84 L204.396,175.7 C204.389,175.719 203.82,176.935 202.639,178.209 C201.454,179.488 199.691,180.808 197.238,181.188 C196.852,181.247 196.392,181.278 195.885,181.278 C193.954,181.281 191.377,180.829 189.312,180.197 C188.279,179.884 187.368,179.523 186.746,179.182 C186.435,179.014 186.198,178.848 186.066,178.727 L185.948,178.6 L185.942,178.591 L185.783,178.683 L185.959,178.643 L185.942,178.591 L185.783,178.683 L185.959,178.643 L185.612,178.722 L185.968,178.722 L185.959,178.641 L185.612,178.722 L185.968,178.722 L185.778,178.722 L185.964,178.765 L185.968,178.722 L185.778,178.722 L185.964,178.765 L185.973,178.742 C185.998,178.673 186.119,178.483 186.333,178.261 C186.706,177.867 187.34,177.369 188.112,176.873 C189.272,176.125 190.747,175.365 192.195,174.775 C193.64,174.184 195.075,173.767 196.086,173.672 L195.994,172.717 L195.901,171.762 C194.825,171.868 193.608,172.2 192.349,172.658 C190.462,173.348 188.499,174.327 186.959,175.333 C186.188,175.839 185.524,176.347 185.013,176.865 C184.757,177.126 184.538,177.389 184.364,177.682 C184.193,177.974 184.052,178.308 184.049,178.722 C184.049,178.842 184.063,178.962 184.089,179.076 C184.208,179.559 184.483,179.877 184.776,180.149 C185.299,180.617 185.983,180.982 186.808,181.337 C189.273,182.376 192.984,183.189 195.885,183.197 C196.468,183.197 197.02,183.163 197.531,183.084 C200.579,182.612 202.741,180.95 204.113,179.442 C205.491,177.93 206.115,176.554 206.144,176.494 L206.401,175.925 L205.985,175.459 C205.941,175.411 205.114,174.489 203.601,173.562 C202.09,172.637 199.876,171.703 197.108,171.703 C196.715,171.703 196.313,171.722 195.901,171.762 L195.994,172.717" id="Fill-327" fill="#1D1209"></path>
            <path d="M213.81,168.796 C211.875,174.253 206.817,175.767 206.817,175.767 C206.817,175.767 203.119,171.449 204.689,166.066 C205.784,162.313 211.176,155.892 212.895,156.258 C214.613,156.623 215.117,165.113 213.81,168.796" id="Fill-328" fill="#89C140"></path>
            <path d="M213.81,168.796 L212.905,168.475 C212.017,170.976 210.425,172.562 209.035,173.543 C208.342,174.031 207.702,174.363 207.244,174.57 C207.014,174.673 206.831,174.745 206.708,174.79 L206.573,174.837 L206.543,174.847 L206.542,174.847 L206.817,175.767 L207.546,175.142 L207.545,175.142 C207.507,175.096 206.922,174.388 206.36,173.248 C205.796,172.108 205.259,170.545 205.26,168.778 C205.26,168.002 205.361,167.186 205.61,166.336 C205.838,165.548 206.325,164.531 206.957,163.487 C207.903,161.918 209.176,160.272 210.35,159.054 C210.935,158.445 211.498,157.943 211.957,157.619 C212.185,157.456 212.386,157.339 212.533,157.274 L212.703,157.211 L212.742,157.203 L212.744,157.202 L212.744,156.957 L212.693,157.196 L212.744,157.202 L212.744,156.957 L212.693,157.196 L212.763,156.877 L212.595,157.159 L212.695,157.196 L212.763,156.877 L212.595,157.159 L212.664,157.043 L212.581,157.149 L212.595,157.159 L212.664,157.043 L212.581,157.149 L212.605,157.175 C212.675,157.25 212.822,157.505 212.946,157.874 C213.138,158.43 213.306,159.236 213.417,160.151 C213.529,161.068 213.588,162.099 213.588,163.136 C213.592,165.167 213.347,167.244 212.905,168.476 L213.81,168.796 L214.714,169.117 C215.277,167.508 215.503,165.319 215.507,163.136 C215.506,161.397 215.356,159.685 215.054,158.313 C214.9,157.625 214.714,157.024 214.45,156.511 C214.315,156.255 214.161,156.017 213.949,155.803 C213.74,155.592 213.455,155.396 213.094,155.319 C212.974,155.293 212.854,155.282 212.744,155.283 C212.245,155.29 211.847,155.459 211.445,155.673 C210.75,156.058 210.038,156.655 209.288,157.396 C208.169,158.508 206.996,159.944 205.995,161.429 C204.995,162.919 204.168,164.437 203.768,165.797 C203.464,166.83 203.34,167.834 203.34,168.778 C203.342,171.005 204.027,172.892 204.703,174.225 C205.38,175.56 206.053,176.349 206.088,176.391 L206.494,176.865 L207.092,176.686 C207.16,176.665 208.515,176.256 210.14,175.112 C211.763,173.972 213.667,172.073 214.714,169.117 L213.81,168.796" id="Fill-329" fill="#1D1209"></path>
            <path d="M217.332,186.173 C213.604,190.602 208.34,190.244 208.34,190.244 C208.34,190.244 206.393,184.904 209.752,180.414 C212.095,177.285 219.397,173.166 220.878,174.112 C222.357,175.057 219.85,183.183 217.332,186.173" id="Fill-330" fill="#89C140"></path>
            <path d="M217.332,186.173 L216.598,185.555 C215.125,187.303 213.406,188.23 211.903,188.731 C210.403,189.231 209.127,189.292 208.627,189.291 L208.447,189.289 L208.408,189.287 L208.401,189.287 L208.378,189.67 L208.404,189.287 L208.401,189.287 L208.378,189.67 L208.404,189.287 L208.34,190.244 L209.241,189.915 L208.974,190.013 L209.242,189.917 L209.241,189.915 L208.974,190.013 L209.242,189.917 C209.231,189.892 208.736,188.475 208.738,186.584 C208.74,184.895 209.119,182.861 210.52,180.989 C211.428,179.761 213.436,178.165 215.446,176.958 C216.452,176.351 217.462,175.83 218.333,175.471 C219.195,175.107 219.949,174.924 220.275,174.933 L220.404,174.944 L220.404,174.94 L220.403,174.943 L220.404,174.944 L220.404,174.94 L220.403,174.943 L220.491,174.72 L220.363,174.922 L220.403,174.943 L220.491,174.72 L220.363,174.922 L220.36,174.92 L220.515,174.679 L220.271,174.837 L220.36,174.92 L220.515,174.679 L220.271,174.837 L220.311,174.811 L220.27,174.835 L220.271,174.837 L220.311,174.811 L220.27,174.835 C220.282,174.836 220.366,175.105 220.359,175.511 C220.36,176.067 220.249,176.868 220.042,177.761 C219.731,179.103 219.209,180.663 218.59,182.083 C217.975,183.501 217.248,184.787 216.597,185.555 L217.332,186.173 L218.066,186.791 C219.19,185.445 220.195,183.397 220.975,181.292 C221.361,180.241 221.683,179.18 221.911,178.194 C222.139,177.206 222.277,176.299 222.278,175.511 C222.277,175.098 222.243,174.716 222.131,174.343 C222.021,173.979 221.816,173.577 221.395,173.303 L221.392,173.301 C221.014,173.067 220.633,173.017 220.275,173.014 C219.461,173.023 218.594,173.293 217.6,173.697 C216.121,174.309 214.421,175.264 212.859,176.35 C211.298,177.441 209.886,178.641 208.983,179.839 C207.271,182.125 206.816,184.614 206.818,186.584 C206.82,188.874 207.415,190.506 207.438,190.573 L207.651,191.159 L208.275,191.202 C208.295,191.203 208.417,191.211 208.627,191.211 C209.274,191.21 210.746,191.138 212.509,190.553 C214.27,189.968 216.33,188.856 218.066,186.791 L217.332,186.173" id="Fill-331" fill="#1D1209"></path>
            <path d="M245.098,163.908 C239.768,166.164 235.234,163.457 235.234,163.457 C235.234,163.457 235.924,157.813 240.952,155.336 C244.461,153.61 252.838,153.253 253.729,154.766 C254.618,156.28 248.698,162.386 245.098,163.908" id="Fill-332" fill="#58812B"></path>
            <path d="M245.098,163.908 L244.723,163.025 C243.284,163.633 241.919,163.846 240.696,163.846 C239.229,163.847 237.967,163.536 237.08,163.225 C236.637,163.071 236.288,162.916 236.055,162.804 C235.938,162.747 235.851,162.702 235.795,162.672 L235.736,162.639 L235.725,162.632 L235.623,162.807 L235.726,162.633 L235.725,162.632 L235.623,162.807 L235.726,162.633 L235.234,163.457 L236.187,163.574 L235.859,163.534 L236.187,163.576 L236.187,163.574 L235.859,163.534 L236.187,163.576 C236.188,163.556 236.367,162.225 237.113,160.656 C237.862,159.081 239.149,157.294 241.376,156.197 C242.238,155.77 243.572,155.396 245.02,155.15 C246.469,154.902 248.041,154.771 249.42,154.771 C250.456,154.77 251.387,154.847 252.047,154.985 C252.375,155.052 252.635,155.137 252.786,155.21 L252.926,155.291 L252.933,155.297 L253.06,155.159 L252.901,155.253 L252.933,155.297 L253.06,155.159 L252.901,155.253 L252.899,155.25 L253.188,155.081 L252.862,155.159 L252.899,155.25 L253.188,155.081 L252.862,155.159 L253.028,155.119 L252.858,155.138 L252.862,155.159 L253.028,155.119 L252.858,155.138 C252.862,155.164 252.83,155.359 252.707,155.621 C252.498,156.087 252.056,156.754 251.472,157.465 C250.596,158.537 249.401,159.731 248.174,160.752 C246.951,161.773 245.677,162.625 244.723,163.025 L245.098,163.908 L245.472,164.792 C247.36,163.982 249.563,162.234 251.396,160.401 C252.307,159.484 253.114,158.549 253.716,157.68 C254.017,157.245 254.267,156.826 254.454,156.415 C254.638,156.003 254.773,155.602 254.777,155.138 C254.778,154.869 254.722,154.564 254.557,154.282 L254.555,154.278 C254.304,153.865 253.958,153.645 253.609,153.475 C253.079,153.227 252.468,153.089 251.762,152.991 C251.059,152.896 250.266,152.852 249.42,152.851 C247.922,152.852 246.261,152.991 244.696,153.258 C243.129,153.529 241.668,153.917 240.528,154.475 C237.762,155.838 236.196,158.071 235.337,159.921 C234.476,161.776 234.291,163.275 234.281,163.341 L234.205,163.961 L234.742,164.281 C234.827,164.327 237.219,165.759 240.696,165.766 C242.142,165.766 243.775,165.51 245.472,164.792 L245.098,163.908" id="Fill-333" fill="#1D1209"></path>
            <path d="M234.257,159.19 C232.111,164.565 226.999,165.881 226.999,165.881 C226.999,165.881 223.472,161.423 225.248,156.107 C226.488,152.399 232.125,146.192 233.828,146.624 C235.531,147.056 235.706,155.558 234.257,159.19" id="Fill-334" fill="#58812B"></path>
            <path d="M234.257,159.19 L233.365,158.834 C232.381,161.297 230.729,162.819 229.302,163.745 C228.589,164.206 227.938,164.513 227.471,164.702 C227.238,164.796 227.052,164.861 226.928,164.901 L226.791,164.943 L226.761,164.951 L226.759,164.952 L226.999,165.881 L227.751,165.285 C227.717,165.242 227.195,164.558 226.692,163.463 C226.188,162.366 225.706,160.866 225.707,159.181 C225.708,158.304 225.835,157.376 226.158,156.412 C226.415,155.639 226.936,154.648 227.602,153.636 C228.6,152.115 229.924,150.527 231.14,149.355 C231.746,148.769 232.327,148.286 232.801,147.972 C233.037,147.815 233.246,147.701 233.401,147.636 L233.585,147.573 L233.633,147.564 L233.645,147.562 L233.645,147.338 L233.589,147.554 L233.645,147.562 L233.645,147.338 L233.589,147.554 L233.592,147.554 L233.675,147.227 L233.5,147.517 L233.592,147.554 L233.675,147.227 L233.5,147.517 L233.592,147.365 L233.482,147.505 L233.5,147.517 L233.592,147.365 L233.482,147.505 L233.494,147.489 L233.48,147.504 L233.482,147.505 L233.494,147.489 L233.48,147.504 C233.497,147.512 233.619,147.678 233.722,147.962 C233.884,148.387 234.033,149.055 234.128,149.839 C234.225,150.625 234.275,151.532 234.275,152.472 C234.275,153.648 234.196,154.878 234.041,155.996 C233.886,157.114 233.649,158.125 233.365,158.834 L234.257,159.19 L235.148,159.545 C235.519,158.611 235.771,157.482 235.941,156.261 C236.111,155.041 236.194,153.733 236.194,152.472 C236.193,150.942 236.075,149.49 235.818,148.322 C235.687,147.736 235.526,147.221 235.288,146.77 C235.167,146.545 235.024,146.333 234.831,146.14 C234.64,145.949 234.382,145.775 234.064,145.694 L234.066,145.694 C233.919,145.657 233.776,145.643 233.645,145.643 C233.158,145.649 232.758,145.806 232.351,146.01 C231.646,146.376 230.913,146.948 230.138,147.661 C228.982,148.729 227.763,150.112 226.713,151.55 C225.666,152.991 224.788,154.466 224.337,155.802 C223.944,156.975 223.787,158.117 223.788,159.181 C223.789,161.298 224.401,163.104 225.005,164.386 C225.611,165.669 226.214,166.435 226.246,166.477 L226.633,166.966 L227.238,166.811 C227.306,166.792 228.676,166.436 230.345,165.357 C232.01,164.281 233.986,162.457 235.148,159.545 L234.257,159.19" id="Fill-335" fill="#1D1209"></path>
            <path d="M232.139,175.241 C226.352,175.38 223.133,171.197 223.133,171.197 C223.133,171.197 225.847,166.2 231.434,165.745 C235.33,165.428 243.255,168.174 243.525,169.91 C243.797,171.645 236.047,175.147 232.139,175.241" id="Fill-336" fill="#58812B"></path>
            <path d="M232.139,175.241 L232.116,174.282 L231.858,174.285 C229.289,174.284 227.301,173.362 225.933,172.428 C225.251,171.962 224.73,171.495 224.385,171.15 C224.213,170.978 224.084,170.836 224.002,170.741 L223.913,170.635 L223.894,170.612 L223.893,170.611 L223.133,171.197 L223.976,171.655 L223.678,171.493 L223.975,171.657 L223.976,171.655 L223.678,171.493 L223.975,171.657 C223.983,171.638 224.638,170.467 225.908,169.282 C227.184,168.092 229.037,166.903 231.511,166.702 C231.691,166.687 231.886,166.68 232.093,166.68 C233.936,166.674 236.683,167.287 238.909,168.101 C240.024,168.505 241.018,168.961 241.7,169.38 C242.041,169.588 242.302,169.789 242.448,169.937 L242.582,170.096 L242.59,170.109 L242.637,170.085 L242.587,170.102 L242.59,170.109 L242.637,170.085 L242.587,170.102 L242.834,170.018 L242.577,170.058 L242.587,170.102 L242.834,170.018 L242.577,170.058 L242.576,170.051 L242.915,170 L242.572,170 L242.576,170.051 L242.915,170 L242.572,170 L242.825,170 L242.578,169.939 L242.572,170 L242.825,170 L242.578,169.939 L242.63,169.952 L242.58,169.934 L242.578,169.939 L242.63,169.952 L242.58,169.934 C242.582,169.944 242.491,170.108 242.287,170.304 C241.934,170.656 241.283,171.117 240.479,171.566 C239.271,172.245 237.713,172.923 236.188,173.426 C234.665,173.932 233.155,174.26 232.115,174.282 L232.139,175.241 L232.162,176.201 C233.252,176.173 234.501,175.925 235.803,175.554 C237.752,174.993 239.798,174.148 241.409,173.246 C242.215,172.793 242.911,172.33 243.452,171.843 C243.723,171.598 243.957,171.347 244.146,171.058 C244.331,170.771 244.488,170.428 244.491,170 L244.475,169.769 L244.474,169.762 C244.381,169.236 244.104,168.886 243.806,168.579 C243.269,168.05 242.539,167.61 241.654,167.173 C240.33,166.527 238.666,165.934 236.97,165.492 C235.272,165.052 233.555,164.762 232.093,164.76 C231.839,164.76 231.594,164.769 231.355,164.789 C228.282,165.039 226.005,166.541 224.527,167.945 C223.044,169.354 222.322,170.681 222.289,170.738 L221.991,171.287 L222.372,171.782 C222.415,171.836 223.253,172.92 224.85,174.013 C226.442,175.103 228.816,176.205 231.858,176.204 C231.957,176.204 232.059,176.203 232.161,176.201 L232.139,175.241" id="Fill-337" fill="#1D1209"></path>
            <path d="M227.765,190.538 C224.242,195.132 218.966,195.012 218.966,195.012 C218.966,195.012 216.778,189.765 219.93,185.129 C222.128,181.896 229.236,177.449 230.76,178.327 C232.279,179.204 230.144,187.437 227.765,190.538" id="Fill-338" fill="#58812B"></path>
            <path d="M227.765,190.538 L227.003,189.954 C225.467,191.955 223.583,192.972 222.004,193.502 C220.429,194.03 219.172,194.053 219.003,194.052 L218.975,194.052 L218.966,195.012 L219.852,194.642 L219.662,194.721 L219.852,194.644 L219.852,194.642 L219.662,194.721 L219.852,194.644 C219.835,194.609 219.183,192.973 219.186,190.844 C219.187,189.256 219.534,187.418 220.723,185.669 C221.586,184.383 223.56,182.669 225.54,181.365 C226.53,180.708 227.526,180.143 228.38,179.753 C228.806,179.558 229.196,179.407 229.521,179.31 C229.845,179.212 230.107,179.173 230.241,179.174 L230.328,179.181 L230.339,179.124 L230.32,179.178 L230.328,179.181 L230.339,179.124 L230.32,179.178 L230.406,178.942 L230.281,179.159 L230.32,179.178 L230.406,178.942 L230.281,179.159 L230.279,179.158 L230.412,178.929 L230.185,179.078 L230.279,179.158 L230.412,178.929 L230.185,179.078 L230.21,179.137 C230.259,179.262 230.312,179.574 230.309,179.983 C230.314,181.193 229.916,183.195 229.288,185.115 C228.667,187.038 227.799,188.925 227.002,189.954 L227.765,190.538 L228.526,191.122 C229.553,189.773 230.437,187.773 231.113,185.709 C231.781,183.641 232.223,181.555 232.229,179.983 C232.227,179.5 232.188,179.061 232.068,178.644 C232.006,178.435 231.922,178.229 231.792,178.029 C231.664,177.831 231.481,177.635 231.24,177.496 L231.238,177.495 C230.898,177.303 230.557,177.256 230.241,177.255 C229.822,177.257 229.411,177.341 228.971,177.471 C227.451,177.932 225.531,179.005 223.688,180.309 C221.852,181.62 220.137,183.129 219.136,184.589 C217.684,186.722 217.265,188.98 217.266,190.844 C217.27,193.436 218.053,195.31 218.08,195.381 L218.322,195.965 L218.956,195.972 L219.003,195.972 C219.316,195.971 220.766,195.94 222.614,195.322 C224.458,194.707 226.714,193.487 228.526,191.122 L227.765,190.538" id="Fill-339" fill="#1D1209"></path>
            <path d="M217.332,200.839 C213.604,205.267 208.34,204.91 208.34,204.91 C208.34,204.91 206.393,199.569 209.752,195.08 C212.095,191.949 219.397,187.832 220.878,188.777 C222.357,189.722 219.85,197.849 217.332,200.839" id="Fill-340" fill="#89C140"></path>
            <path d="M217.332,200.839 L216.598,200.221 C215.124,201.97 213.405,202.896 211.901,203.397 C210.401,203.897 209.125,203.958 208.625,203.957 L208.446,203.954 L208.406,203.953 L208.4,203.952 L208.378,204.321 L208.402,203.953 L208.4,203.952 L208.378,204.321 L208.402,203.953 L208.34,204.91 L209.241,204.582 L208.974,204.679 L209.242,204.583 L209.241,204.582 L208.974,204.679 L209.242,204.583 C209.231,204.558 208.736,203.14 208.738,201.25 C208.74,199.561 209.119,197.527 210.52,195.656 C211.428,194.426 213.436,192.83 215.446,191.624 C216.452,191.016 217.462,190.495 218.332,190.136 C219.194,189.773 219.948,189.59 220.275,189.599 L220.404,189.609 L220.405,189.603 L220.403,189.608 L220.404,189.609 L220.405,189.603 L220.403,189.608 L220.493,189.381 L220.362,189.587 L220.403,189.608 L220.493,189.381 L220.362,189.587 L220.516,189.344 L220.271,189.503 L220.361,189.586 L220.516,189.344 L220.271,189.503 L220.272,189.505 C220.295,189.537 220.364,189.798 220.359,190.176 C220.36,190.732 220.249,191.534 220.042,192.426 C219.731,193.768 219.209,195.329 218.59,196.748 C217.975,198.167 217.248,199.453 216.597,200.221 L217.332,200.839 L218.066,201.457 C219.19,200.111 220.195,198.062 220.975,195.957 C221.361,194.906 221.683,193.846 221.911,192.859 C222.139,191.871 222.277,190.964 222.278,190.176 C222.277,189.764 222.243,189.382 222.131,189.009 C222.021,188.645 221.816,188.243 221.395,187.968 C221.015,187.732 220.633,187.682 220.275,187.679 C219.461,187.688 218.594,187.958 217.599,188.362 C216.121,188.974 214.421,189.929 212.859,191.015 C211.298,192.106 209.886,193.306 208.983,194.505 C207.271,196.79 206.816,199.28 206.818,201.25 C206.82,203.54 207.415,205.172 207.438,205.239 L207.652,205.827 L208.277,205.868 C208.296,205.869 208.417,205.877 208.625,205.877 C209.272,205.876 210.744,205.804 212.507,205.219 C214.268,204.635 216.329,203.522 218.066,201.457 L217.332,200.839" id="Fill-341" fill="#1D1209"></path>
            <path d="M199.18,182.419 C204.838,183.637 206.99,188.458 206.99,188.458 C206.99,188.458 203.184,192.681 197.642,191.816 C193.779,191.211 186.721,186.688 186.862,184.938 C187.004,183.187 195.358,181.596 199.18,182.419" id="Fill-342" fill="#89C140"></path>
            <path d="M199.18,182.419 L198.978,183.357 C201.571,183.916 203.348,185.291 204.5,186.544 C205.073,187.169 205.484,187.761 205.748,188.189 C205.88,188.403 205.975,188.576 206.035,188.692 L206.1,188.82 L206.113,188.847 L206.114,188.849 L206.99,188.458 L206.277,187.815 L206.569,188.078 L206.279,187.813 L206.277,187.815 L206.569,188.078 L206.279,187.813 C206.272,187.822 205.526,188.633 204.261,189.422 C202.993,190.213 201.225,190.974 199.139,190.973 C198.704,190.973 198.254,190.94 197.789,190.867 C196.966,190.741 195.871,190.378 194.733,189.871 C193.022,189.112 191.195,188.034 189.84,187.011 C189.164,186.502 188.603,186.003 188.247,185.597 C188.068,185.396 187.942,185.218 187.877,185.098 L187.821,184.973 L187.817,184.961 L187.643,184.991 L187.819,184.991 L187.817,184.961 L187.643,184.991 L187.819,184.991 L187.819,184.985 L187.155,184.98 L187.812,185.073 L187.819,184.985 L187.155,184.98 L187.812,185.073 L187.819,185.015 L187.53,184.991 L187.788,185.132 L187.819,185.015 L187.53,184.991 L187.788,185.132 L187.756,185.115 L187.787,185.134 L187.788,185.132 L187.756,185.115 L187.787,185.134 C187.788,185.128 187.866,185.034 188.026,184.927 C188.304,184.734 188.804,184.497 189.426,184.284 C191.3,183.631 194.274,183.151 196.647,183.155 C197.545,183.154 198.36,183.223 198.978,183.357 L199.18,182.419 L199.381,181.48 C198.568,181.306 197.641,181.236 196.647,181.236 C194.484,181.237 192.015,181.574 190.006,182.105 C189,182.373 188.113,182.683 187.404,183.064 C187.049,183.256 186.735,183.464 186.464,183.735 C186.201,184.002 185.949,184.369 185.905,184.861 L186.862,184.938 L185.912,184.802 C185.897,184.911 185.9,184.973 185.9,184.991 C185.91,185.53 186.121,185.928 186.37,186.308 C186.818,186.966 187.49,187.601 188.32,188.262 C189.564,189.246 191.16,190.249 192.789,191.072 C194.422,191.893 196.067,192.537 197.493,192.764 C198.057,192.852 198.607,192.892 199.139,192.892 C201.739,192.891 203.873,191.939 205.347,191.006 C206.824,190.07 207.662,189.144 207.703,189.1 L208.121,188.637 L207.866,188.066 C207.837,188.002 207.256,186.712 205.914,185.246 C204.575,183.784 202.446,182.14 199.381,181.48 L199.18,182.419" id="Fill-343" fill="#1D1209"></path>
            <path d="M202.756,197.034 C207.533,200.305 207.698,205.581 207.698,205.581 C207.698,205.581 202.574,208.048 197.775,205.149 C194.428,203.128 189.607,196.267 190.4,194.702 C191.197,193.135 199.531,194.825 202.756,197.034" id="Fill-344" fill="#89C140"></path>
            <path d="M202.756,197.034 L202.213,197.826 C204.403,199.326 205.527,201.272 206.118,202.867 C206.412,203.663 206.569,204.366 206.65,204.862 C206.691,205.11 206.714,205.306 206.726,205.436 L206.737,205.579 L206.739,205.61 L206.739,205.611 L207.698,205.581 L207.282,204.716 L207.359,204.879 L207.283,204.716 L207.282,204.716 L207.359,204.879 L207.283,204.716 C207.237,204.741 205.356,205.604 202.961,205.6 C201.505,205.599 199.872,205.294 198.271,204.327 C196.921,203.523 195.072,201.601 193.654,199.666 C192.94,198.699 192.323,197.723 191.897,196.893 C191.685,196.479 191.521,196.1 191.416,195.79 C191.31,195.481 191.271,195.236 191.273,195.133 L191.276,195.084 L191.058,195.041 L191.253,195.142 L191.276,195.084 L191.058,195.041 L191.253,195.142 L191.256,195.137 L190.957,194.985 L191.2,195.218 L191.256,195.137 L190.957,194.985 L191.2,195.218 L191.116,195.138 L191.182,195.234 L191.2,195.218 L191.116,195.138 L191.182,195.234 C191.188,195.226 191.324,195.159 191.552,195.119 C191.78,195.076 192.094,195.05 192.463,195.051 C193.763,195.048 195.702,195.366 197.552,195.884 C199.402,196.395 201.197,197.124 202.213,197.826 L202.756,197.034 L203.298,196.242 C201.964,195.336 200.054,194.593 198.067,194.035 C196.079,193.483 194.046,193.134 192.463,193.131 C191.87,193.133 191.337,193.178 190.85,193.313 C190.606,193.382 190.37,193.475 190.142,193.621 C189.916,193.766 189.691,193.978 189.544,194.268 L189.547,194.263 C189.393,194.566 189.354,194.862 189.354,195.133 C189.356,195.562 189.453,195.969 189.597,196.403 C190.11,197.899 191.285,199.778 192.7,201.579 C194.121,203.371 195.745,205.036 197.279,205.97 C199.229,207.149 201.238,207.521 202.961,207.519 C205.897,207.514 208.038,206.479 208.114,206.446 L208.676,206.176 L208.657,205.551 C208.654,205.481 208.606,204.067 207.918,202.202 C207.233,200.341 205.886,198.013 203.298,196.242 L202.756,197.034" id="Fill-345" fill="#1D1209"></path>
            <path d="M240.962,228.337 C237.942,228.337 181.594,228.337 179.215,228.337 C176.836,228.337 177.385,214.632 179.215,214.632 C181.043,214.632 238.309,214.632 240.962,214.632 C243.615,214.632 243.98,228.337 240.962,228.337" id="Fill-346" fill="#EC9638"></path>
            <path d="M240.962,228.337 L240.962,227.117 C237.942,227.117 181.593,227.117 179.215,227.117 L179.215,227.677 L179.552,227.221 C179.505,227.18 179.354,227.113 179.215,227.117 L179.215,227.677 L179.552,227.221 L179.434,227.38 L179.582,227.247 L179.552,227.221 L179.434,227.38 L179.582,227.247 C179.574,227.245 179.456,227.068 179.359,226.771 C179.205,226.325 179.067,225.629 178.98,224.823 C178.892,224.015 178.848,223.09 178.849,222.146 C178.847,220.4 178.999,218.572 179.254,217.258 C179.377,216.604 179.537,216.073 179.663,215.807 L179.737,215.667 L179.751,215.647 L179.751,215.645 L179.388,215.339 L179.624,215.745 L179.751,215.645 L179.388,215.339 L179.624,215.745 L179.214,215.042 L179.215,215.852 C179.379,215.854 179.537,215.798 179.624,215.745 L179.214,215.042 L179.215,215.852 C181.043,215.852 238.308,215.852 240.962,215.852 L240.962,215.484 L240.745,215.794 C240.754,215.805 240.857,215.855 240.962,215.852 L240.962,215.484 L240.745,215.794 C240.771,215.808 240.938,216.016 241.083,216.374 C241.31,216.911 241.521,217.749 241.658,218.706 C241.797,219.664 241.871,220.747 241.87,221.814 C241.873,223.386 241.704,224.939 241.401,225.981 C241.255,226.5 241.067,226.884 240.939,227.046 L240.866,227.129 L240.846,227.146 L240.926,227.263 L240.883,227.13 L240.846,227.146 L240.926,227.263 L240.883,227.13 L240.961,227.374 L240.962,227.117 L240.883,227.13 L240.961,227.374 L240.962,227.117 L240.962,229.557 C241.369,229.559 241.774,229.436 242.097,229.24 C242.668,228.892 243.012,228.398 243.28,227.876 C243.676,227.085 243.912,226.154 244.075,225.12 C244.235,224.087 244.31,222.955 244.31,221.814 C244.308,219.958 244.117,218.091 243.718,216.584 C243.513,215.828 243.267,215.161 242.888,214.583 C242.696,214.295 242.465,214.023 242.147,213.798 C241.835,213.574 241.408,213.409 240.962,213.412 C238.308,213.412 181.043,213.412 179.215,213.412 C178.95,213.411 178.691,213.483 178.486,213.588 C178.098,213.79 177.88,214.058 177.709,214.31 C177.418,214.758 177.248,215.237 177.089,215.795 C176.86,216.627 176.696,217.625 176.582,218.717 C176.468,219.808 176.409,220.986 176.409,222.146 C176.411,223.805 176.526,225.41 176.814,226.705 C176.963,227.356 177.143,227.93 177.454,228.451 C177.613,228.711 177.811,228.966 178.102,229.183 C178.388,229.4 178.797,229.561 179.215,229.557 C181.594,229.557 237.942,229.557 240.962,229.557 L240.962,228.337" id="Fill-347" fill="#1D1209"></path>
            <g id="Group-350" transform="translate(178.000000, 222.000000)">
                <mask id="mask-2" fill="white">
                    <use xlink:href="#path-1"></use>
                </mask>
                <g id="Clip-349"></g>
                <polygon id="Fill-348" fill="#D27430" mask="url(#mask-2)" points="0.851 5.117 63.868 5.117 63.868 0.151 0.851 0.151"></polygon>
            </g>
            <path d="M240.962,228.337 L240.962,227.117 L240.962,228.337 C240.871,228.337 240.731,228.337 240.546,228.337 L240.733,227.117 L179.95,227.117 L180.168,228.337 C179.679,228.337 179.354,228.337 179.215,228.337 C177.756,228.337 177.4,223.183 177.765,219.197 C177.938,220.846 178.288,222.145 178.851,222.532 C178.861,223.341 178.904,224.125 178.98,224.823 C179.067,225.629 179.205,226.325 179.359,226.771 C179.407,226.918 179.46,227.036 179.502,227.117 C184.405,227.117 237.111,227.117 240.876,227.117 L240.939,227.046 C241.067,226.884 241.255,226.5 241.401,225.981 C241.682,225.014 241.848,223.605 241.868,222.151 C242.382,221.516 242.728,220.331 242.916,218.922 C243.416,222.942 242.855,228.337 240.962,228.337" id="Fill-351" fill="#1B0C03"></path>
            <path d="M225.362,271.235 C219.508,271.235 202.492,271.235 195.906,271.235 C189.32,271.235 187.449,262.055 187.449,262.055 L181.408,228.337 L239.312,228.337 L234.055,262.582 C234.055,262.582 231.216,271.235 225.362,271.235" id="Fill-352" fill="#EC9638"></path>
            <path d="M225.362,271.235 L225.362,270.015 C219.507,270.015 202.492,270.015 195.906,270.015 C194.548,270.01 193.491,269.561 192.557,268.839 C191.164,267.76 190.14,265.996 189.513,264.488 C189.198,263.736 188.978,263.053 188.838,262.566 C188.768,262.322 188.718,262.127 188.687,261.996 L188.652,261.85 L188.645,261.816 L188.644,261.811 L187.449,262.055 L188.65,261.84 L182.866,229.557 L237.891,229.557 L232.849,262.397 L234.055,262.582 L232.896,262.202 L232.891,262.215 C232.828,262.408 232.097,264.484 230.761,266.42 C230.096,267.388 229.283,268.315 228.374,268.969 C227.458,269.625 226.482,270.012 225.362,270.015 L225.362,272.454 C227.133,272.457 228.678,271.789 229.918,270.861 C231.784,269.463 233.065,267.501 233.925,265.892 C234.78,264.281 235.198,263.007 235.213,262.963 L235.245,262.867 L240.733,227.117 L179.95,227.117 L186.248,262.27 L186.254,262.298 C186.271,262.369 186.75,264.756 188.145,267.243 C188.845,268.485 189.779,269.762 191.055,270.761 C192.324,271.76 193.971,272.459 195.906,272.454 C202.492,272.454 219.507,272.454 225.362,272.454 L225.362,271.235" id="Fill-353" fill="#1D1209"></path>
            <path d="M213.85,270.015 C207.18,270.015 199.759,270.015 195.906,270.015 C194.548,270.01 193.491,269.561 192.557,268.839 C191.164,267.76 190.14,265.996 189.513,264.488 C189.198,263.736 188.978,263.053 188.838,262.566 C188.768,262.322 188.718,262.127 188.687,261.996 L188.652,261.85 L188.647,261.822 L182.866,229.557 L198.818,229.557 C187.634,236.836 192.62,253.035 197.736,260.128 C201.423,265.243 207.531,267.888 213.85,270.015" id="Fill-354" fill="#D27430"></path>
            <path d="M217.617,271.235 L195.906,271.235 C189.32,271.235 187.449,262.055 187.449,262.055 L181.408,228.337 L201.029,228.337 C200.23,228.708 199.494,229.116 198.818,229.557 L182.866,229.557 L188.647,261.822 L188.652,261.85 L188.687,261.996 C188.718,262.127 188.768,262.322 188.838,262.566 C188.978,263.053 189.198,263.736 189.513,264.488 C190.14,265.996 191.164,267.76 192.557,268.839 C193.491,269.561 194.548,270.01 195.906,270.015 C199.759,270.015 207.18,270.015 213.85,270.015 C215.103,270.437 216.365,270.838 217.617,271.235" id="Fill-355" fill="#1B0C03"></path>
            <path d="M237.301,220.621 L183.421,220.621 C182.309,220.621 181.408,219.62 181.408,218.388 C181.408,217.155 182.309,216.155 183.421,216.155 L237.301,216.155 C238.41,216.155 239.312,217.155 239.312,218.388 C239.312,219.62 238.41,220.621 237.301,220.621" id="Fill-356" fill="#F6BC54"></path>
            <path d="M230.106,262.029 C230.101,262.029 230.095,262.028 230.09,262.028 C228.889,261.866 230.752,243.078 229.349,238.702 C227.942,234.326 210.787,230.778 210.787,230.778 C210.787,230.778 215.569,230.299 220.843,230.299 C227.337,230.299 234.576,231.025 234.542,234.266 C234.432,244.531 231.317,262.03 230.106,262.029" id="Fill-357" fill="#F6BC54"></path>
            <path d="M199.182,214.492 C199.17,214.421 198.475,208.334 195.642,202.13 C194.222,199.029 192.262,195.885 189.514,193.473 C186.775,191.062 183.199,189.415 178.796,189.423 C175.814,189.423 172.475,190.161 168.739,191.827 L169.733,194.055 C173.222,192.5 176.221,191.862 178.796,191.862 C182.593,191.87 185.513,193.222 187.906,195.308 C191.488,198.433 193.756,203.307 195.066,207.414 C195.724,209.465 196.149,211.318 196.409,212.651 C196.539,213.318 196.627,213.854 196.682,214.221 C196.71,214.405 196.729,214.546 196.742,214.639 L196.755,214.743 L196.759,214.772 L199.183,214.492" id="Fill-358" fill="#1D1209"></path>
            <path d="M160.516,193.82 C165.189,190.403 170.22,192.003 170.22,192.003 C170.22,192.003 170.841,197.655 166.512,201.216 C163.492,203.699 155.418,205.963 154.205,204.693 C152.992,203.422 157.359,196.126 160.516,193.82" id="Fill-359" fill="#56B146"></path>
            <path d="M160.516,193.82 L161.082,194.594 C163.294,192.978 165.578,192.59 167.298,192.589 C168.101,192.588 168.775,192.675 169.24,192.76 C169.473,192.803 169.653,192.845 169.771,192.875 L169.9,192.909 L169.928,192.918 L169.929,192.918 L170.22,192.003 L169.265,192.106 L169.266,192.108 C169.269,192.142 169.29,192.379 169.29,192.76 C169.291,193.517 169.202,194.843 168.73,196.272 C168.257,197.703 167.417,199.227 165.901,200.475 C164.858,201.342 162.893,202.294 160.896,202.976 C158.906,203.666 156.831,204.104 155.64,204.098 C155.35,204.098 155.118,204.071 154.983,204.037 L154.862,203.997 L154.857,203.995 L154.75,204.175 L154.901,204.032 L154.857,203.995 L154.75,204.175 L154.901,204.032 L154.899,204.03 L154.71,204.21 L154.966,204.133 L154.899,204.03 L154.71,204.21 L154.966,204.133 L154.957,204.017 C154.947,203.715 155.132,202.985 155.503,202.151 C156.053,200.887 156.976,199.323 158.003,197.918 C159.025,196.512 160.173,195.253 161.082,194.595 L160.516,193.82 L159.949,193.045 C158.379,194.202 156.735,196.242 155.401,198.329 C154.738,199.372 154.164,200.422 153.744,201.384 C153.328,202.354 153.047,203.202 153.037,204.017 C153.038,204.236 153.06,204.458 153.129,204.688 C153.197,204.915 153.318,205.154 153.511,205.356 L153.509,205.354 C153.821,205.675 154.178,205.813 154.526,205.902 C154.877,205.987 155.244,206.016 155.64,206.017 C157.226,206.011 159.376,205.523 161.521,204.791 C163.662,204.049 165.743,203.081 167.121,201.957 C168.969,200.437 169.998,198.562 170.553,196.873 C171.11,195.18 171.209,193.662 171.209,192.76 C171.209,192.243 171.177,191.929 171.174,191.9 L171.106,191.278 L170.51,191.088 C170.445,191.069 169.179,190.67 167.298,190.669 C165.295,190.667 162.563,191.133 159.949,193.045 L160.516,193.82" id="Fill-360" fill="#1D1209"></path>
            <path d="M177.525,181.178 C181.308,185.562 180.119,190.705 180.119,190.705 C180.119,190.705 174.533,191.779 170.635,187.749 C167.919,184.94 165.01,177.075 166.18,175.764 C167.348,174.451 174.973,178.218 177.525,181.178" id="Fill-361" fill="#56B146"></path>
            <path d="M177.525,181.178 L176.798,181.804 C178.925,184.269 179.333,186.99 179.335,188.746 C179.335,189.295 179.294,189.744 179.255,190.05 C179.235,190.203 179.216,190.319 179.202,190.394 L179.187,190.475 L179.183,190.491 L179.299,190.517 L179.184,190.49 L179.183,190.491 L179.299,190.517 L179.184,190.49 L180.119,190.705 L179.938,189.762 L179.948,189.818 L179.938,189.762 L179.948,189.818 L179.938,189.762 C179.904,189.768 179.304,189.875 178.398,189.875 C177.492,189.875 176.283,189.767 175.028,189.364 C173.771,188.959 172.471,188.267 171.324,187.082 C170.326,186.06 169.155,184.031 168.298,181.991 C167.866,180.97 167.504,179.942 167.254,179.03 C167.003,178.121 166.87,177.316 166.873,176.813 C166.872,176.628 166.89,176.487 166.909,176.415 L166.926,176.36 L166.746,176.274 L166.893,176.406 L166.926,176.36 L166.746,176.274 L166.893,176.406 L166.897,176.401 L166.646,176.178 L166.819,176.467 L166.897,176.401 L166.646,176.178 L166.819,176.467 L166.755,176.36 L166.799,176.478 L166.819,176.467 L166.755,176.36 L166.799,176.478 C166.801,176.476 166.883,176.454 167.023,176.455 C167.411,176.449 168.167,176.611 169.029,176.928 C170.332,177.398 171.92,178.185 173.356,179.077 C174.793,179.965 176.088,180.975 176.798,181.804 L177.525,181.178 L178.252,180.551 C177.006,179.118 174.921,177.685 172.793,176.537 C171.73,175.966 170.661,175.477 169.681,175.122 C168.695,174.771 167.82,174.541 167.023,174.535 C166.76,174.536 166.5,174.562 166.232,174.644 C165.968,174.725 165.686,174.874 165.462,175.126 L165.466,175.121 C165.231,175.385 165.115,175.676 165.045,175.955 C164.977,176.236 164.954,176.518 164.953,176.813 C164.956,177.607 165.126,178.522 165.403,179.537 C165.819,181.053 166.484,182.769 167.274,184.359 C168.068,185.949 168.97,187.403 169.944,188.416 C171.34,189.86 172.942,190.71 174.441,191.191 C175.942,191.673 177.344,191.794 178.398,191.794 C179.523,191.794 180.255,191.656 180.3,191.647 L180.914,191.53 L181.054,190.919 C181.066,190.866 181.254,190.033 181.254,188.746 C181.256,186.706 180.77,183.471 178.252,180.551 L177.525,181.178" id="Fill-362" fill="#1D1209"></path>
            <path d="M171.867,194.594 C175.654,190.214 180.915,190.642 180.915,190.642 C180.915,190.642 182.791,196.01 179.371,200.453 C176.988,203.552 169.631,207.573 168.162,206.607 C166.695,205.643 169.311,197.551 171.867,194.594" id="Fill-363" fill="#56B146"></path>
            <path d="M171.867,194.594 L172.593,195.222 C174.046,193.542 175.721,192.642 177.2,192.149 C178.677,191.659 179.95,191.59 180.521,191.59 C180.632,191.59 180.716,191.593 180.771,191.595 L180.828,191.598 L180.838,191.599 L180.85,191.43 L180.836,191.599 L180.838,191.599 L180.85,191.43 L180.836,191.599 L180.915,190.642 L180.009,190.959 L180.311,190.853 L180.008,190.957 L180.009,190.959 L180.311,190.853 L180.008,190.957 C180.017,190.98 180.47,192.331 180.468,194.148 C180.466,195.864 180.077,197.96 178.61,199.868 C177.69,201.079 175.674,202.64 173.657,203.818 C172.648,204.411 171.634,204.918 170.759,205.269 C169.892,205.622 169.133,205.802 168.792,205.793 L168.647,205.782 L168.646,205.782 L168.55,206.02 L168.691,205.806 L168.646,205.782 L168.55,206.02 L168.691,205.806 L168.689,205.805 L168.529,206.048 L168.776,205.888 L168.689,205.805 L168.529,206.048 L168.776,205.888 L168.769,205.892 L168.777,205.888 L168.776,205.888 L168.769,205.892 L168.777,205.888 C168.758,205.864 168.693,205.625 168.698,205.272 C168.696,204.729 168.812,203.931 169.028,203.039 C169.352,201.698 169.895,200.13 170.537,198.704 C171.174,197.28 171.926,195.988 172.593,195.222 L171.141,193.966 C169.989,195.308 168.947,197.368 168.138,199.481 C167.737,200.537 167.401,201.601 167.163,202.589 C166.925,203.579 166.78,204.484 166.778,205.272 C166.779,205.667 166.813,206.035 166.922,206.397 C167.03,206.751 167.231,207.14 167.635,207.409 L167.633,207.408 C168.026,207.66 168.418,207.709 168.792,207.713 C169.602,207.705 170.475,207.444 171.473,207.051 C172.957,206.455 174.662,205.524 176.23,204.462 C177.798,203.395 179.217,202.22 180.132,201.038 C181.924,198.708 182.39,196.146 182.388,194.148 C182.386,191.95 181.842,190.392 181.821,190.326 L181.614,189.737 L180.994,189.686 C180.971,189.684 180.802,189.671 180.521,189.671 C179.802,189.671 178.333,189.752 176.596,190.328 C174.862,190.901 172.854,191.983 171.141,193.966 L171.867,194.594" id="Fill-364" fill="#1D1209"></path>
            <path d="M182.092,196.954 C187.156,194.15 191.945,196.369 191.945,196.369 C191.945,196.369 191.854,202.054 187.109,205.044 C183.803,207.128 175.51,208.363 174.466,206.949 C173.421,205.537 178.67,198.845 182.092,196.954" id="Fill-365" fill="#56B146"></path>
            <path d="M182.092,196.954 L182.557,197.793 C184.356,196.798 186.101,196.496 187.587,196.495 C188.761,196.495 189.769,196.688 190.475,196.879 C190.827,196.974 191.104,197.069 191.287,197.138 C191.379,197.172 191.447,197.2 191.491,197.218 L191.536,197.238 L191.544,197.241 L191.66,196.984 L191.542,197.24 L191.544,197.241 L191.66,196.984 L191.542,197.24 L191.945,196.369 L190.985,196.354 L190.985,196.358 C190.983,196.459 190.928,197.809 190.343,199.43 C189.756,201.057 188.666,202.928 186.598,204.232 C185.595,204.869 183.877,205.491 182.081,205.915 C180.284,206.345 178.384,206.596 176.991,206.595 C176.405,206.596 175.909,206.549 175.582,206.473 C175.419,206.437 175.301,206.392 175.243,206.363 L175.201,206.339 L175.075,206.499 L175.238,206.379 L175.201,206.339 L175.075,206.499 L175.238,206.379 L175.236,206.377 L174.989,206.56 L175.288,206.478 L175.236,206.377 L174.989,206.56 L175.288,206.478 L175.228,206.494 L175.291,206.487 L175.288,206.478 L175.228,206.494 L175.291,206.487 L175.289,206.46 C175.286,206.381 175.324,206.155 175.434,205.865 C175.813,204.823 176.979,203.077 178.361,201.5 C179.737,199.914 181.366,198.443 182.556,197.794 L182.092,196.954 L181.627,196.114 C179.869,197.095 177.91,199.003 176.295,200.973 C175.493,201.959 174.789,202.956 174.268,203.873 C174.008,204.333 173.793,204.772 173.635,205.195 C173.479,205.62 173.373,206.023 173.37,206.46 C173.369,206.795 173.443,207.181 173.695,207.521 L173.693,207.518 C173.892,207.786 174.137,207.954 174.381,208.078 C174.751,208.261 175.143,208.357 175.575,208.423 C176.007,208.487 176.48,208.514 176.991,208.514 C178.6,208.513 180.597,208.241 182.526,207.782 C184.458,207.318 186.298,206.684 187.621,205.856 C190.23,204.211 191.554,201.826 192.214,199.897 C192.876,197.962 192.902,196.451 192.905,196.385 L192.915,195.761 L192.349,195.499 C192.27,195.465 190.355,194.579 187.587,194.576 C185.841,194.574 183.748,194.938 181.626,196.114 L182.092,196.954" id="Fill-366" fill="#1D1209"></path>
            <path d="M195.111,187.603 C195.504,193.379 191.467,196.779 191.467,196.779 C191.467,196.779 186.355,194.285 185.656,188.724 C185.172,184.844 187.566,176.809 189.289,176.461 C191.011,176.114 194.846,183.703 195.111,187.603" id="Fill-367" fill="#56B146"></path>
            <path d="M195.111,187.603 L194.153,187.667 C194.17,187.912 194.177,188.153 194.177,188.391 C194.177,190.812 193.34,192.728 192.493,194.053 C192.07,194.714 191.647,195.224 191.335,195.562 C191.179,195.73 191.051,195.857 190.965,195.938 L190.87,196.026 L190.849,196.044 L190.848,196.044 L191.467,196.779 L191.887,195.916 L191.725,196.248 L191.889,195.917 L191.887,195.916 L191.725,196.248 L191.889,195.917 C191.871,195.909 190.671,195.306 189.431,194.089 C188.187,192.867 186.918,191.067 186.608,188.604 C186.571,188.308 186.552,187.967 186.552,187.597 C186.548,185.694 187.062,183.039 187.764,180.9 C188.112,179.83 188.511,178.881 188.882,178.23 C189.066,177.906 189.246,177.658 189.378,177.519 L189.519,177.393 L189.53,177.386 L189.498,177.329 L189.521,177.39 L189.53,177.386 L189.498,177.329 L189.521,177.39 L189.426,177.144 L189.479,177.402 L189.521,177.39 L189.426,177.144 L189.479,177.402 L189.481,177.401 L189.406,177.033 L189.406,177.409 L189.481,177.401 L189.406,177.033 L189.406,177.409 L189.406,177.191 L189.355,177.404 L189.406,177.409 L189.406,177.191 L189.355,177.404 L189.356,177.405 C189.379,177.407 189.552,177.501 189.759,177.701 C190.13,178.049 190.617,178.683 191.099,179.467 C191.826,180.645 192.564,182.166 193.129,183.66 C193.696,185.151 194.086,186.635 194.153,187.668 L195.111,187.603 L196.069,187.537 C195.993,186.455 195.694,185.225 195.27,183.948 C194.63,182.036 193.704,180.039 192.738,178.47 C192.253,177.684 191.763,177.007 191.257,176.484 C191.003,176.222 190.745,175.997 190.453,175.817 C190.163,175.64 189.825,175.493 189.406,175.49 C189.304,175.49 189.199,175.5 189.096,175.521 L189.099,175.52 C188.597,175.63 188.266,175.907 187.98,176.204 C187.487,176.735 187.092,177.44 186.706,178.293 C185.571,180.844 184.643,184.686 184.632,187.597 C184.632,188.033 184.654,188.449 184.704,188.844 C185.088,191.903 186.689,194.112 188.157,195.527 C189.629,196.947 190.987,197.611 191.046,197.641 L191.606,197.915 L192.085,197.513 C192.136,197.469 193.12,196.635 194.11,195.088 C195.099,193.543 196.097,191.265 196.097,188.391 C196.097,188.114 196.088,187.829 196.069,187.538 L195.111,187.603" id="Fill-368" fill="#1D1209"></path>
            <path d="M203.518,199.366 C201.856,204.911 196.881,206.676 196.881,206.676 C196.881,206.676 192.974,202.548 194.271,197.095 C195.177,193.291 200.241,186.609 201.977,186.888 C203.709,187.168 204.638,195.621 203.518,199.366" id="Fill-369" fill="#56B146"></path>
            <path d="M203.518,199.366 L202.598,199.091 C201.836,201.632 200.325,203.295 198.985,204.344 C198.316,204.867 197.694,205.23 197.247,205.459 C197.023,205.574 196.843,205.655 196.723,205.706 L196.59,205.76 L196.562,205.771 L196.56,205.771 L196.881,206.676 L197.578,206.016 L197.577,206.015 C197.531,205.966 196.863,205.232 196.221,204.041 C195.577,202.848 194.965,201.21 194.966,199.336 C194.966,198.691 195.037,198.018 195.205,197.318 C195.394,196.514 195.834,195.464 196.419,194.382 C197.296,192.755 198.497,191.035 199.614,189.762 C200.171,189.126 200.71,188.6 201.149,188.262 C201.366,188.093 201.559,187.972 201.696,187.906 L201.848,187.845 L201.876,187.839 L201.865,187.769 L201.866,187.839 L201.876,187.839 L201.865,187.769 L201.866,187.839 L201.866,187.565 L201.822,187.835 L201.866,187.839 L201.866,187.565 L201.822,187.835 L201.873,187.527 L201.714,187.799 L201.823,187.835 L201.873,187.527 L201.714,187.799 L201.748,187.741 L201.707,187.794 L201.714,187.799 L201.748,187.741 L201.707,187.794 C201.73,187.797 201.941,188.062 202.11,188.507 C202.377,189.172 202.623,190.202 202.787,191.36 C202.953,192.52 203.045,193.816 203.045,195.058 C203.048,196.624 202.892,198.116 202.598,199.092 L203.518,199.366 L204.437,199.641 C204.815,198.362 204.962,196.749 204.965,195.058 C204.964,193.096 204.757,191.053 204.38,189.412 C204.189,188.589 203.962,187.87 203.657,187.275 C203.503,186.978 203.33,186.707 203.096,186.467 C202.865,186.232 202.546,186.009 202.129,185.94 C202.037,185.925 201.947,185.92 201.866,185.92 C201.351,185.928 200.953,186.113 200.559,186.341 C199.878,186.75 199.195,187.378 198.478,188.155 C197.409,189.319 196.298,190.82 195.363,192.364 C194.43,193.913 193.672,195.483 193.337,196.872 C193.133,197.724 193.047,198.551 193.047,199.336 C193.048,201.705 193.833,203.692 194.604,205.085 C195.377,206.48 196.145,207.294 196.184,207.336 L196.612,207.789 L197.202,207.581 C197.268,207.556 198.6,207.08 200.167,205.857 C201.73,204.637 203.538,202.646 204.437,199.642 L203.518,199.366" id="Fill-370" fill="#1D1209"></path>
            <path d="M186.365,204.647 C191.81,202.678 196.191,205.622 196.191,205.622 C196.191,205.622 195.203,211.222 190.049,213.428 C186.455,214.965 178.068,214.875 177.262,213.316 C176.453,211.757 182.689,205.976 186.365,204.647" id="Fill-371" fill="#56B146"></path>
            <path d="M186.365,204.647 L186.691,205.55 C187.945,205.097 189.127,204.929 190.206,204.928 C191.816,204.928 193.198,205.308 194.17,205.689 C194.656,205.879 195.038,206.069 195.294,206.208 C195.422,206.277 195.518,206.333 195.579,206.371 L195.645,206.412 L195.657,206.42 L195.709,206.339 L195.656,206.419 L195.657,206.42 L195.709,206.339 L195.656,206.419 L196.191,205.622 L195.246,205.455 L195.57,205.513 L195.247,205.453 L195.246,205.455 L195.57,205.513 L195.247,205.453 C195.244,205.473 194.995,206.793 194.167,208.32 C193.334,209.853 191.954,211.569 189.671,212.546 C188.923,212.867 187.836,213.136 186.636,213.31 C185.435,213.486 184.115,213.574 182.87,213.574 C181.541,213.575 180.291,213.472 179.378,213.286 C178.924,213.195 178.555,213.08 178.327,212.974 C178.213,212.922 178.136,212.872 178.104,212.846 L178.087,212.832 L178.084,212.829 L177.93,212.971 L178.115,212.876 L178.084,212.829 L177.93,212.971 L178.115,212.876 L178.112,212.871 L177.879,212.992 L178.148,212.992 L178.112,212.871 L177.879,212.992 L178.148,212.992 C178.144,212.99 178.172,212.813 178.3,212.564 C178.518,212.123 178.986,211.479 179.604,210.797 C180.532,209.768 181.797,208.627 183.088,207.662 C184.375,206.695 185.708,205.901 186.691,205.55 L186.039,203.745 C184.091,204.459 181.773,206.11 179.835,207.861 C178.871,208.738 178.014,209.635 177.373,210.476 C177.052,210.897 176.784,211.304 176.583,211.708 C176.384,212.114 176.234,212.514 176.229,212.992 C176.229,213.238 176.279,213.51 176.411,213.761 L176.408,213.756 C176.688,214.268 177.1,214.514 177.524,214.717 C178.17,215.011 178.955,215.186 179.865,215.312 C180.774,215.434 181.8,215.494 182.87,215.494 C184.205,215.494 185.606,215.401 186.914,215.209 C188.224,215.016 189.436,214.732 190.426,214.31 C193.262,213.097 194.944,210.949 195.9,209.149 C196.859,207.342 197.124,205.854 197.136,205.789 L197.245,205.174 L196.727,204.826 C196.639,204.773 194.036,203.017 190.206,203.009 C188.926,203.008 187.514,203.211 186.039,203.745 L186.365,204.647" id="Fill-372" fill="#1D1209"></path>
            <path d="M228.063,214.772 L228.07,214.717 C228.146,214.085 228.963,208.198 231.652,202.603 C232.992,199.803 234.795,197.09 237.14,195.114 C239.493,193.139 242.347,191.869 246.026,191.862 C248.6,191.862 251.599,192.5 255.09,194.055 L256.083,191.827 C252.346,190.161 249.007,189.423 246.026,189.423 C241.623,189.415 238.046,191.062 235.307,193.473 C231.19,197.096 228.828,202.342 227.433,206.669 C226.044,211 225.646,214.44 225.64,214.492 L228.063,214.772" id="Fill-373" fill="#1D1209"></path>
            <path d="M264.307,193.82 C259.633,190.403 254.604,192.003 254.604,192.003 C254.604,192.003 253.98,197.655 258.313,201.216 C261.33,203.699 269.404,205.963 270.617,204.693 C271.831,203.422 267.463,196.126 264.307,193.82" id="Fill-374" fill="#56B146"></path>
            <path d="M264.307,193.82 L264.873,193.045 C262.258,191.133 259.526,190.667 257.523,190.669 C255.641,190.67 254.377,191.069 254.312,191.089 L253.719,191.278 L253.649,191.896 C253.646,191.926 253.612,192.243 253.612,192.763 C253.612,193.665 253.711,195.183 254.268,196.875 C254.824,198.565 255.854,200.438 257.703,201.957 C259.079,203.081 261.16,204.049 263.3,204.791 C265.444,205.523 267.594,206.011 269.181,206.017 C269.576,206.016 269.942,205.987 270.294,205.902 C270.641,205.813 270.997,205.675 271.309,205.358 L271.311,205.356 C271.505,205.153 271.625,204.913 271.693,204.685 C271.761,204.456 271.783,204.235 271.784,204.017 C271.774,203.201 271.493,202.353 271.077,201.383 C270.447,199.942 269.469,198.296 268.368,196.786 C267.262,195.276 266.054,193.914 264.873,193.045 L264.307,193.82 L263.74,194.594 C264.957,195.474 266.571,197.414 267.8,199.359 C268.418,200.331 268.951,201.309 269.317,202.151 C269.689,202.984 269.874,203.714 269.864,204.017 L269.854,204.135 L270.113,204.212 L269.923,204.03 L269.854,204.135 L270.113,204.212 L269.923,204.03 L269.925,204.028 L270.102,204.198 L269.96,203.997 L269.925,204.028 L270.102,204.198 L269.96,203.997 L270.009,204.067 L269.965,203.994 L269.96,203.997 L270.009,204.067 L269.965,203.994 C269.965,203.996 269.894,204.03 269.755,204.055 C269.616,204.081 269.418,204.098 269.181,204.098 C267.989,204.104 265.915,203.666 263.924,202.976 C261.929,202.295 259.965,201.342 258.922,200.475 C257.405,199.227 256.564,197.705 256.091,196.274 C255.62,194.847 255.531,193.521 255.531,192.763 C255.531,192.545 255.539,192.375 255.545,192.262 L255.554,192.139 L255.557,192.112 L255.557,192.11 L254.604,192.003 L254.895,192.918 L254.896,192.917 C254.967,192.895 256.017,192.588 257.523,192.589 C259.243,192.59 261.527,192.978 263.74,194.594 L264.307,193.82" id="Fill-375" fill="#1D1209"></path>
            <path d="M247.297,181.178 C243.516,185.562 244.705,190.705 244.705,190.705 C244.705,190.705 250.287,191.779 254.186,187.749 C256.904,184.94 259.813,177.075 258.644,175.764 C257.475,174.451 249.851,178.218 247.297,181.178" id="Fill-376" fill="#56B146"></path>
            <path d="M247.297,181.178 L246.57,180.551 C244.053,183.47 243.565,186.703 243.567,188.744 C243.567,190.033 243.758,190.868 243.77,190.922 L243.911,191.529 L244.523,191.647 C244.569,191.656 245.3,191.794 246.423,191.794 C247.477,191.794 248.878,191.673 250.378,191.191 C251.877,190.71 253.479,189.86 254.875,188.417 C256.169,187.067 257.359,184.926 258.291,182.739 C258.752,181.646 259.141,180.548 259.418,179.536 C259.694,178.522 259.865,177.607 259.868,176.813 C259.867,176.517 259.844,176.235 259.775,175.955 C259.706,175.678 259.592,175.39 259.361,175.127 L259.36,175.125 C259.136,174.874 258.853,174.725 258.589,174.644 C258.322,174.562 258.062,174.536 257.798,174.535 C257.001,174.541 256.126,174.771 255.14,175.122 C253.67,175.654 251.997,176.489 250.453,177.446 C248.908,178.407 247.505,179.472 246.57,180.551 L248.023,181.804 C248.971,180.693 250.953,179.285 252.935,178.228 C253.927,177.696 254.924,177.241 255.792,176.928 C256.655,176.611 257.41,176.449 257.798,176.455 C257.923,176.454 258.003,176.47 258.02,176.477 L258.022,176.477 L258.136,176.216 L257.927,176.402 L258.022,176.477 L258.136,176.216 L257.927,176.402 L257.925,176.401 L258.067,176.274 L257.894,176.357 L257.925,176.401 L258.067,176.274 L257.894,176.357 C257.9,176.359 257.952,176.536 257.948,176.813 C257.951,177.316 257.818,178.12 257.567,179.029 C257.192,180.398 256.564,182.026 255.828,183.503 C255.097,184.98 254.241,186.317 253.496,187.082 C252.348,188.267 251.048,188.959 249.791,189.364 C248.536,189.767 247.328,189.875 246.423,189.875 C245.941,189.875 245.545,189.845 245.276,189.815 C245.141,189.801 245.038,189.787 244.972,189.776 L244.899,189.765 L244.885,189.762 L244.865,189.873 L244.886,189.762 L244.885,189.762 L244.865,189.873 L244.886,189.762 L244.705,190.705 L245.64,190.488 L245.528,190.513 L245.64,190.489 L245.64,190.488 L245.528,190.513 L245.64,190.489 C245.632,190.452 245.486,189.774 245.486,188.744 C245.488,186.988 245.898,184.268 248.023,181.804 L247.297,181.178" id="Fill-377" fill="#1D1209"></path>
            <path d="M252.955,194.594 C249.169,190.214 243.906,190.642 243.906,190.642 C243.906,190.642 242.031,196.01 245.451,200.453 C247.835,203.552 255.191,207.573 256.66,206.607 C258.127,205.643 255.512,197.551 252.955,194.594" id="Fill-378" fill="#56B146"></path>
            <path d="M252.955,194.594 L253.681,193.966 C251.968,191.983 249.96,190.901 248.226,190.328 C246.488,189.752 245.018,189.671 244.299,189.671 C244.016,189.671 243.85,189.684 243.826,189.686 L243.206,189.738 L243,190.325 C242.979,190.391 242.435,191.949 242.433,194.147 C242.431,196.144 242.895,198.707 244.69,201.039 C245.908,202.606 248.03,204.194 250.192,205.473 C251.272,206.107 252.358,206.653 253.349,207.05 C254.346,207.444 255.219,207.705 256.029,207.713 C256.402,207.71 256.795,207.658 257.184,207.411 L257.188,207.409 C257.591,207.139 257.792,206.749 257.899,206.396 C258.007,206.034 258.041,205.667 258.042,205.272 C258.041,204.484 257.896,203.579 257.658,202.589 C257.299,201.107 256.724,199.452 256.034,197.917 C255.341,196.381 254.548,194.975 253.681,193.966 L252.955,194.594 L252.229,195.221 C253.122,196.245 254.145,198.194 254.888,200.164 C255.263,201.15 255.576,202.145 255.792,203.039 C256.009,203.931 256.124,204.729 256.123,205.272 C256.124,205.541 256.092,205.745 256.063,205.837 L256.046,205.884 L256.042,205.892 L256.281,206.032 L256.132,205.805 L256.042,205.892 L256.281,206.032 L256.132,205.805 L256.136,205.803 L256.264,206 L256.176,205.781 L256.136,205.803 L256.264,206 L256.176,205.781 L256.206,205.855 L256.181,205.78 L256.176,205.781 L256.206,205.855 L256.181,205.78 C256.181,205.781 256.129,205.794 256.029,205.793 C255.688,205.802 254.93,205.622 254.062,205.269 C252.749,204.744 251.128,203.863 249.669,202.873 C248.209,201.888 246.9,200.771 246.212,199.868 C244.742,197.959 244.354,195.863 244.352,194.147 C244.352,193.209 244.471,192.396 244.589,191.825 C244.648,191.54 244.707,191.315 244.749,191.166 L244.798,191.001 L244.811,190.964 L244.813,190.957 L244.55,190.868 L244.812,190.959 L244.813,190.957 L244.55,190.868 L244.812,190.959 L243.906,190.642 L243.986,191.599 L243.964,191.333 L243.983,191.599 L243.986,191.599 L243.964,191.333 L243.983,191.599 C243.992,191.598 244.103,191.59 244.299,191.59 C244.87,191.59 246.144,191.659 247.621,192.15 C249.101,192.642 250.775,193.542 252.229,195.222 L252.955,194.594" id="Fill-379" fill="#1D1209"></path>
            <path d="M242.73,196.954 C237.666,194.15 232.876,196.369 232.876,196.369 C232.876,196.369 232.97,202.054 237.712,205.044 C241.02,207.128 249.313,208.363 250.357,206.949 C251.4,205.537 246.152,198.845 242.73,196.954" id="Fill-380" fill="#56B146"></path>
            <path d="M242.73,196.954 L243.195,196.114 C241.073,194.938 238.979,194.574 237.233,194.576 C234.464,194.579 232.551,195.465 232.472,195.499 L231.906,195.761 L231.916,196.385 C231.918,196.451 231.945,197.962 232.607,199.897 C233.268,201.826 234.591,204.211 237.2,205.856 C238.523,206.684 240.364,207.318 242.294,207.782 C244.224,208.241 246.221,208.513 247.83,208.514 C248.511,208.514 249.123,208.467 249.665,208.345 C249.937,208.282 250.192,208.201 250.439,208.079 C250.683,207.955 250.928,207.787 251.127,207.521 L251.13,207.518 C251.38,207.176 251.452,206.792 251.451,206.461 C251.448,206.024 251.341,205.621 251.186,205.196 C250.632,203.737 249.387,201.949 247.906,200.24 C246.419,198.541 244.736,196.973 243.194,196.114 L242.266,197.794 C243.628,198.537 245.55,200.35 247.037,202.187 C247.785,203.104 248.436,204.032 248.883,204.821 C249.106,205.215 249.278,205.574 249.387,205.866 C249.497,206.156 249.535,206.382 249.532,206.461 L249.53,206.489 L249.641,206.502 L249.538,206.465 L249.53,206.489 L249.641,206.502 L249.538,206.465 L249.857,206.581 L249.584,206.38 L249.538,206.465 L249.857,206.581 L249.584,206.38 L249.587,206.377 L249.743,206.492 L249.623,206.337 L249.587,206.377 L249.743,206.492 L249.623,206.337 C249.623,206.344 249.432,206.445 249.108,206.5 C248.786,206.56 248.342,206.595 247.83,206.595 C246.437,206.596 244.537,206.345 242.74,205.915 C240.943,205.491 239.226,204.869 238.224,204.232 C236.09,202.887 234.995,200.935 234.423,199.274 C234.139,198.446 233.991,197.7 233.915,197.168 C233.876,196.903 233.856,196.691 233.846,196.549 L233.837,196.392 L233.835,196.357 L233.835,196.354 L232.876,196.369 L233.279,197.24 L233.153,196.968 L233.277,197.241 L233.279,197.24 L233.153,196.968 L233.277,197.241 C233.307,197.225 234.957,196.492 237.233,196.495 C238.719,196.496 240.465,196.798 242.265,197.793 L242.73,196.954" id="Fill-381" fill="#1D1209"></path>
            <path d="M229.711,187.603 C229.318,193.379 233.355,196.779 233.355,196.779 C233.355,196.779 238.466,194.285 239.166,188.724 C239.652,184.844 237.256,176.809 235.533,176.461 C233.811,176.114 229.975,183.703 229.711,187.603" id="Fill-382" fill="#56B146"></path>
            <path d="M229.711,187.603 L228.753,187.536 C228.733,187.826 228.724,188.111 228.724,188.391 C228.724,191.265 229.722,193.543 230.711,195.088 C231.702,196.635 232.686,197.469 232.737,197.513 L233.214,197.915 L233.776,197.641 C233.835,197.611 235.192,196.947 236.665,195.527 C238.132,194.112 239.733,191.903 240.118,188.844 C240.167,188.447 240.188,188.03 240.188,187.594 C240.185,185.374 239.635,182.62 238.881,180.302 C238.501,179.144 238.074,178.102 237.605,177.279 C237.369,176.867 237.125,176.508 236.841,176.204 C236.555,175.907 236.225,175.63 235.723,175.52 C235.621,175.5 235.517,175.49 235.415,175.49 C234.853,175.5 234.447,175.741 234.085,176.011 C233.458,176.5 232.897,177.212 232.323,178.086 C231.472,179.394 230.64,181.061 229.984,182.746 C229.332,184.435 228.853,186.12 228.753,187.538 L229.711,187.603 L230.668,187.667 C230.722,186.844 230.979,185.727 231.371,184.555 C231.957,182.794 232.842,180.89 233.715,179.477 C234.148,178.771 234.584,178.186 234.94,177.82 C235.117,177.637 235.273,177.511 235.373,177.452 L235.464,177.405 L235.466,177.404 L235.415,177.212 L235.415,177.409 L235.466,177.404 L235.415,177.212 L235.415,177.409 L235.415,177.047 L235.342,177.402 L235.415,177.409 L235.415,177.047 L235.342,177.402 L235.389,177.172 L235.294,177.387 L235.343,177.402 L235.389,177.172 L235.294,177.387 L235.306,177.361 L235.292,177.386 L235.294,177.387 L235.306,177.361 L235.292,177.386 C235.304,177.389 235.436,177.489 235.585,177.688 C235.854,178.033 236.188,178.646 236.502,179.398 C237.459,181.658 238.277,185.21 238.269,187.594 C238.269,187.966 238.25,188.308 238.213,188.606 C237.898,191.106 236.594,192.924 235.331,194.146 C234.702,194.754 234.088,195.205 233.639,195.499 C233.415,195.646 233.231,195.754 233.107,195.823 L232.969,195.898 L232.938,195.914 L232.933,195.917 L233.049,196.151 L232.934,195.916 L232.933,195.917 L233.049,196.151 L232.934,195.916 L233.355,196.779 L233.974,196.044 L233.973,196.044 C233.916,195.996 233.066,195.245 232.249,193.928 C231.429,192.607 230.644,190.737 230.643,188.391 C230.643,188.155 230.651,187.914 230.668,187.669 L229.711,187.603" id="Fill-383" fill="#1D1209"></path>
            <path d="M221.305,199.366 C222.967,204.911 227.941,206.676 227.941,206.676 C227.941,206.676 231.85,202.548 230.553,197.095 C229.645,193.291 224.58,186.609 222.846,186.888 C221.111,187.168 220.184,195.621 221.305,199.366" id="Fill-384" fill="#56B146"></path>
            <path d="M221.305,199.366 L220.385,199.642 C221.285,202.646 223.092,204.637 224.655,205.857 C226.222,207.08 227.554,207.556 227.62,207.581 L228.208,207.79 L228.638,207.336 C228.677,207.294 229.444,206.48 230.218,205.084 C230.989,203.691 231.774,201.703 231.775,199.334 C231.775,198.548 231.688,197.724 231.486,196.873 C231.231,195.811 230.728,194.653 230.092,193.471 C229.135,191.701 227.876,189.897 226.649,188.496 C226.034,187.795 225.43,187.196 224.846,186.744 C224.553,186.517 224.265,186.327 223.962,186.179 C223.66,186.035 223.34,185.923 222.955,185.92 C222.873,185.92 222.784,185.924 222.678,185.943 L222.846,186.888 L222.693,185.94 C222.276,186.009 221.958,186.231 221.726,186.466 C221.321,186.888 221.077,187.396 220.852,187.995 C220.522,188.891 220.282,190.003 220.113,191.224 C219.946,192.444 219.855,193.768 219.855,195.054 C219.857,196.746 220.004,198.361 220.385,199.642 L221.305,199.366 L222.224,199.09 C221.927,198.116 221.772,196.622 221.774,195.054 C221.773,193.233 221.975,191.29 222.311,189.841 C222.476,189.119 222.68,188.518 222.87,188.154 C222.962,187.973 223.052,187.854 223.094,187.813 L223.114,187.795 L223.096,187.772 L223.111,187.797 L223.114,187.795 L223.096,187.772 L223.111,187.797 L222.952,187.546 L222.998,187.835 L223.111,187.797 L222.952,187.546 L222.998,187.835 L223.013,187.833 L222.955,187.503 L222.955,187.839 L223.013,187.833 L222.955,187.503 L222.955,187.839 L222.955,187.726 L222.943,187.839 L222.955,187.839 L222.955,187.726 L222.943,187.839 L223.058,187.876 C223.351,187.988 223.971,188.45 224.618,189.124 C225.605,190.135 226.735,191.61 227.671,193.122 C228.61,194.631 229.357,196.202 229.619,197.318 C229.785,198.017 229.856,198.691 229.856,199.334 C229.857,201.269 229.205,202.953 228.539,204.154 C228.207,204.754 227.874,205.23 227.628,205.551 C227.505,205.711 227.405,205.833 227.337,205.912 L227.261,205.997 L227.245,206.015 L227.244,206.016 L227.941,206.676 L228.262,205.771 L228.26,205.771 C228.18,205.742 227.016,205.296 225.711,204.245 C224.403,203.19 222.963,201.553 222.224,199.091 L221.305,199.366" id="Fill-385" fill="#1D1209"></path>
            <path d="M238.457,204.647 C233.013,202.678 228.632,205.622 228.632,205.622 C228.632,205.622 229.619,211.222 234.773,213.428 C238.368,214.965 246.752,214.875 247.562,213.316 C248.369,211.757 242.133,205.976 238.457,204.647" id="Fill-386" fill="#56B146"></path>
            <path d="M238.457,204.647 L238.783,203.745 C237.308,203.211 235.895,203.008 234.616,203.009 C230.785,203.017 228.183,204.773 228.096,204.826 L227.578,205.174 L227.687,205.789 C227.699,205.854 227.963,207.341 228.922,209.148 C229.878,210.949 231.56,213.097 234.396,214.31 C235.386,214.732 236.598,215.016 237.907,215.209 C239.215,215.401 240.615,215.494 241.95,215.494 C243.376,215.493 244.722,215.389 245.822,215.167 C246.373,215.055 246.863,214.915 247.295,214.718 C247.72,214.514 248.131,214.27 248.412,213.76 L248.415,213.754 C248.545,213.501 248.592,213.233 248.592,212.993 C248.586,212.514 248.437,212.114 248.238,211.708 C247.885,211.005 247.33,210.277 246.641,209.511 C245.607,208.367 244.27,207.165 242.882,206.125 C241.491,205.086 240.068,204.213 238.783,203.745 L238.457,204.647 L238.13,205.55 C239.638,206.084 241.909,207.65 243.694,209.282 C244.592,210.097 245.382,210.932 245.921,211.64 C246.19,211.993 246.396,212.315 246.521,212.565 C246.649,212.813 246.676,212.99 246.672,212.993 L246.932,212.993 L246.708,212.877 L246.672,212.993 L246.932,212.993 L246.708,212.877 L246.71,212.872 L246.902,212.972 L246.739,212.828 L246.71,212.872 L246.902,212.972 L246.739,212.828 L246.722,212.843 C246.668,212.889 246.477,212.998 246.191,213.091 C245.326,213.388 243.696,213.579 241.95,213.574 C240.705,213.574 239.386,213.486 238.185,213.31 C236.985,213.136 235.898,212.867 235.15,212.545 C232.832,211.553 231.443,209.798 230.617,208.247 C230.206,207.475 229.942,206.761 229.783,206.248 C229.704,205.991 229.651,205.785 229.618,205.647 L229.584,205.494 L229.578,205.459 L229.577,205.454 L229.222,205.518 L229.577,205.456 L229.577,205.454 L229.222,205.518 L229.577,205.456 L228.632,205.622 L229.167,206.419 L229.082,206.293 L229.166,206.42 L229.167,206.419 L229.082,206.293 L229.166,206.42 C229.226,206.375 231.498,204.921 234.616,204.928 C235.694,204.929 236.876,205.097 238.13,205.55 L238.457,204.647" id="Fill-387" fill="#1D1209"></path>
            <path d="M233.023,238.814 C233.023,240.631 232.341,242.26 231.256,243.429 C230.168,244.599 228.702,245.3 227.082,245.301 C225.461,245.3 223.995,244.599 222.907,243.429 C221.823,242.26 221.14,240.631 221.14,238.814 C221.14,238.247 220.68,237.787 220.113,237.787 C219.546,237.787 219.086,238.247 219.086,238.814 C219.086,241.148 219.963,243.276 221.401,244.826 C222.835,246.376 224.854,247.357 227.082,247.355 C229.31,247.357 231.328,246.376 232.762,244.826 C234.2,243.276 235.078,241.148 235.078,238.814 C235.078,238.247 234.618,237.787 234.051,237.787 C233.483,237.787 233.024,238.247 233.024,238.814" id="Fill-388" fill="#1D1209"></path>
            <path d="M200.436,238.814 C200.436,240.63 199.752,242.26 198.667,243.429 C197.579,244.599 196.112,245.3 194.493,245.301 C192.873,245.3 191.406,244.599 190.318,243.429 C189.234,242.26 188.551,240.631 188.551,238.814 C188.551,238.247 188.091,237.787 187.524,237.787 C186.957,237.787 186.498,238.247 186.498,238.814 C186.497,241.148 187.375,243.276 188.812,244.826 C190.247,246.376 192.265,247.357 194.493,247.355 C196.721,247.357 198.738,246.376 200.173,244.826 C201.611,243.277 202.49,241.148 202.49,238.814 C202.49,238.247 202.03,237.787 201.463,237.787 C200.896,237.787 200.436,238.247 200.436,238.814" id="Fill-389" fill="#1D1209"></path>
            <path d="M199.235,251.25 C199.235,252.499 197.28,253.514 194.867,253.514 C192.457,253.514 190.502,252.499 190.502,251.25 C190.502,250.001 192.457,248.989 194.867,248.989 C197.28,248.989 199.235,250.001 199.235,251.25" id="Fill-390" fill="#EE9E80"></path>
            <path d="M232.248,251.25 C232.248,252.499 230.293,253.514 227.881,253.514 C225.47,253.514 223.513,252.499 223.513,251.25 C223.513,250.001 225.47,248.989 227.881,248.989 C230.293,248.989 232.248,250.001 232.248,251.25" id="Fill-391" fill="#EE9E80"></path>
            <path d="M202.492,248.99 C202.492,250.492 203.024,251.871 203.919,252.891 C204.81,253.911 206.097,254.58 207.529,254.579 C208.68,254.58 209.744,254.145 210.573,253.444 C211.405,252.743 212.017,251.779 212.332,250.678 L211.307,250.385 L210.28,250.676 C210.593,251.778 211.206,252.743 212.038,253.444 C212.866,254.145 213.931,254.58 215.082,254.579 C216.514,254.58 217.801,253.911 218.691,252.891 C219.586,251.871 220.119,250.492 220.119,248.99 C220.119,248.401 219.642,247.923 219.053,247.923 C218.463,247.923 217.986,248.401 217.986,248.99 C217.986,249.985 217.63,250.867 217.088,251.484 C216.542,252.101 215.843,252.444 215.082,252.445 C214.467,252.444 213.901,252.222 213.412,251.813 C212.926,251.404 212.534,250.805 212.333,250.094 C212.202,249.636 211.784,249.319 211.308,249.318 C210.831,249.318 210.412,249.634 210.281,250.092 C210.078,250.804 209.685,251.404 209.199,251.813 C208.709,252.222 208.144,252.444 207.529,252.445 C206.768,252.444 206.069,252.101 205.523,251.484 C204.981,250.867 204.625,249.985 204.625,248.99 C204.625,248.401 204.147,247.923 203.559,247.923 C202.969,247.923 202.492,248.401 202.492,248.99" id="Fill-392" fill="#1D1209"></path>
        </g>
    </g>
</svg>
