<?xml version="1.0" encoding="utf-8"?>
<!-- Generator: Adobe Illustrator 16.0.0, SVG Export Plug-In . SVG Version: 6.00 Build 0)  -->
<!DOCTYPE svg PUBLIC "-//W3C//DTD SVG 1.1//EN" "http://www.w3.org/Graphics/SVG/1.1/DTD/svg11.dtd">
<svg class="plant-index" version="1.1" viewBox="0 0 203 398" enable-background="new 0 0 203 398" xml:space="preserve">
<path fill="#8D8B6E" d="M41.506,374.982c0,3.118,22.43,5.646,50.106,5.646c27.673,0,50.105-2.528,50.105-5.646
	s-22.432-5.646-50.105-5.646C63.936,369.336,41.506,371.864,41.506,374.982z"/>
<g>
	<g>
		<path fill="none" stroke="#140906" stroke-width="1.4866" stroke-miterlimit="10" d="M124.266,268.704
			c0,25.329-15.728,21.38-32.773,21.38c-17.044,0-29.555,3.949-29.555-21.38"/>
		<path fill="none" stroke="#140906" stroke-width="1.4866" stroke-miterlimit="10" d="M104.455,268.704
			c0,25.329-5.999,21.38-12.499,21.38c-6.498,0-11.271,3.949-11.271-21.38"/>
		<g>
			<path fill="#FD9438" stroke="#140906" stroke-width="1.4866" stroke-miterlimit="10" d="M127.783,367.538
				c0,4.11-3.404,7.444-7.607,7.444H66.437c-4.2,0-7.609-3.334-7.609-7.444l0,0c0-4.113,3.41-7.443,7.609-7.443h53.739
				C124.379,360.095,127.783,363.425,127.783,367.538L127.783,367.538z"/>
			<path fill="#FD9438" stroke="#140906" stroke-width="1.4866" stroke-miterlimit="10" d="M145.553,290.084
				c-5.229,0-102.798,0-106.913,0c-4.121,0-3.17-21.38,0-21.38c3.168,0,102.321,0,106.913,0
				C150.146,268.704,150.779,290.084,145.553,290.084z"/>
			<path fill="#E4C4C7" d="M145.553,281.215c-5.229,0-102.798,0-106.913,0c-1.35,0-2.152-2.302-2.512-5.389
				c-0.631,6.219-0.015,14.258,2.512,14.258c4.115,0,101.685,0,106.913,0c3.281,0,4.252-8.416,3.387-14.686
				C148.447,278.697,147.344,281.215,145.553,281.215z"/>
			<polygon fill="#FD9438" stroke="#140906" stroke-width="1.4866" stroke-miterlimit="10" points="131.293,368.014 55.742,368.014
				42.436,290.084 142.697,290.084 			"/>
			<polygon fill="#E4C4C7" points="65.879,357.321 54.401,290.084 42.436,290.084 55.742,368.014 131.293,368.014 132.857,357.321
							"/>
			<path fill="#FFFFFF" d="M142.697,274.564c0,1.924-1.557,3.483-3.482,3.483H45.92c-1.926,0-3.485-1.56-3.485-3.483l0,0
				c0-1.926,1.559-3.485,3.485-3.485h93.294C141.141,271.079,142.697,272.639,142.697,274.564L142.697,274.564z"/>
			<path fill="#FFFFFF" d="M125.441,308.916c2.436,7.95-0.793,42.079,1.285,42.373c2.08,0.292,7.521-31.699,7.709-50.434
				c0.109-10.666-41.131-6.336-41.131-6.336S123.014,300.966,125.441,308.916z"/>
		</g>

			<path fill="none" stroke="#140906" stroke-width="1.4866" stroke-linecap="round" stroke-linejoin="round" stroke-miterlimit="10" d="
			M142.697,254.289"/>
		<path fill="#C7E9C9" d="M117.014,254.605"/>
		<path fill="#C7E9C9" d="M95.353,256.824"/>
		<path fill="#C7E9C9" d="M61.102,249.537"/>
		<path fill="#C7E9C9" d="M139.822,264.268"/>
	</g>
	<g>

			<path fill="none" stroke="#140906" stroke-width="1.715" stroke-linecap="round" stroke-linejoin="round" stroke-miterlimit="10" d="
			M130.553,313.201c0,6.645-4.994,12.033-11.16,12.033c-6.16,0-11.155-5.389-11.155-12.033"/>

			<path fill="none" stroke="#140906" stroke-width="1.715" stroke-linecap="round" stroke-linejoin="round" stroke-miterlimit="10" d="
			M78.375,313.201c0,6.645-4.995,12.033-11.156,12.033c-6.16,0-11.155-5.389-11.155-12.033"/>
		<path fill="#FC936F" d="M74.813,333.113c0,1.998-3.131,3.62-6.993,3.62c-3.859,0-6.992-1.622-6.992-3.62
			c0-2,3.133-3.624,6.992-3.624C71.682,329.489,74.813,331.113,74.813,333.113z"/>
		<ellipse fill="#FC936F" cx="120.672" cy="333.113" rx="6.994" ry="3.62"/>

			<path fill="#7C1906" stroke="#140906" stroke-width="1.781" stroke-linecap="round" stroke-linejoin="round" stroke-miterlimit="10" d="
			M106.65,341.082c0-4-3.675-11.593-12.402-11.593c-8.732,0-12.407,7.593-12.407,11.593H106.65z"/>

			<path fill="#FE320D" stroke="#140906" stroke-width="1.0314" stroke-linecap="round" stroke-linejoin="round" stroke-miterlimit="10" d="
			M102.565,341.082c0-2-4.504-9.042-8.317-4.808c-4.543-3.789-8.319,2.808-8.319,4.808H102.565z"/>
	</g>
</g>
<g>
	<g>
		<path fill="#226620" d="M69.566,117.951c0,0-16.012,1.651-17.409,26.94C65.5,143.239,66.008,125.957,69.566,117.951z"/>
		<path fill="#226620" d="M71.092,148.322c0,0-17.914,2.542-18.935,25.161C65.607,173.611,64.737,158.616,71.092,148.322z"/>
		<path fill="#226620" d="M73.76,181.871c0,0-21.603,5.845-17.536,31.134C71.854,209.246,68.169,190.766,73.76,181.871z"/>
		<path fill="#267E26" d="M56.986,102.574h2.795c-13.215,51.594-2.541,129.619,22.62,166.472H67.152
			C43.008,216.182,45.803,144.765,56.986,102.574z"/>
		<path fill="#3E8A26" d="M31.57,209.319c0,0,20.459-2.287,26.178,18.554C43.516,232.193,37.797,223.552,31.57,209.319z"/>
		<path fill="#3E8A26" d="M25.471,168.781c0,0,19.443-0.508,26.687,23.51C37.797,196.992,31.062,183.649,25.471,168.781z"/>
		<path fill="#3E8A26" d="M28.775,134.853c0,0,19.823,2.668,21.983,24.271C37.416,158.997,32.714,152.516,28.775,134.853z"/>
		<path fill="#3E8A26" d="M36.653,108.166c0,0,18.935,3.559,16.267,24.653C41.102,131.675,40.085,117.697,36.653,108.166z"/>
		<path fill="#3E8A26" d="M63.467,83.895c0,0-21.095,15.63-7.498,30.498C69.312,109.183,65.882,93.298,63.467,83.895z"/>
	</g>
	<path fill="#1F4F18" d="M60.945,202.205c0,0,1.207-7.368,6.884-14.655C67.829,187.55,65.412,194.666,60.945,202.205z"/>
	<g>
		<path fill="#226620" d="M179.659,94.184c0,0-13.642,19.642-29.99,9.576C157.556,90.306,169.661,95.54,179.659,94.184z"/>
		<path fill="#226620" d="M169.239,119.01c0,0-12.877,24.906-33.887,11.437C146.279,112.82,158.902,121.974,169.239,119.01z"/>
		<path fill="#226620" d="M162.885,144.933c0,0-17.451,26.652-39.14,13.979C133.148,139.596,148.569,147.899,162.885,144.933z"/>
		<path fill="#226620" d="M155.685,171.585c0,0-19.062,28.5-40.22,15.708C123.745,167.13,141.029,175.398,155.685,171.585z"/>
		<path fill="#267E26" d="M164.711,79.655l1.307,1.131c-28.805,39.31-61.17,113.998-50.999,188.26H96.72
			C93.33,214.148,123.574,133.073,164.711,79.655z"/>
		<path fill="#3E8A26" d="M178.408,63.626c0,0-23.47,5.527-17.485,22.492C179.044,87.579,178.408,63.626,178.408,63.626z"/>
		<path fill="#3E8A26" d="M140.178,83.345c0,0-15.334,24.992,3.897,29.735C151.445,100.033,141.532,93.256,140.178,83.345z"/>
		<path fill="#267E26" d="M139.332,92.408c0,0-1.525,9.849,3.113,15.948C142.445,108.356,140.73,100.605,139.332,92.408z"/>
		<path fill="#3E8A26" d="M122.218,114.349c0,0-9.814,24.655,7.297,30.162C137.817,127.567,127.235,124.184,122.218,114.349z"/>
		<path fill="#267E26" d="M122.748,121.572c0,0,0.191,11.501,4.702,16.584C127.45,138.156,125.29,130.214,122.748,121.572z"/>
		<path fill="#3E8A26" d="M103.834,142.477c0,0-10.335,26.725,13.556,31.873C123.234,154.845,109.181,151.479,103.834,142.477z"/>
		<path fill="#267E26" d="M105.911,151.309c0,0,0.317,10.548,8.895,17.473C114.806,168.781,109.659,160.712,105.911,151.309z"/>
	</g>
	<g>
		<path fill="#226620" d="M160.923,57.127c0,0-20.67,26.076-38.107,10.172C132.424,49.458,151.962,59.952,160.923,57.127z"/>
		<path fill="#226620" d="M150.749,80.382c0,0-21.315,22.851-38.188,7.67C121.037,70.343,139.365,82.48,150.749,80.382z"/>
		<path fill="#226620" d="M138.395,102.022c0,0-15.518,31.672-37.137,16.713C109.089,98.713,127.333,105.654,138.395,102.022z"/>
		<path fill="#226620" d="M129.515,131.814c0,0-16.875,27.367-36.977,15.42C99.078,124.71,118.939,134.721,129.515,131.814z"/>
		<path fill="#226620" d="M115.465,159.835c0,0-7.993,30.429-29.307,22.036C90.519,160.903,104.809,166.536,115.465,159.835z"/>
		<path fill="#226620" d="M114.049,190.359c0,0-5.37,30.917-31.647,27.285C83.783,195.108,104.272,197.716,114.049,190.359z"/>
		<path fill="#3E8A26" d="M139.636,34.718l2.154,1.693c-39.987,57.607-71.503,167.4-41.004,232.635H78.42
			C63.171,216.013,93.33,104.864,139.636,34.718z"/>
		<path fill="#267E26" d="M155.725,16.035c0,0-34.438,6.48-26.051,36.726C152.929,50.473,153.691,30.141,155.725,16.035z"/>
		<path fill="#267E26" d="M113.026,31.284c0,0-18.935,32.659,5.847,41.555C127.514,57.335,116.712,42.086,113.026,31.284z"/>
		<path fill="#267E26" d="M94.092,66.357c0,0-11.182,34.946,10.675,40.538C113.154,85.165,102.225,76.905,94.092,66.357z"/>
		<path fill="#267E26" d="M80.495,101.304c0,0-13.089,32.659,13.216,37.615C100.446,117.188,83.799,109.818,80.495,101.304z"/>
		<path fill="#267E26" d="M66.897,138.919c0,0-7.497,29.354,19.952,29.862C91.805,147.814,73.888,145.146,66.897,138.919z"/>
		<path fill="#267E26" d="M62.958,170.18c0,0-8.895,31.007,18.681,33.167C84.308,177.296,68.232,179.71,62.958,170.18z"/>
	</g>
	<path fill="#226620" d="M149.244,23.28c0,0-9.092,5.926-14.401,21.179C134.843,44.459,144.075,35.48,149.244,23.28z"/>
	<path fill="#226620" d="M112.9,42.171c0,0-2.374,14.149,4.235,23.808C117.136,65.979,113.408,53.862,112.9,42.171z"/>
	<path fill="#226620" d="M95.701,74.903c0,0,2.543,13.78,6.693,25.978C102.395,100.881,101.971,90.463,95.701,74.903z"/>
	<path fill="#226620" d="M81.471,109.607c0,0,2.286,15.869,9.148,24.836C90.619,134.443,86.216,121.382,81.471,109.607z"/>
	<path fill="#226620" d="M70.117,146.988c0,0,3.655,11.516,12.962,16.84C83.079,163.828,75.114,153.699,70.117,146.988z"/>
	<path fill="#226620" d="M65.538,178.991c0,0,2.132,11.521,11.701,18.808C77.239,197.799,71.04,188.649,65.538,178.991z"/>
	<path fill="#267E26" d="M173.896,68.942c0,0-6.438,4.15-9.997,12.877C163.899,81.819,169.491,76.99,173.896,68.942z"/>
	<path fill="#267E26" d="M60.862,91.478c0,0-3.454,6.269-3.708,17.028C57.154,108.506,60.077,101.473,60.862,91.478z"/>
	<path fill="#267E26" d="M42.499,113.674c0,0,6.102,4.744,7.541,14.401C50.04,128.075,47.242,121.722,42.499,113.674z"/>
	<path fill="#267E26" d="M34.621,140.277c0,0,7.201,4.657,11.648,14.146C46.27,154.424,40.041,148.581,34.621,140.277z"/>
	<path fill="#267E26" d="M31.485,172.723c0,0,10.335,5.083,15.503,15.673C46.988,188.396,40.041,181.026,31.485,172.723z"/>
	<path fill="#267E26" d="M37.162,212.031c0,0,9.658,2.627,15.926,12.285C53.088,224.316,45.211,217.792,37.162,212.031z"/>
	<path fill="#1F4F18" d="M63.849,123.926c0,0-4.842,6.441-7.202,13.639C56.646,137.564,61.393,130.279,63.849,123.926z"/>
	<path fill="#1F4F18" d="M64.737,153.851c0,0-5.247,4.924-7.583,12.179C57.154,166.029,61.053,162.003,64.737,153.851z"/>
	<path fill="#1F4F18" d="M106.629,198.815c0,0-8.642,3.048-14.146,9.318C92.482,208.134,100.698,205.001,106.629,198.815z"/>
	<path fill="#1F4F18" d="M107.309,167.47c0,0-5.508,7.116-13.556,8.98C93.753,176.45,98.836,172.128,107.309,167.47z"/>
	<path fill="#1F4F18" d="M119.825,136.973c0,0-7.436,7.116-19.296,6.015C100.529,142.987,109.723,140.447,119.825,136.973z"/>
	<path fill="#1F4F18" d="M108.108,115.453c0,0,11.015,1.67,21.058-7.454C129.166,107.999,119.329,112.572,108.108,115.453z"/>
	<path fill="#1F4F18" d="M118.639,86.182c0,0,9.51,4.447,20.947-1.821C139.586,84.36,131.916,86.815,118.639,86.182z"/>
	<path fill="#1F4F18" d="M128.826,65.979c0,0,8.602,3.306,21.923-3.727C150.749,62.252,140.432,65.302,128.826,65.979z"/>
	<path fill="#1F4F18" d="M154.438,102.577c0,0,9.739,1.999,18.142-4.817C172.58,97.76,164.584,101.553,154.438,102.577z"/>
	<path fill="#1F4F18" d="M140.77,129.43c0,0,9.467,2.258,20.945-5.275C161.715,124.154,151.136,128.453,140.77,129.43z"/>
	<path fill="#1F4F18" d="M131.019,156.39c0,0,12.401,2.514,24.137-6.866C155.155,149.523,143.575,155.058,131.019,156.39z"/>
	<path fill="#1F4F18" d="M123.123,184.22c0,0,11.378,2.406,24.6-7.381C147.723,176.839,135.986,182.683,123.123,184.22z"/>
</g>
<g>
</g>
<g>
</g>
<g>
</g>
<g>
</g>
<g>
</g>
<g>
</g>
</svg>
