<?xml version="1.0" encoding="utf-8"?>
<!-- Generator: Adobe Illustrator 16.0.0, SVG Export Plug-In . SVG Version: 6.00 Build 0)  -->
<!DOCTYPE svg PUBLIC "-//W3C//DTD SVG 1.1//EN" "http://www.w3.org/Graphics/SVG/1.1/DTD/svg11.dtd">
<svg class="plant-index plant-index-gardenia" version="1.1" viewBox="0 0 135 143" enable-background="new 0 0 135 143" xml:space="preserve">
<path fill="#8D8B6E" d="M25.126,124.618c0,1.626,15.982,2.944,35.703,2.944c19.722,0,35.702-1.318,35.702-2.944
	s-15.98-2.944-35.702-2.944C41.109,121.674,25.126,122.992,25.126,124.618z"/>
<g>
	<g>
		<g>
			<path fill="#7E9926" stroke="#140906" stroke-width="2.4046" stroke-miterlimit="10" d="M67.732,43.801
				c-5.84,7.447,2.094,21.429,2.094,21.429s10.617-1.272,13.485-10.289c5.056-15.886-6.933-29.35-6.933-29.35
				S76.865,32.149,67.732,43.801z"/>
			<path fill="#8DA490" d="M69.826,65.23c2.371-0.188,10.617-1.272,13.485-10.289c5.056-15.886-6.933-29.35-6.933-29.35
				S81.953,50.313,69.826,65.23z"/>
			<g>
				<g>
					<path fill="#140906" d="M68.896,64.469c0.017-0.021,0.261-0.284,0.717-0.87c0.442-0.588,1.079-1.44,1.751-2.537
						c0.35-0.54,0.684-1.152,1.055-1.792c0.334-0.658,0.727-1.337,1.055-2.077c0.172-0.367,0.346-0.74,0.522-1.118
						c0.159-0.386,0.319-0.777,0.48-1.171c0.343-0.782,0.603-1.609,0.897-2.427c0.293-0.819,0.499-1.664,0.75-2.484
						c0.223-0.828,0.389-1.656,0.58-2.453c0.171-0.8,0.275-1.586,0.407-2.327c0.146-0.74,0.18-1.451,0.257-2.105
						c0.057-0.655,0.157-1.254,0.158-1.79c0.021-0.535,0.037-1.002,0.053-1.386c0.029-0.77,0.046-1.21,0.046-1.21
						s0.021,0.44,0.058,1.209c0.018,0.386,0.041,0.854,0.066,1.391c0.044,0.539-0.005,1.145-0.005,1.808
						c-0.022,0.663,0.004,1.386-0.079,2.143c-0.068,0.757-0.105,1.563-0.21,2.389c-0.124,0.823-0.222,1.681-0.376,2.543
						c-0.184,0.855-0.322,1.74-0.549,2.604c-0.23,0.862-0.426,1.737-0.709,2.572c-0.133,0.421-0.264,0.838-0.393,1.251
						c-0.15,0.406-0.297,0.808-0.443,1.203c-0.273,0.797-0.619,1.536-0.912,2.254c-0.327,0.701-0.625,1.373-0.943,1.972
						c-0.607,1.214-1.209,2.184-1.637,2.866c-0.434,0.67-0.752,1.085-0.734,1.065L68.896,64.469z"/>
				</g>
			</g>
			<path fill="#FFFFFF" d="M67.047,50.718c-0.141,2.484,2.48,9.645,2.48,9.645s-1.176-5.965-0.095-10.066
				c1.767-6.702,4.208-11.901,4.208-11.901S67.354,45.278,67.047,50.718z"/>
		</g>
		<g>
			<path fill="#7E9926" stroke="#140906" stroke-width="2.4046" stroke-miterlimit="10" d="M54.914,38.435
				c-3.392,8.834,8.296,19.868,8.296,19.868s9.774-4.333,9.87-13.795c0.166-16.67-15.248-26.019-15.248-26.019
				S60.222,24.616,54.914,38.435z"/>
			<path fill="#8DA490" d="M63.21,58.303c2.21-0.874,9.774-4.333,9.87-13.795c0.166-16.67-15.248-26.019-15.248-26.019
				S70.422,40.483,63.21,58.303z"/>
			<g>
				<g>
					<path fill="#140906" d="M62.098,57.848c0.009-0.024,0.166-0.347,0.429-1.042c0.25-0.692,0.61-1.694,0.929-2.939
						c0.175-0.618,0.315-1.302,0.481-2.022c0.127-0.728,0.302-1.491,0.398-2.295c0.057-0.401,0.113-0.809,0.172-1.222
						c0.038-0.415,0.076-0.836,0.115-1.26c0.099-0.849,0.103-1.716,0.145-2.584c0.04-0.868-0.011-1.736-0.012-2.595
						c-0.03-0.856-0.115-1.697-0.166-2.515c-0.072-0.815-0.204-1.597-0.293-2.344c-0.08-0.75-0.256-1.44-0.373-2.088
						c-0.139-0.642-0.219-1.245-0.375-1.757c-0.137-0.518-0.258-0.969-0.356-1.34c-0.199-0.745-0.311-1.171-0.311-1.171
						s0.148,0.414,0.41,1.139c0.131,0.363,0.289,0.805,0.472,1.311c0.2,0.502,0.331,1.095,0.526,1.729
						c0.174,0.64,0.411,1.323,0.555,2.071c0.157,0.744,0.356,1.525,0.5,2.346c0.123,0.822,0.281,1.671,0.387,2.542
						c0.076,0.872,0.203,1.758,0.24,2.65c0.033,0.892,0.104,1.786,0.078,2.667c-0.003,0.441-0.006,0.879-0.008,1.312
						c-0.023,0.432-0.047,0.859-0.07,1.279c-0.028,0.843-0.141,1.651-0.21,2.422c-0.108,0.767-0.194,1.496-0.323,2.163
						c-0.225,1.339-0.514,2.443-0.722,3.22c-0.219,0.768-0.401,1.258-0.392,1.234L62.098,57.848z"/>
				</g>
			</g>
			<path fill="#FFFFFF" d="M56.292,45.25c0.593,2.415,5.204,8.491,5.204,8.491s-2.877-5.357-3.047-9.596
				c-0.278-6.924,0.525-12.611,0.525-12.611S54.988,39.958,56.292,45.25z"/>
		</g>
		<g>
			<path fill="#7E9926" stroke="#140906" stroke-width="2.4046" stroke-miterlimit="10" d="M59.914,47.666
				c5.045,8.005-4.277,21.103-4.277,21.103s-10.429-2.351-12.362-11.613c-3.404-16.32,9.897-28.486,9.897-28.486
				S52.02,35.143,59.914,47.666z"/>
			<path fill="#8DA490" d="M55.637,68.769c-2.338-0.428-10.429-2.351-12.362-11.613c-3.404-16.32,9.897-28.486,9.897-28.486
				S45.102,52.69,55.637,68.769z"/>
			<g>
				<g>
					<path fill="#140906" d="M54.633,69.431c0.014,0.022-0.261-0.423-0.624-1.135c-0.355-0.722-0.854-1.748-1.333-3.018
						c-0.256-0.629-0.484-1.328-0.739-2.059c-0.218-0.744-0.484-1.514-0.677-2.335c-0.105-0.408-0.209-0.822-0.318-1.241
						c-0.085-0.424-0.173-0.853-0.261-1.285c-0.197-0.859-0.303-1.75-0.442-2.631c-0.138-0.882-0.186-1.776-0.28-2.646
						c-0.066-0.874-0.076-1.737-0.114-2.568c-0.019-0.832,0.026-1.638,0.034-2.398c-0.004-0.761,0.095-1.478,0.142-2.139
						c0.067-0.66,0.081-1.268,0.181-1.799c0.08-0.532,0.15-0.995,0.208-1.377c0.114-0.762,0.181-1.197,0.181-1.197
						s-0.029,0.439-0.079,1.209c-0.025,0.384-0.055,0.85-0.09,1.384c-0.053,0.533-0.015,1.14-0.026,1.797
						c0.011,0.658-0.028,1.369,0.042,2.12c0.054,0.751,0.078,1.542,0.167,2.356c0.108,0.812,0.188,1.653,0.325,2.499
						c0.166,0.842,0.286,1.704,0.494,2.548c0.21,0.844,0.382,1.693,0.644,2.506c0.121,0.408,0.239,0.813,0.359,1.213
						c0.136,0.394,0.272,0.783,0.406,1.166c0.25,0.77,0.57,1.485,0.836,2.174c0.303,0.674,0.574,1.318,0.866,1.89
						c0.556,1.16,1.103,2.073,1.481,2.703c0.394,0.63,0.611,0.917,0.625,0.939L54.633,69.431z"/>
				</g>
			</g>
			<path fill="#FFFFFF" d="M59.889,54.619c-0.115,2.484-3.456,9.34-3.456,9.34s1.779-5.814,1.124-10.005
				c-1.074-6.847-2.968-12.268-2.968-12.268S60.137,49.175,59.889,54.619z"/>
		</g>
		<g>
			<path fill="#7E9926" stroke="#140906" stroke-width="2.4046" stroke-miterlimit="10" d="M86.885,48.027
				c-7.422,5.871-2.988,21.322-2.988,21.322s10.619,1.253,15.521-6.839c8.639-14.258,0.143-30.157,0.143-30.157
				S98.493,38.842,86.885,48.027z"/>
			<path fill="#8DA490" d="M83.896,69.35c2.346,0.375,10.619,1.253,15.521-6.839c8.639-14.258,0.143-30.157,0.143-30.157
				S99.18,57.694,83.896,69.35z"/>
			<g>
				<g>
					<path fill="#140906" d="M83.17,68.391c0.021-0.016,0.32-0.214,0.901-0.677c0.567-0.468,1.388-1.147,2.296-2.056
						c0.467-0.442,0.936-0.959,1.445-1.495c0.48-0.561,1.021-1.129,1.513-1.771c0.253-0.316,0.511-0.638,0.771-0.964
						c0.244-0.338,0.492-0.68,0.741-1.025c0.517-0.68,0.964-1.423,1.441-2.149c0.476-0.728,0.875-1.5,1.312-2.239
						c0.41-0.752,0.767-1.518,1.139-2.248c0.354-0.738,0.639-1.477,0.941-2.167c0.314-0.686,0.516-1.369,0.744-1.986
						c0.207-0.624,0.445-1.183,0.572-1.703c0.145-0.516,0.271-0.965,0.376-1.335c0.209-0.742,0.328-1.166,0.328-1.166
						s-0.083,0.433-0.228,1.189c-0.072,0.379-0.16,0.84-0.262,1.368c-0.084,0.534-0.272,1.111-0.428,1.756
						c-0.177,0.639-0.32,1.348-0.578,2.064c-0.244,0.72-0.471,1.495-0.766,2.273c-0.312,0.771-0.608,1.582-0.961,2.384
						c-0.379,0.789-0.722,1.616-1.145,2.402c-0.426,0.785-0.82,1.59-1.291,2.334c-0.229,0.378-0.453,0.753-0.676,1.125
						c-0.24,0.36-0.479,0.715-0.711,1.065c-0.455,0.71-0.963,1.348-1.416,1.977c-0.483,0.604-0.93,1.188-1.381,1.695
						c-0.875,1.038-1.688,1.84-2.262,2.402c-0.58,0.55-0.986,0.878-0.965,0.863L83.17,68.391z"/>
				</g>
			</g>
			<path fill="#FFFFFF" d="M84.595,54.592c-0.719,2.381,0.15,9.957,0.15,9.957s0.255-6.074,2.271-9.808
				c3.289-6.101,6.879-10.582,6.879-10.582S86.171,49.375,84.595,54.592z"/>
		</g>
		<g>
			<path fill="#7E9926" stroke="#140906" stroke-width="2.4046" stroke-miterlimit="10" d="M41.172,45.167
				c7.007,6.36,1.535,21.476,1.535,21.476s-10.68,0.53-15.021-7.876c-7.654-14.811,1.902-30.098,1.902-30.098
				S30.212,35.215,41.172,45.167z"/>
			<path fill="#8DA490" d="M42.707,66.643c-2.368,0.215-10.68,0.53-15.021-7.876c-7.654-14.811,1.902-30.098,1.902-30.098
				S28.247,53.976,42.707,66.643z"/>
			<g>
				<g>
					<path fill="#140906" d="M41.918,67.55c0.02,0.017-0.364-0.339-0.904-0.927c-0.536-0.6-1.293-1.455-2.096-2.55
						c-0.414-0.537-0.82-1.149-1.262-1.785c-0.409-0.658-0.873-1.329-1.278-2.068c-0.21-0.365-0.423-0.736-0.638-1.111
						c-0.197-0.385-0.396-0.774-0.598-1.167c-0.42-0.775-0.759-1.605-1.13-2.417c-0.368-0.812-0.654-1.661-0.979-2.474
						c-0.297-0.825-0.538-1.654-0.798-2.444c-0.241-0.797-0.414-1.585-0.609-2.32c-0.208-0.732-0.304-1.449-0.437-2.099
						c-0.112-0.654-0.262-1.243-0.308-1.781c-0.065-0.534-0.122-0.999-0.168-1.383c-0.094-0.765-0.146-1.202-0.146-1.202
						s0.089,0.431,0.248,1.186c0.079,0.376,0.176,0.833,0.285,1.358c0.091,0.527,0.291,1.102,0.455,1.738
						c0.188,0.631,0.339,1.326,0.607,2.032c0.256,0.708,0.49,1.465,0.793,2.226c0.322,0.753,0.625,1.542,0.984,2.32
						c0.385,0.767,0.731,1.565,1.157,2.323c0.427,0.757,0.822,1.528,1.293,2.242c0.225,0.361,0.449,0.72,0.669,1.074
						c0.238,0.343,0.473,0.681,0.704,1.014c0.447,0.675,0.947,1.278,1.389,1.87c0.473,0.569,0.906,1.116,1.341,1.589
						c0.846,0.969,1.618,1.701,2.152,2.207c0.549,0.501,0.833,0.72,0.853,0.737L41.918,67.55z"/>
				</g>
			</g>
			<path fill="#FFFFFF" d="M43.009,51.872c0.558,2.424-0.823,9.923-0.823,9.923s0.156-6.077-1.601-9.939
				c-2.866-6.309-6.146-11.024-6.146-11.024S41.791,46.56,43.009,51.872z"/>
		</g>
		<g>
			<path fill="#7E9926" stroke="#140906" stroke-width="2.4046" stroke-miterlimit="10" d="M24.235,72.389
				c3.385,8.837,19.456,9.225,19.456,9.225s4.37-9.759-1.888-16.856c-11.024-12.506-28.736-9.149-28.736-9.149
				S18.939,58.564,24.235,72.389z"/>
			<path fill="#8DA490" d="M43.69,81.613c1.058-2.129,4.37-9.759-1.888-16.856c-11.024-12.506-28.736-9.149-28.736-9.149
				S37.133,63.543,43.69,81.613z"/>
			<g>
				<path fill="#140906" d="M42.558,82.02c-0.008-0.024-0.109-0.369-0.376-1.062c-0.277-0.682-0.68-1.666-1.275-2.807
					c-0.283-0.576-0.637-1.18-0.994-1.826c-0.393-0.625-0.774-1.311-1.239-1.973c-0.226-0.336-0.456-0.678-0.69-1.023
					c-0.249-0.334-0.502-0.672-0.757-1.014c-0.494-0.697-1.07-1.345-1.62-2.018c-0.552-0.672-1.171-1.284-1.746-1.921
					c-0.595-0.617-1.219-1.185-1.804-1.758c-0.6-0.559-1.219-1.052-1.787-1.546c-0.56-0.505-1.152-0.901-1.672-1.304
					c-0.533-0.384-0.996-0.779-1.456-1.055c-0.447-0.293-0.838-0.548-1.161-0.758c-0.646-0.421-1.014-0.662-1.014-0.662
					s0.387,0.208,1.066,0.573c0.341,0.183,0.754,0.404,1.228,0.659c0.485,0.239,0.979,0.592,1.548,0.934
					c0.557,0.359,1.191,0.709,1.797,1.169c0.615,0.448,1.287,0.896,1.941,1.409c0.642,0.529,1.328,1.054,1.988,1.631
					c0.639,0.597,1.326,1.171,1.949,1.81c0.622,0.64,1.272,1.258,1.841,1.93c0.293,0.33,0.584,0.657,0.872,0.98
					c0.271,0.337,0.541,0.67,0.805,0.998c0.542,0.646,0.998,1.321,1.463,1.941c0.432,0.642,0.855,1.242,1.206,1.824
					c0.728,1.145,1.251,2.16,1.616,2.877c0.351,0.717,0.544,1.203,0.535,1.18L42.558,82.02z"/>
			</g>
			<path fill="#FFFFFF" d="M29.815,76.535c2.058,1.397,9.548,2.833,9.548,2.833s-5.721-2.062-8.683-5.098
				c-4.838-4.961-8.042-9.728-8.042-9.728S25.309,73.473,29.815,76.535z"/>
		</g>
		<g>
			<path fill="#7E9926" stroke="#140906" stroke-width="2.4046" stroke-miterlimit="10" d="M51.373,59.089
				c5.838,7.446-2.096,21.428-2.096,21.428s-10.614-1.271-13.484-10.288c-5.054-15.886,6.933-29.35,6.933-29.35
				S42.241,47.438,51.373,59.089z"/>
			<path fill="#8DA490" d="M49.277,80.518c-2.369-0.186-10.614-1.271-13.484-10.288c-5.054-15.886,6.933-29.35,6.933-29.35
				S37.154,65.601,49.277,80.518z"/>
			<g>
				<g>
					<path fill="#140906" d="M48.347,81.279c0.017,0.02-0.302-0.395-0.736-1.065c-0.427-0.682-1.029-1.651-1.637-2.866
						c-0.318-0.6-0.616-1.271-0.944-1.972c-0.292-0.718-0.638-1.456-0.913-2.253c-0.145-0.396-0.292-0.797-0.441-1.203
						c-0.129-0.413-0.26-0.83-0.393-1.251c-0.283-0.835-0.479-1.71-0.709-2.572c-0.227-0.863-0.366-1.748-0.549-2.604
						c-0.154-0.862-0.252-1.721-0.376-2.543c-0.104-0.826-0.141-1.632-0.211-2.39c-0.082-0.756-0.055-1.479-0.078-2.142
						c0-0.664-0.049-1.269-0.005-1.808c0.026-0.537,0.049-1.005,0.067-1.391c0.037-0.77,0.058-1.209,0.058-1.209
						s0.017,0.44,0.046,1.21c0.015,0.384,0.032,0.851,0.052,1.386c0.001,0.535,0.102,1.135,0.157,1.79
						c0.079,0.653,0.113,1.365,0.258,2.105c0.131,0.741,0.236,1.526,0.407,2.327c0.192,0.797,0.358,1.625,0.58,2.453
						c0.25,0.82,0.457,1.665,0.75,2.484c0.295,0.818,0.555,1.645,0.897,2.427c0.161,0.394,0.321,0.785,0.479,1.171
						c0.178,0.377,0.352,0.75,0.524,1.117c0.328,0.74,0.719,1.419,1.054,2.077c0.37,0.64,0.705,1.253,1.054,1.792
						c0.672,1.097,1.309,1.949,1.751,2.537c0.456,0.586,0.7,0.85,0.717,0.869L48.347,81.279z"/>
				</g>
			</g>
			<path fill="#FFFFFF" d="M52.058,66.007c0.142,2.482-2.48,9.644-2.48,9.644s1.175-5.965,0.094-10.066
				c-1.768-6.702-4.207-11.901-4.207-11.901S51.75,60.566,52.058,66.007z"/>
		</g>
		<g>
			<path fill="#7E9926" stroke="#140906" stroke-width="2.4046" stroke-miterlimit="10" d="M102.586,71.789
				c-3.383,8.837-19.455,9.225-19.455,9.225s-4.368-9.759,1.889-16.857c11.025-12.505,28.738-9.148,28.738-9.148
				S107.883,57.965,102.586,71.789z"/>
			<path fill="#8DA490" d="M83.131,81.014c-1.058-2.129-4.368-9.759,1.889-16.857c11.025-12.505,28.738-9.148,28.738-9.148
				S89.689,62.943,83.131,81.014z"/>
			<g>
				<path fill="#140906" d="M82,80.607c-0.01,0.023,0.182-0.463,0.535-1.18c0.363-0.717,0.887-1.732,1.615-2.877
					c0.35-0.582,0.773-1.183,1.206-1.824c0.465-0.62,0.921-1.296,1.464-1.942c0.264-0.327,0.531-0.66,0.804-0.997
					c0.288-0.324,0.577-0.651,0.871-0.98c0.57-0.672,1.22-1.291,1.842-1.931c0.624-0.638,1.312-1.212,1.95-1.81
					c0.66-0.576,1.346-1.102,1.988-1.63c0.654-0.514,1.326-0.961,1.941-1.41c0.605-0.46,1.24-0.81,1.797-1.169
					c0.568-0.341,1.062-0.694,1.548-0.934c0.474-0.254,0.886-0.476,1.228-0.659c0.678-0.365,1.066-0.573,1.066-0.573
					s-0.369,0.241-1.014,0.662c-0.324,0.21-0.715,0.465-1.162,0.758c-0.459,0.276-0.922,0.671-1.455,1.055
					c-0.52,0.403-1.112,0.798-1.672,1.304c-0.568,0.495-1.189,0.988-1.787,1.546c-0.586,0.573-1.21,1.142-1.805,1.759
					c-0.576,0.637-1.193,1.249-1.744,1.921c-0.551,0.673-1.127,1.321-1.621,2.018c-0.254,0.341-0.508,0.68-0.758,1.014
					c-0.232,0.346-0.463,0.687-0.689,1.024c-0.467,0.661-0.848,1.347-1.238,1.972c-0.359,0.646-0.711,1.25-0.994,1.826
					c-0.596,1.141-1,2.125-1.276,2.807c-0.269,0.693-0.368,1.038-0.378,1.062L82,80.607z"/>
			</g>
			<path fill="#FFFFFF" d="M97.006,75.936c-2.057,1.397-9.547,2.832-9.547,2.832s5.721-2.06,8.682-5.097
				c4.838-4.962,8.043-9.728,8.043-9.728S101.514,72.873,97.006,75.936z"/>
		</g>
		<g>
			<path fill="#7E9926" stroke="#140906" stroke-width="2.4046" stroke-miterlimit="10" d="M74.568,60.525
				c-5.839,7.447,2.095,21.43,2.095,21.43s10.616-1.272,13.483-10.289c5.057-15.887-6.932-29.351-6.932-29.351
				S83.701,48.874,74.568,60.525z"/>
			<path fill="#8DA490" d="M76.663,81.955c2.37-0.188,10.616-1.272,13.483-10.289c5.057-15.887-6.932-29.351-6.932-29.351
				S88.789,67.038,76.663,81.955z"/>
			<g>
				<g>
					<path fill="#140906" d="M75.732,81.193c0.016-0.021,0.26-0.283,0.717-0.87c0.441-0.588,1.08-1.44,1.75-2.537
						c0.35-0.539,0.686-1.151,1.055-1.792c0.336-0.658,0.729-1.337,1.055-2.076c0.172-0.367,0.347-0.74,0.523-1.118
						c0.158-0.386,0.318-0.777,0.48-1.171c0.344-0.782,0.603-1.609,0.897-2.427c0.292-0.819,0.499-1.664,0.75-2.484
						c0.224-0.828,0.39-1.656,0.58-2.453c0.171-0.8,0.274-1.586,0.407-2.327c0.146-0.74,0.18-1.451,0.258-2.105
						c0.056-0.655,0.156-1.254,0.158-1.79c0.02-0.535,0.037-1.002,0.052-1.386c0.029-0.77,0.046-1.21,0.046-1.21
						s0.021,0.44,0.057,1.209c0.02,0.386,0.041,0.854,0.066,1.391c0.045,0.539-0.004,1.145-0.004,1.808
						c-0.021,0.663,0.004,1.386-0.078,2.143c-0.069,0.757-0.107,1.563-0.211,2.389c-0.123,0.823-0.221,1.681-0.376,2.543
						c-0.185,0.855-0.323,1.74-0.55,2.604c-0.229,0.862-0.425,1.737-0.708,2.572c-0.132,0.421-0.263,0.838-0.394,1.251
						c-0.148,0.406-0.297,0.808-0.441,1.202c-0.275,0.798-0.619,1.537-0.912,2.254c-0.328,0.701-0.627,1.373-0.943,1.973
						c-0.608,1.214-1.209,2.184-1.638,2.865c-0.434,0.671-0.752,1.086-0.735,1.065L75.732,81.193z"/>
				</g>
			</g>
			<path fill="#FFFFFF" d="M73.885,67.443c-0.143,2.484,2.478,9.645,2.478,9.645s-1.173-5.965-0.095-10.066
				c1.77-6.702,4.208-11.901,4.208-11.901S74.189,62.003,73.885,67.443z"/>
		</g>
		<g>
			<path fill="#7E9926" stroke="#140906" stroke-width="2.4046" stroke-miterlimit="10" d="M64.092,61.082
				c5.044,8.005-4.276,21.103-4.276,21.103s-10.432-2.351-12.365-11.613c-3.403-16.32,9.898-28.486,9.898-28.486
				S56.196,48.559,64.092,61.082z"/>
			<path fill="#8DA490" d="M59.816,82.185c-2.34-0.428-10.432-2.351-12.365-11.613c-3.403-16.32,9.898-28.486,9.898-28.486
				S49.279,66.106,59.816,82.185z"/>
			<g>
				<g>
					<path fill="#140906" d="M58.812,82.848c0.015,0.021-0.26-0.424-0.623-1.135c-0.355-0.723-0.855-1.749-1.335-3.019
						c-0.255-0.629-0.483-1.327-0.737-2.059c-0.219-0.743-0.486-1.515-0.678-2.335c-0.103-0.408-0.209-0.822-0.316-1.241
						c-0.087-0.424-0.175-0.853-0.264-1.285c-0.196-0.859-0.301-1.75-0.441-2.631c-0.138-0.882-0.186-1.776-0.28-2.646
						c-0.066-0.874-0.075-1.738-0.115-2.568c-0.018-0.832,0.026-1.638,0.035-2.398c-0.003-0.761,0.096-1.478,0.141-2.139
						c0.068-0.66,0.082-1.268,0.182-1.798c0.079-0.532,0.15-0.996,0.207-1.377c0.115-0.762,0.182-1.197,0.182-1.197
						s-0.028,0.439-0.079,1.209c-0.025,0.384-0.054,0.85-0.089,1.384c-0.053,0.532-0.016,1.139-0.027,1.796
						c0.012,0.658-0.027,1.369,0.042,2.121c0.056,0.75,0.08,1.542,0.167,2.356c0.107,0.812,0.189,1.653,0.326,2.499
						c0.166,0.842,0.285,1.704,0.493,2.548c0.208,0.844,0.383,1.693,0.645,2.506c0.121,0.408,0.24,0.813,0.357,1.214
						c0.138,0.393,0.273,0.783,0.406,1.165c0.25,0.771,0.571,1.485,0.838,2.174c0.303,0.675,0.573,1.318,0.865,1.891
						c0.555,1.16,1.104,2.072,1.482,2.703c0.395,0.63,0.611,0.916,0.625,0.938L58.812,82.848z"/>
				</g>
			</g>
			<path fill="#FFFFFF" d="M64.064,68.035c-0.114,2.484-3.454,9.34-3.454,9.34s1.78-5.814,1.124-10.005
				c-1.072-6.847-2.967-12.269-2.967-12.269S64.314,62.59,64.064,68.035z"/>
		</g>
		<g>
			<path fill="#7E9926" stroke="#140906" stroke-width="2.4046" stroke-miterlimit="10" d="M77.779,62.865
				c3.299,8.869-8.506,19.78-8.506,19.78s-9.729-4.436-9.723-13.897c0.009-16.672,15.521-25.856,15.521-25.856
				S72.617,48.992,77.779,62.865z"/>
			<path fill="#8DA490" d="M69.273,82.645c-2.201-0.897-9.729-4.436-9.723-13.897c0.009-16.672,15.521-25.856,15.521-25.856
				S62.252,64.751,69.273,82.645z"/>
			<g>
				<g>
					<path fill="#140906" d="M68.156,83.088c0.008,0.023-0.168-0.468-0.378-1.238c-0.2-0.779-0.479-1.887-0.688-3.228
						c-0.121-0.668-0.201-1.397-0.301-2.165c-0.061-0.773-0.165-1.582-0.186-2.425c-0.018-0.421-0.037-0.848-0.055-1.28
						c0.002-0.432,0.004-0.87,0.006-1.311c-0.018-0.881,0.062-1.775,0.105-2.666c0.046-0.891,0.182-1.776,0.268-2.647
						c0.114-0.869,0.281-1.716,0.414-2.537c0.151-0.818,0.359-1.598,0.524-2.34c0.151-0.746,0.396-1.427,0.575-2.065
						c0.202-0.632,0.34-1.224,0.545-1.724c0.188-0.504,0.352-0.944,0.486-1.306c0.269-0.722,0.422-1.135,0.422-1.135
						s-0.117,0.424-0.324,1.167c-0.104,0.37-0.228,0.82-0.371,1.336c-0.16,0.51-0.248,1.112-0.393,1.753
						c-0.125,0.646-0.308,1.334-0.395,2.084c-0.099,0.746-0.238,1.526-0.318,2.341c-0.061,0.817-0.152,1.657-0.191,2.513
						c-0.01,0.858-0.07,1.726-0.041,2.595c0.033,0.869,0.029,1.735,0.119,2.585c0.033,0.424,0.068,0.845,0.102,1.261
						c0.053,0.414,0.106,0.822,0.158,1.225c0.088,0.804,0.255,1.569,0.375,2.299c0.158,0.722,0.291,1.407,0.46,2.027
						c0.306,1.248,0.655,2.254,0.897,2.949c0.257,0.697,0.41,1.021,0.418,1.046L68.156,83.088z"/>
				</g>
			</g>
			<path fill="#FFFFFF" d="M76.33,69.665c-0.62,2.409-5.293,8.435-5.293,8.435s2.932-5.326,3.146-9.562
				c0.354-6.921-0.392-12.617-0.392-12.617S77.689,64.387,76.33,69.665z"/>
		</g>
		<path fill="#3F918F" stroke="#140906" stroke-width="2.8518" stroke-miterlimit="10" d="M87.37,118.235
			c-6.844,0-39.938,0-47.638,0s-9.887-8.091-9.887-10.732c0-2.643,0-28.784,0-28.784h67.686c0,0,0,25.772,0,29.403
			C97.531,111.752,94.213,118.235,87.37,118.235z"/>
		<path fill="#A3CCCB" d="M64.203,115.822c-14.428-3.354-24.219-15.844-24.711-30.483c-0.078-2.28,0.063-4.497,0.406-6.62H29.846
			c0,0,0,26.142,0,28.784c0,2.642,2.188,10.732,9.887,10.732H87.37c5.934,0,9.212-4.872,9.981-8.534
			C87.354,115.389,75.402,118.426,64.203,115.822z"/>
		<path fill="#FFFFFF" d="M94.504,81.624c0,0.564-0.828,1.021-1.85,1.021H43.121c-1.023,0-1.852-0.456-1.852-1.021l0,0
			c0-0.565,0.828-1.021,1.852-1.021h49.533C93.676,80.603,94.504,81.059,94.504,81.624L94.504,81.624z"/>
		<path fill="#FFFFFF" d="M87.691,92.786c0,0,3.666,16.731,5.068,16.92c1.403,0.188,1.744-20.808,1.744-20.808H62.558L87.691,92.786
			z"/>

			<rect x="37.926" y="118.069" fill="#3F918F" stroke="#140906" stroke-width="2.8518" stroke-miterlimit="10" width="50.398" height="4.549"/>

			<line fill="none" stroke="#140906" stroke-width="2.8518" stroke-linecap="round" stroke-linejoin="round" stroke-miterlimit="10" x1="29.846" y1="85.07" x2="49.35" y2="85.07"/>

			<line fill="none" stroke="#140906" stroke-width="2.8518" stroke-linecap="round" stroke-linejoin="round" stroke-miterlimit="10" x1="52.914" y1="85.07" x2="56.241" y2="85.07"/>

			<line fill="none" stroke="#140906" stroke-width="2.8518" stroke-linecap="round" stroke-linejoin="round" stroke-miterlimit="10" x1="61.469" y1="85.07" x2="76.441" y2="85.07"/>

			<line fill="none" stroke="#140906" stroke-width="2.8518" stroke-linecap="round" stroke-linejoin="round" stroke-miterlimit="10" x1="81.907" y1="85.07" x2="84.76" y2="85.07"/>

			<line fill="none" stroke="#140906" stroke-width="2.8518" stroke-linecap="round" stroke-linejoin="round" stroke-miterlimit="10" x1="89.75" y1="85.07" x2="97.531" y2="85.07"/>
	</g>
	<g>
		<g>
			<circle fill="#140906" cx="83.258" cy="97.976" r="7.916"/>
			<circle fill="#FFFFFF" cx="80.419" cy="95.305" r="2.703"/>
			<circle fill="#FFFFFF" cx="84.421" cy="98.814" r="1.612"/>
		</g>
		<ellipse fill="#FC936F" cx="45.037" cy="109.536" rx="5.058" ry="2.383"/>
		<ellipse fill="#FC936F" cx="83.259" cy="109.536" rx="5.058" ry="2.383"/>
		<g>
			<circle fill="#140906" cx="43.937" cy="97.976" r="7.915"/>
			<circle fill="#FFFFFF" cx="46.778" cy="95.305" r="2.703"/>
			<circle fill="#FFFFFF" cx="42.776" cy="98.814" r="1.612"/>
		</g>
		<g>

				<path fill="#FE320F" stroke="#140906" stroke-width="1.6386" stroke-linecap="round" stroke-linejoin="round" stroke-miterlimit="10" d="
				M71.852,103.48c0.953,0.293,1.096,2.336-0.265,3.873c-4.155,4.713-11.79,4.713-15.945,0c-1.362-1.537-1.217-3.58-0.265-3.873l0,0
				C56.33,103.174,70.898,103.174,71.852,103.48L71.852,103.48z"/>
		</g>

			<path fill="#FFFFFF" stroke="#140906" stroke-width="1.6386" stroke-linecap="round" stroke-linejoin="round" stroke-miterlimit="10" d="
			M68.062,106.25c-0.354,0.672-3.398,0.479-3.804,0c-0.402-0.479,0-3,0-3h3.804C68.062,103.25,68.416,105.577,68.062,106.25z"/>
	</g>
</g>
</svg>
