<?xml version="1.0" encoding="utf-8"?>
<!-- Generator: Adobe Illustrator 16.0.0, SVG Export Plug-In . SVG Version: 6.00 Build 0)  -->
<!DOCTYPE svg PUBLIC "-//W3C//DTD SVG 1.1//EN" "http://www.w3.org/Graphics/SVG/1.1/DTD/svg11.dtd">
<svg class="plant-index" version="1.1" viewBox="0 0 228 350" enable-background="new 0 0 228 350" xml:space="preserve">
<g>
	<g>
		<g>
			<path fill="#E08F67" d="M71.418,223.9"/>
		</g>
	</g>
</g>
<path fill="#59842B" d="M18.06,206.056c0,0,11.45-16.97,37.162-18.868s39.358,19.144,43.19,36.713h17.569
	c-2.642-13.428-16.913-46.136-46.142-51.292C42.895,167.854,21.405,190.72,18.06,206.056z"/>
<path fill="#E4515C" d="M113.34,13.049c-14.619,22.365-12.818,69.657-10.284,111.263s-2.396,99.589-2.396,99.589h21.663
	c3.698-52.349-1.623-83.066,1.02-116.631c2.641-33.564,1.502-36.279-4.778-56.885S111.93,19.39,113.34,13.049z"/>
<path fill="#CD3240" d="M76.973,60.952c10.653,1.231,23.144,14.225,23.66,45.261c0.516,31.036-6.666,89.022,0.026,117.688h21.663
	c-10.039-48.474-8.805-78.942-9.511-112.052S99.958,60.6,76.973,60.952z"/>
<path fill="#AD3340" d="M138.525,59.543c-9.511,0.704-18.099,6.742-22.544,25.889c-6.451,27.79-14.616,41.574-19.196,75.383
	c-4.579,33.809,1.627,63.086,1.627,63.086h23.91c-3.911-53.045,2.466-86.485,3.17-113.357
	C126.195,83.671,126.375,66.588,138.525,59.543z"/>
<path fill="#873340" d="M64.729,74.864c11.975-0.352,28.882,10.215,32.581,51.426c3.697,41.211,3.322,97.61,3.322,97.61h15.349
	c5.633-54.461,1.905-83.97-9.776-113.357C96.381,85.829,82.693,71.87,64.729,74.864z"/>
<path fill="#593140" d="M148.209,73.455c-3.523,0.177-8.982,3.874-11.096,24.833c-2.113,20.958-2.988,71.059-14.791,125.612h-21.689
	c-4.862-39.229-2.892-68.689,9.359-90.214c12.33-21.661,16.731-31.876,21.309-43.676C135.879,78.211,141.868,72.398,148.209,73.455z
	"/>
<path fill="#355918" d="M61.385,110.834c22.189-2.683,53.855,13.239,62.52,45.221c8.664,31.979,1.588,67.846,1.588,67.846h-27.08
	C105.727,168.753,100.834,136.237,61.385,110.834z"/>
<path fill="#3F691E" d="M98.412,223.9h23.91c0-41.605,6.484-58.303,14.923-74.363c9.651-18.367,12.812-35.003,25.035-38.041
	c-17.507-3.17-35.829,5.053-43.178,24.32c-7.35,19.269-13.69,24.552-16.596,34.326C99.601,179.918,98.412,223.9,98.412,223.9z"/>
<path fill="#4C7A21" d="M43.07,135.816c9.862-4.066,27.471-0.367,41.386,28.34c13.915,28.705,16.203,59.744,16.203,59.744h21.663
	c-1.939-23.817-11.296-46.826-22.963-66.903S62.443,122.625,43.07,135.816z"/>
<path fill="#59842B" d="M183.785,143.374c-18.139-4.755-35.887,8.312-46.67,33.285c-10.783,24.975-14.793,47.241-14.793,47.241
	h-23.91c2.08-31.89,6.121-52.701,29.896-73.426C150.776,130.89,175.685,133.512,183.785,143.374z"/>
<path fill="#668E3D" d="M31.621,167.501c16.557-8.629,37.865-8.278,48.961,8.454c11.096,16.731,20.077,47.945,20.077,47.945h21.663
	c-13.32-30.016-17.863-59.435-41.303-70.455C62.972,144.958,39.371,156.23,31.621,167.501z"/>
<path fill="#88AD55" d="M106.205,223.9h-7.793c-4.491-8.583-11.954-16.245-22.488-15.717c-10.533,0.528-17.799,12.02-29.818,18.889
	c-12.02,6.868-31.701,2.905-31.701,2.905c14.794-3.17,15.052-16,27.078-29.454c13.341-14.926,36.586-13.297,48.006-5.287
	C102.109,204.089,105.28,215.049,106.205,223.9z"/>
<path fill="#59842B" d="M212.845,216.374c-6.517,3.786-15.322-0.268-21.134-9.424c-5.812-9.156-13.263-19.411-27.52-20.824
	c-15.982-1.586-36.984,6.604-54.199,37.774h15.5c11.095-4.797,15.495-17.124,30.994-16.948c15.5,0.175,16.906,16.202,33.639,18.844
	S212.845,216.374,212.845,216.374"/>
<path fill="#75A03A" d="M100.659,223.9h18.443c13.608-8.144,18.715-19.942,22.59-28.572c3.876-8.63,12.328-19.9,22.19-22.719
	c9.864-2.818,21.664,1.938,25.539,7.396c-3.346-19.196-32.934-28.354-61.992-6.517C98.74,195.051,100.659,223.9,100.659,223.9z"/>
<path fill="#E87780" d="M109.215,26.588c-3.674,12.154-4.583,25.763-3.109,41.091c0.652,6.784,4.445,14.362,4.445,14.362
	s0.963-8.321-0.205-18.566C109.023,51.892,107.658,39.591,109.215,26.588z"/>
<path fill="#8D8B6E" d="M61.559,324.935c0,3.957,23.539,7.163,52.583,7.163s52.584-3.206,52.584-7.163
	c0-3.956-23.54-7.162-52.584-7.162S61.559,320.979,61.559,324.935z"/>
<g>
	<g>
		<g>
			<path fill="#8D8993" stroke="#140906" stroke-width="1.82" stroke-miterlimit="10" d="M168.2,247.082
				c-5.479,0-107.745,0-112.063,0c-4.311,0-3.318-24.873,0-24.873c3.32,0,107.255,0,112.063,0
				C173.022,222.209,173.679,247.082,168.2,247.082z"/>
			<path fill="#B7B5C0" d="M168.2,236.761c-5.479,0-107.745,0-112.063,0c-1.408,0-2.254-2.676-2.627-6.27
				c-0.662,7.236-0.016,16.591,2.627,16.591c4.318,0,106.584,0,112.063,0c3.44,0,4.457-9.792,3.552-17.085
				C171.236,233.841,170.081,236.761,168.2,236.761z"/>
			<path fill="#8D8993" stroke="#140906" stroke-width="1.82" stroke-miterlimit="10" d="M139.891,324.935
				c-10.624,0-41.504,0-53.461,0c-11.955,0-15.351-16.661-15.351-16.661l-10.96-61.191h105.092l-9.541,62.152
				C155.67,309.234,150.515,324.935,139.891,324.935z"/>
			<path fill="#B7B5C0" d="M89.753,304.778c-9.843-13.651-19.421-45.887,5.978-57.696H60.119l10.96,61.191
				c0,0,3.396,16.661,15.351,16.661h39.406C112.1,320.59,97.77,315.905,89.753,304.778z"/>
			<path fill="#FFFFFF" d="M165.211,229.025c0,2.237-1.634,4.051-3.653,4.051H63.77c-2.012,0-3.65-1.813-3.65-4.051l0,0
				c0-2.24,1.639-4.051,3.65-4.051h97.788C163.577,224.975,165.211,226.785,165.211,229.025L165.211,229.025z"/>
			<path fill="#FFFFFF" d="M147.127,265.895c2.552,7.94-0.831,42.039,1.346,42.334c2.181,0.292,7.882-31.671,8.081-50.386
				c0.11-10.657-43.111-6.331-43.111-6.331S144.57,257.95,147.127,265.895z"/>
		</g>
	</g>
	<g>
		<g>
			<path fill="#140906" d="M95.811,276.729c0,6.212-5.038,11.251-11.249,11.251c-6.216,0-11.254-5.039-11.254-11.251
				c0-6.221,5.038-11.257,11.254-11.257C90.772,265.472,95.811,270.508,95.811,276.729z"/>
			<path fill="#FFFFFF" d="M84.363,272.929c0,2.125-1.719,3.843-3.844,3.843c-2.116,0-3.839-1.718-3.839-3.843
				c0-2.12,1.723-3.843,3.839-3.843C82.645,269.086,84.363,270.809,84.363,272.929z"/>
			<path fill="#FFFFFF" d="M88.502,277.918c0,1.267-1.025,2.296-2.295,2.296c-1.264,0-2.288-1.029-2.288-2.296
				c0-1.264,1.024-2.293,2.288-2.293C87.477,275.625,88.502,276.654,88.502,277.918z"/>
		</g>
		<g>
			<path fill="#140906" d="M150.154,276.729c0,6.212-5.032,11.251-11.247,11.251c-6.218,0-11.257-5.039-11.257-11.251
				c0-6.221,5.039-11.257,11.257-11.257C145.122,265.472,150.154,270.508,150.154,276.729z"/>
			<circle fill="#FFFFFF" cx="134.863" cy="272.929" r="3.842"/>
			<path fill="#FFFFFF" d="M142.851,277.918c0,1.267-1.031,2.296-2.3,2.296s-2.292-1.029-2.292-2.296
				c0-1.264,1.023-2.293,2.292-2.293S142.851,276.654,142.851,277.918z"/>
		</g>
		<path fill="#FC936F" d="M91.75,293.162c0,1.872-3.224,3.388-7.188,3.388c-3.972,0-7.196-1.516-7.196-3.388
			c0-1.873,3.225-3.391,7.196-3.391C88.526,289.771,91.75,291.289,91.75,293.162z"/>
		<path fill="#FC936F" d="M146.091,293.162c0,1.872-3.216,3.388-7.184,3.388c-3.978,0-7.194-1.516-7.194-3.388
			c0-1.873,3.217-3.391,7.194-3.391C142.875,289.771,146.091,291.289,146.091,293.162z"/>
		<path fill="#140906" d="M102.757,289.664c0,2.9,1.706,6.994,8.998,6.994c7.286,0,8.992-4.094,8.992-6.994H102.757z"/>
	</g>
</g>
<g>
</g>
<g>
</g>
<g>
</g>
<g>
</g>
<g>
</g>
<g>
</g>
</svg>
