<svg viewBox="0 0 73 98" version="1.1" xmlns="http://www.w3.org/2000/svg" xmlns:xlink="http://www.w3.org/1999/xlink" preserveAspectRatio="xMidYMin meet">
    <g id="Page-1" stroke="none" stroke-width="1" fill="none" fill-rule="evenodd">
        <g id="iStock-928181060" transform="translate(-310.000000, -175.000000)">
            <path d="M331.715,191.311 C336.879,197.422 336.454,210.651 332.381,212.137 C328.56,213.531 316.92,201.247 316.535,196.647 C316.175,192.36 321.172,183.899 321.172,183.899 C321.172,183.899 329.986,189.264 331.715,191.311" id="Fill-243" fill="#859D49"></path>
            <path d="M331.715,191.311 L331.02,191.898 C332.219,193.314 333.126,195.207 333.721,197.27 C334.316,199.332 334.603,201.559 334.603,203.625 C334.604,205.635 334.328,207.495 333.842,208.874 C333.6,209.563 333.307,210.129 332.996,210.533 C332.684,210.939 332.369,211.174 332.069,211.283 C331.982,211.315 331.864,211.337 331.707,211.337 C331.358,211.341 330.822,211.211 330.192,210.925 C329.085,210.431 327.706,209.49 326.297,208.302 C324.18,206.52 321.98,204.183 320.305,201.97 C319.467,200.864 318.76,199.788 318.261,198.842 C317.758,197.9 317.477,197.075 317.441,196.571 C317.43,196.446 317.424,196.317 317.424,196.184 C317.421,195.241 317.687,193.99 318.108,192.685 C318.738,190.723 319.704,188.627 320.51,187.035 C320.913,186.239 321.275,185.567 321.537,185.096 C321.667,184.861 321.773,184.675 321.845,184.55 C321.917,184.424 321.954,184.361 321.955,184.361 L321.172,183.899 L320.699,184.675 C320.699,184.675 320.834,184.757 321.077,184.907 C321.926,185.431 324.081,186.773 326.201,188.2 C327.261,188.914 328.312,189.649 329.18,190.307 C330.045,190.959 330.741,191.561 331.02,191.898 L332.409,190.725 C332.134,190.401 331.78,190.072 331.351,189.71 C329.86,188.455 327.455,186.828 325.397,185.49 C323.342,184.156 321.649,183.125 321.645,183.122 L320.857,182.643 L320.389,183.436 C320.379,183.453 319.203,185.443 318.018,188.009 C317.426,189.293 316.831,190.72 316.377,192.129 C315.926,193.54 315.609,194.925 315.606,196.184 C315.606,196.369 315.614,196.549 315.629,196.724 C315.69,197.429 315.931,198.159 316.285,198.944 C317.531,201.665 320.265,205.106 323.213,207.962 C324.688,209.386 326.212,210.653 327.648,211.585 C328.367,212.051 329.064,212.434 329.737,212.708 C330.41,212.981 331.059,213.153 331.707,213.156 C332.039,213.156 332.372,213.107 332.691,212.991 C333.397,212.733 333.976,212.244 334.438,211.639 C335.134,210.728 335.61,209.54 335.935,208.173 C336.258,206.806 336.42,205.255 336.42,203.625 C336.42,201.393 336.116,199.012 335.467,196.765 C334.817,194.519 333.826,192.404 332.409,190.724 L331.715,191.311" id="Fill-244" fill="#1D1209"></path>
            <path d="M324.571,202.094 C323.813,201.744 322.963,201.473 322.064,201.245 C321.209,201.031 320.307,200.86 319.408,200.723 C318.958,200.062 318.57,199.427 318.261,198.842 C317.758,197.9 317.477,197.075 317.441,196.571 C317.43,196.446 317.424,196.317 317.424,196.184 C317.421,195.241 317.687,193.99 318.108,192.685 C318.738,190.723 319.704,188.627 320.51,187.035 C320.772,186.516 321.018,186.05 321.229,185.658 C321.334,187.518 321.626,190.678 322.445,194.292 C322.464,194.41 322.488,194.549 322.514,194.705 C322.563,194.993 322.621,195.343 322.688,195.744 C322.742,196.149 322.875,196.589 322.981,197.079 C323.105,197.565 323.201,198.104 323.383,198.65 C323.557,199.199 323.713,199.787 323.923,200.381 C324.12,200.941 324.336,201.516 324.571,202.094" id="Fill-245" fill="#4E6F36"></path>
            <path d="M319.408,200.723 C319.165,200.686 318.923,200.652 318.682,200.62 C317.984,199.646 317.404,198.771 316.956,198.078 C314.653,194.523 321.172,183.899 321.172,183.899 C321.172,183.899 321.167,184.546 321.229,185.658 C321.018,186.05 320.772,186.516 320.51,187.035 C319.704,188.627 318.738,190.723 318.108,192.685 C317.687,193.99 317.421,195.241 317.424,196.184 C317.424,196.317 317.43,196.446 317.441,196.571 C317.477,197.075 317.758,197.9 318.261,198.842 C318.57,199.427 318.958,200.062 319.408,200.723" id="Fill-246" fill="#130C03"></path>
            <path d="M331.816,212.849 C331.831,212.862 331.529,212.606 331.102,212.18 C330.676,211.745 330.075,211.125 329.432,210.325 C328.781,209.532 328.064,208.576 327.381,207.501 C327.029,206.97 326.691,206.408 326.369,205.823 C326.026,205.251 325.74,204.636 325.434,204.035 C324.842,202.821 324.342,201.569 323.923,200.381 C323.713,199.787 323.557,199.199 323.383,198.65 C323.201,198.104 323.105,197.565 322.981,197.079 C322.875,196.589 322.742,196.149 322.688,195.744 C322.621,195.343 322.563,194.993 322.514,194.705 C322.418,194.131 322.362,193.802 322.362,193.802 C322.362,193.802 322.445,194.125 322.59,194.69 C322.663,194.971 322.751,195.313 322.852,195.705 C322.938,196.1 323.109,196.528 323.256,197.003 C323.418,197.473 323.558,197.993 323.783,198.517 C324,199.043 324.203,199.607 324.459,200.171 C324.969,201.299 325.56,202.477 326.234,203.605 C326.583,204.162 326.907,204.732 327.287,205.254 C327.645,205.791 328.016,206.304 328.396,206.784 C329.139,207.757 329.898,208.608 330.576,209.304 C331.248,210.007 331.855,210.534 332.277,210.897 C332.709,211.257 332.932,211.412 332.945,211.425 L331.816,212.849" id="Fill-247" fill="#1D1209"></path>
            <path d="M332.079,197.91 C331.686,197.718 331.305,197.537 330.942,197.37 C330.286,197.068 329.694,196.81 329.207,196.604 C329.175,196.535 329.143,196.47 329.111,196.407 C326.73,191.739 322.852,187.08 322.852,187.08 C322.852,187.08 327.107,189.527 329.849,192.389 C330.012,192.93 330.201,193.49 330.411,194.063 C330.873,195.311 331.441,196.618 332.079,197.91" id="Fill-248" fill="#B4BE69"></path>
            <path d="M376.608,197.902 C375.756,205.855 365.892,214.682 362.006,212.762 C358.357,210.962 359.206,194.061 362.267,190.605 C365.118,187.385 374.692,185.158 374.692,185.158 C374.692,185.158 376.896,195.237 376.608,197.902" id="Fill-249" fill="#859D49"></path>
            <path d="M376.608,197.902 L375.704,197.805 C375.362,201.105 373.231,204.775 370.632,207.546 C369.337,208.934 367.931,210.1 366.618,210.902 C365.308,211.709 364.082,212.127 363.249,212.119 C362.901,212.119 362.626,212.055 362.409,211.947 C362.231,211.864 361.972,211.62 361.723,211.155 C361.346,210.466 361.023,209.351 360.819,208.016 C360.612,206.678 360.511,205.116 360.511,203.492 C360.51,200.942 360.759,198.233 361.205,195.968 C361.427,194.836 361.699,193.814 362.004,192.988 C362.305,192.162 362.652,191.534 362.946,191.209 C363.525,190.548 364.58,189.836 365.824,189.206 C367.691,188.253 369.975,187.453 371.778,186.902 C372.681,186.625 373.464,186.41 374.02,186.264 C374.298,186.191 374.519,186.136 374.67,186.098 C374.821,186.061 374.898,186.043 374.898,186.043 L374.692,185.158 L373.804,185.352 C373.804,185.353 373.924,185.901 374.105,186.781 C374.376,188.1 374.784,190.158 375.123,192.184 C375.461,194.203 375.727,196.219 375.725,197.333 C375.725,197.523 375.716,197.685 375.704,197.81 L375.704,197.805 L376.608,197.902 L377.513,197.994 C377.533,197.792 377.542,197.573 377.542,197.333 C377.542,196.426 377.415,195.234 377.23,193.916 C376.676,189.975 375.583,184.975 375.58,184.964 L375.383,184.064 L374.486,184.272 C374.467,184.277 372.05,184.839 369.249,185.816 C367.848,186.305 366.351,186.896 364.998,187.586 C363.645,188.279 362.434,189.053 361.586,190.002 C361.052,190.611 360.651,191.408 360.298,192.359 C359.257,195.2 358.698,199.486 358.693,203.492 C358.694,205.759 358.875,207.923 359.29,209.687 C359.5,210.571 359.765,211.356 360.124,212.021 C360.482,212.679 360.942,213.246 361.603,213.577 C362.114,213.83 362.678,213.938 363.249,213.937 C364.625,213.929 366.078,213.357 367.566,212.453 C369.792,211.09 372.09,208.929 373.942,206.389 C375.788,203.847 377.193,200.928 377.512,197.998 L377.513,197.994 L376.608,197.902" id="Fill-250" fill="#1D1209"></path>
            <path d="M366.063,196.091 L365.933,195.494 L365.036,195.704 C365.027,195.706 364.492,195.83 363.639,196.062 C363.853,194.955 363.971,193.844 363.972,192.752 C363.972,191.978 363.912,191.214 363.782,190.469 C363.781,190.464 363.78,190.458 363.779,190.453 C364.34,190.027 365.044,189.6 365.824,189.206 C367.691,188.253 369.975,187.453 371.778,186.902 C372.409,186.709 372.982,186.545 373.459,186.415 C372.192,187.767 370.122,190.145 368.082,193.21 C368.004,193.315 367.909,193.442 367.799,193.588 C367.625,193.823 367.412,194.106 367.169,194.432 C366.913,194.75 366.687,195.151 366.406,195.566 C366.298,195.737 366.182,195.911 366.063,196.091" id="Fill-251" fill="#4E6F36"></path>
            <path d="M363.779,190.453 C363.723,190.147 363.63,189.806 363.509,189.436 C367.226,186.762 374.692,185.158 374.692,185.158 C374.692,185.158 374.221,185.601 373.459,186.415 C372.982,186.545 372.409,186.709 371.778,186.902 C369.975,187.453 367.691,188.253 365.824,189.206 C365.044,189.6 364.34,190.027 363.779,190.453" id="Fill-252" fill="#130C03"></path>
            <path d="M361.101,212.845 C361.102,212.864 361.078,212.47 361.091,211.866 C361.111,211.258 361.145,210.396 361.279,209.378 C361.404,208.359 361.602,207.181 361.906,205.945 C362.049,205.324 362.221,204.69 362.422,204.054 C362.598,203.411 362.846,202.78 363.067,202.143 C363.538,200.876 364.098,199.65 364.668,198.527 C364.953,197.966 365.27,197.445 365.547,196.941 C365.816,196.432 366.139,195.991 366.406,195.566 C366.687,195.151 366.913,194.75 367.169,194.432 C367.412,194.106 367.625,193.823 367.799,193.588 C368.148,193.122 368.348,192.855 368.348,192.855 C368.348,192.855 368.172,193.138 367.863,193.633 C367.71,193.88 367.523,194.179 367.31,194.523 C367.084,194.859 366.893,195.278 366.65,195.711 C366.422,196.154 366.143,196.614 365.92,197.139 C365.689,197.659 365.422,198.195 365.189,198.769 C364.726,199.917 364.283,201.158 363.932,202.425 C363.77,203.062 363.582,203.69 363.467,204.325 C363.324,204.954 363.211,205.577 363.125,206.183 C362.935,207.392 362.844,208.53 362.809,209.5 C362.764,210.471 362.803,211.275 362.83,211.83 C362.869,212.391 362.91,212.659 362.911,212.679 L361.101,212.845" id="Fill-253" fill="#1D1209"></path>
            <path d="M370.12,201.575 C370.573,200.799 370.93,200.096 371.125,199.537 C372.857,194.59 373.548,188.569 373.548,188.569 C373.548,188.569 375.609,196.976 373.844,200.736 C372.976,200.87 372.106,201.036 371.277,201.245 C370.88,201.345 370.494,201.454 370.12,201.575" id="Fill-254" fill="#B4BE69"></path>
            <path d="M362.887,190.625 C364.27,198.504 357.237,209.718 352.971,208.948 C348.966,208.228 345.102,191.753 347.088,187.584 C348.936,183.7 357.516,178.909 357.516,178.909 C357.516,178.909 362.426,187.986 362.887,190.625" id="Fill-255" fill="#859D49"></path>
            <path d="M362.887,190.625 L361.991,190.782 C362.101,191.411 362.154,192.072 362.154,192.752 C362.161,196.187 360.776,200.133 358.919,203.146 C357.995,204.654 356.954,205.93 355.957,206.796 C355.46,207.229 354.975,207.559 354.537,207.771 C354.097,207.984 353.71,208.077 353.397,208.076 C353.304,208.076 353.214,208.068 353.13,208.053 C352.96,208.025 352.694,207.898 352.377,207.603 C351.822,207.094 351.177,206.119 350.59,204.873 C348.805,201.134 347.448,194.991 347.458,191.024 C347.451,189.642 347.636,188.521 347.908,187.976 L347.909,187.974 C348.281,187.18 349.097,186.204 350.118,185.254 C351.647,183.822 353.62,182.421 355.2,181.391 C355.99,180.876 356.683,180.452 357.177,180.158 C357.424,180.011 357.621,179.896 357.755,179.819 C357.89,179.741 357.958,179.703 357.958,179.703 L357.516,178.909 L356.716,179.341 C356.716,179.343 357.02,179.903 357.484,180.79 C358.182,182.121 359.24,184.182 360.162,186.144 C360.622,187.125 361.048,188.081 361.375,188.901 C361.703,189.715 361.93,190.415 361.991,190.782 L362.887,190.625 L363.782,190.469 C363.633,189.645 363.224,188.577 362.688,187.322 C361.084,183.593 358.321,178.489 358.315,178.476 L357.876,177.666 L357.072,178.115 C357.055,178.125 354.889,179.334 352.469,181.048 C351.258,181.906 349.984,182.889 348.875,183.926 C347.768,184.967 346.818,186.046 346.267,187.193 L346.268,187.191 C345.794,188.203 345.647,189.497 345.64,191.024 C345.644,194.334 346.449,198.715 347.675,202.427 C348.291,204.282 349.009,205.963 349.821,207.271 C350.229,207.925 350.66,208.488 351.141,208.936 C351.622,209.38 352.167,209.725 352.81,209.843 C353.005,209.878 353.201,209.894 353.397,209.894 C354.059,209.893 354.706,209.708 355.33,209.407 C356.419,208.875 357.462,207.986 358.455,206.857 C359.94,205.163 361.303,202.917 362.312,200.456 C363.318,197.994 363.97,195.318 363.972,192.752 C363.972,191.978 363.912,191.214 363.782,190.469 L362.887,190.625" id="Fill-256" fill="#1D1209"></path>
            <path d="M350.952,201.158 C350.611,200.815 350.245,200.479 349.86,200.148 C349.462,199.807 349.044,199.473 348.616,199.149 C348.419,198.367 348.242,197.574 348.09,196.787 C348.259,195.633 348.351,194.453 348.351,193.28 C348.35,191.614 348.166,189.962 347.74,188.422 C347.791,188.247 347.847,188.097 347.908,187.976 L347.909,187.974 C348.281,187.18 349.097,186.204 350.118,185.254 C351.647,183.822 353.62,182.421 355.2,181.391 C355.752,181.031 356.256,180.716 356.679,180.458 C355.832,182.117 354.493,184.992 353.38,188.524 C353.337,188.637 353.287,188.769 353.23,188.92 C353.127,189.193 353.001,189.524 352.857,189.905 C352.699,190.282 352.594,190.729 352.438,191.206 C352.299,191.687 352.111,192.201 351.994,192.765 C351.867,193.325 351.705,193.914 351.588,194.532 C351.352,195.769 351.152,197.103 351.051,198.449 C351.015,199.123 350.951,199.799 350.96,200.465 C350.954,200.697 350.951,200.928 350.952,201.158" id="Fill-257" fill="#4E6F36"></path>
            <path d="M348.616,199.149 C348.413,198.994 348.207,198.842 348,198.692 C347.953,198.495 347.907,198.296 347.863,198.1 C347.949,197.667 348.025,197.229 348.09,196.787 C348.242,197.574 348.419,198.367 348.616,199.149 M347.74,188.422 C347.614,187.965 347.467,187.518 347.296,187.084 C349.524,183.197 357.516,178.909 357.516,178.909 C357.516,178.909 357.185,179.465 356.679,180.458 C356.256,180.716 355.752,181.031 355.2,181.391 C353.62,182.421 351.647,183.822 350.118,185.254 C349.097,186.204 348.281,187.18 347.909,187.974 L347.908,187.976 C347.847,188.097 347.791,188.247 347.74,188.422" id="Fill-258" fill="#130C03"></path>
            <path d="M352.123,209.279 C352.131,209.297 351.998,208.924 351.844,208.341 C351.695,207.75 351.488,206.912 351.336,205.897 C351.174,204.884 351.037,203.698 350.987,202.425 C350.952,201.789 350.943,201.132 350.96,200.465 C350.951,199.799 351.015,199.123 351.051,198.449 C351.152,197.103 351.352,195.769 351.588,194.532 C351.705,193.914 351.867,193.325 351.994,192.765 C352.111,192.201 352.299,191.687 352.438,191.206 C352.594,190.729 352.699,190.282 352.857,189.905 C353.001,189.524 353.127,189.193 353.23,188.92 C353.436,188.375 353.554,188.063 353.554,188.063 C353.554,188.063 353.463,188.384 353.304,188.945 C353.225,189.224 353.129,189.564 353.018,189.953 C352.895,190.339 352.826,190.794 352.713,191.278 C352.616,191.765 352.475,192.285 352.406,192.852 C352.328,193.415 352.22,194.005 352.156,194.62 C352.028,195.852 351.946,197.167 351.959,198.481 C351.98,199.138 351.975,199.794 352.038,200.436 C352.076,201.08 352.139,201.71 352.225,202.317 C352.377,203.531 352.604,204.649 352.839,205.591 C353.064,206.537 353.324,207.299 353.506,207.824 C353.697,208.353 353.811,208.599 353.818,208.617 L352.123,209.279" id="Fill-259" fill="#1D1209"></path>
            <path d="M356.972,198.348 C357.55,196.545 358.009,194.812 358.07,193.715 C358.365,188.482 357.363,182.504 357.363,182.504 C357.363,182.504 361.978,190.546 360.929,194.531 C360.797,195.03 360.238,196.086 359.498,197.354 C358.667,197.65 357.808,197.982 356.972,198.348" id="Fill-260" fill="#B4BE69"></path>
            <path d="M346.219,186.868 C349.531,194.149 345.535,206.767 341.211,207.094 C337.154,207.398 329.284,192.417 330.16,187.885 C330.977,183.662 338.083,176.873 338.083,176.873 C338.083,176.873 345.109,184.428 346.219,186.868" id="Fill-261" fill="#859D49"></path>
            <path d="M346.219,186.868 L345.391,187.244 C346.176,188.967 346.534,191.086 346.533,193.28 C346.536,196.426 345.799,199.722 344.698,202.191 C344.15,203.425 343.51,204.45 342.87,205.139 C342.55,205.484 342.233,205.744 341.94,205.915 C341.646,206.086 341.383,206.169 341.142,206.187 L341.087,206.189 C340.866,206.194 340.478,206.077 340,205.76 C339.163,205.215 338.118,204.123 337.091,202.732 C335.542,200.647 333.998,197.895 332.858,195.273 C332.288,193.962 331.818,192.682 331.495,191.541 C331.17,190.401 330.998,189.393 331,188.673 C331,188.43 331.019,188.223 331.051,188.064 L331.066,187.99 L331.053,188.057 C331.214,187.195 331.759,186.045 332.51,184.87 C333.632,183.1 335.191,181.249 336.463,179.857 C337.099,179.16 337.664,178.576 338.068,178.167 C338.27,177.963 338.432,177.802 338.543,177.694 C338.654,177.585 338.71,177.531 338.711,177.531 L338.083,176.873 L337.417,177.492 C337.417,177.493 337.524,177.608 337.718,177.818 C338.393,178.552 340.102,180.429 341.755,182.378 C342.581,183.351 343.394,184.344 344.051,185.213 C344.707,186.076 345.213,186.844 345.391,187.244 L346.219,186.868 L347.046,186.492 C346.695,185.732 346.031,184.801 345.198,183.72 C342.711,180.512 338.757,176.265 338.749,176.254 L338.12,175.579 L337.455,176.216 C337.44,176.23 335.646,177.943 333.733,180.209 C332.776,181.343 331.789,182.614 330.975,183.896 C330.163,185.181 329.514,186.463 329.267,187.712 L329.269,187.706 C329.206,188.018 329.182,188.339 329.182,188.673 C329.188,190.173 329.665,192.03 330.411,194.063 C331.536,197.103 333.288,200.486 335.16,203.162 C336.098,204.5 337.062,205.661 338.028,206.523 C338.512,206.953 338.997,207.31 339.499,207.573 C340,207.833 340.527,208.006 341.087,208.007 L341.278,208 C341.84,207.958 342.372,207.768 342.857,207.485 C343.707,206.985 344.436,206.208 345.089,205.251 C346.064,203.813 346.868,201.947 347.441,199.875 C348.013,197.804 348.351,195.528 348.351,193.28 C348.35,190.893 347.973,188.533 347.046,186.492 L346.219,186.868" id="Fill-262" fill="#1D1209"></path>
            <path d="M337.459,201.08 C337.247,200.921 337.03,200.764 336.807,200.609 C336.216,200.2 335.59,199.808 334.953,199.436 C334.181,198.091 333.463,196.664 332.858,195.273 C332.288,193.962 331.818,192.682 331.495,191.541 C331.17,190.401 330.998,189.393 331,188.673 C331,188.43 331.019,188.223 331.051,188.064 L331.055,188.044 C331.054,188.049 331.053,188.053 331.053,188.057 L331.063,188.006 C331.236,187.149 331.774,186.022 332.51,184.87 C333.632,183.1 335.191,181.249 336.463,179.857 C336.907,179.37 337.317,178.938 337.661,178.583 C337.258,180.396 336.684,183.504 336.49,187.191 C336.476,187.316 336.46,187.466 336.441,187.637 C336.41,187.928 336.371,188.281 336.328,188.685 C336.269,189.089 336.278,189.549 336.248,190.05 C336.234,190.55 336.182,191.095 336.209,191.67 C336.227,192.245 336.218,192.855 336.258,193.483 C336.34,194.74 336.481,196.081 336.721,197.41 C336.854,198.072 336.963,198.741 337.138,199.385 C337.258,199.9 337.391,200.406 337.538,200.896 C337.512,200.957 337.485,201.018 337.459,201.08" id="Fill-263" fill="#4E6F36"></path>
            <path d="M334.953,199.436 C334.681,199.278 334.407,199.123 334.133,198.972 C332.107,195.316 330.849,191.55 330.178,189.377 C328.926,185.33 338.083,176.873 338.083,176.873 C338.083,176.873 337.903,177.495 337.661,178.583 C337.317,178.938 336.907,179.37 336.463,179.857 C335.191,181.249 333.632,183.1 332.51,184.87 C331.774,186.022 331.236,187.149 331.063,188.006 L331.066,187.99 L331.062,188.01 C331.06,188.021 331.057,188.033 331.055,188.044 L331.051,188.064 C331.019,188.223 331,188.43 331,188.673 C330.998,189.393 331.17,190.401 331.495,191.541 C331.818,192.682 332.288,193.962 332.858,195.273 C333.463,196.664 334.181,198.091 334.953,199.436" id="Fill-264" fill="#130C03"></path>
            <path d="M340.474,207.626 C340.484,207.642 340.264,207.314 339.967,206.788 C339.676,206.254 339.266,205.494 338.863,204.55 C338.452,203.609 338.022,202.495 337.655,201.275 C337.462,200.668 337.289,200.034 337.138,199.385 C336.963,198.741 336.854,198.072 336.721,197.41 C336.481,196.081 336.34,194.74 336.258,193.483 C336.218,192.855 336.227,192.245 336.209,191.67 C336.182,191.095 336.234,190.55 336.248,190.05 C336.278,189.549 336.269,189.089 336.328,188.685 C336.371,188.281 336.41,187.928 336.441,187.637 C336.504,187.058 336.54,186.727 336.54,186.727 C336.54,186.727 336.532,187.06 336.52,187.643 C336.512,187.934 336.504,188.287 336.495,188.692 C336.472,189.096 336.52,189.553 336.531,190.05 C336.56,190.547 336.555,191.085 336.63,191.651 C336.695,192.216 336.738,192.814 336.83,193.426 C337.016,194.651 337.266,195.945 337.608,197.213 C337.793,197.844 337.951,198.48 338.174,199.086 C338.373,199.7 338.592,200.294 338.827,200.86 C339.277,201.998 339.778,203.023 340.242,203.877 C340.698,204.736 341.141,205.408 341.447,205.872 C341.766,206.336 341.938,206.545 341.948,206.561 L340.474,207.626" id="Fill-265" fill="#1D1209"></path>
            <path d="M344.057,196.147 C343.44,195.787 342.892,195.482 342.457,195.246 C342.535,193.574 342.523,192.033 342.33,191.067 C341.307,185.926 338.835,180.391 338.835,180.391 C338.835,180.391 345.318,187.019 345.301,191.141 C345.298,191.878 344.737,193.928 344.057,196.147" id="Fill-266" fill="#B4BE69"></path>
            <path d="M314.334,223.726 C314.334,236.2 320.125,260.733 335.051,268.918 C335.051,270.198 340.215,271.235 346.588,271.235 C352.959,271.235 358.125,270.198 358.125,268.918 C374.647,260.733 377.892,236.2 377.892,223.726 L314.334,223.726" id="Fill-267" fill="#C74F58"></path>
            <path d="M314.334,223.726 L313.255,223.726 C313.259,230.121 314.724,239.454 318.087,248.313 C321.457,257.157 326.719,265.563 334.532,269.863 L335.051,268.918 L333.972,268.918 C333.971,269.181 334.042,269.435 334.148,269.642 C334.351,270.031 334.632,270.272 334.924,270.473 C335.442,270.818 336.062,271.057 336.82,271.278 C339.078,271.923 342.588,272.309 346.588,272.313 C349.833,272.312 352.769,272.052 354.957,271.613 C356.055,271.391 356.961,271.132 357.68,270.794 C358.04,270.621 358.36,270.431 358.646,270.155 C358.787,270.015 358.921,269.85 359.027,269.642 C359.133,269.436 359.204,269.181 359.203,268.918 L358.125,268.918 L358.603,269.884 C362.916,267.749 366.35,264.548 369.059,260.788 C373.122,255.145 375.583,248.245 377.047,241.579 C378.509,234.912 378.969,228.473 378.97,223.726 C378.97,223.442 378.855,223.164 378.654,222.963 C378.453,222.763 378.175,222.648 377.892,222.648 L314.334,222.648 C314.05,222.648 313.772,222.762 313.571,222.963 C313.371,223.164 313.255,223.442 313.255,223.726 L314.334,223.726 L314.334,224.804 L377.892,224.804 L377.892,223.726 L376.813,223.726 C376.815,229.871 376.007,239.035 373.18,247.592 C371.769,251.871 369.854,255.997 367.309,259.527 C364.762,263.06 361.595,265.995 357.646,267.952 C357.279,268.134 357.046,268.509 357.046,268.918 L357.597,268.918 L357.103,268.668 C357.076,268.719 357.045,268.815 357.046,268.918 L357.597,268.918 L357.103,268.668 L357.399,268.818 L357.133,268.619 L357.103,268.668 L357.399,268.818 L357.133,268.619 L357.24,268.7 L357.139,268.612 L357.133,268.619 L357.24,268.7 L357.139,268.612 L357.129,268.622 C357.064,268.694 356.664,268.927 356.061,269.114 C355.152,269.408 353.787,269.677 352.156,269.862 C350.523,270.049 348.619,270.156 346.588,270.156 C343.461,270.157 340.628,269.899 338.642,269.499 C337.651,269.302 336.868,269.061 336.419,268.846 C336.196,268.742 336.061,268.64 336.04,268.615 L336.036,268.612 L335.815,268.807 L336.083,268.69 L336.036,268.612 L335.815,268.807 L336.083,268.69 L335.565,268.918 L336.129,268.918 L336.083,268.69 L335.565,268.918 L336.129,268.918 C336.129,268.523 335.916,268.163 335.569,267.973 C328.457,264.088 323.36,256.134 320.103,247.547 C316.839,238.974 315.408,229.804 315.412,223.726 L314.334,223.726 L314.334,224.804 L314.334,223.726" id="Fill-268" fill="#1D1209"></path>
            <path d="M346.572,270.156 C343.452,270.156 340.625,269.898 338.642,269.499 C337.651,269.302 336.868,269.061 336.419,268.846 C336.271,268.777 336.161,268.708 336.099,268.663 C336.028,268.372 335.839,268.121 335.569,267.973 C328.457,264.088 323.36,256.134 320.103,247.547 C317.234,240.01 315.781,232.011 315.474,226.058 C316.568,226.703 317.993,227.251 319.733,227.755 C321.72,228.325 324.122,228.825 326.847,229.238 C326.613,230.583 326.469,231.998 326.413,233.454 C331.204,235.571 341.198,235.74 344.258,235.74 C344.837,235.74 345.168,235.734 345.168,235.734 C345.168,235.734 339.765,238.298 330.666,238.298 C329.36,238.298 327.976,238.245 326.523,238.124 C327.272,247.154 331.057,256.732 337.383,261.405 C341.353,264.337 347.927,266.392 355.273,266.392 C357.118,266.392 359.014,266.262 360.928,265.984 C359.899,266.718 358.806,267.377 357.646,267.952 C357.356,268.095 357.15,268.359 357.076,268.665 C356.937,268.764 356.572,268.955 356.061,269.114 C355.152,269.408 353.787,269.677 352.156,269.862 C350.523,270.049 348.619,270.156 346.588,270.156 C346.583,270.156 346.577,270.156 346.572,270.156" id="Fill-269" fill="#8B3846"></path>
            <path d="M346.588,271.235 C337.193,271.235 335.051,268.918 335.051,268.918 C320.714,261.056 314.806,238.111 314.361,225.257 C314.569,225.445 314.799,225.62 315.045,225.788 C315.182,225.88 315.325,225.97 315.474,226.058 C315.781,232.011 317.234,240.01 320.103,247.547 C323.36,256.134 328.457,264.088 335.569,267.973 C335.839,268.121 336.028,268.372 336.099,268.663 C336.161,268.708 336.271,268.777 336.419,268.846 C336.868,269.061 337.651,269.302 338.642,269.499 C340.625,269.898 343.452,270.156 346.572,270.156 C346.577,270.156 346.583,270.156 346.588,270.156 C348.619,270.156 350.523,270.049 352.156,269.862 C353.787,269.677 355.152,269.408 356.061,269.114 C356.572,268.955 356.937,268.764 357.076,268.665 C357.15,268.359 357.356,268.095 357.646,267.952 C358.806,267.377 359.899,266.718 360.928,265.984 C361.673,265.875 362.421,265.745 363.17,265.59 C361.634,266.879 359.943,267.999 358.088,268.918 C358.088,268.918 355.982,271.235 346.588,271.235" id="Fill-270" fill="#160A04"></path>
            <path d="M361.58,261.405 C359.275,260.46 363.17,255.981 365.105,249.485 C366.574,244.559 368.23,235.798 368.23,235.798 L349.123,232.02 L374.281,229.983 C374.281,229.983 372.964,255.74 361.58,261.405" id="Fill-271" fill="#DA7F81"></path>
            <path d="M377.889,223.073 C377.889,226.596 363.662,229.452 346.11,229.452 C328.561,229.452 314.334,226.596 314.334,223.073 C314.334,219.55 328.561,216.694 346.11,216.694 C363.662,216.694 377.889,219.55 377.889,223.073" id="Fill-272" fill="#C74F58"></path>
            <path d="M377.889,223.073 L376.81,223.073 L376.762,223.238 C376.688,223.396 376.438,223.689 375.971,224.001 C375.157,224.554 373.744,225.153 371.893,225.682 C366.323,227.29 356.83,228.378 346.11,228.374 C337.396,228.375 329.503,227.662 323.853,226.527 C321.032,225.962 318.767,225.283 317.293,224.582 C316.558,224.235 316.026,223.878 315.734,223.588 C315.587,223.445 315.502,223.322 315.46,223.238 L315.412,223.073 L315.46,222.907 C315.534,222.749 315.784,222.456 316.251,222.145 C317.065,221.591 318.478,220.993 320.33,220.463 C325.9,218.856 335.392,217.768 346.11,217.772 C354.826,217.771 362.719,218.484 368.369,219.619 C371.19,220.184 373.456,220.862 374.929,221.564 C375.664,221.911 376.197,222.268 376.488,222.557 C376.635,222.7 376.72,222.823 376.762,222.907 L376.81,223.073 L378.967,223.073 C378.968,222.67 378.861,222.276 378.687,221.934 C378.354,221.288 377.825,220.798 377.177,220.357 C376.037,219.593 374.466,218.963 372.489,218.391 C366.574,216.694 356.987,215.619 346.11,215.615 C337.275,215.616 329.28,216.331 323.429,217.505 C320.5,218.095 318.112,218.791 316.369,219.616 C315.497,220.032 314.78,220.476 314.224,221.017 C313.948,221.289 313.71,221.589 313.536,221.934 C313.361,222.276 313.254,222.669 313.255,223.073 C313.254,223.475 313.361,223.869 313.536,224.211 C313.868,224.858 314.397,225.347 315.045,225.788 C316.185,226.553 317.756,227.183 319.733,227.755 C325.648,229.452 335.235,230.527 346.11,230.531 C354.946,230.53 362.942,229.814 368.793,228.641 C371.723,228.051 374.111,227.355 375.854,226.53 C376.726,226.114 377.443,225.669 377.998,225.128 C378.274,224.856 378.512,224.556 378.687,224.211 C378.861,223.869 378.968,223.475 378.967,223.073 L377.889,223.073" id="Fill-273" fill="#1D1209"></path>
            <path d="M375.182,225.649 C370.251,223.409 359.094,221.846 346.11,221.846 C333.129,221.846 321.972,223.409 317.039,225.649 C321.972,227.888 333.129,229.452 346.11,229.452 C359.094,229.452 370.251,227.888 375.182,225.649" id="Fill-274" fill="#50341D"></path>
            <path d="M375.182,225.649 L375.627,224.667 C372.977,223.469 368.899,222.522 363.808,221.839 C358.722,221.16 352.646,220.768 346.11,220.768 C339.576,220.768 333.499,221.16 328.414,221.839 C323.322,222.522 319.244,223.469 316.593,224.667 C316.208,224.842 315.96,225.226 315.96,225.649 C315.96,226.071 316.208,226.456 316.593,226.63 C319.244,227.828 323.322,228.775 328.414,229.459 C333.499,230.137 339.576,230.53 346.11,230.531 C352.646,230.53 358.723,230.137 363.808,229.459 C368.899,228.775 372.977,227.828 375.627,226.63 C376.012,226.456 376.26,226.071 376.26,225.649 C376.26,225.226 376.012,224.842 375.627,224.667 L375.182,225.649 L374.735,224.667 C372.455,225.709 368.489,226.663 363.523,227.321 C358.551,227.985 352.558,228.374 346.11,228.374 C339.663,228.374 333.67,227.985 328.699,227.321 C323.733,226.663 319.766,225.709 317.484,224.667 L317.039,225.649 L317.484,226.63 C319.766,225.589 323.733,224.635 328.699,223.976 C333.67,223.313 339.663,222.924 346.11,222.924 C352.558,222.924 358.552,223.313 363.523,223.976 C368.489,224.635 372.455,225.589 374.735,226.63 L375.182,225.649 L374.735,224.667 L375.182,225.649" id="Fill-275" fill="#1D1209"></path>
            <path d="M312.963,213.929 C315.645,221.465 327.291,227.753 330.624,224.982 C333.754,222.381 328.994,206.141 325.212,203.494 C321.689,201.025 311.863,201.086858 311.863,201.086858 C311.863,201.086858 312.065,211.404 312.963,213.929" id="Fill-276" fill="#859D49"></path>
            <path d="M312.963,213.929 L312.106,214.233 C313.329,217.643 316.133,220.663 319.226,222.888 C320.775,223.999 322.402,224.906 323.967,225.545 C325.534,226.181 327.034,226.555 328.378,226.558 C329.432,226.557 330.429,226.321 331.204,225.681 C331.766,225.209 332.08,224.559 332.275,223.843 C332.47,223.122 332.547,222.307 332.547,221.411 C332.542,218.378 331.643,214.364 330.377,210.774 C329.743,208.98 329.015,207.301 328.242,205.911 C327.461,204.521 326.67,203.419 325.733,202.75 C324.738,202.057 323.459,201.599 322.064,201.245 C317.893,200.201 312.61,200.181 311.928,200.178 L311.853,200.178 L310.936,200.189 L310.954,201.105 C310.954,201.112 311.005,203.698 311.168,206.612 C311.251,208.069 311.361,209.608 311.508,210.956 C311.583,211.63 311.666,212.257 311.762,212.808 C311.859,213.361 311.965,213.832 312.106,214.233 L312.963,213.929 L313.819,213.624 C313.736,213.393 313.639,212.99 313.553,212.495 C313.247,210.75 313.045,207.864 312.929,205.45 C312.87,204.241 312.83,203.144 312.806,202.351 C312.782,201.557 312.772,201.071 312.772,201.069 L311.863,201.087 L311.874,201.996 L311.928,201.996 C312.337,201.996 314.795,202.01 317.535,202.313 C318.904,202.463 320.344,202.687 321.62,203.008 C322.896,203.326 324.008,203.756 324.69,204.239 C325.213,204.592 325.956,205.526 326.653,206.795 C327.714,208.699 328.747,211.345 329.5,214.017 C330.255,216.688 330.732,219.404 330.729,221.411 C330.73,222.197 330.656,222.872 330.52,223.368 C330.387,223.869 330.193,224.163 330.043,224.282 C329.719,224.555 329.168,224.74 328.378,224.739 C327.382,224.742 326.065,224.438 324.653,223.861 C322.531,222.998 320.188,221.533 318.201,219.73 C316.211,217.929 314.585,215.787 313.819,213.624 L312.963,213.929" id="Fill-277" fill="#1D1209"></path>
            <path d="M323.009,209.914 C322.779,209.692 322.55,209.486 322.342,209.282 C321.971,208.943 321.658,208.607 321.335,208.356 C321.022,208.096 320.75,207.869 320.525,207.683 C320.404,207.582 320.296,207.492 320.204,207.416 C317.493,204.891 314.91,203.048 313.355,202.022 C314.412,202.057 315.925,202.135 317.535,202.313 C318.904,202.463 320.344,202.687 321.62,203.008 C322.632,203.26 323.542,203.583 324.215,203.947 C324.004,204.644 323.807,205.33 323.635,205.977 C323.288,207.296 323.038,208.412 323.009,209.247 C323.006,209.352 323.003,209.463 323.003,209.579 C323.004,209.69 323.006,209.802 323.009,209.914" id="Fill-278" fill="#4E6F36"></path>
            <path d="M324.215,203.947 C323.542,203.583 322.632,203.26 321.62,203.008 C320.344,202.687 318.904,202.463 317.535,202.313 C315.925,202.135 314.412,202.057 313.355,202.022 C312.425,201.408 311.863,201.087 311.863,201.087 C311.863,201.087 312.082,201.082 312.467,201.082 C314.5,201.082 321.146,201.224 324.504,203.004 C324.406,203.318 324.309,203.634 324.215,203.947" id="Fill-279" fill="#130C03"></path>
            <path d="M329.725,225.112 C329.721,225.092 329.699,224.822 329.605,224.268 C329.503,223.721 329.354,222.93 329.084,221.995 C328.824,221.06 328.471,219.975 328.004,218.844 C327.779,218.274 327.523,217.695 327.24,217.116 C326.979,216.525 326.65,215.957 326.345,215.376 C325.709,214.226 324.988,213.122 324.27,212.114 C323.911,211.609 323.525,211.15 323.18,210.698 C322.842,210.239 322.463,209.857 322.138,209.479 C321.801,209.114 321.518,208.752 321.22,208.478 C320.932,208.194 320.68,207.946 320.473,207.741 C320.059,207.331 319.821,207.097 319.821,207.097 C319.821,207.097 320.077,207.31 320.525,207.683 C320.75,207.869 321.022,208.096 321.335,208.356 C321.658,208.607 321.971,208.943 322.342,209.282 C322.699,209.632 323.116,209.987 323.496,210.419 C323.884,210.844 324.314,211.277 324.721,211.756 C325.537,212.716 326.367,213.779 327.119,214.901 C327.483,215.469 327.871,216.025 328.192,216.61 C328.536,217.181 328.852,217.757 329.135,218.327 C329.719,219.459 330.186,220.56 330.543,221.521 C330.91,222.48 331.145,223.311 331.306,223.898 C331.458,224.482 331.527,224.871 331.523,224.852 L329.725,225.112" id="Fill-280" fill="#1D1209"></path>
            <path d="M327.758,222.665 C327.758,222.665 317.907,217.707 316.594,216.362 C313.715,213.409 313.767933,204.138 313.767933,204.138 C313.767933,204.138 315.842,209.834 318.677,214.242 C320.412,216.939 327.758,222.665 327.758,222.665" id="Fill-281" fill="#B4BE69"></path>
            <path d="M323.918,209.274 C323.696,217.272 332.285,227.342 336.395,225.961 C340.252,224.665 341.678,207.804 339.109,203.968 C336.715,200.394 327.529,196.903 327.529,196.903 C327.529,196.903 323.992,206.596 323.918,209.274" id="Fill-282" fill="#859D49"></path>
            <path d="M323.918,209.274 L323.009,209.247 C323.006,209.352 323.003,209.463 323.003,209.579 C323.015,213.601 324.949,217.848 327.411,221.168 C328.647,222.826 330.021,224.25 331.404,225.284 C332.79,226.31 334.179,226.986 335.571,226.998 C335.948,226.998 336.323,226.943 336.682,226.824 C337.182,226.655 337.598,226.345 337.954,225.969 C338.574,225.306 339.046,224.422 339.459,223.374 C340.677,220.24 341.308,215.558 341.313,211.408 C341.313,209.746 341.209,208.174 340.985,206.818 C340.755,205.459 340.431,204.322 339.865,203.463 C339.152,202.407 338.055,201.478 336.807,200.609 C334.936,199.314 332.711,198.186 330.942,197.37 C329.174,196.556 327.866,196.059 327.852,196.053 L326.99,195.726 L326.675,196.591 C326.673,196.598 325.786,199.028 324.886,201.804 C324.437,203.193 323.983,204.667 323.635,205.977 C323.288,207.297 323.038,208.413 323.009,209.248 L323.918,209.274 L324.827,209.299 C324.835,208.796 325.055,207.696 325.392,206.445 C325.895,204.553 326.645,202.237 327.267,200.403 C327.578,199.485 327.857,198.687 328.059,198.119 C328.26,197.551 328.383,197.216 328.383,197.215 L327.529,196.903 L327.206,197.753 L327.303,197.79 C327.793,197.981 330.077,198.891 332.489,200.153 C333.695,200.784 334.933,201.503 335.984,202.253 C337.037,202.999 337.899,203.788 338.354,204.474 C338.672,204.936 338.995,205.895 339.191,207.115 C339.394,208.336 339.496,209.823 339.496,211.408 C339.497,214.421 339.129,217.796 338.465,220.461 C338.135,221.793 337.727,222.947 337.286,223.767 C337.067,224.177 336.84,224.501 336.631,224.721 C336.421,224.944 336.239,225.055 336.105,225.099 C335.949,225.151 335.775,225.179 335.571,225.18 C334.828,225.192 333.693,224.734 332.492,223.827 C330.684,222.48 328.73,220.209 327.266,217.625 C325.795,215.041 324.817,212.144 324.821,209.579 C324.821,209.492 324.824,209.398 324.827,209.3 L323.918,209.274" id="Fill-283" fill="#1D1209"></path>
            <path d="M336.638,224.714 C337.167,221.497 336.954,218.269 336.315,215.208 C336.911,216.879 337.698,218.486 338.59,219.937 C338.549,220.115 338.508,220.289 338.465,220.461 C338.135,221.793 337.727,222.947 337.286,223.767 C337.069,224.172 336.845,224.494 336.638,224.714" id="Fill-284" fill="#4E6F36"></path>
            <path d="M336.395,225.961 C336.489,225.546 336.569,225.13 336.638,224.714 C336.845,224.494 337.069,224.172 337.286,223.767 C337.727,222.947 338.135,221.793 338.465,220.461 C338.508,220.289 338.549,220.115 338.59,219.937 C338.689,220.1 338.79,220.26 338.893,220.419 C338.344,222.411 337.543,224.317 336.395,225.961" id="Fill-285" fill="#130C03"></path>
            <path d="M335.378,211.667 C333.455,205.636 330.238,200.642 328.583,198.314 C329.581,198.739 331.011,199.38 332.489,200.153 C333.695,200.784 334.933,201.503 335.984,202.253 C336.246,202.438 336.495,202.626 336.729,202.814 C336.545,203.267 336.369,203.711 336.208,204.138 C335.727,205.414 335.363,206.499 335.249,207.327 L336.15,207.446 L335.249,207.327 C335.177,207.873 335.143,208.43 335.143,208.992 C335.144,209.875 335.227,210.77 335.378,211.667" id="Fill-286" fill="#4E6F36"></path>
            <path d="M336.729,202.814 C336.495,202.626 336.246,202.438 335.984,202.253 C334.933,201.503 333.695,200.784 332.489,200.153 C331.011,199.38 329.581,198.739 328.583,198.314 C327.937,197.406 327.529,196.903 327.529,196.903 C327.529,196.903 333.557,199.079 337.124,201.864 C336.989,202.183 336.857,202.501 336.729,202.814" id="Fill-287" fill="#130C03"></path>
            <path d="M335.508,225.758 C335.512,225.739 335.59,225.479 335.702,224.928 C335.805,224.381 335.95,223.589 336.037,222.62 C336.132,221.655 336.194,220.515 336.168,219.291 C336.164,218.679 336.135,218.046 336.079,217.404 C336.049,216.759 335.947,216.112 335.873,215.458 C335.694,214.157 335.422,212.866 335.116,211.666 C334.964,211.067 334.771,210.499 334.611,209.953 C334.461,209.403 334.246,208.909 334.08,208.44 C333.897,207.978 333.764,207.537 333.586,207.175 C333.42,206.805 333.275,206.483 333.156,206.218 C332.917,205.686 332.78,205.382 332.78,205.382 C332.78,205.382 332.941,205.673 333.225,206.182 C333.367,206.438 333.539,206.747 333.736,207.103 C333.947,207.453 334.118,207.88 334.341,208.329 C334.549,208.785 334.809,209.267 335.007,209.807 C335.215,210.344 335.459,210.902 335.666,211.497 C336.08,212.686 336.471,213.977 336.767,215.295 C336.9,215.956 337.063,216.615 337.15,217.276 C337.264,217.933 337.351,218.584 337.408,219.218 C337.545,220.485 337.582,221.679 337.568,222.705 C337.564,223.732 337.482,224.591 337.422,225.197 C337.353,225.796 337.276,226.184 337.281,226.164 L335.508,225.758" id="Fill-288" fill="#1D1209"></path>
            <path d="M334.557,222.764 C334.557,222.764 327.164,214.584 326.425,212.854 C324.807,209.064 328.203,200.436 328.203,200.436 C328.203,200.436 328.08,206.497 329.131,211.631 C329.775,214.773 334.557,222.764 334.557,222.764" id="Fill-289" fill="#B4BE69"></path>
            <path d="M336.15,207.446 C335.11,215.378 342.62,226.277 346.85,225.324 C350.818,224.431 353.967,207.804 351.805,203.725 C349.791,199.926 341.012,195.51 341.012,195.51 C341.012,195.51 336.5,204.79 336.15,207.446" id="Fill-290" fill="#859D49"></path>
            <path d="M336.15,207.446 L335.249,207.327 C335.177,207.873 335.143,208.43 335.143,208.992 C335.151,212.939 336.777,217.152 338.914,220.452 C339.987,222.101 341.19,223.52 342.432,224.558 C343.675,225.586 344.959,226.279 346.309,226.292 C346.557,226.292 346.805,226.266 347.046,226.212 L347.049,226.211 C347.656,226.073 348.166,225.73 348.61,225.298 C349.386,224.535 350.018,223.456 350.593,222.162 C352.295,218.288 353.409,212.434 353.416,208.061 C353.416,207.092 353.361,206.195 353.236,205.397 C353.109,204.597 352.921,203.896 352.608,203.3 C352.007,202.177 351.012,201.14 349.86,200.148 C348.132,198.668 346.035,197.318 344.359,196.325 C342.684,195.334 341.433,194.704 341.42,194.698 L340.596,194.284 L340.194,195.112 C340.191,195.118 339.06,197.445 337.88,200.114 C337.29,201.45 336.688,202.87 336.208,204.138 C335.727,205.414 335.363,206.499 335.249,207.327 L336.15,207.446 L337.051,207.564 C337.112,207.064 337.444,205.993 337.907,204.783 C338.602,202.953 339.585,200.726 340.392,198.965 C340.795,198.084 341.155,197.319 341.414,196.774 C341.673,196.229 341.829,195.908 341.829,195.907 L341.012,195.51 L340.603,196.322 L340.695,196.369 C341.163,196.609 343.342,197.749 345.612,199.252 C346.747,200.003 347.904,200.846 348.873,201.699 C349.843,202.549 350.62,203.422 351.001,204.15 C351.173,204.471 351.336,205.004 351.44,205.678 C351.545,206.351 351.599,207.163 351.599,208.061 C351.601,211.156 350.965,215.249 349.961,218.581 C349.461,220.247 348.866,221.726 348.247,222.778 C347.939,223.304 347.625,223.72 347.34,223.997 C347.055,224.277 346.812,224.403 346.649,224.437 L346.653,224.437 C346.543,224.461 346.432,224.473 346.309,224.473 C345.654,224.486 344.653,224.053 343.597,223.162 C342.007,221.84 340.313,219.589 339.056,217.022 C337.792,214.456 336.958,211.569 336.96,208.992 C336.96,208.504 336.991,208.027 337.051,207.564 L336.15,207.446" id="Fill-291" fill="#1D1209"></path>
            <path d="M347.22,224.109 C350.196,213.178 344.267,201.175 341.915,197.022 C342.865,197.547 344.221,198.331 345.612,199.252 C346.747,200.003 347.904,200.846 348.873,201.699 C349.714,202.436 350.41,203.191 350.829,203.853 C349.802,206.695 349.25,210.948 349.246,214.925 C349.246,216.638 349.35,218.293 349.58,219.761 C349.17,220.942 348.715,221.983 348.247,222.778 C347.939,223.304 347.625,223.72 347.34,223.997 C347.299,224.037 347.259,224.074 347.22,224.109" id="Fill-292" fill="#4E6F36"></path>
            <path d="M346.85,225.324 C346.986,224.921 347.109,224.515 347.22,224.109 C347.259,224.074 347.299,224.037 347.34,223.997 C347.625,223.72 347.939,223.304 348.247,222.778 C348.715,221.983 349.17,220.942 349.58,219.761 C349.621,220.024 349.667,220.282 349.716,220.532 C348.99,222.285 348.055,223.929 346.85,225.324 M350.829,203.853 C350.41,203.191 349.714,202.436 348.873,201.699 C347.904,200.846 346.747,200.003 345.612,199.252 C344.221,198.331 342.865,197.547 341.915,197.022 C341.366,196.052 341.012,195.51 341.012,195.51 C341.012,195.51 348.559,199.147 351.271,202.793 C351.122,203.103 350.983,203.436 350.852,203.79 C350.844,203.811 350.836,203.832 350.829,203.853" id="Fill-293" fill="#130C03"></path>
            <path d="M345.989,225.032 C345.995,225.012 346.098,224.762 346.268,224.225 C346.424,223.692 346.651,222.919 346.836,221.965 C347.03,221.013 347.209,219.887 347.309,218.666 C347.367,218.057 347.404,217.425 347.414,216.781 C347.45,216.135 347.416,215.481 347.408,214.824 C347.365,213.51 347.227,212.199 347.045,210.974 C346.955,210.362 346.82,209.778 346.719,209.218 C346.625,208.655 346.462,208.142 346.344,207.658 C346.211,207.18 346.123,206.728 345.982,206.349 C345.855,205.965 345.744,205.629 345.652,205.353 C345.47,204.8 345.365,204.484 345.365,204.484 C345.365,204.484 345.496,204.79 345.727,205.325 C345.841,205.594 345.98,205.92 346.141,206.293 C346.314,206.663 346.439,207.105 346.615,207.575 C346.775,208.05 346.984,208.555 347.127,209.114 C347.278,209.668 347.465,210.249 347.609,210.862 C347.898,212.087 348.154,213.411 348.314,214.753 C348.38,215.424 348.473,216.096 348.492,216.762 C348.539,217.428 348.558,218.084 348.55,218.721 C348.555,219.995 348.47,221.187 348.352,222.206 C348.242,223.227 348.072,224.073 347.949,224.669 C347.82,225.258 347.704,225.637 347.71,225.617 L345.989,225.032" id="Fill-294" fill="#1D1209"></path>
            <path d="M345.352,221.955 C345.352,221.955 338.835,213.06 338.278,211.265 C337.057,207.328 341.32,199.094 341.32,199.094 C341.32,199.094 340.574,205.111 341.096,210.325 C341.413,213.516 345.352,221.955 345.352,221.955" id="Fill-295" fill="#B4BE69"></path>
            <path d="M380.379,213.929 C377.697,221.465 366.051,227.753 362.717,224.982 C359.589,222.381 364.35,206.141 368.129,203.494 C371.652,201.025 381.48,201.086858 381.48,201.086858 C381.48,201.086858 381.276,211.404 380.379,213.929" id="Fill-296" fill="#859D49"></path>
            <path d="M380.379,213.929 L379.522,213.624 C378.505,216.51 375.941,219.349 373.056,221.411 C371.616,222.443 370.102,223.285 368.687,223.861 C367.275,224.438 365.957,224.742 364.962,224.739 C364.17,224.74 363.619,224.554 363.298,224.283 C363.147,224.162 362.953,223.869 362.82,223.368 C362.684,222.873 362.61,222.199 362.61,221.414 C362.605,218.733 363.459,214.81 364.677,211.382 C365.283,209.665 365.98,208.064 366.686,206.795 C367.384,205.526 368.127,204.593 368.65,204.239 C369.332,203.756 370.445,203.326 371.72,203.008 C375.561,202.036 380.805,201.992 381.413,201.996 L381.47,201.996 L381.48,201.087 L380.57,201.069 C380.57,201.071 380.558,201.707 380.525,202.709 C380.476,204.211 380.38,206.525 380.215,208.686 C380.132,209.766 380.032,210.809 379.913,211.683 C379.796,212.553 379.649,213.274 379.522,213.624 L380.379,213.929 L381.235,214.233 C381.376,213.832 381.482,213.361 381.579,212.808 C381.913,210.888 382.109,207.991 382.23,205.539 C382.349,203.092 382.388,201.111 382.388,201.105 L382.406,200.187 L381.489,200.178 L381.413,200.178 C380.962,200.178 378.455,200.192 375.606,200.505 C374.182,200.663 372.671,200.894 371.277,201.245 C369.881,201.599 368.602,202.057 367.607,202.75 C366.669,203.419 365.879,204.522 365.098,205.912 C363.94,207.996 362.877,210.737 362.09,213.526 C361.305,216.316 360.795,219.136 360.793,221.414 C360.793,222.309 360.871,223.124 361.065,223.844 C361.261,224.559 361.575,225.21 362.136,225.681 C362.91,226.321 363.908,226.557 364.962,226.558 C366.306,226.555 367.806,226.181 369.373,225.545 C371.72,224.587 374.21,223.025 376.361,221.077 C378.508,219.127 380.321,216.792 381.235,214.233 L380.379,213.929" id="Fill-297" fill="#1D1209"></path>
            <path d="M362.94,223.732 C362.897,223.626 362.856,223.505 362.82,223.368 C362.684,222.873 362.61,222.199 362.61,221.414 C362.61,220.987 362.631,220.529 362.671,220.047 C363.311,219.349 363.923,218.603 364.493,217.821 C366.339,215.28 367.745,212.36 368.064,209.431 L368.064,209.426 C368.085,209.224 368.094,209.005 368.094,208.766 C368.093,207.858 367.966,206.666 367.782,205.348 C367.772,205.282 367.763,205.215 367.753,205.149 C368.084,204.725 368.393,204.412 368.65,204.239 C369.332,203.756 370.445,203.326 371.72,203.008 C374.506,202.303 378.03,202.086 379.988,202.022 C376.005,204.65 365.263,212.642 362.94,223.732" id="Fill-298" fill="#4E6F36"></path>
            <path d="M362.717,224.982 C362.359,223.522 362.237,221.996 362.285,220.458 C362.415,220.323 362.544,220.186 362.671,220.047 C362.631,220.529 362.61,220.987 362.61,221.414 C362.61,222.199 362.684,222.873 362.82,223.368 C362.856,223.505 362.897,223.626 362.94,223.732 C362.854,224.144 362.779,224.561 362.717,224.982 M367.753,205.149 C367.696,204.75 367.633,204.341 367.567,203.929 C370.08,201.27 378.536,201.082 380.875,201.082 C381.26,201.082 381.48,201.087 381.48,201.087 C381.48,201.087 380.918,201.408 379.988,202.022 C378.03,202.086 374.506,202.303 371.72,203.008 C370.445,203.326 369.332,203.756 368.65,204.239 C368.393,204.412 368.084,204.725 367.753,205.149" id="Fill-299" fill="#130C03"></path>
            <path d="M361.816,224.852 C361.814,224.871 361.883,224.482 362.035,223.898 C362.197,223.311 362.431,222.48 362.798,221.521 C363.156,220.56 363.622,219.459 364.207,218.327 C364.489,217.757 364.805,217.181 365.148,216.61 C365.469,216.026 365.857,215.469 366.222,214.901 C366.975,213.779 367.805,212.716 368.619,211.757 C369.027,211.277 369.457,210.845 369.845,210.419 C370.225,209.987 370.642,209.632 371,209.282 C371.369,208.943 371.683,208.607 372.006,208.356 C372.318,208.096 372.591,207.869 372.815,207.683 C373.264,207.31 373.52,207.097 373.52,207.097 C373.52,207.097 373.283,207.331 372.867,207.741 C372.66,207.946 372.41,208.194 372.121,208.478 C371.824,208.752 371.54,209.114 371.203,209.48 C370.879,209.857 370.5,210.239 370.16,210.698 C369.814,211.15 369.43,211.609 369.07,212.114 C368.353,213.122 367.633,214.226 366.996,215.376 C366.691,215.958 366.361,216.525 366.102,217.116 C365.816,217.695 365.561,218.274 365.337,218.844 C364.87,219.976 364.518,221.061 364.256,221.995 C363.987,222.93 363.838,223.721 363.736,224.268 C363.643,224.823 363.619,225.092 363.617,225.112 L361.816,224.852" id="Fill-300" fill="#1D1209"></path>
            <path d="M365.584,222.665 C365.584,222.665 372.93,216.939 374.666,214.242 C377.5,209.834 379.57406,204.138 379.57406,204.138 C379.57406,204.138 379.625,213.409 376.747,216.362 C375.436,217.707 365.584,222.665 365.584,222.665" id="Fill-301" fill="#B4BE69"></path>
            <path d="M367.16,209.334 C366.307,217.287 356.443,226.114 352.558,224.195 C348.91,222.392 349.758,205.492 352.82,202.036 C355.673,198.816 365.242,196.589 365.242,196.589 C365.242,196.589 367.447,206.669 367.16,209.334" id="Fill-302" fill="#859D49"></path>
            <path d="M367.16,209.334 L366.256,209.237 C365.914,212.538 363.782,216.207 361.183,218.978 C359.888,220.366 358.482,221.533 357.168,222.334 C355.859,223.142 354.633,223.559 353.8,223.551 C353.452,223.551 353.178,223.487 352.96,223.38 C352.784,223.297 352.523,223.052 352.275,222.587 C351.898,221.898 351.576,220.783 351.372,219.448 C351.165,218.11 351.063,216.549 351.063,214.925 C351.063,212.374 351.312,209.665 351.758,207.4 C351.98,206.267 352.252,205.245 352.558,204.419 C352.859,203.594 353.206,202.965 353.5,202.64 C354.079,201.979 355.133,201.267 356.377,200.637 C358.244,199.684 360.527,198.884 362.33,198.333 C363.232,198.057 364.015,197.841 364.571,197.695 C364.849,197.622 365.07,197.567 365.221,197.53 C365.371,197.492 365.448,197.475 365.448,197.475 L365.242,196.589 L364.354,196.783 C364.354,196.785 364.474,197.332 364.655,198.212 C364.927,199.532 365.335,201.59 365.674,203.616 C366.013,205.635 366.279,207.652 366.276,208.766 C366.276,208.955 366.268,209.117 366.255,209.242 L366.256,209.237 L367.16,209.334 L368.064,209.426 C368.085,209.224 368.094,209.005 368.094,208.766 C368.093,207.858 367.966,206.666 367.782,205.348 C367.228,201.407 366.132,196.406 366.13,196.395 L365.933,195.494 L365.036,195.704 C365.017,195.708 362.601,196.27 359.801,197.247 C358.4,197.736 356.904,198.328 355.552,199.017 C354.199,199.71 352.987,200.484 352.14,201.434 C351.605,202.042 351.205,202.84 350.852,203.79 C349.81,206.631 349.25,210.918 349.246,214.925 C349.247,217.191 349.428,219.355 349.843,221.119 C350.052,222.003 350.317,222.788 350.675,223.452 C351.034,224.111 351.494,224.678 352.155,225.01 C352.666,225.263 353.229,225.37 353.8,225.369 C355.176,225.361 356.628,224.789 358.117,223.886 C360.343,222.522 362.641,220.361 364.493,217.821 C366.339,215.28 367.745,212.36 368.064,209.431 L368.064,209.426 L367.16,209.334" id="Fill-303" fill="#1D1209"></path>
            <path d="M352.484,222.927 C352.415,222.83 352.344,222.717 352.275,222.587 C351.898,221.898 351.576,220.783 351.372,219.448 C351.165,218.11 351.063,216.549 351.063,214.925 C351.063,212.374 351.312,209.665 351.758,207.4 C351.98,206.267 352.252,205.245 352.558,204.419 C352.859,203.594 353.206,202.965 353.5,202.64 C354.079,201.979 355.133,201.267 356.377,200.637 C358.244,199.684 360.527,198.884 362.33,198.333 C362.96,198.14 363.532,197.977 364.009,197.846 C360.747,201.33 352.162,211.603 352.484,222.927" id="Fill-304" fill="#4E6F36"></path>
            <path d="M352.558,224.195 C349.049,217.371 351.092,207.451 352.074,203.33 C353.057,199.209 365.242,196.589 365.242,196.589 C365.242,196.589 364.771,197.032 364.009,197.846 C363.532,197.977 362.96,198.14 362.33,198.333 C360.527,198.884 358.244,199.684 356.377,200.637 C355.133,201.267 354.079,201.979 353.5,202.64 C353.206,202.965 352.859,203.594 352.558,204.419 C352.252,205.245 351.98,206.267 351.758,207.4 C351.312,209.665 351.063,212.374 351.063,214.925 C351.063,216.549 351.165,218.11 351.372,219.448 C351.576,220.783 351.898,221.898 352.275,222.587 C352.344,222.717 352.415,222.83 352.484,222.927 C352.496,223.348 352.52,223.77 352.558,224.195" id="Fill-305" fill="#130C03"></path>
            <path d="M351.652,224.278 C351.654,224.297 351.631,223.903 351.643,223.299 C351.664,222.691 351.697,221.827 351.831,220.81 C351.957,219.791 352.153,218.614 352.459,217.376 C352.602,216.756 352.773,216.122 352.975,215.486 C353.151,214.843 353.399,214.212 353.621,213.574 C354.092,212.308 354.652,211.081 355.222,209.958 C355.506,209.397 355.824,208.876 356.102,208.372 C356.371,207.864 356.693,207.422 356.96,206.997 C357.241,206.582 357.467,206.182 357.723,205.864 C357.967,205.537 358.18,205.253 358.354,205.02 C358.703,204.553 358.902,204.286 358.902,204.286 C358.902,204.286 358.727,204.569 358.418,205.064 C358.265,205.311 358.078,205.611 357.864,205.954 C357.639,206.29 357.447,206.709 357.205,207.142 C356.977,207.585 356.697,208.045 356.475,208.57 C356.243,209.091 355.976,209.627 355.744,210.2 C355.279,211.349 354.836,212.59 354.485,213.857 C354.323,214.493 354.136,215.121 354.02,215.757 C353.878,216.386 353.764,217.009 353.678,217.616 C353.487,218.824 353.396,219.962 353.36,220.932 C353.316,221.904 353.355,222.707 353.383,223.263 C353.42,223.824 353.461,224.092 353.463,224.112 L351.652,224.278" id="Fill-306" fill="#1D1209"></path>
            <path d="M354.808,221.273 C354.808,221.273 360.619,213.995 361.677,210.969 C363.411,206.023 364.102,200 364.102,200 C364.102,200 366.309,209.006 364.195,212.544 C363.232,214.159 354.808,221.273 354.808,221.273" id="Fill-307" fill="#B4BE69"></path>
            <path d="M324.185,237.45 L334.821,242.143 L335.296,241.068 L335.345,239.893 C335.33,239.892 335.252,239.889 335.121,239.889 C334.542,239.89 332.896,239.94 330.81,240.478 C328.726,241.015 326.19,242.044 323.892,244.027 C323.399,244.451 323.345,245.194 323.77,245.686 C324.194,246.178 324.937,246.232 325.429,245.808 C327.377,244.124 329.566,243.227 331.397,242.755 C333.226,242.283 334.686,242.241 335.121,242.241 L335.226,242.242 L335.247,242.243 L335.248,242.203 L335.246,242.243 L335.247,242.243 L335.248,242.203 L335.246,242.243 C335.81,242.266 336.313,241.884 336.441,241.334 C336.569,240.785 336.287,240.22 335.771,239.992 L325.135,235.298 C324.541,235.036 323.846,235.305 323.584,235.9 C323.322,236.494 323.591,237.188 324.186,237.45" id="Fill-308" fill="#1D1209"></path>
            <path d="M368.416,235.298 L357.781,239.992 C357.264,240.22 356.982,240.785 357.11,241.334 C357.238,241.884 357.741,242.266 358.305,242.243 L358.303,242.201 L358.305,242.243 L358.303,242.201 L358.305,242.243 L358.43,242.241 C358.864,242.241 360.324,242.283 362.152,242.755 C363.983,243.227 366.172,244.124 368.122,245.808 C368.613,246.232 369.356,246.177 369.781,245.686 C370.205,245.194 370.15,244.451 369.659,244.027 C367.359,242.044 364.824,241.015 362.74,240.478 C360.653,239.94 359.008,239.89 358.43,239.889 C358.298,239.889 358.221,239.892 358.206,239.893 L358.256,241.068 L358.73,242.143 L369.365,237.45 C369.959,237.188 370.229,236.494 369.966,235.9 C369.704,235.305 369.01,235.036 368.416,235.298" id="Fill-309" fill="#1D1209"></path>
            <path d="M336.23,249.725 C336.23,250.978 334.072,251.996 331.41,251.996 C328.749,251.996 326.592,250.978 326.592,249.725 C326.592,248.47 328.749,247.452 331.41,247.452 C334.072,247.452 336.23,248.47 336.23,249.725" id="Fill-310" fill="#EE9E80"></path>
            <path d="M369.441,249.725 C369.441,250.978 367.283,251.996 364.621,251.996 C361.961,251.996 359.801,250.978 359.801,249.725 C359.801,248.47 361.961,247.452 364.621,247.452 C367.283,247.452 369.441,248.47 369.441,249.725" id="Fill-311" fill="#EE9E80"></path>
            <path d="M339.836,247.747 C339.836,250.253 342.139,255.014 347.613,255.014 C353.086,255.014 355.388,250.253 355.388,247.747 L339.836,247.747" id="Fill-312" fill="#DF5332"></path>
            <path d="M339.836,247.747 L338.765,247.747 C338.767,248.536 338.938,249.411 339.279,250.318 C339.792,251.673 340.694,253.098 342.076,254.21 C343.453,255.322 345.326,256.089 347.613,256.085 C349.136,256.086 350.479,255.75 351.61,255.191 C353.31,254.353 354.519,253.037 355.298,251.682 C356.078,250.319 356.453,248.926 356.458,247.747 C356.458,247.461 356.347,247.193 356.145,246.99 C355.942,246.788 355.673,246.677 355.388,246.677 L339.836,246.677 C339.554,246.677 339.278,246.791 339.079,246.99 C338.879,247.189 338.765,247.465 338.765,247.747 L339.836,247.747 L339.836,248.818 L355.388,248.818 L355.388,247.747 L354.317,247.747 C354.318,248.212 354.203,248.871 353.94,249.562 C353.549,250.603 352.839,251.714 351.807,252.541 C350.771,253.367 349.431,253.939 347.613,253.943 C346.399,253.942 345.401,253.683 344.562,253.27 C343.305,252.652 342.387,251.666 341.781,250.613 C341.173,249.569 340.901,248.448 340.906,247.747 L339.836,247.747 L339.836,248.818 L339.836,247.747" id="Fill-313" fill="#1D1209"></path>
            <path d="M354.175,251.451 C354.999,250.157 355.388,248.768 355.388,247.747 L339.836,247.747 C339.836,248.768 340.225,250.157 341.049,251.451 L354.175,251.451" id="Fill-314" fill="#FFFFFE"></path>
            <path d="M354.175,251.451 L355.078,252.027 C356.003,250.562 356.451,249.03 356.458,247.747 C356.458,247.461 356.347,247.193 356.145,246.99 C355.942,246.788 355.673,246.677 355.388,246.677 L339.836,246.677 C339.554,246.677 339.278,246.791 339.079,246.99 C338.879,247.189 338.765,247.465 338.765,247.747 C338.772,249.03 339.22,250.562 340.146,252.027 C340.341,252.335 340.684,252.522 341.049,252.522 L354.175,252.522 C354.54,252.522 354.881,252.334 355.078,252.027 L354.175,251.451 L354.175,250.381 L341.049,250.381 L341.049,251.451 L341.952,250.876 C341.229,249.753 340.899,248.505 340.906,247.747 L339.836,247.747 L339.836,248.818 L355.388,248.818 L355.388,247.747 L354.317,247.747 C354.324,248.505 353.995,249.753 353.271,250.876 L354.175,251.451 L354.175,250.381 L354.175,251.451" id="Fill-315" fill="#1D1209"></path>
        </g>
    </g>
</svg>
