<?xml version="1.0" encoding="utf-8"?>
<!-- Generator: Adobe Illustrator 16.0.0, SVG Export Plug-In . SVG Version: 6.00 Build 0)  -->
<!DOCTYPE svg PUBLIC "-//W3C//DTD SVG 1.1//EN" "http://www.w3.org/Graphics/SVG/1.1/DTD/svg11.dtd">
<svg class="plant-index" viewBox="0 0 275.986 355.482" enable-background="new 0 0 275.986 355.482"
	 xml:space="preserve">
<path fill="#8D8B6E" d="M120.457,327.849c0,2.984,17.758,5.404,39.67,5.404s39.67-2.42,39.67-5.404s-17.758-5.403-39.67-5.403
	S120.457,324.865,120.457,327.849z"/>
<g>
	<g>
		<g>
			<path fill="#9BAA9E" d="M131.479,214.345"/>
			<path fill="#9BAA9E" d="M145.871,205.455"/>
		</g>
		<g>
			<path fill="#9B5EAB" stroke="#140906" stroke-width="2.5775" stroke-linejoin="round" stroke-miterlimit="10" d="M89.654,223.631
				c0,27.364,12.704,81.183,45.451,99.137c0,2.807,11.327,5.081,25.304,5.081c13.98,0,25.312-2.274,25.312-5.081
				c36.249-17.954,43.364-71.772,43.364-99.137H89.654z"/>
			<path fill="#A694AC" d="M135.104,322.768c0,0,4.695,5.081,25.304,5.081c20.61,0,25.233-5.081,25.233-5.081
				c4.066-2.015,7.775-4.47,11.145-7.299c-22.666,4.671-44.823-0.505-56.57-9.18c-13.876-10.254-22.177-31.27-23.82-51.071
				c25.397,2.109,40.901-5.248,40.901-5.248s-28.644,0.525-41.142-4.999c0.305-7.995,1.819-15.405,4.627-21.34H89.654
				C89.654,250.996,102.358,304.814,135.104,322.768z"/>
			<path fill="#FFFFFF" d="M221.166,237.355c0,0-2.894,56.503-27.866,68.935c-5.056-2.077,3.486-11.905,7.734-26.152
				c3.225-10.806,6.854-30.025,6.854-30.025l-41.916-8.29L221.166,237.355z"/>

				<ellipse fill="#9B5EAB" stroke="#140906" stroke-width="2.5775" stroke-linejoin="round" stroke-miterlimit="10" cx="159.365" cy="222.195" rx="69.712" ry="13.996"/>
			<g>
				<path fill="#4D1F03" stroke="#140906" stroke-width="2.5775" stroke-linejoin="round" stroke-miterlimit="10" d="
					M223.143,227.847c-10.82-4.913-35.295-8.344-63.775-8.344c-28.482,0-52.958,3.431-63.777,8.344
					c10.819,4.912,35.295,8.344,63.777,8.344C187.848,236.191,212.322,232.759,223.143,227.847z"/>
			</g>
		</g>
		<g>
			<path fill="#BCC5AB" d="M112.581,204.486"/>
		</g>
		<g>
			<path fill="#60B522" stroke="#140906" stroke-width="1.7183" stroke-linejoin="round" stroke-miterlimit="10" d="
				M109.728,227.894"/>
			<path fill="#60B522" stroke="#140906" stroke-width="1.7183" stroke-linejoin="round" stroke-miterlimit="10" d="
				M133.646,222.636"/>
			<path fill="#BCC5AB" d="M123.201,204.171"/>
			<path fill="#BCC5AB" d="M106.997,215.05"/>
		</g>
		<g>
			<path fill="#60B522" stroke="#140906" stroke-width="1.7183" stroke-linejoin="round" stroke-miterlimit="10" d="
				M153.267,224.459"/>
			<path fill="#60B522" stroke="#140906" stroke-width="1.7183" stroke-linejoin="round" stroke-miterlimit="10" d="
				M128.997,227.706"/>
			<path fill="#BCC5AB" d="M132.494,206.783"/>
			<path fill="#BCC5AB" d="M151.441,211.457"/>
		</g>
		<g>
			<path fill="#60B522" stroke="#140906" stroke-width="1.7183" stroke-linejoin="round" stroke-miterlimit="10" d="
				M189.976,218.558"/>
			<path fill="#60B522" stroke="#140906" stroke-width="1.7183" stroke-linejoin="round" stroke-miterlimit="10" d="
				M166.804,226.468"/>
			<path fill="#BCC5AB" d="M166.158,205.265"/>
			<path fill="#BCC5AB" d="M185.652,206.159"/>
		</g>
		<g>
			<path fill="#9BAA9E" d="M155.068,207.621"/>
			<path fill="#9BAA9E" d="M163.628,229.598"/>
			<path fill="#9BAA9E" d="M147.432,224.714"/>
			<path fill="#BCC5AB" d="M166.89,205.597"/>
			<path fill="#BCC5AB" d="M148.328,211.614"/>
		</g>
	</g>
	<g>
		<g>
			<path fill="#140906" d="M211.239,271.683c0,7.635-6.194,13.825-13.827,13.825c-7.638,0-13.827-6.19-13.827-13.825
				c0-7.638,6.189-13.828,13.827-13.828C205.045,257.855,211.239,264.045,211.239,271.683z"/>
			<circle fill="#FFFFFF" cx="192.452" cy="267.019" r="4.72"/>
			<circle fill="#FFFFFF" cx="199.439" cy="273.149" r="2.818"/>
		</g>
		<ellipse fill="#FC936F" cx="130.649" cy="291.874" rx="8.835" ry="4.165"/>
		<ellipse fill="#FC936F" cx="197.412" cy="291.874" rx="8.834" ry="4.165"/>

			<line fill="none" stroke="#140906" stroke-width="2.1386" stroke-linecap="round" stroke-linejoin="round" stroke-miterlimit="10" x1="197.923" y1="248.685" x2="213.322" y2="257.855"/>
		<g>
			<path fill="#140906" d="M114.9,271.683c0,7.635,6.193,13.825,13.826,13.825c7.637,0,13.826-6.19,13.826-13.825
				c0-7.638-6.189-13.828-13.826-13.828C121.094,257.855,114.9,264.045,114.9,271.683z"/>
			<circle fill="#FFFFFF" cx="133.688" cy="267.019" r="4.721"/>
			<circle fill="#FFFFFF" cx="126.7" cy="273.149" r="2.816"/>
		</g>

			<line fill="none" stroke="#140906" stroke-width="2.1386" stroke-linecap="round" stroke-linejoin="round" stroke-miterlimit="10" x1="128.217" y1="248.685" x2="112.818" y2="257.855"/>

			<path fill="#FE320F" stroke="#140906" stroke-width="2.1386" stroke-linecap="round" stroke-linejoin="round" stroke-miterlimit="10" d="
			M168.202,292.747c0,3.158-2.557,5.716-5.718,5.716l0,0c-3.158,0-5.718-2.558-5.718-5.716v-8.196c0-3.157,2.56-5.718,5.718-5.718
			l0,0c3.161,0,5.718,2.561,5.718,5.718V292.747z"/>
	</g>
</g>
<g>
	<g>
		<path fill="#4F7117" d="M157.21,202.693c-15.84-41.113-82.595-45.414-92.322-1.975C95.818,201.879,128.843,172.561,157.21,202.693
			z"/>
		<path fill="#435C16" d="M139.489,192.077c-4.185-2.529-8.567-4.465-12.978-5.745c-4.404-1.331-8.855-1.815-13.076-1.936
			c-0.53-0.009-1.055-0.015-1.579-0.024c-0.522-0.012-1.043-0.021-1.558,0.021c-1.03,0.059-2.048,0.115-3.051,0.171
			c-1.003,0.053-1.984,0.223-2.954,0.326c-0.969,0.119-1.926,0.21-2.853,0.406c-0.932,0.17-1.846,0.335-2.745,0.499
			c-0.9,0.152-1.766,0.402-2.625,0.592c-0.854,0.207-1.698,0.387-2.512,0.606c-0.813,0.234-1.606,0.46-2.383,0.685
			c-6.196,1.823-11.07,3.786-14.435,5.134c-3.349,1.386-5.215,2.143-5.285,1.999c-0.061-0.121,1.683-1.131,4.946-2.758
			c3.277-1.589,8.098-3.78,14.332-5.819c0.78-0.246,1.579-0.502,2.398-0.762c0.823-0.243,1.676-0.451,2.542-0.686
			c0.872-0.214,1.747-0.488,2.661-0.664c0.917-0.187,1.847-0.379,2.798-0.57c0.941-0.217,1.923-0.335,2.917-0.476
			c0.994-0.122,1.998-0.314,3.03-0.384c1.033-0.073,2.082-0.149,3.146-0.227c0.53-0.051,1.067-0.051,1.605-0.045
			c0.543,0.004,1.086,0.004,1.635,0.004c4.37,0.063,9.012,0.526,13.614,1.886c4.609,1.305,9.189,3.311,13.539,5.935L139.489,192.077
			z"/>
		<path fill="#405715" d="M155.606,206.179c-12.069-15.602-35.581-16.077-64.269-9.716c30.117-11.211,54.235-12.652,65.872,6.229
			L155.606,206.179z"/>
	</g>
	<g>
		<path fill="#67881A" d="M158.393,212.205c-15.569-43.841-67.935-76.032-86.652-55.915c26.947,41.558,62.888,38.711,85.356,58.163
			L158.393,212.205z"/>
		<path fill="#4F7117" d="M157.691,210.008c-5.157-4.725-9.948-9.647-14.636-14.351c-4.679-4.708-9.232-9.229-13.74-13.37
			c-8.979-8.297-17.824-15.078-26.09-19.382c-8.232-4.361-15.729-6.179-20.909-6.456c-0.649-0.039-1.258-0.075-1.834-0.109
			c-0.573,0.009-1.112,0.016-1.612,0.021c-0.497,0.013-0.958,0.021-1.377,0.033c-0.421,0.021-0.798,0.077-1.138,0.11
			c-1.356,0.155-2.057,0.273-2.05,0.354c0.008,0.082,0.725,0.118,2.069,0.115c0.338,0.006,0.712-0.013,1.127,0.003
			c0.415,0.021,0.87,0.049,1.357,0.077c0.491,0.027,1.018,0.055,1.582,0.088c0.56,0.064,1.155,0.137,1.789,0.214
			c5.048,0.545,12.256,2.551,20.21,7.001c7.989,4.396,16.584,11.194,25.407,19.509c4.429,4.152,8.925,8.682,13.579,13.408
			c4.66,4.721,9.448,9.674,14.685,14.472L157.691,210.008z"/>
	</g>
	<g>
		<path fill="#4F7117" d="M156.686,212.227c-24.676-19.389-63.308-16.239-64.948,3.633c22.924,2.454,52.854-7.882,65.164-1.752
			L156.686,212.227z"/>
		<path fill="#405715" d="M156.686,212.227c-24.676-19.389-63.308-16.239-64.948,3.633c19.644-19.781,52.854-7.882,65.164-1.752
			L156.686,212.227z"/>
	</g>
	<g>
		<path fill="#67881A" d="M156.901,207.012c20.37-43.68,93.541-43.366,100.896,4.768
			C223.959,210.727,190.118,176.255,156.901,207.012z"/>
		<path fill="#4F7117" d="M177.037,196.752c4.757-2.444,9.683-4.228,14.593-5.294c4.907-1.125,9.8-1.32,14.414-1.131
			c0.579,0.031,1.151,0.061,1.725,0.092c0.57,0.024,1.137,0.055,1.697,0.14c1.122,0.14,2.229,0.281,3.316,0.415
			c1.091,0.134,2.148,0.393,3.201,0.575c1.048,0.205,2.084,0.378,3.081,0.658c1.006,0.257,1.989,0.507,2.96,0.751
			c0.971,0.234,1.896,0.572,2.819,0.844c0.917,0.29,1.822,0.549,2.696,0.851c0.869,0.313,1.717,0.624,2.549,0.923
			c6.626,2.454,11.795,4.962,15.367,6.685c3.551,1.768,5.531,2.73,5.617,2.581c0.073-0.13-1.752-1.358-5.19-3.38
			c-3.46-1.978-8.556-4.732-15.203-7.425c-0.835-0.328-1.688-0.668-2.561-1.012c-0.881-0.328-1.798-0.619-2.725-0.938
			c-0.933-0.299-1.869-0.664-2.855-0.927c-0.984-0.271-1.987-0.549-3.005-0.832c-1.016-0.308-2.076-0.51-3.149-0.734
			c-1.076-0.21-2.157-0.494-3.279-0.649c-1.121-0.158-2.259-0.316-3.414-0.479c-0.575-0.098-1.16-0.137-1.752-0.171
			c-0.592-0.039-1.183-0.078-1.783-0.119c-4.772-0.258-9.872-0.101-14.998,1.034c-5.127,1.078-10.275,2.926-15.219,5.465
			L177.037,196.752z"/>
		<path fill="#405715" d="M158.393,210.938c14.337-16.121,40.031-14.877,70.86-5.786c-32.027-14.492-58.236-17.875-72.352,1.86
			L158.393,210.938z"/>
	</g>
	<g>
		<path fill="#4F7117" d="M156.771,203.836c10.24-40.641,54.472-73.958,72.967-57.506c-20.641,39.56-53.116,40.057-71.617,59.407
			L156.771,203.836z"/>
		<path fill="#435C16" d="M157.21,201.806c4.225-4.676,8.104-9.498,11.908-14.112c3.801-4.62,7.501-9.064,11.189-13.16
			c7.352-8.202,14.705-15.036,21.756-19.596c7.013-4.611,13.58-6.876,18.205-7.565c0.576-0.088,1.121-0.173,1.633-0.252
			c0.516-0.043,1.001-0.083,1.448-0.119c0.448-0.03,0.863-0.062,1.24-0.088c0.378-0.016,0.723,0.003,1.03,0.003
			c1.229,0.023,1.865,0.072,1.865,0.144c0,0.073-0.637,0.167-1.847,0.279c-0.299,0.033-0.638,0.049-1.009,0.098
			c-0.369,0.056-0.774,0.119-1.21,0.187c-0.439,0.063-0.909,0.134-1.411,0.21c-0.497,0.106-1.024,0.223-1.586,0.345
			c-4.48,0.917-10.776,3.328-17.533,7.995c-6.791,4.617-13.924,11.444-21.132,19.652c-3.618,4.1-7.267,8.544-11.037,13.179
			c-3.779,4.63-7.655,9.476-11.944,14.226L157.21,201.806z"/>
	</g>
	<path fill="#4F7117" d="M158.944,237.296c0.5-19.022,0.825-37.596,0.734-55.539c-0.131-17.94-0.631-35.265-2.292-51.721
		c-0.848-8.22-1.957-16.229-3.673-23.913c-0.22-0.96-0.436-1.915-0.652-2.868c-0.244-0.944-0.487-1.89-0.729-2.829
		c-0.46-1.883-1.069-3.721-1.603-5.557c-1.204-3.639-2.524-7.183-4.088-10.561c-1.588-3.368-3.365-6.581-5.349-9.591
		c-2.018-2.984-4.234-5.749-6.59-8.288c-4.758-5.022-10.009-9.174-15.495-12.332c-2.731-1.594-5.508-2.965-8.306-4.075
		c-2.789-1.119-5.575-2.054-8.342-2.719c-2.765-0.689-5.489-1.192-8.156-1.466c-1.326-0.174-2.646-0.228-3.941-0.317
		c-0.646-0.037-1.289-0.027-1.926-0.042c-0.637-0.013-1.268-0.034-1.896,0c-5.011,0.109-9.649,0.79-13.792,1.865
		c-4.146,1.076-7.805,2.49-10.972,3.991c-3.167,1.511-5.824,3.142-8.064,4.629c-2.217,1.527-4.014,2.923-5.404,4.124
		c-0.686,0.607-1.289,1.143-1.813,1.604c-0.494,0.491-0.906,0.901-1.241,1.234c-0.658,0.674-0.972,1.037-0.93,1.079
		c0.04,0.046,0.439-0.231,1.17-0.81c0.363-0.296,0.814-0.662,1.351-1.098c0.548-0.42,1.186-0.904,1.908-1.457
		c1.445-1.101,3.286-2.39,5.526-3.801c2.265-1.371,4.926-2.88,8.068-4.264c3.143-1.375,6.746-2.655,10.802-3.606
		c4.05-0.95,8.562-1.511,13.411-1.527c0.607-0.021,1.216,0.013,1.835,0.034c0.615,0.028,1.237,0.031,1.862,0.077
		c1.247,0.109,2.521,0.179,3.801,0.374c2.569,0.306,5.191,0.836,7.843,1.54c2.66,0.683,5.331,1.625,8.003,2.74
		c2.679,1.107,5.334,2.466,7.943,4.033c5.239,3.106,10.256,7.168,14.77,12.036c2.23,2.458,4.321,5.123,6.227,7.998
		c1.869,2.901,3.548,5.998,5.047,9.253c1.478,3.268,2.729,6.709,3.868,10.25c0.507,1.792,1.086,3.579,1.521,5.425
		c0.229,0.917,0.461,1.841,0.692,2.768c0.204,0.933,0.411,1.871,0.615,2.812c1.631,7.532,2.676,15.441,3.472,23.579
		c1.551,16.289,1.983,33.533,2.062,51.412c0.043,17.888-0.31,36.43-0.813,55.43L158.944,237.296z"/>
	<g>
		<path fill="#F498C2" d="M41.84,63.129c-4.746-2.92-20.683,1.938-14.572,10.929C33.772,83.632,45.321,67.792,41.84,63.129z"/>
		<path fill="#F4B5D3" d="M41.84,63.129c-2.218,5.27-13.237,16.242-4.419,18.378C53.197,85.331,49.613,63.133,41.84,63.129z"/>
		<path fill="#F6E1EC" d="M41.84,63.129c-0.582-6.532-17.705-8.364-17.373,0.563C24.8,72.621,35.879,61.931,41.84,63.129z"/>
	</g>
	<g>
		<path fill="#F28ABD" d="M160.843,97.881c-5.895,10.808,3.316,29.806,14.298,22.874C183.428,115.526,173.05,96.461,160.843,97.881z
			"/>
		<path fill="#F28ABD" d="M159.45,97.881c5.892,10.808-3.316,29.806-14.301,22.874C136.865,115.526,147.243,96.461,159.45,97.881z"
			/>
		<path fill="#F498C2" d="M168.42,81.974c0,4.148-3.703,14.158-8.274,14.158c-4.569,0-8.275-10.01-8.275-14.158
			c0-4.145,2.304-9.311,8.275-9.311C166.119,72.663,168.42,77.83,168.42,81.974z"/>
		<path fill="#F4B5D3" d="M161.343,96.062c8.54-4.578,4.438-11.545,10.161-12.499c8.202-1.366,15.987,7.388,16.24,11.716
			c0.512,8.78-9.576,14.275-16.542,12.798c-2.709-0.572-2.42-3.188-3.291-5.199c-1.372-3.161-2.052-4.572-6.568-5.096V96.062z"/>
		<path fill="#F4B5D3" d="M158.95,96.062c-8.54-4.578-4.438-11.545-10.161-12.499c-8.203-1.366-15.987,7.388-16.239,11.716
			c-0.515,8.78,9.576,14.275,16.54,12.798c2.71-0.572,2.421-3.188,3.292-5.199c1.372-3.161,2.048-4.572,6.568-5.096V96.062z"/>
		<g>
			<path fill="#E3344E" d="M163.607,95.58c0.411,1.634,1.338,6.473-1.979,6.843c1.941-4.493-1.483-1.942-1.483-1.942
				s-3.427-2.551-1.485,1.942c-3.315-0.37-2.386-5.209-1.975-6.843c0.052-0.21-0.18-0.381-0.362-0.262
				c-1.625,1.045-3.893,4.048-2.112,6.735c0.719,1.086,4.449,2.323,4.449,2.954c0,0.634-3.544,1.146-3.715,1.799
				c-0.141,0.527,1.657,0.698,2.911,1.746c0.725,0.606,1.719,2.969,1.719,2.969h1.143c0,0,0.991-2.362,1.717-2.969
				c1.255-1.048,3.051-1.219,2.913-1.746c-0.173-0.653-3.719-1.165-3.719-1.799c0-0.631,3.731-1.868,4.453-2.954
				c1.78-2.688-0.487-5.69-2.115-6.735C163.784,95.199,163.556,95.37,163.607,95.58z"/>
			<path fill="#BC1538" d="M161.714,97.153h-3.136c0.766,1.208,1.058,2.673,1,4.328h1.137
				C160.657,99.826,160.946,98.361,161.714,97.153z"/>
			<path fill="#F7BC0E" d="M163.017,103.282c0.295-0.152,0.673-0.108,0.881-0.371c0.255-0.316,0.137-0.747,0.201-1.152
				c0.066-0.414,0.326-0.825,0.286-1.243c-0.034-0.391-0.158-0.763-0.284-1.135c-0.021-0.063-0.042-0.131-0.063-0.194
				c-0.079,1.576-0.64,3.042-2.408,3.237c1.941-4.493-1.483-1.942-1.483-1.942s-3.427-2.551-1.485,1.942
				c-1.325-0.146-1.972-1.013-2.246-2.101c-0.03,0.229-0.061,0.454-0.091,0.683c-0.04,0.299-0.22,0.726-0.146,1.021
				c0.213,0.874,0.713,0.467,1.045,0.786c0.202,0.195,0.284,0.601,0.537,0.723c0.25,0.122,0.551,0.006,0.819,0.082
				c0.28,0.079,0.524,0.354,0.808,0.421c0.394,0.091,0.763-0.131,1.164-0.144c0.488-0.016,1.019,0.18,1.488,0.046
				C162.403,103.834,162.678,103.459,163.017,103.282z"/>
			<path fill="#EDD9C9" d="M158.209,95.938c-0.167,0.49-0.115,1.066,0.25,1.453c0.409,0.433,1.089,0.537,1.707,0.549
				c0.546,0.01,1.137-0.045,1.548-0.374c0.27-0.214,0.428-0.525,0.497-0.847c0.165-0.769-0.219-1.613-0.93-2.049
				c-0.548-0.335-1.478-0.49-2.075-0.161C158.761,94.751,158.354,95.513,158.209,95.938z"/>
			<path fill="#F98B10" d="M161.343,96.824c0.101-0.259,0.067-0.564-0.146-0.771c-0.24-0.229-0.64-0.284-1.002-0.29
				c-0.324-0.006-0.668,0.025-0.911,0.198c-0.156,0.116-0.25,0.28-0.291,0.448c-0.097,0.409,0.644,1.53,1.174,1.53
				C160.699,97.939,161.258,97.05,161.343,96.824z"/>
			<g>
				<path d="M161.379,100.277c0.052,0.021,0.119,0.046,0.189,0.08c0.067,0.036,0.128,0.073,0.177,0.103
					c0.049,0.031,0.089,0.052,0.118,0.04c0.031-0.012,0.044-0.063,0.02-0.141c-0.027-0.072-0.101-0.164-0.208-0.216
					c-0.11-0.055-0.226-0.058-0.299-0.033c-0.076,0.021-0.112,0.063-0.103,0.098C161.281,100.238,161.325,100.256,161.379,100.277z"
					/>
				<path d="M160.474,101.018c0.071,0.003,0.132-0.162,0.235-0.336c0.098-0.177,0.21-0.313,0.171-0.372
					c-0.019-0.026-0.076-0.023-0.152,0.019c-0.073,0.04-0.162,0.123-0.227,0.235c-0.066,0.112-0.091,0.228-0.088,0.313
					S160.444,101.015,160.474,101.018z"/>
				<path d="M161.108,101.372c0.067-0.003,0.119-0.137,0.112-0.302c-0.003-0.162-0.061-0.296-0.128-0.293
					c-0.063,0.003-0.115,0.138-0.11,0.299C160.986,101.24,161.044,101.372,161.108,101.372z"/>

					<ellipse transform="matrix(-0.9934 -0.1145 0.1145 -0.9934 310.5651 220.4088)" cx="161.611" cy="101.288" rx="0.119" ry="0.327"/>

					<ellipse transform="matrix(-0.1318 0.9913 -0.9913 -0.1318 283.4166 -43.9985)" cx="160.977" cy="102.121" rx="0.233" ry="0.12"/>
				<ellipse transform="matrix(0.2035 0.9791 -0.9791 0.2035 227.3163 -76.1366)" cx="160.455" cy="101.649" rx="0.19" ry="0.119"/>
				<path d="M162.017,102.635c-0.201,0.013-0.378-0.008-0.405,0.053c-0.013,0.027,0.018,0.076,0.095,0.119
					c0.072,0.042,0.191,0.076,0.322,0.07c0.131-0.007,0.244-0.052,0.314-0.101s0.098-0.101,0.082-0.131
					C162.389,102.587,162.218,102.63,162.017,102.635z"/>
				<path d="M161.117,102.846c-0.415-0.24-0.668-0.555-0.725-0.515c-0.028,0.016,0.003,0.121,0.104,0.265
					c0.098,0.147,0.268,0.32,0.499,0.458c0.232,0.137,0.469,0.204,0.644,0.22c0.173,0.018,0.28-0.007,0.283-0.037
					C161.928,103.167,161.528,103.096,161.117,102.846z"/>
				<path d="M160.706,103.292c-0.274-0.244-0.403-0.527-0.47-0.509c-0.027,0.01-0.036,0.098,0.007,0.234
					c0.039,0.131,0.14,0.306,0.302,0.451c0.157,0.146,0.341,0.231,0.479,0.259c0.137,0.031,0.225,0.016,0.23-0.016
					C161.267,103.642,160.971,103.542,160.706,103.292z"/>
				<path d="M162.903,102.121c-0.134,0.095-0.211,0.214-0.174,0.269c0.04,0.056,0.177,0.021,0.311-0.07
					c0.131-0.094,0.208-0.213,0.171-0.268C163.171,102,163.034,102.03,162.903,102.121z"/>
				<path d="M163.663,101.716c0.094-0.149,0.127-0.302,0.072-0.335c-0.058-0.037-0.18,0.054-0.274,0.203
					c-0.097,0.152-0.128,0.302-0.073,0.339C163.446,101.957,163.567,101.866,163.663,101.716z"/>
				<ellipse transform="matrix(-0.701 -0.7132 0.7132 -0.701 205.2144 290.5847)" cx="163.526" cy="102.271" rx="0.12" ry="0.197"/>
				<path d="M158.914,100.277c-0.056,0.021-0.119,0.046-0.189,0.08c-0.07,0.036-0.128,0.073-0.177,0.103
					c-0.049,0.031-0.089,0.052-0.122,0.04c-0.027-0.012-0.043-0.063-0.016-0.141c0.028-0.072,0.101-0.164,0.208-0.216
					c0.109-0.055,0.223-0.058,0.299-0.033c0.075,0.021,0.109,0.063,0.104,0.098C159.012,100.238,158.969,100.256,158.914,100.277z"
					/>
				<path d="M159.816,101.018c-0.067,0.003-0.129-0.162-0.232-0.336c-0.101-0.177-0.211-0.313-0.174-0.372
					c0.019-0.026,0.079-0.023,0.153,0.019c0.075,0.04,0.164,0.123,0.229,0.235c0.063,0.112,0.091,0.228,0.088,0.313
					S159.85,101.015,159.816,101.018z"/>

					<ellipse transform="matrix(-0.0246 0.9997 -0.9997 -0.0246 264.1533 -55.5787)" cx="159.19" cy="101.074" rx="0.297" ry="0.121"/>
				<ellipse transform="matrix(0.9934 -0.1145 0.1145 0.9934 -10.5512 18.83)" cx="158.682" cy="101.288" rx="0.119" ry="0.327"/>
				<ellipse transform="matrix(0.1256 0.9921 -0.9921 0.1256 240.6199 -68.757)" cx="159.314" cy="102.121" rx="0.233" ry="0.118"/>

					<ellipse transform="matrix(-0.1936 0.9811 -0.9811 -0.1936 290.5123 -35.4808)" cx="159.837" cy="101.649" rx="0.189" ry="0.119"/>
				<path d="M158.276,102.635c0.201,0.013,0.376-0.008,0.405,0.053c0.012,0.027-0.021,0.076-0.094,0.119
					c-0.077,0.042-0.192,0.076-0.323,0.07c-0.131-0.007-0.244-0.052-0.314-0.101s-0.097-0.101-0.082-0.131
					C157.901,102.587,158.075,102.63,158.276,102.635z"/>
				<path d="M159.173,102.846c0.417-0.24,0.67-0.555,0.729-0.515c0.024,0.016-0.006,0.121-0.104,0.265
					c-0.098,0.147-0.271,0.32-0.5,0.458c-0.231,0.137-0.47,0.204-0.644,0.22c-0.174,0.018-0.28-0.007-0.283-0.037
					C158.365,103.167,158.765,103.096,159.173,102.846z"/>
				<path d="M159.587,103.292c0.275-0.244,0.399-0.527,0.467-0.509c0.03,0.01,0.04,0.098-0.003,0.234
					c-0.043,0.131-0.144,0.306-0.302,0.451c-0.159,0.146-0.342,0.231-0.479,0.259c-0.137,0.031-0.226,0.016-0.232-0.016
					C159.026,103.642,159.319,103.542,159.587,103.292z"/>
				<path d="M157.39,102.121c0.135,0.095,0.211,0.214,0.171,0.269c-0.036,0.056-0.174,0.021-0.308-0.07
					c-0.132-0.094-0.21-0.213-0.171-0.268C157.118,102,157.259,102.03,157.39,102.121z"/>
				<path d="M156.631,101.716c-0.098-0.149-0.129-0.302-0.073-0.335c0.055-0.037,0.18,0.054,0.274,0.203
					c0.095,0.152,0.128,0.302,0.073,0.339C156.847,101.957,156.726,101.866,156.631,101.716z"/>
				<ellipse transform="matrix(0.7051 -0.7091 0.7091 0.7051 -26.2897 141.3284)" cx="156.765" cy="102.271" rx="0.12" ry="0.199"/>
			</g>
			<path fill="#BC1538" d="M162.083,107.08c0,0.848-1.35,4.042-1.938,4.042c-0.586,0-1.937-3.194-1.937-4.042
				c0-0.85,1.434-2.225,1.937-2.225C160.65,104.855,162.083,106.23,162.083,107.08z"/>
			<path fill="#F4B5D3" d="M160.146,110.21c-0.241,0-0.559,0.354-0.836,0.335c-1.621-0.106-3.136-2.956-2.923-2.271
				c0.25,0.805,1.762,2.521,3.188,3.246h1.143c1.424-0.726,2.938-2.441,3.188-3.246c0.217-0.704-1.381,2.311-3.048,2.273
				C160.621,110.545,160.389,110.21,160.146,110.21z"/>
		</g>
	</g>
	<g>
		<path fill="#4F7117" d="M45.827,64.32l-0.923,0.522c-0.006-0.012-0.644-1.14-1.463-2.188c-1.091-1.396-1.826-1.795-2.146-1.701
			c-0.354,0.101-0.622,0.326-0.792,0.665c-0.265,0.521-0.239,1.173-0.138,1.451l-0.997,0.363c-0.195-0.537-0.219-1.485,0.19-2.292
			c0.307-0.604,0.804-1.021,1.441-1.204c0.915-0.263,1.987,0.415,3.282,2.075C45.147,63.123,45.8,64.272,45.827,64.32z"/>
		<path fill="#938513" d="M41.35,72.081c3.355,3.334,4.504-7.97,0.408-9.805L41.35,72.081z"/>
		<path fill="#938513" d="M41.739,72.411c-2.554,3.715-7.049-6.483-4.065-9.318L41.739,72.411z"/>
		<path fill="#BDB119" d="M41.739,72.411c-3.584,0.149-6.019-8.93-3.221-10.181c0.574-0.186,0.582,0.242,1.112,0.123
			c0.531-0.12,0.777-0.512,1.384-0.43C43.654,62.278,44.2,70.865,41.739,72.411z"/>
		<path fill="#AF9F14" d="M39.438,62.374c-0.003,0.018-0.003,0.036-0.003,0.058c0,0.183-0.006,0.366,0,0.545
			c0.009,0.18,0.022,0.36,0.03,0.537c0.018,0.176,0.033,0.351,0.052,0.523c0.082,0.686,0.192,1.344,0.321,1.967
			c0.25,1.24,0.542,2.343,0.81,3.258c0.271,0.917,0.521,1.646,0.71,2.146c0.095,0.25,0.174,0.441,0.235,0.57
			c0.058,0.128,0.094,0.191,0.104,0.188c0.012-0.005-0.003-0.08-0.041-0.213c-0.039-0.134-0.097-0.332-0.173-0.588
			c-0.149-0.509-0.366-1.246-0.607-2.167c-0.237-0.917-0.502-2.021-0.734-3.255c-0.119-0.616-0.219-1.267-0.296-1.941
			c-0.015-0.17-0.031-0.341-0.049-0.512c-0.005-0.173-0.015-0.348-0.023-0.521c-0.006-0.175,0-0.348,0.002-0.525
			c-0.002-0.042,0-0.088,0.006-0.131C39.783,62.312,39.563,62.218,39.438,62.374z"/>
	</g>
	<g>
		<path fill="#F5C1DA" d="M57.333,56.5c-4.001,7.336,2.253,20.235,9.708,15.529C72.667,68.479,65.621,55.534,57.333,56.5z"/>
		<path fill="#F5C1DA" d="M56.388,56.5c4.001,7.336-2.253,20.235-9.708,15.529C41.054,68.479,48.101,55.534,56.388,56.5z"/>
		<path fill="#F5C1DA" d="M62.478,45.701c0,2.816-2.515,9.61-5.618,9.61c-3.103,0-5.617-6.794-5.617-9.61s1.563-6.322,5.617-6.322
			C60.915,39.379,62.478,42.885,62.478,45.701z"/>
		<path fill="#F6E1EC" d="M57.674,55.266c5.797-3.11,3.011-7.84,6.897-8.486c5.569-0.93,10.854,5.014,11.024,7.953
			c0.348,5.962-6.5,9.692-11.231,8.689c-1.838-0.389-1.64-2.163-2.234-3.529c-0.93-2.146-1.39-3.106-4.456-3.462V55.266z"/>
		<path fill="#F6E1EC" d="M56.047,55.266c-5.797-3.11-3.011-7.84-6.897-8.486c-5.569-0.93-10.854,5.014-11.024,7.953
			c-0.348,5.962,6.501,9.692,11.231,8.689c1.838-0.389,1.64-2.163,2.234-3.529c0.93-2.146,1.39-3.106,4.456-3.462V55.266z"/>
		<g>
			<path fill="#F44B6C" d="M59.21,54.937c0.278,1.109,0.909,4.398-1.341,4.647c1.317-3.051-1.009-1.319-1.009-1.319
				s-2.326-1.731-1.008,1.319c-2.25-0.25-1.619-3.538-1.341-4.647c0.036-0.144-0.122-0.256-0.244-0.178
				c-1.106,0.708-2.645,2.747-1.435,4.573c0.487,0.737,3.021,1.579,3.021,2.005c0,0.43-2.405,0.777-2.521,1.222
				c-0.095,0.357,1.124,0.473,1.975,1.187c0.494,0.411,1.167,2.014,1.167,2.014h0.775c0,0,0.673-1.603,1.167-2.014
				c0.851-0.713,2.07-0.829,1.975-1.187c-0.116-0.445-2.521-0.792-2.521-1.222c0-0.426,2.533-1.268,3.021-2.005
				c1.21-1.826-0.329-3.865-1.435-4.573C59.333,54.681,59.174,54.793,59.21,54.937z"/>
			<path fill="#BC1538" d="M57.924,56.006h-2.127c0.518,0.817,0.716,1.814,0.676,2.938h0.775
				C57.208,57.82,57.406,56.823,57.924,56.006z"/>
			<path fill="#F7BC0E" d="M58.811,60.167c0.198-0.103,0.455-0.076,0.595-0.252c0.173-0.216,0.094-0.509,0.137-0.784
				c0.046-0.28,0.223-0.561,0.195-0.841c-0.021-0.266-0.106-0.521-0.192-0.771c-0.015-0.045-0.03-0.088-0.045-0.135
				c-0.052,1.071-0.433,2.067-1.631,2.201c1.317-3.051-1.009-1.319-1.009-1.319s-2.326-1.731-1.008,1.319
				c-0.899-0.1-1.338-0.688-1.524-1.426c-0.022,0.152-0.043,0.308-0.062,0.463c-0.027,0.201-0.149,0.494-0.101,0.691
				c0.146,0.595,0.484,0.318,0.708,0.534c0.137,0.134,0.195,0.407,0.366,0.49c0.17,0.086,0.374,0.003,0.558,0.055
				c0.189,0.055,0.357,0.244,0.549,0.287c0.265,0.061,0.515-0.089,0.789-0.098c0.33-0.009,0.692,0.125,1.009,0.031
				C58.394,60.542,58.58,60.285,58.811,60.167z"/>
			<path fill="#EDD9C9" d="M55.546,55.18c-0.116,0.333-0.079,0.725,0.171,0.988c0.274,0.293,0.735,0.363,1.159,0.372
				c0.369,0.006,0.771-0.03,1.048-0.256c0.183-0.144,0.292-0.356,0.338-0.573c0.109-0.521-0.149-1.098-0.631-1.393
				c-0.372-0.229-1.003-0.333-1.411-0.107C55.922,54.375,55.644,54.891,55.546,55.18z"/>
			<path fill="#F98B10" d="M57.674,55.781c0.067-0.174,0.045-0.381-0.101-0.522c-0.161-0.155-0.433-0.191-0.683-0.198
				c-0.216-0.003-0.451,0.019-0.616,0.135c-0.106,0.079-0.17,0.189-0.198,0.305c-0.067,0.277,0.437,1.039,0.799,1.039
				C57.235,56.54,57.616,55.936,57.674,55.781z"/>
			<g>
				<path d="M57.696,58.127c0.037,0.013,0.083,0.031,0.131,0.052c0.045,0.025,0.085,0.049,0.119,0.07s0.061,0.037,0.083,0.027
					c0.018-0.009,0.027-0.046,0.009-0.094c-0.015-0.052-0.067-0.112-0.14-0.149c-0.073-0.037-0.149-0.037-0.201-0.021
					c-0.051,0.015-0.077,0.046-0.07,0.067C57.632,58.1,57.663,58.112,57.696,58.127z"/>
				<path d="M57.083,58.631c0.049,0,0.088-0.11,0.159-0.229c0.067-0.123,0.143-0.213,0.119-0.253
					c-0.012-0.019-0.052-0.015-0.104,0.012c-0.052,0.028-0.112,0.082-0.155,0.159c-0.043,0.075-0.062,0.155-0.058,0.212
					C57.043,58.594,57.062,58.627,57.083,58.631z"/>
				<ellipse transform="matrix(0.0303 0.9995 -0.9995 0.0303 114.4079 -0.5929)" cx="57.51" cy="58.667" rx="0.202" ry="0.082"/>

					<ellipse transform="matrix(-0.9934 -0.1144 0.1144 -0.9934 108.6031 123.8593)" cx="57.855" cy="58.813" rx="0.081" ry="0.221"/>
				<path d="M57.406,59.536c0.043,0.006,0.089-0.061,0.101-0.149c0.009-0.085-0.019-0.162-0.061-0.165
					c-0.046-0.005-0.092,0.058-0.101,0.146C57.333,59.454,57.36,59.53,57.406,59.536z"/>
				<ellipse transform="matrix(0.2042 0.9789 -0.9789 0.2042 103.2301 -8.8684)" cx="57.07" cy="59.057" rx="0.128" ry="0.082"/>
				<path d="M58.131,59.728c-0.137,0.009-0.255-0.006-0.278,0.034c-0.008,0.021,0.016,0.055,0.064,0.083
					c0.052,0.03,0.131,0.052,0.22,0.049c0.089-0.006,0.167-0.037,0.213-0.071c0.049-0.033,0.067-0.067,0.059-0.088
					C58.384,59.694,58.266,59.724,58.131,59.728z"/>
				<path d="M57.519,59.871c-0.28-0.165-0.451-0.377-0.491-0.35c-0.018,0.013,0.004,0.083,0.071,0.18
					c0.064,0.098,0.183,0.219,0.338,0.311c0.159,0.094,0.32,0.137,0.436,0.149c0.119,0.011,0.192-0.003,0.192-0.025
					C58.071,60.087,57.799,60.038,57.519,59.871z"/>
				<path d="M57.238,60.172c-0.183-0.164-0.271-0.356-0.317-0.344c-0.018,0.006-0.024,0.068,0.002,0.159
					c0.031,0.088,0.098,0.208,0.206,0.308c0.109,0.097,0.234,0.155,0.325,0.173c0.095,0.021,0.153,0.01,0.159-0.012
					C57.623,60.411,57.421,60.344,57.238,60.172z"/>
				<path d="M58.731,59.377c-0.091,0.063-0.142,0.146-0.116,0.183c0.025,0.037,0.119,0.015,0.208-0.049
					c0.091-0.061,0.143-0.143,0.119-0.179C58.915,59.295,58.82,59.317,58.731,59.377z"/>
				<ellipse transform="matrix(0.8398 0.5429 -0.5429 0.8398 41.5414 -22.666)" cx="59.178" cy="59.059" rx="0.081" ry="0.219"/>
				<ellipse transform="matrix(-0.7071 -0.7071 0.7071 -0.7071 58.9247 143.3689)" cx="59.155" cy="59.481" rx="0.082" ry="0.133"/>
				<path d="M56.025,58.127c-0.037,0.013-0.083,0.031-0.128,0.052c-0.049,0.025-0.089,0.049-0.122,0.07
					c-0.034,0.021-0.061,0.037-0.083,0.027c-0.018-0.009-0.027-0.046-0.009-0.094c0.015-0.052,0.067-0.112,0.14-0.149
					c0.073-0.037,0.149-0.037,0.201-0.021c0.051,0.015,0.077,0.046,0.07,0.067C56.089,58.1,56.059,58.112,56.025,58.127z"/>
				<path d="M56.638,58.631c-0.046,0-0.088-0.11-0.158-0.229c-0.067-0.123-0.143-0.213-0.119-0.253
					c0.012-0.019,0.052-0.015,0.104,0.012c0.052,0.028,0.113,0.082,0.155,0.159c0.046,0.075,0.062,0.155,0.058,0.212
					C56.678,58.594,56.659,58.627,56.638,58.631z"/>
				<path d="M56.205,58.869c-0.042,0-0.08-0.092-0.076-0.205c0.003-0.109,0.043-0.198,0.089-0.198c0.045,0,0.079,0.091,0.075,0.205
					C56.291,58.78,56.251,58.869,56.205,58.869z"/>
				<ellipse transform="matrix(0.9934 -0.1144 0.1144 0.9934 -6.3613 6.7769)" cx="55.866" cy="58.813" rx="0.081" ry="0.221"/>
				<ellipse transform="matrix(0.1265 0.992 -0.992 0.1265 108.0751 -3.9756)" cx="56.295" cy="59.379" rx="0.158" ry="0.081"/>
				<ellipse transform="matrix(-0.2042 0.9789 -0.9789 -0.2042 126.0321 15.6578)" cx="56.652" cy="59.057" rx="0.128" ry="0.082"/>
				<path d="M55.592,59.728c0.134,0.009,0.253-0.006,0.274,0.034c0.009,0.021-0.015,0.055-0.063,0.083
					c-0.052,0.03-0.131,0.052-0.22,0.049c-0.089-0.006-0.167-0.037-0.213-0.071c-0.049-0.033-0.067-0.067-0.056-0.088
					C55.337,59.694,55.456,59.724,55.592,59.728z"/>
				<path d="M56.203,59.871c0.28-0.165,0.451-0.377,0.49-0.35c0.018,0.013-0.003,0.083-0.07,0.18
					c-0.064,0.098-0.183,0.219-0.338,0.311c-0.159,0.094-0.32,0.137-0.436,0.149c-0.119,0.011-0.192-0.003-0.192-0.025
					C55.65,60.087,55.922,60.038,56.203,59.871z"/>
				<path d="M56.483,60.172c0.183-0.164,0.271-0.356,0.317-0.344c0.018,0.006,0.024,0.068-0.003,0.159
					c-0.03,0.088-0.098,0.208-0.205,0.308c-0.109,0.097-0.234,0.155-0.325,0.173c-0.095,0.021-0.153,0.01-0.159-0.012
					C56.099,60.411,56.3,60.344,56.483,60.172z"/>
				<path d="M54.989,59.377c0.091,0.063,0.143,0.146,0.116,0.183c-0.025,0.037-0.12,0.015-0.208-0.049
					c-0.091-0.061-0.143-0.143-0.119-0.179C54.807,59.295,54.901,59.317,54.989,59.377z"/>
				<ellipse transform="matrix(-0.8398 0.5429 -0.5429 -0.8398 132.4105 79.0469)" cx="54.543" cy="59.059" rx="0.081" ry="0.219"/>
				<ellipse transform="matrix(0.7086 -0.7056 0.7056 0.7086 -26.0697 55.8357)" cx="54.566" cy="59.481" rx="0.082" ry="0.133"/>
			</g>
			<path fill="#E3344E" d="M58.175,62.746c0,0.573-0.915,2.743-1.314,2.743c-0.399,0-1.314-2.17-1.314-2.743
				c0-0.576,0.973-1.513,1.314-1.513C57.202,61.233,58.175,62.169,58.175,62.746z"/>
			<path fill="#F28ABD" d="M56.86,64.87c-0.165,0-0.377,0.241-0.567,0.229c-1.1-0.073-2.13-2.009-1.983-1.542
				c0.168,0.546,1.195,1.71,2.164,2.204h0.775c0.969-0.494,1.996-1.658,2.163-2.204c0.149-0.478-0.935,1.567-2.065,1.542
				C57.184,65.095,57.025,64.87,56.86,64.87z"/>
		</g>
	</g>
	<g>
		<path fill="#4F7117" d="M79.588,47.344l-1.28,0.452c-0.005-0.016-0.558-1.582-1.356-3.091c-1.064-2.006-1.898-2.673-2.326-2.627
			c-0.469,0.049-0.856,0.271-1.148,0.662c-0.451,0.597-0.567,1.426-0.5,1.797l-1.338,0.235c-0.125-0.722,0.055-1.923,0.753-2.85
			c0.524-0.694,1.247-1.106,2.091-1.195c1.213-0.127,2.414,0.969,3.676,3.356C79.004,45.68,79.567,47.277,79.588,47.344z"/>
		<path fill="#938513" d="M72.194,56.131c3.484,4.962,7.479-9.043,2.719-12.283L72.194,56.131z"/>
		<path fill="#938513" d="M72.612,56.637c-4.06,4.112-7.44-9.771-3.036-12.673L72.612,56.637z"/>
		<path fill="#BDB119" d="M72.612,56.637c-4.557-0.621-5.59-12.627-1.776-13.575c0.765-0.103,0.682,0.436,1.377,0.406
			c0.698-0.031,1.097-0.47,1.84-0.232C77.306,44.281,76.065,55.238,72.612,56.637z"/>
		<path fill="#AF9F14" d="M71.966,43.449c-0.006,0.024-0.013,0.049-0.016,0.073c-0.043,0.232-0.092,0.463-0.125,0.692
			c-0.026,0.229-0.054,0.457-0.082,0.683c-0.019,0.225-0.034,0.451-0.052,0.67c-0.052,0.888-0.061,1.743-0.039,2.554
			c0.036,1.625,0.158,3.079,0.292,4.298c0.134,1.216,0.287,2.194,0.415,2.865c0.061,0.338,0.119,0.598,0.165,0.771
			c0.045,0.174,0.076,0.265,0.091,0.263c0.016-0.003,0.013-0.098-0.006-0.278c-0.018-0.18-0.049-0.441-0.085-0.78
			c-0.076-0.676-0.18-1.655-0.277-2.871c-0.092-1.213-0.18-2.663-0.196-4.272c-0.012-0.806,0.009-1.65,0.064-2.521
			c0.018-0.216,0.036-0.433,0.054-0.656c0.028-0.219,0.055-0.438,0.083-0.661c0.034-0.223,0.083-0.439,0.122-0.661
			c0.009-0.056,0.021-0.11,0.04-0.165C72.414,43.452,72.157,43.281,71.966,43.449z"/>
	</g>
	<g>
		<path fill="#F28ABD" d="M102.271,44.656c-5.325,9.766,2.997,26.931,12.921,20.668C122.68,60.599,113.302,43.373,102.271,44.656z"
			/>
		<path fill="#F28ABD" d="M101.016,44.656c5.321,9.766-2.999,26.931-12.923,20.668C80.607,60.599,89.986,43.373,101.016,44.656z"/>
		<path fill="#F498C2" d="M109.12,30.285c0,3.749-3.347,12.792-7.477,12.792c-4.129,0-7.476-9.043-7.476-12.792
			c0-3.746,2.081-8.412,7.476-8.412S109.12,26.539,109.12,30.285z"/>
		<path fill="#F4B5D3" d="M102.726,43.013c7.714-4.136,4.008-10.429,9.181-11.292c7.409-1.235,14.443,6.675,14.672,10.586
			c0.463,7.933-8.653,12.901-14.947,11.563c-2.447-0.519-2.185-2.88-2.975-4.697c-1.238-2.856-1.85-4.133-5.931-4.605V43.013z"/>
		<path fill="#F4B5D3" d="M100.562,43.013c-7.714-4.136-4.008-10.429-9.18-11.292c-7.413-1.235-14.445,6.675-14.673,10.586
			c-0.463,7.933,8.653,12.901,14.944,11.563c2.451-0.519,2.186-2.88,2.975-4.697c1.24-2.856,1.853-4.133,5.934-4.605V43.013z"/>
		<g>
			<path fill="#E3344E" d="M104.771,42.577c0.371,1.476,1.21,5.853-1.787,6.185c1.753-4.06-1.341-1.753-1.341-1.753
				s-3.096-2.307-1.341,1.753c-2.996-0.332-2.158-4.709-1.786-6.185c0.049-0.189-0.162-0.341-0.327-0.234
				c-1.469,0.941-3.517,3.654-1.911,6.083c0.652,0.981,4.023,2.1,4.023,2.67c0,0.573-3.203,1.034-3.359,1.624
				c-0.125,0.476,1.5,0.631,2.63,1.58c0.655,0.548,1.554,2.682,1.554,2.682h1.03c0,0,0.896-2.133,1.552-2.682
				c1.133-0.949,2.758-1.104,2.633-1.58c-0.156-0.59-3.359-1.051-3.359-1.624c0-0.57,3.371-1.689,4.02-2.67
				c1.609-2.429-0.438-5.142-1.908-6.083C104.932,42.236,104.722,42.388,104.771,42.577z"/>
			<path fill="#BC1538" d="M103.061,44.001h-2.834c0.691,1.087,0.957,2.413,0.901,3.91h1.03
				C102.104,46.414,102.366,45.088,103.061,44.001z"/>
			<path fill="#F7BC0E" d="M104.237,49.539c0.269-0.138,0.606-0.101,0.795-0.335c0.232-0.289,0.122-0.676,0.183-1.042
				c0.058-0.375,0.292-0.747,0.259-1.125c-0.034-0.351-0.146-0.689-0.259-1.024c-0.019-0.058-0.04-0.119-0.058-0.177
				c-0.07,1.424-0.577,2.75-2.173,2.927c1.753-4.06-1.341-1.753-1.341-1.753s-3.096-2.307-1.341,1.753
				c-1.201-0.135-1.783-0.915-2.03-1.899c-0.027,0.208-0.055,0.412-0.083,0.619c-0.036,0.269-0.201,0.655-0.134,0.92
				c0.195,0.792,0.646,0.42,0.945,0.71c0.183,0.176,0.256,0.542,0.484,0.654c0.226,0.11,0.5,0.004,0.741,0.074
				c0.252,0.07,0.475,0.32,0.731,0.381c0.353,0.082,0.685-0.123,1.048-0.131c0.442-0.016,0.921,0.165,1.344,0.042
				C103.682,50.036,103.929,49.697,104.237,49.539z"/>
			<path fill="#EDD9C9" d="M99.894,42.9c-0.152,0.442-0.104,0.966,0.226,1.314c0.369,0.39,0.981,0.484,1.542,0.496
				c0.494,0.009,1.027-0.042,1.4-0.338c0.24-0.195,0.387-0.475,0.448-0.765c0.149-0.695-0.198-1.46-0.839-1.853
				c-0.497-0.305-1.338-0.442-1.877-0.143C100.391,41.831,100.025,42.516,99.894,42.9z"/>
			<path fill="#F98B10" d="M102.726,43.702c0.088-0.234,0.061-0.509-0.134-0.695c-0.217-0.208-0.576-0.256-0.905-0.263
				c-0.29-0.005-0.604,0.021-0.824,0.18c-0.14,0.101-0.225,0.25-0.262,0.405c-0.088,0.366,0.579,1.381,1.06,1.381
				C102.144,44.71,102.649,43.906,102.726,43.702z"/>
			<g>
				<path d="M102.755,46.823c0.049,0.018,0.11,0.039,0.171,0.07c0.064,0.033,0.116,0.067,0.161,0.095
					c0.043,0.027,0.08,0.045,0.107,0.036c0.027-0.012,0.039-0.061,0.015-0.128c-0.025-0.067-0.089-0.149-0.186-0.194
					c-0.098-0.049-0.202-0.052-0.271-0.03c-0.067,0.021-0.098,0.057-0.092,0.085C102.67,46.787,102.707,46.805,102.755,46.823z"/>
				<path d="M101.942,47.49c0.062,0.003,0.116-0.146,0.21-0.301c0.088-0.162,0.188-0.286,0.155-0.335
					c-0.018-0.025-0.07-0.022-0.137,0.015c-0.07,0.037-0.149,0.109-0.208,0.21c-0.058,0.104-0.083,0.211-0.079,0.287
					C101.887,47.441,101.912,47.49,101.942,47.49z"/>
				<ellipse transform="matrix(0.0219 0.9998 -0.9998 0.0219 147.7965 -55.9783)" cx="102.506" cy="47.542" rx="0.268" ry="0.11"/>
				<path d="M102.859,47.722c-0.021,0.162,0.012,0.298,0.073,0.305c0.058,0.009,0.122-0.119,0.141-0.28
					c0.018-0.161-0.016-0.299-0.073-0.305C102.938,47.436,102.878,47.56,102.859,47.722z"/>

					<ellipse transform="matrix(-0.1219 0.9925 -0.9925 -0.1219 163.0033 -47.2319)" cx="102.395" cy="48.489" rx="0.21" ry="0.109"/>
				<ellipse transform="matrix(0.1953 0.9807 -0.9807 0.1953 129.1508 -61.2839)" cx="101.921" cy="48.06" rx="0.171" ry="0.109"/>
				<path d="M103.332,48.953c-0.183,0.013-0.338-0.008-0.366,0.046c-0.013,0.028,0.018,0.07,0.085,0.11
					c0.067,0.04,0.174,0.067,0.293,0.061c0.116-0.005,0.219-0.045,0.283-0.088c0.064-0.046,0.088-0.091,0.073-0.119
					C103.67,48.911,103.515,48.948,103.332,48.953z"/>
				<path d="M102.521,49.146c-0.375-0.22-0.603-0.503-0.655-0.469c-0.025,0.015,0.003,0.112,0.091,0.243
					c0.089,0.128,0.244,0.287,0.455,0.412c0.207,0.122,0.423,0.183,0.579,0.198c0.156,0.015,0.253-0.006,0.256-0.034
					C103.252,49.432,102.893,49.368,102.521,49.146z"/>
				<path d="M102.146,49.545c-0.244-0.219-0.359-0.476-0.421-0.458c-0.027,0.007-0.034,0.089,0.003,0.211
					c0.04,0.119,0.127,0.278,0.271,0.408c0.146,0.131,0.311,0.208,0.433,0.235c0.124,0.027,0.204,0.012,0.21-0.016
					C102.655,49.865,102.39,49.774,102.146,49.545z"/>

					<ellipse transform="matrix(-0.5778 -0.8162 0.8162 -0.5778 124.7561 161.6888)" cx="104.196" cy="48.578" rx="0.109" ry="0.266"/>
				<ellipse transform="matrix(0.8447 0.5353 -0.5353 0.8447 41.9928 -48.5927)" cx="104.729" cy="48.063" rx="0.108" ry="0.29"/>

					<ellipse transform="matrix(-0.7071 -0.7071 0.7071 -0.7071 144.3475 157.0397)" cx="104.698" cy="48.625" rx="0.108" ry="0.177"/>
				<path d="M100.531,46.823c-0.049,0.018-0.11,0.039-0.17,0.07c-0.064,0.033-0.116,0.067-0.162,0.095
					c-0.042,0.027-0.079,0.045-0.109,0.036c-0.027-0.012-0.04-0.061-0.012-0.128c0.021-0.067,0.088-0.149,0.186-0.194
					c0.098-0.049,0.201-0.052,0.268-0.03c0.07,0.021,0.101,0.057,0.095,0.085C100.616,46.787,100.577,46.805,100.531,46.823z"/>
				<path d="M101.344,47.49c-0.061,0.003-0.116-0.146-0.21-0.301c-0.088-0.162-0.189-0.286-0.156-0.335
					c0.019-0.025,0.071-0.022,0.138,0.015s0.149,0.109,0.207,0.21c0.058,0.104,0.08,0.211,0.08,0.287
					C101.399,47.441,101.375,47.49,101.344,47.49z"/>

					<ellipse transform="matrix(-0.0291 0.9996 -0.9996 -0.0291 151.2375 -51.8101)" cx="100.78" cy="47.542" rx="0.268" ry="0.108"/>
				<ellipse transform="matrix(0.9937 -0.1122 0.1122 0.9937 -4.7207 11.5524)" cx="100.319" cy="47.734" rx="0.109" ry="0.295"/>
				<ellipse transform="matrix(0.123 0.9924 -0.9924 0.123 136.5995 -57.6024)" cx="100.892" cy="48.489" rx="0.21" ry="0.109"/>

					<ellipse transform="matrix(-0.2049 0.9788 -0.9788 -0.2049 169.1708 -41.3086)" cx="101.364" cy="48.06" rx="0.172" ry="0.107"/>
				<path d="M99.955,48.953c0.179,0.013,0.338-0.008,0.366,0.046c0.012,0.028-0.019,0.07-0.085,0.11
					c-0.067,0.04-0.174,0.067-0.292,0.061c-0.119-0.005-0.22-0.045-0.283-0.088c-0.064-0.046-0.089-0.091-0.077-0.119
					C99.616,48.911,99.772,48.948,99.955,48.953z"/>
				<path d="M100.765,49.146c0.375-0.22,0.604-0.503,0.656-0.469c0.023,0.015-0.003,0.112-0.092,0.243
					c-0.088,0.128-0.247,0.287-0.454,0.412c-0.208,0.122-0.424,0.183-0.579,0.198c-0.159,0.015-0.255-0.006-0.255-0.034
					C100.034,49.432,100.394,49.368,100.765,49.146z"/>
				<path d="M101.138,49.545c0.247-0.219,0.363-0.476,0.423-0.458c0.028,0.007,0.034,0.089-0.005,0.211
					c-0.036,0.119-0.128,0.278-0.271,0.408c-0.143,0.131-0.308,0.208-0.433,0.235c-0.125,0.027-0.205,0.012-0.21-0.016
					C100.631,49.865,100.896,49.774,101.138,49.545z"/>
				<path d="M99.153,48.49c0.119,0.083,0.189,0.19,0.156,0.241c-0.037,0.049-0.161,0.019-0.28-0.064
					c-0.119-0.085-0.19-0.192-0.156-0.241C98.91,48.377,99.034,48.405,99.153,48.49z"/>
				<ellipse transform="matrix(-0.8453 0.5342 -0.5342 -0.8453 207.5466 36.0389)" cx="98.556" cy="48.063" rx="0.108" ry="0.289"/>
				<path d="M98.666,48.548c0.07,0.067,0.091,0.158,0.049,0.201c-0.043,0.042-0.134,0.021-0.205-0.049
					c-0.067-0.07-0.091-0.159-0.049-0.201C98.504,48.456,98.595,48.478,98.666,48.548z"/>
			</g>
			<path fill="#BC1538" d="M103.394,52.967c0,0.765-1.22,3.651-1.75,3.651s-1.749-2.886-1.749-3.651
				c0-0.765,1.292-2.008,1.749-2.008C102.098,50.959,103.394,52.203,103.394,52.967z"/>
			<path fill="#F4B5D3" d="M101.643,55.799c-0.219,0-0.502,0.317-0.755,0.302c-1.464-0.098-2.835-2.673-2.64-2.052
				c0.225,0.726,1.59,2.277,2.879,2.933h1.03c1.29-0.655,2.655-2.207,2.881-2.933c0.198-0.636-1.247,2.085-2.752,2.055
				C102.073,56.098,101.863,55.799,101.643,55.799z"/>
		</g>
	</g>
	<g>
		<path fill="#F5C1DA" d="M143.89,62.868c-5.812,10.661,3.274,29.399,14.106,22.563C166.171,80.274,155.933,61.465,143.89,62.868z"
			/>
		<path fill="#F5C1DA" d="M142.519,62.868c5.813,10.661-3.274,29.399-14.106,22.563C120.239,80.274,130.474,61.465,142.519,62.868z"
			/>
		<path fill="#F5C1DA" d="M151.367,47.176c0,4.091-3.654,13.966-8.162,13.966c-4.508,0-8.163-9.875-8.163-13.966
			c0-4.09,2.271-9.186,8.163-9.186S151.367,43.086,151.367,47.176z"/>
		<path fill="#F6E1EC" d="M144.384,61.072c8.425-4.518,4.377-11.387,10.025-12.329c8.092-1.351,15.77,7.288,16.02,11.558
			c0.506,8.662-9.448,14.082-16.318,12.625c-2.673-0.566-2.387-3.146-3.246-5.129c-1.354-3.118-2.023-4.511-6.48-5.029V61.072z"/>
		<path fill="#F6E1EC" d="M142.022,61.072c-8.421-4.518-4.376-11.387-10.021-12.329c-8.093-1.351-15.771,7.288-16.021,11.558
			c-0.505,8.662,9.446,14.082,16.319,12.625c2.673-0.566,2.382-3.146,3.245-5.129c1.354-3.118,2.021-4.511,6.477-5.029V61.072z"/>
		<g>
			<path fill="#F44B6C" d="M146.618,60.597c0.405,1.609,1.322,6.388-1.951,6.751c1.917-4.432-1.462-1.915-1.462-1.915
				s-3.381-2.517-1.466,1.915c-3.271-0.363-2.353-5.142-1.948-6.751c0.051-0.208-0.177-0.375-0.356-0.26
				c-1.606,1.03-3.841,3.993-2.085,6.646c0.71,1.072,4.389,2.292,4.389,2.917c0,0.622-3.496,1.127-3.663,1.771
				c-0.138,0.521,1.633,0.692,2.871,1.725c0.716,0.597,1.694,2.926,1.694,2.926h1.127c0,0,0.979-2.329,1.695-2.926
				c1.234-1.033,3.007-1.204,2.871-1.725c-0.167-0.643-3.667-1.149-3.667-1.771c0-0.625,3.682-1.845,4.393-2.917
				c1.755-2.652-0.481-5.615-2.086-6.646C146.795,60.221,146.566,60.389,146.618,60.597z"/>
			<path fill="#BC1538" d="M144.75,62.151h-3.094c0.756,1.188,1.045,2.633,0.988,4.268h1.122
				C143.708,64.784,143.994,63.339,144.75,62.151z"/>
			<path fill="#F7BC0E" d="M146.036,68.195c0.293-0.149,0.661-0.11,0.869-0.366c0.253-0.314,0.134-0.741,0.198-1.138
				c0.066-0.408,0.319-0.816,0.283-1.229c-0.033-0.384-0.159-0.752-0.28-1.118c-0.021-0.064-0.043-0.128-0.064-0.193
				c-0.076,1.555-0.631,3-2.375,3.195c1.917-4.432-1.462-1.915-1.462-1.915s-3.381-2.517-1.466,1.915
				c-1.307-0.147-1.948-1-2.216-2.073c-0.031,0.225-0.058,0.448-0.088,0.673c-0.041,0.295-0.216,0.716-0.146,1.005
				c0.213,0.866,0.703,0.461,1.03,0.778c0.201,0.192,0.283,0.591,0.53,0.713c0.247,0.119,0.546,0.003,0.808,0.08
				c0.277,0.079,0.519,0.351,0.799,0.417c0.386,0.088,0.75-0.131,1.146-0.144c0.481-0.016,1.005,0.177,1.468,0.046
				C145.433,68.741,145.701,68.368,146.036,68.195z"/>
			<path fill="#EDD9C9" d="M141.294,60.95c-0.165,0.481-0.113,1.052,0.247,1.433c0.403,0.427,1.073,0.531,1.686,0.54
				c0.537,0.013,1.119-0.042,1.524-0.369c0.265-0.21,0.424-0.519,0.491-0.832c0.161-0.762-0.216-1.595-0.915-2.024
				c-0.542-0.332-1.46-0.481-2.051-0.159C141.839,59.78,141.437,60.53,141.294,60.95z"/>
			<path fill="#F98B10" d="M144.387,61.825c0.095-0.256,0.064-0.558-0.146-0.762c-0.237-0.226-0.631-0.278-0.99-0.284
				c-0.317-0.006-0.659,0.021-0.896,0.196c-0.156,0.108-0.25,0.273-0.291,0.441c-0.094,0.403,0.634,1.506,1.162,1.506
				C143.75,62.922,144.302,62.047,144.387,61.825z"/>
			<g>
				<path d="M144.42,65.229c0.052,0.021,0.116,0.046,0.186,0.08c0.067,0.034,0.125,0.07,0.174,0.101s0.088,0.052,0.119,0.039
					c0.031-0.012,0.042-0.063,0.015-0.137c-0.024-0.073-0.098-0.162-0.204-0.216c-0.107-0.052-0.219-0.055-0.292-0.031
					c-0.076,0.021-0.11,0.064-0.101,0.095C144.323,65.193,144.366,65.211,144.42,65.229z"/>
				<path d="M143.531,65.96c0.064,0.003,0.128-0.158,0.228-0.332c0.098-0.173,0.208-0.311,0.171-0.366
					c-0.018-0.024-0.076-0.024-0.152,0.018c-0.073,0.04-0.161,0.119-0.226,0.232c-0.061,0.11-0.088,0.226-0.085,0.311
					C143.47,65.906,143.498,65.958,143.531,65.96z"/>
				<ellipse transform="matrix(0.0259 0.9997 -0.9997 0.0259 206.4125 -79.7915)" cx="144.148" cy="66.016" rx="0.293" ry="0.118"/>

					<ellipse transform="matrix(-0.9933 -0.1156 0.1156 -0.9933 280.6672 148.7383)" cx="144.648" cy="66.228" rx="0.118" ry="0.32"/>
				<ellipse transform="matrix(-0.1261 0.992 -0.992 -0.1261 228.701 -67.368)" cx="144.023" cy="67.049" rx="0.23" ry="0.118"/>
				<path d="M143.546,66.766c0.063-0.013,0.097-0.104,0.079-0.206c-0.021-0.1-0.088-0.173-0.152-0.161
					c-0.067,0.016-0.1,0.107-0.079,0.208C143.412,66.708,143.482,66.781,143.546,66.766z"/>
				<path d="M145.049,67.558c-0.198,0.012-0.372-0.012-0.399,0.048c-0.012,0.031,0.018,0.08,0.095,0.12
					c0.072,0.042,0.188,0.076,0.317,0.07c0.127-0.01,0.24-0.052,0.311-0.101c0.067-0.049,0.094-0.101,0.079-0.128
					C145.417,67.509,145.247,67.552,145.049,67.558z"/>
				<path d="M144.162,67.765c-0.408-0.238-0.658-0.548-0.716-0.509c-0.024,0.015,0.006,0.122,0.104,0.262
					c0.093,0.144,0.264,0.317,0.493,0.451c0.229,0.134,0.46,0.201,0.631,0.216c0.174,0.018,0.28-0.006,0.28-0.037
					C144.961,68.079,144.567,68.012,144.162,67.765z"/>
				<path d="M143.756,68.204c-0.271-0.24-0.396-0.521-0.46-0.502c-0.031,0.009-0.04,0.098,0.003,0.231
					c0.04,0.131,0.14,0.302,0.296,0.445c0.158,0.146,0.338,0.228,0.472,0.255c0.137,0.031,0.222,0.016,0.229-0.015
					C144.308,68.551,144.019,68.451,143.756,68.204z"/>

					<ellipse transform="matrix(-0.5661 -0.8243 0.8243 -0.5661 173.2827 225.5043)" cx="145.991" cy="67.147" rx="0.118" ry="0.291"/>
				<ellipse transform="matrix(0.8393 0.5437 -0.5437 0.8393 59.7569 -68.9889)" cx="146.575" cy="66.586" rx="0.118" ry="0.316"/>
				<path d="M146.457,67.113c-0.077,0.076-0.101,0.174-0.055,0.223c0.045,0.046,0.146,0.021,0.223-0.055
					c0.072-0.077,0.098-0.174,0.051-0.22C146.63,67.016,146.533,67.037,146.457,67.113z"/>
				<path d="M141.988,65.229c-0.051,0.021-0.118,0.046-0.186,0.08c-0.067,0.034-0.127,0.07-0.174,0.101
					c-0.049,0.031-0.088,0.052-0.119,0.039c-0.031-0.012-0.043-0.063-0.018-0.137c0.027-0.073,0.097-0.162,0.204-0.216
					c0.106-0.052,0.222-0.055,0.296-0.031c0.075,0.021,0.109,0.064,0.1,0.095C142.083,65.193,142.041,65.211,141.988,65.229z"/>
				<path d="M142.878,65.96c-0.067,0.003-0.128-0.158-0.229-0.332c-0.098-0.173-0.207-0.311-0.171-0.366
					c0.018-0.024,0.077-0.024,0.149,0.018c0.077,0.04,0.162,0.119,0.226,0.232c0.063,0.11,0.088,0.226,0.085,0.311
					C142.937,65.906,142.912,65.958,142.878,65.96z"/>

					<ellipse transform="matrix(-0.0259 0.9997 -0.9997 -0.0259 211.935 -74.4906)" cx="142.261" cy="66.016" rx="0.293" ry="0.117"/>
				<ellipse transform="matrix(0.9934 -0.1145 0.1145 0.9934 -6.6492 16.6625)" cx="141.76" cy="66.228" rx="0.119" ry="0.32"/>
				<ellipse transform="matrix(0.124 0.9923 -0.9923 0.124 191.2541 -82.5516)" cx="142.384" cy="67.049" rx="0.23" ry="0.119"/>
				<path d="M142.863,66.766c-0.063-0.013-0.1-0.104-0.079-0.206c0.021-0.1,0.088-0.173,0.153-0.161
					c0.063,0.016,0.101,0.107,0.079,0.208C142.998,66.708,142.927,66.781,142.863,66.766z"/>
				<path d="M141.361,67.558c0.198,0.012,0.368-0.012,0.399,0.048c0.012,0.031-0.021,0.08-0.095,0.12
					c-0.073,0.042-0.188,0.076-0.317,0.07c-0.128-0.01-0.241-0.052-0.312-0.101c-0.07-0.049-0.097-0.101-0.082-0.128
					C140.992,67.509,141.16,67.552,141.361,67.558z"/>
				<path d="M142.245,67.765c0.412-0.238,0.659-0.548,0.716-0.509c0.028,0.015-0.002,0.122-0.1,0.262
					c-0.098,0.144-0.266,0.317-0.494,0.451c-0.229,0.134-0.463,0.201-0.634,0.216c-0.17,0.018-0.277-0.006-0.281-0.037
					C141.449,68.079,141.839,68.012,142.245,67.765z"/>
				<path d="M142.654,68.204c0.268-0.24,0.396-0.521,0.459-0.502c0.031,0.009,0.041,0.098-0.003,0.231
					c-0.042,0.131-0.14,0.302-0.298,0.445c-0.155,0.146-0.335,0.228-0.472,0.255c-0.134,0.031-0.223,0.016-0.229-0.015
					C142.098,68.551,142.391,68.451,142.654,68.204z"/>
				<ellipse transform="matrix(0.5744 -0.8186 0.8186 0.5744 4.7947 143.5156)" cx="140.417" cy="67.147" rx="0.119" ry="0.289"/>

					<ellipse transform="matrix(-0.8393 0.5437 -0.5437 -0.8393 293.3996 46.4449)" cx="139.835" cy="66.586" rx="0.118" ry="0.317"/>
				<ellipse transform="matrix(0.7061 -0.7081 0.7081 0.7061 -6.4737 118.7968)" cx="139.869" cy="67.197" rx="0.119" ry="0.196"/>
			</g>
			<path fill="#E3344E" d="M145.113,71.941c0,0.835-1.329,3.987-1.908,3.987c-0.58,0-1.911-3.152-1.911-3.987
				c0-0.838,1.411-2.195,1.911-2.195C143.702,69.746,145.113,71.103,145.113,71.941z"/>
			<path fill="#F28ABD" d="M143.205,75.028c-0.242,0-0.551,0.351-0.827,0.333c-1.597-0.107-3.093-2.917-2.883-2.24
				c0.247,0.792,1.74,2.483,3.146,3.2h1.127c1.405-0.717,2.898-2.408,3.143-3.2c0.216-0.695-1.36,2.277-3.003,2.243
				C143.674,75.357,143.446,75.028,143.205,75.028z"/>
		</g>
	</g>
	<g>
		<circle fill="#47230E" cx="128.38" cy="218.905" r="7.711"/>
		<path fill="#47230E" d="M160.807,221.001c0,4.258-3.453,7.711-7.711,7.711c-4.262,0-7.712-3.453-7.712-7.711
			c0-4.26,3.45-7.711,7.712-7.711C157.354,213.291,160.807,216.742,160.807,221.001z"/>
		<circle fill="#47230E" cx="165.342" cy="220.352" r="7.712"/>
		<circle fill="#47230E" cx="184.382" cy="220.676" r="7.711"/>
		<circle fill="#47230E" cx="115.149" cy="222.047" r="7.711"/>
		<circle fill="#47230E" cx="120.668" cy="215.815" r="4.538"/>
		<circle fill="#47230E" cx="151.213" cy="211.885" r="4.537"/>
		<circle fill="#47230E" cx="174.363" cy="219.124" r="5.764"/>
		<path fill="#47230E" d="M162.169,215.028c0,2.506-2.033,4.538-4.539,4.538c-2.505,0-4.534-2.032-4.534-4.538
			c0-2.505,2.029-4.535,4.534-4.535C160.136,210.493,162.169,212.523,162.169,215.028z"/>
		<circle fill="#47230E" cx="193.125" cy="216.421" r="4.537"/>
		<circle fill="#47230E" cx="199.681" cy="219.566" r="4.537"/>
		<path fill="#47230E" d="M149.407,217.591c0,5.248-4.255,9.504-9.503,9.504c-5.251,0-9.506-4.256-9.506-9.504
			c0-5.252,4.255-9.507,9.506-9.507C145.152,208.084,149.407,212.339,149.407,217.591z"/>
		<polygon fill="#47230E" points="204.218,230.609 107.471,230.609 107.471,222.754 195.788,219.566 204.218,220.352 		"/>
	</g>
	<g>
		<path fill="#4F7117" d="M158.042,211.206c29.504-24.978,82.699-0.186,71.897,37.347
			C205.642,236.427,192.562,199.956,158.042,211.206z"/>
		<path fill="#435C16" d="M176.152,210.496c4.286-0.187,8.474,0.171,12.408,1.042c3.953,0.826,7.583,2.329,10.881,4.015
			c0.412,0.216,0.819,0.433,1.226,0.646c0.405,0.21,0.811,0.42,1.188,0.673c0.771,0.479,1.53,0.948,2.276,1.415
			c0.751,0.463,1.434,1.006,2.137,1.493c0.698,0.5,1.393,0.975,2.027,1.515c0.646,0.521,1.28,1.036,1.901,1.539
			c0.629,0.497,1.189,1.052,1.771,1.561c0.569,0.521,1.144,1.015,1.68,1.524c0.527,0.521,1.042,1.033,1.545,1.529
			c4.005,4.015,6.929,7.574,8.951,10.027c1.994,2.482,3.112,3.847,3.226,3.768c0.098-0.07-0.82-1.579-2.646-4.205
			c-1.855-2.604-4.642-6.319-8.583-10.514c-0.497-0.521-1.005-1.051-1.523-1.597c-0.53-0.536-1.104-1.055-1.67-1.597
			c-0.579-0.533-1.138-1.112-1.769-1.635c-0.627-0.529-1.265-1.066-1.913-1.614c-0.634-0.564-1.342-1.066-2.045-1.594
			c-0.714-0.513-1.405-1.082-2.171-1.573c-0.765-0.491-1.539-0.99-2.325-1.494c-0.388-0.265-0.802-0.49-1.22-0.713
			c-0.417-0.229-0.835-0.457-1.259-0.686c-3.392-1.792-7.159-3.39-11.273-4.282c-4.097-0.936-8.467-1.32-12.921-1.128
			L176.152,210.496z"/>
		<path fill="#405715" d="M157.811,214.568c15.854-6.932,34.154,2.603,53.559,19.576c-18.462-21.308-36.42-32.572-53.327-22.938
			L157.811,214.568z"/>
		<path fill="#47230E" d="M162.169,215.028c0,2.506-2.033,4.538-4.539,4.538c-2.505,0-4.534-2.032-4.534-4.538
			c0-2.505,2.029-4.535,4.534-4.535C160.136,210.493,162.169,212.523,162.169,215.028z"/>
	</g>
</g>
<g>
</g>
<g>
</g>
<g>
</g>
<g>
</g>
<g>
</g>
<g>
</g>
</svg>
