<?xml version="1.0" encoding="utf-8"?>
<!-- Generator: Adobe Illustrator 16.0.0, SVG Export Plug-In . SVG Version: 6.00 Build 0)  -->
<!DOCTYPE svg PUBLIC "-//W3C//DTD SVG 1.1//EN" "http://www.w3.org/Graphics/SVG/1.1/DTD/svg11.dtd">
<svg class="plant-index" viewBox="0 0 193 285" enable-background="new 0 0 193 285" xml:space="preserve">
<path fill="#8D8B6E" d="M53.769,267.599c0,3.19,18.988,5.777,42.417,5.777c23.426,0,42.413-2.587,42.413-5.777
	s-18.987-5.778-42.413-5.778C72.757,261.82,53.769,264.408,53.769,267.599z"/>
<g>
	<g>
		<path fill="none" stroke="#140906" stroke-width="1.9012" stroke-miterlimit="10" d="M76.037,191.182"/>
		<path fill="#4D1F03" stroke="#140906" stroke-width="2.8518" stroke-miterlimit="10" d="M49.883,196.013
			c-0.921-2.342,0.354-7.273,5.805-8.627c3.861-0.96,6.564,4.428,9.699,3.658c0.068-0.016,2.57-3.492,3.368-4.009
			c1.491-0.978,3.886-1.483,5.59-1.514c2.171-0.044,3.592,1.326,5.494,1.524c2.981,0.309,1.613,0.285,4.313-0.966
			c2.953-1.372,5.593-3.984,9.338-2.913c1.545,0.438,2.441,2.711,4.059,2.932c2.932,0.406,2.304-1.884,4.672-2.932
			c3.679-1.625,7.09-0.109,9.908,2.339c3.664,3.188,2.694,0.089,7.918-0.686c4.55-0.673,8.367-2.781,11.893,1.167
			c1.913,2.138,5.309,5.823,5.149,11.657C136.928,203.477,49.883,196.013,49.883,196.013z"/>
		<path fill="none" stroke="#140906" stroke-width="1.9012" stroke-miterlimit="10" d="M84.153,186.078"/>
		<path fill="none" stroke="#140906" stroke-width="1.9012" stroke-miterlimit="10" d="M112.681,191.182"/>
		<path fill="#D1431E" stroke="#140906" stroke-width="2.8518" stroke-miterlimit="10" d="M137.091,197.644
			c0,20.733-6.53,65.755-44.07,65.755c-31.479,0-43.137-45.022-43.137-65.755H137.091z"/>
		<path fill="#E4C1AB" d="M83.385,244.746c-13.849-10.234-20.698-33.007-14.031-47.102H49.883c0,20.733,11.659,65.755,43.137,65.755
			c10.013,0,17.802-3.224,23.868-8.312C108.769,253.927,90.733,250.171,83.385,244.746z"/>

			<rect x="76.037" y="257.342" fill="#D1431E" stroke="#140906" stroke-width="2.8518" stroke-miterlimit="10" width="38.63" height="10.257"/>
		<path fill="#FFFFFF" d="M129.375,204.64c0,0,3.732,32.18-15.652,42.237c-3.16-1.297,0.584-9.753,4.839-16.354
			c3.817-5.931,4.285-18.783,4.285-18.783l-15.392-9.432L129.375,204.64z"/>
		<path fill="none" stroke="#140906" stroke-width="1.9012" stroke-miterlimit="10" d="M102.341,186.078"/>
		<path fill="none" stroke="#140906" stroke-width="1.9012" stroke-miterlimit="10" d="M95.354,186.078"/>
		<g>
			<path fill="#7E9926" stroke="#140906" stroke-width="2.4046" stroke-miterlimit="10" d="M130.216,20.524"/>
			<path fill="#8DA490" d="M130.216,20.524"/>
		</g>
	</g>
	<g>

			<path fill="none" stroke="#140906" stroke-width="1.3832" stroke-linecap="round" stroke-linejoin="round" stroke-miterlimit="10" d="
			M124.364,212.899c0,5.483-4.12,9.929-9.206,9.929c-5.086,0-9.206-4.445-9.206-9.929"/>

			<path fill="none" stroke="#140906" stroke-width="1.3832" stroke-linecap="round" stroke-linejoin="round" stroke-miterlimit="10" d="
			M81.312,212.899c0,5.483-4.125,9.929-9.21,9.929c-5.082,0-9.202-4.445-9.202-9.929"/>
		<path fill="#FC936F" d="M78.368,229.332c0,1.65-2.583,2.988-5.768,2.988c-3.189,0-5.769-1.338-5.769-2.988
			c0-1.653,2.58-2.992,5.769-2.992C75.785,226.34,78.368,227.679,78.368,229.332z"/>
		<path fill="#FC936F" d="M121.988,229.332c0,1.65-2.583,2.988-5.772,2.988s-5.772-1.338-5.772-2.988
			c0-1.653,2.583-2.992,5.772-2.992S121.988,227.679,121.988,229.332z"/>

			<path fill="none" stroke="#140906" stroke-width="1.0139" stroke-linecap="round" stroke-linejoin="round" stroke-miterlimit="10" d="
			M88.96,226.34c0,0,0.359,4.724,5.444,4.724c5.089,0,5.221-4.724,5.221-4.724"/>
		<g>
			<g>
				<path fill="#140906" d="M123.992,211.562l5.178-0.678l-4.434,2.755c-0.531,0.329-1.227,0.166-1.557-0.363
					c-0.33-0.53-0.165-1.226,0.364-1.555C123.684,211.635,123.839,211.583,123.992,211.562z"/>
			</g>
			<g>
				<path fill="#140906" d="M124.732,213.104l4.802,1.104l-4.802,1.104c-0.609,0.14-1.219-0.241-1.357-0.851
					c-0.14-0.61,0.242-1.218,0.851-1.357C124.395,213.066,124.571,213.07,124.732,213.104z"/>
			</g>
		</g>
		<g>
			<g>
				<path fill="#140906" d="M62.239,213.64l-4.434-2.755l5.174,0.678c0.618,0.08,1.053,0.647,0.973,1.265
					c-0.08,0.618-0.647,1.054-1.266,0.973C62.525,213.779,62.369,213.72,62.239,213.64z"/>
			</g>
			<g>
				<path fill="#140906" d="M62.242,215.312l-4.804-1.104l4.804-1.104c0.609-0.14,1.217,0.242,1.356,0.851
					c0.14,0.61-0.239,1.218-0.848,1.357C62.577,215.352,62.399,215.348,62.242,215.312z"/>
			</g>
		</g>
	</g>
</g>
<g>
	<g>
		<path fill="#67A128" d="M120.42,148.57c-7.023,1.041-11.836-9.885-5.463-18.73c6.374-8.844,19.641-12.616,34.988-11.706
			c15.348,0.91,27.314,4.158,36.42-0.132c-8.324,10.927-16.52,13.529-23.674,16.26c-7.152,2.731-11.301,9.104-13.52,13.787
			c-2.217,4.683-6.434,12.747-16.421,12.747C122.762,160.797,120.03,153.383,120.42,148.57z"/>
		<path fill="#418621" d="M157.879,124.508c-28.744,3.642-45.132,32.256-45.914,61.391l-4.291,0.91
			C108.357,158.586,125.22,127.102,157.879,124.508z"/>
	</g>
	<g>
		<path fill="#317921" d="M120.346,41.627c-14.753,18.992-24.18,64.412-18.456,143.362h5.345
			c-5.381-54.153-5.805-110.582,14.141-142.145L120.346,41.627z"/>
		<path fill="#C5E1E2" d="M118.514,45.689c-0.869,5.983,6.762,11.184,15.52,8.93c8.759-2.254,16.562-14.047,16.562-23.845
			s-1.908-16.126-1.475-22.717c0,0-4.074,4.683-12.572,6.763c-8.498,2.081-21.072,3.292-28.008,9.971
			c-6.937,6.678-8.064,16.65-3.383,21.246C109.841,50.632,117.125,47.943,118.514,45.689z"/>
		<path fill="#E4EEEE" d="M133.848,18.629c0,0-14.1,1.488-21.7,8.367c-7.6,6.879-7.313,14.338-4.915,17.059
			c0,0,0.174-8.596,7.17-15.488S133.848,18.629,133.848,18.629z"/>
		<path fill="#8FCED6" d="M143.742,20.064c-1.939-0.441-3.316,1.496-4.422,4.227c-0.82,2.027-4.942,5.203-10.209,7.316
			c-5.269,2.113-9.597,4.585-8.765,8.682c0.83,4.097,8.244,5.463,13.643,0.976c5.398-4.487,9.365-11.446,10.404-14.763
			C145.434,23.186,145.174,20.389,143.742,20.064z"/>
		<path fill="#F7C019" d="M134.55,9.785c2.062-0.366,2.786,2.782,2.76,6.784c-0.057,8.326-1.628,13.945-4.484,20.579
			c-2.436,5.658-8.678,6.633-10.967,4.085c-2.309-2.571-2.397-7.17,2.709-12.603c4.645-4.941,7.199-8.993,7.671-12.375
			C132.711,12.874,132.843,10.086,134.55,9.785z"/>
	</g>
	<g>
		<path fill="#317921" d="M62.444,56.438h2.08c-8.454,34.337,25.981,78.914,25.721,129.724l-5.048,0.711
			C83.725,118.714,53.598,100.836,62.444,56.438z"/>
		<path fill="#C5E1E2" d="M98.395,13.693c0,0-6.416,2.514-7.803,11.358c-1.388,8.845,0.087,20.813-3.295,28.009
			s-17.256,12.834-24.105,5.463c-6.938,4.248-15.175-0.088-16.909-7.891c-1.735-7.804,1.564-17.472,12.572-25.321
			C70.649,16.902,83.046,14.733,98.395,13.693z"/>
		<path fill="#8FCED6" d="M60.37,44.062c-2.73,2.685-1.756,9.885,5.334,9.365c7.088-0.521,8.193-5.463,10.73-10.536
			c2.536-5.073,6.594-10.296,4.682-12.487c-1.912-2.19-5.568,2.276-8.994,6.796C68.695,41.72,64.208,40.29,60.37,44.062z"/>
		<path fill="#F7C019" d="M77.758,20.454c2.092-0.008,2.27,3.217,1.562,7.156c-1.475,8.194-5.272,11.472-7.599,18.557
			c-1.923,5.853-8.244,7.489-10.967,4.085c-2.158-2.699-2.002-8.448,3.955-12.93c5.419-4.077,8.627-7.633,9.668-10.885
			C75.417,23.186,76.024,20.46,77.758,20.454z"/>
	</g>
	<g>
		<path fill="#67A128" d="M92.76,129.798c-5.377,10.926-17.69,3.463-20.465-11.795c-2.773-15.259,4.51-42.142,21.332-61.564
			c-2.602,8.671-2.109,20.469,2.326,29.832c4.437,9.363,12.209,19.737,12.035,33.09C107.817,132.712,96.402,135.523,92.76,129.798z"
			/>
		<path fill="#418621" d="M86.993,77.293c-1.95,14.047,0.65,30.826,5.463,47.215c4.813,16.388,10.016,38.24,6.113,61.654h-2.615
			c2.746-25.365,0.145-38.717-5.318-59.681C85.172,105.518,83.433,94.385,86.993,77.293z"/>
	</g>
	<g>
		<path fill="#89B740" d="M131.086,66.498c3.642,20.551,1.041,46.434-5.203,59.313c-6.631,13.679-21.156,18.729-28.441,7.108
			c-7.629,1.041-12.243-5.467-11.445-13.527c0.78-7.889,6.416-15.608,17.516-21.851S130.739,79.852,131.086,66.498z"/>
		<path fill="#67A128" d="M127.965,86.271c-1.27,11.964-7.713,16.24-14.17,23.363c-23.586,26.013-23.203,56.412-20.602,76.528
			h-2.949c-5.289-32.691,3.902-59.311,20.377-75.787C124.76,96.237,125.753,96.479,127.965,86.271z"/>
	</g>
	<g>
		<path fill="#67A128" d="M71.721,158.24c3.711,7.755-9.049,14.31-25.785,2.168c-16.736-12.141-26.361-35.812-26.361-35.812
			s7.893,7.688,19.077,10.391c11.187,2.704,23.765,3.488,33.301,9.729C81.488,150.957,78.256,160.842,71.721,158.24z"/>
		<path fill="#418621" d="M35.096,138.295c12.588,6.485,22.466,7.268,34.078,15.934c8.724,6.51,14.112,20.421,16.734,29.98h-3.338
			c-7.544-25.363-15.348-30.306-27.053-35.769C43.811,142.978,38.922,140.729,35.096,138.295z"/>
	</g>
	<g>
		<path fill="#89B740" d="M73.856,145.319c-1.82,7.804-12.226,8.064-18.338,4.943c-6.114-3.122-14.568-16.649-18.34-24.453
			c-3.772-7.804-12.357-20.42-18.86-24.973c0,0,8.324,1.301,25.103,6.763c16.779,5.463,28.518,9.127,34.729,18.882
			C82.441,133.223,80.88,146.75,73.856,145.319z"/>
		<path fill="#67A128" d="M37.178,111.891c29.654,15.348,50.465,36.549,43.351,73.098h-3.29
			C83.221,148.44,64.622,128.28,37.178,111.891z"/>
	</g>
	<path fill="#E4EEEE" d="M70.906,21.3c0,0-13.137,5.333-18.534,14.047c-5.398,8.714-3.057,15.803,0,17.754
		c0,0-2.213-8.311,2.602-16.869C59.788,27.675,70.906,21.3,70.906,21.3z"/>
	<path fill="#F6E96F" d="M66.375,38.188c0,0-6.416,4.199-5.072,9.798c0.521,2.168,3.023,1.561,2.443-0.953
		C63.167,44.519,64.295,40.312,66.375,38.188z"/>
	<path fill="#F6E96F" d="M76.141,24.162c-0.495,1.63-1.984,5.365-2.992,6.536c0,0,2.269-2.081,3.675-5.105
		c0.938-2.018,1.105-3.544,0.521-3.674C76.758,21.788,76.517,22.922,76.141,24.162z"/>
	<path fill="#F6E96F" d="M125.917,28.996c0,0-5.748,5.075-3.615,10.424c0.824,2.071,3.215,1.109,2.281-1.292
		C123.648,35.721,124.163,31.396,125.917,28.996z"/>
	<path fill="#F6E96F" d="M133.675,13.752c-0.183,1.695-0.951,5.64-1.724,6.979c0,0,1.896-2.487,2.662-5.698
		c0.518-2.167,0.426-3.69-0.172-3.711C133.84,11.303,133.816,12.464,133.675,13.752z"/>
</g>
<g>
</g>
<g>
</g>
<g>
</g>
<g>
</g>
<g>
</g>
<g>
</g>
</svg>
