<?xml version="1.0" encoding="UTF-8" standalone="no"?>
<svg
   xmlns:dc="http://purl.org/dc/elements/1.1/"
   xmlns:cc="http://creativecommons.org/ns#"
   xmlns:rdf="http://www.w3.org/1999/02/22-rdf-syntax-ns#"
   xmlns:svg="http://www.w3.org/2000/svg"
   xmlns="http://www.w3.org/2000/svg"
   viewBox="0 0 566.93335 566.93335"
   height="566.93335"
   width="566.93335"
   xml:space="preserve"
   id="svg2"
   version="1.1"><metadata
     id="metadata8"><rdf:RDF><cc:Work
         rdf:about=""><dc:format>image/svg+xml</dc:format><dc:type
           rdf:resource="http://purl.org/dc/dcmitype/StillImage" /></cc:Work></rdf:RDF></metadata><defs
     id="defs6" /><g
     transform="matrix(1.3333333,0,0,-1.3333333,0,566.93333)"
     id="g10"><g
       transform="scale(0.1)"
       id="g12"><path
         id="path14"
         style="fill:#5fbe58;fill-opacity:1;fill-rule:nonzero;stroke:none"
         d="m 2187.89,1773.87 c 0,0 128.52,1418.38 100.47,1658.81 -21.37,183.09 -180.63,369.59 -409.01,369.59 -238.86,0 -411.26,-150.77 -472.55,-390.8 -114.89,-449.65 242.32,-1637.6 242.32,-1637.6 h 538.77" /><path
         id="path16"
         style="fill:#351f17;fill-opacity:1;fill-rule:nonzero;stroke:none"
         d="m 2187.89,1773.87 24.9,-2.26 c 0,0.07 26.13,288.4 52.26,627.23 13.07,169.42 26.13,351.46 35.94,516.46 9.81,165.05 16.36,312.9 16.36,414.69 -0.01,44.51 -1.22,80.07 -4.16,105.58 -11.48,97.66 -59.11,194.83 -134.22,268.43 -75.03,73.55 -178.49,123.33 -299.62,123.27 -124.67,0.1 -233.83,-39.66 -318.95,-111.24 -85.19,-71.53 -146.14,-174.17 -177.83,-298.37 -16.67,-65.36 -23.53,-143.58 -23.55,-230.44 0.01,-134.98 16.75,-290.81 41.72,-449.06 74.95,-474.54 224.29,-970.91 224.44,-971.49 l 5.34,-17.8 h 580.2 l 2.07,22.74 -24.9,2.26 v 25 h -538.77 v -25 l 23.94,7.2 c 0,0 -1.01,3.35 -2.94,9.89 -14.46,49.06 -79.87,274.83 -141.57,550.18 -30.85,137.66 -60.78,287.72 -82.95,434.15 -22.19,146.4 -36.6,289.23 -36.59,411.93 -0.02,84.16 6.84,158.85 22.01,218.07 29.6,115.84 85.49,208.59 161.54,272.45 76.12,63.81 172.6,99.44 286.79,99.53 107.25,-0.05 197.61,-43.52 264.65,-109 66.95,-65.42 109.63,-153.05 119.53,-238.49 2.55,-21.78 3.84,-56.33 3.83,-99.79 0,-99.76 -6.5,-247.2 -16.28,-411.72 -14.67,-246.84 -36.7,-532.45 -55.06,-756.28 -9.17,-111.92 -17.43,-208.4 -23.4,-276.89 -2.98,-34.25 -5.39,-61.5 -7.05,-80.18 -1.66,-18.69 -2.58,-28.77 -2.58,-28.8 l 24.9,-2.25 v 25 -25" /><path
         id="path18"
         style="fill:#76c96d;fill-opacity:1;fill-rule:nonzero;stroke:none"
         d="m 1591.99,2212.16 c -82.11,374.58 -174.51,903.58 -112.71,1168.43 27.73,119.01 71.13,228.81 155.06,281.14 67.8,42.29 113.03,57.63 141.92,57.63 64.81,0 47.44,-77.23 18.31,-100.99 -114.73,-93.52 -165.41,-249.89 -181.23,-400.2 -17.97,-171.05 13.71,-338.24 33.01,-507.08 19.7,-172.27 12.99,-342.9 -54.36,-498.93" /><path
         id="path20"
         style="fill:#489d4a;fill-opacity:1;fill-rule:nonzero;stroke:none"
         d="m 1765.82,1798.87 c 7.16,7.66 14.12,15.52 20.89,23.55 1.22,-8.87 2.31,-16.76 3.27,-23.55 -8.13,0 -16.13,0 -24.16,0 m 438.85,1040.32 c -23.16,3.65 -47.56,5.54 -73.16,5.54 -0.03,0 -0.05,0 -0.08,0 -0.02,0 -0.04,0 -0.05,0 -12.75,0 -25.18,-0.4 -37.29,-1.21 23.77,310.33 -6.19,630.94 -140.46,910.64 -2.78,5.78 -5.62,11.6 -8.51,17.45 78.69,-13.78 146.03,-51.72 198.88,-103.34 66.95,-65.42 109.63,-153.05 119.53,-238.49 2.55,-21.78 3.84,-56.33 3.83,-99.79 0,-81.01 -4.29,-193.46 -11.14,-320.97 -0.87,-2.21 -1.74,-4.42 -2.6,-6.64 -20.44,-52.7 -37.17,-108.17 -48.95,-163.19" /><path
         id="path22"
         style="fill:#2b1b13;fill-opacity:1;fill-rule:nonzero;stroke:none"
         d="m 2256.22,3009.02 c 6.85,127.51 11.14,239.96 11.14,320.97 0.01,43.46 -1.28,78.01 -3.83,99.79 -9.9,85.44 -52.58,173.07 -119.53,238.49 -52.85,51.62 -120.19,89.56 -198.88,103.34 -4.47,9.02 -9.09,18.12 -13.85,27.24 200.33,-25.69 337.38,-197.31 357.09,-366.17 6.98,-59.87 4.26,-192.83 -3.77,-358.7 -10.06,-20.96 -19.54,-42.7 -28.37,-64.96" /><path
         id="path24"
         style="fill:#54c5bb;fill-opacity:1;fill-rule:nonzero;stroke:none"
         d="m 1587.71,571.711 c 30.04,-132.723 66.49,-232.41 108.31,-232.41 h 889.92 c 37.28,0 67.58,99.687 91.36,232.41 H 1587.71" /><path
         id="path26"
         style="fill:#351f17;fill-opacity:1;fill-rule:nonzero;stroke:none"
         d="m 1587.71,571.711 -24.38,-5.52 c 15.24,-67.211 32.01,-126.312 51.2,-170.453 9.68,-22.097 19.83,-40.547 32.14,-55.039 6.2,-7.23 13.04,-13.551 21.21,-18.39 8.1,-4.829 17.87,-8.039 28.14,-8.008 h 889.92 c 10.33,-0.051 20.03,3.64 27.59,8.789 6.7,4.519 12.18,10.082 17.09,16.281 8.54,10.867 15.53,23.879 22.13,39.098 9.82,22.793 18.53,50.601 26.67,82.5 8.11,31.883 15.58,67.801 22.49,106.332 l 5.27,29.41 H 1556.42 l 6.91,-30.52 24.38,5.52 v -25 H 2677.3 v 25 l -24.6,4.41 c -11.73,-65.57 -25.17,-122.781 -39.5,-161.789 -7.07,-19.453 -14.55,-34.32 -20.7,-42.512 -3.02,-4.109 -5.62,-6.441 -6.85,-7.23 l -0.65,-0.391 -0.12,-0.058 1.05,-2.801 0.01,2.949 -1.06,-0.148 1.05,-2.801 0.01,2.949 h -889.92 c -0.2,0.043 -0.71,-0.07 -2.72,1.082 -3.45,1.867 -10.26,8.449 -17.28,19.828 -10.7,16.981 -22.16,43.723 -32.95,76.692 -10.85,33 -21.24,72.328 -30.98,115.339 l -24.38,-5.519 v -25 25" /><path
         id="path28"
         style="fill:#54c5bb;fill-opacity:1;fill-rule:nonzero;stroke:none"
         d="m 2828.01,1325.06 c -128.24,0 -1378.48,0 -1438.58,0 -96.21,0 -196.34,448.81 -84.16,448.81 80.14,0 1438.58,0 1546.76,0 108.18,0 64.12,-448.81 -24.02,-448.81" /><path
         id="path30"
         style="fill:#351f17;fill-opacity:1;fill-rule:nonzero;stroke:none"
         d="m 2828.01,1325.06 v 25 c -128.24,0 -1378.48,0 -1438.58,0 -0.78,0.01 -1.79,0.13 -3.43,0.75 -3.03,1.1 -8.13,4.35 -13.94,10.39 -10.25,10.48 -22.14,28.84 -33.05,51.81 -16.5,34.49 -31.3,79.26 -41.73,124.93 -10.48,45.65 -16.62,92.4 -16.6,130.62 -0.1,28.45 3.67,52.26 9.55,65.68 2.87,6.76 5.99,10.61 8.15,12.32 1.1,0.89 1.98,1.36 2.96,1.71 0.98,0.34 2.13,0.59 3.93,0.6 80.14,0 1438.57,0 1546.76,0 2.03,-0.03 3.31,-0.35 4.89,-1.08 1.37,-0.66 3,-1.75 4.93,-3.66 3.35,-3.3 7.43,-9.28 11.12,-17.74 5.59,-12.67 10.27,-30.62 13.28,-51.55 3.04,-20.95 4.54,-44.92 4.54,-70.07 0.04,-61.21 -8.93,-129.59 -23.66,-180.66 -7.27,-25.48 -16.17,-46.67 -24.67,-59.56 -4.18,-6.46 -8.23,-10.71 -10.9,-12.67 -2.8,-2 -3.47,-1.78 -3.55,-1.82 v -50 c 12.75,-0.04 24.46,4.95 33.48,11.78 8.01,6.01 14.54,13.41 20.38,21.73 10.16,14.58 18.33,32.23 25.51,52.32 10.7,30.12 18.93,65.8 24.63,103.54 5.68,37.73 8.77,77.45 8.77,115.34 -0.07,47.28 -4.61,91.42 -16.23,126.59 -5.93,17.58 -13.56,33.21 -25.18,45.87 -5.81,6.28 -12.75,11.77 -20.84,15.65 -8.08,3.89 -17.26,6.01 -26.5,5.99 -108.19,0 -1466.62,0 -1546.76,0 -7.03,0 -14.05,-1.14 -20.61,-3.46 -11.54,-4.05 -21.16,-11.68 -28.19,-20.6 -10.61,-13.49 -16.5,-29.59 -20.38,-47.38 -3.81,-17.82 -5.39,-37.6 -5.4,-58.87 0.01,-35.27 4.45,-74.65 12.07,-114.35 11.49,-59.56 30.01,-119.56 52.92,-166.44 11.54,-23.47 24.06,-43.7 38.63,-59.42 7.32,-7.84 15.23,-14.61 24.31,-19.75 9.04,-5.11 19.56,-8.55 30.81,-8.54 60.1,0 1310.33,0 1438.58,0 v 25" /><path
         id="path32"
         style="fill:#44aba5;fill-opacity:1;fill-rule:nonzero;stroke:none"
         d="m 2828.01,1350.06 v 0 c -64.12,0 -408.74,0 -744.85,0 -336.1,0 -663.68,0 -693.73,0 -0.78,0.01 -1.79,0.13 -3.43,0.75 -3.03,1.1 -8.13,4.35 -13.94,10.39 -10.25,10.48 -22.14,28.84 -33.05,51.81 -16.5,34.49 -31.3,79.26 -41.73,124.93 -10.48,45.65 -16.62,92.4 -16.6,130.62 -0.1,28.45 3.67,52.26 9.55,65.68 2.87,6.76 5.99,10.61 8.15,12.32 1.1,0.89 1.98,1.36 2.96,1.71 0.98,0.34 2.13,0.59 3.93,0.6 8.43,0 30.94,0 64.67,0 12.21,-130.77 82.57,-300.93 333.36,-300.93 54.25,0 888.61,0 1170,0 -1.92,-8.27 -3.98,-16.24 -6.17,-23.83 -7.27,-25.48 -16.17,-46.67 -24.67,-59.56 -4.18,-6.46 -8.23,-10.71 -10.9,-12.67 -2.8,-2 -3.47,-1.78 -3.55,-1.82 v 0" /><path
         id="path34"
         style="fill:#2d1c14;fill-opacity:1;fill-rule:nonzero;stroke:none"
         d="m 1363.27,1335.5 c -86.49,67.42 -159.99,438.37 -58,438.37 8.28,0 30.22,0 62.99,0 0.34,-8.13 0.89,-16.49 1.68,-25 -33.73,0 -56.24,0 -64.67,0 -1.8,-0.01 -2.95,-0.26 -3.93,-0.6 -0.98,-0.35 -1.86,-0.82 -2.96,-1.71 -2.16,-1.71 -5.28,-5.56 -8.15,-12.32 -5.88,-13.42 -9.65,-37.23 -9.55,-65.68 -0.02,-38.22 6.12,-84.97 16.6,-130.62 10.43,-45.67 25.23,-90.44 41.73,-124.93 10.91,-22.97 22.8,-41.33 33.05,-51.81 5.81,-6.04 10.91,-9.29 13.94,-10.39 1.64,-0.62 2.65,-0.74 3.43,-0.75 30.05,0 357.63,0 693.73,0 336.11,0 680.73,0 744.85,0 H 1361.83 l 1.44,-14.56 m 1490.63,3.05 0.71,11.51 h -26.6 c 0.08,0.04 0.75,-0.18 3.55,1.82 2.67,1.96 6.72,6.21 10.9,12.67 8.5,12.89 17.4,34.08 24.67,59.56 2.19,7.59 4.25,15.56 6.17,23.83 9.15,0 17.71,0 25.65,0 -10.81,-48.69 -26.34,-89.32 -45.05,-109.39" /><path
         id="path36"
         style="fill:#54c5bb;fill-opacity:1;fill-rule:nonzero;stroke:none"
         d="m 2643.65,431.461 c -128.22,0 -961.72,0 -1021.81,0 -143.73,0 -232.41,893.599 -232.41,893.599 h 1438.58 c 0,0 -56.12,-893.599 -184.36,-893.599" /><path
         id="path38"
         style="fill:#351f17;fill-opacity:1;fill-rule:nonzero;stroke:none"
         d="m 2643.65,431.461 v 25 c -128.23,0 -961.72,0 -1021.81,0 -1.25,0.008 -2.52,0.199 -4.32,0.891 -3.43,1.257 -8.92,4.898 -15.22,11.988 -11.93,13.16 -25.71,37.492 -38.62,69.16 -22.82,55.5 -44.02,133.289 -62.45,217.969 -27.69,127.133 -49.48,270.111 -64.28,381.121 -7.41,55.51 -13.07,103.05 -16.88,136.68 -1.91,16.81 -3.35,30.15 -4.31,39.28 -0.49,4.56 -0.85,8.07 -1.09,10.43 -0.24,2.36 -0.36,3.54 -0.36,3.55 l -24.88,-2.47 v -25 h 1438.58 v 25 l -24.95,1.57 c -0.01,-0.01 -0.22,-3.42 -0.66,-9.92 -3.29,-48.74 -19.15,-269.28 -49.05,-476.718 -14.92,-103.64 -33.45,-204.16 -55.18,-277.16 -10.77,-36.422 -22.55,-66.023 -33.79,-84.523 -5.54,-9.25 -10.94,-15.579 -14.81,-18.7 -1.92,-1.589 -3.4,-2.39 -4.32,-2.757 -0.93,-0.372 -1.26,-0.383 -1.6,-0.391 v -50 c 7.65,-0.02 15.16,1.73 21.83,4.66 12.99,5.758 22.84,15.188 31.46,26.258 15.99,20.891 28.54,49.062 40.38,83.57 20.49,60.25 37.58,139.813 52.15,226.039 43.55,258.402 63.44,576.062 63.48,576.502 l 1.66,26.57 H 1361.83 l 2.73,-27.47 c 0.03,-0.36 22.22,-224.13 62.57,-448.75 20.21,-112.391 44.84,-224.84 74.09,-310.809 14.71,-43.062 30.37,-79.461 48.52,-106.98 9.14,-13.75 18.92,-25.41 30.6,-34.403 11.53,-8.918 25.85,-15.218 41.5,-15.187 60.09,0 893.58,0 1021.81,0 v 25" /><path
         id="path40"
         style="fill:#44aba5;fill-opacity:1;fill-rule:nonzero;stroke:none"
         d="m 2643.65,431.461 v 25 c -64.11,0 -304.54,0 -536.46,0 -83.28,0 -165.44,0 -237.97,0 -65.8,45.187 -122.05,103.328 -162.46,177.68 -81.51,149.918 -101.68,331.031 -65.16,497.089 14.68,66.74 44.12,122.71 84.1,168.83 h 297.33 c -36,-13.79 -70.25,-31.75 -101.53,-56.83 -123.37,-98.89 -145.52,-296.73 -111.5,-441.039 35.72,-151.543 150.88,-269.25 302.95,-303.41 46.57,-10.472 93.5,-15.39 140.26,-15.39 162.66,0 322.88,59.668 455.58,153.347 3.36,2.371 6.69,4.774 9.99,7.203 -6.5,-29.48 -13.38,-56.82 -20.61,-81.109 -10.77,-36.422 -22.55,-66.023 -33.79,-84.523 -5.54,-9.25 -10.94,-15.579 -14.81,-18.7 -1.92,-1.589 -3.4,-2.39 -4.32,-2.757 -0.93,-0.372 -1.26,-0.383 -1.6,-0.391 v -25" /><path
         id="path42"
         style="fill:#2d1c14;fill-opacity:1;fill-rule:nonzero;stroke:none"
         d="m 2643.65,431.461 v 25 c 0.34,0.008 0.67,0.019 1.6,0.391 0.92,0.367 2.4,1.168 4.32,2.757 3.87,3.121 9.27,9.45 14.81,18.7 11.24,18.5 23.02,48.101 33.79,84.523 7.23,24.289 14.11,51.629 20.61,81.109 10.48,7.707 20.67,15.68 30.58,23.879 -27.43,-134.699 -62.47,-236.359 -105.71,-236.359 m 0,0 h -734.86 c -13.52,7.848 -26.73,16.18 -39.57,25 72.53,0 154.69,0 237.97,0 231.92,0 472.35,0 536.46,0 v -25 M 2023.03,1300.06 H 1725.7 c 7.52,8.68 15.41,17.01 23.66,25 h -359.93 716.06 c -28.12,-6.84 -55.77,-14.78 -82.46,-25" /><path
         id="path44"
         style="fill:#379491;fill-opacity:1;fill-rule:nonzero;stroke:none"
         d="m 1621.84,456.461 c -1.25,0.008 -2.52,0.199 -4.32,0.891 -3.43,1.257 -8.92,4.898 -15.22,11.988 -11.93,13.16 -25.71,37.492 -38.62,69.16 -22.82,55.5 -44.02,133.289 -62.45,217.969 -27.69,127.133 -49.48,270.111 -64.28,381.121 -7.41,55.51 -13.07,103.05 -16.88,136.68 -1.12,9.83 -2.08,18.48 -2.87,25.79 h 308.5 c -39.98,-46.12 -69.42,-102.09 -84.1,-168.83 -36.52,-166.058 -16.35,-347.171 65.16,-497.089 40.41,-74.352 96.66,-132.493 162.46,-177.68 -129.42,0 -228.13,0 -247.38,0" /><path
         id="path46"
         style="fill:#261912;fill-opacity:1;fill-rule:nonzero;stroke:none"
         d="m 1908.79,431.461 h -286.95 c -143.73,0 -232.41,893.599 -232.41,893.599 h 359.93 c -8.25,-7.99 -16.14,-16.32 -23.66,-25 h -308.5 c 0.79,-7.31 1.75,-15.96 2.87,-25.79 3.81,-33.63 9.47,-81.17 16.88,-136.68 14.8,-111.01 36.59,-253.988 64.28,-381.121 18.43,-84.68 39.63,-162.469 62.45,-217.969 12.91,-31.668 26.69,-56 38.62,-69.16 6.3,-7.09 11.79,-10.731 15.22,-11.988 1.8,-0.692 3.07,-0.883 4.32,-0.891 19.25,0 117.96,0 247.38,0 12.84,-8.82 26.05,-17.152 39.57,-25" /><path
         id="path48"
         style="fill:#60c9c2;fill-opacity:1;fill-rule:nonzero;stroke:none"
         d="m 2270.64,555.602 c -57.97,0 -115.75,8.789 -169.68,26.398 -145.8,47.621 -221.49,205.02 -220.51,358.719 0.53,82.041 22.64,171.691 72.27,235.851 45.11,58.28 117.67,103.69 184.72,119 7.91,1.8 17.62,3.28 28.78,4.49 h 297.16 c 57.21,-2.34 106.77,-4.95 134.32,-6.03 115.87,-4.57 158.28,-66.29 150.85,-177.33 -7.51,-112.78 -11.85,-303.411 -100.41,-403.868 -92.17,-104.582 -235.51,-157.242 -377.5,-157.23" /><path
         id="path50"
         style="fill:#453022;fill-opacity:1;fill-rule:nonzero;stroke:none"
         d="m 2463.38,1300.06 h -297.16 c 30.04,3.24 70.64,4.46 115.28,4.46 58.59,0 124.14,-2.1 181.88,-4.46" /><path
         id="path52"
         style="fill:#60c9c2;fill-opacity:1;fill-rule:nonzero;stroke:none"
         d="m 2148.27,1488.68 c -193.92,0 -373.21,1.08 -450.3,3.89 -110.2,4 -305.49,221.81 -238.42,227.2 72.34,5.83 859.25,8.73 1142.56,8.73 49.14,0 83.17,-0.09 95.64,-0.26 115.86,-1.6 154.52,-33.13 160.3,-72.58 8.02,-54.71 22.03,-160.28 -44.07,-162.29 -82.19,-2.49 -388.88,-4.69 -665.71,-4.69" /><path
         id="path54"
         style="fill:#5fbe58;fill-opacity:1;fill-rule:nonzero;stroke:none"
         d="m 2439.98,1773.87 c 0,0 84.14,464.83 56.07,705.26 -21.34,183.09 -136.25,340.6 -364.62,340.6 -238.87,0 -347.56,-149.02 -364.65,-340.6 -20.08,-224.41 52.07,-705.26 52.07,-705.26 h 621.13" /><path
         id="path56"
         style="fill:#351f17;fill-opacity:1;fill-rule:nonzero;stroke:none"
         d="m 2439.98,1773.87 24.6,-4.46 c 0.04,0.27 15.56,85.96 31.08,203.01 15.52,117.11 31.1,265.38 31.12,391.87 0,42.22 -1.75,82.04 -5.9,117.73 -11.17,95.75 -46.89,186.23 -111.5,253.41 -32.26,33.54 -71.73,61.05 -118.2,79.98 -46.46,18.96 -99.8,29.33 -159.75,29.32 -62.31,0.01 -117.03,-9.72 -164.34,-27.94 -71,-27.25 -124.83,-73.94 -161.56,-132.37 -36.81,-58.44 -56.97,-128.19 -63.65,-203.07 -2.55,-28.43 -3.64,-60.33 -3.64,-94.59 0.02,-122.98 14.02,-276.69 27.96,-400.13 13.95,-123.38 27.89,-216.27 27.92,-216.47 l 3.19,-21.29 h 663.54 l 3.73,20.54 -24.6,4.46 v 25 h -621.13 v -25 l 24.72,3.71 c 0,0 -0.21,1.39 -0.62,4.14 -3.02,20.59 -16.73,115.71 -29.66,233.83 -12.94,118.07 -25.07,259.34 -25.05,371.21 0,33.19 1.07,63.76 3.43,90.14 4.09,45.86 13.64,88.73 28.92,127.01 22.99,57.46 58.45,104.45 108.76,137.71 50.35,33.19 116.33,53.07 202.08,53.12 54.22,-0.01 100.89,-9.33 140.87,-25.63 59.92,-24.49 105.27,-64.66 138.25,-115.36 32.9,-50.68 53.05,-112.06 60.67,-177.51 3.85,-33.04 5.56,-71.13 5.56,-111.95 0.02,-122.5 -15.3,-269.43 -30.69,-385.29 -7.68,-57.96 -15.37,-108.2 -21.13,-143.91 -2.89,-17.86 -5.29,-32.08 -6.97,-41.83 -0.83,-4.87 -1.49,-8.62 -1.94,-11.15 -0.44,-2.52 -0.67,-3.79 -0.67,-3.79 l 24.6,-4.45 v 25 -25" /><path
         id="path58"
         style="fill:#489d4a;fill-opacity:1;fill-rule:nonzero;stroke:none"
         d="m 2418.95,1798.87 h -263.07 c 9.13,10.72 16.42,19.68 20.84,24.62 63.85,71.16 124.04,146.57 179.92,224.15 63.38,87.91 98.98,198.8 120.11,306.86 -0.76,-120.47 -15.68,-262.71 -30.66,-375.5 -7.68,-57.96 -15.37,-108.2 -21.13,-143.91 -2.38,-14.69 -4.42,-26.92 -6.01,-36.22" /><path
         id="path60"
         style="fill:#2b1b13;fill-opacity:1;fill-rule:nonzero;stroke:none"
         d="m 2439.98,1773.87 h -306.19 c 8.05,8.69 15.55,17.3 22.09,25 h 263.07 c 1.59,9.3 3.63,21.53 6.01,36.22 5.76,35.71 13.45,85.95 21.13,143.91 14.98,112.79 29.9,255.03 30.66,375.5 4.71,24.08 8.7,48.03 12.12,71.54 2.69,18.48 4.98,37.17 6.77,55.99 0.16,-0.97 0.34,-1.93 0.41,-2.9 28.07,-240.43 -56.07,-705.26 -56.07,-705.26 m 0,0 v 25 -25" /><path
         id="path62"
         style="fill:#351f17;fill-opacity:1;fill-rule:nonzero;stroke:none"
         d="m 2438.4,2314.99 152.31,116.22 c 10.97,8.37 13.08,24.06 4.71,35.04 -8.38,10.97 -24.07,13.08 -35.04,4.71 l -152.3,-116.22 c -10.98,-8.38 -13.09,-24.07 -4.72,-35.04 8.38,-10.98 24.07,-13.09 35.04,-4.71" /><path
         id="path64"
         style="fill:#351f17;fill-opacity:1;fill-rule:nonzero;stroke:none"
         d="m 1772.23,2246 -114.1,44.07 c -12.88,4.97 -27.36,-1.44 -32.33,-14.32 -4.97,-12.87 1.43,-27.35 14.31,-32.32 l 114.1,-44.08 c 12.88,-4.97 27.36,1.44 32.33,14.32 4.97,12.88 -1.43,27.35 -14.31,32.33" /><path
         id="path66"
         style="fill:#351f17;fill-opacity:1;fill-rule:nonzero;stroke:none"
         d="m 1772.65,2183.84 -125.19,-8.35 c -13.78,-0.92 -24.2,-12.83 -23.29,-26.61 0.92,-13.77 12.84,-24.2 26.61,-23.28 l 125.2,8.35 c 13.78,0.92 24.2,12.83 23.28,26.61 -0.92,13.78 -12.83,24.2 -26.61,23.28" /><path
         id="path68"
         style="fill:#351f17;fill-opacity:1;fill-rule:nonzero;stroke:none"
         d="m 2044.99,1985.86 124.86,88.16 c 11.28,7.96 13.96,23.56 6,34.84 -7.96,11.28 -23.56,13.97 -34.84,6 l -124.87,-88.16 c -11.28,-7.96 -13.96,-23.56 -6,-34.84 7.97,-11.28 23.57,-13.97 34.85,-6" /><path
         id="path70"
         style="fill:#351f17;fill-opacity:1;fill-rule:nonzero;stroke:none"
         d="m 1905.76,3246.55 124.9,88.16 c 11.28,7.97 13.97,23.56 6.01,34.84 -7.96,11.28 -23.56,13.97 -34.84,6.01 l -124.9,-88.16 c -11.28,-7.97 -13.97,-23.56 -6.01,-34.85 7.96,-11.27 23.56,-13.96 34.84,-6" /><path
         id="path72"
         style="fill:#351f17;fill-opacity:1;fill-rule:nonzero;stroke:none"
         d="m 2238.33,2406.29 36.08,97.07 c 4.81,12.94 -1.78,27.33 -14.73,32.14 -12.94,4.81 -27.33,-1.78 -32.14,-14.72 l -36.08,-97.07 c -4.8,-12.94 1.79,-27.33 14.73,-32.14 12.94,-4.81 27.34,1.78 32.14,14.72" /><path
         id="path74"
         style="fill:#351f17;fill-opacity:1;fill-rule:nonzero;stroke:none"
         d="m 1693.55,3423.98 36.05,97.05 c 4.81,12.94 -1.78,27.33 -14.73,32.14 -12.94,4.81 -27.33,-1.79 -32.14,-14.73 l -36.05,-97.05 c -4.81,-12.94 1.79,-27.34 14.73,-32.14 12.94,-4.81 27.33,1.78 32.14,14.73" /><path
         id="path76"
         style="fill:#351f17;fill-opacity:1;fill-rule:nonzero;stroke:none"
         d="m 2495.77,2030.82 95.37,76.13 c 10.79,8.62 12.56,24.35 3.94,35.14 -8.61,10.79 -24.34,12.56 -35.13,3.94 l -95.37,-76.13 c -10.8,-8.62 -12.56,-24.35 -3.95,-35.14 8.62,-10.79 24.35,-12.55 35.14,-3.94" /><path
         id="path78"
         style="fill:#351f17;fill-opacity:1;fill-rule:nonzero;stroke:none"
         d="m 2481.88,1947.81 105.46,56.47 c 12.18,6.51 16.76,21.67 10.24,33.84 -6.51,12.17 -21.66,16.75 -33.83,10.24 l -105.47,-56.47 c -12.18,-6.52 -16.76,-21.67 -10.24,-33.84 6.51,-12.17 21.66,-16.76 33.84,-10.24" /><path
         id="path80"
         style="fill:#5fbe58;fill-opacity:1;fill-rule:nonzero;stroke:none"
         d="m 2214.9,2747.61 c 18.01,160.28 88.79,344.64 175.82,450.97 147.66,180.32 358.15,193.74 448.13,96.86 125.39,-135.09 108.63,-339.46 16.83,-475.71 -91.77,-136.23 -282.83,-247.39 -416.54,-251.21 l -224.24,179.09" /><path
         id="path82"
         style="fill:#351f17;fill-opacity:1;fill-rule:nonzero;stroke:none"
         d="m 2239.74,2744.82 c 8.7,77.6 30.4,161.97 60.49,239.46 30.04,77.5 68.64,148.21 109.84,198.47 84.58,103.32 189.48,147.43 275.42,147.39 28.45,0 54.77,-4.82 77.63,-13.69 22.88,-8.87 42.28,-21.74 57.41,-38.03 29.01,-31.26 49.69,-66.36 63.25,-103.69 13.55,-37.32 19.92,-76.89 19.92,-116.75 0.06,-79.66 -25.66,-160.39 -68.75,-224.28 -43.1,-64.13 -111.37,-124.15 -184.62,-167.76 -36.6,-21.83 -74.42,-39.62 -110.72,-52.07 -36.28,-12.46 -71.04,-19.52 -101.19,-20.36 -13.8,-0.4 -24.67,-11.91 -24.27,-25.71 0.4,-13.8 11.9,-24.67 25.71,-24.27 36.7,1.07 75.96,9.34 115.98,23.05 59.99,20.6 121.72,53.54 177.76,94.65 56.01,41.15 106.33,90.43 142.82,144.54 48.65,72.34 77.22,161.88 77.28,252.21 0,45.16 -7.21,90.54 -22.91,133.81 -15.69,43.25 -39.93,84.37 -73.62,120.66 -20.74,22.33 -46.77,39.31 -75.97,50.62 -29.22,11.33 -61.65,17.06 -95.71,17.06 -102.83,-0.04 -221.06,-52.09 -314.11,-165.71 -45.84,-56.07 -86.15,-130.71 -117.76,-212.04 -31.55,-81.34 -54.26,-169.3 -63.56,-251.98 -1.54,-13.72 8.33,-26.09 22.05,-27.63 13.72,-1.55 26.09,8.33 27.64,22.05 h -0.01" /><path
         id="path84"
         style="fill:#76c96d;fill-opacity:1;fill-rule:nonzero;stroke:none"
         d="m 2255.68,2776.83 c 26.35,145.37 97.48,340.57 190.51,418.62 105.8,88.74 195.35,112.58 250.6,112.58 51.02,0 72.8,-20.34 51.06,-28.69 -120.21,-46.23 -223.96,-209.04 -282.22,-287.01 -61.25,-81.93 -121.37,-163.6 -209.95,-215.5" /><path
         id="path86"
         style="fill:#76c96d;fill-opacity:1;fill-rule:nonzero;stroke:none"
         d="m 1839.1,2078.16 c -33.38,143.91 -45.35,351.34 9.16,459.84 84.7,168.51 189.51,213.87 230.76,213.87 16.84,0 23.1,-7.57 13.05,-17.4 -92.13,-90.04 -122.91,-280.61 -145.53,-375.29 -23.81,-99.48 -46.68,-198.29 -107.44,-281.02" /><path
         id="path88"
         style="fill:#489d4a;fill-opacity:1;fill-rule:nonzero;stroke:none"
         d="m 2497.39,2601.65 c 71.03,61.13 132.96,133.89 190.23,207.02 62.93,80.4 99.84,176.7 112.01,277.63 9.04,74.97 2.03,149.83 -17.61,221.49 14.81,-7.92 27.74,-17.78 38.51,-29.37 29.01,-31.26 49.69,-66.36 63.25,-103.69 13.55,-37.32 19.92,-76.89 19.92,-116.75 0.06,-79.66 -25.66,-160.39 -68.75,-224.28 -43.1,-64.13 -111.37,-124.15 -184.62,-167.76 -36.6,-21.83 -74.42,-39.62 -110.72,-52.07 -14.37,-4.94 -28.51,-9.03 -42.22,-12.22" /><path
         id="path90"
         style="fill:#2b1b13;fill-opacity:1;fill-rule:nonzero;stroke:none"
         d="m 2458.09,2569.81 c 13.41,10.19 26.5,20.83 39.3,31.84 13.71,3.19 27.85,7.28 42.22,12.22 36.3,12.45 74.12,30.24 110.72,52.07 73.25,43.61 141.52,103.63 184.62,167.76 43.09,63.89 68.81,144.62 68.75,224.28 0,39.86 -6.37,79.43 -19.92,116.75 -13.56,37.33 -34.24,72.43 -63.25,103.69 -10.77,11.59 -23.7,21.45 -38.51,29.37 -2.92,10.66 -6.11,21.24 -9.58,31.75 25.92,-10.09 48.56,-24.88 66.41,-44.1 125.39,-135.09 108.63,-339.46 16.83,-475.71 -87.56,-129.92 -265.31,-236.97 -397.59,-249.92" /><path
         id="path92"
         style="fill:#351f17;fill-opacity:1;fill-rule:nonzero;stroke:none"
         d="m 2828.01,2794.73 h 168.3 c 13.8,0 25,11.2 25,25 0,13.81 -11.2,25 -25,25 h -168.3 c -13.81,0 -25,-11.19 -25,-25 0,-13.8 11.19,-25 25,-25" /><path
         id="path94"
         style="fill:#351f17;fill-opacity:1;fill-rule:nonzero;stroke:none"
         d="m 2859.95,3282.03 89.86,141.42 c 7.4,11.65 3.96,27.1 -7.69,34.51 -11.66,7.4 -27.11,3.96 -34.51,-7.7 l -89.87,-141.41 c -7.4,-11.66 -3.96,-27.11 7.69,-34.51 11.66,-7.41 27.11,-3.96 34.52,7.69" /><path
         id="path96"
         style="fill:#351f17;fill-opacity:1;fill-rule:nonzero;stroke:none"
         d="m 2899.45,3214.55 112.54,90.63 c 10.75,8.66 12.45,24.39 3.79,35.15 -8.66,10.75 -24.4,12.45 -35.15,3.79 l -112.54,-90.62 c -10.76,-8.67 -12.46,-24.4 -3.79,-35.16 8.65,-10.75 24.39,-12.45 35.15,-3.79" /><path
         id="path98"
         style="fill:#351f17;fill-opacity:1;fill-rule:nonzero;stroke:none"
         d="m 2265.39,3322.59 112.53,90.62 c 10.76,8.66 12.46,24.4 3.79,35.15 -8.65,10.75 -24.39,12.45 -35.15,3.79 l -112.54,-90.62 c -10.75,-8.66 -12.45,-24.4 -3.79,-35.15 8.66,-10.75 24.4,-12.45 35.16,-3.79" /><path
         id="path100"
         style="fill:#351f17;fill-opacity:1;fill-rule:nonzero;stroke:none"
         d="m 2474.39,3160.35 v -108.2 c 0,-13.81 11.2,-25 25,-25 13.81,0 25,11.19 25,25 v 108.2 c 0,13.81 -11.19,25 -25,25 -13.8,0 -25,-11.19 -25,-25" /><path
         id="path102"
         style="fill:#351f17;fill-opacity:1;fill-rule:nonzero;stroke:none"
         d="m 2529.42,2815.67 116.86,32.06 c 13.31,3.65 21.15,17.4 17.49,30.72 -3.65,13.31 -17.4,21.15 -30.72,17.49 l -116.85,-32.05 c -13.32,-3.65 -21.15,-17.41 -17.5,-30.72 3.65,-13.32 17.41,-21.15 30.72,-17.5" /><path
         id="path104"
         style="fill:#351f17;fill-opacity:1;fill-rule:nonzero;stroke:none"
         d="m 2745.19,3088.26 56.07,54.1 c 9.94,9.58 10.22,25.41 0.63,35.35 -9.58,9.93 -25.41,10.22 -35.34,0.63 l -56.08,-54.09 c -9.93,-9.59 -10.22,-25.42 -0.63,-35.35 9.58,-9.94 25.41,-10.23 35.35,-0.64" /><path
         id="path106"
         style="fill:#351f17;fill-opacity:1;fill-rule:nonzero;stroke:none"
         d="m 2055.66,3773.61 -0.2,132.68 c -0.02,13.8 -11.22,24.98 -25.03,24.96 -13.81,-0.02 -24.99,-11.23 -24.96,-25.04 l 0.19,-132.67 c 0.02,-13.81 11.23,-24.99 25.04,-24.97 13.81,0.02 24.98,11.23 24.96,25.04" /><path
         id="path108"
         style="fill:#351f17;fill-opacity:1;fill-rule:nonzero;stroke:none"
         d="m 2104.64,3759.59 45.94,145.59 c 4.15,13.17 -3.15,27.21 -16.32,31.37 -13.17,4.15 -27.21,-3.16 -31.36,-16.32 l -45.94,-145.59 c -4.16,-13.17 3.15,-27.21 16.32,-31.37 13.17,-4.15 27.2,3.15 31.36,16.32" /><path
         id="path110"
         style="fill:#351f17;fill-opacity:1;fill-rule:nonzero;stroke:none"
         d="m 1806.09,2901.32 24.03,-88.16 c 3.63,-13.32 17.37,-21.18 30.69,-17.55 13.32,3.63 21.18,17.38 17.54,30.7 l -24.02,88.16 c -3.63,13.32 -17.37,21.18 -30.69,17.54 -13.32,-3.63 -21.18,-17.37 -17.55,-30.69" /><path
         id="path112"
         style="fill:#351f17;fill-opacity:1;fill-rule:nonzero;stroke:none"
         d="m 1440.78,3619.18 62.52,-93.25 c 7.69,-11.47 23.21,-14.53 34.68,-6.84 11.47,7.69 14.53,23.21 6.84,34.68 l -62.52,93.25 c -7.69,11.47 -23.21,14.53 -34.68,6.84 -11.47,-7.68 -14.53,-23.22 -6.84,-34.68" /><path
         id="path114"
         style="fill:#351f17;fill-opacity:1;fill-rule:nonzero;stroke:none"
         d="m 1522.49,2689.82 -144.24,-72.12 c -12.35,-6.17 -17.36,-21.19 -11.18,-33.54 6.18,-12.35 21.19,-17.36 33.54,-11.18 l 144.24,72.12 c 12.35,6.17 17.36,21.19 11.18,33.54 -6.18,12.35 -21.19,17.36 -33.54,11.18" /><path
         id="path116"
         style="fill:#351f17;fill-opacity:1;fill-rule:nonzero;stroke:none"
         d="m 1533.67,2756.58 h -168.3 c -13.81,0 -25,-11.19 -25,-25 0,-13.81 11.19,-25 25,-25 h 168.3 c 13.81,0 25,11.19 25,25 0,13.81 -11.19,25 -25,25" /><path
         id="path118"
         style="fill:#351f17;fill-opacity:1;fill-rule:nonzero;stroke:none"
         d="m 2047.61,2433.3 -104.18,97.06 c -10.1,9.41 -25.93,8.85 -35.34,-1.25 -9.41,-10.1 -8.85,-25.92 1.25,-35.33 l 104.18,-97.07 c 10.1,-9.41 25.92,-8.85 35.34,1.25 9.41,10.1 8.85,25.92 -1.25,35.34" /><path
         id="path120"
         style="fill:#ef3643;fill-opacity:1;fill-rule:nonzero;stroke:none"
         d="m 2241.46,841.391 c 0,0 4.85,-246.832 -132.55,-246.832 -144.11,0 -132.27,246.66 -132.27,246.66 l 264.82,0.172" /><path
         id="path122"
         style="fill:#28160f;fill-opacity:1;fill-rule:nonzero;stroke:none"
         d="m 2241.46,841.391 -25,-0.352 0.01,-0.617 c 0,-0.461 0,-1.172 0.01,-2.102 0,-6.468 -0.25,-24.488 -2.55,-47.59 -3.34,-34.609 -11.74,-80.789 -29.07,-115.41 -8.6,-17.351 -19.2,-31.539 -31.37,-40.929 -12.29,-9.36 -25.79,-14.711 -44.58,-14.832 -12.42,0.023 -22.61,2.23 -31.56,5.972 -15.53,6.539 -28.05,18.188 -38.66,34.449 -15.87,24.239 -25.83,58.329 -31.06,90.301 -5.32,31.969 -6.24,61.688 -6.24,77.598 0,3.973 0.06,7.09 0.12,9.16 0.02,1.043 0.05,1.82 0.07,2.32 l 0.02,0.532 0.01,0.089 -24.97,1.239 0.02,-25 264.82,0.172 -0.02,25 -25,-0.352 25,0.352 -0.01,25 -264.83,-0.172 c -13.35,-0.008 -24.29,-10.418 -24.95,-23.758 -0.02,-0.352 -0.27,-5.672 -0.27,-14.582 0,-13.547 0.56,-35.43 3.45,-60.938 4.44,-38.281 13.64,-84.73 35.98,-124.429 11.23,-19.793 26.05,-38.051 45.84,-51.512 19.74,-13.48 44.44,-21.52 72.24,-21.441 19.53,-0.028 37.6,4.191 53.35,11.773 13.79,6.609 25.74,15.668 35.89,26.109 17.78,18.321 30.29,40.668 39.64,63.879 13.96,34.852 20.89,72.02 24.63,102.86 3.69,30.82 4.05,55.269 4.05,64.14 0,2.121 -0.01,3.301 -0.01,3.41 -0.19,13.649 -11.36,24.668 -25.01,24.661 l 0.01,-25" /><path
         id="path124"
         style="fill:#e85f86;fill-opacity:1;fill-rule:nonzero;stroke:none"
         d="m 1991.54,707.262 c 16.19,-57.93 49.48,-112.703 117.37,-112.703 64.7,0 97.89,54.761 114.82,112.703 0,0 -36.97,50.707 -114.78,50.707 -77.84,0 -117.41,-50.707 -117.41,-50.707" /><path
         id="path126"
         style="fill:#28160f;fill-opacity:1;fill-rule:nonzero;stroke:none"
         d="m 1991.54,707.262 -24.07,-6.731 c 8.78,-31.222 22.16,-62.781 44.78,-88.062 11.3,-12.578 25.06,-23.481 41.36,-31.09 16.28,-7.637 34.97,-11.84 55.3,-11.82 19.69,-0.028 37.91,4.261 53.75,11.961 23.85,11.55 41.86,30.191 55.34,51.039 13.52,20.921 22.88,44.332 29.72,67.691 2.18,7.449 0.78,15.461 -3.79,21.738 -1.24,1.66 -12.27,16.512 -34.52,31.41 -22.16,14.883 -56.04,29.622 -100.46,29.571 -44.45,0.043 -78.77,-14.629 -101.46,-29.36 -22.79,-14.75 -34.43,-29.429 -35.66,-30.968 -4.89,-6.262 -6.5,-14.469 -4.36,-22.11 l 24.07,6.731 19.71,-15.383 -10.03,7.832 9.91,-7.981 0.12,0.149 -10.03,7.832 9.91,-7.981 c 0,0 0.52,0.641 1.58,1.79 3.71,4.062 13.93,14.128 30.01,22.929 16.13,8.813 37.89,16.5 66.23,16.52 33.38,-0.047 56.89,-10.66 72.67,-21.137 7.85,-5.242 13.63,-10.461 17.3,-14.191 1.84,-1.86 3.14,-3.352 3.91,-4.27 l 0.75,-0.922 0.08,-0.09 10.93,8.243 -11.06,-8.071 0.13,-0.172 10.93,8.243 -11.06,-8.071 20.2,14.731 -24,7.008 c -7.77,-26.821 -19.34,-51.821 -34.23,-68.532 -7.44,-8.41 -15.55,-14.808 -24.63,-19.218 -9.12,-4.379 -19.31,-6.93 -31.96,-6.961 -13.63,0.023 -24.56,2.66 -34.12,7.113 -14.25,6.668 -25.99,17.867 -35.95,33.117 -9.92,15.18 -17.65,34.199 -23.22,54.199 l -24.08,-6.726 19.71,-15.383 -19.71,15.383" /><path
         id="path128"
         style="fill:#ec9fbb;fill-opacity:1;fill-rule:nonzero;stroke:none"
         d="m 2589.88,804.512 c 0.02,-20.59 -56.38,-37.321 -125.95,-37.352 -69.57,-0.039 -126,16.629 -126,37.219 -0.02,20.613 56.37,37.332 125.94,37.371 69.57,0.031 125.99,-16.641 126.01,-37.238" /><path
         id="path130"
         style="fill:#ec9fbb;fill-opacity:1;fill-rule:nonzero;stroke:none"
         d="m 1892.56,804.16 c 0,-20.601 -56.39,-37.328 -126,-37.351 -69.57,-0.039 -125.95,16.632 -125.95,37.222 -0.02,20.598 56.36,37.321 125.93,37.36 69.61,0.031 126,-16.641 126.02,-37.231" /><path
         id="path132"
         style="fill:#ef303f;fill-opacity:1;fill-rule:nonzero;stroke:none"
         d="m 2510.8,1171.39 c -34.34,0 -63.94,-19.92 -78.12,-48.77 -14.18,28.85 -43.79,48.77 -78.13,48.77 -48.09,0 -87.07,-38.99 -87.07,-87.08 0,-119.298 165.2,-198.388 165.2,-198.388 0,0 165.23,86.797 165.23,198.388 0,48.09 -39.02,87.08 -87.11,87.08" /><path
         id="path134"
         style="fill:#28160f;fill-opacity:1;fill-rule:nonzero;stroke:none"
         d="m 2510.8,1171.39 v 25 c -22.03,0.01 -42.75,-6.43 -60.06,-17.49 -17.33,-11.05 -31.37,-26.69 -40.51,-45.25 l 22.45,-11.03 22.43,11.03 c -9.13,18.56 -23.17,34.2 -40.5,45.25 -17.32,11.06 -38.04,17.5 -60.06,17.49 -30.87,0.01 -59.05,-12.59 -79.25,-32.83 -20.24,-20.21 -32.83,-48.38 -32.82,-79.25 0,-35.72 12.41,-67.77 29.76,-94.81 26.13,-40.641 63.29,-71.418 93.89,-92.789 30.63,-21.289 54.91,-32.93 55.75,-33.34 7.16,-3.43 15.39,-3.281 22.42,0.41 0.99,0.559 43.59,22.867 87.33,60.559 21.86,18.898 44.09,41.648 61.42,68.269 17.25,26.541 29.83,57.491 29.86,91.701 0.01,30.87 -12.6,59.05 -32.85,79.25 -20.21,20.24 -48.39,32.84 -79.26,32.83 v -50 c 17.22,-0.02 32.59,-6.91 43.91,-18.19 11.29,-11.32 18.19,-26.68 18.2,-43.89 0.02,-21.59 -8.05,-43.33 -21.78,-64.45 -20.44,-31.622 -53.24,-60.348 -80.89,-80.38 -13.81,-10.05 -26.29,-18.019 -35.23,-23.41 -4.47,-2.699 -8.05,-4.75 -10.47,-6.109 -1.21,-0.672 -2.13,-1.18 -2.72,-1.5 l -0.64,-0.34 -0.14,-0.07 0.3,-0.571 -0.3,0.571 v 0 l 0.3,-0.571 -0.3,0.571 11.64,-22.129 10.79,22.539 -0.02,0.008 c -1.37,0.621 -41.15,20.203 -79.1,52.582 -18.99,16.14 -37.44,35.429 -50.64,56.409 -13.26,21.05 -21.23,43.28 -21.23,66.85 0.01,17.22 6.91,32.58 18.18,43.89 11.31,11.28 26.67,18.17 43.89,18.19 12.31,-0.01 23.56,-3.53 33.18,-9.65 9.6,-6.11 17.46,-14.86 22.5,-25.15 4.22,-8.58 12.88,-13.97 22.45,-13.97 9.56,0 18.21,5.39 22.43,13.97 5.05,10.29 12.9,19.04 22.51,25.15 9.62,6.12 20.87,9.64 33.18,9.65 v 25" /><path
         id="path136"
         style="fill:#ffffff;fill-opacity:1;fill-rule:nonzero;stroke:none"
         d="m 2574.2,1063.77 c -2.52,-6.26 -3.15,45.77 -47.62,62.62 -32.91,12.47 -61.68,-1.11 -59.16,5.14 2.54,6.26 39.94,25.21 66.86,13.51 48.88,-21.23 42.44,-75.01 39.92,-81.27" /><path
         id="path138"
         style="fill:#ef303f;fill-opacity:1;fill-rule:nonzero;stroke:none"
         d="m 1862.85,1171.39 c -34.35,0 -63.94,-19.92 -78.12,-48.77 -14.2,28.85 -43.79,48.77 -78.13,48.77 -48.08,0 -87.09,-38.99 -87.09,-87.08 0,-119.298 165.22,-198.388 165.22,-198.388 0,0 165.21,86.797 165.21,198.388 0,48.09 -39,87.08 -87.09,87.08" /><path
         id="path140"
         style="fill:#28160f;fill-opacity:1;fill-rule:nonzero;stroke:none"
         d="m 1862.85,1171.39 v 25 c -22.03,0.01 -42.76,-6.43 -60.07,-17.49 -17.33,-11.05 -31.36,-26.69 -40.49,-45.25 l 22.44,-11.03 22.42,11.04 c -9.13,18.55 -23.17,34.19 -40.49,45.24 -17.32,11.06 -38.04,17.5 -60.06,17.49 -30.87,0.01 -59.05,-12.59 -79.25,-32.83 -20.25,-20.2 -32.85,-48.38 -32.84,-79.25 0,-35.72 12.41,-67.77 29.76,-94.81 26.14,-40.648 63.31,-71.43 93.91,-92.789 30.63,-21.289 54.92,-32.941 55.75,-33.34 7.16,-3.43 15.4,-3.269 22.42,0.418 0.99,0.551 43.59,22.859 87.32,60.551 21.86,18.898 44.08,41.66 61.41,68.269 17.26,26.541 29.83,57.491 29.86,91.701 0.01,30.87 -12.59,59.05 -32.84,79.25 -20.21,20.24 -48.38,32.84 -79.25,32.83 v -50 c 17.22,-0.02 32.58,-6.91 43.9,-18.19 11.28,-11.31 18.18,-26.67 18.19,-43.89 0.03,-21.59 -8.05,-43.33 -21.78,-64.45 -20.44,-31.622 -53.23,-60.348 -80.87,-80.38 -13.81,-10.05 -26.3,-18.019 -35.23,-23.41 -4.47,-2.699 -8.06,-4.75 -10.47,-6.109 -1.21,-0.672 -2.13,-1.18 -2.72,-1.5 l -0.65,-0.34 -0.12,-0.07 0.31,-0.602 -0.31,0.602 0.31,-0.602 -0.31,0.602 11.63,-22.129 10.79,22.547 h -0.02 c -1.37,0.633 -41.15,20.203 -79.11,52.582 -19,16.14 -37.44,35.429 -50.65,56.409 -13.25,21.05 -21.23,43.28 -21.23,66.85 0.01,17.22 6.91,32.58 18.19,43.89 11.31,11.28 26.68,18.17 43.9,18.19 12.31,-0.01 23.56,-3.53 33.17,-9.65 9.6,-6.11 17.46,-14.86 22.52,-25.16 4.23,-8.58 12.88,-13.96 22.44,-13.96 9.57,0 18.21,5.39 22.43,13.97 5.05,10.3 12.9,19.04 22.5,25.15 9.62,6.12 20.86,9.64 33.19,9.65 v 25" /><path
         id="path142"
         style="fill:#ffffff;fill-opacity:1;fill-rule:nonzero;stroke:none"
         d="m 1926.21,1063.77 c -2.5,-6.26 -3.14,45.77 -47.6,62.62 -32.87,12.47 -61.66,-1.11 -59.14,5.14 2.52,6.26 39.92,25.21 66.88,13.51 48.85,-21.23 42.42,-75.01 39.86,-81.27" /></g></g></svg>