<svg height="512pt" viewBox="0 -3 512.00062 512" width="512pt" xmlns="http://www.w3.org/2000/svg"><path d="m476.796875 138.746094c-15.703125-15.722656-35.441406-24.773438-55.804687-27.261719-14.867188-1.8125-27.578126-11.296875-34.472657-24.59375-24.449219-47.164063-73.710937-79.390625-130.507812-79.390625-56.789063 0-106.050781 32.226562-130.5 79.386719-6.988281 13.472656-19.984375 22.730469-35.042969 24.65625-18.054688 2.3125-35.675781 9.824219-50.503906 22.769531-37.796875 33.003906-43.363282 90.464844-12.597656 130.105469 18.914062 24.367187 47.109374 36.960937 75.515624 36.917969h306.457032v-.027344c25.792968-.003906 51.539062-10.382813 70.40625-31.050782 34.117187-37.367187 32.8125-95.710937-2.949219-131.511718zm0 0" fill="#ccf8ff"/><path d="m167.847656 209.703125c-65.871094-91.410156 23.699219-187.085937 24.136719-187.550781-28.523437 13.835937-51.90625 36.636718-66.472656 64.734375-6.988281 13.472656-19.984375 22.730469-35.042969 24.65625-18.054688 2.3125-35.675781 9.824219-50.503906 22.769531-37.796875 33.003906-43.363282 90.464844-12.597656 130.105469 18.914062 24.367187 47.109374 36.960937 75.515624 36.921875h118.625c-14.226562-29.59375-32.0625-61.664063-53.660156-91.636719zm0 0" fill="#abebf4"/><path d="m305.351562 449.261719c0 27.257812-22.09375 49.351562-49.351562 49.351562-27.253906 0-49.347656-22.09375-49.347656-49.351562 0-27.253907 22.09375-83.742188 49.347656-83.742188 27.257812 0 49.351562 56.488281 49.351562 83.742188zm0 0" fill="#8ed7e8"/><path d="m155.71875 407.710938c0 21.839843-17.703125 39.539062-39.542969 39.539062-21.835937 0-39.539062-17.703125-39.539062-39.539062 0-21.839844 17.703125-67.101563 39.539062-67.101563 21.839844 0 39.542969 45.261719 39.542969 67.101563zm0 0" fill="#7ac1dd"/><path d="m435.371094 407.710938c0 21.839843-17.707032 39.539062-39.542969 39.539062-21.839844 0-39.542969-17.703125-39.542969-39.539062 0-21.839844 17.707032-67.101563 39.542969-67.101563s39.542969 45.261719 39.542969 67.101563zm0 0" fill="#7ac1dd"/><path d="m256 229.300781c-15.519531 0-28.097656-12.582031-28.097656-28.101562v-20.429688c0-4.238281 3.433594-7.671875 7.671875-7.671875h40.855469c4.238281 0 7.671874 3.433594 7.671874 7.671875v20.429688c0 15.519531-12.582031 28.101562-28.101562 28.101562zm0 0" fill="#57565c"/><path d="m191.980469 201.199219c0-13.183594-13.417969-23.871094-29.972657-23.871094-16.554687 0-29.972656 10.6875-29.972656 23.871094 0 13.179687 13.417969 23.867187 29.972656 23.867187 16.554688 0 29.972657-10.6875 29.972657-23.867187zm0 0" fill="#ffa6bb"/><path d="m379.96875 201.199219c0-13.183594-13.417969-23.871094-29.972656-23.871094-16.554688 0-29.972656 10.6875-29.972656 23.871094 0 13.179687 13.417968 23.867187 29.972656 23.867187 16.554687 0 29.972656-10.6875 29.972656-23.867187zm0 0" fill="#ffa6bb"/><path d="m336.660156 188.09375c-4.144531 0-7.5-3.355469-7.5-7.5v-12.449219c0-4.140625 3.355469-7.5 7.5-7.5 4.140625 0 7.5 3.359375 7.5 7.5v12.449219c0 4.144531-3.359375 7.5-7.5 7.5zm0 0" fill="#57565c"/><path d="m175.347656 188.09375c-4.144531 0-7.5-3.355469-7.5-7.5v-12.449219c0-4.140625 3.355469-7.5 7.5-7.5 4.140625 0 7.5 3.359375 7.5 7.5v12.449219c0 4.144531-3.359375 7.5-7.5 7.5zm0 0" fill="#57565c"/><path d="m329.160156 168.144531v12.453125c0 4.140625 3.355469 7.5 7.5 7.5 4.140625 0 7.5-3.359375 7.5-7.5v-12.453125c0-4.140625-3.359375-7.5-7.5-7.5-4.144531 0-7.5 3.359375-7.5 7.5zm0 0"/><path d="m167.847656 168.144531v12.453125c0 4.140625 3.355469 7.5 7.5 7.5 4.140625 0 7.5-3.359375 7.5-7.5v-12.453125c0-4.140625-3.359375-7.5-7.5-7.5-4.144531 0-7.5 3.359375-7.5 7.5zm0 0"/><path d="m511.972656 203.746094c-.597656-26.648438-11.203125-51.613282-29.871094-70.300782-16.410156-16.433593-37.230468-26.601562-60.203124-29.402343-12.058594-1.472657-22.796876-9.175781-28.71875-20.601563-8.085938-15.597656-18.703126-29.617187-31.554688-41.671875-3.019531-2.832031-7.765625-2.679687-10.601562.339844-2.832032 3.023437-2.679688 7.769531.339843 10.601563 11.609375 10.890624 21.195313 23.550781 28.496094 37.632812 8.207031 15.828125 23.242187 26.515625 40.222656 28.585938 19.609375 2.394531 37.386719 11.078124 51.40625 25.113281 15.925781 15.945312 24.976563 37.265625 25.488281 60.039062.511719 22.773438-7.578124 44.480469-22.769531 61.121094-16.597656 18.175781-40.238281 28.605469-64.871093 28.609375-.210938 0-306.46875.027344-306.46875.027344-.042969 0-.085938 0-.132813 0-27.355469 0-52.660156-12.394532-69.445313-34.019532-13.699218-17.65625-20.046874-39.75-17.871093-62.222656 2.175781-22.46875 12.644531-42.9375 29.480469-57.636718 13.1875-11.515626 29.273437-18.769532 46.523437-20.976563 17.363281-2.222656 32.597656-12.933594 40.746094-28.644531 24.09375-46.472656 71.546875-75.339844 123.84375-75.339844 25.585937 0 50.597656 6.988281 72.335937 20.214844 3.539063 2.152344 8.152344 1.027344 10.304688-2.511719s1.03125-8.152344-2.507813-10.304687c-24.089843-14.652344-51.796875-22.398438-80.132812-22.398438-57.921875 0-110.476563 31.96875-137.160157 83.433594-5.882812 11.347656-16.851562 19.074218-29.335937 20.671875-20.210937 2.585937-39.050781 11.078125-54.484375 24.558593-19.726562 17.226563-31.996094 41.195313-34.542969 67.488282-2.546875 26.296875 4.894531 52.171875 20.953125 72.863281 19.648438 25.3125 49.269532 39.824219 81.285156 39.820313h.15625s306.902344-.007813 307.121094-.027344c28.59375-.1875 56-12.371094 75.28125-33.492188 17.808594-19.503906 27.285156-44.921875 26.6875-71.570312zm0 0"/><path d="m256.003906 358.019531c-15.070312 0-29.835937 12.691407-41.578125 35.746094-9.136719 17.929687-15.273437 40.234375-15.273437 55.5 0 31.347656 25.503906 56.847656 56.851562 56.847656s56.847656-25.5 56.847656-56.847656c0-15.265625-6.136718-37.570313-15.269531-55.5-11.746093-23.054687-26.511719-35.746094-41.578125-35.746094zm0 133.09375c-23.078125 0-41.851562-18.773437-41.851562-41.851562 0-12.90625 5.609375-32.925781 13.636718-48.6875 8.789063-17.253907 19.335938-27.558594 28.210938-27.558594 8.878906 0 19.421875 10.304687 28.214844 27.558594 8.027344 15.757812 13.636718 35.78125 13.636718 48.6875 0 23.078125-18.773437 41.851562-41.847656 41.851562zm0 0"/><path d="m116.175781 333.109375c-18.96875 0-31.546875 22.035156-37.351562 35.167969-1.675781 3.789062.035156 8.21875 3.824219 9.894531 3.785156 1.671875 8.214843-.039063 9.894531-3.828125 7.046875-15.9375 16.324219-26.234375 23.636719-26.234375 15.066406 0 32.039062 38.882813 32.039062 59.601563 0 17.667968-14.371094 32.042968-32.039062 32.042968-35.082032 0-31.875-36.203125-31.539063-38.636718.566406-4.101563-2.300781-7.886719-6.40625-8.453126-4.105469-.566406-7.886719 2.304688-8.453125 6.40625-.429688 3.109376-6.488281 55.683594 46.394531 55.683594 25.941407 0 47.042969-21.105468 47.042969-47.042968 0-12.445313-4.980469-30.585938-12.398438-45.144532-9.675781-18.996094-21.980468-29.457031-34.644531-29.457031zm0 0"/><path d="m395.828125 333.109375c-12.664063 0-24.964844 10.460937-34.644531 29.457031-7.414063 14.554688-12.398438 32.699219-12.398438 45.144532 0 25.9375 21.101563 47.039062 47.042969 47.039062 25.9375 0 47.039063-21.101562 47.039063-47.039062 0-12.445313-4.980469-30.589844-12.398438-45.144532-9.675781-18.996094-21.980469-29.457031-34.640625-29.457031zm0 106.644531c-17.667969 0-32.042969-14.375-32.042969-32.042968 0-10.128907 4.425782-25.894532 10.761719-38.335938 6.785156-13.316406 14.742187-21.265625 21.28125-21.265625 15.066406 0 32.039063 38.882813 32.039063 59.601563.003906 17.667968-14.371094 32.042968-32.039063 32.042968zm0 0"/><path d="m235.574219 165.597656c-8.367188 0-15.171875 6.804688-15.171875 15.171875v20.429688c0 19.628906 15.96875 35.597656 35.597656 35.597656s35.601562-15.96875 35.601562-35.597656v-20.429688c0-8.367187-6.804687-15.171875-15.171874-15.171875zm41.027343 15.171875v20.429688c0 11.359375-9.242187 20.601562-20.601562 20.601562-11.355469 0-20.597656-9.242187-20.597656-20.601562v-20.429688c0-.09375 41.199218-.09375 41.199218 0zm0 0"/></svg>