<svg height="512pt" viewBox="0 -57 512.00032 512" width="512pt" xmlns="http://www.w3.org/2000/svg"><path d="m334.335938 318.273438-25.574219-18.019532-31.308594-.488281c-13.273437-.207031-24.988281-8.730469-29.273437-21.296875l-10.101563-29.652344-25.050781-18.707031c-10.667969-7.960937-15.164063-21.773437-11.230469-34.488281l9.242187-29.875-9.242187-29.871094c-3.933594-12.714844.5625-26.527344 11.230469-34.488281l25.050781-18.707031 10.101563-29.648438c4.285156-12.570312 16-21.09375 29.273437-21.300781l31.308594-.488281 25.574219-18.023438c10.863281-7.652344 25.363281-7.652344 36.222656 0l25.578125 18.023438 31.304687.488281c13.277344.203125 24.992188 8.730469 29.277344 21.296875l10.101562 29.652344 25.050782 18.703124c10.664062 7.960938 15.164062 21.777344 11.226562 34.492188l-9.242187 29.871094 9.242187 29.871094c3.933594 12.714843-.5625 26.527343-11.226562 34.492187l-25.050782 18.703125-10.105468 29.652344c-4.28125 12.570312-15.996094 21.09375-29.273438 21.300781l-31.308594.484375-25.574218 18.023438c-10.859375 7.652343-25.359375 7.652343-36.222656 0zm0 0" fill="#ffde55"/><path d="m466.820312 248.8125 25.054688-18.703125c10.664062-7.960937 15.160156-21.777344 11.226562-34.492187l-4.144531-13.386719c-42.691406-3.269531-87.277343-15.84375-113.433593-49.652344-36.941407-47.75-98.632813-61.75-142.199219-65.296875l-5.246094 15.398438-25.050781 18.707031c-10.664063 7.960937-15.160156 21.773437-11.226563 34.488281l9.242188 29.871094-9.242188 29.875c-3.933593 12.714844.5625 26.527344 11.226563 34.488281l25.050781 18.707031 10.101563 29.652344c4.285156 12.566406 16 21.089844 29.277343 21.296875l31.304688.488281 25.574219 18.019532c10.863281 7.65625 25.363281 7.65625 36.226562 0l25.574219-18.019532 31.304687-.488281c13.277344-.207031 24.992188-8.730469 29.277344-21.296875zm0 0" fill="#ffcd00"/><path d="m458.035156 165.746094c0 58.3125-47.273437 105.585937-105.585937 105.585937s-105.585938-47.273437-105.585938-105.585937 47.273438-105.585938 105.585938-105.585938 105.585937 47.273438 105.585937 105.585938zm0 0" fill="#ffeb99"/><path d="m385.523438 132.578125c-23.484376-30.355469-56.964844-47.066406-89.4375-56.132813-29.578126 18.710938-49.222657 51.710938-49.222657 89.300782 0 58.3125 47.273438 105.585937 105.585938 105.585937 54.949219 0 100.097656-41.976562 105.121093-95.613281-28.25-7.132812-54.363281-20.285156-72.046874-43.140625zm0 0" fill="#ffde55"/><path d="m435.195312 204.429688c-12.53125-6.984376-25.910156-10.964844-39.316406-12.191407-17.769531-1.625-34.367187-9.945312-45.898437-23.5625-24.777344-29.257812-61.777344-47.832031-103.117188-47.832031-41.339843 0-78.339843 18.574219-103.117187 47.832031-11.53125 13.617188-28.128906 21.9375-45.898438 23.5625-13.40625 1.226563-26.785156 5.207031-39.316406 12.191407-47.996094 26.742187-65.230469 88.140624-38.203125 135.980468 18.242187 32.296875 51.929687 50.554688 86.683594 50.585938h279.703125c34.757812-.03125 68.441406-18.289063 86.6875-50.589844 27.023437-47.839844 9.789062-109.234375-38.207032-135.976562zm0 0" fill="#ccf8ff"/><path d="m166.210938 279.082031c-28.929688-102.550781 57.574218-156.273437 57.582031-156.277343-31.902344 5.496093-59.988281 22.179687-80.046875 45.871093-11.53125 13.617188-28.128906 21.9375-45.898438 23.5625-13.40625 1.226563-26.785156 5.207031-39.316406 12.191407-47.996094 26.742187-65.230469 88.140624-38.207031 135.980468 18.246093 32.296875 51.929687 50.554688 86.6875 50.585938h134.75c-25.4375-18.5625-58.910157-52.929688-75.550781-111.914063zm0 0" fill="#abebf4"/><path d="m246.863281 320.28125c-15.519531 0-28.097656-12.578125-28.097656-28.097656v-20.429688c0-4.234375 3.433594-7.671875 7.671875-7.671875h40.855469c4.234375 0 7.667969 3.4375 7.667969 7.671875v20.429688c0 15.519531-12.578126 28.097656-28.097657 28.097656zm0 0" fill="#57565c"/><path d="m182.84375 292.183594c0-13.183594-13.417969-23.867188-29.972656-23.867188-16.550782 0-29.96875 10.683594-29.96875 23.867188 0 13.179687 13.417968 23.867187 29.96875 23.867187 16.554687 0 29.972656-10.6875 29.972656-23.867187zm0 0" fill="#ffa6bb"/><path d="m370.824219 292.183594c0-13.183594-13.417969-23.867188-29.96875-23.867188-16.554688 0-29.972657 10.683594-29.972657 23.867188 0 13.179687 13.417969 23.867187 29.972657 23.867187 16.550781 0 29.96875-10.6875 29.96875-23.867187zm0 0" fill="#ffa6bb"/><path d="m335.015625 271.582031v-12.449219c0-4.144531-3.355469-7.5-7.5-7.5s-7.5 3.355469-7.5 7.5v12.449219c0 4.140625 3.355469 7.5 7.5 7.5 4.140625 0 7.5-3.359375 7.5-7.5zm0 0"/><path d="m173.710938 271.582031v-12.449219c0-4.144531-3.355469-7.5-7.5-7.5-4.140626 0-7.5 3.355469-7.5 7.5v12.449219c0 4.140625 3.359374 7.5 7.5 7.5 4.144531 0 7.5-3.359375 7.5-7.5zm0 0"/><path d="m501.707031 165.746094 8.558594-27.65625c4.859375-15.710938-.726563-32.878906-13.90625-42.714844l-23.1875-17.3125-9.355469-27.453125c-5.289062-15.523437-19.859375-26.125-36.257812-26.378906l-28.992188-.449219-23.683594-16.691406c-13.417968-9.453125-31.449218-9.453125-44.867187 0l-23.683594 16.691406-28.992187.449219c-16.398438.253906-30.96875 10.855469-36.257813 26.378906l-9.351562 27.453125-23.191407 17.3125c-9.125 6.8125-14.753906 17.277344-15.535156 28.523438-21.011718 8.570312-39.917968 22.144531-54.976562 39.929687-10.1875 12.027344-24.695313 19.464844-40.859375 20.941406-14.894531 1.359375-29.121094 5.769531-42.285157 13.105469-24.960937 13.90625-43 36.839844-50.796874 64.574219-7.804688 27.75-4.355469 56.746093 9.710937 81.644531 2.039063 3.609375 6.613281 4.878906 10.21875 2.84375 3.605469-2.039062 4.878906-6.613281 2.84375-10.21875-12.089844-21.398438-15.046875-46.332031-8.335937-70.210938 6.710937-23.859374 22.214843-43.582031 43.660156-55.53125 11.324218-6.308593 23.554687-10.101562 36.347656-11.269531 20.105469-1.839843 38.199219-11.140625 50.941406-26.1875 24.3125-28.710937 59.808594-45.179687 97.390625-45.179687s73.078125 16.46875 97.390625 45.179687c12.742188 15.046875 30.835938 24.347657 50.941406 26.183594 12.796876 1.171875 25.027344 4.964844 36.351563 11.273437 21.441406 11.949219 36.949219 31.671876 43.65625 55.53125 6.714844 23.878907 3.753906 48.8125-8.332031 70.207032-16.28125 28.824218-47 46.75-80.15625 46.777344h-279.695313c-22.304687-.019532-43.816406-8.082032-60.574219-22.699219-3.121093-2.722657-7.859374-2.398438-10.582031.722656-2.722656 3.121094-2.398437 7.855469.722657 10.578125 19.484374 17 44.492187 26.375 70.429687 26.398438h279.707031c38.558594-.035157 74.273438-20.878907 93.210938-54.398438 14.0625-24.898438 17.515625-53.894531 9.710937-81.648438-1.628906-5.785156-3.707031-11.359374-6.195312-16.6875l12.914062-9.640624c13.175781-9.839844 18.765625-27.007813 13.902344-42.714844zm-15.015625 2.214844 9.242188 29.875c2.988281 9.660156-.445313 20.214843-8.546875 26.265624l-11.296875 8.429688c-9.324219-14.277344-21.988282-26.152344-37.242188-34.65625-13.164062-7.332031-27.390625-11.742188-42.285156-13.105469-16.167969-1.480469-30.679688-8.914062-40.859375-20.941406-22.445313-26.503906-53.425781-43.660156-87.199219-48.828125 7.78125-12.851562 18.421875-23.796875 31.179688-31.953125 15.738281-10.0625 33.984375-15.386719 52.765625-15.386719 54.085937 0 98.085937 44.003906 98.085937 98.085938 0 5.203125-.410156 10.421875-1.21875 15.523437-.648437 4.089844 1.742188 8.257813 7.414063 8.675781 3.613281.265626 6.8125-2.632812 7.398437-6.324218.933594-5.875 1.40625-11.890625 1.40625-17.871094 0-62.355469-50.730468-113.085938-113.085937-113.085938-21.648438 0-42.691407 6.136719-60.847657 17.75-16.714843 10.6875-30.289062 25.523438-39.4375 43.039063-16.488281-.574219-30.710937 1.613281-42.804687 4.90625 1.578125-4.3125 4.378906-8.144531 8.152344-10.964844l25.050781-18.703125c1.214844-.90625 2.125-2.160156 2.613281-3.59375l10.101563-29.648437c3.253906-9.546875 12.210937-16.0625 22.292968-16.21875l31.308594-.488281c1.503906-.023438 2.96875-.5 4.203125-1.367188l25.574219-18.023438c8.25-5.8125 19.332031-5.8125 27.582031 0l25.574219 18.023438c1.234375.867188 2.699219 1.34375 4.207031 1.367188l31.304688.484374c10.082031.160157 19.039062 6.675782 22.292969 16.222657l10.101562 29.648437c.488281 1.4375 1.398438 2.6875 2.613281 3.59375l25.054688 18.703125c8.101562 6.050781 11.535156 16.601563 8.546875 26.265625l-9.242188 29.871094c-.445312 1.441406-.445312 2.988281 0 4.429688zm0 0"/><path d="m282.460938 292.183594v-20.429688c0-8.363281-6.804688-15.167968-15.167969-15.167968h-40.855469c-8.367188 0-15.171875 6.804687-15.171875 15.167968v20.429688c0 19.628906 15.96875 35.597656 35.597656 35.597656 19.628907 0 35.597657-15.96875 35.597657-35.597656zm-56.195313 0s.074219-20.601563.171875-20.601563c0 0 41.023438.078125 41.023438.171875v20.429688c0 11.359375-9.238282 20.597656-20.597657 20.597656s-20.597656-9.238281-20.597656-20.597656zm0 0"/></svg>