<svg height="512pt" viewBox="0 -57 512.00047 512" width="512pt" xmlns="http://www.w3.org/2000/svg"><path d="m228.566406 178.992188h-203.882812c-9.488282 0-17.183594-7.695313-17.183594-17.1875 0-9.488282 7.695312-17.183594 17.183594-17.183594h203.882812c23.054688 0 41.8125-18.753906 41.8125-41.808594s-18.757812-41.8125-41.8125-41.8125c-9.488281 0-17.183594-7.695312-17.183594-17.183594 0-9.492187 7.695313-17.183594 17.183594-17.183594 42.007813 0 76.179688 34.171876 76.179688 76.179688 0 42.003906-34.171875 76.179688-76.179688 76.179688zm0 0" fill="#abebf4"/><path d="m376.046875 391.175781c-9.488281 0-17.183594-7.695312-17.183594-17.1875 0-9.488281 7.695313-17.183593 17.183594-17.183593 23.054687 0 41.8125-18.753907 41.8125-41.808594 0-23.054688-18.757813-41.8125-41.8125-41.8125h-193.035156c-9.492188 0-17.1875-7.691406-17.1875-17.183594 0-9.488281 7.695312-17.183594 17.1875-17.183594h193.035156c42.003906 0 76.179687 34.171875 76.179687 76.179688 0 42.003906-34.175781 76.179687-76.179687 76.179687zm0 0" fill="#abebf4"/><path d="m100.929688 273.183594h-76.246094c-9.488282 0-17.183594-7.691406-17.183594-17.183594 0-9.488281 7.695312-17.183594 17.183594-17.183594h76.246094c9.488281 0 17.183593 7.695313 17.183593 17.183594 0 9.492188-7.695312 17.183594-17.183593 17.183594zm0 0" fill="#8ed7e8"/><path d="m482.421875 183.6875c21.742187-21.742188 28.648437-50.089844 15.425781-63.3125s-41.566406-6.316406-63.308594 15.425781c-21.742187 21.742188-28.648437 50.085938-15.425781 63.308594 13.222657 13.222656 41.566407 6.320313 63.308594-15.421875zm0 0" fill="#f27564"/><path d="m462.886719 198.457031c-17.785157-21.015625-20.378907-49.953125-19.4375-70.480469-3.050781 2.34375-6.039063 4.957032-8.910157 7.828126-21.742187 21.742187-28.648437 50.089843-15.425781 63.3125 9.484375 9.484374 26.75 8.613281 43.773438-.660157zm0 0" fill="#e2675a"/><path d="m400.210938 218.019531c-2.929688-2.929687-2.929688-7.679687 0-10.609375l58.382812-58.382812c2.929688-2.929688 7.679688-2.929688 10.609375 0 2.925781 2.929687 2.925781 7.679687 0 10.609375l-58.382813 58.382812c-4.246093 3.957031-9.144531 1.464844-10.609374 0zm0 0" fill="#b2785b"/><path d="m218.621094 377.785156c29.820312-7.484375 50.308594-28.253906 45.753906-46.394531-4.550781-18.136719-32.414062-26.773437-62.238281-19.289063-29.824219 7.484376-50.308594 28.253907-45.757813 46.394532 4.550782 18.136718 32.417969 26.773437 62.242188 19.289062zm0 0" fill="#97af8c"/><path d="m202.128906 312.109375c-29.824218 7.484375-50.3125 28.261719-45.761718 46.398437 4.101562 16.339844 27.121093 24.960938 53.449218 21.042969-22.078125-33.25-7.6875-67.441406-7.6875-67.441406zm0 0" fill="#8c9e82"/><path d="m130.441406 365.007812c-1.007812-4.019531 1.433594-8.09375 5.449219-9.101562l80.082031-20.097656c4.011719-1.003906 8.089844 1.433594 9.101563 5.453125 1.007812 4.015625-1.433594 8.089843-5.449219 9.097656l-80.082031 20.097656c-5.257813 1.328125-8.246094-2.042969-9.101563-5.449219zm0 0" fill="#b2785b"/><path d="m451.863281 41.363281c0-18.703125-24.925781-33.863281-55.675781-33.863281-30.746094 0-55.671875 15.160156-55.671875 33.863281 0 18.699219 24.925781 33.859375 55.671875 33.859375 30.75 0 55.675781-15.160156 55.675781-33.859375zm0 0" fill="#97af8c"/><path d="m396.1875 75.222656c9.339844 0 18.148438-1.402344 25.875-3.875-28.109375-15.136718-45.648438-41.476562-54.777344-58.929687-16.050781 5.941406-26.773437 16.679687-26.773437 28.941406.003906 18.703125 24.929687 33.863281 55.675781 33.863281zm0 0" fill="#8c9e82"/><path d="m471.09375 48.863281h-82.5625c-4.144531 0-7.503906-3.359375-7.503906-7.5 0-4.144531 3.359375-7.503906 7.503906-7.503906h82.5625c4.144531 0 7.5 3.359375 7.5 7.503906 0 4.140625-3.355469 7.5-7.5 7.5zm0 0" fill="#b2785b"/><path d="m24.683594 186.492188h203.882812c46.140625 0 83.679688-37.539063 83.679688-83.679688 0-46.144531-37.539063-83.683594-83.679688-83.683594-13.609375 0-24.683594 11.074219-24.683594 24.6875 0 13.613282 11.074219 24.6875 24.683594 24.6875 18.917969 0 34.3125 15.390625 34.3125 34.308594s-15.394531 34.3125-34.3125 34.3125h-136.226562c-4.144532 0-7.5 3.355469-7.5 7.5s3.355468 7.5 7.5 7.5h136.226562c27.191406 0 49.3125-22.121094 49.3125-49.3125s-22.121094-49.3125-49.3125-49.3125c-5.339844 0-9.683594-4.34375-9.683594-9.683594s4.34375-9.683594 9.683594-9.683594c37.871094 0 68.679688 30.808594 68.679688 68.679688 0 37.867188-30.808594 68.675781-68.679688 68.675781h-203.882812c-5.339844 0-9.679688-4.34375-9.679688-9.683593 0-5.339844 4.339844-9.679688 9.679688-9.679688h37.472656c4.144531 0 7.503906-3.359375 7.503906-7.503906 0-4.140625-3.359375-7.5-7.503906-7.5h-37.472656c-13.609375 0-24.683594 11.074218-24.683594 24.683594 0 13.613281 11.074219 24.6875 24.683594 24.6875zm0 0"/><path d="m376.046875 231.316406h-193.035156c-13.613281 0-24.6875 11.074219-24.6875 24.683594 0 13.613281 11.074219 24.6875 24.6875 24.6875h193.035156c18.917969 0 34.308594 15.390625 34.308594 34.308594 0 18.917968-15.390625 34.308594-34.308594 34.308594-13.609375 0-24.683594 11.074218-24.683594 24.6875 0 13.609374 11.070313 24.683593 24.683594 24.683593 21.046875 0 41.175781-7.871093 56.683594-22.167969 3.042969-2.808593 3.234375-7.550781.429687-10.597656-2.808594-3.046875-7.554687-3.238281-10.601562-.429687-12.726563 11.730469-29.242188 18.195312-46.511719 18.195312-5.339844 0-9.683594-4.347656-9.683594-9.6875 0-5.335937 4.34375-9.679687 9.683594-9.679687 27.191406 0 49.3125-22.121094 49.3125-49.3125s-22.121094-49.3125-49.3125-49.3125h-193.035156c-5.339844 0-9.683594-4.34375-9.683594-9.683594s4.34375-9.683594 9.683594-9.683594h193.035156c37.871094 0 68.679687 30.808594 68.679687 68.679688 0 9.8125-2.035156 19.289062-6.046874 28.171875-1.707032 3.773437-.027344 8.21875 3.746093 9.921875 3.777344 1.707031 8.21875.027344 9.925781-3.746094 4.894532-10.835938 7.375-22.394531 7.375-34.347656 0-46.140625-37.539062-83.679688-83.679687-83.679688zm0 0"/><path d="m100.929688 231.316406h-76.246094c-13.609375 0-24.683594 11.074219-24.683594 24.683594 0 13.613281 11.074219 24.6875 24.683594 24.6875h76.246094c13.609374 0 24.683593-11.074219 24.683593-24.6875 0-13.609375-11.074219-24.683594-24.683593-24.683594zm0 34.367188h-76.246094c-5.339844 0-9.679688-4.34375-9.679688-9.683594s4.339844-9.683594 9.679688-9.683594h76.246094c5.339843 0 9.683593 4.34375 9.683593 9.683594s-4.34375 9.683594-9.683593 9.683594zm0 0"/><path d="m503.15625 115.078125c-16.402344-16.398437-48.871094-9.625-73.921875 15.421875-22.273437 22.277344-30.082031 50.40625-20.011719 67.898438l-9.011718 9.011718c-2.929688 2.929688-2.929688 7.679688 0 10.609375 1.464843 1.464844 6.363281 3.957031 10.609374 0l9-8.996093c5.011719 2.890624 25.460938 7.898437 46.65625-3.980469 3.613282-2.023438 4.980469-6.535157 3-10.175781-1.980468-3.636719-6.535156-4.980469-10.175781-2.996094-10.585937 5.765625-20.730469 7.703125-28.054687 5.722656l37.957031-37.957031c2.929687-2.929688 2.929687-7.679688 0-10.609375-2.929687-2.925782-7.679687-2.925782-10.609375 0l-38.003906 38.007812c-3.324219-11.90625 4.140625-30.8125 19.253906-45.925781 18.46875-18.464844 42.601562-25.527344 52.703125-15.421875 8.664063 8.660156 4.421875 29.003906-9.65625 46.3125-2.613281 3.214844-2.125 7.941406 1.085937 10.554688 3.214844 2.613281 7.941407 2.125 10.554688-1.085938 19.492188-23.976562 23.121094-51.894531 8.625-66.390625zm0 0"/><path d="m244.945312 304.980469c-13.050781-4.042969-28.90625-4.097657-44.644531-.144531-15.738281 3.949218-29.691406 11.480468-39.285156 21.207031-8.257813 8.375-12.628906 17.65625-12.769531 26.765625l-12.355469 3.101562c-4.019531 1.007813-6.457031 5.082032-5.449219 9.101563.855469 3.402343 3.84375 6.777343 9.101563 5.449219l12.355469-3.101563c4.425781 7.960937 12.65625 14.078125 23.894531 17.5625 6.609375 2.046875 25.570312 5.046875 44.644531.148437 34.3125-8.816406 56.855469-33 51.207031-55.496093-2.863281-11.410157-12.34375-20.144531-26.699219-24.59375zm-28.160156 65.535156c-34.007812 8.480469-45.5-3.226563-49.246094-7.082031l52.085938-13.070313c4.015625-1.007812 6.457031-5.082031 5.449219-9.101562-1.011719-4.019531-5.089844-6.457031-9.101563-5.449219l-52.085937 13.070312c1.480469-5.167968 12.679687-22.632812 40.066406-29.5 31.734375-7.957031 51.0625 5.566407 53.140625 13.84375 3.476562 13.855469-14.972656 30.972657-40.308594 37.289063zm0 0"/><path d="m396.1875 82.722656c31.503906 0 56.914062-14.371094 62.164062-33.859375h12.742188c4.144531 0 7.503906-3.359375 7.503906-7.5 0-4.144531-3.359375-7.503906-7.503906-7.503906h-12.742188c-5.25-19.488281-30.660156-33.859375-62.164062-33.859375-35.425781 0-63.175781 18.167969-63.175781 41.363281 0 23.191407 27.75 41.359375 63.175781 41.359375zm0-67.71875c21.375 0 40.023438 8.085938 46.09375 18.855469h-53.75c-4.144531 0-7.5 3.359375-7.5 7.5 0 4.144531 3.355469 7.503906 7.5 7.503906h53.75c-6.070312 10.769531-24.71875 18.855469-46.09375 18.855469-26.109375 0-48.171875-12.070312-48.171875-26.359375 0-14.285156 22.058594-26.355469 48.171875-26.355469zm0 0"/></svg>