<?xml version="1.0" encoding="UTF-8"?>

<svg viewBox="0 0 89 178" version="1.1" xmlns="http://www.w3.org/2000/svg" xmlns:xlink="http://www.w3.org/1999/xlink">
    <!-- Generator: Sketch 51 (57462) - http://www.bohemiancoding.com/sketch -->
    <g id="Page-1" stroke="none" stroke-width="1" fill="none" fill-rule="evenodd">
        <g id="cactus_tongue" fill-rule="nonzero">
            <path d="M47.074,105.652085 C47.074,105.652085 53.314,36.794085 51.952,25.122085 C50.915,16.234085 43.183,7.18108505 32.095,7.18108505 C20.499,7.18108505 12.132,14.499085 9.155,26.152085 C3.579,47.980085 20.918,105.652085 20.918,105.652085 L47.074,105.652085" id="Fill-9" fill="#60AE62"></path>
            <path d="M47.074,105.652085 L48.885,105.816085 C48.886,105.811085 50.154,91.812085 51.424,75.360085 C52.058,67.133085 52.693,58.293085 53.169,50.277085 C53.646,42.259085 53.965,35.076085 53.965,30.110085 C53.964,27.935085 53.906,26.196085 53.759,24.913085 C53.183,20.023085 50.81,15.190085 47.064,11.518085 C43.325,7.85008505 38.144,5.35808505 32.095,5.36208505 C25.916,5.35508505 20.464,7.33408505 16.223,10.903085 C11.977,14.468085 8.957,19.571085 7.392,25.701085 C6.564,28.948085 6.231,32.788085 6.229,37.037085 C6.23,43.639085 7.047,51.229085 8.262,58.932085 C11.91,82.024085 19.165,106.134085 19.176,106.176085 L19.564,107.471085 L48.735,107.471085 L48.885,105.816085 L47.074,105.652085 L47.074,103.832085 L20.918,103.832085 L20.918,105.652085 L22.661,105.128085 C22.661,105.127085 22.612,104.967085 22.519,104.650085 C21.819,102.277085 18.647,91.327085 15.656,77.979085 C12.663,64.641085 9.862,48.868085 9.868,37.037085 C9.866,32.985085 10.2,29.402085 10.917,26.602085 C12.33,21.080085 14.982,16.697085 18.563,13.690085 C22.149,10.687085 26.678,9.00708505 32.095,9.00008505 C37.134,9.00508505 41.362,11.038085 44.52,14.119085 C47.671,17.196085 49.683,21.333085 50.144,25.333085 C50.263,26.346085 50.328,28.012085 50.326,30.110085 C50.327,34.929085 50.012,42.081085 49.537,50.062085 C48.825,62.037085 47.756,75.898085 46.865,86.761085 C46.419,92.193085 46.019,96.875085 45.729,100.199085 C45.584,101.861085 45.467,103.184085 45.387,104.091085 C45.306,104.997085 45.262,105.486085 45.262,105.487085 L47.074,105.652085 L47.074,103.832085 L47.074,105.652085" id="Fill-10" fill="#2D2118"></path>
            <path d="M18.146,84.374085 C14.162,66.189085 9.673,40.509085 12.673,27.651085 C14.021,21.873085 16.126,16.542085 20.202,14.002085 C23.494,11.950085 25.689,11.205085 27.092,11.205085 C30.238,11.205085 29.394,14.954085 27.979,16.108085 C22.411,20.648085 19.95,28.239085 19.183,35.536085 C18.31,43.839085 19.847,51.956085 20.785,60.152085 C21.582,67.122085 21.488,74.036085 19.543,80.531085 C19.409,80.686085 19.299,80.866085 19.221,81.068085 C19.116,81.339085 19.081,81.619085 19.106,81.890085 C18.819,82.726085 18.5,83.555085 18.146,84.374085" id="Fill-11" fill="#76BA77"></path>
            <path d="M47.419,53.254085 C46.432,53.125085 45.405,53.059085 44.338,53.059085 C44.336,53.059085 44.334,53.059085 44.332,53.059085 C44.332,53.059085 44.331,53.059085 44.33,53.059085 C43.729,53.059085 43.141,53.077085 42.566,53.113085 C43.634,38.239085 42.132,22.910085 35.702,9.51508505 C35.675,9.46008505 35.648,9.40408505 35.622,9.34908505 C39.126,10.055085 42.13,11.787085 44.52,14.119085 C47.671,17.196085 49.683,21.333085 50.144,25.333085 C50.263,26.346085 50.328,28.012085 50.326,30.110085 C50.327,34.002085 50.121,39.417085 49.792,45.560085 C49.762,45.638085 49.731,45.715085 49.701,45.792085 C48.766,48.204085 47.989,50.733085 47.419,53.254085" id="Fill-12" fill="#499253"></path>
            <path d="M49.792,45.560085 C50.121,39.417085 50.327,34.002085 50.326,30.110085 C50.328,28.012085 50.263,26.346085 50.144,25.333085 C49.683,21.333085 47.671,17.196085 44.52,14.119085 C42.13,11.787085 39.126,10.055085 35.622,9.34908505 C35.303,8.68908505 34.968,8.01908505 34.617,7.34608505 C44.343,8.59308505 50.996,16.925085 51.952,25.122085 C52.27,27.847085 52.173,33.687085 51.839,41.039085 C51.096,42.472085 50.411,43.990085 49.792,45.560085" id="Fill-13" fill="#231A12"></path>
            <path d="M17.939,164.010085 C19.396,170.454085 21.165,175.293085 23.195,175.293085 L66.398,175.293085 C68.207,175.293085 69.677,170.454085 70.833,164.010085 L17.939,164.010085" id="Fill-14" fill="#43B7B0"></path>
            <path d="M17.939,164.010085 L16.164,164.411085 C16.909,167.695085 17.726,170.588085 18.684,172.795085 C19.17,173.901085 19.68,174.840085 20.339,175.619085 C20.672,176.006085 21.049,176.359085 21.521,176.639085 C21.988,176.918085 22.575,177.115085 23.195,177.113085 L66.398,177.113085 C67.037,177.116085 67.633,176.885085 68.075,176.583085 C68.856,176.042085 69.318,175.351085 69.748,174.569085 C70.376,173.390085 70.877,171.927085 71.349,170.196085 C71.816,168.468085 72.238,166.482085 72.624,164.331085 L73.008,162.191085 L15.662,162.191085 L16.164,164.411085 L17.939,164.010085 L17.939,165.830085 L70.833,165.830085 L70.833,164.010085 L69.042,163.689085 C68.476,166.853085 67.826,169.609085 67.152,171.442085 C66.822,172.355085 66.472,173.035085 66.229,173.354085 L66.086,173.525085 L66.043,173.564085 L66.144,173.697085 L66.062,173.553085 L66.043,173.564085 L66.144,173.697085 L66.062,173.553085 L66.397,174.145085 L66.398,173.474085 C66.243,173.472085 66.102,173.527085 66.062,173.553085 L66.397,174.145085 L66.398,173.474085 L23.195,173.474085 L23.195,173.965085 L23.334,173.493085 L23.195,173.474085 L23.195,173.965085 L23.334,173.493085 L23.252,173.769085 L23.368,173.505085 L23.334,173.493085 L23.252,173.769085 L23.368,173.505085 L23.349,173.547085 L23.372,173.507085 L23.368,173.505085 L23.349,173.547085 L23.372,173.507085 C23.349,173.506085 23.063,173.270085 22.753,172.768085 C22.277,172.022085 21.726,170.757085 21.209,169.179085 C20.688,167.598085 20.185,165.695085 19.713,163.609085 L17.939,164.010085 L17.939,165.830085 L17.939,164.010085" id="Fill-15" fill="#2D2118"></path>
            <path d="M78.149,127.439085 C71.923,127.439085 11.23,127.439085 8.312,127.439085 C3.643,127.439085 -1.22,105.652085 4.227,105.652085 C8.117,105.652085 74.064,105.652085 79.316,105.652085 C84.568,105.652085 82.428,127.439085 78.149,127.439085" id="Fill-16" fill="#43B7B0"></path>
            <path d="M78.149,127.439085 L78.149,125.619085 C71.923,125.619085 11.229,125.619085 8.312,125.619085 L8.312,125.872085 L8.36,125.624085 L8.312,125.619085 L8.312,125.872085 L8.36,125.624085 L8.357,125.639085 L8.363,125.623085 L8.36,125.624085 L8.357,125.639085 L8.363,125.623085 C8.332,125.616085 8.148,125.518085 7.909,125.268085 C7.484,124.839085 6.927,123.996085 6.416,122.918085 C5.64,121.299085 4.929,119.158085 4.431,116.976085 C3.929,114.795085 3.637,112.558085 3.639,110.763085 C3.631,109.430085 3.819,108.336085 4.054,107.813085 C4.165,107.547085 4.269,107.448085 4.273,107.448085 L4.232,107.397085 L4.265,107.453085 L4.273,107.448085 L4.232,107.397085 L4.265,107.453085 L4.183,107.310085 L4.224,107.470085 L4.265,107.453085 L4.183,107.310085 L4.224,107.470085 L4.205,107.397085 L4.214,107.472085 L4.224,107.470085 L4.205,107.397085 L4.214,107.472085 L4.227,107.471085 C8.117,107.471085 74.063,107.471085 79.316,107.471085 L79.316,107.435085 L79.308,107.470085 L79.316,107.471085 L79.316,107.435085 L79.308,107.470085 L79.326,107.389085 L79.291,107.464085 L79.308,107.470085 L79.326,107.389085 L79.291,107.464085 L79.305,107.473085 C79.345,107.496085 79.501,107.645085 79.669,107.973085 C79.926,108.458085 80.182,109.297085 80.343,110.324085 C80.508,111.353085 80.591,112.571085 80.59,113.860085 C80.594,116.773085 80.161,120.055085 79.466,122.463085 C79.124,123.663085 78.704,124.647085 78.343,125.191085 C78.167,125.463085 78.01,125.616085 77.958,125.651085 L77.942,125.663085 L78.149,126.032085 L78.149,125.619085 C78.041,125.617085 77.946,125.658085 77.942,125.663085 L78.149,126.032085 L78.149,125.619085 L78.149,129.258085 C78.921,129.261085 79.623,128.956085 80.137,128.566085 C80.594,128.222085 80.949,127.815085 81.26,127.373085 C81.798,126.598085 82.211,125.698085 82.573,124.688085 C83.11,123.176085 83.515,121.412085 83.796,119.549085 C84.077,117.687085 84.229,115.732085 84.229,113.860085 C84.224,111.522085 84.006,109.333085 83.41,107.524085 C83.104,106.618085 82.707,105.786085 82.058,105.077085 C81.733,104.726085 81.336,104.408085 80.863,104.182085 C80.393,103.955085 79.852,103.830085 79.316,103.832085 C74.064,103.832085 8.116,103.832085 4.227,103.832085 C3.416,103.822085 2.581,104.122085 1.981,104.622085 C1.526,104.992085 1.19,105.441085 0.936,105.908085 C0.557,106.612085 0.341,107.370085 0.199,108.179085 C0.059,108.987085 0,109.852085 0,110.763085 C0.008,114.283085 0.864,118.563085 2.155,122.137085 C2.809,123.925085 3.561,125.525085 4.467,126.798085 C4.925,127.434085 5.421,127.996085 6.034,128.450085 C6.638,128.898085 7.414,129.257085 8.312,129.258085 C11.23,129.258085 71.923,129.258085 78.149,129.258085 L78.149,127.439085" id="Fill-17" fill="#2D2118"></path>
            <path d="M77.997,125.619085 C71.03,125.619085 11.706,125.619085 8.351,125.619085 C8.3,125.598085 8.128,125.496085 7.909,125.268085 C7.484,124.839085 6.927,123.996085 6.416,122.918085 C5.64,121.299085 4.929,119.158085 4.431,116.976085 C3.929,114.795085 3.637,112.558085 3.639,110.763085 C3.631,109.430085 3.819,108.336085 4.054,107.813085 C4.135,107.619085 4.212,107.514085 4.25,107.471085 C4.681,107.471085 5.788,107.471085 7.431,107.471085 C8.183,113.726085 11.759,121.473085 23.55,121.473085 C26.145,121.473085 65.5,121.473085 79.725,121.473085 C79.644,121.816085 79.557,122.147085 79.466,122.463085 C79.124,123.663085 78.704,124.647085 78.343,125.191085 C78.2,125.413085 78.069,125.555085 77.997,125.619085" id="Fill-18" fill="#35A09B"></path>
            <path d="M6.368,126.277085 C2.483,121.765085 -0.458,105.652085 4.227,105.652085 C4.628,105.652085 5.694,105.652085 7.285,105.652085 C7.309,106.237085 7.356,106.847085 7.431,107.471085 C5.788,107.471085 4.681,107.471085 4.25,107.471085 C4.212,107.514085 4.135,107.619085 4.054,107.813085 C3.819,108.336085 3.631,109.430085 3.639,110.763085 C3.637,112.558085 3.929,114.795085 4.431,116.976085 C4.929,119.158085 5.64,121.299085 6.416,122.918085 C6.927,123.996085 7.484,124.839085 7.909,125.268085 C8.128,125.496085 8.3,125.598085 8.351,125.619085 C11.706,125.619085 71.03,125.619085 77.997,125.619085 C78.069,125.555085 78.2,125.413085 78.343,125.191085 C78.704,124.647085 79.124,123.663085 79.466,122.463085 C79.557,122.147085 79.644,121.816085 79.725,121.473085 C80.408,121.473085 81.033,121.473085 81.593,121.473085 C81.202,123.233085 80.685,124.776085 80.071,125.851085 L80.085,125.619085 L6.303,125.619085 L6.368,126.277085" id="Fill-19" fill="#251B14"></path>
            <path d="M69.201,170.819085 C62.976,170.819085 22.512,170.819085 19.595,170.819085 C12.618,170.819085 8.312,127.439085 8.312,127.439085 L78.149,127.439085 C78.149,127.439085 75.425,170.819085 69.201,170.819085" id="Fill-20" fill="#43B7B0"></path>
            <path d="M69.201,168.999085 C62.976,168.999085 22.512,168.999085 19.595,168.999085 C19.562,168.985085 19.364,168.876085 19.101,168.579085 C18.6,168.033085 17.946,166.902085 17.335,165.400085 C16.25,162.767085 15.224,159.013085 14.334,154.921085 C12.994,148.776085 11.937,141.844085 11.22,136.464085 C10.861,133.772085 10.586,131.468085 10.401,129.837085 C10.309,129.022085 10.239,128.376085 10.192,127.934085 C10.146,127.493085 10.123,127.260085 10.122,127.259085 L8.312,127.439085 L8.312,129.258085 L76.301,129.258085 C76.143,131.616085 75.373,140.859085 73.925,150.900085 C73.204,155.915085 72.306,160.778085 71.266,164.269085 C70.752,166.009085 70.188,167.410085 69.688,168.231085 C69.443,168.642085 69.214,168.897085 69.102,168.984085 L69.134,169.203085 L69.083,169.014085 L69.134,169.203085 L69.083,169.014085 L69.2,169.449085 L69.201,168.999085 L69.2,169.449085 L69.201,168.999085 L69.201,172.638085 C69.66,172.639085 70.112,172.534085 70.503,172.361085 C71.267,172.021085 71.809,171.488085 72.266,170.902085 C73.113,169.791085 73.732,168.378085 74.321,166.670085 C75.333,163.689085 76.165,159.806085 76.875,155.602085 C78.997,143.011085 79.961,127.585085 79.964,127.553085 L80.085,125.619085 L6.303,125.619085 L6.501,127.619085 C6.504,127.645085 7.582,138.516085 9.546,149.450085 C10.531,154.923085 11.729,160.400085 13.166,164.627085 C13.891,166.745085 14.661,168.549085 15.59,169.959085 C16.059,170.664085 16.57,171.280085 17.212,171.776085 C17.845,172.266085 18.674,172.640085 19.595,172.638085 C22.512,172.638085 62.976,172.638085 69.201,172.638085 L69.201,170.819085 L69.201,168.999085 Z" id="Fill-21" fill="#2D2118"></path>
            <path d="M69.082,168.999085 C64.513,168.999085 43.945,168.999085 30.756,168.999085 C27.926,166.899085 25.504,164.266085 23.718,160.980085 C19.761,153.703085 18.782,144.910085 20.554,136.848085 C21.203,133.895085 22.448,131.376085 24.133,129.258085 L37.638,129.258085 C36.412,129.831085 35.24,130.530085 34.142,131.410085 C28.152,136.211085 27.078,145.817085 28.729,152.822085 C30.463,160.179085 36.054,165.894085 43.437,167.552085 C45.697,168.060085 47.975,168.299085 50.244,168.299085 C58.036,168.299085 65.714,165.478085 72.107,161.033085 C71.838,162.202085 71.558,163.289085 71.266,164.269085 C70.752,166.009085 70.188,167.410085 69.688,168.231085 C69.443,168.642085 69.214,168.897085 69.102,168.984085 L69.082,168.999085" id="Fill-22" fill="#35A09B"></path>
            <path d="M69.201,170.819085 L69.201,168.999085 L69.201,170.819085 L33.526,170.819085 C32.567,170.262085 31.641,169.657085 30.756,168.999085 C43.945,168.999085 64.513,168.999085 69.082,168.999085 L69.102,168.984085 C69.214,168.897085 69.443,168.642085 69.688,168.231085 C70.188,167.410085 70.752,166.009085 71.266,164.269085 C71.558,163.289085 71.838,162.202085 72.107,161.033085 C72.192,160.974085 72.278,160.914085 72.363,160.854085 C73.043,160.373085 73.699,159.869085 74.331,159.345085 C72.999,165.884085 71.299,170.819085 69.201,170.819085 M37.638,129.258085 L24.133,129.258085 C24.644,128.615085 25.196,128.009085 25.785,127.439085 L8.312,127.439085 L43.074,127.439085 C41.199,127.895085 39.366,128.451085 37.638,129.258085" id="Fill-23" fill="#251B14"></path>
            <path d="M30.756,168.999085 C24.926,168.999085 20.537,168.999085 19.611,168.999085 L19.604,168.997085 C19.562,168.985085 19.364,168.876085 19.101,168.579085 C18.6,168.033085 17.946,166.902085 17.335,165.400085 C16.25,162.767085 15.224,159.013085 14.334,154.921085 C12.994,148.776085 11.937,141.844085 11.22,136.464085 C10.861,133.772085 10.586,131.468085 10.401,129.837085 C10.378,129.634085 10.356,129.440085 10.336,129.258085 L24.133,129.258085 C22.448,131.376085 21.203,133.895085 20.554,136.848085 C18.782,144.910085 19.761,153.703085 23.718,160.980085 C25.504,164.266085 27.926,166.899085 30.756,168.999085" id="Fill-24" fill="#228B88"></path>
            <path d="M33.526,170.819085 L19.595,170.819085 C12.618,170.819085 8.312,127.439085 8.312,127.439085 L25.785,127.439085 C25.196,128.009085 24.644,128.615085 24.133,129.258085 L10.336,129.258085 C10.356,129.440085 10.378,129.634085 10.401,129.837085 C10.586,131.468085 10.861,133.772085 11.22,136.464085 C11.937,141.844085 12.994,148.776085 14.334,154.921085 C15.224,159.013085 16.25,162.767085 17.335,165.400085 C17.946,166.902085 18.6,168.033085 19.101,168.579085 C19.364,168.876085 19.562,168.985085 19.604,168.997085 L19.611,168.999085 C20.537,168.999085 24.926,168.999085 30.756,168.999085 C31.641,169.657085 32.567,170.262085 33.526,170.819085" id="Fill-25" fill="#1F1810"></path>
            <path d="M51.092,164.793085 C48.277,164.793085 45.473,164.366085 42.855,163.511085 C35.775,161.200085 32.101,153.558085 32.149,146.097085 C32.175,142.114085 33.248,137.763085 35.659,134.648085 C37.547,132.207085 40.425,130.232085 43.269,129.258085 L69.378,129.258085 C73.185,130.176085 74.595,133.018085 74.292,137.554085 C73.927,143.029085 73.717,152.283085 69.419,157.160085 C64.945,162.236085 57.985,164.793085 51.092,164.793085" id="Fill-26" fill="#54BBB7"></path>
            <path d="M69.378,129.258085 L43.269,129.258085 C43.723,129.103085 44.176,128.973085 44.624,128.871085 C46.043,128.547085 48.646,128.436085 51.619,128.436085 C57.282,128.436085 64.283,128.839085 66.969,128.946085 C67.86,128.981085 68.662,129.085085 69.378,129.258085" id="Fill-27" fill="#403327"></path>
            <path d="M45.153,119.496085 C35.737,119.496085 27.033,119.443085 23.29,119.307085 C17.941,119.113085 8.46,108.539085 11.716,108.277085 C15.234,107.994085 53.561,107.853085 67.253,107.853085 C69.601,107.853085 71.227,107.857085 71.827,107.866085 C77.451,107.943085 79.328,109.474085 79.608,111.389085 C79.997,114.045085 80.677,119.171085 77.468,119.268085 C73.479,119.389085 58.591,119.496085 45.153,119.496085" id="Fill-28" fill="#54BBB7"></path>
            <path d="M59.312,105.652085 C59.312,105.652085 63.397,83.085085 62.035,71.414085 C60.998,62.525085 55.421,54.878085 44.332,54.878085 C32.738,54.878085 27.46,62.113085 26.63,71.414085 C25.658,82.306085 29.16,105.652085 29.16,105.652085 L59.312,105.652085" id="Fill-29" fill="#60AE62"></path>
            <path d="M61.102,105.976085 C61.105,105.956085 61.86,101.788085 62.615,96.091085 C63.37,90.391085 64.13,83.176085 64.131,76.988085 C64.131,74.921085 64.046,72.968085 63.842,71.204085 C63.287,66.452085 61.513,61.931085 58.264,58.551085 C56.642,56.864085 54.652,55.478085 52.317,54.527085 C49.983,53.575085 47.313,53.058085 44.332,53.059085 C41.246,53.059085 38.513,53.541085 36.138,54.456085 C32.571,55.823085 29.844,58.187085 27.999,61.124085 C26.149,64.063085 25.15,67.543085 24.818,71.252085 C24.693,72.654085 24.64,74.215085 24.639,75.889085 C24.641,81.903085 25.323,89.379085 26.001,95.386085 C26.68,101.389085 27.358,105.907085 27.36,105.922085 L27.592,107.471085 L60.831,107.471085 L61.102,105.976085 L59.312,105.652085 L59.312,103.832085 L30.6604004,103.832085 C31.9831326,103.832085 29.945,98.160085 29.367,92.688085 C28.788,87.220085 28.277,80.918085 28.278,75.889085 C28.278,74.294085 28.33,72.829085 28.442,71.575085 C28.833,67.212085 30.249,63.507085 32.752,60.923085 C34.008,59.626085 35.544,58.586085 37.445,57.852085 C39.347,57.120085 41.622,56.698085 44.332,56.698085 C46.896,56.698085 49.081,57.138085 50.943,57.897085 C53.733,59.039085 55.833,60.896085 57.375,63.266085 C58.913,65.633085 59.866,68.524085 60.227,71.624085 C60.41,73.195085 60.493,75.023085 60.492,76.988085 C60.494,82.886085 59.753,90.003085 59.008,95.613085 C58.636,98.420085 58.263,100.853085 57.984,102.583085 C57.845,103.448085 57.729,104.136085 57.647,104.607085 C57.566,105.079085 57.521,105.327085 57.521,105.328085 L59.312,105.652085 L59.312,103.832085 L59.312,105.652085 L61.102,105.976085 Z" id="Fill-30" fill="#2D2118"></path>
            <path d="M57.779,103.832085 L46.03,103.832085 C46.238,103.585085 46.408,103.381085 46.533,103.243085 C49.632,99.788085 52.553,96.126085 55.267,92.361085 C57.745,88.922085 59.349,84.759085 60.415,80.528085 C60.207,85.583085 59.609,91.088085 59.008,95.613085 C58.636,98.420085 58.263,100.853085 57.984,102.583085 C57.908,103.054085 57.839,103.472085 57.779,103.832085" id="Fill-31" fill="#499253"></path>
            <path d="M59.312,105.652085 L44.449,105.652085 C45.07,104.982085 45.622,104.321085 46.03,103.832085 L57.779,103.832085 C57.839,103.472085 57.908,103.054085 57.984,102.583085 C58.263,100.853085 58.636,98.420085 59.008,95.613085 C59.609,91.088085 60.207,85.583085 60.415,80.528085 C60.967,78.337085 61.375,76.128085 61.686,73.991085 C61.816,73.093085 61.927,72.186085 62.016,71.273085 L62.035,71.414085 C63.397,83.085085 59.312,105.652085 59.312,105.652085 M59.312,105.652085 L59.312,103.832085 L59.312,105.652085" id="Fill-32" fill="#231A12"></path>
            <path d="M59.605,79.864085 L66.997,74.221085 C67.795,73.611085 67.949,72.470085 67.339,71.671085 C66.729,70.872085 65.587,70.719085 64.789,71.329085 L57.397,76.971085 C56.599,77.581085 56.445,78.723085 57.055,79.521085 C57.665,80.320085 58.807,80.473085 59.605,79.864085" id="Fill-33" fill="#2D2118"></path>
            <path d="M27.115,82.165085 L21.574,80.026085 C20.636,79.664085 19.583,80.130085 19.221,81.068085 C18.859,82.005085 19.326,83.058085 20.263,83.420085 L25.804,85.560085 C26.741,85.922085 27.794,85.455085 28.157,84.518085 C28.519,83.581085 28.052,82.527085 27.115,82.165085" id="Fill-34" fill="#2D2118"></path>
            <path d="M26.876,85.144085 L20.797,85.549085 C19.794,85.616085 19.036,86.483085 19.103,87.486085 C19.169,88.488085 20.037,89.247085 21.039,89.180085 L27.118,88.775085 C28.121,88.708085 28.879,87.841085 28.812,86.838085 C28.746,85.836085 27.879,85.077085 26.876,85.144085" id="Fill-35" fill="#2D2118"></path>
            <path d="M40.486,95.855085 L46.549,91.575085 C47.37,90.995085 47.565,89.860085 46.985,89.039085 C46.406,88.218085 45.271,88.022085 44.45,88.602085 L38.387,92.882085 C37.566,93.462085 37.371,94.597085 37.951,95.418085 C38.53,96.239085 39.665,96.434085 40.486,95.855085" id="Fill-36" fill="#2D2118"></path>
            <path d="M33.728,34.653085 L39.79,30.373085 C40.612,29.794085 40.807,28.659085 40.228,27.838085 C39.648,27.017085 38.513,26.821085 37.692,27.401085 L31.63,31.680085 C30.809,32.259085 30.613,33.395085 31.192,34.216085 C31.772,35.037085 32.907,35.232085 33.728,34.653085" id="Fill-37" fill="#2D2118"></path>
            <path d="M50.09,75.160085 L51.841,70.447085 C52.191,69.506085 51.711,68.458085 50.77,68.108085 C49.828,67.758085 48.78,68.238085 48.431,69.180085 L46.68,73.893085 C46.33,74.835085 46.809,75.882085 47.751,76.232085 C48.693,76.582085 49.741,76.102085 50.09,75.160085" id="Fill-38" fill="#2D2118"></path>
            <path d="M23.643,25.756085 L25.394,21.044085 C25.744,20.102085 25.264,19.055085 24.322,18.705085 C23.38,18.355085 22.333,18.835085 21.983,19.777085 L20.232,24.489085 C19.882,25.431085 20.362,26.478085 21.304,26.828085 C22.246,27.178085 23.293,26.698085 23.643,25.756085" id="Fill-39" fill="#2D2118"></path>
            <path d="M62.398,93.650085 L67.028,89.955085 C67.813,89.328085 67.942,88.183085 67.315,87.398085 C66.688,86.612085 65.543,86.484085 64.758,87.111085 L60.128,90.806085 C59.343,91.433085 59.214,92.578085 59.841,93.363085 C60.468,94.148085 61.613,94.277085 62.398,93.650085" id="Fill-40" fill="#2D2118"></path>
            <path d="M61.632,97.741085 L66.751,95.000085 C67.638,94.525085 67.971,93.423085 67.497,92.537085 C67.022,91.651085 65.92,91.318085 65.034,91.792085 L59.915,94.533085 C59.029,95.008085 58.695,96.110085 59.17,96.996085 C59.644,97.882085 60.747,98.215085 61.632,97.741085" id="Fill-41" fill="#2D2118"></path>
            <path d="M48.385,58.380085 C49.261,50.599085 52.697,41.648085 56.922,36.486085 C64.089,27.733085 74.309,27.081085 78.675,31.785085 C84.763,38.343085 83.951,48.264085 79.494,54.878085 C75.037,61.492085 65.763,66.888085 59.271,67.074085 L48.385,58.380085" id="Fill-42" fill="#60AE62"></path>
            <path d="M50.193,58.584085 C50.609,54.878085 51.65,50.825085 53.094,47.109085 C54.533,43.393085 56.386,40.008085 58.33,37.638085 C62.333,32.747085 67.263,30.702085 71.231,30.706085 C73.866,30.707085 76.019,31.593085 77.342,33.023085 C80.038,35.931085 81.213,39.565085 81.219,43.314085 C81.223,47.052085 80.01,50.863085 77.984,53.862085 C75.959,56.878085 72.704,59.747085 69.213,61.824085 C67.47,62.864085 65.669,63.710085 63.952,64.299085 C62.236,64.889085 60.603,65.217085 59.219,65.255085 C58.214,65.284085 57.423,66.121085 57.452,67.126085 C57.481,68.130085 58.318,68.921085 59.323,68.892085 C61.185,68.837085 63.145,68.421085 65.133,67.741085 C68.113,66.717085 71.157,65.091085 73.925,63.061085 C76.69,61.028085 79.18,58.595085 81.002,55.895085 C83.432,52.281085 84.853,47.827085 84.858,43.314085 C84.863,38.807085 83.401,34.198085 80.009,30.547085 C77.849,28.228085 74.664,27.066085 71.231,27.067085 C66.034,27.071085 60.134,29.693085 55.514,35.333085 C53.233,38.126085 51.255,41.797085 49.701,45.792085 C48.152,49.788085 47.037,54.101085 46.577,58.177085 C46.464,59.175085 47.183,60.076085 48.181,60.188085 C49.18,60.301085 50.081,59.582085 50.193,58.584085" id="Fill-43" fill="#2D2118"></path>
            <path d="M50.416,56.931085 C50.522,56.255085 50.647,55.571085 50.789,54.883085 C52.312,48.148085 55.528,40.066085 59.615,36.639085 C64.75,32.331085 69.097,31.174085 71.779,31.174085 C74.256,31.174085 75.313,32.161085 74.258,32.567085 C68.421,34.810085 63.386,42.714085 60.556,46.499085 C57.596,50.461085 54.689,54.410085 50.416,56.931085" id="Fill-44" fill="#76BA77"></path>
            <path d="M50.365,56.961085 C50.487,56.288085 50.628,55.593085 50.789,54.883085 C50.647,55.571085 50.522,56.255085 50.416,56.931085 C50.399,56.941085 50.382,56.951085 50.365,56.961085" id="Fill-45" fill="#584F3A"></path>
            <path d="M30.142,90.878085 C28.522,83.892085 27.94,73.823085 30.587,68.556085 C34.698,60.375085 39.787,58.173085 41.789,58.173085 C42.607,58.173085 42.91,58.540085 42.421,59.017085 C37.951,63.388085 36.456,72.640085 35.358,77.236085 C34.203,82.066085 33.093,86.863085 30.142,90.878085" id="Fill-46" fill="#76BA77"></path>
            <path d="M63.11,64.569085 C66.14,61.799085 68.83,58.615085 71.334,55.415085 C74.39,51.513085 76.18,46.837085 76.772,41.938085 C77.177,38.586085 76.92,35.239085 76.133,32.014085 C76.589,32.309085 76.994,32.647085 77.342,33.023085 C80.038,35.931085 81.213,39.565085 81.219,43.314085 C81.223,47.052085 80.01,50.863085 77.984,53.862085 C75.959,56.878085 72.704,59.747085 69.213,61.824085 C67.47,62.864085 65.669,63.710085 63.952,64.299085 C63.669,64.396085 63.388,64.487085 63.11,64.569085" id="Fill-47" fill="#499253"></path>
            <path d="M60.193,67.011085 C61.201,66.245085 62.172,65.427085 63.11,64.569085 C63.388,64.487085 63.669,64.396085 63.952,64.299085 C65.669,63.710085 67.47,62.864085 69.213,61.824085 C72.704,59.747085 75.959,56.878085 77.984,53.862085 C80.01,50.863085 81.223,47.052085 81.219,43.314085 C81.213,39.565085 80.038,35.931085 77.342,33.023085 C76.994,32.647085 76.589,32.309085 76.133,32.014085 C75.938,31.216085 75.711,30.425085 75.454,29.644085 C76.71,30.133085 77.809,30.852085 78.675,31.785085 C84.763,38.343085 83.951,48.264085 79.494,54.878085 C75.243,61.185085 66.614,66.382085 60.193,67.011085" id="Fill-48" fill="#231A12"></path>
            <path d="M78.149,56.698085 L86.319,56.698085 C87.323,56.698085 88.138,55.883085 88.138,54.878085 C88.138,53.873085 87.323,53.059085 86.319,53.059085 L78.149,53.059085 C77.144,53.059085 76.329,53.873085 76.329,54.878085 C76.329,55.883085 77.144,56.698085 78.149,56.698085" id="Fill-49" fill="#2D2118"></path>
            <path d="M80.21,32.760085 L84.574,25.895085 C85.113,25.047085 84.862,23.923085 84.014,23.384085 C83.166,22.845085 82.042,23.095085 81.503,23.943085 L77.14,30.809085 C76.601,31.657085 76.851,32.781085 77.699,33.320085 C78.547,33.859085 79.671,33.608085 80.21,32.760085" id="Fill-50" fill="#2D2118"></path>
            <path d="M81.998,36.184085 L87.46,31.783085 C88.243,31.153085 88.366,30.008085 87.735,29.225085 C87.105,28.443085 85.959,28.319085 85.177,28.950085 L79.715,33.350085 C78.933,33.981085 78.81,35.126085 79.44,35.908085 C80.07,36.691085 81.216,36.814085 81.998,36.184085" id="Fill-51" fill="#2D2118"></path>
            <path d="M51.217,30.938085 L56.679,26.539085 C57.461,25.909085 57.584,24.764085 56.955,23.981085 C56.324,23.199085 55.179,23.075085 54.396,23.705085 L48.934,28.104085 C48.152,28.734085 48.028,29.879085 48.658,30.662085 C49.289,31.445085 50.434,31.568085 51.217,30.938085" id="Fill-52" fill="#2D2118"></path>
            <path d="M60.377,38.343085 L60.377,43.595085 C60.377,44.600085 61.192,45.414085 62.197,45.414085 C63.201,45.414085 64.016,44.600085 64.016,43.595085 L64.016,38.343085 C64.016,37.338085 63.201,36.524085 62.197,36.524085 C61.192,36.524085 60.377,37.338085 60.377,38.343085" id="Fill-53" fill="#2D2118"></path>
            <path d="M63.815,55.660085 L69.487,54.104085 C70.456,53.838085 71.025,52.836085 70.76,51.867085 C70.494,50.898085 69.493,50.329085 68.523,50.594085 L62.852,52.151085 C61.883,52.417085 61.313,53.418085 61.579,54.387085 C61.845,55.356085 62.846,55.926085 63.815,55.660085" id="Fill-54" fill="#2D2118"></path>
            <path d="M74.548,42.279085 L77.272,39.653085 C77.995,38.956085 78.016,37.804085 77.319,37.080085 C76.622,36.357085 75.47,36.336085 74.746,37.033085 L72.022,39.659085 C71.299,40.357085 71.278,41.509085 71.976,42.232085 C72.673,42.955085 73.825,42.976085 74.548,42.279085" id="Fill-55" fill="#2D2118"></path>
            <path d="M41.26,8.57108505 L41.251,2.13008505 C41.25,1.12508505 40.434,0.311085045 39.429,0.313085045 C38.425,0.314085045 37.611,1.13008505 37.612,2.13508505 L37.621,8.57608505 C37.622,9.58108505 38.438,10.394085 39.443,10.393085 C40.448,10.392085 41.261,9.57608505 41.26,8.57108505" id="Fill-56" fill="#2D2118"></path>
            <path d="M43.61,9.43508505 L45.84,2.36708505 C46.142,1.40908505 45.61,0.387085045 44.652,0.0850850451 C43.694,-0.217914955 42.672,0.314085045 42.37,1.27208505 L40.14,8.34008505 C39.838,9.29808505 40.37,10.320085 41.328,10.622085 C42.286,10.924085 43.308,10.393085 43.61,9.43508505" id="Fill-57" fill="#2D2118"></path>
            <path d="M27.955,51.078085 L29.122,55.357085 C29.386,56.326085 30.386,56.898085 31.356,56.634085 C32.325,56.369085 32.897,55.369085 32.632,54.400085 L31.465,50.120085 C31.201,49.151085 30.201,48.579085 29.231,48.844085 C28.262,49.108085 27.69,50.108085 27.955,51.078085" id="Fill-58" fill="#2D2118"></path>
            <path d="M10.303,16.406085 L13.338,20.933085 C13.897,21.768085 15.027,21.991085 15.862,21.431085 C16.697,20.872085 16.919,19.742085 16.36,18.907085 L13.325,14.380085 C12.766,13.545085 11.635,13.322085 10.801,13.882085 C9.966,14.441085 9.743,15.571085 10.303,16.406085" id="Fill-59" fill="#2D2118"></path>
            <path d="M14.501,60.643085 L7.498,64.145085 C6.599,64.594085 6.235,65.687085 6.685,66.586085 C7.134,67.484085 8.227,67.849085 9.125,67.399085 L16.128,63.897085 C17.027,63.448085 17.391,62.355085 16.942,61.456085 C16.493,60.557085 15.4,60.193085 14.501,60.643085" id="Fill-60" fill="#2D2118"></path>
            <path d="M15.315,57.338085 L7.145,57.338085 C6.14,57.338085 5.325,58.153085 5.325,59.158085 C5.325,60.162085 6.14,60.977085 7.145,60.977085 L15.315,60.977085 C16.319,60.977085 17.134,60.162085 17.134,59.158085 C17.134,58.153085 16.319,57.338085 15.315,57.338085" id="Fill-61" fill="#2D2118"></path>
            <path d="M40.677,73.196085 L35.62,68.483085 C34.884,67.798085 33.733,67.838085 33.048,68.574085 C32.363,69.309085 32.404,70.460085 33.139,71.145085 L38.196,75.858085 C38.932,76.543085 40.083,76.502085 40.768,75.767085 C41.453,75.032085 41.412,73.881085 40.677,73.196085" id="Fill-62" fill="#2D2118"></path>
            <path d="M30.116,153.384 C30.116,154.699 27.852,155.767 25.058,155.767 C22.265,155.767 20,154.699 20,153.384 C20,152.067 22.265,151 25.058,151 C27.852,151 30.116,152.067 30.116,153.384" id="Fill-177" fill="#EE9E80"></path>
            <path d="M69.116,153.384 C69.116,154.699 66.85,155.767 64.059,155.767 C61.266,155.767 59,154.699 59,153.384 C59,152.067 61.266,151 64.059,151 C66.85,151 69.116,152.067 69.116,153.384" id="Fill-178" fill="#EE9E80"></path>
            <g id="mouth" transform="translate(34.000000, 145.000000)">
                <g id="tongue" transform="translate(2.000000, 15.000000)">
                    <path d="M1.95733333,1.4005 C0.782060606,5.3 2.09260606,13.773 8.29187879,13.5435 C13.2130909,13.361 15.1932121,8.1505 14.1032727,1.59 C14.1032727,1.59 11.9563636,3.3505 8.17066667,3.2325 C3.79733333,3.096 1.95733333,1.4005 1.95733333,1.4005" id="Fill-55" fill="#E5746B"></path>
                    <path d="M1.95733333,1.4005 L0.799515152,1.029 C0.501818182,2.0225 0.356848485,3.1745 0.355393939,4.4055 C0.355878788,5.514 0.476606061,6.683 0.741333333,7.8335 C1.14036364,9.5555 1.85551515,11.25 3.04921212,12.5765 C3.64557576,13.2375 4.36654545,13.8 5.20872727,14.191 C6.04993939,14.5835 7.00751515,14.799 8.04557576,14.798 C8.14109091,14.798 8.23660606,14.796 8.33309091,14.793 L8.3350303,14.7925 C9.51321212,14.75 10.5968485,14.4525 11.5335758,13.9225 C12.9435152,13.1285 13.9825455,11.832 14.6390303,10.284 C15.2989091,8.732 15.6048485,6.9195 15.6058182,4.9475 C15.6058182,3.8065 15.5020606,2.6115 15.2979394,1.379 C15.2252121,0.943 14.9362424,0.58 14.5352727,0.422 C14.1347879,0.2645 13.6843636,0.336 13.3488485,0.6115 L13.76,1.145 L13.3556364,0.606 L13.3488485,0.6115 L13.76,1.145 L13.3556364,0.606 L13.3381818,0.6195 C13.241697,0.692 12.7597576,1.0375 11.945697,1.3605 C11.1301818,1.684 9.98448485,1.988 8.53381818,1.988 C8.42666667,1.988 8.31709091,1.9865 8.20557576,1.983 L8.2070303,1.983 C6.16727273,1.9185 4.76945455,1.496 3.89769697,1.1145 C3.46181818,0.924 3.15781818,0.7425 2.97260606,0.6185 C2.88,0.557 2.81745455,0.5095 2.78351515,0.4825 L2.75345455,0.4575 L2.72678788,0.491 L2.75393939,0.4585 L2.75345455,0.4575 L2.72678788,0.491 L2.75393939,0.4585 L2.21721212,1.1005 L2.76509091,0.4685 L2.75393939,0.4585 L2.21721212,1.1005 L2.76509091,0.4685 C2.45672727,0.1845 2.032,0.082 1.63393939,0.1955 C1.23539394,0.3095 0.922181818,0.622 0.799515152,1.029 L1.95733333,1.4005 L1.14957576,2.3325 C1.23490909,2.4115 1.808,2.9155 2.94981818,3.4155 C4.09115152,3.9165 5.80024242,4.4095 8.13333333,4.482 L8.13527273,4.482 C8.26812121,4.486 8.4009697,4.488 8.53381818,4.488 C10.496,4.4885 12.0528485,4.0325 13.1243636,3.566 C14.1973333,3.099 14.7893333,2.624 14.857697,2.5685 L14.1032727,1.59 L12.9081212,1.8005 C13.0918788,2.906 13.1815758,3.963 13.1815758,4.9475 C13.1844848,7.221 12.6938182,9.0885 11.8632727,10.3145 C11.4472727,10.9315 10.9551515,11.398 10.3689697,11.73 C9.78230303,12.06 9.09187879,12.262 8.24775758,12.2945 L8.25018182,12.294 C8.18036364,12.2965 8.11248485,12.298 8.04557576,12.298 C7.08606061,12.295 6.34424242,12.0485 5.70424242,11.6335 C5.22569697,11.321 4.80484848,10.9035 4.43684848,10.3935 C3.88509091,9.63 3.46230303,8.657 3.18690909,7.608 C2.90957576,6.5595 2.77915152,5.4395 2.77963636,4.4055 C2.77818182,3.387 2.90860606,2.449 3.11466667,1.7715 L1.95733333,1.4005 L1.14957576,2.3325 L1.95733333,1.4005" id="Fill-56" fill="#20160E"></path>
                    <polygon id="Fill-54" fill="#20160E" points="2.55738045 1 3.84448225 1.54019655 2.82028809 3.36601285 0.96969697 2.58598146 1.25578609 1.38919899"></polygon>
                    <polygon id="Fill-53" fill="#20160E" transform="translate(13.570216, 2.418907) rotate(41.000000) translate(-13.570216, -2.418907) " points="13.7065778 1.24929646 15.0190968 1.80236257 14.0085215 3.58851776 12.1213355 2.79002611 12.393316 1.6132797"></polygon>
                    <path d="M5.45939394,8.773 C5.23781818,8.6545 5.14278788,8.355 5.2489697,8.105 C5.32412121,7.924 5.48363636,7.8185 5.64993939,7.8185 C5.71442424,7.8185 5.77987879,7.8345 5.84193939,7.868 C6.06254545,7.986 6.15709091,8.2865 6.05187879,8.5355 C5.97478788,8.716 5.81575758,8.822 5.64993939,8.822 C5.58593939,8.822 5.5209697,8.8065 5.45939394,8.773 Z" id="Fill-57" fill="#EA9081"></path>
                    <path d="M6.76315152,10.3875 C6.67393939,10.3875 6.58375758,10.366 6.49793939,10.3205 C6.19054545,10.154 6.06060606,9.7385 6.20751515,9.391 C6.31272727,9.1405 6.53381818,8.994 6.76460606,8.994 C6.85333333,8.994 6.944,9.0155 7.02933333,9.0615 C7.33721212,9.227 7.46860606,9.6425 7.32218182,9.9905 C7.216,10.241 6.99442424,10.3875 6.76315152,10.3875" id="Fill-58" fill="#EA9081"></path>
                    <path d="M5.36581818,9.8285 C5.33381818,9.8285 5.30133333,9.8205 5.27078788,9.804 C5.16024242,9.744 5.11272727,9.595 5.16557576,9.47 C5.20339394,9.3795 5.28242424,9.327 5.36533333,9.327 C5.39733333,9.327 5.43030303,9.335 5.46133333,9.3515 C5.57284848,9.4105 5.61939394,9.5605 5.5670303,9.685 C5.52824242,9.7755 5.44824242,9.8285 5.36581818,9.8285" id="Fill-59" fill="#EA9081"></path>
                    <path d="M5.78472727,10.9475 C5.76339394,10.9475 5.74206061,10.9425 5.72169697,10.9315 C5.64751515,10.8915 5.61648485,10.7915 5.65139394,10.708 C5.67660606,10.648 5.72993939,10.6125 5.78521212,10.6125 C5.80654545,10.6125 5.82836364,10.618 5.84824242,10.629 C5.92339394,10.669 5.95345455,10.7685 5.91951515,10.852 C5.89333333,10.9125 5.84048485,10.9475 5.78472727,10.9475" id="Fill-60" fill="#EA9081"></path>
                    <path d="M6.89987879,11.546 C6.87854545,11.546 6.85672727,11.5405 6.83636364,11.53 C6.76218182,11.4905 6.73212121,11.39 6.7670303,11.307 C6.79224242,11.2465 6.84509091,11.2115 6.90036364,11.2115 C6.92169697,11.2115 6.94351515,11.2165 6.96387879,11.2275 C7.03806061,11.2675 7.06909091,11.368 7.03418182,11.451 C7.0089697,11.511 6.95515152,11.546 6.89987879,11.546" id="Fill-61" fill="#EA9081"></path>
                    <path d="M8.41987879,11.4205 C8.35587879,11.4205 8.29139394,11.405 8.23030303,11.372 C8.00775758,11.253 7.91272727,10.9535 8.01890909,10.703 C8.0950303,10.5225 8.25357576,10.417 8.41987879,10.417 C8.48387879,10.417 8.54884848,10.4325 8.61090909,10.466 C8.83345455,10.5845 8.9270303,10.885 8.82181818,11.134 C8.74521212,11.315 8.58569697,11.4205 8.41987879,11.4205" id="Fill-62" fill="#EA9081"></path>
                    <path d="M8.28363636,9.7275 C8.25115152,9.7275 8.21769697,9.7195 8.18569697,9.7025 C8.07030303,9.6405 8.02278788,9.4855 8.07563636,9.355 C8.11539394,9.2615 8.19830303,9.207 8.28460606,9.207 C8.31757576,9.207 8.35151515,9.215 8.38351515,9.2325 C8.49890909,9.294 8.54739394,9.45 8.49260606,9.5795 C8.45284848,9.6725 8.36993939,9.7275 8.28363636,9.7275" id="Fill-63" fill="#EA9081"></path>
                    <path d="M6.69769697,8.3775 C6.67490909,8.3775 6.65163636,8.3715 6.62981818,8.36 C6.55127273,8.317 6.51684848,8.2095 6.55515152,8.1195 C6.58230303,8.0555 6.64,8.018 6.69915152,8.018 C6.72193939,8.018 6.74521212,8.0235 6.7670303,8.035 C6.84654545,8.077 6.88048485,8.185 6.84072727,8.2745 C6.81406061,8.3395 6.75733333,8.3775 6.69769697,8.3775" id="Fill-64" fill="#EA9081"></path>
                    <path d="M9.38230303,3.6065 L8.29187879,8.388 L6.9590303,3.672 C6.76509091,2.987 7.14666667,2.2695 7.81139394,2.0695 C8.47563636,1.8695 9.17139394,2.2635 9.36533333,2.949 C9.42739394,3.169 9.42884848,3.398 9.38230303,3.6065" id="Fill-65" fill="#20160E"></path>
                </g>
                <circle id="Oval" fill="#54BBB7" cx="10.5" cy="9.5" r="9.5"></circle>
                <path d="M1.01931892,14.9390824 C1.07620412,15.0400854 1.75882657,16.2541723 3.28761643,17.4836403 C4.8111918,18.7131083 7.20463676,19.9374493 10.5262586,19.9979485 C10.6144307,19.9994866 10.7011806,19.9999994 10.7879306,19.9999994 C12.4342832,20.0005121 13.831289,19.6964776 14.9884288,19.2247885 C16.7272199,18.5182802 17.9128024,17.4426238 18.6546802,16.5371857 C19.3989283,15.6296968 19.7113229,14.8929389 19.7487723,14.8037281 C20.0147106,14.1572064 19.7464021,13.3994275 19.1486334,13.1112869 C18.5508647,12.8231464 17.8502286,13.1138505 17.5838163,13.7603722 L18.0644962,13.9921152 L17.5880827,13.7501181 L17.5838163,13.7603722 L18.0644962,13.9921152 L17.5880827,13.7501181 C17.5838163,13.7624231 17.1676062,14.7027251 16.1327695,15.6091886 C15.6141661,16.0644712 14.9419726,16.5161648 14.0702068,16.8591649 C13.197967,17.2011395 12.1237848,17.4359587 10.7879306,17.4364714 C10.7149279,17.4364714 10.6419252,17.4359587 10.5679744,17.4344205 C7.7625858,17.3759721 5.90054346,16.3833741 4.7007397,15.42564 C4.10344506,14.9457476 3.67775412,14.4714949 3.40802344,14.1284948 C3.27339512,13.9567385 3.17763836,13.818308 3.11933103,13.7285845 L3.05960157,13.6337339 L3.0501207,13.6178401 L2.67610048,13.8690658 L3.05391305,13.625018 L3.0501207,13.6178401 L2.67610048,13.8690658 L3.05391305,13.625018 C2.71829034,13.0169491 1.99063378,12.818532 1.42889239,13.1820403 C0.867150998,13.5450359 0.683696216,14.3315263 1.01931892,14.9395951" id="Fill-54" fill="#20160E"></path>
            </g>
            <g id="eyes" transform="translate(16.000000, 130.000000)">
                <g id="eye-right" transform="translate(0.000000, 1.000000)">
                    <path d="M20.3980638,9.8275 C20.4000213,14.838 16.4264043,18.902 11.5234894,18.9045 C6.61959574,18.907 2.64304255,14.847 2.63961702,9.8375 C2.63765957,4.827 6.61078723,0.7635 11.5137021,0.761 C16.416617,0.758 20.3961064,4.8175 20.3980638,9.8275" id="Fill-46" fill="#20160E"></path>
                    <path d="M18.7635957,7.3265 C18.7635957,9.054 17.3938723,10.455 15.7041064,10.456 C14.0104255,10.4565 12.6402128,9.057 12.639234,7.3285 C12.6387447,5.6015 14.0084681,4.2005 15.6992128,4.1995 C17.3899574,4.1985 18.7635957,5.598 18.7635957,7.3265" id="Fill-48" fill="#FFFFFE"></path>
                    <path d="M17.2353191,12.9575 C17.2353191,13.822 16.5497234,14.522 15.7055745,14.5225 C14.8589787,14.523 14.1724043,13.8235 14.1724043,12.958 C14.1709362,12.0955 14.8570213,11.394 15.7041064,11.394 C16.547766,11.393 17.2353191,12.0935 17.2353191,12.9575" id="Fill-49" fill="#FFFFFE"></path>
                    <path d="M22.7421064,7.3345 C22.7450426,11.3895 20.6750426,2.5275 11.5137021,2.532 C3.10010638,2.536 0.292148936,11.4015 0.289212766,7.348 C0.287255319,3.2925 5.31348936,0.0035 11.512234,0.001 C17.7139149,-0.0035 22.7406383,3.281 22.7421064,7.3345" id="Fill-47" fill="#20160E"></path>
                </g>
                <g id="eye-left" transform="translate(33.000000, 0.000000)">
                    <path d="M2.5172766,10.5738462 C2.52070213,15.7133333 6.49774468,19.8769231 11.4021277,19.8738462 C16.3060213,19.8702564 20.2791489,15.7030769 20.2757234,10.565641 C20.273766,5.42615385 16.2972128,1.2625641 11.3928298,1.26512821 C6.48844681,1.26717949 2.51580851,5.43589744 2.5172766,10.5738462" id="Fill-50" fill="#20160E"></path>
                    <path d="M0.170787234,8.02 C0.172744681,12.1784615 2.23148936,3.08615385 11.3928298,3.08205128 C19.8088723,3.07692308 22.6241702,12.1661538 22.6227021,8.00871795 C22.621234,3.85076923 17.5920638,0.482564103 11.3928298,0.485128205 C5.1916383,0.488205128 0.168829787,3.86205128 0.170787234,8.02" id="Fill-51" fill="#20160E"></path>
                    <path d="M4.14880851,8.00666667 C4.1502766,9.77897436 5.52195745,11.2153846 7.21123404,11.2138462 C8.90540426,11.2133333 10.2761064,9.77538462 10.2741489,8.00358974 C10.2721915,6.23179487 8.90148936,4.79589744 7.21025532,4.79692308 C5.52,4.79794872 4.14880851,6.23487179 4.14880851,8.00666667" id="Fill-52" fill="#FFFFFE"></path>
                    <path d="M5.68344681,13.7810256 C5.68540426,14.6666667 6.371,15.3851282 7.2156383,15.3846154 C8.06125532,15.3841026 8.74587234,14.6651282 8.74587234,13.7794872 C8.74440426,12.8933333 8.05978723,12.1753846 7.21368085,12.1753846 C6.36904255,12.1764103 5.68344681,12.8948718 5.68344681,13.7810256" id="Fill-53" fill="#FFFFFE"></path>
                </g>
            </g>
        </g>
    </g>
</svg>
