<?xml version="1.0" encoding="UTF-8"?>

<svg viewBox="0 0 96 121" version="1.1" xmlns="http://www.w3.org/2000/svg" xmlns:xlink="http://www.w3.org/1999/xlink">
    <!-- Generator: Sketch 52.3 (67297) - http://www.bohemiancoding.com/sketch -->
    <defs>
        <path d="M28.6644828,23.646 C22.922069,10.934 8.26655172,3.571 1.36758621,0.706 C1.17827586,0.517 0.995172414,0.341 0.819310345,0.178 C1.54034483,0.133 2.37413793,0.101 3.29586207,0.101 C3.29793103,0.101 3.3,0.101 3.30206897,0.101 C3.30517241,0.101 3.30827586,0.101 3.31137931,0.101 C4.92931034,0.101 6.81827586,0.198 8.84896552,0.484 C9.91655172,2.227 11.457931,3.598 13.1731034,4.666 C16.4844828,6.724 20.4910345,7.752 23.6896552,8.306 C24.4758621,8.441 25.2124138,8.546 25.8775862,8.628 C26.0762069,8.831 26.2727586,9.039 26.4672414,9.252 C27.6972414,10.604 28.4834483,12.045 28.9717241,13.504 C29.4589655,14.962 29.642069,16.439 29.642069,17.831 C29.6431034,19.773 29.2831034,21.544 28.92,22.817 C28.8331034,23.124 28.7462069,23.401 28.6644828,23.646 Z" id="path-1"></path>
    </defs>
    <g id="Page-1" stroke="none" stroke-width="1" fill="none" fill-rule="evenodd">
        <g id="schefflera_feed">
            <path d="M38.9757249,82 C38.9908036,81.9434325 39.9989229,78.5392812 40,73.7552869 C39.9989229,70.3875004 39.4991715,66.3308026 37.7683513,62.2872365 C36.0407622,58.2456906 33.0627175,54.2213171 28.1782933,51 L27,52.5697481 C31.5440762,55.5728763 34.2603977,59.2548144 35.8684341,63.0034214 C37.4743165,66.748998 37.953604,70.565284 37.9525269,73.7552869 C37.9525269,76.0200072 37.7112676,77.9675454 37.4721624,79.3403174 C37.3526098,80.0272084 37.2330572,80.5706605 37.144739,80.9383492 C37.10058,81.1221936 37.0639602,81.2626022 37.0391881,81.3555346 L37.0101077,81.4575581 L37.0025684,81.4858418 L38.9757249,82" id="Fill-393" fill="#1D1209"></path>
            <path d="M24.1436782,84.0017203 C23.6597725,82.7895361 24.3304308,80.2361255 27.196721,79.5350298 C28.2264394,79.2820258 29.1003587,79.877449 29.9257843,80.4718562 C30.7274789,81.0479739 31.4837751,81.6251077 32.2957875,81.4290042 C32.3318998,81.4208755 33.6474218,79.6213967 34.0663253,79.3531514 C34.8504796,78.8471432 36.1102854,78.5849944 37.0058721,78.5697532 C38.147023,78.5463834 38.8950649,79.2556077 39.8948616,79.3582318 C41.4621384,79.5177565 40.7429864,79.5055635 42.1627183,78.8583201 C43.7155502,78.1470637 45.1043287,76.7946603 47.0729687,77.3494404 C47.8849811,77.5770424 48.3565054,78.7536638 49.2066938,78.8674648 C50.748176,79.0777935 50.4180058,77.8920274 51.6633666,77.3494404 C53.5979578,76.5081256 55.3922266,77.2935559 56.8738655,78.5616246 C58.8002024,80.2117395 58.2884386,78.6073482 61.0360739,78.2059963 C63.4277445,77.8574807 65.436624,76.7662101 67.2886726,78.8105643 C68.29466,79.9180922 70.0817063,81.8262917 69.9971002,84.8460834 C69.9114623,87.8668911 24.1436782,84.0017203 24.1436782,84.0017203" id="Fill-394" fill="#50341D"></path>
            <path d="M24.7437276,81.9730997 L25.946156,82.0673861 C25.9337598,82.0386903 25.9440899,82.8442241 25.946156,82.6884466 C25.9430569,82.3533199 26.0721837,81.860366 26.3862199,81.4463257 C26.7054213,81.0302357 27.1795747,80.6510403 28.0287122,80.4368462 L28.163004,80.4194237 C28.2673384,80.4183989 28.4202245,80.4501693 28.6619498,80.5731516 C29.0235047,80.750451 29.5048892,81.1275966 30.076146,81.5303636 C30.3664229,81.7291849 30.6856242,81.9372299 31.0699054,82.1114548 C31.4510876,82.2846548 31.9159439,82.4281341 32.4489791,82.429159 C32.6710772,82.429159 32.9024723,82.4025128 33.1245703,82.3492205 L32.7795436,80.9287753 L33.1080421,82.3533199 C33.4086492,82.2774809 33.5067855,82.1975424 33.5904596,82.1483495 C33.7381806,82.0489388 33.7712371,82.0079447 33.8104916,81.9730997 L33.913793,81.8644654 L34.0677121,81.672818 C34.2484895,81.4401766 34.5645918,81.0220369 34.87243,80.6418167 C35.0253161,80.4532439 35.1751031,80.2759444 35.2887347,80.1509124 L35.4157954,80.0187065 L34.9788305,79.4868082 L35.3538145,80.0607254 L35.4281915,80.0074331 L34.9788305,79.4868082 L35.3538145,80.0607254 C35.5469882,79.9305692 35.9302364,79.7717171 36.3424089,79.6712816 C36.7556146,79.5667467 37.2049756,79.5093549 37.5210779,79.5052555 C37.7865625,79.5042307 38.0251888,79.5749455 38.4445925,79.7512201 C38.855732,79.9151964 39.4290548,80.2042048 40.2348057,80.2933669 C40.7389166,80.3425598 40.9796088,80.3825291 41.3411637,80.3876533 C41.5271063,80.389703 41.7843267,80.3640817 42.0167549,80.2882426 C42.1903013,80.2329006 42.3266591,80.1642355 42.4227294,80.1129929 C42.5683844,80.0340793 42.6479265,79.9828367 42.7667231,79.9172461 C42.8844867,79.8516556 43.0394388,79.7706923 43.275999,79.6620579 C44.0703868,79.2910614 44.7067234,78.863698 45.2635179,78.5767394 C45.8234115,78.2836317 46.2531454,78.142202 46.6508557,78.1442517 C46.8099399,78.1442517 46.9731561,78.1637239 47.1694288,78.219066 L47.2396737,77.9802754 L47.110547,78.1965192 L47.2396737,77.9802754 L47.110547,78.1965192 C47.113646,78.1975441 47.184924,78.246737 47.2871924,78.3492222 C47.4473095,78.5009003 47.6652755,78.7591631 47.9906749,79.0491963 C48.1549241,79.1947253 48.3522298,79.349478 48.6022192,79.487833 C48.8522086,79.6261881 49.1621128,79.7471207 49.5112715,79.793239 C49.689983,79.8178355 49.8676614,79.8311585 50.0463728,79.8311585 C50.5546157,79.8393574 51.1062452,79.6938283 51.5142857,79.4201928 C51.8210909,79.2203466 52.0287267,78.9897548 52.1723156,78.8124554 C52.3861495,78.5398447 52.4894509,78.3779181 52.5627949,78.3000293 C52.639238,78.2200908 52.6557662,78.2036932 52.7652657,78.1514257 C53.1454148,77.9853996 53.4759793,77.9239085 53.8024117,77.9228837 C54.2052872,77.9228837 54.6174598,78.0233192 55.0626888,78.2293145 C55.5048188,78.4353098 55.9696751,78.7499394 56.4211023,79.1393833 C56.7774921,79.4458141 57.0894623,79.6866544 57.4417201,79.883426 C57.7857138,80.0771231 58.2164806,80.2349503 58.6927001,80.2339255 C59.1844147,80.2359752 59.5924553,80.0627751 59.8424447,79.9285195 C60.2267259,79.7153502 60.4075033,79.5739206 60.6616248,79.4499135 C60.9105811,79.3279561 61.2215184,79.2059987 61.7690158,79.1240105 C62.5127859,79.0133265 63.1728818,78.8513998 63.7472376,78.7304672 C64.3205604,78.6064601 64.8040109,78.5285713 65.177962,78.5295962 C65.4899322,78.5316459 65.7182283,78.5746897 65.9434254,78.6689761 C66.1675894,78.7673619 66.4124138,78.9251892 66.7161199,79.2613407 C67.2140326,79.8106615 67.7987186,80.4583681 68.2594428,81.2618523 C68.718101,82.0673861 69.0517645,82.9928277 69.0538306,84.1673084 L69.0527976,84.3548564 L70.5258755,84.3753534 L69.0527976,84.3343593 L70.1994431,84.3661297 L69.2098157,83.7881131 C69.1261416,83.9233936 69.0569296,84.1304137 69.0527976,84.3343593 L70.1994431,84.3661297 L69.2098157,83.7881131 L70.0207317,84.2615948 L69.4112534,83.5452231 C69.3637348,83.5862172 69.2862587,83.6589817 69.2098157,83.7881131 L70.0207317,84.2615948 L69.4112534,83.5452231 L69.6850021,83.8670267 L69.4794323,83.4960302 L69.4112534,83.5452231 L69.6850021,83.8670267 L69.4794323,83.4960302 C69.4763333,83.5062787 69.1850234,83.6179876 68.7532235,83.6948515 C68.0972596,83.8198835 67.1055662,83.9213439 65.8948737,83.9848847 C64.6821153,84.0484255 63.2441598,84.0781462 61.6512522,84.0781462 C55.0482266,84.0781462 45.8017182,83.5759686 38.2286925,83.073791 C34.4406302,82.8216774 31.0678394,82.5705886 28.6423225,82.3820158 C27.4305971,82.2877294 26.6589356,82.1667968 25.9874765,82.1114548 C25.3149844,82.0571376 24.7447607,82.0673861 24.7437276,82.0673861 L24.6176999,83.5237012 L25.9874765,82.9877035 L24.6176999,83.5237012 L24.4916722,84.9800162 C24.4978703,84.9800162 30.4273707,85.4842435 38.0324199,85.9894957 C45.639535,86.493723 54.9098028,87 61.6512522,87 C64.290603,87 66.5353424,86.9251858 68.2077921,86.729439 C69.0496985,86.6279786 69.7397519,86.5080709 70.3523292,86.2959265 C70.6612004,86.1842176 70.9587084,86.0591856 71.2799758,85.8050223 C71.4390599,85.6758909 71.6074412,85.5067903 71.7479311,85.2710743 C71.889454,85.0374079 71.9906894,84.7279026 71.9979205,84.4163475 L71.9999865,84.1673084 C72.0030856,82.4148111 71.4710834,80.9461978 70.8202845,79.8157858 C70.1694857,78.6843489 69.3988573,77.8552434 68.9123077,77.3130966 C68.3761734,76.7156077 67.7646291,76.2646727 67.1117642,75.9859129 C66.4588994,75.7051034 65.7905393,75.6056927 65.177962,75.6077424 C64.4331589,75.6087673 63.7596338,75.7399484 63.1284622,75.8721543 C62.4983237,76.0074348 61.9053736,76.1498893 61.3382489,76.2318775 C60.2174287,76.3897047 59.4044467,76.7729994 58.909633,77.0732811 C58.6648087,77.219835 58.4974604,77.3294942 58.4509748,77.352041 L58.5046915,77.490396 L58.4509748,77.3530658 L58.5046915,77.490396 L58.4509748,77.3530658 L58.6927001,77.9628529 L58.6927001,77.3120717 C58.5832006,77.310022 58.4788662,77.3407676 58.4509748,77.3530658 L58.6927001,77.9628529 L58.6927001,77.3120717 L58.6927001,77.9403061 L58.8786426,77.3366682 L58.6927001,77.3120717 L58.6927001,77.9403061 L58.8786426,77.3366682 L58.7939354,77.6092789 L58.9034349,77.3458918 L58.7939354,77.6092789 L58.9034349,77.3458918 C58.8672794,77.3315439 58.6648087,77.2054871 58.3528384,76.9339012 C57.7454262,76.4112266 57.0739671,75.9387697 56.3167678,75.5841708 C55.5606016,75.2316217 54.7104311,75.0000051 53.8024117,75.0000051 C53.0700048,74.9989802 52.3086735,75.1537329 51.5742005,75.4775862 C51.0990141,75.6825567 50.7136998,75.9828384 50.4482152,76.2636479 C50.2488435,76.4737426 50.1093867,76.6664148 50.0112503,76.8006705 C49.9379063,76.901106 49.8872886,76.9687462 49.8624963,76.9984669 L50.0184814,77.1778161 L49.8779915,76.991293 L50.0184814,77.1778161 L49.8779915,76.991293 L50.1600043,77.3663889 L50.0195144,76.9195533 L49.8779915,76.991293 L50.1600043,77.3663889 L50.0195144,76.9195533 L50.1021556,77.1829403 L50.063934,76.9082799 L50.1021556,77.1829403 L50.063934,76.9082799 L49.912081,76.8980314 L49.8542322,77.2946492 L50.0246795,76.928777 L49.9100149,76.8970066 L49.8542322,77.2946492 L50.0246795,76.928777 L49.9730288,77.039461 L50.0360427,76.9349261 L49.9730288,77.039461 L50.0360427,76.9349261 C50.0246795,76.9410752 49.8077466,76.7422539 49.5123046,76.4255745 C49.3594185,76.2687721 49.177608,76.0863484 48.9348497,75.8998253 C48.6931244,75.7163768 48.3801212,75.5226797 47.9762127,75.4089211 C47.5278846,75.2808146 47.0785235,75.2203483 46.6508557,75.2213731 C45.5413987,75.222398 44.6240823,75.6087673 43.8906423,75.9910372 C43.1520373,76.380481 42.5466911,76.7791486 42.0363822,77.0107652 C41.506446,77.2516054 41.1655514,77.4596504 41.0446887,77.5293404 L41.0405567,77.5857073 L41.0198964,77.5436883 L41.0405567,77.5857073 L41.0198964,77.5436883 L41.3659561,78.2375133 L41.1924097,77.4842469 L41.0198964,77.5436883 L41.3659561,78.2375133 L41.1924097,77.4842469 L41.3411637,78.128879 L41.3411637,77.4647747 L41.1924097,77.4842469 L41.3411637,78.128879 L41.3411637,77.4647747 C41.3411637,77.4657996 41.2698858,77.4617002 41.1324949,77.4483771 C40.9961371,77.435054 40.7988314,77.4125072 40.5385119,77.3858611 C40.3598004,77.3735629 40.0695235,77.2639037 39.5860729,77.0558587 C39.1108865,76.8601119 38.4228992,76.5823769 37.5489693,76.5823769 C36.8888734,76.5946752 36.2587348,76.678713 35.6203322,76.8375651 C34.9819295,77.0005166 34.3424938,77.2280338 33.7454117,77.6123534 C33.5377759,77.7496836 33.4344745,77.8552434 33.3167109,77.9679772 C33.1225043,78.1616742 32.9417268,78.3707441 32.7537183,78.5951867 C32.4758375,78.9292886 32.2836969,79.2100981 32.069863,79.487833 C31.9624295,79.6261881 31.7847511,79.8250094 31.7248363,79.9008485 L31.6959119,79.9408177 L32.2774988,80.4604178 L31.6959119,79.9408177 L32.2774988,80.4604178 L31.6959119,79.9408177 L32.7010346,80.8385883 L31.77752,79.8588296 L31.6959119,79.9408177 L32.7010346,80.8385883 L31.77752,79.8588296 L32.7650814,80.9062285 L31.9097458,79.7512201 L31.77752,79.8588296 L32.7650814,80.9062285 L31.9097458,79.7501952 L32.7774776,80.923651 L32.069863,79.6620579 L31.9097458,79.7501952 L32.7774776,80.923651 L32.069863,79.6487348 L32.7785106,80.9257007 L32.4489791,79.4868082 C32.2485744,79.5339514 32.1483721,79.6077408 32.069863,79.6487348 L32.7785106,80.9257007 L32.4520782,79.5042307 L32.4489791,79.5657218 L32.4489791,79.5062804 L32.4489791,79.5657218 L32.4489791,79.5062804 C32.4128237,79.5042307 32.4323396,79.4987012 32.1978455,79.3500977 C31.8414556,79.1338538 31.1794049,78.6894731 30.5750917,78.2990044 C30.2693196,78.1053074 29.9273919,77.9116103 29.5276155,77.7578824 C29.1288721,77.6062043 28.6671149,77.4965451 28.163004,77.4965451 C27.8861563,77.4965451 27.6000114,77.5303653 27.3179986,77.6000552 C25.8511187,77.9556789 24.7251334,78.7560885 24.0216509,79.7040769 C23.3150693,80.6551397 23.003099,81.7127873 23,82.6884466 C23.001033,83.1588538 23.072311,83.6169627 23.2468903,84.0607238 L23.5815869,84.9021275 L24.4916722,84.9800162 L24.6176999,83.5237012 L24.7437276,81.9730997 Z" id="Fill-395" fill="#1D1209"></path>
            <path d="M14.5872894,51.4810778 C18.0973948,60.4688949 34.7683209,60.8614382 34.7683209,60.8614382 C34.7683209,60.8614382 39.298058,50.9380257 32.808927,43.7197041 C27.3408949,37.6391022 20.286833,35.246437 14.4135897,34.4051297 C8.00352493,33.4869259 3,34.416632 3,34.416632 C3,34.416632 9.09393298,37.4227406 14.5872894,51.4810778 L126,63" id="Fill-396" fill="#859D49"></path>
            <path d="M14.4927877,50.9283906 C15.5062399,53.4545896 17.4541329,55.3331484 19.6948947,56.7108923 C23.0670989,58.7795194 27.1482982,59.8133301 30.4046191,60.3704616 C33.6619935,60.9225648 36.0987034,60.9788813 36.1418963,60.9808926 L36.9836305,61 L37.3281199,60.2658737 C37.3639384,60.1763706 38.9926256,56.7249714 39,52.2478066 C39,50.643791 38.7861426,48.9050179 38.1940843,47.1531713 C37.6030794,45.4023303 36.6286062,43.6404272 35.132658,42.0213268 C31.1831442,37.7432812 26.4424635,35.2291501 21.8903566,33.7981066 C17.3350891,32.3650518 12.9610211,32 9.64254457,32 C6.07860616,32 3.72933549,32.422374 3.67139384,32.4334362 L0,33.0971668 L3.33849271,34.7011825 L3.5302269,34.3361307 L3.32901135,34.6961542 L3.5302269,34.3361307 L3.32901135,34.6961542 C3.41118314,34.7464369 9.16636953,37.6779138 14.4927877,50.9283906 L15.6758509,50.4959601 L16.8589141,50.0635295 C11.1995948,35.938135 6.918952,34.1810019 6.62292283,34.0482558 L4.14335494,34.8087873 C4.36564019,34.7705725 6.49894652,34.4175885 9.64254457,34.4175885 C12.7650729,34.4175885 16.8820908,34.7665499 21.0970827,36.0950168 C25.315235,37.4244894 29.623987,39.7153657 33.2332253,43.6203142 C34.4858185,44.9799563 35.2864668,46.4291015 35.7837115,47.8963484 C36.2799028,49.3625897 36.4663695,50.8479384 36.4663695,52.2478066 C36.467423,54.2007837 36.1008104,55.9817942 35.7310373,57.2619898 C35.547731,57.9015848 35.3633712,58.4174845 35.2285251,58.7664459 C35.1611021,58.9414294 35.1052674,59.0741755 35.067342,59.1616673 L35.0262561,59.2561986 L36.1724473,59.7720983 L36.2029984,58.5633041 C35.7278768,58.5502306 31.5550243,58.3822866 27.1683144,57.1875715 C24.9749595,56.5922253 22.7341977,55.739432 20.8884927,54.5668412 C19.0385737,53.3892222 17.6037277,51.9219752 16.8589141,50.0635295 L15.6758509,50.4959601 L14.4927877,50.9283906 Z" id="Fill-397" fill="#1D1209"></path>
            <g id="Group-400" transform="translate(6.000000, 35.000000)">
                <mask id="mask-2" fill="white">
                    <use xlink:href="#path-1"></use>
                </mask>
                <g id="Clip-399"></g>
                <polygon id="Fill-398" fill="#4E6F36" mask="url(#mask-2)" points="0.819310345 23.646 29.6431034 23.646 29.6431034 0.101 0.819310345 0.101"></polygon>
            </g>
            <path d="M35.0895967,60 C34.8748069,59.4428712 34.6411575,58.89657 34.3917918,58.3591277 C34.4745644,58.1179677 34.5625759,57.8453093 34.6505873,57.5431211 C35.0183493,56.2900734 35.3829681,54.5468312 35.3819204,52.6352692 C35.3819204,51.2650867 35.1964677,49.8112365 34.7029751,48.3760884 C34.2084346,46.9399561 33.4121407,45.5215416 32.1663599,44.1907322 C31.9693819,43.9810706 31.7703084,43.7763307 31.5691394,43.5765125 C32.2805652,43.6611645 32.9113138,43.7212085 33.4341436,43.7625502 C39.5498903,50.6469297 36.179262,57.940789 35.0895967,60 M6.74467687,35.778678 C4.4479976,34.8514424 3,34.4035739 3,34.4035739 C3,34.4035739 5.26419886,34 8.70397899,34 C10.1655974,34 11.8378146,34.0728402 13.6399535,34.2805331 C13.8379792,34.7284016 14.0663898,35.154615 14.3220421,35.5601575 C12.2652987,35.2786401 10.3520978,35.1831604 8.71340878,35.1831604 C8.71026552,35.1831604 8.70712225,35.1831604 8.70397899,35.1831604 C8.70188348,35.1831604 8.69978797,35.1831604 8.69769246,35.1831604 C7.76414263,35.1831604 6.91965198,35.2146589 6.18936665,35.2589536 C6.36748502,35.4193988 6.55293768,35.5926403 6.74467687,35.778678" id="Fill-401" fill="#130C03"></path>
            <path d="M34.6070874,61 C34.5965104,60.9766971 34.4917979,60.627153 34.2072762,59.9240122 C33.9142928,59.2340426 33.4880391,58.2360689 32.8576489,57.0810537 C32.5583193,56.4974671 32.1860083,55.8865248 31.8062934,55.2320162 C31.3906167,54.5967579 30.9886901,53.9027356 30.4958011,53.2330294 C30.2567605,52.8926039 30.0124314,52.5460993 29.7670447,52.1965552 C29.5026192,51.8571429 29.2350207,51.514691 28.9653068,51.1681864 C28.4428022,50.4630193 27.833566,49.8064843 27.2528878,49.1246201 C26.6679788,48.443769 26.0153769,47.8237082 25.4071985,47.177305 C24.777866,46.5531915 24.1168024,45.9766971 23.4969893,45.3961499 C22.8655414,44.8308004 22.2097664,44.3302938 21.6089918,43.8297872 C21.0166789,43.3171226 20.3905195,42.91692 19.839457,42.508612 C19.2767597,42.118541 18.7870438,41.7193516 18.3015588,41.4387031 C17.8277084,41.141844 17.4130894,40.8844985 17.0735672,40.6717325 C16.3902919,40.2441743 16,40 16,40 C16,40 16.4103882,40.2107396 17.1285677,40.5805471 C17.4881862,40.7659574 17.9260747,40.9908815 18.4263676,41.248227 C18.9393529,41.4903749 19.4629152,41.8490375 20.0636897,42.1935157 C20.6528296,42.5582573 21.3223547,42.9128673 21.9643796,43.3779129 C22.6138084,43.8338399 23.3235262,44.2857143 24.0163208,44.8074975 C24.6953653,45.3424519 25.4209486,45.8743668 26.1190317,46.4589666 C26.794903,47.0638298 27.5226018,47.6453901 28.1826076,48.2928065 C28.8394403,48.9412361 29.5258887,49.5673759 30.1298363,50.2492401 C30.4397429,50.5825735 30.7475341,50.9138804 31.0510945,51.2421479 C31.3377316,51.5835866 31.6222533,51.9209726 31.9014866,52.2522796 C32.4758186,52.9067882 32.9581305,53.591692 33.4489041,54.2198582 C33.9068889,54.8693009 34.3542967,55.4782168 34.7244923,56.0668693 C35.4955568,57.2269504 36.047677,58.2563323 36.4337381,58.9827761 C36.8060491,59.7092199 37.0101855,60.2006079 36.9996085,60.177305 L34.6070874,61" id="Fill-402" fill="#1D1209"></path>
            <path d="M31,58 C31,58 23.386846,56.5472449 21.2960239,55.1329332 C16.7139013,52.0362177 14,43 14,43 C14,43 17.2576981,47.8226209 22.1752466,52.8435287 C25.1849327,55.9139408 31,58 31,58" id="Fill-403" fill="#B4BE69"></path>
            <path d="M42.8994819,78 C42.9005181,77.9831709 43,76.5675474 43,74.2203841 C42.9989637,69.8349209 42.6549223,62.2014431 40.6580311,54.3274083 C38.6559585,46.4603031 35.0093264,38.3120531 28.2497409,33 L27,34.4542315 C33.2549223,39.3505071 36.8031088,47.1126779 38.7430052,54.7709044 C40.6870466,62.4231911 41.0310881,69.9319357 41.0300518,74.2203841 C41.0300518,75.3687221 41.0062176,76.2864025 40.9813472,76.9150186 C40.9689119,77.2288316 40.957513,77.4713685 40.9481865,77.6337198 C40.9398964,77.796071 40.9336788,77.8742768 40.9336788,77.8742768 L42.9005181,78 L42.8994819,78" id="Fill-404" fill="#1D1209"></path>
            <path d="M14.4807937,32.9207268 C17.9586386,41.6190721 34.4763467,42 34.4763467,42 C34.4763467,42 38.9644521,32.3951054 32.534961,25.4074904 C21.2042162,13.0996811 3,16.4030247 3,16.4030247 C3,16.4030247 9.03792525,19.3126443 14.4807937,32.9207268" id="Fill-405" fill="#859D49"></path>
            <path d="M14.4934497,33.9277342 C15.5068745,36.4538456 17.4547149,38.3323393 19.6954161,39.7100354 C23.0675292,41.7795964 27.1475649,42.8133712 30.4048513,43.3704834 C33.6621377,43.9225674 36.0977283,43.978882 36.1419735,43.9808933 L36.9836849,44 L37.3281651,43.2658992 C37.3639826,43.1763992 38.9926258,39.7251196 39,35.2471045 C39,33.6431445 38.7861484,31.9054373 38.194106,30.1536514 C37.6031171,28.4028712 36.6286702,26.6400236 35.1327625,25.0209793 C31.1833554,20.743082 26.4428027,18.2290381 21.8908187,16.7980442 C17.3356743,15.3660448 12.9617244,15.0010056 9.64333757,15 C6.07949542,15.0010056 3.73028821,15.423365 3.67234813,15.4334212 L0,16.0981344 L3.33945598,17.7010888 L3.52907809,17.3410777 L3.32997488,17.6970664 L3.52907809,17.3410777 L3.32997488,17.6970664 C3.41214446,17.7473473 9.16717539,20.6767113 14.4934497,33.9287399 L15.6764809,33.4963243 L16.8595122,33.0629031 C11.2003457,18.9369929 4.7732098,15.6747694 4.47718862,15.5410223 L4.30853533,16.660828 L4.14429648,17.8086899 L4.47718862,15.5410223 C4.68471948,15.50482 6.49982442,17.4175047 9.64333757,17.4185103 C12.7657816,17.4175047 16.8826882,17.7674596 21.0975662,19.0948748 C25.3156047,20.4243013 29.6242403,22.7150981 33.2333811,26.6199112 C34.4859404,27.9795062 35.2865671,29.4286012 35.7837984,30.8957972 C36.2799762,32.3619877 36.466438,33.8482905 36.466438,35.2471045 C36.4674914,37.2000139 36.1008887,38.9819682 35.7311256,40.2621194 C35.5478242,40.9016922 35.3634694,41.4165684 35.228627,41.7665233 C35.1612058,41.9415008 35.1053726,42.0742423 35.0674482,42.161731 L35.0263634,42.2562591 L36.1725237,42.7721409 L36.2030739,41.5633886 C35.7279652,41.5503156 31.5552254,41.3823774 27.168634,40.1866981 C24.9753383,39.5923781 22.7346371,38.7396144 20.8889819,37.5660587 C19.0391129,36.3894861 17.6043057,34.92229 16.8595122,33.0639087 L15.6764809,33.4963243 L14.4934497,33.9277342 Z" id="Fill-406" fill="#1D1209"></path>
            <path d="M34.0163648,41 C28.2384319,28.0413251 13.4922646,20.5360374 6.55062628,17.6166914 C6.36014498,17.4230197 6.17694984,17.2446379 6,17.0774687 C6.72549436,17.0315991 7.5644448,17 8.49291105,17 C8.49395193,17 8.49499281,17 8.49707457,17 C8.50019722,17 8.50331986,17 8.5064425,17 C11.5916151,17 15.6541753,17.354725 19.8145785,18.6992143 C23.9822677,20.0467615 28.2394728,22.3687832 31.8055326,26.326821 C33.0431407,27.704948 33.8342106,29.1737949 34.3255066,30.6609896 C34.8157617,32.147165 34.9999978,33.6537269 34.9999978,35.0716076 C35.0010386,37.0511361 34.6388119,38.8573795 34.2734625,40.1549798 C34.1860285,40.4668932 34.0985944,40.7502654 34.0163648,41" id="Fill-407" fill="#4E6F36"></path>
            <path d="M35.090039,42 C34.8752462,41.4428712 34.6415936,40.89657 34.3922244,40.3591277 C34.4749982,40.1179677 34.5630109,39.844325 34.6510235,39.5431211 C35.0187907,38.2900734 35.3834145,36.5458469 35.3823667,34.6342848 C35.3823667,33.2650867 35.1969115,31.8102521 34.703412,30.3751041 C34.2088648,28.9389718 33.4125599,27.5205573 32.1667619,26.1897479 C28.5771033,22.3676081 24.2917257,20.1253123 20.0964563,18.8240327 C15.9085213,17.5257061 11.8190766,17.1831604 8.71348753,17.1831604 C8.71034422,17.1831604 8.70720091,17.1831604 8.7040576,17.1831604 C8.70196207,17.1831604 8.7009143,17.1831604 8.69986653,17.1831604 C7.76525606,17.1831604 6.92075378,17.2136746 6.19045838,17.2579693 C6.36857921,17.4193988 6.55298665,17.5916559 6.74472849,17.778678 C4.44801756,16.8514424 3,16.4025895 3,16.4025895 C3,16.4025895 5.26423007,16 8.7040576,16 C15.1111686,16 25.595151,17.3987279 33.1108022,25.4072083 C39.6656488,32.3949421 36.1985792,39.9043689 35.090039,42" id="Fill-408" fill="#130C03"></path>
            <path d="M34.6070874,43 C34.5965104,42.9756839 34.4917979,42.6261398 34.2072762,41.9240122 C33.9142928,41.2340426 33.4880391,40.2360689 32.8576489,39.0810537 C32.5583193,38.4964539 32.1860083,37.8865248 31.8062934,37.231003 C31.3916744,36.5967579 30.9897478,35.9027356 30.4958011,35.2330294 C30.2567605,34.8926039 30.0124314,34.5460993 29.7670447,34.195542 C29.5026192,33.8571429 29.2360784,33.5136778 28.9653068,33.1681864 C28.4428022,32.4630193 27.833566,31.8064843 27.2528878,31.1246201 C26.6679788,30.443769 26.0153769,29.8237082 25.4071985,29.177305 C24.777866,28.5531915 24.1168024,27.9766971 23.4969893,27.3961499 C22.8655414,26.8297872 22.2097664,26.3302938 21.6089918,25.8297872 C21.0166789,25.3171226 20.3905195,24.91692 19.839457,24.508612 C19.2767597,24.118541 18.7870438,23.7193516 18.3015588,23.4387031 C17.8277084,23.1428571 17.4130894,22.8834853 17.0735672,22.6707194 C16.3902919,22.2441743 16,22 16,22 C16,22 16.4103882,22.2117528 17.1285677,22.5805471 C17.4881862,22.7659574 17.9260747,22.9898683 18.4263676,23.248227 C18.9393529,23.4903749 19.4629152,23.8480243 20.0636897,24.1935157 C20.6528296,24.5582573 21.3234124,24.9128673 21.9643796,25.3779129 C22.6138084,25.8328267 23.3235262,26.2857143 24.0163208,26.8064843 C24.6953653,27.3424519 25.4209486,27.8743668 26.1190317,28.4589666 C26.7959607,29.0638298 27.5226018,29.6453901 28.1826076,30.2928065 C28.8394403,30.9412361 29.5269464,31.5673759 30.1298363,32.248227 C30.4397429,32.5825735 30.7475341,32.9138804 31.0510945,33.2421479 C31.3377316,33.5835866 31.6222533,33.9209726 31.9014866,34.2522796 C32.4758186,34.9067882 32.9581305,35.5906788 33.4489041,36.2198582 C33.9068889,36.8703141 34.3542967,37.4782168 34.7244923,38.0668693 C35.4955568,39.2279635 36.047677,40.2553191 36.4337381,40.9827761 C36.8060491,41.7082067 37.0101855,42.2006079 36.9996085,42.1762918 L34.6070874,43" id="Fill-409" fill="#1D1209"></path>
            <path d="M31,40 C31,40 23.386846,38.5471469 21.2960239,37.1337515 C16.7139013,34.0358155 14,25 14,25 C14,25 17.2576981,29.8229462 22.1752466,34.8431809 C25.1849327,37.9148118 31,40 31,40" id="Fill-410" fill="#B4BE69"></path>
            <path d="M57.9995857,81.4848317 L57.9909693,81.4575581 C57.8972659,81.1292646 57.046396,78.0008798 57.0474731,73.7532666 C57.0474731,70.5632637 57.5267606,66.7479879 59.1315659,63.0024113 C60.7396023,59.2548144 63.4548467,55.5728763 68,52.5697481 L66.8217067,51 C61.9372825,54.2213171 58.9592378,58.2446805 57.2316487,62.2862263 C55.5008285,66.3297924 55.0010771,70.3864903 55,73.7532666 C55.0010771,78.538271 56.0102734,81.9434325 56.0264292,82 L57.9995857,81.4848317" id="Fill-411" fill="#1D1209"></path>
            <path d="M80.5193134,50.9204649 C77.0432451,59.6200455 60.5242124,60 60.5242124,60 C60.5242124,60 56.0347192,50.3948283 62.4657538,43.4079962 C73.7963795,31.0988476 92,34.4032708 92,34.4032708 C92,34.4032708 85.9626183,37.3129744 80.5193134,50.9204649" id="Fill-412" fill="#859D49"></path>
            <path d="M79.141684,50.0635295 C78.3726195,51.9813087 76.8682028,53.4847592 74.9328993,54.6784686 C72.0378454,56.46853 68.2241282,57.4731768 65.1531376,57.9900822 C63.6171155,58.2505462 62.2675653,58.3943545 61.3078149,58.4727954 C60.827413,58.5120158 60.4449877,58.5341402 60.1858235,58.5472136 C60.0562414,58.5542532 59.9561576,58.5582758 59.8908398,58.5602871 L59.8297361,59.7720983 L60.9854399,59.2773173 C60.9285502,59.1656899 59.5263243,56.0320768 59.5326454,52.246801 C59.5326454,50.8479384 59.7201707,49.3625897 60.2163754,47.8963484 C60.7136335,46.4291015 61.5143035,44.9799563 62.7690375,43.6213198 C66.3773198,39.7153657 70.6851347,37.4234837 74.903401,36.0950168 C79.1174532,34.7665499 83.2335287,34.4175885 86.3561414,34.4175885 C88.0322807,34.4175885 89.422918,34.5181538 90.3858289,34.6167077 C90.4694076,34.629446 90.9596423,34.6934725 91.8565331,34.8087873 L90.3858289,34.6167077 C90.0897917,34.7494538 84.8011562,35.938135 79.141684,50.0635295 L81.5078743,50.9283906 C84.2522759,44.0899539 87.1220454,39.9989597 89.2596234,37.6356764 C90.3289392,36.4540347 91.2149437,35.703818 91.8164996,35.2563027 C92.1167509,35.0330478 92.3464167,34.8862226 92.4918015,34.7987308 L92.6445609,34.7102334 L96,33.0961612 L92.328507,32.4334362 C92.2705638,32.422374 89.9191226,32 86.3561414,32 C83.0375753,32 78.6644426,32.3650518 74.1090521,33.7981066 C69.5589292,35.2291501 64.8181204,37.7432812 60.8695535,42.0213268 C59.3725114,43.6404272 58.3969583,45.4023303 57.804884,47.1531713 C57.2128096,48.9050179 57,50.643791 57,52.246801 C57.0073746,56.7249714 58.6371593,60.1773763 58.6740323,60.2658737 L59.0174775,61 L59.860288,60.9808926 C59.9192847,60.97687 64.2270996,60.8823387 69.0711527,59.634324 C71.4952862,59.0067968 74.0584835,58.0926587 76.3056268,56.7108923 C78.5464491,55.3331484 80.4943948,53.4545896 81.5078743,50.9283906 L80.3247792,50.4959601 L79.141684,50.0635295 Z" id="Fill-413" fill="#1D1209"></path>
            <path d="M60.9867423,59 C60.563119,57.7167247 59.9958594,55.5293468 60.0000228,53.0708401 C60.0000228,51.6530196 60.1852929,50.147541 60.6755301,48.6614287 C61.1668082,47.1742971 61.9578491,45.7055126 63.1974935,44.3284634 C63.453541,44.0440839 63.712711,43.7688779 63.9760444,43.5008069 C65.2677309,43.3000085 66.7301158,43.0166483 68.2455837,42.6160707 C70.6405643,41.9810584 73.1729361,41.0535123 75.393055,39.6530196 C77.0511184,38.6072369 78.5468103,37.2770747 79.6147156,35.6003567 C82.1522916,35.144738 84.5212511,35 86.4915675,35 C86.4946901,35 86.4978126,35 86.5009351,35 C87.4314491,35 88.2724505,35.032617 89,35.0784847 C88.8230566,35.2446275 88.6388274,35.4240211 88.448353,35.6166653 C81.5069688,38.5369065 66.762382,46.0428948 60.9867423,59" id="Fill-414" fill="#4E6F36"></path>
            <path d="M59.9104886,60 C58.8133844,57.9289771 55.4109992,50.5612933 61.6750764,43.641478 C62.2597795,43.5784811 62.913641,43.496782 63.6177996,43.3924434 C63.3526923,43.6513213 63.0917764,43.9170894 62.834004,44.1917165 C61.5860087,45.5215416 60.7896389,46.9399561 60.2950514,48.3760884 C59.8015117,49.8112365 59.6149935,51.2650867 59.6149935,52.6342848 C59.6108021,55.0084804 60.181883,57.120845 60.60836,58.3601121 C60.3579227,58.8975543 60.1263467,59.4428712 59.9104886,60 M88.2549662,35.778678 C88.4467237,35.5926403 88.632194,35.4193988 88.8103294,35.2589536 C88.0778787,35.2146589 87.2312119,35.1831604 86.2944295,35.1831604 C86.291286,35.1831604 86.2881424,35.1831604 86.2849989,35.1831604 C84.3014093,35.1831604 81.9164914,35.3229348 79.3618209,35.7629287 C79.6374068,35.3465586 79.8857484,34.907549 80.1005587,34.4449156 C82.3827868,34.1102446 84.4994539,34 86.2954774,34 C89.7366332,34 92,34.4035739 92,34.4035739 C92,34.4035739 90.5518644,34.8524267 88.2549662,35.778678" id="Fill-415" fill="#130C03"></path>
            <path d="M59.0002542,60.177305 C58.9917929,60.2016211 59.1948628,59.7092199 59.5671574,58.9827761 C59.9532016,58.2563323 60.5052977,57.2269504 61.2763284,56.0668693 C61.6465077,55.4782168 62.0938959,54.8693009 62.5518606,54.2198582 C63.0436704,53.591692 63.5259612,52.9067882 64.0992103,52.2522796 C64.3773737,51.9199595 64.6629406,51.5825735 64.9495652,51.2411348 C65.2541699,50.9138804 65.5619476,50.5825735 65.8718406,50.248227 C66.4736465,49.5673759 67.1611224,48.9412361 67.8179263,48.2928065 C68.4779032,47.6453901 69.2055701,47.0638298 69.8803542,46.4579534 C70.5794643,45.8743668 71.3039582,45.3424519 71.9840305,44.8064843 C72.6757371,44.2857143 73.3864815,43.8328267 74.0358818,43.3779129 C74.6778786,42.9118541 75.3473744,42.5582573 75.9364884,42.1935157 C76.5382942,41.8480243 77.0618336,41.4903749 77.5737388,41.248227 C78.076125,40.9908815 78.511879,40.7659574 78.8704241,40.5805471 C79.5896297,40.2107396 80,40 80,40 C80,40 79.6097252,40.2441743 78.9264799,40.6717325 C78.5859149,40.8844985 78.1723717,41.141844 77.6974844,41.4387031 C77.214136,41.7193516 76.7244416,42.118541 76.1607113,42.508612 C75.6096729,42.91692 74.9835409,43.3171226 74.391254,43.8287741 C73.7915634,44.3302938 73.1358172,44.8297872 72.5022816,45.3961499 C71.8824956,45.9766971 71.2225187,46.5531915 70.5932138,47.177305 C69.985062,47.8237082 69.3314311,48.4427558 68.7476053,49.1236069 C68.1658949,49.8054711 67.5566855,50.4630193 67.0342038,51.1681864 C66.7645017,51.5136778 66.4969149,51.8571429 66.2335587,52.195542 C65.987125,52.5460993 65.7428067,52.8926039 65.5048342,53.2330294 C65.0119669,53.9027356 64.6090002,54.5967579 64.1943993,55.231003 C63.8157587,55.8855117 63.4424064,56.4964539 63.1420323,57.0810537 C62.5127274,58.2360689 62.0864923,59.2340426 61.7935218,59.9240122 C61.5100702,60.6261398 61.4043047,60.9756839 61.3947858,61 L59.0002542,60.177305" id="Fill-416" fill="#1D1209"></path>
            <path d="M65,58 C65,58 70.8150673,55.9139408 73.8227205,52.8435287 C78.7423019,47.8226209 82,43 82,43 C82,43 79.2871151,52.0362177 74.7039761,55.1329332 C72.6141704,56.5472449 65,58 65,58" id="Fill-417" fill="#B4BE69"></path>
            <path d="M70,84 C70,94.7208213 66.555253,118 46.7541684,118 C30.1504467,118 24,94.7208213 24,84 L70,84" id="Fill-418" fill="#BF6143"></path>
            <path d="M69.044997,85.8236829 C69.053286,90.9096783 68.1839846,97.6520628 64.9772054,104.336033 C63.3784784,107.682473 61.214032,110.647737 58.3491711,112.757578 C55.4791297,114.86544 51.9138544,116.169363 47.2544405,116.176294 C43.4570752,116.169363 40.3280047,114.905042 37.6227057,112.7853 C33.5725281,109.613112 30.597839,104.42712 28.7007105,99.0530134 C26.7952931,93.688808 25.9508585,88.1444096 25.955003,84.4118414 L25.955003,85.8236829 L24.4775015,85.8236829 L69.044997,85.8236829 L70.5235346,84.4118414 L69.044997,84.4118414 L70.5235346,84.4118414 L70.5235346,83 L23,83 L23,84.4118414 C23.0010361,87.1563186 23.3989047,90.6195875 24.2568088,94.314533 C25.5488455,99.853981 27.8614565,105.905296 31.5552102,110.688329 C33.4036412,113.077371 35.6084962,115.15157 38.2257253,116.636677 C40.8398461,118.122774 43.8715216,119.002947 47.2544405,118.999977 C52.5044405,119.006907 56.803286,117.471307 60.1540853,114.993159 C65.1885731,111.269501 68.1021314,105.582533 69.8075784,99.8935838 C71.508881,94.1937443 71.9979278,88.4444012 72,84.4118414 L72,83 L70.5235346,83 L70.5235346,84.4118414 L69.044997,85.8236829 Z" id="Fill-419" fill="#1D1209"></path>
            <path d="M47.3371455,117 C43.5267553,116.992922 40.3869521,115.701634 37.672374,113.53668 C33.6083044,110.296833 30.6234121,105.000228 28.7197765,99.5114982 C27.0365509,94.6871188 26.1777836,89.7201618 26,86 L34.2092336,86 C31.7431366,93.2926901 35.3622275,103.892977 42.2313266,108.829598 C45.6040157,111.251394 53.2247961,113.028052 58,113.848126 C55.2022483,115.799719 51.7619806,116.992922 47.3371455,117" id="Fill-420" fill="#AD5239"></path>
            <path d="M47.1765946,118 C30.2646284,118 24,94.7208213 24,84 L34.4617818,84 C34.2329995,84.464711 34.0337375,84.9487003 33.8639958,85.4468949 L25.5392725,85.4468949 C25.7195572,89.1798024 26.5904059,94.1637769 28.2973115,99.0046853 C30.227728,104.512221 33.2546125,109.826972 37.3758566,113.077919 C40.1286241,115.250291 43.3125988,116.546003 47.1765946,116.553105 C51.6636795,116.546003 55.1523458,115.348712 57.989457,113.390432 C58.7369531,113.517264 59.4159199,113.621773 60,113.701931 C56.7411703,116.332925 52.5556141,118 47.1765946,118" id="Fill-421" fill="#1B0E04"></path>
            <polygon id="Fill-422" fill="#BF6143" points="39 120 59 120 59 115 39 115"></polygon>
            <polygon id="Fill-423" fill="#1D1209" points="57.0885172 118.176529 39.9899292 118.176529 39.9899292 115.824462 57.0885172 115.824462 57.0885172 118.176529 58.5447688 119.58876 58.5447688 118.176529 58.5447688 119.58876 60 119.58876 60 113 37 113 37 121 60 121 60 119.58876 58.5447688 119.58876"></polygon>
            <path d="M58.3865129,110 C56.6794729,109.330618 58.7024744,104.966978 61.0011469,101.560321 C63.0633785,98.5 63.3167838,91.8679553 63.3167838,91.8679553 L55,87 L66.8443131,88.2040771 C66.8443131,88.2040771 68.8598927,104.810012 58.3865129,110" id="Fill-424" fill="#D68E69"></path>
            <path d="M53.0673575,77.8722997 C53.0673575,77.8722997 53.0611399,77.7940956 53.0528497,77.631748 C53.0248705,77.144705 52.9699482,75.9409565 52.9699482,74.2184874 C52.9689119,69.9301333 53.3129534,62.421554 55.2559585,54.7704254 C57.1958549,47.1113775 60.7440415,39.3503674 67,34.4541995 L65.7502591,33 C58.9896373,38.3119363 55.3430052,46.4590171 53.3409326,54.3269392 C51.3440415,62.1998108 51.0010363,69.8341106 51,74.2184874 C51,76.5665889 51.1005181,77.9821814 51.1015544,78 L53.0673575,77.8722997" id="Fill-425" fill="#1D1209"></path>
            <path d="M48.9990109,78.5781788 C48.9990109,78.5771697 48.9871414,78.5267126 48.9653808,78.4217618 C48.628091,76.8384186 45.8783383,63.4148166 45.8793274,47.9012822 C45.8793274,41.5184614 46.3442136,34.7834501 47.6251236,28.3824647 L45.7823937,28 C44.4688427,34.5685029 44,41.423602 44,47.9012822 C44.0009891,64.6903716 47.1562809,78.9586252 47.1641939,79 L49,78.5781788 L48.9990109,78.5781788" id="Fill-426" fill="#1D1209"></path>
            <path d="M79.5198937,32.9207268 C76.0419456,41.6190721 59.5247756,42 59.5247756,42 C59.5247756,42 55.0344815,32.3951054 61.465191,25.4074904 C72.7952441,13.0996811 91,16.4030247 91,16.4030247 C91,16.4030247 84.9618957,19.3126443 79.5198937,32.9207268" id="Fill-427" fill="#859D49"></path>
            <path d="M78.1409432,33.0639087 C77.371941,34.9816215 75.8676463,36.4840141 73.9314462,37.6786878 C71.0366269,39.4676815 67.2232186,40.4732991 64.1524769,40.9901866 C62.6176328,41.2506415 61.2671385,41.3944448 60.3074658,41.472883 C59.8281562,41.5121021 59.4447086,41.5342257 59.1855653,41.5472987 C59.0549403,41.5533324 58.9569715,41.5573549 58.8906056,41.5603717 L58.8295068,42.7721409 L59.9861704,42.2773771 C59.9282319,42.1657535 58.5261196,39.0312435 58.5334936,35.2460989 C58.5334936,33.8462792 58.7199503,32.360982 59.2161147,30.8957972 C59.7122792,29.4286012 60.5139377,27.9795062 61.7675166,26.6199112 C65.3755065,22.7150981 69.6840257,20.4243013 73.9008968,19.0948748 C78.115661,17.7674596 82.2324564,17.4175047 85.3548161,17.4185103 C87.0318729,17.4185103 86.8604692,17.3901821 87.8233022,17.4897383 C87.527289,17.6234854 83.7989034,18.9369929 78.1409432,33.0639087 L80.5069418,33.9287399 C83.251121,27.0895346 86.120658,22.9986823 88.2580628,20.635481 C89.3272919,19.4538803 90.2132246,18.7036896 90.8147318,18.2571954 C91.1149587,18.0339483 91.3446059,17.8861225 91.4899789,17.7986337 L91.6427259,17.711145 L91.4752309,17.3511339 L91.6595808,17.7010888 L91.4752309,17.3511339 L91.6595808,17.7010888 L95,16.0971288 L91.3266976,15.4334212 C91.2687591,15.423365 88.9185619,15.0010056 85.3548161,15 C82.0365188,15.0010056 77.6626871,15.3660448 73.1087191,16.7980442 C68.5568581,18.2290381 63.8164335,20.743082 59.8681865,25.0209793 C58.3712657,26.6400236 57.3968451,28.4018656 56.8058722,30.1526458 C56.2138458,31.9044317 56,33.6421388 56,35.2460989 C56.007374,39.7251196 57.6380801,43.1774048 57.6738966,43.2658992 L58.017314,44 L58.8600562,43.9808933 C58.9190481,43.9768708 63.2254605,43.8823427 68.0701745,42.6333657 C70.4941116,42.0068659 73.0571012,41.0917539 75.3040624,39.7100354 C77.5447031,38.3323393 79.4935444,36.4538456 80.5069418,33.9287399 L79.3239425,33.4963243 L78.1409432,33.0639087 Z" id="Fill-428" fill="#1D1209"></path>
            <path d="M59.9857368,41 C59.5631392,39.7157054 58.9958593,37.5283275 59.0000228,35.0698208 C59.0000228,33.6509811 59.1842587,32.1455024 59.6745135,30.6604094 C60.1647683,29.1732778 60.9568785,27.7044933 62.1955265,26.3264249 C65.7605429,22.3685552 70.017745,20.0466321 74.1843905,18.6991421 C78.3447906,17.3547099 82.407348,17 85.4925184,17 C85.495641,17 85.4987637,17 85.5018863,17 C86.4324337,17 87.2734653,17.0315977 88,17.0774654 C87.8230503,17.2446275 87.6398553,17.4240211 87.4493741,17.6166653 C80.505659,20.5369065 65.7605429,28.0408562 59.9857368,41" id="Fill-429" fill="#4E6F36"></path>
            <path d="M58.9110413,42 C57.802466,39.9043689 54.3331912,32.3949421 60.8892929,25.4072083 C68.4051819,17.3987279 78.8884482,16 85.2957619,16 C88.7367461,16 91,16.4025895 91,16.4025895 C91,16.4025895 89.5519366,16.8514424 87.255153,17.778678 C87.4469009,17.5926403 87.6313142,17.4193988 87.8094407,17.2579693 C87.0780744,17.2136746 86.2314498,17.1831604 85.2947141,17.1831604 C85.2915707,17.1831604 85.2884273,17.1831604 85.2852839,17.1831604 C82.1795966,17.1831604 78.0900225,17.5257061 73.901955,18.8240327 C69.7076007,20.1253123 65.4220875,22.3676081 61.8333631,26.1897479 C60.5864779,27.5205573 59.7891,28.9389718 59.2955849,30.3751041 C58.8020698,31.8092678 58.6166087,33.263118 58.6166087,34.6333005 C58.6124175,37.007496 59.18347,39.1198607 59.6088779,40.3601121 C59.3595009,40.89657 59.1258409,41.4438555 58.9110413,42" id="Fill-430" fill="#130C03"></path>
            <path d="M58.0003934,42.1762918 C57.9898148,42.2016211 58.1929242,41.7092199 58.5652914,40.9827761 C58.950353,40.2553191 59.5036145,39.2279635 60.2747954,38.0668693 C60.6450469,37.4782168 61.0914644,36.8693009 61.5495184,36.218845 C62.041424,35.5906788 62.5248666,34.9067882 63.0971696,34.2522796 C63.3775029,33.9209726 63.6610098,33.5835866 63.9487481,33.2421479 C64.2523543,32.9138804 64.560192,32.5825735 64.8701453,32.248227 C65.4720685,31.5673759 66.1586205,30.9412361 66.8166103,30.2917933 C67.4777737,29.6453901 68.2034666,29.0638298 68.8804979,28.4579534 C69.5786864,27.8743668 70.3033215,27.3414387 70.9824685,26.8064843 C71.6753677,26.2857143 72.3862506,25.8328267 73.0347196,25.3779129 C73.6778993,24.9118541 74.3475256,24.5582573 74.9356965,24.1935157 C75.5376197,23.8480243 76.061261,23.4903749 76.573266,23.248227 C77.0746923,22.9898683 77.5126469,22.7659574 77.8723198,22.5805471 C78.5895498,22.2117528 79,22 79,22 C79,22 78.6096491,22.2441743 77.9262707,22.6707194 C77.5866972,22.8834853 77.1730734,23.141844 76.6980936,23.4387031 C76.2125352,23.7183384 75.7227454,24.118541 75.1599631,24.508612 C74.6098752,24.91692 73.9836213,25.3171226 73.390161,25.8287741 C72.7903536,26.3302938 72.1344795,26.8297872 71.5018784,27.3961499 C70.8819717,27.9766971 70.2208083,28.5531915 69.5924386,29.177305 C68.9841683,29.8237082 68.33041,30.4427558 67.7454126,31.1236069 C67.1657046,31.8064843 66.5553185,32.4620061 66.032735,33.1681864 C65.7640382,33.5136778 65.4963993,33.8571429 65.2319339,34.195542 C64.9854522,34.5460993 64.743202,34.8926039 64.5030674,35.2320162 C64.010104,35.9027356 63.6070588,36.5967579 63.193435,37.231003 C62.8136628,37.8865248 62.4402377,38.4964539 62.1419208,39.0810537 C61.5114354,40.2350557 61.0851173,41.2340426 60.7920897,41.9240122 C60.5085828,42.6261398 60.4027967,42.9756839 60.3922181,43 L58.0003934,42.1762918" id="Fill-431" fill="#1D1209"></path>
            <path d="M63,40 C63,40 68.812713,37.9148118 71.8227591,34.8431809 C76.7419123,29.8229462 80,25 80,25 C80,25 77.2867906,34.0358155 72.7031035,37.1337515 C70.6130479,38.5471469 63,40 63,40" id="Fill-432" fill="#B4BE69"></path>
            <path d="M39,100.501969 C39,101.32874 37.6561224,102 36,102 C34.3418367,102 33,101.32874 33,100.501969 C33,99.6722441 34.3418367,99 36,99 C37.6561224,99 39,99.6722441 39,100.501969" id="Fill-441" fill="#EE9E80"></path>
            <path d="M62,100.501969 C62,101.32874 60.6578276,102 59.0005099,102 C57.3431922,102 56,101.32874 56,100.501969 C56,99.6722441 57.3431922,99 59.0005099,99 C60.6578276,99 62,99.6722441 62,100.501969" id="Fill-442" fill="#EE9E80"></path>
            <g id="eye-left" transform="translate(49.000000, 88.000000)">
                <path d="M10.8300781,6.07983848 C10.8300781,8.96546765 8.40539221,11.3046234 5.41746074,11.3046234 C2.42809241,11.3046234 0.00556177249,8.96546765 0.00556177249,6.07983848 C0.00556177249,3.19420932 2.42809241,0.85505355 5.41746074,0.85505355 C8.40539221,0.85505355 10.8300781,3.19420932 10.8300781,6.07983848" id="Fill-84" fill="#1D1209"></path>
                <path d="M5.80125816,4.73886128 C5.80125816,5.72500996 4.97435046,6.52252824 3.95346789,6.52252824 C2.93402216,6.52252824 2.10639604,5.72500996 2.10639604,4.73886128 C2.10639604,3.75409958 2.93402216,2.95588782 3.95346789,2.95588782 C4.97435046,2.95588782 5.80125816,3.75409958 5.80125816,4.73886128" id="Fill-85" fill="#FFFFFE"></path>
                <path d="M7.81407106,6.82151369 C7.81407106,7.40890324 7.31979434,7.88533372 6.71056956,7.88533372 C6.1020632,7.88533372 5.60778648,7.40890324 5.60778648,6.82151369 C5.60778648,6.23343065 6.1020632,5.75700017 6.71056956,5.75700017 C7.31979434,5.75700017 7.81407106,6.23343065 7.81407106,6.82151369" id="Fill-86" fill="#FFFFFE"></path>
            </g>
            <g id="eye-right" transform="translate(35.000000, 88.000000)">
                <path d="M7.99360578e-15,6.07983848 C7.99360578e-15,8.96546765 2.42396749,11.3046234 5.41189896,11.3046234 C8.40126729,11.3046234 10.8245164,8.96546765 10.8245164,6.07983848 C10.8245164,3.19420932 8.40126729,0.85505355 5.41189896,0.85505355 C2.42396749,0.85505355 7.99360578e-15,3.19420932 7.99360578e-15,6.07983848" id="Fill-90" fill="#1D1209"></path>
                <path d="M5.60222471,4.73886128 C5.60222471,5.72500996 6.42985083,6.52252824 7.45001498,6.52252824 C8.47161598,6.52252824 9.29852368,5.72500996 9.29852368,4.73886128 C9.29852368,3.75409958 8.47161598,2.95588782 7.45001498,2.95588782 C6.42985083,2.95588782 5.60222471,3.75409958 5.60222471,4.73886128" id="Fill-91" fill="#FFFFFE"></path>
                <path d="M3.50139044,6.82151369 C3.50139044,7.40890324 3.99423031,7.88533372 4.60417352,7.88533372 C5.21267988,7.88533372 5.70551974,7.40890324 5.70551974,6.82151369 C5.70551974,6.23343065 5.21267988,5.75700017 4.60417352,5.75700017 C3.99423031,5.75700017 3.50139044,6.23343065 3.50139044,6.82151369" id="Fill-92" fill="#FFFFFE"></path>
            </g>
            <g id="tooth" transform="translate(39.000000, 102.000000)">
                <path d="M15.0136692,3.42581573 C11.7253516,7.17746425 5.68291959,7.17746425 2.394602,3.42581573 C1.31669861,2.20233095 1.43066196,0.576855394 2.18487777,0.343621145 C2.93909357,0.0992425969 14.4683862,0.0992425969 15.2233934,0.343621145 C15.9776092,0.576855394 16.0899897,2.20233095 15.0136692,3.42581573 Z" id="Fill-182" fill="#DF5334"></path>
                <path d="M14.9811693,1.61944433 L14.9890834,1.59158358 L14.974838,1.61705627 L14.9890834,1.59158358 L14.974838,1.61705627 C15.028654,1.67277776 15.1077952,1.85427062 15.105421,2.11934572 C15.1070038,2.54442111 14.9241876,3.13984507 14.4762483,3.64691065 C12.9638596,5.37188887 10.8143841,6.23955212 8.65224608,6.24034814 C6.48931659,6.23955212 4.33984112,5.37188887 2.82903527,3.64691065 C2.37951316,3.13984507 2.19669694,2.54442111 2.19827977,2.11934572 C2.19748836,1.91874835 2.2394332,1.76272817 2.28058663,1.6855141 L2.32490572,1.62024035 L2.31540877,1.59397165 L2.32253148,1.61944433 L2.31540877,1.59397165 L2.32253148,1.61944433 L2.27267251,1.4315833 L2.31382595,1.62183239 L2.27267251,1.4315833 L2.31382595,1.62183239 C2.32648854,1.61864831 2.41829235,1.60431992 2.54254406,1.59397165 C2.9865263,1.55337456 3.87765641,1.51914564 4.96584815,1.49765307 C6.05562272,1.47616049 7.3543301,1.46501619 8.65224608,1.46501619 C10.1836286,1.46501619 11.7150112,1.4801406 12.9052951,1.51038941 C13.5004371,1.52551381 14.0108979,1.54461832 14.3876101,1.56690692 C14.5759662,1.57805122 14.731083,1.58999154 14.8410893,1.60193186 L14.9661324,1.61785229 L15.0310282,1.43317534 L14.9724637,1.61705627 L15.0310282,1.43317534 L14.9724637,1.61705627 L15.1718996,0.996159629 L15.3705441,0.375262993 C15.2193843,0.329889777 15.1244149,0.322725585 14.9764208,0.304417094 C14.4873281,0.253471729 13.5985722,0.220038833 12.4708098,0.195362172 C11.3470045,0.172277554 9.9992296,0.160337234 8.65224608,0.160337234 C7.11215798,0.160337234 5.57286129,0.175461639 4.36595772,0.206506471 C3.76211023,0.221630876 3.24215243,0.240735388 2.84090646,0.264616028 C2.64067917,0.276556348 2.46973414,0.289292689 2.32807136,0.304417094 C2.18007729,0.322725585 2.08431641,0.329889777 1.9339481,0.375262993 L2.13338397,0.996159629 L1.94344505,0.372078907 C1.55961014,0.489094043 1.28182447,0.779641828 1.12670768,1.09009015 C0.967633831,1.40451857 0.902738033,1.75317591 0.90194662,2.11934572 C0.903529445,2.88909835 1.20030901,3.7607417 1.85718112,4.51059379 C3.63231863,6.53646808 6.14900936,7.5450271 8.65224608,7.54423108 C11.1546914,7.5450271 13.6713821,6.53646808 15.4481024,4.50979777 C16.1033917,3.75994568 16.3993799,2.88830233 16.4017541,2.11934572 C16.4009627,1.75317591 16.3352755,1.40531459 16.1777845,1.09088617 C16.0226677,0.780437849 15.744882,0.489890064 15.3618385,0.372874929 L15.1718996,0.996159629 L15.3705441,0.375262993 L15.1718996,0.996159629 L14.9811693,1.61944433 Z" id="Fill-183" fill="#1D1209"></path>
                <path d="M9.44668266,3.24867931 C9.12853496,2.86738509 9.44668266,0.860615322 9.44668266,0.860615322 L12.458006,0.860615322 C12.458006,0.860615322 12.7373745,2.71295695 12.458006,3.24867931 C12.1778461,3.78360564 9.767996,3.62997352 9.44668266,3.24867931 Z" id="Fill-184" fill="#FFFFFE"></path>
                <path d="M11.8339673,3.59574461 L11.8822434,3.55594354 L11.90836,3.49863001 L11.8339673,3.59574461 L11.8822434,3.55594354 L11.90836,3.49863001 L11.9914583,3.59335654 L11.9289367,3.48191356 L11.90836,3.49863001 L11.9914583,3.59335654 L11.9289367,3.48191356 C11.9226054,3.48907775 11.8078507,3.53285892 11.6511511,3.55594354 C11.49366,3.5806202 11.2926414,3.59415256 11.0837085,3.59415256 C10.760021,3.59494859 10.412591,3.56151569 10.1545906,3.51057033 C10.0263819,3.48589366 9.91954122,3.45564485 9.86097672,3.43256024 L9.81824046,3.41345572 L9.66628933,3.67057061 L9.89025897,3.48032151 L9.81824046,3.41345572 L9.66628933,3.67057061 L9.89025897,3.48032151 L9.70269429,3.64111782 L9.94011794,3.55753558 L9.8918418,3.48191356 L9.70269429,3.64111782 L9.94011794,3.55753558 C9.92982958,3.54400322 9.89817309,3.34022176 9.90133874,3.11176364 C9.90133874,2.80131532 9.93457805,2.41763304 9.96860878,2.12151311 C9.97705051,2.06154617 9.96755356,2.06154617 9.94011794,2.12151311 L11.8822434,2.12151311 L11.8608753,2.12151311 L11.8822434,2.12151311 C11.9882927,2.6325588 11.8719551,2.08171204 11.8822434,2.16529428 C11.9154827,2.41444896 11.8830348,2.56728505 11.8822434,3.04330581 C11.8822434,3.20012201 11.8751207,3.34579391 11.8608753,3.45246077 L11.8379243,3.57584407 L11.8292188,3.60370482 L11.9099428,3.64270987 L11.8308016,3.60131676 L11.9099428,3.64270987 L11.8308016,3.60131676 L12.9799321,4.20629297 C13.0820243,4.00091946 13.1192207,3.81305843 13.1461287,3.62360535 C13.1706624,3.43415228 13.179368,3.23992307 13.179368,3.04330581 C13.1777852,2.26559297 13.0495764,1.43215864 13.048785,1.41544219 C13.0005088,1.09623764 12.728263,0.860615322 12.4069497,0.860615322 L9.39562636,0.860615322 C9.07589584,0.860615322 8.80523288,1.09305355 8.75537391,1.40987004 C8.75379108,1.42738251 8.60658842,2.32529457 8.6050056,3.11176364 C8.6050056,3.31156499 8.61450254,3.50499818 8.6445762,3.6960433 C8.68177258,3.88788444 8.71184624,4.08131762 8.89861951,4.32012402 C9.08064431,4.52390548 9.23813534,4.58360708 9.3980006,4.65126889 C9.63700707,4.74201532 9.89817309,4.79614477 10.1854557,4.83753788 C10.4711555,4.87733895 10.7790148,4.89883152 11.0837085,4.89883152 C11.4279728,4.8980355 11.764323,4.87335884 12.0761394,4.8009209 C12.2320476,4.7635079 12.3839987,4.71574662 12.5375327,4.63375642 C12.687901,4.55176622 12.858846,4.431567 12.9799321,4.20629297 L11.8339673,3.59574461 Z" id="Fill-185" fill="#1D1209"></path>
                <path d="M5.24501413,3.24867931 C4.92686643,2.86738509 5.24501413,0.860615322 5.24501413,0.860615322 L8.25633746,0.860615322 C8.25633746,0.860615322 8.53570596,2.71295695 8.25633746,3.24867931 C7.97617755,3.78360564 5.56632747,3.62997352 5.24501413,3.24867931 Z" id="Fill-184" fill="#FFFFFE"></path>
                <path d="M7.63229875,3.59574461 L7.68057489,3.55594354 L7.70669149,3.49863001 L7.63229875,3.59574461 L7.68057489,3.55594354 L7.70669149,3.49863001 L7.78978977,3.59335654 L7.72726821,3.48191356 L7.70669149,3.49863001 L7.78978977,3.59335654 L7.72726821,3.48191356 C7.72093691,3.48907775 7.60618215,3.53285892 7.44948254,3.55594354 C7.29199151,3.5806202 7.09097282,3.59415256 6.88204,3.59415256 C6.55835242,3.59494859 6.21092248,3.56151569 5.95292211,3.51057033 C5.82471333,3.48589366 5.71787269,3.45564485 5.65930819,3.43256024 L5.61657193,3.41345572 L5.46462079,3.67057061 L5.68859044,3.48032151 L5.61657193,3.41345572 L5.46462079,3.67057061 L5.68859044,3.48032151 L5.50102575,3.64111782 L5.73844941,3.55753558 L5.69017326,3.48191356 L5.50102575,3.64111782 L5.73844941,3.55753558 C5.72816105,3.54400322 5.69650456,3.34022176 5.69967021,3.11176364 C5.69967021,2.80131532 5.73290952,2.41763304 5.76694025,2.12151311 C5.77538198,2.06154617 5.76588503,2.06154617 5.73844941,2.12151311 L7.68057489,2.12151311 L7.65920676,2.12151311 L7.68057489,2.12151311 C7.78662412,2.6325588 7.67028653,2.08171204 7.68057489,2.16529428 C7.7138142,2.41444896 7.6813663,2.56728505 7.68057489,3.04330581 C7.68057489,3.20012201 7.67345218,3.34579391 7.65920676,3.45246077 L7.63625581,3.57584407 L7.62755028,3.60370482 L7.70827432,3.64270987 L7.6291331,3.60131676 L7.70827432,3.64270987 L7.6291331,3.60131676 L8.77826358,4.20629297 C8.88035575,4.00091946 8.91755212,3.81305843 8.94446014,3.62360535 C8.96899392,3.43415228 8.97769945,3.23992307 8.97769945,3.04330581 C8.97611663,2.26559297 8.84790785,1.43215864 8.84711644,1.41544219 C8.7988403,1.09623764 8.52659451,0.860615322 8.20528116,0.860615322 L5.19395783,0.860615322 C4.87422731,0.860615322 4.60356434,1.09305355 4.55370538,1.40987004 C4.55212255,1.42738251 4.40491989,2.32529457 4.40333706,3.11176364 C4.40333706,3.31156499 4.41283401,3.50499818 4.44290767,3.6960433 C4.48010404,3.88788444 4.51017771,4.08131762 4.69695098,4.32012402 C4.87897578,4.52390548 5.03646681,4.58360708 5.19633207,4.65126889 C5.43533854,4.74201532 5.69650456,4.79614477 5.98378718,4.83753788 C6.26948698,4.87733895 6.57734632,4.89883152 6.88204,4.89883152 C7.2263043,4.8980355 7.56265448,4.87335884 7.87447087,4.8009209 C8.03037907,4.7635079 8.18233021,4.71574662 8.33586417,4.63375642 C8.48623249,4.55176622 8.65717752,4.431567 8.77826358,4.20629297 L7.63229875,3.59574461 Z" id="Fill-185" fill="#1D1209"></path>
            </g>
            <path d="M50.3941442,90.0180828 C50.0334732,90.2198153 49.5771632,90.0914027 49.3751743,89.7297751 C49.1734418,89.3691041 49.3018544,88.912794 49.6631319,88.7114116 L55.6310158,85.3719121 C55.9916868,85.1701796 56.4479969,85.2985922 56.6497294,85.6592632 C56.8517183,86.0208908 56.7226992,86.4768507 56.3620282,86.6785832 L50.3941442,90.0180828 Z" id="Fill-89" fill="#1D1209"></path>
            <path d="M45.1573875,88.7114116 C45.5186649,88.912794 45.6470775,89.3691041 45.445345,89.7297751 C45.2433562,90.0914027 44.7870461,90.2198153 44.4263751,90.0180828 L38.4584911,86.6785832 C38.0978202,86.4768507 37.9688011,86.0208908 38.1707899,85.6592632 C38.3725224,85.2985922 38.8288325,85.1701796 39.1895035,85.3719121 L45.1573875,88.7114116 Z" id="Fill-93" fill="#1D1209"></path>
            <g id="Group-3" transform="translate(27.000000, 0.000000)">
                <path d="M21.3020166,9.498 C21.3020166,11.645 17.1420166,13.387 12.0130166,13.387 C6.88101664,13.387 2.84001664,11.059 2.84001664,8.912 C2.84001664,6.764 10.8270166,1.893 15.1860166,4.6 C19.9380166,7.553 21.3020166,7.351 21.3020166,9.498" id="Fill-405" fill="#EB8B2D"></path>
                <path d="M21.3020166,9.498 L19.3010166,9.498 L19.6160166,9.498 L19.3100166,9.424 L19.3010166,9.498 L19.6160166,9.498 L19.3100166,9.424 L19.4170166,9.45 L19.3170166,9.402 L19.3100166,9.424 L19.4170166,9.45 L19.3170166,9.402 C19.3180166,9.414 19.1870166,9.618 18.8360166,9.858 C18.3190166,10.223 17.3740166,10.639 16.1840166,10.923 C14.9920166,11.212 13.5530166,11.387 12.0130166,11.387 C9.75201664,11.391 7.73201664,10.858 6.41701664,10.176 C5.76001664,9.841 5.28801664,9.466 5.05101664,9.193 C4.93101664,9.058 4.87001664,8.952 4.84901664,8.903 L4.83601664,8.87 L4.65401664,8.912 L4.84001664,8.912 L4.83601664,8.87 L4.65401664,8.912 L4.84001664,8.912 L3.95701664,8.912 L4.80301664,9.181 C4.81601664,9.14 4.84001664,9.052 4.84001664,8.912 L3.95701664,8.912 L4.80301664,9.181 L4.50701664,9.087 L4.79101664,9.212 L4.80301664,9.181 L4.50701664,9.087 L4.79101664,9.212 L4.83001664,9.147 C4.93501664,8.976 5.27701664,8.593 5.77101664,8.208 C6.51101664,7.62 7.58301664,6.989 8.72501664,6.535 C9.86701664,6.076 11.0840166,5.798 12.0990166,5.801 C12.9400166,5.802 13.6130166,5.977 14.1310166,6.299 C15.3620166,7.065 16.3830166,7.63 17.1960166,8.069 C17.8040166,8.397 18.2960166,8.656 18.6530166,8.86 C18.9200166,9.013 19.1090166,9.136 19.2140166,9.216 L19.3260166,9.312 L19.4700166,9.186 L19.3040166,9.28 L19.3260166,9.312 L19.4700166,9.186 L19.3040166,9.28 L19.5520166,9.139 L19.2850166,9.238 L19.3040166,9.28 L19.5520166,9.139 L19.2850166,9.238 L19.3460166,9.215 L19.2820166,9.231 L19.2850166,9.238 L19.3460166,9.215 L19.2820166,9.231 C19.2850166,9.241 19.3020166,9.324 19.3010166,9.498 L23.3020166,9.498 C23.3010166,9.125 23.2730166,8.745 23.1840166,8.351 C23.1080166,8.007 22.9790166,7.655 22.7990166,7.332 C22.4810166,6.759 22.0330166,6.328 21.6020166,6.007 C20.9460166,5.524 20.2820166,5.191 19.4340166,4.731 C18.5880166,4.277 17.5550166,3.717 16.2410166,2.901 C14.9430166,2.096 13.4890166,1.8 12.0990166,1.801 C9.44101664,1.817 6.88701664,2.799 4.85001664,4.001 C3.83301664,4.612 2.95101664,5.28 2.24601664,6.011 C1.89301664,6.38 1.58201664,6.765 1.32401664,7.217 C1.07301664,7.668 0.847016635,8.202 0.840016635,8.912 C0.840016635,9.496 0.979016635,10.051 1.19801664,10.538 C1.58601664,11.394 2.18701664,12.064 2.89101664,12.64 C3.95301664,13.498 5.28701664,14.158 6.83101664,14.635 C8.37501664,15.108 10.1300166,15.386 12.0130166,15.387 C14.8060166,15.382 17.3410166,14.928 19.3530166,14.092 C20.3590166,13.668 21.2460166,13.151 21.9780166,12.433 C22.3420166,12.073 22.6670166,11.655 22.9090166,11.16 C23.1520166,10.668 23.3030166,10.092 23.3020166,9.498 L21.3020166,9.498" id="Fill-406" fill="#2D2118"></path>
                <path d="M28.0860166,2.835 C29.8400166,4.076 26.6190166,9.197 23.6560166,13.387 C20.6970166,17.577 10.2240166,18.143 8.46901664,16.904 C6.71501664,15.664 8.96901664,10.893 12.3710166,7.053 C17.8320166,0.892 26.3330166,1.596 28.0860166,2.835" id="Fill-407" fill="#EB8B2D"></path>
                <path d="M28.0860166,2.835 L26.9310166,4.468 L27.4480166,3.737 L26.6200166,4.086 C26.6640166,4.203 26.7970166,4.379 26.9310166,4.468 L27.4480166,3.737 L26.6200166,4.086 L27.1300166,3.871 L26.5830166,3.967 L26.6200166,4.086 L27.1300166,3.871 L26.5830166,3.967 L26.6920166,3.948 L26.5820166,3.956 L26.5830166,3.967 L26.6920166,3.948 L26.5820166,3.956 L26.5830166,3.98 C26.5910166,4.092 26.5120166,4.55 26.2810166,5.132 C25.9430166,6.015 25.3160166,7.194 24.5550166,8.433 C23.7940166,9.676 22.9000166,10.991 22.0230166,12.232 C21.7240166,12.66 21.2040166,13.122 20.4850166,13.539 C19.4120166,14.17 17.9250166,14.681 16.3830166,15.005 C14.8400166,15.332 13.2390166,15.483 11.9360166,15.482 C11.1990166,15.483 10.5560166,15.433 10.1080166,15.358 C9.88401664,15.322 9.71101664,15.278 9.61601664,15.247 L9.54001664,15.22 L9.31401664,15.709 L9.62401664,15.271 L9.54001664,15.22 L9.31401664,15.709 L9.62401664,15.271 L9.24801664,15.8 L9.85401664,15.55 C9.83301664,15.486 9.73301664,15.342 9.62201664,15.27 L9.24801664,15.8 L9.85401664,15.55 L9.58001664,15.663 L9.86501664,15.582 L9.85401664,15.55 L9.58001664,15.663 L9.86501664,15.582 L9.83601664,15.591 L9.86601664,15.584 L9.86501664,15.582 L9.83601664,15.591 L9.86601664,15.584 L9.85801664,15.469 C9.85501664,15.274 9.91901664,14.859 10.0950166,14.344 C10.3540166,13.567 10.8450166,12.567 11.5000166,11.526 C12.1540166,10.483 12.9690166,9.393 13.8680166,8.38 C15.3650166,6.692 17.1100166,5.608 18.8830166,4.93 C20.6510166,4.254 22.4460166,3.999 23.9300166,4 C24.7840166,3.999 25.5350166,4.085 26.0880166,4.203 C26.3630166,4.262 26.5890166,4.329 26.7410166,4.386 L26.9080166,4.457 L26.9410166,4.475 L26.9420166,4.475 L27.0810166,4.258 L26.9320166,4.469 L26.9420166,4.475 L27.0810166,4.258 L26.9320166,4.469 L28.0860166,2.835 L29.2390166,1.201 C28.8790166,0.949 28.5240166,0.785 28.1440166,0.64 C27.5750166,0.428 26.9470166,0.276 26.2430166,0.168 C25.5410166,0.06 24.7650166,0 23.9300166,0 C22.0020166,0.001 19.7490166,0.32 17.4560166,1.193 C15.1680166,2.065 12.8390166,3.508 10.8740166,5.726 C9.48301664,7.298 8.27701664,8.997 7.38501664,10.641 C6.94001664,11.464 6.57201664,12.273 6.30401664,13.069 C6.03801664,13.866 5.86201664,14.646 5.85801664,15.469 C5.85901664,15.985 5.93201664,16.53 6.15801664,17.08 C6.38001664,17.627 6.78501664,18.168 7.31501664,18.537 C7.69201664,18.8 8.03601664,18.937 8.38401664,19.053 C8.90301664,19.219 9.43901664,19.316 10.0290166,19.384 C10.6170166,19.45 11.2550166,19.482 11.9360166,19.482 C14.0670166,19.479 16.6230166,19.175 19.0430166,18.452 C20.2530166,18.088 21.4290166,17.619 22.5010166,16.994 C23.5700166,16.368 24.5500166,15.583 25.2900166,14.54 C26.4990166,12.828 27.7620166,10.953 28.7580166,9.174 C29.2550166,8.283 29.6870166,7.416 30.0130166,6.571 C30.3350166,5.72 30.5740166,4.905 30.5820166,3.98 C30.5820166,3.53 30.5180166,3.037 30.3060166,2.532 C30.1010166,2.03 29.7190166,1.535 29.2410166,1.203 L28.0860166,2.835" id="Fill-408" fill="#2D2118"></path>
                <path d="M29.7990166,12.522 C29.7990166,21.192 24.5610166,28.221 18.1000166,28.221 C11.6370166,28.221 6.40001664,21.192 6.40001664,12.522 L29.7990166,12.522" id="Fill-444" fill="#EB8B2D"></path>
                <path d="M29.7990166,12.522 L27.7980166,12.522 C27.8020166,16.454 26.5990166,19.979 24.7680166,22.428 C23.8550166,23.654 22.7930166,24.609 21.6660166,25.248 C20.5360166,25.887 19.3500166,26.219 18.1000166,26.221 C16.8480166,26.219 15.6620166,25.887 14.5320166,25.248 C12.8420166,24.292 11.2960166,22.612 10.1840166,20.4 C9.07001664,18.192 8.39801664,15.471 8.40001664,12.522 L6.40001664,12.522 L6.40001664,14.522 L29.7990166,14.522 L29.7990166,12.522 L27.7980166,12.522 L29.7990166,12.522 L29.7990166,10.522 L4.39901664,10.522 L4.39901664,12.522 C4.40301664,17.26 5.81801664,21.584 8.22201664,24.818 C9.42601664,26.433 10.8850166,27.777 12.5580166,28.727 C14.2270166,29.676 16.1190166,30.223 18.1000166,30.221 C20.0800166,30.223 21.9710166,29.676 23.6400166,28.727 C26.1500166,27.299 28.1760166,24.998 29.5870166,22.199 C30.9970166,19.396 31.7980166,16.076 31.7990166,12.522 L31.7990166,10.522 L29.7990166,10.522 L29.7990166,12.522" id="Fill-445" fill="#2D2118"></path>
                <path d="M18.1000166,26.221 C16.8480166,26.219 15.6620166,25.887 14.5320166,25.248 C12.8420166,24.292 11.2960166,22.612 10.1840166,20.4 C10.1240166,20.282 10.0660166,20.163 10.0090166,20.042 C10.3050166,20.062 10.6060166,20.073 10.9130166,20.073 C10.9150166,20.073 10.9170166,20.073 10.9190166,20.073 C10.9220166,20.073 10.9250166,20.073 10.9280166,20.073 C12.4330166,20.073 14.0530166,19.819 15.7580166,19.25 C16.5310166,21.178 17.6900166,22.972 19.3020166,24.555 C19.7350166,24.979 20.2040166,25.366 20.7010166,25.713 C19.8650166,26.048 18.9990166,26.22 18.1000166,26.221" id="Fill-446" fill="#BE6126"></path>
                <path d="M18.1000166,28.221 C13.5550166,28.221 9.61601664,24.745 7.67901664,19.667 C8.41001664,19.855 9.18901664,19.986 10.0090166,20.042 C10.0660166,20.163 10.1240166,20.282 10.1840166,20.4 C11.2960166,22.612 12.8420166,24.292 14.5320166,25.248 C15.6620166,25.887 16.8480166,26.219 18.1000166,26.221 C18.9990166,26.22 19.8650166,26.048 20.7010166,25.713 C21.3600166,26.175 22.0680166,26.567 22.8070166,26.889 C21.3650166,27.741 19.7760166,28.221 18.1000166,28.221" id="Fill-447" fill="#25160F"></path>
                <path d="M33.6150166,12.451 C31.4420166,17.618 29.3610166,16.665 26.4100166,15.713 C24.1790166,14.993 21.4510166,14.273 17.8090166,16.195 C8.06901664,21.334 2.00001664,14.519 2.00001664,12.451 C2.00001664,11.635 3.46801664,11.787 5.65501664,11.94 C9.01301664,12.174 14.0650166,12.408 18.1000166,9.138 C24.8810166,3.64 34.4180166,10.544 33.6150166,12.451" id="Fill-448" fill="#EB8B2D"></path>
                <path d="M31.7720166,11.675 C31.1800166,13.093 30.6310166,13.853 30.2880166,14.157 C30.1150166,14.313 30.0040166,14.371 29.9090166,14.408 C29.8140166,14.443 29.7200166,14.463 29.5550166,14.464 C29.3430166,14.466 29.0140166,14.417 28.5830166,14.299 C27.9350166,14.126 27.0810166,13.807 26.0570166,13.513 C25.0320166,13.221 23.8220166,12.96 22.4480166,12.96 C20.7710166,12.956 18.8720166,13.366 16.8750166,14.426 C14.5570166,15.647 12.5820166,16.071 10.9190166,16.072 C8.60001664,16.072 6.81701664,15.237 5.59501664,14.268 C4.98901664,13.787 4.53501664,13.27 4.26901664,12.867 C4.13601664,12.667 4.05101664,12.496 4.01501664,12.4 L3.99001664,12.327 L3.44001664,12.451 L4.00001664,12.451 L3.99001664,12.327 L3.44001664,12.451 L4.00001664,12.451 L2.49101664,12.451 L3.67501664,13.374 C3.90401664,13.094 4.01001664,12.682 4.00001664,12.451 L2.49101664,12.451 L3.67501664,13.374 L2.55601664,12.502 L3.20901664,13.767 C3.32501664,13.707 3.51001664,13.585 3.67501664,13.374 L2.55601664,12.502 L3.20901664,13.767 L2.79601664,12.966 L3.03701664,13.837 L3.20901664,13.767 L2.79601664,12.966 L3.03701664,13.837 L2.95501664,13.542 L3.02101664,13.841 L2.95501664,13.542 L3.02101664,13.841 C3.10301664,13.828 3.24501664,13.818 3.43801664,13.819 C3.90101664,13.817 4.63801664,13.873 5.51501664,13.935 C6.39601664,13.996 7.42701664,14.06 8.55101664,14.06 C10.1640166,14.06 11.9730166,13.929 13.8360166,13.443 C15.6950166,12.959 17.6120166,12.108 19.3590166,10.692 C20.8480166,9.493 22.4060166,9.062 24.0360166,9.054 C26.0590166,9.045 28.1680166,9.811 29.6820166,10.746 C30.4370166,11.207 31.0430166,11.71 31.3900166,12.091 C31.5640166,12.278 31.6700166,12.435 31.7010166,12.493 L32.4290166,12.199 L31.6610166,12.199 C31.6650166,12.425 31.7130166,12.511 31.7110166,12.514 L32.4290166,12.199 L31.6610166,12.199 L32.9910166,12.199 L31.7600166,11.704 C31.6880166,11.88 31.6610166,12.062 31.6620166,12.199 L32.9910166,12.199 L31.7600166,11.704 L33.6150166,12.451 L31.7720166,11.675 L33.6150166,12.451 L35.4700166,13.197 C35.6040166,12.868 35.6620166,12.519 35.6610166,12.199 C35.6530166,11.508 35.4400166,11.004 35.2060166,10.567 C34.7820166,9.81 34.2070166,9.195 33.4980166,8.581 C32.4340166,7.673 31.0550166,6.819 29.4450166,6.161 C27.8370166,5.507 25.9950166,5.055 24.0360166,5.054 C21.6540166,5.045 19.0730166,5.764 16.8400166,7.585 C15.5940166,8.592 14.2400166,9.202 12.8250166,9.573 C11.4120166,9.943 9.94401664,10.061 8.55101664,10.06 C7.58001664,10.06 6.64901664,10.004 5.79401664,9.944 C4.93501664,9.885 4.16301664,9.82 3.43801664,9.819 C3.15901664,9.819 2.88601664,9.828 2.59801664,9.862 C2.38201664,9.888 2.15701664,9.926 1.90801664,9.999 C1.54301664,10.11 1.08101664,10.303 0.654016635,10.757 C0.445016635,10.98 0.265016635,11.267 0.155016635,11.57 C0.0430166353,11.872 -0.00098336475,12.179 1.66352502e-05,12.451 C0.00501663525,13 0.129016635,13.437 0.290016635,13.859 C0.580016635,14.589 1.02201664,15.276 1.61001664,15.966 C2.49301664,16.992 3.71701664,18.003 5.28201664,18.778 C6.84401664,19.551 8.75201664,20.074 10.9190166,20.073 C13.2800166,20.074 15.9280166,19.45 18.7420166,17.963 C20.2250166,17.186 21.3900166,16.965 22.4480166,16.961 C23.6040166,16.96 24.6710166,17.251 25.7940166,17.616 C26.3550166,17.796 26.9270166,17.994 27.5390166,18.16 C28.1520166,18.324 28.8130166,18.463 29.5550166,18.464 C30.1200166,18.465 30.7350166,18.375 31.3320166,18.146 C32.2360166,17.806 33.0380166,17.17 33.6940166,16.351 C34.3560166,15.528 34.9160166,14.512 35.4590166,13.226 L33.6150166,12.451 L31.7720166,11.675 Z" id="Fill-449" fill="#2D2118"></path>
                <path d="M30.0600166,12.693 C29.3060166,12.693 26.4420166,11.124 24.9530166,11.124 C24.2220166,11.124 23.4540166,11.168 22.8120166,11.168 C21.9410166,11.168 21.3020166,11.087 21.3020166,10.704 C21.3020166,10.038 22.6990166,9.498 24.4240166,9.498 C26.1490166,9.498 30.2460166,11.897 30.2460166,12.563 C30.2460166,12.654 30.1800166,12.693 30.0600166,12.693" id="Fill-450" fill="#F3B429"></path>
                <path d="M22.7500166,22.928 C21.9490166,22.928 21.3020166,21.913 21.3020166,20.66 C21.3020166,19.408 22.0060166,17.483 22.8070166,17.483 C23.6060166,17.483 25.7750166,17.679 25.7750166,18.931 C25.7750166,20.184 23.5490166,22.928 22.7500166,22.928" id="Fill-451" fill="#F3B429"></path>
            </g>
        </g>
    </g>
</svg>
