<?xml version="1.0" encoding="UTF-8"?>

<svg class="plant-index" viewBox="0 0 125 134" version="1.1" xmlns="http://www.w3.org/2000/svg" xmlns:xlink="http://www.w3.org/1999/xlink">
    <!-- Generator: Sketch 51 (57462) - http://www.bohemiancoding.com/sketch -->
    <defs>
        <path d="M66.80575,5.117 C62.8054375,5.117 6.8053125,5.117 1.595875,5.117 C1.55125,5.036 1.4949375,4.918 1.4439375,4.771 C1.2803125,4.325 1.1336875,3.629 1.04125,2.823 C0.9605,2.125 0.9148125,1.341 0.9041875,0.532 C1.02425,0.61 1.1528125,0.651 1.2909375,0.651 C3.818625,0.651 63.688375,0.651 66.897125,0.651 C67.26475,0.651 67.5845625,0.47 67.85975,0.151 C67.8385,1.605 67.662125,3.014 67.3635625,3.981 C67.2084375,4.5 67.0086875,4.884 66.8726875,5.046 L66.80575,5.117 Z" id="path-1"></path>
    </defs>
    <g id="Page-1" stroke="none" stroke-width="1" fill="none" fill-rule="evenodd">
        <g id="ficus_repot">
            <path d="M71.4335227,24.5464902 C72.322058,30.4825812 68.3416312,34.3214468 68.3416312,34.3214468 C68.3416312,34.3214468 62.7491473,32.15891 61.5559713,26.4654047 C60.7224405,22.4959161 62.5883648,13.9971258 64.3738977,13.5005509 C66.1615462,13.0019027 70.8337613,20.5365706 71.4335227,24.5464902" id="Fill-316" fill="#58812B"></path>
            <path d="M71.392758,24.5052946 L70.3878668,24.6483579 C70.4693159,25.1967673 70.5063382,25.7223695 70.5063382,26.2282745 C70.5063382,28.4851502 69.7701232,30.3314963 69.0275615,31.6190661 C68.6562807,32.2618143 68.2860576,32.7614993 68.0120925,33.0953137 C67.8756389,33.2611842 67.7635142,33.3866237 67.6894696,33.4674856 L67.605905,33.5535309 L67.5889805,33.5711547 L68.3008665,34.2802511 L68.6732052,33.355523 L68.5494449,33.6634202 L68.6753207,33.355523 L68.6732052,33.355523 L68.5494449,33.6634202 L68.6753207,33.355523 C68.6562807,33.3493029 67.3414599,32.8237007 65.9346123,31.6657172 C64.5224757,30.5035869 63.0384101,28.7453595 62.50952,26.2241278 C62.3868175,25.6456543 62.3233507,24.9033838 62.3244085,24.0812881 C62.3222929,22.0597412 62.6967471,19.5613167 63.2436195,17.5822741 C63.515469,16.5932712 63.8338608,15.7286712 64.1395593,15.1429409 C64.2897641,14.8495575 64.4389111,14.6287424 64.5468047,14.5064129 L64.6568138,14.3996337 L64.6642183,14.395487 L64.5552669,14.2254697 L64.6102715,14.4162208 L64.6642183,14.395487 L64.5552669,14.2254697 L64.6102715,14.4162208 L64.612387,14.4151841 L64.5108401,14.0658193 L64.5108401,14.4296977 L64.612387,14.4151841 L64.5108401,14.0658193 L64.5108401,14.4296977 L64.5108401,14.2866344 L64.4791067,14.4276244 L64.5108401,14.4296977 L64.5108401,14.2866344 L64.4791067,14.4276244 C64.4865112,14.4234776 64.6705649,14.4950093 64.9022188,14.6795402 C65.3158109,14.9967676 65.8838388,15.6073784 66.4582135,16.3786762 C67.3277088,17.5356231 68.2395153,19.0543749 68.9651525,20.5627599 C69.6929053,22.0669981 70.2313154,23.5805665 70.3878668,24.6493946 L71.392758,24.5052946 L72.3965914,24.3601579 C72.2294621,23.2581557 71.8190434,22.0234571 71.2742866,20.7514376 C70.454507,18.8460001 69.3290289,16.8742144 68.192973,15.3316186 C67.6228294,14.5592841 67.0537437,13.895802 66.4836002,13.3867869 C66.1969417,13.1327977 65.9102833,12.9161293 65.5982382,12.7450754 C65.2851352,12.5781682 64.9371255,12.4433984 64.5108401,12.4402883 C64.3616931,12.4402883 64.2061994,12.4589487 64.0538791,12.5024898 L64.0559947,12.5014531 C63.5810513,12.6403696 63.2679484,12.917166 63.0066767,13.2105495 C62.5560623,13.7320049 62.220746,14.3944503 61.9002386,15.189592 C60.9672765,17.562577 60.300875,21.1246462 60.2934705,24.0812881 C60.2945283,25.0008327 60.3601107,25.8602493 60.5208933,26.6253271 C61.176717,29.7561329 63.0447568,31.9103762 64.708645,33.254964 C66.3778222,34.6036986 67.8640033,35.1800986 67.9285279,35.2060159 L68.5409826,35.4434181 L69.0127526,34.9893476 C69.0603527,34.9426965 69.9256169,34.102977 70.7951122,32.5987388 C71.6614342,31.096574 72.5362184,28.9153768 72.5362184,26.2282745 C72.5362184,25.6290673 72.4939072,25.0060162 72.3965914,24.3611946 L71.392758,24.5052946" id="Fill-317" fill="#1D1209"></path>
            <path d="M57.726238,73.0110372 C57.7325847,72.9674962 59.2272281,64.4158347 59.2282859,54.0489278 C59.222997,46.1742253 58.3820617,37.2576486 55.2573791,30.1324735 C53.6908066,26.5724777 51.5339928,23.4437452 48.5669194,21.1930897 C45.6040771,18.9403608 41.8341485,17.6175435 37.2761737,17.6237636 L37.0223065,17.625837 L37.0603866,20.1543256 L37.2761737,20.1532889 C41.3380496,20.159509 44.4606167,21.2863918 46.9876536,23.1939027 C50.7713333,26.0499856 53.2296145,30.8239462 54.6967556,36.4013421 C56.1681278,41.9683711 56.6494178,48.2818175 56.6473022,54.0489278 C56.64836,59.1141985 56.2802525,63.7606462 55.9132028,67.133001 C55.729149,68.8186601 55.5461531,70.1870918 55.4086416,71.131517 C55.3398859,71.6032113 55.2827658,71.9691631 55.2436279,72.2158955 C55.2034323,72.4626279 55.1822767,72.5839207 55.1822767,72.5849574 L57.726238,73.0110372" id="Fill-318" fill="#1D1209"></path>
            <path d="M70.6872186,72.5849574 C70.6872186,72.5839207 70.666063,72.4626279 70.6258674,72.2158955 C70.3476712,70.4908422 69.2200775,62.9147066 69.2211353,54.0510012 C69.2147886,46.3618663 70.0853417,37.6982422 72.9815439,31.1339167 C74.4254138,27.8486439 76.3569204,25.1045236 78.8797262,23.1939027 C81.406763,21.2863918 84.5293301,20.159509 88.591206,20.1532889 L88.8101665,20.1543256 L88.8482466,17.625837 L88.591206,17.6237636 C84.0332312,17.6175435 80.2633026,18.9403608 77.3015181,21.1930897 C72.8493213,24.5789215 70.2270843,29.8971447 68.6732052,35.7689608 C67.1224994,41.6521805 66.6412094,48.146011 66.6401516,54.0510012 C66.6412094,64.4168714 68.1369106,72.9685329 68.1432573,73.0110372 L70.6872186,72.5849574" id="Fill-319" fill="#1D1209"></path>
            <path d="M27.6616148,15.8435298 C33.6327839,14.5186391 37.8438068,18.1138825 37.8438068,18.1138825 C37.8438068,18.1138825 36.0709673,23.7451863 30.3705898,25.3499835 C26.3954519,26.4675361 17.6095297,25.2950389 16.9642838,23.5865726 C16.3211534,21.879143 23.6272412,16.7371572 27.6616148,15.8435298" id="Fill-320" fill="#89C140"></path>
            <path d="M27.84289,16.7726187 C28.6965186,16.5829043 29.5057205,16.5041158 30.26838,16.5041158 C32.3352825,16.5030791 34.0668686,17.0908828 35.2822581,17.6817964 C35.8883661,17.9772533 36.5784607,18.4182111 36.562594,18.4047341 C36.5731718,18.4358348 36.3918695,19.1217598 35.3224537,20.5855671 C34.247749,22.0545578 32.573283,23.6417312 30.0483617,24.3518644 C29.1153996,24.6172572 27.7413431,24.7541004 26.2689131,24.752027 C24.3003842,24.7530637 22.1340504,24.5177349 20.4595843,24.1424528 C19.6249958,23.9558485 18.9099364,23.7319233 18.4339353,23.5121449 C18.1969925,23.4043291 18.0203432,23.2965132 17.9283164,23.2218715 L17.8510984,23.1513765 L17.6628135,23.2768161 L17.8754273,23.2011377 L17.8500406,23.1503399 L17.6628135,23.2768161 L17.8754273,23.2011377 L17.5602088,23.314137 L17.8976407,23.314137 L17.8743696,23.200101 L17.5602088,23.314137 L17.8976407,23.314137 L17.7738804,23.314137 L17.8965829,23.3265773 L17.7738804,23.314137 L17.8965829,23.3265773 L17.934663,23.2177247 C18.0467877,22.9305614 18.5312511,22.3116571 19.2410216,21.6720189 C20.3051484,20.6954563 21.8600853,19.5861973 23.4499289,18.6697627 C25.0355414,17.7522914 26.6825052,17.0255712 27.84289,16.7726187 L27.6196984,15.8022762 L27.395449,14.830897 C26.2974732,15.0765927 25.0873726,15.5638374 23.8476543,16.1848151 C21.99125,17.1168 20.0893613,18.3504619 18.6074112,19.5665001 C17.8669651,20.1760743 17.2312392,20.7783915 16.7488914,21.3682686 C16.5077176,21.6647621 16.303566,21.9581456 16.1459567,22.2681161 C15.9904631,22.5791233 15.8698761,22.9139744 15.8667028,23.314137 C15.8667028,23.501778 15.8984362,23.7008226 15.9703652,23.890537 C16.1237434,24.2865529 16.3818417,24.554019 16.6526334,24.7706874 C17.1328657,25.1449327 17.7125292,25.402032 18.3979708,25.6383975 C20.4394865,26.3277968 23.4679112,26.7372896 26.2689131,26.7424731 C27.867219,26.7403997 29.3745557,26.60874 30.6079274,26.2645587 C33.7442457,25.3823349 35.7921081,23.3908521 37.0328843,21.661652 C38.2768338,19.9272685 38.7496615,18.4302871 38.7718749,18.3660123 L38.9654487,17.747108 L38.468292,17.3220648 C38.4206919,17.2816338 37.6051434,16.5911978 36.1845446,15.8997251 C34.7660613,15.2092891 32.7308923,14.5147064 30.26838,14.5136697 C29.3618624,14.5136697 28.3992824,14.6090452 27.395449,14.8319337 L27.6196984,15.8022762 L27.84289,16.7726187 Z" id="Fill-321" fill="#1D1209"></path>
            <path d="M49.452709,10.9226704 C51.2794954,16.6503865 47.9622967,21.0532119 47.9622967,21.0532119 C47.9622967,21.0532119 42.0916167,19.776009 40.0025008,14.3354562 C38.5448797,10.5432417 39.029343,1.86406718 40.7143869,1.09691607 C42.3994307,0.330801644 48.2172217,7.05581417 49.452709,10.9226704" id="Fill-322" fill="#89C140"></path>
            <path d="M48.4410436,11.1786357 C48.8038622,12.3148487 48.9434892,13.3857502 48.9445469,14.3757898 C48.9445469,16.1703014 48.4770081,17.6994202 48.0062959,18.7755051 C47.7725265,19.3135476 47.6409024,19.566591 47.469542,19.8485709 C47.3838618,19.9905975 47.5668578,19.6930673 47.5203154,19.7614889 L47.469542,19.8340572 C47.4399241,19.8444241 46.740133,19.7188937 45.1650983,18.7920922 C43.583717,17.8611439 41.8352063,16.352759 40.9107064,13.9434898 C40.3892208,12.6092689 40.1046779,10.3171458 40.1110246,8.09966438 C40.1099668,6.48139021 40.2527672,4.88281316 40.5034611,3.69165556 C40.6272213,3.09763179 40.7805995,2.60416702 40.9286887,2.28797636 C41.0006177,2.13143606 41.071489,2.02051016 41.114858,1.96763893 L41.148707,1.92928138 L41.0101378,1.7706677 L41.0989913,1.95830872 L41.148707,1.92928138 L41.0101378,1.7706677 L41.0989913,1.95830872 L40.9731155,1.68980583 L40.9731155,1.99044613 L41.1011069,1.95830872 L40.9731155,1.68980583 L40.9731155,1.99044613 C41.0598534,2.00081304 41.2809295,2.07856484 41.5538368,2.24547204 C42.0393579,2.53574543 42.693066,3.07067783 43.376392,3.74763685 C44.4045544,4.76463042 45.5152236,6.10299811 46.4450124,7.4517327 C47.3748011,8.79632052 48.1226517,10.1699357 48.4421013,11.1786357 L49.411028,10.8811055 L50.3788969,10.5835753 C50.0446383,9.5448112 49.4607437,8.41689173 48.7414531,7.26927513 C47.6614596,5.55355204 46.2757675,3.81294837 44.9345023,2.46317709 C44.2617541,1.78829144 43.602757,1.21085473 42.9702044,0.777518019 C42.6528704,0.560849665 42.341883,0.379428793 42.0203178,0.240512241 C41.6987527,0.10470576 41.3634363,0.00311007208 40.9731155,0 C40.7404038,0 40.4854788,0.0435410091 40.2443049,0.153430222 C39.9269709,0.29960361 39.6995481,0.513161893 39.5197255,0.735013701 C39.2087381,1.12791947 39.0098754,1.57576985 38.8332261,2.09100513 C38.3233761,3.62323397 38.0853756,5.82101824 38.0800867,8.09966438 C38.0864333,10.4809429 38.3445317,12.8922855 39.0109332,14.6453294 C40.1596825,17.6372187 42.3492875,19.4773447 44.2078073,20.5492829 C46.0726737,21.6253678 47.6328995,21.9664391 47.7005974,21.9830261 L48.3447856,22.1229794 L48.737222,21.6025606 C48.7985733,21.5113319 50.9638493,18.6511022 50.9744271,14.3757898 C50.9754849,13.2012193 50.8062401,11.921943 50.3799546,10.584612 L49.411028,10.8811055 L48.4410436,11.1786357 Z" id="Fill-323" fill="#1D1209"></path>
            <path d="M37.3220734,22.9374128 C42.8383971,20.3301357 47.766595,22.9063121 47.766595,22.9063121 C47.766595,22.9063121 47.3307895,28.7843483 42.1444933,31.6031103 C38.5268851,33.5686759 29.6954783,34.3617443 28.6757782,32.8398823 C27.6571359,31.3169837 33.5976294,24.6956402 37.3220734,22.9374128" id="Fill-324" fill="#89C140"></path>
            <path d="M37.7204532,23.7920514 C39.4224215,22.9886161 41.0471719,22.7252967 42.4762329,22.72426 C43.8851961,22.72426 45.09847,22.985506 45.9510408,23.2467521 C46.3762685,23.3773751 46.4078509,23.3485322 46.6310425,23.4428711 C46.7050871,23.4739718 46.7237745,23.4829565 46.6871048,23.4698251 L46.6310425,23.4428711 C46.6225802,23.5475769 46.5645533,24.2958831 45.8505517,25.9400745 C45.1344345,27.5894494 43.871445,29.4627495 41.6109687,30.6922646 C40.6145398,31.2375639 38.991905,31.7393222 37.2634922,32.0741733 C35.531906,32.4131712 33.6797329,32.6008122 32.177685,32.5997755 C31.3304031,32.6008122 30.5931303,32.5386108 30.0864536,32.4297582 C29.8336441,32.3779237 29.6411281,32.3115755 29.5364079,32.2607777 L29.4475544,32.2099798 L29.2920607,32.3748136 L29.4824611,32.2524841 L29.4464966,32.2089431 L29.2920607,32.3748136 L29.4824611,32.2524841 L29.1936871,32.4359784 L29.5290034,32.3520064 L29.4814033,32.2504107 L29.1936871,32.4359784 L29.5290034,32.3520064 L29.3946654,32.3851805 L29.5332346,32.3696302 L29.3946654,32.3851805 L29.5332346,32.3696302 C29.5279457,32.3074287 29.5660258,32.0907604 29.6908438,31.8056704 C29.9023999,31.2997654 30.3424364,30.5865222 30.9252733,29.8245545 C31.8000575,28.6759012 32.9932336,27.3935149 34.2266052,26.2884026 C35.454688,25.1832903 36.7430643,24.2502687 37.7204532,23.7920514 L37.2804166,22.8963506 L36.8393223,21.9996132 C34.9025268,22.9243413 32.6896506,24.8194119 30.8575754,26.7891242 C29.9457688,27.7760537 29.1418559,28.7764602 28.5442101,29.702225 C28.2459161,30.1656258 27.9983955,30.6103661 27.8153995,31.0416294 C27.6345191,31.4760028 27.5065277,31.8927525 27.5022966,32.3603 C27.5012388,32.6702705 27.5710523,33.0258554 27.7868395,33.3461928 C28.0237822,33.6945209 28.3337118,33.8977123 28.6446992,34.0480324 C29.1154114,34.2709209 29.6337237,34.3891036 30.223965,34.4730756 C30.8131486,34.5539375 31.4689723,34.5902216 32.177685,34.5902216 C33.8458044,34.589185 35.7995244,34.3891036 37.6612175,34.0252252 C39.5239684,33.6582367 41.2788257,33.1430014 42.5947043,32.4318316 C45.4475375,30.881979 46.9866076,28.4903336 47.7989828,26.5320249 C48.6134735,24.567496 48.7308871,23.0052032 48.7372338,22.9367816 L48.7848339,22.2909233 L48.2019971,21.9871729 C48.1142013,21.9446686 45.8082405,20.7389973 42.4762329,20.7338138 C40.7922469,20.7338138 38.8438158,21.0510412 36.8393223,21.9996132 L37.2804166,22.8963506 L37.7204532,23.7920514 Z" id="Fill-325" fill="#1D1209"></path>
            <path d="M45.4688961,29.0836482 C51.5638255,28.5041381 55.2808651,32.5886994 55.2808651,32.5886994 C55.2808651,32.5886994 52.7993127,37.9587572 46.9402683,38.8482378 C42.8551212,39.4692156 34.2849862,37.2247802 33.8650474,35.4510024 C33.4451087,33.6772247 41.3530734,29.4744806 45.4688961,29.0836482" id="Fill-326" fill="#89C140"></path>
            <path d="M45.5236858,30.0318927 C45.8949667,29.9966452 46.2546119,29.9800581 46.6047372,29.9800581 C49.0683072,29.9800581 51.042125,30.7928236 52.4130082,31.6149194 C53.0963342,32.0254489 54.1140793,32.3945864 53.9774651,32.7386921 C53.9700606,32.7583892 53.7045578,33.4146144 52.4553194,34.7353583 C51.2018498,36.0612857 49.3369834,37.4297174 46.7422486,37.8236599 C46.3339454,37.8848247 45.8473666,37.9169621 45.311072,37.9169621 C43.2684985,37.9200721 40.5425989,37.451488 38.3582828,36.7962994 C37.2655959,36.4718152 36.3019582,36.0975699 35.6440189,35.7440584 C35.3150493,35.5698943 35.0643553,35.3978037 34.9247284,35.2723641 L34.7999103,35.1407044 L34.6253766,35.2267497 L34.8115459,35.1852821 L34.7935636,35.1313742 L34.6253766,35.2267497 L34.8115459,35.1852821 L34.4444962,35.2671807 L34.8210659,35.2671807 L34.8115459,35.1832087 L34.4444962,35.2671807 L34.8210659,35.2671807 L34.6200877,35.2671807 L34.8168348,35.3117584 L34.8210659,35.2671807 L34.6200877,35.2671807 L34.8168348,35.3117584 C34.8527993,35.2163828 34.9807907,35.0194116 35.2071557,34.7892663 C35.6017077,34.3808101 36.2723403,33.8645382 37.0889466,33.3503396 C38.3159716,32.5748949 39.8761974,31.78701 41.4078631,31.1753625 C42.9363555,30.5626783 44.45427,30.1303783 45.5236858,30.0318927 L45.42637,29.0418531 L45.3279965,28.0518134 C44.189825,28.1617027 42.9025065,28.505884 41.5707613,28.9806883 C39.5747301,29.6960049 37.4983076,30.7109251 35.8693261,31.7538359 C35.0537775,32.2784014 34.3514115,32.8050403 33.8108858,33.342046 C33.5400941,33.6126223 33.3084402,33.885272 33.1243865,34.1890223 C32.9435061,34.491736 32.7943591,34.8379907 32.7911857,35.2671807 C32.7911857,35.3915835 32.8059947,35.5159864 32.8334969,35.6341692 C32.9593728,36.1348908 33.2502623,36.4645584 33.5601919,36.7465383 C34.113411,37.2317095 34.8369326,37.6101016 35.7096013,37.9781268 C38.3170294,39.0552485 42.2424517,39.898078 45.311072,39.9063715 C45.9277578,39.9063715 46.5116525,39.871124 47.0521782,39.7892255 C50.2762922,39.2999075 52.5632129,37.5769275 54.0144874,36.013598 C55.4721085,34.4461216 56.1321633,33.0196352 56.1628389,32.9574338 L56.4346884,32.3675568 L55.9946519,31.8844589 C55.9481095,31.8346978 55.0733253,30.878869 53.4729039,29.9178567 C51.874598,28.9589178 49.5326727,27.9906487 46.6047372,27.9906487 C46.1890296,27.9906487 45.7638019,28.0103458 45.3279965,28.0518134 L45.42637,29.0418531 L45.5236858,30.0318927 Z" id="Fill-327" fill="#1D1209"></path>
            <path d="M64.0055436,25.45386 C61.9587389,31.1110811 56.6084868,32.6806308 56.6084868,32.6806308 C56.6084868,32.6806308 52.6968156,28.2042004 54.3575305,22.6236944 C55.5157998,18.7329942 61.2193506,12.0764033 63.0376747,12.4558321 C64.8549411,12.8342242 65.3880623,21.6357281 64.0055436,25.45386" id="Fill-328" fill="#89C140"></path>
            <path d="M63.0066767,25.0796858 C62.0673679,27.6724492 60.3833819,29.3166407 58.9130674,30.3336342 C58.1800257,30.8395393 57.5030464,31.1837206 57.0185831,31.3983156 C56.7752936,31.5050947 57.0508223,31.4088543 56.9207153,31.4555054 C56.8805197,31.4078176 56.6779779,31.2096379 56.0835054,30.0278105 C55.4869174,28.8459831 54.9188894,27.2256355 54.9199472,25.3938031 C54.9199472,24.5893311 55.026783,23.7433915 55.2901703,22.8622044 C55.5313441,22.0452921 56.0464831,20.9909777 56.7150002,19.9086726 C57.7156602,18.2821049 59.0622144,16.5757121 60.3040483,15.3130228 C60.9228497,14.6816782 61.51838,14.1612594 62.0039011,13.8253716 C62.245075,13.6563911 62.4576888,13.5350982 62.6131825,13.4677134 L62.7930051,13.4024018 L62.8342585,13.3941083 L62.8363741,13.1390824 L62.7824273,13.3868515 L62.8363741,13.3930716 L62.8363741,13.1390824 L62.7824273,13.3868515 L62.8564719,13.0561471 L62.6787649,13.3484939 L62.7845429,13.3868515 L62.8564719,13.0561471 L62.6787649,13.3484939 L62.7517517,13.2282378 L62.6639559,13.338127 L62.7517517,13.2282378 L62.6639559,13.338127 C62.7633873,13.4428328 62.918881,13.7071889 63.0500457,14.0897278 C63.2531395,14.6661278 63.4308466,15.5017005 63.5482602,16.4502725 C63.6667315,17.4009178 63.7291406,18.4697459 63.7291406,19.5447942 C63.7333717,21.650313 63.4742156,23.8035196 63.0066767,25.0807225 L63.9639678,25.4124635 L64.9202011,25.7452412 C65.5157313,24.0772059 65.7547896,21.80789 65.7590207,19.5447942 C65.757963,17.7419891 65.5992959,15.9671746 65.2798463,14.544835 C65.1169482,13.8315918 64.9202011,13.2085407 64.6409471,12.6767184 C64.4981468,12.4113255 64.3352486,12.1645932 64.1109992,11.9427413 C63.8899232,11.7239996 63.5884558,11.5208082 63.2065972,11.4409831 C63.0796635,11.4140291 62.9527299,11.4026255 62.8363741,11.4036622 C62.3085418,11.410919 61.8875453,11.5861197 61.4623176,11.8079716 C60.7271604,12.2070975 59.9740209,12.8260018 59.1806858,13.5941896 C57.9970298,14.7469897 56.7562536,16.2356775 55.6974156,17.7751632 C54.6396354,19.3198323 53.7648512,20.8935288 53.3417392,22.3034281 C53.020174,23.3743296 52.8890092,24.4151671 52.8890092,25.3938031 C52.8911248,27.7025133 53.6157042,29.6587486 54.3307636,31.0406573 C55.0468808,32.4246394 55.7587669,33.2425883 55.7957892,33.2861293 L56.2252479,33.7775207 L56.8578005,33.5919531 C56.9297295,33.5701826 58.3630217,33.1461761 60.0819145,31.9602019 C61.7986917,30.7783745 63.8127052,28.8096989 64.9202011,25.7452412 L63.9639678,25.4124635 L63.0066767,25.0796858 Z" id="Fill-329" fill="#1D1209"></path>
            <path d="M68.2831024,42.7105286 C64.3396979,47.3020317 58.771543,46.9308964 58.771543,46.9308964 C58.771543,46.9308964 56.712045,41.3949681 60.2651286,36.7402269 C62.7435076,33.4964217 70.4674185,29.2262928 72.033991,30.2070022 C73.5984479,31.1866749 70.9465929,39.6108234 68.2831024,42.7105286" id="Fill-330" fill="#89C140"></path>
            <path d="M67.4652271,42.0284774 C65.9071169,43.8406127 64.0887928,44.801625 62.4989492,45.321007 C60.9122789,45.8393523 60.026998,45.8984437 59.4981079,45.897407 C59.4864723,45.8756365 59.1489593,45.0556142 59.1510749,43.0952321 C59.1531904,41.3442615 59.5540891,39.2356326 61.0360392,37.2949477 C61.9965036,36.0218915 64.1205262,34.3673331 66.2466643,33.1160475 C67.3107912,32.4867762 68.3791492,31.9466604 69.3004757,31.5744884 C70.2122823,31.197133 71.0098485,31.0074186 71.3546849,31.0167488 L71.4911385,31.0281524 L71.5831654,30.7959337 L71.4477695,31.0053452 L71.5831654,30.7959337 L71.4477695,31.0053452 L71.6085521,30.7534294 L71.3504537,30.9172265 L71.4445962,31.0032718 L71.6085521,30.7534294 L71.3504537,30.9172265 C71.3620893,30.9161898 71.4509429,31.1950596 71.4435384,31.615956 C71.4445962,32.1923561 71.3271826,33.0227453 71.1082221,33.9485101 C70.7792524,35.339749 70.2270912,36.9569865 69.5723253,38.4290873 C68.9217904,39.8991147 68.1527842,41.2322989 67.4641693,42.0284774 L68.2416378,42.6691522 L69.0180484,43.3098271 C70.2069934,41.9144414 71.2700624,39.7912988 72.095131,37.6090649 C72.5034341,36.519503 72.8440394,35.4195742 73.0852132,34.3973972 C73.3263871,33.3731468 73.4723608,32.4328683 73.4734186,31.615956 C73.4723608,31.1878028 73.4363963,30.7917869 73.3179249,30.4051013 C73.2015691,30.0277459 72.9847241,29.6109962 72.5393987,29.326943 C72.1363844,29.082284 71.7333702,29.0304495 71.3546849,29.0273394 C70.4936518,29.0366696 69.5765564,29.3165761 68.5251229,29.7353991 C66.960666,30.3698538 65.1624397,31.3598934 63.510187,32.4857395 C61.8589921,33.6167691 60.3654065,34.8607979 59.410231,36.1027534 C57.5993113,38.4726283 57.1180214,41.0529514 57.1201369,43.0952321 C57.1222525,45.4692538 57.7516317,47.161133 57.7759606,47.2305913 L58.0012678,47.838092 L58.6613226,47.8826697 C58.6824782,47.8837064 58.8115274,47.8919999 59.0336613,47.8919999 C59.718045,47.8909632 61.2750975,47.8163215 63.1399639,47.2098574 C65.0027149,46.6033934 67.181742,45.4505933 69.0180484,43.3098271 L68.2416378,42.6691522 L67.4652271,42.0284774 Z" id="Fill-331" fill="#1D1209"></path>
            <path d="M97.1719189,19.7969741 C91.5339505,22.1357483 86.7379752,19.3294266 86.7379752,19.3294266 C86.7379752,19.3294266 87.4678435,13.4783443 92.7863623,10.9104615 C96.4981129,9.12113333 105.359138,8.75103475 106.30162,10.3195478 C107.241986,11.8890975 100.979928,18.2191308 97.1719189,19.7969741" id="Fill-332" fill="#58812B"></path>
            <path d="M96.805927,18.8408166 C95.2837813,19.4711246 93.8399113,19.6919397 92.5462461,19.6919397 C90.9944826,19.6929764 89.659564,19.3705656 88.721313,19.0481548 C88.2527164,18.8885044 88.1596098,18.8607993 87.913147,18.7446899 C87.9142048,18.7239561 87.9671157,18.0114641 88.7562197,16.3848964 C89.5484971,14.7521086 90.9098602,12.8995423 93.2655367,11.7622926 C94.1773432,11.3196257 95.588422,10.9319034 97.1200877,10.6768774 C98.6528112,10.4197781 100.315642,10.2839717 101.77432,10.2839717 C102.870181,10.282935 103.854974,10.3627602 104.553109,10.5058235 C104.900061,10.5752818 105.175084,10.6634005 105.334809,10.7390789 L105.482898,10.8230508 L105.62464,10.6862077 L105.456453,10.7836566 L105.490302,10.829271 L105.62464,10.6862077 L105.456453,10.7836566 L105.760036,10.6053458 L105.4152,10.6862077 L105.454338,10.7805465 L105.760036,10.6053458 L105.4152,10.6862077 L105.590791,10.64474 L105.410969,10.6644372 L105.590791,10.64474 L105.410969,10.6644372 C105.4152,10.6913911 105.381351,10.8935458 105.251244,11.1651588 C105.030168,11.6482566 104.562629,12.3397293 103.944885,13.0768164 C103.01827,14.1881488 101.754223,15.4259575 100.456326,16.4844187 C99.1626612,17.5428799 97.8150493,18.4261404 96.805927,18.8408166 L97.2025945,19.7562145 L97.5982043,20.6726491 C99.5952933,19.8329296 101.925583,18.0207943 103.864494,16.1205403 C104.828132,15.1698949 105.68176,14.2005891 106.318544,13.2997049 C106.636936,12.8487444 106.901381,12.414371 107.099186,11.9882912 C107.293817,11.5611746 107.436618,11.1454616 107.440849,10.6644372 C107.441907,10.3855674 107.382671,10.0693767 107.208137,9.77702992 C106.940519,9.3447299 106.574527,9.11665795 106.205362,8.94042053 C105.644738,8.68332124 104.998434,8.54025792 104.251642,8.43866224 C103.508022,8.34017662 102.669203,8.29456223 101.77432,8.29352554 C100.189766,8.29456223 98.4327929,8.43866224 96.7773669,8.71545865 C95.1198253,8.99640183 93.5744085,9.39863782 92.3685391,9.97711122 C89.4427191,11.3901206 87.7862353,13.705051 86.8776021,15.6229287 C85.9668534,17.54599 85.7711641,19.0999893 85.7605863,19.1684109 L85.680195,19.8111591 L86.2482229,20.1429002 C86.3381342,20.1905879 88.8683444,21.675129 92.5462461,21.6823858 C94.0757963,21.6823858 95.8031513,21.416993 97.5982043,20.6726491 L97.2025945,19.7562145 L96.805927,18.8408166 Z" id="Fill-333" fill="#1D1209"></path>
            <path d="M86.2184925,15.1226306 C83.9484962,20.6948431 78.5411239,22.059128 78.5411239,22.059128 C78.5411239,22.059128 74.8103332,17.4375609 76.6889508,11.9265132 C78.0005983,8.08246409 83.9633052,1.64772497 85.7647048,2.09557534 C87.5661045,2.54342572 87.751216,11.35737 86.2184925,15.1226306" id="Fill-334" fill="#58812B"></path>
            <path d="M85.232759,14.7116776 C84.1919033,17.2650468 82.4444504,18.84289 80.9349981,19.8028656 C80.1808008,20.28078 79.3847609,20.6472051 78.8907776,20.8431396 C78.8548131,20.7985619 78.7062552,20.6456951 78.1741918,19.5105188 C77.6410706,18.3732691 77.1312205,16.8182331 77.1322783,15.0714093 C77.1333361,14.1622315 77.2676742,13.2001826 77.6093372,12.2008128 C77.8811867,11.3994509 78.4322902,10.3720904 79.1367718,9.3229594 C80.1924364,7.74615285 81.5929374,6.09988803 82.8791981,4.88488654 C83.5202129,4.2773858 84.1347831,3.77666419 84.6361709,3.45114331 C84.8858071,3.28838288 85.1068831,3.17020014 85.2708391,3.10281524 L85.4654706,3.03750373 L85.5162441,3.02817351 L85.5289374,2.79388142 L85.4697017,3.01780661 L85.5289374,3.02610013 L85.5289374,2.79388142 L85.4697017,3.01780661 L85.5606708,2.67880875 L85.3755593,2.97944905 L85.4728751,3.01780661 L85.5606708,2.67880875 L85.3755593,2.97944905 L85.4728751,2.82187206 L85.3565193,2.96700876 L85.4728751,2.82187206 L85.3565193,2.96700876 C85.372386,2.9742656 85.5014351,3.14635625 85.6103865,3.44077641 C85.7817469,3.88136995 85.9393561,4.57387933 86.0398453,5.38664484 C86.1424499,6.20148372 86.1953389,7.14176218 86.1953389,8.11625143 C86.1953389,9.33539968 86.1117743,10.6105292 85.9478184,11.7695494 C85.7838624,12.9285696 85.5331685,13.9766639 85.232759,14.7116776 L86.1762989,15.0807395 L87.118781,15.4487647 C87.5112175,14.4804956 87.7777781,13.3100718 87.9576007,12.0442725 C88.1374234,10.7795098 88.2252191,9.42351839 88.2252191,8.11625143 C88.2241613,6.53011467 88.0993433,5.02483979 87.8274938,3.81398506 C87.6889246,3.20648431 87.5186219,2.6725886 87.2668703,2.2050411 C87.1388789,1.9717857 86.9876163,1.75200727 86.7834647,1.55192597 C86.5814287,1.35391804 86.3085214,1.17353386 85.9721473,1.08956192 C85.8187692,1.05120436 85.6675066,1.03669069 85.5289374,1.03669069 C85.0137985,1.04291084 84.5906864,1.20567128 84.1601699,1.41715618 C83.4144348,1.79658497 82.639082,2.38957205 81.8193023,3.12873251 C80.5965084,4.23591817 79.3070744,5.6696614 78.1964052,7.16042261 C77.0889093,8.6542939 76.1601783,10.1834127 75.6831195,11.5684314 C75.2674118,12.7844696 75.1013404,13.9683704 75.1023981,15.0714093 C75.1034559,17.2660835 75.7508174,19.1383469 76.3897166,20.4673843 C77.0307314,21.7974585 77.6685729,22.5915636 77.7024218,22.6351046 L78.1117828,23.1420463 L78.7517398,22.9813593 C78.8236688,22.9616621 80.2728277,22.5926003 82.0382628,21.474011 C83.7994668,20.3585318 85.8896405,18.467608 87.118781,15.4487647 L86.1762989,15.0807395 L85.232759,14.7116776 Z" id="Fill-335" fill="#1D1209"></path>
            <path d="M83.5709813,31.6410452 C77.4496074,31.7851452 74.0446129,27.4486681 74.0446129,27.4486681 C74.0446129,27.4486681 76.9154284,22.2683247 82.8252463,21.7966304 C86.9463579,21.4679994 95.3292658,24.3147521 95.6148665,26.1144471 C95.9025827,27.9131055 87.7047862,31.5435963 83.5709813,31.6410452" id="Fill-336" fill="#58812B"></path>
            <path d="M83.7211861,31.599369 L83.6968571,30.6051826 L83.4239498,30.6082927 C80.7065125,30.607256 78.6036455,29.6514272 77.1566022,28.6831581 C76.4351962,28.2000602 75.8323414,27.6700362 75.4674072,27.3123779 C75.4758695,27.2926808 75.7867769,26.6502076 77.1301577,25.4217292 C78.4798853,24.1880672 80.4399519,22.955442 83.0569001,22.7470672 C83.2473005,22.7315168 83.4535677,22.72426 83.6725282,22.72426 C85.6220171,22.7180398 88.5277392,23.3535312 90.8823579,24.1973975 C92.0617828,24.6162205 93.1132163,25.0889514 93.8346224,25.5233248 C94.1953255,25.7389565 94.4714061,25.9473313 94.625842,26.1007616 L94.7675845,26.2655954 L95.0341451,26.1847335 L94.7622956,26.2262011 L94.7728734,26.2718155 L95.0341451,26.1847335 L94.7622956,26.2262011 L95.1198253,26.1660731 L94.7570067,26.1660731 L94.7612379,26.2189443 L95.1198253,26.1660731 L94.7570067,26.1660731 L95.0246251,26.1660731 L94.7633534,26.1028349 L94.7570067,26.1660731 L95.0246251,26.1660731 L94.7633534,26.1028349 C94.7675845,26.1080184 94.6713265,26.2780357 94.4555394,26.481227 C94.082143,26.8461422 93.3935281,27.3240566 92.5430728,27.7895307 C91.2652743,28.4934437 89.6172528,29.19632 88.004138,29.7177754 C86.3931388,30.2423409 84.7958907,30.5823754 83.6957993,30.6051826 L83.7211861,31.599369 L83.745515,32.5945921 C84.8984954,32.5655647 86.2196629,32.3084654 87.5968927,31.9238532 C89.6585062,31.3422697 91.8227245,30.4662661 93.5268084,29.5311711 C94.3793792,29.0615502 95.1155942,28.5815624 95.6878533,28.076694 C95.9745117,27.8227048 96.2220323,27.5624954 96.4219527,27.2628918 C96.6176421,26.9653616 96.7837136,26.6097767 96.7868869,26.1660731 L96.7699624,25.9265975 C96.6705311,25.3740414 96.377526,25.0111996 96.0623075,24.6929356 C95.4942795,24.1445262 94.7221,23.6883823 93.7859645,23.2353485 C92.3854636,22.5656463 90.6253173,21.9508887 88.8313221,21.4926714 C87.0352114,21.0365275 85.2190028,20.7358872 83.6725282,20.7338138 C83.403852,20.7338138 83.1446959,20.7431441 82.8918864,20.7638779 C79.6413279,21.0230506 77.2327624,22.58016 75.6693633,24.0356737 C74.1006753,25.4963709 73.336958,26.8720594 73.3020512,26.9311508 L72.9868328,27.500294 L73.389847,28.0134559 C73.4353316,28.0694372 74.3217513,29.1932099 76.0110263,30.3263128 C77.6950124,31.4563057 80.2061825,32.5987388 83.4239498,32.5977021 C83.5286701,32.5977021 83.6365637,32.5966654 83.7444572,32.5945921 L83.7211861,31.599369 L74.1948177,27.1837769" id="Fill-337" fill="#1D1209"></path>
            <path d="M78.8451764,48.0231924 C75.1186168,52.7857495 69.5377686,52.6613466 69.5377686,52.6613466 C69.5377686,52.6613466 67.2233455,47.2218305 70.5574686,42.4157325 C72.8824695,39.0641115 80.401171,34.4539479 82.013228,35.3641624 C83.6199962,36.2733401 81.3616355,44.8084146 78.8451764,48.0231924" id="Fill-338" fill="#58812B"></path>
            <path d="M78.8035679,47.9811553 L77.9975394,47.375728 C76.372789,49.450146 74.3799311,50.5044605 72.7096962,51.0539065 C71.0436924,51.6012792 69.7140627,51.6251231 69.5352979,51.6240864 L69.5056801,51.6240864 L69.49616,52.6193095 L70.4333533,52.2357339 L70.232375,52.3176325 L70.4333533,52.2378073 L70.4333533,52.2357339 L70.232375,52.3176325 L70.4333533,52.2378073 C70.415371,52.2015231 69.7256983,50.5054972 69.7288717,48.2983827 C69.7299295,46.6521178 70.0969792,44.7466804 71.3546798,42.9335083 C72.2675441,41.6003241 74.3556022,39.8234363 76.450007,38.4715916 C77.4972093,37.7904858 78.5507584,37.2047556 79.4541027,36.8004462 C79.904717,36.5982915 80.3172513,36.4417512 80.6610299,36.3411922 C81.0037507,36.2395965 81.2808891,36.1991656 81.4226316,36.2002023 L81.5146585,36.2074591 L81.5262941,36.1483678 L81.5061962,36.2043491 L81.5146585,36.2074591 L81.5262941,36.1483678 L81.5061962,36.2043491 L81.5971653,35.95969 L81.4649428,36.1846519 L81.5061962,36.2043491 L81.5971653,35.95969 L81.4649428,36.1846519 L81.4628273,36.1836152 L81.603512,35.9462131 L81.3633959,36.10068 L81.4628273,36.1836152 L81.603512,35.9462131 L81.3633959,36.10068 L81.3898404,36.1618447 C81.4416717,36.2914311 81.497734,36.6148786 81.4945607,37.0388851 C81.4998496,38.2932808 81.0788531,40.3687356 80.4145671,42.3591817 C79.7576856,44.3527379 78.8395324,46.3089732 77.9964816,47.375728 L78.8035679,47.9811553 L79.6085386,48.5865827 C80.6948788,47.1880869 81.6299565,45.1147056 82.3450159,42.974976 C83.0516131,40.8310996 83.5191519,38.6685628 83.5254986,37.0388851 C83.5233831,36.5381635 83.4821296,36.0830562 83.355196,35.6507562 C83.2896136,35.4340879 83.2007601,35.2205296 83.0632487,35.0131914 C82.9278528,34.8079267 82.734279,34.6047353 82.479354,34.4606353 L82.4772385,34.4595986 C82.1175932,34.260554 81.7568902,34.2118295 81.4226316,34.2107928 C80.9794217,34.2128662 80.5446741,34.2999482 80.0792508,34.434718 C78.4714249,34.9126324 76.4404869,36.0250016 74.4909981,37.3768462 C72.5489136,38.7359477 70.7348206,40.300314 69.6759827,41.8138824 C68.1400858,44.0251436 67.6968759,46.3659912 67.6979337,48.2983827 C67.7021648,50.9854849 68.5304067,52.9282433 68.5589668,53.0018483 L68.8149496,53.6072757 L69.4855822,53.6145325 L69.5352979,53.6145325 C69.8663831,53.6134958 71.4001644,53.5813584 73.3549421,52.9406836 C75.3054888,52.3031188 77.6918409,51.0383562 79.6085386,48.5865827 L78.8035679,47.9811553" id="Fill-339" fill="#1D1209"></path>
            <path d="M68.2831024,58.2617018 C64.3396979,62.8521682 58.771543,62.4820696 58.771543,62.4820696 C58.771543,62.4820696 56.712045,56.9451046 60.2651286,52.2914001 C62.7435076,49.0455216 70.4674185,44.777466 72.033991,45.7571387 C73.5984479,46.7368114 70.9465929,55.1619966 68.2831024,58.2617018" id="Fill-340" fill="#89C140"></path>
            <path d="M67.4652271,57.5798744 C65.9060591,59.3930465 64.087735,60.353022 62.4968336,60.8724041 C60.9101633,61.3907494 60.0190024,61.4539876 59.4901123,61.4529509 C59.4784767,61.4270336 59.1489593,60.6059746 59.1510749,58.6466292 C59.1531904,56.8956586 59.5540891,54.7870297 61.0360392,52.8473814 C61.9965036,51.5722519 64.1205262,49.9176935 66.2466643,48.6674446 C67.3107912,48.0371366 68.3791492,47.4970208 69.299418,47.1248488 C70.2112245,46.7485301 71.0087907,46.5588157 71.3546849,46.5681459 L71.4911385,46.5785128 L71.5852809,46.3421473 L71.4467117,46.5557056 L71.5852809,46.3421473 L71.4467117,46.5557056 L71.6096099,46.3037898 L71.3504537,46.4686236 L71.445654,46.5546689 L71.6096099,46.3037898 L71.3504537,46.4686236 C71.3758405,46.5038711 71.4488273,46.7744473 71.4435384,47.1663164 C71.4445962,47.7427165 71.3271826,48.5741424 71.1082221,49.4988705 C70.7792524,50.8901094 70.2270912,52.5083836 69.5723253,53.9794477 C68.9217904,55.4505118 68.1527842,56.783696 67.4641693,57.5798744 L68.2416378,58.2205493 L69.0180484,58.8612241 C70.2069934,57.4658385 71.2700624,55.3416592 72.095131,53.1594253 C72.5034341,52.0698634 72.8440394,50.9709713 73.0852132,49.9477576 C73.3263871,48.9235072 73.4723608,47.9832287 73.4734186,47.1663164 C73.4723608,46.7391999 73.4363963,46.343184 73.3179249,45.9564984 C73.2015691,45.579143 72.9847241,45.1623933 72.5393987,44.8773034 C72.1374422,44.6326444 71.7333702,44.5808098 71.3546849,44.5776998 C70.4936518,44.58703 69.5765564,44.8669365 68.5240651,45.2857595 C66.960666,45.9202142 65.1624397,46.9102538 63.510187,48.0360999 C61.8589921,49.1671295 60.3654065,50.4111583 59.410231,51.6541504 C57.5993113,54.0229887 57.1180214,56.6043485 57.1201369,58.6466292 C57.1222525,61.0206508 57.7516317,62.7125301 57.7759606,62.7819883 L58.0023256,63.3915625 L58.6634382,63.4340668 C58.683536,63.4351035 58.8115274,63.443397 59.0315457,63.443397 C59.7159295,63.4423603 61.2729819,63.3677186 63.1378484,62.7612545 C65.0005993,62.1558272 67.1806843,61.0019904 69.0180484,58.8612241 L68.2416378,58.2205493 L67.4652271,57.5798744 Z" id="Fill-341" fill="#1D1209"></path>
            <path d="M48.9964639,39.6256328 C54.9813842,40.8883221 57.2577272,45.8862079 57.2577272,45.8862079 C57.2577272,45.8862079 53.2318158,50.2641527 47.369598,49.3674153 C43.2833932,48.7402174 35.8175806,44.0512654 35.9667276,42.2370567 C36.1169324,40.4218113 44.9536281,38.7724364 48.9964639,39.6256328" id="Fill-342" fill="#89C140"></path>
            <path d="M48.7406544,40.5563766 C51.4834784,41.1358867 53.3631538,42.5613364 54.5817166,43.8603098 C55.1878246,44.5082415 55.6668825,45.1976408 55.9461365,45.6413444 C55.938732,45.6506746 55.6669991,46.0259567 54.3289071,46.8439056 C52.9876418,47.663928 51.1174865,48.4528496 48.910957,48.4518129 C48.4508226,48.4518129 47.9748216,48.4176021 47.4829538,48.3419237 C46.6124007,48.2113006 45.4541314,47.8349819 44.2503775,47.3093797 C42.4405156,46.5225315 40.5079512,45.4049789 39.0746591,44.3444444 C38.3595997,43.8167688 37.766185,43.2994601 37.3896152,42.8785637 C37.2002726,42.6701889 37.0669923,42.485658 36.9982366,42.3612551 L36.9390009,42.2316687 L36.750716,42.2503292 L36.9368853,42.2503292 L36.750716,42.2503292 L36.9368853,42.2503292 L36.2345193,42.2389256 L36.9294809,42.3353378 L36.9368853,42.244109 L36.2345193,42.2389256 L36.9294809,42.3353378 L36.9368853,42.2752097 L36.6311868,42.2503292 L36.9040941,42.3965026 L36.9368853,42.2752097 L36.6311868,42.2503292 L36.9040941,42.3965026 C36.9040941,42.3923558 36.986601,42.2949069 37.1558458,42.183981 C37.4499087,41.9838997 37.9787988,41.738204 38.6367381,41.5173888 C40.6190181,40.8404298 43.7648564,40.3428183 46.2749688,40.3469651 C47.2248554,40.3459284 48.0869462,40.41746 48.7406544,40.5563766 L48.954326,39.5839607 L49.1669398,38.6105081 C48.3069645,38.430124 47.3264023,38.3575556 46.2749688,38.3575556 C43.9869903,38.3585923 41.375331,38.7079571 39.2502506,39.2584398 C38.1861237,39.5362729 37.2478727,39.857647 36.4979065,40.2526262 C36.1223946,40.4516708 35.7902516,40.6673025 35.5035932,40.9482457 C35.225397,41.2250421 34.9588364,41.6055076 34.912294,42.1155594 L35.9245897,42.1953846 L34.9196985,42.0543946 C34.9038318,42.1673939 34.9070051,42.2316687 34.9070051,42.2503292 C34.9175829,42.8091055 35.1407746,43.2217083 35.4041618,43.6156508 C35.8780474,44.2977933 36.5888756,44.9560919 37.4668332,45.6413444 C38.7827117,46.6614481 40.4709289,47.7012488 42.1940528,48.5544453 C43.9214079,49.4055683 45.6614563,50.0731971 47.1698508,50.3085259 C47.7664389,50.3997547 48.348218,50.4412223 48.910957,50.4412223 C51.6611855,50.4401856 53.9184884,49.4532561 55.4776564,48.4860237 C57.0399977,47.5156812 57.9264175,46.5557056 57.9697865,46.5100912 L58.4119386,46.0301034 L58.1422047,45.438153 C58.1115291,45.3718048 57.4969588,44.0344738 56.0774178,42.5146853 C54.6610501,40.9990435 52.4090361,39.294724 49.1669398,38.6105081 L48.954326,39.5839607 L48.7406544,40.5563766 Z" id="Fill-343" fill="#1D1209"></path>
            <path d="M52.2994994,53.8486944 C57.3525154,57.2397097 57.5270491,62.7092898 57.5270491,62.7092898 C57.5270491,62.7092898 52.1069834,65.2668057 47.0306963,62.2614394 C43.490306,60.1662875 38.3907478,53.0535526 39.2295675,51.4311317 C40.0726183,49.8066374 48.8881583,51.5586447 52.2994994,53.8486944" id="Fill-344" fill="#89C140"></path>
            <path d="M51.682082,55.6651067 C53.9986207,57.2201428 55.1875656,59.2375429 55.8127137,60.8910645 C56.123701,61.7162703 56.9582896,62.293707 57.0439698,62.8079056 C57.0728825,62.9793051 57.2195613,63.2782176 57.4840064,63.704643 L57.1254189,62.9768862 L57.0450276,62.8079056 L57.1254189,62.9768862 L57.0450276,62.8079056 C56.9963697,62.8338229 55.0066852,63.7284869 52.4733016,63.7243402 C50.9331737,63.7233035 49.2058186,63.4071128 47.5123126,62.4046329 C46.0843093,61.5711336 44.1284738,59.5786141 42.6285414,57.5726176 C41.8732864,56.5701377 41.220636,55.5583276 40.7700217,54.6978743 C40.5457723,54.2686844 40.3722963,53.8757786 40.2612294,53.5544045 C40.1491047,53.2340671 40.1078513,52.9800778 40.1099668,52.8732987 L40.1131402,52.8225008 L39.8825441,52.7779231 L40.0888112,52.8826289 L40.1131402,52.8225008 L39.8825441,52.7779231 L40.0888112,52.8826289 L39.7757083,52.7198685 L40.0327489,52.9614174 L40.0919846,52.8774455 L39.7757083,52.7198685 L40.0327489,52.9614174 L39.9438953,52.8784821 L40.0137088,52.9780045 L39.9438953,52.8784821 L40.0137088,52.9780045 C40.0200555,52.9697109 40.1639136,52.9002527 40.4050875,52.858785 C40.6462614,52.8142073 40.9784044,52.7872534 41.3687252,52.7882901 C42.7438395,52.78518 44.7948753,53.1148476 46.7517686,53.6518534 C48.708662,54.1816023 50.6073774,54.9373499 51.682082,55.6651067 L52.2564567,54.8440477 L52.8297736,54.0229887 C51.4186948,53.0837469 49.3983346,52.3134857 47.2965254,51.7350123 C45.1936584,51.1627591 43.0431913,50.800954 41.3687252,50.7978439 C40.7414616,50.7999173 40.1776648,50.8465684 39.6625258,50.9865216 C39.4044274,51.0580533 39.1547913,51.1544655 38.9136174,51.3058224 C38.6745591,51.4561425 38.4365586,51.6759209 38.2810649,51.9765612 C38.1213401,52.2854951 38.0800867,52.5923555 38.0800867,52.8732987 C38.0822022,53.318039 38.1848069,53.7399721 38.3371272,54.1898959 C38.8797685,55.7407851 40.1226602,57.688727 41.6194192,59.5558069 C43.1225248,61.4135566 44.8403598,63.1396466 46.4629946,64.1079157 C48.525666,65.3301741 50.6507464,65.715823 52.4733016,65.7137496 C55.5789443,65.7085662 57.8436516,64.6355913 57.9240429,64.6013805 L58.5185154,64.321474 L58.4984176,63.6735423 C58.4952442,63.600974 58.4444708,62.1350933 57.716718,60.2016652 C56.9921386,58.2723838 55.5673087,55.8589679 52.8297736,54.0229887 L52.2564567,54.8440477 L51.682082,55.6651067 Z" id="Fill-345" fill="#1D1209"></path>
            <path d="M92.3780932,86.7761944 C89.1835971,86.7761944 29.5797992,86.7761944 27.0633402,86.7761944 C24.5468811,86.7761944 25.1276024,72.5683485 27.0633402,72.5683485 C28.9969623,72.5683485 89.5718024,72.5683485 92.3780932,72.5683485 C95.1843841,72.5683485 95.5704738,86.7761944 92.3780932,86.7761944" id="Fill-346" fill="#EC9638"></path>
            <path d="M92.6118285,87.0043081 L92.6118285,85.7395454 C89.4173324,85.7395454 29.8124767,85.7395454 27.2970754,85.7395454 L27.2970754,86.3200922 L27.6535474,85.8473613 C27.6038317,85.804857 27.4441069,85.7353987 27.2970754,85.7395454 L27.2970754,86.3200922 L27.6535474,85.8473613 L27.5287293,86.0121951 L27.6852808,85.8743152 L27.6535474,85.8473613 L27.5287293,86.0121951 L27.6852808,85.8743152 C27.6768185,85.8722419 27.5520005,85.6887476 27.4493958,85.3808505 C27.2864976,84.9184864 27.140524,84.1969497 27.0484971,83.361377 C26.9554124,82.5237309 26.9088701,81.564792 26.9099279,80.586156 C26.9078123,78.7760941 27.0685949,76.8810235 27.3383289,75.5188119 C27.4684358,74.8408162 27.6376807,74.2903334 27.770961,74.0145737 L27.8492367,73.869437 L27.8640456,73.8487032 L27.8640456,73.8466298 L27.4800714,73.5294025 L27.7297075,73.9502989 L27.8640456,73.8466298 L27.4800714,73.5294025 L27.7297075,73.9502989 L27.2960177,73.2215053 L27.2970754,74.0612248 C27.4705514,74.0632982 27.6376807,74.0052435 27.7297075,73.9502989 L27.2960177,73.2215053 L27.2970754,74.0612248 C29.2306976,74.0612248 89.8044799,74.0612248 92.6118285,74.0612248 L92.6118285,73.6797226 L92.3822902,74.0010967 C92.3918102,74.0125003 92.5007616,74.0643349 92.6118285,74.0612248 L92.6118285,73.6797226 L92.3822902,74.0010967 C92.4097925,74.0156104 92.5864418,74.2312421 92.7398199,74.6023773 C92.979936,75.1590802 93.2031276,76.027827 93.3480435,77.01994 C93.495075,78.0130897 93.5733507,79.1358257 93.5722929,80.2419747 C93.5754663,81.8716525 93.3967014,83.4816331 93.076194,84.5618648 C92.9217581,85.0999073 92.7228954,85.4979965 92.5874996,85.6659404 L92.5102816,85.7519857 L92.489126,85.7696095 L92.5737484,85.8909023 L92.5282639,85.7530224 L92.489126,85.7696095 L92.5737484,85.8909023 L92.5282639,85.7530224 L92.6107707,86.005975 L92.6118285,85.7395454 L92.5282639,85.7530224 L92.6107707,86.005975 L92.6118285,85.7395454 L92.6118285,88.2690707 C93.0423451,88.2711441 93.470746,88.1436312 93.812409,87.9404398 C94.4164015,87.5796714 94.7802779,87.0675462 95.063763,86.5263937 C95.4826439,85.7063713 95.7322801,84.7412123 95.9046982,83.6692741 C96.0739431,82.5983726 96.1532766,81.4248388 96.1532766,80.2419747 C96.151161,78.3178768 95.949125,76.3823753 95.5270707,74.8200824 C95.3102258,74.0363442 95.0500118,73.3448715 94.6491132,72.7456643 C94.4460194,72.4470974 94.2016721,72.1651175 93.865298,71.9318621 C93.5352706,71.6996434 93.0835985,71.5285894 92.6118285,71.5316995 C89.8044799,71.5316995 29.2306976,71.5316995 27.2970754,71.5316995 C27.0167637,71.5306628 26.7427986,71.6053045 26.5259537,71.7141571 C26.115535,71.9235686 25.8849389,72.2014017 25.7040585,72.4626477 C25.3962445,72.9270852 25.2164218,73.42366 25.0482348,74.0021334 C24.8060031,74.8646601 24.6325272,75.8992774 24.5119402,77.0313436 C24.3913533,78.1623732 24.3289443,79.3835948 24.3289443,80.586156 C24.3310598,82.3060259 24.4527045,83.9699144 24.7573452,85.3124289 C24.9149545,85.9873145 25.1053549,86.582375 25.4343245,87.1224908 C25.6025116,87.3920304 25.8119521,87.6563865 26.1197661,87.8813484 C26.4222912,88.1063103 26.8549233,88.2732175 27.2970754,88.2690707 C29.8135345,88.2690707 89.4173324,88.2690707 92.6118285,88.2690707 L92.6118285,87.0043081" id="Fill-347" fill="#1D1209"></path>
            <g id="Group-350" transform="translate(26.000000, 80.000000)">
                <mask id="mask-2" fill="white">
                    <use xlink:href="#path-1"></use>
                </mask>
                <g id="Clip-349"></g>
                <polygon id="Fill-348" fill="#D27430" mask="url(#mask-2)" points="0.9041875 5.117 67.85975 5.117 67.85975 0.151 0.9041875 0.151"></polygon>
            </g>
            <path d="M92.3758792,86.4755541 L92.3758792,85.2107915 L92.3758792,86.4755541 C92.2796212,86.4755541 92.131532,86.4755541 91.9358427,86.4755541 L92.1336476,85.2107915 L27.8385946,85.2107915 L28.0691907,86.4755541 C27.5519362,86.4755541 27.2081576,86.4755541 27.0611262,86.4755541 C25.5178249,86.4755541 25.1412551,81.1324503 25.5273449,77.0002012 C25.7103409,78.7097041 26.0805639,80.0563653 26.6760942,80.4575646 C26.686672,81.2962474 26.7321565,82.1090129 26.8125478,82.832623 C26.9045747,83.6681957 27.0505484,84.3897324 27.2134465,84.8520965 C27.26422,85.00449 27.3202823,85.1268195 27.3647091,85.2107915 C32.5510053,85.2107915 88.3023677,85.2107915 92.2849101,85.2107915 L92.3515503,85.1371864 C92.4869462,84.9692425 92.6858088,84.5711533 92.8402447,84.0331108 C93.137481,83.0306309 93.3130725,81.5699337 93.3342281,80.0625855 C93.8779271,79.4042869 94.243919,78.1758084 94.4427817,76.7151112 C94.9716718,80.8826078 94.3782571,86.4755541 92.3758792,86.4755541" id="Fill-351" fill="#1B0C03"></path>
            <path d="M76.1115154,131.553975 C69.9192702,131.553975 51.9200826,131.553975 44.9535423,131.553975 C37.987002,131.553975 36.0078953,122.037155 36.0078953,122.037155 L29.6178452,87.0820182 L90.867549,87.0820182 L85.3067986,122.583491 C85.3067986,122.583491 82.3037606,131.553975 76.1115154,131.553975" id="Fill-352" fill="#EC9638"></path>
            <path d="M76.5959787,130.517285 C70.4026758,130.517285 52.4045459,130.517285 45.4380056,130.517285 C44.0015401,130.512101 42.8834665,130.046627 41.8954998,129.298137 C40.422012,128.179547 39.3388451,126.350825 38.6756169,124.787495 C38.3424161,124.007904 38.1097045,123.299844 37.9616153,122.794976 C37.8875707,122.542023 37.8346817,122.339869 37.8018905,122.204062 L37.7648682,122.052705 L36.4923586,122.265227 L37.7627526,122.042338 L31.644552,88.5748528 L89.8489067,88.5748528 L84.5652947,122.431097 C84.4933656,122.631179 83.7201283,124.783349 82.306934,126.790382 C81.6035101,127.793898 80.7435348,128.754911 79.7820127,129.432906 C78.813086,130.112975 77.7806925,130.514175 76.5959787,130.517285 L76.5959787,133.045773 C78.4693075,133.048883 80.1035778,132.356374 81.4152253,131.394325 C83.3890431,129.945032 84.7440595,127.911044 85.6537505,126.243009 C86.5581525,124.5729 87.0003046,123.252156 87.0161713,123.206542 L92.855118,86.0453275 L28.560065,86.0453275 L35.2219646,122.488115 C35.2462935,122.590748 35.7529702,125.065328 37.2285736,127.643578 C37.9690197,128.931148 38.9569864,130.255002 40.3067139,131.290656 C41.649037,132.32631 43.391201,133.050957 45.4380056,133.045773 C52.4045459,133.045773 70.4026758,133.045773 76.5959787,133.045773 L76.5959787,131.782047 L76.5959787,130.517285 Z" id="Fill-353" fill="#1D1209"></path>
            <path d="M64.5076668,130.061141 C57.452273,130.061141 49.6024862,130.061141 45.5268592,130.061141 C44.0903937,130.055957 42.97232,129.590483 41.9843533,128.841993 C40.5108655,127.723403 39.4276986,125.894681 38.7644704,124.331351 C38.4312697,123.55176 38.198558,122.8437 38.0504688,122.338832 C37.9764242,122.085879 37.9235352,121.883725 37.890744,121.747918 L37.8537217,121.596561 L37.8484328,121.567534 L31.7334055,88.1187089 L48.6071151,88.1187089 C36.7769015,95.6647804 42.0509935,112.458133 47.4625969,119.81138 C51.3626324,125.114053 57.8235538,127.8561 64.5076668,130.061141" id="Fill-354" fill="#D27430"></path>
            <path d="M44.9535423,131.553975 C37.987002,131.553975 36.0078953,122.037155 36.0078953,122.037155 L29.6178452,87.0820182 L50.3725502,87.0820182 C49.5273838,87.4666304 48.7488576,87.8896002 48.0337982,88.3467808 L31.1600887,88.3467808 L37.2751159,121.795606 L37.3174271,121.97599 C37.3502183,122.111797 37.4031073,122.313951 37.4771519,122.566904 C37.6252412,123.071772 37.8579528,123.779832 38.1911536,124.559423 C38.8543817,126.122753 39.9375487,127.951475 41.4110365,129.070065 C42.3990031,129.818555 43.5170768,130.506169 44.9535423,130.511353 C49.0291693,130.511353 58.0178484,130.511353 65.0732422,130.511353 C66.3986408,130.948836 66.5946671,131.142409 67.9190079,131.553975 L44.9535423,131.553975 Z" id="Fill-355" fill="#1B0C03"></path>
            <path d="M88.740353,79.2715905 L31.7471567,79.2715905 C30.5709051,79.2715905 29.6178452,78.2338631 29.6178452,76.9566602 C29.6178452,75.6784205 30.5709051,74.6417299 31.7471567,74.6417299 L88.740353,74.6417299 C89.9134313,74.6417299 90.867549,75.6784205 90.867549,76.9566602 C90.867549,78.2338631 89.9134313,79.2715905 88.740353,79.2715905" id="Fill-356" fill="#F6BC54"></path>
            <path d="M81.7865061,122.049595 C81.7812172,122.049595 81.7748705,122.048559 81.7695816,122.048559 C80.4991876,121.880615 82.4698321,102.40327 80.9857665,97.8667114 C79.4974698,93.330153 61.3512507,89.6519744 61.3512507,89.6519744 C61.3512507,89.6519744 66.4095556,89.1553995 71.9882883,89.1553995 C78.8575128,89.1553995 86.5147835,89.908037 86.478819,93.2679515 C86.3624632,103.909581 83.0674779,122.050632 81.7865061,122.049595" id="Fill-357" fill="#F6BC54"></path>
            <path d="M49.1264851,72.6399102 C49.1137918,72.5663052 48.3786345,66.2559689 45.3819433,59.8243399 C43.8798954,56.609562 41.8066462,53.3502065 38.8998663,50.8497085 C36.0026064,48.3502473 32.2199844,46.6428177 27.5625783,46.6511112 C24.4082778,46.6511112 20.8763497,47.416189 16.924483,49.1433157 L17.9759165,51.4530625 C21.6665115,49.8410085 24.8387943,49.1795998 27.5625783,49.1795998 C31.5789696,49.1878934 34.6676878,50.5894992 37.1989558,52.752036 C40.9879244,55.9916944 43.3869698,61.0445248 44.7726619,65.3022135 C45.4686812,67.4284661 45.9182378,69.3494539 46.1932607,70.7313626 C46.3307721,71.4228353 46.4238568,71.9785015 46.4820347,72.358967 C46.5116525,72.5497181 46.5317503,72.6958915 46.5455015,72.7923037 L46.5592526,72.9001196 L46.5634837,72.9301836 L49.1275429,72.6399102" id="Fill-358" fill="#1D1209"></path>
            <path d="M7.9529035,50.9960537 C12.8959103,47.4536816 18.2176024,49.1123867 18.2176024,49.1123867 C18.2176024,49.1123867 18.8744839,54.9717625 14.2953535,58.6634181 C11.1008573,61.2375211 2.56034012,63.5845888 1.27725275,62.2679916 C-0.00583460926,60.9503578 4.61349146,53.3866625 7.9529035,50.9960537" id="Fill-359" fill="#56B146"></path>
            <path d="M8.50984159,51.7567895 C10.8496514,50.0814973 13.2656213,49.6792613 15.0850032,49.6782246 C15.9344007,49.6771879 17.1614257,49.8461685 17.1910436,49.8461685 C17.1931591,50.6402736 17.0990167,52.0149254 16.5997444,53.4963564 C16.0994144,54.9798608 15.2108791,56.5597774 13.6072843,57.8535674 C12.5040196,58.7523782 10.4254815,59.7393078 8.31309447,60.4463308 C6.2081119,61.1616474 4.01321802,61.6157179 2.75340182,61.6094978 C2.44664557,61.6094978 2.20124056,61.5815071 2.05844024,61.5462597 L1.93044884,61.504792 L1.81197746,61.689323 L1.97170226,61.5410762 L1.92515994,61.5027187 L1.81197746,61.689323 L1.97170226,61.5410762 L1.76966625,61.7256072 L2.04045798,61.645782 L1.9695867,61.5390028 L1.76966625,61.7256072 L2.04045798,61.645782 L2.03093795,61.5255258 C2.02036015,61.2124453 2.21604949,60.4556611 2.60848594,59.591061 C3.19026504,58.280684 4.16659615,56.6592997 5.2529364,55.2027493 C6.33398775,53.7451622 7.5483194,52.4399686 8.50984159,51.7578261 L7.911138,50.9543909 L7.31137664,50.1509556 C5.65066175,51.3504067 3.91167112,53.4652557 2.50059236,55.6288292 C1.79928409,56.7100976 1.19211827,57.7986228 0.747850591,58.7959193 C0.307814034,59.8015092 0.0105778018,60.6806229 0,61.5255258 C0.00105778018,61.7525611 0.0243289443,61.9827064 0.097315777,62.2211453 C0.16924483,62.4564741 0.297236232,62.7042432 0.501387808,62.9136547 C0.829299665,63.244359 1.20692719,63.3874223 1.5750347,63.4796878 C1.94631554,63.5678065 2.33452087,63.5978705 2.75340182,63.5989072 C4.43104119,63.5926871 6.70526859,63.086782 8.97420709,62.3279244 C11.2389145,61.5586999 13.440155,60.5551834 14.8977761,59.389943 C16.8525539,57.8141732 17.9410097,55.8703781 18.5280777,54.1194075 C19.1172613,52.3642902 19.2219815,50.7905937 19.2219815,49.8554987 C19.2219815,49.3195296 19.1881326,48.9940088 19.1849592,48.9639447 L19.1130302,48.3191231 L18.4825932,48.1221519 C18.4138375,48.1024548 17.0746877,47.6888152 15.0850032,47.6877785 C12.9662695,47.6857051 10.076414,48.168803 7.31137664,50.1509556 L7.911138,50.9543909 L8.50984159,51.7567895 Z" id="Fill-360" fill="#1D1209"></path>
            <path d="M26.033006,38.0288378 C30.0345884,42.5736898 28.7768878,47.9053901 28.7768878,47.9053901 C28.7768878,47.9053901 22.8681276,49.0187959 18.7449005,44.8409324 C15.8719695,41.9288682 12.7948869,33.7752959 14.0324898,32.4161944 C15.267977,31.0550196 23.3335509,34.9602334 26.033006,38.0288378" id="Fill-361" fill="#56B146"></path>
            <path d="M25.9917747,37.987457 L25.2227685,38.6364254 C27.472667,41.191868 27.9042413,44.0127033 27.9063568,45.8331322 C27.9063568,46.4022754 27.8629878,46.8677495 27.8217344,47.1849769 C27.8005788,47.3435905 27.780481,47.4638467 27.7656721,47.5415985 L27.7498054,47.6255704 L27.7455742,47.6421575 L27.8682767,47.6691114 L27.746632,47.6411208 L27.7455742,47.6421575 L27.8682767,47.6691114 L27.746632,47.6411208 L28.7356565,47.8640093 L28.5441983,46.8864099 L28.5547761,46.9444646 L28.5441983,46.8864099 L28.5547761,46.9444646 L28.5441983,46.8864099 C28.5082338,46.8926301 27.8735657,47.003556 26.9152168,47.003556 C25.956868,47.003556 24.6780117,46.8915934 23.3504976,46.473807 C22.0208679,46.0539473 20.6457536,45.3365574 19.4324798,44.1080789 C18.3768152,43.048581 17.1381546,40.9451356 16.2316369,38.8302866 C15.7746759,37.7718254 15.3917595,36.7061073 15.1273144,35.7606454 C14.8618116,34.8182936 14.7211268,33.9837576 14.7243002,33.4623022 C14.7232424,33.2705144 14.7422824,33.124341 14.7623803,33.0496993 L14.7803625,32.9926813 L14.5899621,32.9035259 L14.7454558,33.0403691 L14.7803625,32.9926813 L14.5899621,32.9035259 L14.7454558,33.0403691 L14.7496869,33.0351856 L14.4841841,32.8040036 L14.66718,33.1036072 L14.7496869,33.0351856 L14.4841841,32.8040036 L14.66718,33.1036072 L14.5994821,32.9926813 L14.6460244,33.1150108 L14.66718,33.1036072 L14.5994821,32.9926813 L14.6460244,33.1150108 C14.64814,33.1129374 14.734878,33.0901302 14.8829672,33.0911669 C15.2933859,33.0849468 16.0930677,33.2528906 17.0048743,33.5815216 C18.3831618,34.0687662 20.0629168,34.8846418 21.5818891,35.8093699 C23.1019192,36.7299512 24.4717446,37.7770088 25.2227685,38.6364254 L25.9917747,37.987457 L26.7607809,37.337452 C25.4427868,35.8518742 23.2373151,34.3662965 20.9863589,33.1761755 C19.8619385,32.5842252 18.7311715,32.0772834 17.6945469,31.7092582 C16.6515757,31.3453798 15.726018,31.1069409 14.8829672,31.1007208 C14.604771,31.1017575 14.3297482,31.1287114 14.0462631,31.2137201 C13.7670091,31.297692 13.4687151,31.4521589 13.2317723,31.713405 L13.2360035,31.7082215 C12.9874251,31.9819079 12.8647226,32.2835849 12.790678,32.5728216 C12.7187489,32.8641316 12.69442,33.1564784 12.6933622,33.4623022 C12.6965356,34.2854346 12.8763582,35.2340066 13.1693633,36.2862476 C13.6093999,37.8578707 14.3128237,39.6368319 15.14847,41.2851701 C15.9883475,42.9335083 16.9424652,44.4408566 17.9727431,45.4910243 C19.4494043,46.9880056 21.1439681,47.8691927 22.7295806,48.3678409 C24.3173087,48.8675259 25.8003165,48.9929654 26.9152168,48.9929654 C28.1052195,48.9929654 28.8795146,48.8499021 28.9271147,48.8405719 L29.5765917,48.7192791 L29.724681,48.0858611 C29.7373743,48.0309165 29.936237,47.1673531 29.936237,45.8331322 C29.9383526,43.7182832 29.4242714,40.3645888 26.7607809,37.337452 L25.9917747,37.987457" id="Fill-362" fill="#1D1209"></path>
            <path d="M20.2336256,51.7966323 C24.2394392,47.255927 29.8044207,47.6996307 29.8044207,47.6996307 C29.8044207,47.6996307 31.7888164,53.2645863 28.1712081,57.870603 C25.6505179,61.0833075 17.8684291,65.2518408 16.31455,64.2503976 C14.7627865,63.2510277 17.5299395,54.8621267 20.2336256,51.7966323" id="Fill-363" fill="#56B146"></path>
            <path d="M20.9599144,52.4057512 C22.496869,50.6641108 24.2686508,49.7310892 25.8331077,49.2200007 C27.395449,48.7120223 28.9952393,48.6467107 28.9846615,48.642564 C29.0047593,48.6736647 29.2920489,49.4086784 29.2899333,51.2923454 C29.2878178,53.0713066 28.8763413,55.2442103 27.3245777,57.2222161 C26.35142,58.4776486 24.2189351,60.0959227 22.0853925,61.3171444 C21.0180923,61.931902 19.9455032,62.4575041 19.0199455,62.8213826 C18.1028501,63.1873344 17.2999949,63.3739387 16.9392919,63.3646085 L16.7859138,63.3532049 L16.6833091,63.5999373 L16.8324561,63.3780855 L16.784856,63.3532049 L16.6833091,63.5999373 L16.8324561,63.3780855 L16.6610957,63.6289646 L16.9223674,63.4630941 L16.8303405,63.3770488 L16.6610957,63.6289646 L16.9223674,63.4630941 C16.9033274,63.4382135 16.8345716,63.1904445 16.8398605,62.8244926 C16.837745,62.2615696 16.9604475,61.4342904 17.188928,60.5095623 C17.5316488,59.1193601 18.1060234,57.4938291 18.7851183,56.0155082 C19.4589243,54.5392606 20.254375,53.1998563 20.9599144,52.4057512 L19.4240175,51.1036677 C18.2054548,52.4949066 17.1032478,54.6304894 16.2475036,56.8210168 C15.8233338,57.9157622 15.4679196,59.0188011 15.216168,60.0430515 C14.9644163,61.0693753 14.8110381,62.0075804 14.8089226,62.8244926 C14.8099804,63.2339855 14.8459449,63.6154876 14.9612429,63.9907697 C15.0754832,64.3577582 15.288097,64.7610309 15.7154402,65.0399007 C16.1290323,65.30011 16.5436821,65.3509079 16.9392919,65.3550546 C17.7960938,65.3467611 18.7195359,65.0761848 19.7752006,64.6687654 C21.3449463,64.0508977 23.1484616,63.0857387 24.8070609,61.9847732 C26.4656602,60.8786242 27.9666503,59.6605127 28.9345192,58.4351443 C30.8300613,56.0196549 31.3229868,53.3636534 31.3208713,51.2923454 C31.3187557,49.0136992 30.7433233,47.3985351 30.7211099,47.3301136 L31.0099487,46.9900513 L29.8463257,46.6666315 C29.8219968,46.6645581 29.6432319,46.6510812 29.3459957,46.6510812 C28.5854517,46.6510812 27.0315726,46.7350531 25.1942084,47.3321869 C23.3600176,47.9262107 21.235995,49.04791 19.4240175,51.1036677 L20.1919659,51.7547094 L20.9599144,52.4057512 Z" id="Fill-364" fill="#1D1209"></path>
            <path d="M30.423019,54.3415905 C35.7796179,51.4347098 40.8453272,53.7351265 40.8453272,53.7351265 C40.8453272,53.7351265 40.7490692,59.6287131 35.7299022,62.7284182 C32.2328809,64.8888816 23.4607098,66.1691946 22.3563873,64.703314 C21.251007,63.2395067 26.8032952,56.3019726 30.423019,54.3415905" id="Fill-365" fill="#56B146"></path>
            <path d="M30.381573,54.2997936 L30.8734408,55.1695771 C32.7763874,54.1380698 34.6222138,53.8249892 36.1940751,53.8239525 C37.4359091,53.8239525 38.5021515,54.0240338 39.2489443,54.2220418 C39.6212829,54.3205274 39.914288,54.419013 40.1078618,54.4905447 C40.2051776,54.5257921 40.2771066,54.5548195 40.323649,54.5734799 L40.3712491,54.5942137 L40.3797113,54.5973238 L40.5024138,54.3308943 L40.3775958,54.5962871 L40.3797113,54.5973238 L40.5024138,54.3308943 L40.3775958,54.5962871 L40.8038812,53.6933295 L39.7884122,53.6777792 L39.7884122,53.6819259 C39.7862966,53.7866317 39.7281187,55.1861641 39.1093173,56.8666397 C38.4884004,58.5533355 37.3354199,60.4929838 35.1479305,61.8448284 C34.086977,62.5052004 32.2697106,63.150022 30.3699374,63.5895789 C28.4691064,64.0353559 26.4593241,64.2955652 24.9858363,64.2945285 C24.3659771,64.2955652 23.8413181,64.2468408 23.495424,64.1680523 C23.3230058,64.1307314 23.1981878,64.0840803 23.1368365,64.0540163 L23.0924098,64.0291357 L22.9591295,64.1950062 L23.1315476,64.0706033 L23.0924098,64.0291357 L22.9591295,64.1950062 L23.1315476,64.0706033 L23.1294321,64.06853 L22.8681604,64.2582444 L23.1844366,64.1732357 L23.1294321,64.06853 L22.8681604,64.2582444 L23.1844366,64.1732357 L23.1209698,64.1898228 L23.18761,64.1825659 L23.1844366,64.1732357 L23.1209698,64.1898228 L23.18761,64.1825659 L23.1854944,64.1545753 C23.1823211,64.0726767 23.2225167,63.8383846 23.3388725,63.5377443 C23.7397712,62.4575126 24.9731429,60.6474507 26.4349951,59.0125895 C27.8905007,57.368398 29.6136246,55.843426 30.872383,55.1706138 L30.381573,54.2997936 L29.8897052,53.4289734 C28.0301277,54.445967 25.9579363,56.4239728 24.2496213,58.4662535 C23.4012816,59.4884305 22.6566043,60.5220111 22.1055008,61.4726565 C21.830478,61.9495342 21.6030553,62.4046414 21.435926,62.8431616 C21.2709123,63.2837551 21.1587876,63.7015415 21.1556142,64.1545753 C21.1545565,64.5018667 21.2328322,64.9020293 21.4993928,65.2545041 L21.4972772,65.251394 C21.7077755,65.5292272 21.9669316,65.7033912 22.22503,65.8319408 C22.6164087,66.0216552 23.0310585,66.1211775 23.4880195,66.1895991 C23.9449806,66.2559473 24.4453106,66.283938 24.9858363,66.283938 C26.6878046,66.2829013 28.8001916,66.0009214 30.8406496,65.5250804 C32.8842809,65.0440559 34.8305965,64.386794 36.2300397,63.5284141 C38.9897882,61.8230579 40.3902891,59.3505506 41.088424,57.3507743 C41.7886745,55.3447778 41.8161768,53.7783382 41.8193502,53.7099166 L41.829928,53.0630216 L41.2312244,52.7914086 C41.1476597,52.7561611 39.1220107,51.8376532 36.1940751,51.8345431 C34.3471909,51.8324697 32.133257,52.2098251 29.8886474,53.4289734 L30.381573,54.2997936" id="Fill-366" fill="#1D1209"></path>
            <path d="M43.9172774,44.7368358 C44.332985,50.7247612 40.0627264,54.2495096 40.0627264,54.2495096 C40.0627264,54.2495096 34.6553541,51.664003 33.9159657,45.8989661 C33.4040001,41.8766062 35.9363259,33.5467965 37.7588812,33.1860281 C39.5803786,32.8262964 43.6369656,40.6937421 43.9172774,44.7368358" id="Fill-367" fill="#56B146"></path>
            <path d="M42.8623109,44.761194 C42.8802931,45.0151832 42.8876976,45.2650257 42.8876976,45.5117581 C42.8876976,48.0215863 42.0023356,50.0078856 41.1063958,51.3815008 C40.6589547,52.0667533 39.9824595,52.2490465 39.8814863,52.945867 C39.8624463,52.9375735 39.1791203,52.6804742 37.8674728,51.4188217 C36.5515943,50.1519856 35.2092712,48.2859424 34.8813594,45.7325732 C34.8422215,45.4257128 34.8221237,45.0722012 34.8221237,44.6886257 C34.8178926,42.7158033 35.3615916,39.9633895 36.1041533,37.7459081 C36.4722608,36.6366491 36.8943151,35.6528296 37.2867515,34.977944 C37.4813831,34.6420562 37.6717835,34.3849569 37.8114105,34.2408569 L37.9605575,34.1102339 L37.9383441,34.0438856 L37.9626731,34.1071238 L37.9383441,34.0438856 L37.9626731,34.1071238 L37.8621839,33.8520979 L37.9182463,34.1195641 L37.9626731,34.1071238 L37.8621839,33.8520979 L37.9182463,34.1195641 L37.8410283,33.7370252 L37.8410283,34.1268209 L37.9203618,34.1185274 L37.8410283,33.7370252 L37.8410283,34.1268209 L37.8410283,33.9008223 L37.7870815,34.1216374 L37.8410283,34.1268209 L37.8410283,33.9008223 L37.7870815,34.1216374 C37.8124683,34.1247475 37.9954642,34.2221964 38.2144247,34.4295346 C38.6068612,34.7903029 39.1220001,35.4475648 39.6318502,36.2603303 C40.4008564,37.481552 41.1814982,39.0583585 41.779144,40.6071744 C42.3789053,42.1528802 42.7914396,43.6913292 42.8623109,44.7622307 L43.8756643,44.6948458 L44.8890177,44.6264242 C44.8086264,43.5047249 44.4923501,42.2295954 44.0438513,40.9057413 C43.366872,38.9235887 42.3873676,36.8533174 41.3655519,35.2267497 C40.8525285,34.4119108 40.3342162,33.7100712 39.7989795,33.167882 C39.5303033,32.8962691 39.257396,32.6630136 38.9485242,32.4764093 C38.6417679,32.2929151 38.2842382,32.1405215 37.8410283,32.1374115 C37.7331348,32.1374115 37.6220678,32.1477784 37.5131165,32.1695489 C36.9852842,32.2825482 36.6351589,32.5697115 36.3326338,32.8776086 C35.8111482,33.4280914 35.393325,34.1589583 34.9850218,35.0432555 C33.7844413,37.6878534 32.8028213,41.6708191 32.7911857,44.6886257 C32.7911857,45.1406228 32.8144569,45.5718861 32.8673459,45.981379 C33.2735335,49.1526158 34.9670396,51.4426655 36.5198609,52.9095829 C38.0769133,54.3816837 39.5133788,55.0700463 39.5757878,55.101147 L40.1681447,55.3852002 L40.6748214,54.9684506 C40.7287682,54.9228362 41.7696239,54.0582362 42.8168263,52.4544757 C43.8629709,50.8527885 44.9186355,48.4912071 44.9186355,45.5117581 C44.9186355,45.2245948 44.9091155,44.9291379 44.8890177,44.6274609 L43.8756643,44.6948458 L42.8623109,44.761194 Z" id="Fill-368" fill="#1D1209"></path>
            <path d="M53.4293345,56.485614 C51.6713038,62.2340639 46.4088474,64.0638229 46.4088474,64.0638229 C46.4088474,64.0638229 42.2761002,59.7843638 43.6480411,54.1312894 C44.60639,50.187718 49.9629888,43.2605508 51.7992952,43.5497875 C53.6313705,43.8400609 54.6140483,52.6032073 53.4293345,56.485614" id="Fill-369" fill="#56B146"></path>
            <path d="M52.4140659,56.1585715 C51.6080374,58.7928025 50.0097316,60.5168192 48.5923061,61.6043077 C47.8846512,62.1464969 47.1784419,63.2034474 46.7538842,62.7602178 C46.7052263,62.70942 46.7052263,62.3076172 45.6686017,61.2901904 C44.6319771,60.2727637 44.3400298,58.3553191 44.3410876,56.4125607 C44.3410876,55.7438952 44.41619,55.0462024 44.593897,54.3205189 C44.7938175,53.4870196 45.2592408,52.3984944 45.8780422,51.276795 C46.8057154,49.5900993 48.0761094,47.8069913 49.2576499,46.487284 C49.8468334,45.8279487 50.4169769,45.2826494 50.8813424,44.932248 C51.1108808,44.7570473 51.3150323,44.6316077 51.4599482,44.5631861 L51.6207308,44.499948 L51.6387131,44.4211595 L51.6397708,44.4937278 L51.6387131,44.4211595 L51.6397708,44.4937278 L51.6397708,44.2096746 L51.5932285,44.4895811 L51.6397708,44.4937278 L51.6397708,44.2096746 L51.5932285,44.4895811 L51.6471753,44.1702803 L51.4789883,44.4522602 L51.5942863,44.4895811 L51.6471753,44.1702803 L51.4789883,44.4522602 L51.5149528,44.3921321 L51.4715838,44.4470767 L51.5149528,44.3921321 L51.4715838,44.4470767 C51.4959127,44.4501868 51.7191044,44.7249099 51.8978692,45.1862372 C52.1802965,45.8756365 52.4405104,46.9434279 52.6139864,48.1439158 C52.7895779,49.346477 52.8868937,50.6900281 52.8868937,51.9775979 C52.890067,53.6010556 52.7250533,55.1477981 52.4140659,56.1596082 L53.3872237,56.4436614 L54.3593237,56.7287514 C54.7591646,55.402824 54.9146583,53.7306419 54.9178316,51.9775979 C54.9167739,49.9436108 54.6978134,47.8256517 54.2990302,46.1244423 C54.0969942,45.2712458 53.8568781,44.5258652 53.5342552,43.9090343 C53.371357,43.6011371 53.188361,43.320194 52.9408405,43.0713882 C52.6964932,42.8277659 52.3590614,42.5965839 51.917967,42.5250522 C51.8206513,42.5095018 51.725451,42.5043184 51.6397708,42.5043184 C51.095014,42.5126119 50.6740175,42.7043997 50.2572521,42.9407652 C49.5369038,43.3647717 48.81444,44.0158134 48.0560116,44.8213221 C46.9252446,46.0280301 45.7500508,47.5841028 44.7610263,49.1847532 C43.7741174,50.7905871 42.97232,52.4181915 42.6179636,53.8581549 C42.4021765,54.7414153 42.3112074,55.5987585 42.3112074,56.4125607 C42.3122652,58.868481 43.1426226,60.9283854 43.9581711,62.3724955 C44.7758352,63.818679 45.5882104,64.6625452 45.6294638,64.7060863 L46.0821938,65.1757071 L46.7062841,64.9600755 C46.7760976,64.9341582 48.1850608,64.4406934 49.8426023,63.1728207 C51.4959127,61.9080581 53.4083793,59.8440069 54.3593237,56.7297881 L53.3872237,56.4436614 L52.4140659,56.1585715 Z" id="Fill-370" fill="#1D1209"></path>
            <path d="M35.0914441,61.8679707 C40.8510572,59.8267267 45.4851922,62.8787441 45.4851922,62.8787441 C45.4851922,62.8787441 44.4401054,68.684212 38.9883063,70.9711516 C35.1866443,72.5645452 26.3150419,72.4712431 25.4624711,70.8550423 C24.6067269,69.2388415 31.2030441,63.2457326 35.0914441,61.8679707" id="Fill-371" fill="#56B146"></path>
            <path d="M35.3954405,62.762295 C36.7218969,62.2926741 37.9721931,62.1185101 39.1135379,62.1174734 C40.816564,62.1174734 42.2784162,62.5114159 43.3065785,62.906395 C43.8206597,63.1033663 44.2831726,63.3287354 44.2831726,63.3287354 C44.2916348,63.3411756 44.1792472,64.0509015 43.3034052,65.6339282 C42.4222743,67.2231751 40.9625377,69.0021363 38.5476255,70.0149831 C37.7564059,70.3477608 36.6065989,70.6266306 35.3372626,70.8070148 C34.0668686,70.9894724 32.6705988,71.0807011 31.3536625,71.0807011 C29.9478726,71.0817378 28.6256474,70.9749587 27.6598941,70.7821342 C27.1796618,70.6877954 26.789341,70.5685759 26.5481671,70.4586867 C26.4275801,70.4047788 26.3461311,70.3529443 26.3122821,70.3259903 L26.1282283,70.4555766 L26.3239177,70.357091 L26.2911265,70.3083666 L26.1282283,70.4555766 L26.3239177,70.357091 L26.0742816,70.4773471 L26.3588244,70.4773471 L26.3207443,70.3519076 L26.0742816,70.4773471 L26.3588244,70.4773471 C26.3545933,70.4752738 26.3842111,70.2917795 26.519607,70.0336435 C26.7502031,69.5764629 27.2452442,68.9088341 27.8989524,68.2018111 C28.8805724,67.1350564 30.2186643,65.9521923 31.5842585,64.9517858 C32.9456216,63.9493059 34.3556426,63.1261734 35.3954405,62.762295 L34.7057679,60.8910683 C32.6452121,61.6312655 30.1932776,63.3428418 28.1432996,65.1580872 C27.1235995,66.0672649 26.2170819,66.9971765 25.5390448,67.8690334 C25.1994973,68.3054801 24.9160123,68.7274133 24.7033984,69.1462363 C24.4929002,69.5671327 24.3342332,69.981809 24.3289443,70.4773471 C24.3289443,70.7323731 24.3818333,71.0143529 24.5214602,71.2745623 C24.8144654,71.8001645 25.2502708,72.0551904 25.6987696,72.2656386 C26.3820956,72.5704257 27.212453,72.7518465 28.175033,72.8824696 C29.1365552,73.0089458 30.2218377,73.0711473 31.3536625,73.0711473 C32.765799,73.0711473 34.247749,72.974735 35.6313255,72.7756904 C37.0170176,72.5756091 38.2990472,72.281189 39.3462495,71.8437055 C42.3461141,70.5861997 44.1253004,68.3593881 45.1365383,66.4933448 C46.1509495,64.6200447 46.4312612,63.077449 46.4439546,63.0100641 L46.5592526,62.3724993 L46.0113225,62.011731 C45.9182378,61.9567863 43.164836,60.1363575 39.1135379,60.128064 C37.7595793,60.1270273 36.2659936,60.3374755 34.7057679,60.8910683 L35.0506042,61.8261633 L35.3954405,62.762295 Z" id="Fill-372" fill="#1D1209"></path>
            <path d="M78.7231747,72.9301836 L78.7305792,72.8731656 C78.8109704,72.2179771 79.6751769,66.114979 82.5195478,60.3146946 C83.9369732,57.4119606 85.8441509,54.5994188 88.3246454,52.550918 C90.8136022,50.5034539 93.8325069,49.1868567 97.7240802,49.1795998 C100.446806,49.1795998 103.619089,49.8410085 107.3118,51.4530625 L108.362175,49.1433157 C104.409251,47.416189 100.877323,46.6511112 97.7240802,46.6511112 C93.066674,46.6428177 89.2829943,48.3502473 86.3857344,50.8497085 C82.0308533,54.6056389 79.5323765,60.0441183 78.0567732,64.5298789 C76.5875165,69.0197863 76.16652,72.5860023 76.1601733,72.6399102 L78.7231747,72.9301836" id="Fill-373" fill="#1D1209"></path>
            <path d="M117.132445,50.9960537 C112.188381,47.4536816 106.868804,49.1123867 106.868804,49.1123867 C106.868804,49.1123867 106.208749,54.9717625 110.792111,58.6634181 C113.983434,61.2375211 122.523951,63.5845888 123.807038,62.2679916 C125.091183,60.9503578 120.470799,53.3866625 117.132445,50.9960537" id="Fill-374" fill="#56B146"></path>
            <path d="M117.689681,50.1509556 C114.923586,48.168803 112.03373,47.6857051 109.914997,47.6877785 C107.924254,47.6888152 106.58722,48.1024548 106.518465,48.1231886 L105.891201,48.3191231 L105.817156,48.959798 C105.813983,48.9908987 105.778018,49.3195296 105.778018,49.8586088 C105.778018,50.7937038 105.882739,52.3674003 106.471922,54.1214809 C107.060048,55.8734882 108.149562,57.8152099 110.105397,59.389943 C111.560903,60.5551834 113.762143,61.5586999 116.025793,62.3279244 C118.293674,63.086782 120.567901,63.5926871 122.246598,63.5989072 C122.664421,63.5978705 123.051569,63.5678065 123.423908,63.4796878 C123.790957,63.3874223 124.167527,63.244359 124.497554,62.9157281 C124.704879,62.7032065 124.831813,62.4544007 124.903742,62.2180352 C124.975671,61.9806331 124.998942,61.7515244 125,61.5255258 C124.989422,60.6795862 124.692186,59.8004725 124.252149,58.7948826 C123.585748,57.3010113 122.551239,55.5946184 121.386623,54.0292155 C120.216718,52.4638125 118.93892,51.0518398 117.689681,50.1509556 L117.090978,50.9543909 L116.491216,51.7567895 C117.778535,52.6690773 119.485792,54.6802572 120.785804,56.6966206 C121.439512,57.704284 122.003309,58.7181675 122.390456,59.591061 C122.783951,60.4546244 122.97964,61.2114086 122.969062,61.5255258 L122.958484,61.6478553 L123.232449,61.7276805 L123.031471,61.5390028 L122.958484,61.6478553 L123.232449,61.7276805 L123.031471,61.5390028 L123.220814,61.7131669 L123.070609,61.504792 L123.220814,61.7131669 L123.070609,61.504792 L123.12244,61.5773604 L123.075898,61.501682 L123.12244,61.5773604 L123.075898,61.501682 C123.075898,61.5037553 123.000795,61.5390028 122.853764,61.5649201 C122.706733,61.5918741 122.497292,61.6094978 122.246598,61.6094978 C120.985724,61.6157179 118.791888,61.1616474 116.685848,60.4463308 C114.575576,59.7403445 112.498096,58.7523782 111.394831,57.8535674 C109.790179,56.5597774 108.900586,54.9819342 108.400256,53.4984298 C107.902041,52.0190722 107.807899,50.6444203 107.807899,49.8586088 C107.883001,49.8358016 108.32198,49.6771879 109.914997,49.6782246 C111.734379,49.6792613 114.150349,50.0814973 116.491216,51.7567895 L117.090978,50.9543909 L117.689681,50.1509556 Z" id="Fill-375" fill="#1D1209"></path>
            <path d="M99.1872541,38.0288378 C95.1877872,42.5736898 96.4454879,47.9053901 96.4454879,47.9053901 C96.4454879,47.9053901 102.350017,49.0187959 106.474302,44.8409324 C109.349348,41.9288682 112.426431,33.7752959 111.189886,32.4161944 C109.953341,31.0550196 101.888825,34.9602334 99.1872541,38.0288378" id="Fill-376" fill="#56B146"></path>
            <path d="M99.1457432,37.987457 L98.376737,37.337452 C95.7143043,40.3635521 95.1981075,43.7151731 95.2002231,45.8310588 C95.2002231,47.1673531 95.4022591,48.0329899 95.4149525,48.0889711 L95.5640995,48.7182424 L96.211461,48.8405719 C96.2601188,48.8499021 97.0333562,48.9929654 98.2212433,48.9929654 C99.3361436,48.9929654 100.818094,48.8675259 102.404764,48.3678409 C103.990376,47.8691927 105.68494,46.9880056 107.161601,45.492061 C108.530369,44.0925285 109.789127,41.8729738 110.774979,39.6057312 C111.262615,38.4726283 111.674092,37.3343419 111.967097,36.2852109 C112.259044,35.2340066 112.439925,34.2854346 112.443098,33.4623022 C112.44204,33.1554417 112.417711,32.8630949 112.344724,32.5728216 C112.271737,32.2856582 112.151151,31.9870913 111.906803,31.7144417 L111.905746,31.7123683 C111.668803,31.4521589 111.369451,31.297692 111.090197,31.2137201 C110.80777,31.1287114 110.532747,31.1017575 110.253493,31.1007208 C109.410442,31.1069409 108.484884,31.3453798 107.441913,31.7092582 C105.886976,32.2607777 104.11731,33.1264144 102.484097,34.1185274 C100.849827,35.1147871 99.3657615,36.2188627 98.376737,37.337452 L99.9136916,38.6364254 C100.916467,37.4846621 103.012988,36.0250016 105.109508,34.9292195 C106.158826,34.3777001 107.213433,33.9060058 108.131586,33.5815216 C109.04445,33.2528906 109.843074,33.0849468 110.253493,33.0911669 C110.385715,33.0901302 110.470338,33.1067173 110.48832,33.1139741 L110.490436,33.1139741 L110.611023,32.8433978 L110.389947,33.0362223 L110.490436,33.1139741 L110.611023,32.8433978 L110.389947,33.0362223 L110.387831,33.0351856 L110.538036,32.9035259 L110.35504,32.9895712 L110.387831,33.0351856 L110.538036,32.9035259 L110.35504,32.9895712 C110.361386,32.9916446 110.416391,33.1751388 110.41216,33.4623022 C110.415333,33.9837576 110.274649,34.8172569 110.009146,35.7596087 C109.612478,37.1788383 108.948192,38.8665707 108.169666,40.3977629 C107.396429,41.9289551 106.490969,43.3150105 105.702923,44.1080789 C104.488591,45.3365574 103.113477,46.0539473 101.783847,46.473807 C100.456333,46.8915934 99.1785344,47.003556 98.2212433,47.003556 C97.7113933,47.003556 97.2925123,46.9724553 97.0079694,46.9413546 C96.8651691,46.9268409 96.7562177,46.9123272 96.6864043,46.9009236 L96.6091863,46.88952 L96.5943774,46.8864099 L96.5732218,47.0014826 L96.5954352,46.8864099 L96.5943774,46.8864099 L96.5732218,47.0014826 L96.5954352,46.8864099 L96.4039769,47.8640093 L97.3930014,47.6390474 L97.27453,47.6649647 L97.3930014,47.6400841 L97.3930014,47.6390474 L97.27453,47.6649647 L97.3930014,47.6400841 C97.3845392,47.6017265 97.2301033,46.8988502 97.2301033,45.8310588 C97.2322188,44.01063 97.6659087,41.1908313 99.9136916,38.6364254 L99.1457432,37.987457" id="Fill-377" fill="#1D1209"></path>
            <path d="M105.314596,51.7966323 C101.30984,47.255927 95.7427431,47.6996307 95.7427431,47.6996307 C95.7427431,47.6996307 93.7594052,53.2645863 97.3770135,57.870603 C99.8987614,61.0833075 107.679792,65.2518408 109.233672,64.2503976 C110.785435,63.2510277 108.01934,54.8621267 105.314596,51.7966323" id="Fill-378" fill="#56B146"></path>
            <path d="M106.040355,51.1036677 C104.228377,49.04791 102.104355,47.9262107 100.270164,47.3321869 C98.4317419,46.7350531 96.876805,46.6510812 96.1162611,46.6510812 C95.8169093,46.6510812 95.6413178,46.6645581 95.615931,46.6666315 L95.2704468,46.7988892 L94.7422046,47.3290769 C94.7199912,47.3974985 94.1445588,49.0126626 94.1424432,51.2913087 C94.1403277,53.36158 94.6311377,56.0186183 96.5298531,58.4361809 C97.8182294,60.0606753 100.062839,61.7069401 102.34976,63.0328675 C103.492162,63.6901294 104.640912,64.2561625 105.689172,64.6677287 C106.743779,65.0761848 107.667221,65.3467611 108.524023,65.3550546 C108.918575,65.3519446 109.334282,65.2980366 109.745759,65.041974 C110.176275,64.7599942 110.388889,64.3556848 110.502072,63.989733 C110.616312,63.614451 110.652276,63.2339855 110.653334,62.8244926 C110.652276,62.0075804 110.498898,61.0693753 110.247147,60.0430515 C109.867403,58.5066759 109.25918,56.7909528 108.529312,55.1996326 C107.79627,53.6072757 106.95745,52.1496886 106.040355,51.1036677 L105.272406,51.7547094 L104.504458,52.4047145 C105.449056,53.4662858 106.531165,55.4867959 107.317095,57.5290766 C107.713763,58.5512536 108.044848,59.5827609 108.273329,60.5095623 C108.502867,61.4342904 108.624512,62.2615696 108.623454,62.8244926 C108.624512,63.1033624 108.590663,63.3148473 108.559987,63.4102229 L108.537774,63.4672409 L108.790583,63.6123776 L108.632974,63.3770488 L108.537774,63.4672409 L108.790583,63.6123776 L108.632974,63.3770488 L108.772601,63.5792035 L108.679516,63.3521682 L108.772601,63.5792035 L108.679516,63.3521682 L108.71125,63.4288833 L108.684805,63.3511315 L108.71125,63.4288833 L108.684805,63.3511315 C108.684805,63.3521682 108.629801,63.3656452 108.524023,63.3646085 C108.16332,63.3739387 107.361522,63.1873344 106.443369,62.8213826 C105.054504,62.27712 103.339842,61.3637955 101.796541,60.3374717 C100.252182,59.3163313 98.8675473,58.1583478 98.1397946,57.2222161 C96.5848577,55.2431736 96.174439,53.0702699 96.1723234,51.2913087 C96.1723234,50.3188928 96.2981993,49.232441 96.4230173,48.6404906 C97.0270098,48.6404906 98.0678655,48.7120223 99.6302068,49.2210374 C101.195722,49.7310892 102.966446,50.6641108 104.504458,52.4057512 L105.272406,51.7547094 L106.040355,51.1036677 Z" id="Fill-379" fill="#1D1209"></path>
            <path d="M95.0457807,54.3415905 C89.6891819,51.4347098 84.6224148,53.7351265 84.6224148,53.7351265 C84.6224148,53.7351265 84.7218461,59.6287131 89.7378398,62.7284182 C93.2369766,64.8888816 102.009148,66.1691946 103.11347,64.703314 C104.216735,63.2395067 98.6655045,56.3019726 95.0457807,54.3415905" id="Fill-380" fill="#56B146"></path>
            <path d="M95.0140473,54.2997936 L95.5059151,53.4289734 C93.2613056,52.2098251 91.0463138,51.8324697 89.1994296,51.8345431 C86.2704363,51.8376532 84.2469028,52.7561611 84.1633382,52.7914086 L83.5646346,53.0630216 L83.5752124,53.7099166 C83.577328,53.7783382 83.605888,55.3447778 84.3061385,57.3507743 C85.0053312,59.3505506 86.4047744,61.8230579 89.1645229,63.5284141 C90.5639661,64.386794 92.5113394,65.0440559 94.5528552,65.5250804 C96.5943709,66.0009214 98.7067579,66.2829013 100.408726,66.283938 C101.129075,66.283938 101.776436,66.2352135 102.349753,66.1087373 C102.637469,66.0434257 102.907203,65.9594538 103.168475,65.8329775 C103.426573,65.7044279 103.685729,65.5302638 103.896228,65.2545041 L103.899401,65.251394 C104.163846,64.8968458 104.240006,64.4987566 104.238948,64.155612 C104.235775,63.7025782 104.122592,63.2847918 103.958637,62.8441983 C103.372626,61.3316665 102.05569,59.4780636 100.489118,57.7063592 C98.9161984,55.9450217 97.1359544,54.3194907 95.5048573,53.4289734 L94.5232373,55.1706138 C95.9639339,55.9408749 97.9969874,57.8203952 99.5699066,59.724796 C100.361126,60.6754413 101.049741,61.6374903 101.522569,62.4554393 C101.758454,62.8638954 101.940392,63.2360673 102.05569,63.538781 C102.172046,63.8394213 102.212241,64.0737134 102.209068,64.155612 L102.206953,64.1846393 L102.324366,64.1981163 L102.215415,64.1597587 L102.206953,64.1846393 L102.324366,64.1981163 L102.215415,64.1597587 L102.552847,64.2800149 L102.264073,64.07164 L102.215415,64.1597587 L102.552847,64.2800149 L102.264073,64.07164 L102.267246,64.06853 L102.43226,64.1877494 L102.305326,64.0270623 L102.267246,64.06853 L102.43226,64.1877494 L102.305326,64.0270623 C102.305326,64.0343192 102.10329,64.1390249 101.760569,64.1960429 C101.419964,64.2582444 100.95031,64.2945285 100.408726,64.2945285 C98.9352385,64.2955652 96.9254561,64.0353559 95.0246251,63.5895789 C93.1237941,63.150022 91.3075856,62.5052004 90.2476898,61.8448284 C87.9903869,60.4504795 86.8321176,58.4268592 86.2270673,56.704916 C85.9266578,55.8465361 85.7701063,55.0731648 85.689715,54.5216454 C85.6484616,54.2469223 85.627306,54.0271439 85.6167282,53.8799338 L85.6072081,53.7171734 L85.6050926,53.6808892 L85.6050926,53.6777792 L84.5906814,53.6933295 L85.0169668,54.5962871 L84.8836865,54.3143072 L85.0148512,54.5973238 L85.0169668,54.5962871 L84.8836865,54.3143072 L85.0148512,54.5973238 C85.0465846,54.5807368 86.7919219,53.8208425 89.1994296,53.8239525 C90.771291,53.8249892 92.6181752,54.1380698 94.5221795,55.1695771 L95.0140473,54.2997936" id="Fill-381" fill="#1D1209"></path>
            <path d="M80.4197892,44.7368358 C80.0040815,50.7247612 84.2743402,54.2495096 84.2743402,54.2495096 C84.2743402,54.2495096 89.6806547,51.664003 90.4211008,45.8989661 C90.935182,41.8766062 88.4007407,33.5467965 86.5781854,33.1860281 C84.7566879,32.8262964 80.6990431,40.6937421 80.4197892,44.7368358" id="Fill-382" fill="#56B146"></path>
            <path d="M80.4219697,44.6253875 C80.4008141,44.9260278 80.391294,45.2214847 80.391294,45.5117581 C80.391294,48.4912071 81.4469587,50.8527885 82.4931033,52.4544757 C83.5413634,54.0582362 84.5822191,54.9228362 84.6361659,54.9684506 L85.1407271,55.3852002 L85.7351995,55.101147 C85.7976086,55.0700463 87.2330163,54.3816837 88.7911265,52.9095829 C90.34289,51.4426655 92.0363961,49.1526158 92.4436415,45.981379 C92.4954727,45.5698128 92.5176861,45.1375127 92.5176861,44.6855156 C92.5145127,42.3840623 91.9327336,39.5290161 91.1351674,37.1259671 C90.7332109,35.9254793 90.2815388,34.8452476 89.7854399,33.9920511 C89.5358037,33.5649345 89.2777054,33.1927626 88.9772958,32.8776086 C88.6747707,32.5697115 88.3257032,32.2825482 87.7946976,32.1685122 C87.686804,32.1477784 87.5767948,32.1374115 87.4689013,32.1374115 C86.8744288,32.1477784 86.44497,32.3976208 86.0620536,32.6775273 C85.3988254,33.1844691 84.8054108,33.9225928 84.1982449,34.8286605 C83.298074,36.1846519 82.4180009,37.9128153 81.7240971,39.6596391 C81.0344244,41.4106097 80.5277477,43.1574335 80.4219697,44.6274609 L81.4353231,44.6948458 L82.4476187,44.761194 C82.5047389,43.9079976 82.7765884,42.7500141 83.1912382,41.5350126 C83.8110974,39.7094003 84.7472328,37.7355412 85.6706749,36.2706973 C86.1286938,35.5387936 86.5898859,34.9323296 86.9664557,34.5529008 C87.1536828,34.3631864 87.3186965,34.2325634 87.4244745,34.1713986 L87.5207325,34.1226741 L87.4689013,33.9225928 L87.4689013,34.1268209 L87.5228481,34.1216374 L87.4689013,33.9225928 L87.4689013,34.1268209 L87.4689013,33.7515389 L87.3916833,34.1195641 L87.4689013,34.1268209 L87.4689013,33.7515389 L87.3916833,34.1195641 L87.441399,33.8811252 L87.3409099,34.1040137 L87.3927411,34.1195641 L87.441399,33.8811252 L87.3409099,34.1040137 C87.3514877,34.1060871 87.4911146,34.2097562 87.6487239,34.4160576 C87.9332668,34.7737159 88.2865653,35.4092073 88.6187083,36.1887987 C89.631004,38.5317197 90.4962682,42.214045 90.4878059,44.6855156 C90.4878059,45.0711645 90.4677081,45.4257128 90.4285702,45.7346466 C90.0953695,48.3263733 88.7160241,50.211077 87.3800477,51.477913 C86.714704,52.108221 86.065227,52.5757685 85.5902837,52.8805555 C85.5299902,52.8307944 84.9841756,52.6172361 84.1199692,51.2519144 C83.2525894,49.882446 82.422232,47.9438345 82.4211742,45.5117581 C82.4211742,45.2670991 82.4296365,45.0172566 82.4476187,44.7632674 L81.4353231,44.6948458 L80.4219697,44.6253875 Z" id="Fill-383" fill="#1D1209"></path>
            <path d="M72.4467582,56.485614 C74.2047888,62.2340639 79.4661875,64.0638229 79.4661875,64.0638229 C79.4661875,64.0638229 83.6010502,59.7843638 82.2291093,54.1312894 C81.2686449,50.187718 75.9109883,43.2605508 74.0767974,43.5497875 C72.2415488,43.8400609 71.2609866,52.6032073 72.4467582,56.485614" id="Fill-384" fill="#56B146"></path>
            <path d="M72.4050537,56.4436614 L71.4318959,56.7297881 C72.383898,59.8440069 74.2953068,61.9080581 75.9486173,63.1728207 C77.6061588,64.4406934 79.015122,64.9341582 79.0849355,64.9600755 L79.7069103,65.1767438 L80.1617557,64.7060863 C80.2030092,64.6625452 81.0143266,63.818679 81.8330484,62.3714588 C82.648597,60.9273487 83.4789544,58.8664076 83.4800122,56.4104873 C83.4800122,55.5956485 83.3879853,54.7414153 83.1743137,53.8591915 C82.9045798,52.758226 82.3725163,51.5577382 81.6997681,50.3323698 C80.6874725,48.4974273 79.3557272,46.6272373 78.057831,45.1748336 C77.4072961,44.4481134 76.7683969,43.8271357 76.1506533,43.3585515 C75.8407237,43.1232227 75.536083,42.9262515 75.2155756,42.7728213 C74.896126,42.6235378 74.5576363,42.5074285 74.150391,42.5043184 C74.063653,42.5043184 73.9695105,42.5084652 73.8573858,42.5281623 L74.0350929,43.507835 L73.8732525,42.5250522 C73.4321582,42.5965839 73.0957841,42.8267292 72.8503791,43.0703515 C72.4219781,43.507835 72.1638798,44.0344738 71.9258792,44.6554516 C71.5768118,45.5843264 71.3229445,46.7371265 71.1441797,48.0029258 C70.9675304,49.2676885 70.8712724,50.6402669 70.8712724,51.9734512 C70.8733879,53.7275318 71.0288816,55.4017873 71.4318959,56.7297881 L72.4050537,56.4436614 L73.3771536,56.1575348 C73.0629929,55.1477981 72.899037,53.5989822 72.9011526,51.9734512 C72.9000948,50.0856374 73.1137664,48.0713474 73.4691805,46.5691826 C73.6437142,45.8206919 73.8595014,45.1976408 74.0604796,44.8202854 C74.1577954,44.6326444 74.2529956,44.5092782 74.2974224,44.4667739 L74.318578,44.4481134 L74.299538,44.4242695 L74.3154047,44.4501868 L74.318578,44.4481134 L74.299538,44.4242695 L74.3154047,44.4501868 L74.1472176,44.1899775 L74.1958755,44.4895811 L74.3154047,44.4501868 L74.1472176,44.1899775 L74.1958755,44.4895811 L74.2117422,44.4875077 L74.150391,44.1453998 L74.150391,44.4937278 L74.2117422,44.4875077 L74.150391,44.1453998 L74.150391,44.4937278 L74.150391,44.3765818 L74.1376976,44.4937278 L74.150391,44.4937278 L74.150391,44.3765818 L74.1376976,44.4937278 L74.2593423,44.5320854 C74.5692719,44.6481947 75.2250956,45.1271458 75.9094794,45.8258754 C76.9535084,46.8739697 78.1488001,48.4030884 79.1388823,49.9705648 C80.1321379,51.534931 80.9222997,53.1635721 81.1994381,54.3205189 C81.3750296,55.0451657 81.450132,55.7438952 81.450132,56.4104873 C81.4511898,58.4164838 80.7615171,60.162271 80.0570355,61.4073365 C79.7058525,62.0293509 79.3536117,62.5228157 79.0933978,62.8555934 C78.9632908,63.0214639 78.8575128,63.1479401 78.7855837,63.2298387 L78.7051924,63.3179574 L78.6882679,63.3366179 L78.6872102,63.3376545 L79.424483,64.0218704 L79.7640304,63.0836653 L79.7619148,63.0836653 C79.6772924,63.0536013 78.4460363,62.5912372 77.0656331,61.5016753 C75.6820567,60.4079666 74.1588532,58.710904 73.3771536,56.1585715 L72.4050537,56.4436614" id="Fill-385" fill="#1D1209"></path>
            <path d="M89.7262042,61.8679707 C83.9676489,59.8267267 79.3335139,62.8787441 79.3335139,62.8787441 C79.3335139,62.8787441 80.3775429,68.684212 85.829342,70.9711516 C89.6320617,72.5645452 98.5004908,72.4712431 99.3572928,70.8550423 C100.210921,69.2388415 93.6146041,63.2457326 89.7262042,61.8679707" id="Fill-386" fill="#56B146"></path>
            <path d="M90.1281606,60.8910683 C88.5679349,60.3374755 87.0732915,60.1270273 85.7203906,60.128064 C81.6680347,60.1363575 78.9156907,61.9567863 78.8236638,62.011731 L78.2757337,62.3724993 L78.3910317,63.0100641 C78.4037251,63.077449 78.682979,64.619008 79.6973902,66.4923081 C80.7086281,68.3593881 82.4878144,70.5861997 85.487679,71.8437055 C86.5348814,72.281189 87.8169109,72.5756091 89.2015452,72.7756904 C90.5851217,72.974735 92.0660139,73.0711473 93.4781505,73.0711473 C94.986545,73.0701106 96.4103172,72.9622947 97.5738754,72.7321494 C98.1567122,72.61604 98.6750245,72.4709034 99.1319856,72.2666753 C99.5815422,72.0551904 100.01629,71.8022379 100.313526,71.2735256 C100.454211,71.0050227 100.503926,70.7271896 100.503926,70.4783838 C100.49758,69.981809 100.339971,69.5671327 100.129472,69.1462363 C99.7560759,68.4174427 99.1690079,67.6627319 98.4401973,66.8686268 C97.3464526,65.6826527 95.9322005,64.4365505 94.4640016,63.3583922 C92.9926294,62.2812705 91.4874082,61.3762396 90.1281606,60.8910683 L89.7833243,61.8261633 L89.4374302,62.762295 C91.0325627,63.3158878 93.4347815,64.9393455 95.3229191,66.6312247 C96.2728057,67.4761276 97.1084521,68.3417643 97.6785956,69.0757413 C97.9631385,69.4416931 98.1810412,69.7755076 98.3132637,70.0346802 C98.4486596,70.2917795 98.4772196,70.4752738 98.4729885,70.4783838 L98.7480114,70.4783838 L98.5110686,70.3581277 L98.4729885,70.4783838 L98.7480114,70.4783838 L98.5110686,70.3581277 L98.716278,70.4566133 L98.5438598,70.3073299 L98.5131842,70.3529443 L98.716278,70.4566133 L98.5438598,70.3073299 C98.4687574,70.370568 98.2667214,70.4835673 97.9641963,70.5799795 C97.0492164,70.8878767 95.3250347,71.0858846 93.4781505,71.0807011 C92.1612142,71.0807011 90.7660021,70.9894724 89.4956081,70.8070148 C88.2262719,70.6266306 87.0764648,70.3477608 86.2852452,70.0139464 C83.8333108,68.9855492 82.3640541,67.1661571 81.4903277,65.5582498 C81.05558,64.7579246 80.776326,63.8902145 80.608139,63.3583922 C80.6716058,63.3117411 82.422232,62.1102166 85.7203906,62.1174734 C86.8606777,62.1185101 88.1109738,62.2926741 89.4374302,62.762295 L89.7833243,61.8261633 L90.1281606,60.8910683 Z" id="Fill-387" fill="#1D1209"></path>
            <path d="M48.733,113.261 C48.733,114.51 46.778,115.525 44.365,115.525 C41.955,115.525 40,114.51 40,113.261 C40,112.012 41.955,111 44.365,111 C46.778,111 48.733,112.012 48.733,113.261" id="Fill-390" fill="#EE9E80"></path>
            <path d="M81.735,113.261 C81.735,114.51 79.78,115.525 77.368,115.525 C74.957,115.525 73,114.51 73,113.261 C73,112.012 74.957,111 77.368,111 C79.78,111 81.735,112.012 81.735,113.261" id="Fill-391" fill="#EE9E80"></path>
            <path d="M52.0522243,118.679387 C52.0854244,118.782482 52.510037,120.246784 53.7838748,121.775739 C54.4234148,122.537595 55.2813769,123.315178 56.4101824,123.900549 C57.5372405,124.487668 58.9298999,124.870344 60.56195,124.868596 C61.2923536,124.868596 62.0716837,124.791712 62.8999404,124.630953 C66.2863569,123.986171 68.3639881,122.240541 69.4263933,120.411038 C70.4992827,118.586776 70.6425676,116.78523 70.6460624,115.841647 C70.6460624,115.443245 70.6198517,115.195117 70.6146096,115.15318 C70.5307355,114.438503 69.8859534,113.926522 69.1712762,114.008648 C68.4548517,114.090775 67.9428702,114.737305 68.024997,115.451982 L68.024997,115.455477 C68.0284917,115.493919 68.038976,115.631962 68.038976,115.841647 C68.0424707,116.503903 67.9166596,117.854625 67.1827613,119.083031 C66.4383787,120.307942 65.169783,121.513632 62.4001906,122.072793 C61.7239557,122.203846 61.1123737,122.26151 60.56195,122.26151 C59.3283019,122.258015 58.382971,121.985424 57.6106303,121.587022 C56.4591089,120.991167 55.6850209,120.077289 55.1975028,119.289222 C54.9546174,118.897809 54.7886166,118.543092 54.6855213,118.296712 L54.577184,118.015384 L54.5562154,117.952478 L54.5544681,117.948983 C54.3517723,117.25877 53.6283583,116.862115 52.9381444,117.063063 C52.2479305,117.265759 51.8512759,117.989173 52.0522243,118.679387" id="Fill-240" fill="#1D1209"></path>
            <path d="M72.4381549,122.474398 C74.3836741,124.554822 71.9013018,128.592552 68.4935844,125.895136 C67.629419,125.212388 66.6857199,124.400924 66.1305128,123.59086 C65.8123776,123.123569 65.9592092,121.879791 67.9093168,121.977726 C67.5422378,120.171521 68.4721714,119.827348 68.9065483,120.067989 C69.8793079,120.605234 71.7911781,121.777659 72.4381549,122.474398" id="Fill-241" fill="#D0655B"></path>
            <path d="M71.5661537,122.525783 C71.9575661,122.983596 72.1357986,123.547999 72.1375459,124.13337 C72.1410407,124.755436 71.9191238,125.382745 71.5679011,125.8126 C71.2114362,126.245949 70.7850762,126.481845 70.2468841,126.48534 C69.7576185,126.48534 69.0971101,126.275654 68.2898219,125.576704 C67.3217751,124.7467 66.29257,123.759432 65.7578727,122.89448 L65.7386516,122.773911 L65.8784417,122.447152 C65.9815369,122.352793 66.2191802,122.206013 66.8080462,122.202519 L67.0020051,122.207761 L68.1115895,122.274161 L67.9071463,121.180303 C67.8494829,120.865775 67.8250196,120.605416 67.8250196,120.397478 C67.8250196,119.960634 67.9263675,119.768423 67.9595677,119.726486 L67.8756936,119.600674 L67.8756936,119.738717 L67.9717993,119.712507 L67.8756936,119.600674 L67.8756936,119.738717 L67.8756936,119.485348 L67.7463877,119.702022 L67.8756936,119.738717 L67.8756936,119.485348 L67.7463877,119.702022 C68.2740955,120.021792 69.0866258,120.547753 69.8414926,121.08944 C70.5911173,121.624137 71.3057945,122.211256 71.5661537,122.525783 L72.2266622,121.961381 L72.888918,121.396978 C72.4083894,120.843059 71.660512,120.261183 70.8549713,119.679306 C70.0546726,119.102672 69.2194264,118.560985 68.6410447,118.21151 C68.4086435,118.073467 68.1447896,118.000077 67.8756936,118.000077 C67.3846806,117.994835 66.8761939,118.256942 66.5599187,118.697281 C66.2384014,119.13762 66.0881269,119.709012 66.0881269,120.397478 C66.0881269,120.463879 66.0129897,120.068971 66.0881269,120.472616 C65.2004595,120.469121 65.1882278,120.712006 64.6919728,121.176808 C64.1957177,121.639863 63.9982641,122.251445 64.0000115,122.773911 C64.0035062,123.151344 64.0891277,123.499072 64.2848339,123.818842 C65.0152375,124.977353 66.1422956,126.015295 67.1522795,126.892478 C68.1797372,127.783641 69.240395,128.22398 70.2468841,128.22398 C71.3599632,128.227474 72.3122836,127.671809 72.9221182,126.902963 C73.5406896,126.130622 73.8726913,125.146849 73.876186,124.13337 C73.8779334,123.188039 73.5756372,122.200771 72.8871707,121.396978 L72.2266622,121.961381 L71.5661537,122.525783 Z" id="Fill-242" fill="#1D1209"></path>
        </g>
    </g>
</svg>
